{
  "asset": {
    "generator": "Khronos glTF Blender I/O v3.3.32",
    "version": "2.0"
  },
  "scene": 0,
  "scenes": [
    {
      "name": "Scene",
      "nodes": [
        4
      ]
    }
  ],
  "nodes": [
    {
      "mesh": 0,
      "name": "garden_sprinkler_01_nozel_left",
      "rotation": [
        -0.4619397521018982,
        0.8001031875610352,
        0.33141353726387024,
        0.19134169816970825
      ],
      "translation": [
        -0.13056278228759766,
        0.011915326118469238,
        0.011915400624275208
      ]
    },
    {
      "mesh": 1,
      "name": "garden_sprinkler_01_nozel_right",
      "rotation": [
        -0.33141353726387024,
        -0.19134169816970825,
        -0.4619397521018982,
        0.8001031875610352
      ],
      "translation": [
        0.13056278228759766,
        0.011915326118469238,
        -0.011915415525436401
      ]
    },
    {
      "children": [
        0,
        1
      ],
      "mesh": 2,
      "name": "garden_sprinkler_01_spinner",
      "translation": [
        0,
        0.13798780739307404,
        0.07819050550460815
      ]
    },
    {
      "mesh": 3,
      "name": "garden_sprinkler_01_wheels",
      "translation": [
        0,
        0.00834415853023529,
        -0.03147345781326294
      ]
    },
    {
      "children": [
        2,
        3
      ],
      "mesh": 4,
      "name": "garden_sprinkler_01_body_main",
      "translation": [
        0,
        0.028758570551872253,
        -0.07819050550460815
      ]
    }
  ],
  "materials": [
    {
      "doubleSided": true,
      "name": "garden_sprinkler_01",
      "normalTexture": {
        "index": 0
      },
      "pbrMetallicRoughness": {
        "baseColorTexture": {
          "index": 1
        },
        "metallicRoughnessTexture": {
          "index": 2
        }
      }
    }
  ],
  "meshes": [
    {
      "name": "garden_sprinkler_01_nozel_left",
      "primitives": [
        {
          "attributes": {
            "POSITION": 0,
            "NORMAL": 1,
            "TEXCOORD_0": 2
          },
          "indices": 3,
          "material": 0
        }
      ]
    },
    {
      "name": "garden_sprinkler_01_nozel_right",
      "primitives": [
        {
          "attributes": {
            "POSITION": 4,
            "NORMAL": 5,
            "TEXCOORD_0": 6
          },
          "indices": 7,
          "material": 0
        }
      ]
    },
    {
      "name": "garden_sprinkler_01_spinner",
      "primitives": [
        {
          "attributes": {
            "POSITION": 8,
            "NORMAL": 9,
            "TEXCOORD_0": 10
          },
          "indices": 11,
          "material": 0
        }
      ]
    },
    {
      "name": "garden_sprinkler_01_wheels",
      "primitives": [
        {
          "attributes": {
            "POSITION": 12,
            "NORMAL": 13,
            "TEXCOORD_0": 14
          },
          "indices": 15,
          "material": 0
        }
      ]
    },
    {
      "name": "garden_sprinkler_01_body_main",
      "primitives": [
        {
          "attributes": {
            "POSITION": 16,
            "NORMAL": 17,
            "TEXCOORD_0": 18
          },
          "indices": 19,
          "material": 0
        }
      ]
    }
  ],
  "textures": [
    {
      "sampler": 0,
      "source": 0
    },
    {
      "sampler": 0,
      "source": 1
    },
    {
      "sampler": 0,
      "source": 2
    }
  ],
  "images": [
    {
      "mimeType": "image/jpeg",
      "name": "garden_sprinkler_01_nor_gl",
      "uri": "textures/garden_sprinkler_01_nor_gl_1k.jpg"
    },
    {
      "mimeType": "image/jpeg",
      "name": "garden_sprinkler_01_diff",
      "uri": "textures/garden_sprinkler_01_diff_1k.jpg"
    },
    {
      "mimeType": "image/jpeg",
      "name": "garden_sprinkler_01_metal-garden_sprinkler_01_rough",
      "uri": "textures/garden_sprinkler_01_arm_1k.jpg"
    }
  ],
  "accessors": [
    {
      "bufferView": 0,
      "componentType": 5126,
      "count": 1258,
      "max": [
        0.015116813592612743,
        0.0481225959956646,
        0.015116813592612743
      ],
      "min": [
        -0.015116813592612743,
        -0.008082072250545025,
        -0.015116811729967594
      ],
      "type": "VEC3"
    },
    {
      "bufferView": 1,
      "componentType": 5126,
      "count": 1258,
      "type": "VEC3"
    },
    {
      "bufferView": 2,
      "componentType": 5126,
      "count": 1258,
      "type": "VEC2"
    },
    {
      "bufferView": 3,
      "componentType": 5123,
      "count": 4398,
      "type": "SCALAR"
    },
    {
      "bufferView": 4,
      "componentType": 5126,
      "count": 1258,
      "max": [
        0.015116813592612743,
        0.048122588545084,
        0.015116813592612743
      ],
      "min": [
        -0.015116813592612743,
        -0.008082072250545025,
        -0.015116811729967594
      ],
      "type": "VEC3"
    },
    {
      "bufferView": 5,
      "componentType": 5126,
      "count": 1258,
      "type": "VEC3"
    },
    {
      "bufferView": 6,
      "componentType": 5126,
      "count": 1258,
      "type": "VEC2"
    },
    {
      "bufferView": 7,
      "componentType": 5123,
      "count": 4398,
      "type": "SCALAR"
    },
    {
      "bufferView": 8,
      "componentType": 5126,
      "count": 450,
      "max": [
        0.14215949177742004,
        0.023657670244574547,
        0.0236576646566391
      ],
      "min": [
        -0.14215949177742004,
        -0.04021613299846649,
        -0.02365768514573574
      ],
      "type": "VEC3"
    },
    {
      "bufferView": 9,
      "componentType": 5126,
      "count": 450,
      "type": "VEC3"
    },
    {
      "bufferView": 10,
      "componentType": 5126,
      "count": 450,
      "type": "VEC2"
    },
    {
      "bufferView": 11,
      "componentType": 5123,
      "count": 1944,
      "type": "SCALAR"
    },
    {
      "bufferView": 12,
      "componentType": 5126,
      "count": 2018,
      "max": [
        0.14829930663108826,
        0.037102699279785156,
        0.037102703005075455
      ],
      "min": [
        -0.14829930663108826,
        -0.037102703005075455,
        -0.037102699279785156
      ],
      "type": "VEC3"
    },
    {
      "bufferView": 13,
      "componentType": 5126,
      "count": 2018,
      "type": "VEC3"
    },
    {
      "bufferView": 14,
      "componentType": 5126,
      "count": 2018,
      "type": "VEC2"
    },
    {
      "bufferView": 15,
      "componentType": 5123,
      "count": 4536,
      "type": "SCALAR"
    },
    {
      "bufferView": 16,
      "componentType": 5126,
      "count": 3090,
      "max": [
        0.1155448704957962,
        0.11562258750200272,
        0.18049217760562897
      ],
      "min": [
        -0.1155448704957962,
        -0.028760140761733055,
        -0.0375574454665184
      ],
      "type": "VEC3"
    },
    {
      "bufferView": 17,
      "componentType": 5126,
      "count": 3090,
      "type": "VEC3"
    },
    {
      "bufferView": 18,
      "componentType": 5126,
      "count": 3090,
      "type": "VEC2"
    },
    {
      "bufferView": 19,
      "componentType": 5123,
      "count": 9300,
      "type": "SCALAR"
    }
  ],
  "bufferViews": [
    {
      "buffer": 0,
      "byteLength": 15096,
      "byteOffset": 0,
      "target": 34962
    },
    {
      "buffer": 0,
      "byteLength": 15096,
      "byteOffset": 15096,
      "target": 34962
    },
    {
      "buffer": 0,
      "byteLength": 10064,
      "byteOffset": 30192,
      "target": 34962
    },
    {
      "buffer": 0,
      "byteLength": 8796,
      "byteOffset": 40256,
      "target": 34963
    },
    {
      "buffer": 0,
      "byteLength": 15096,
      "byteOffset": 49052,
      "target": 34962
    },
    {
      "buffer": 0,
      "byteLength": 15096,
      "byteOffset": 64148,
      "target": 34962
    },
    {
      "buffer": 0,
      "byteLength": 10064,
      "byteOffset": 79244,
      "target": 34962
    },
    {
      "buffer": 0,
      "byteLength": 8796,
      "byteOffset": 89308,
      "target": 34963
    },
    {
      "buffer": 0,
      "byteLength": 5400,
      "byteOffset": 98104,
      "target": 34962
    },
    {
      "buffer": 0,
      "byteLength": 5400,
      "byteOffset": 103504,
      "target": 34962
    },
    {
      "buffer": 0,
      "byteLength": 3600,
      "byteOffset": 108904,
      "target": 34962
    },
    {
      "buffer": 0,
      "byteLength": 3888,
      "byteOffset": 112504,
      "target": 34963
    },
    {
      "buffer": 0,
      "byteLength": 24216,
      "byteOffset": 116392,
      "target": 34962
    },
    {
      "buffer": 0,
      "byteLength": 24216,
      "byteOffset": 140608,
      "target": 34962
    },
    {
      "buffer": 0,
      "byteLength": 16144,
      "byteOffset": 164824,
      "target": 34962
    },
    {
      "buffer": 0,
      "byteLength": 9072,
      "byteOffset": 180968,
      "target": 34963
    },
    {
      "buffer": 0,
      "byteLength": 37080,
      "byteOffset": 190040,
      "target": 34962
    },
    {
      "buffer": 0,
      "byteLength": 37080,
      "byteOffset": 227120,
      "target": 34962
    },
    {
      "buffer": 0,
      "byteLength": 24720,
      "byteOffset": 264200,
      "target": 34962
    },
    {
      "buffer": 0,
      "byteLength": 18600,
      "byteOffset": 288920,
      "target": 34963
    }
  ],
  "samplers": [
    {
      "magFilter": 9729,
      "minFilter": 9987
    }
  ],
  "buffers": [
    {
      "byteLength": 307520,
      "uri": "garden_sprinkler_01.bin"
    }
  ]
}