{
 "asset": {
  "generator": "Khronos glTF Blender I/O v4.4.56",
  "version": "2.0",
  "extras": {
   "bin_md5": "300cfe39a0bc89b2d7ef2842d7977882"
  }
 },
 "extensionsUsed": [
  "KHR_materials_specular"
 ],
 "scene": 0,
 "scenes": [
  {
   "name": "Scene",
   "nodes": [
    42
   ]
  }
 ],
 "nodes": [
  {
   "name": "tail4",
   "rotation": [
    -0.03319983184337616,
    0.00010050616401713341,
    6.422235310310498e-05,
    0.9994487166404724
   ],
   "scale": [
    0.9999999403953552,
    0.9999999403953552,
    0.9999999403953552
   ],
   "translation": [
    1.8189894035458565e-11,
    0.07213931530714035,
    -2.7804658131458382e-08
   ]
  },
  {
   "children": [
    0
   ],
   "name": "tail3",
   "rotation": [
    -0.02663986012339592,
    9.475518163526431e-05,
    5.689559111488052e-05,
    0.9996450543403625
   ],
   "scale": [
    1,
    0.9999999403953552,
    1.0000001192092896
   ],
   "translation": [
    -1.1641532182693481e-10,
    0.07538226246833801,
    1.9612777180100238e-08
   ]
  },
  {
   "children": [
    1
   ],
   "name": "tail2",
   "rotation": [
    0.13737303018569946,
    -0.001970244338735938,
    -0.00081184774171561,
    0.9905170798301697
   ],
   "scale": [
    1,
    0.9999998807907104,
    0.9999999403953552
   ],
   "translation": [
    4.3655745685100555e-11,
    0.07758422940969467,
    -4.003592835033487e-08
   ]
  },
  {
   "children": [
    2
   ],
   "name": "tail1",
   "rotation": [
    -0.3141535818576813,
    0.0012792273191735148,
    0.00019968888955190778,
    0.9493712782859802
   ],
   "scale": [
    1,
    1.0000001192092896,
    0.9999999403953552
   ],
   "translation": [
    0,
    0.0885915756225586,
    -0.043278768658638
   ]
  },
  {
   "name": "rl_tip",
   "rotation": [
    0.11150594055652618,
    -1.754166693764556e-15,
    5.205496034492874e-16,
    0.99376380443573
   ],
   "scale": [
    1,
    1,
    0.9999999403953552
   ],
   "translation": [
    -3.725290076417309e-09,
    0.0669182687997818,
    1.925682280301544e-09
   ]
  },
  {
   "children": [
    4
   ],
   "name": "rl_toe",
   "rotation": [
    0.5392990708351135,
    1.3676561216868777e-08,
    -1.3182345881546098e-08,
    0.8421143293380737
   ],
   "scale": [
    1,
    0.9999999403953552,
    1
   ],
   "translation": [
    -6.177427902542831e-09,
    0.12920309603214264,
    2.3871700172151122e-09
   ]
  },
  {
   "children": [
    5
   ],
   "name": "rl_ft",
   "rotation": [
    0.49235212802886963,
    -0.04783225804567337,
    0.058987680822610855,
    0.8670766353607178
   ],
   "scale": [
    1,
    1,
    1.0000001192092896
   ],
   "translation": [
    3.725290298461914e-09,
    0.16122134029865265,
    1.4901161193847656e-08
   ]
  },
  {
   "children": [
    6
   ],
   "name": "rl_lo",
   "rotation": [
    -0.6167750954627991,
    0.043913036584854126,
    -0.06763027608394623,
    0.7829983234405518
   ],
   "scale": [
    0.9999998807907104,
    1,
    0.9999999403953552
   ],
   "translation": [
    1.7462298274040222e-09,
    0.14607104659080505,
    3.2014213502407074e-10
   ]
  },
  {
   "children": [
    7
   ],
   "name": "rl_up",
   "rotation": [
    0.9301261305809021,
    -0.005816237535327673,
    -0.0009079257142730057,
    0.36719298362731934
   ],
   "scale": [
    1,
    0.9999999403953552,
    0.9999995827674866
   ],
   "translation": [
    -0.06377118825912476,
    -0.004858970642089844,
    0.0638447180390358
   ]
  },
  {
   "name": "rr_tip",
   "rotation": [
    0.11150594055652618,
    1.754166693764556e-15,
    -5.205496034492874e-16,
    0.99376380443573
   ],
   "scale": [
    1,
    1,
    0.9999999403953552
   ],
   "translation": [
    3.725290076417309e-09,
    0.0669182687997818,
    1.925682280301544e-09
   ]
  },
  {
   "children": [
    9
   ],
   "name": "rr_toe",
   "rotation": [
    0.5392990708351135,
    -1.3676561216868777e-08,
    1.3182345881546098e-08,
    0.8421143293380737
   ],
   "scale": [
    1,
    0.9999999403953552,
    1
   ],
   "translation": [
    6.177427902542831e-09,
    0.12920309603214264,
    2.3871700172151122e-09
   ]
  },
  {
   "children": [
    10
   ],
   "name": "rr_ft",
   "rotation": [
    0.49235212802886963,
    0.04783225804567337,
    -0.058987680822610855,
    0.8670766353607178
   ],
   "scale": [
    1,
    1,
    1.0000001192092896
   ],
   "translation": [
    -3.725290298461914e-09,
    0.16122134029865265,
    1.4901161193847656e-08
   ]
  },
  {
   "children": [
    11
   ],
   "name": "rr_lo",
   "rotation": [
    -0.6167750954627991,
    -0.043913036584854126,
    0.06763027608394623,
    0.7829983234405518
   ],
   "scale": [
    0.9999998807907104,
    1,
    0.9999999403953552
   ],
   "translation": [
    -1.7462298274040222e-09,
    0.14607104659080505,
    3.2014213502407074e-10
   ]
  },
  {
   "children": [
    12
   ],
   "name": "rr_up",
   "rotation": [
    0.9301261305809021,
    0.005816237535327673,
    0.0009079257142730057,
    0.36719298362731934
   ],
   "scale": [
    1,
    0.9999999403953552,
    0.9999995827674866
   ],
   "translation": [
    0.06377118825912476,
    -0.004858970642089844,
    0.0638447180390358
   ]
  },
  {
   "children": [
    3,
    8,
    13
   ],
   "name": "pelvis",
   "rotation": [
    0.5895864367485046,
    0,
    0,
    0.807705283164978
   ]
  },
  {
   "name": "jaw",
   "rotation": [
    -0.012192445807158947,
    0,
    0,
    0.9999256730079651
   ],
   "translation": [
    0,
    0.041755497455596924,
    -0.035143159329891205
   ]
  },
  {
   "name": "ear_l2",
   "rotation": [
    0.4538009762763977,
    -0.06732551008462906,
    0.03922634199261665,
    0.8876898884773254
   ],
   "scale": [
    0.9999999403953552,
    1,
    1
   ],
   "translation": [
    -1.5133991837501526e-09,
    0.06917935609817505,
    -1.949956640601158e-09
   ]
  },
  {
   "children": [
    16
   ],
   "name": "ear_l",
   "rotation": [
    -0.8698357343673706,
    7.912637374829501e-05,
    0.002819128567352891,
    0.4933333694934845
   ],
   "scale": [
    0.9999998807907104,
    1.0000001192092896,
    1.000000238418579
   ],
   "translation": [
    -0.07168547064065933,
    0.08158065378665924,
    0.07960282266139984
   ]
  },
  {
   "name": "ear_r2",
   "rotation": [
    0.45388826727867126,
    0.06641294062137604,
    -0.03820186108350754,
    0.8877586722373962
   ],
   "scale": [
    0.9999998807907104,
    1,
    1
   ],
   "translation": [
    -1.5133991837501526e-08,
    0.06917934119701385,
    3.207242116332054e-08
   ]
  },
  {
   "children": [
    18
   ],
   "name": "ear_r",
   "rotation": [
    -0.8698303699493408,
    -0.00010412959090899676,
    -0.003709930693730712,
    0.49333691596984863
   ],
   "translation": [
    0.07010788470506668,
    0.08172138035297394,
    0.07959497720003128
   ]
  },
  {
   "name": "nose",
   "rotation": [
    -0.02805679850280285,
    0,
    0,
    0.9996063709259033
   ],
   "scale": [
    1,
    0.9999999403953552,
    0.9999999403953552
   ],
   "translation": [
    0,
    0.243706613779068,
    0.00817355141043663
   ]
  },
  {
   "children": [
    15,
    17,
    19,
    20
   ],
   "name": "head",
   "rotation": [
    -0.27686989307403564,
    0,
    0,
    0.9609073996543884
   ],
   "scale": [
    1,
    0.9999999403953552,
    1
   ],
   "translation": [
    0,
    0.11275088787078857,
    1.4901161193847656e-08
   ]
  },
  {
   "children": [
    21
   ],
   "name": "neck2",
   "rotation": [
    0.017904499545693398,
    0,
    0,
    0.999839723110199
   ],
   "translation": [
    0,
    0.12422266602516174,
    -2.9802322387695312e-08
   ]
  },
  {
   "children": [
    22
   ],
   "name": "neck1",
   "rotation": [
    0.21904516220092773,
    0,
    0,
    0.9757147431373596
   ],
   "scale": [
    1,
    0.9999998211860657,
    0.9999999403953552
   ],
   "translation": [
    0,
    0.19169826805591583,
    3.725290298461914e-09
   ]
  },
  {
   "name": "fl_tip",
   "rotation": [
    0.0962013527750969,
    -8.374087534512853e-10,
    1.0165973618470048e-09,
    0.9953619241714478
   ],
   "translation": [
    6.767923554917843e-09,
    0.06195176765322685,
    1.182324638193677e-08
   ]
  },
  {
   "children": [
    24
   ],
   "name": "fl_toe",
   "rotation": [
    0.4618452787399292,
    0.0016613040352240205,
    -0.01718897745013237,
    0.8867923617362976
   ],
   "scale": [
    1.0000001192092896,
    1.0000001192092896,
    1
   ],
   "translation": [
    5.820766091346741e-10,
    0.051225051283836365,
    -8.149072527885437e-10
   ]
  },
  {
   "children": [
    25
   ],
   "name": "fl_ft",
   "rotation": [
    0.12086232751607895,
    -0.0018016910180449486,
    -0.0010585373966023326,
    0.9926671385765076
   ],
   "scale": [
    0.9999999403953552,
    0.9999999403953552,
    0.9999998807907104
   ],
   "translation": [
    9.19681042432785e-09,
    0.17030589282512665,
    -8.265487849712372e-09
   ]
  },
  {
   "children": [
    26
   ],
   "name": "fl_lo",
   "rotation": [
    0.3681783080101013,
    -0.049386125057935715,
    0.04913690686225891,
    0.9271414875984192
   ],
   "translation": [
    -6.51925802230835e-09,
    0.14579978585243225,
    2.2817403078079224e-08
   ]
  },
  {
   "children": [
    27
   ],
   "name": "fl_up",
   "rotation": [
    -0.612563967704773,
    0.06656598299741745,
    -0.07332202047109604,
    0.7841927409172058
   ],
   "scale": [
    1.0000001192092896,
    1,
    0.9999999403953552
   ],
   "translation": [
    1.862645149230957e-09,
    0.18978413939476013,
    -2.421438694000244e-08
   ]
  },
  {
   "children": [
    28
   ],
   "name": "fl_sh",
   "rotation": [
    -0.4645242989063263,
    0.003579143900424242,
    0.05115387961268425,
    0.8840744495391846
   ],
   "scale": [
    0.9999999403953552,
    1,
    0.9999999403953552
   ],
   "translation": [
    -0.05932203307747841,
    0.17274412512779236,
    0.035613588988780975
   ]
  },
  {
   "name": "fr_tip",
   "rotation": [
    0.0962013527750969,
    8.374087534512853e-10,
    -1.0165973618470048e-09,
    0.9953619241714478
   ],
   "translation": [
    -6.767923554917843e-09,
    0.06195176765322685,
    1.182324638193677e-08
   ]
  },
  {
   "children": [
    30
   ],
   "name": "fr_toe",
   "rotation": [
    0.4618452787399292,
    -0.0016613040352240205,
    0.01718897745013237,
    0.8867923617362976
   ],
   "scale": [
    1.0000001192092896,
    1.0000001192092896,
    1
   ],
   "translation": [
    -5.820766091346741e-10,
    0.051225051283836365,
    -8.149072527885437e-10
   ]
  },
  {
   "children": [
    31
   ],
   "name": "fr_ft",
   "rotation": [
    0.12086232751607895,
    0.0018016910180449486,
    0.0010585373966023326,
    0.9926671385765076
   ],
   "scale": [
    0.9999999403953552,
    0.9999999403953552,
    0.9999998807907104
   ],
   "translation": [
    -9.19681042432785e-09,
    0.17030589282512665,
    -8.265487849712372e-09
   ]
  },
  {
   "children": [
    32
   ],
   "name": "fr_lo",
   "rotation": [
    0.3681783080101013,
    0.049386125057935715,
    -0.04913690686225891,
    0.9271414875984192
   ],
   "translation": [
    6.51925802230835e-09,
    0.14579978585243225,
    2.2817403078079224e-08
   ]
  },
  {
   "children": [
    33
   ],
   "name": "fr_up",
   "rotation": [
    -0.612563967704773,
    -0.06656598299741745,
    0.07332202047109604,
    0.7841927409172058
   ],
   "scale": [
    1.0000001192092896,
    1,
    0.9999999403953552
   ],
   "translation": [
    -1.862645149230957e-09,
    0.18978413939476013,
    -2.421438694000244e-08
   ]
  },
  {
   "children": [
    34
   ],
   "name": "fr_sh",
   "rotation": [
    -0.4645242989063263,
    -0.003579143900424242,
    -0.05115387961268425,
    0.8840744495391846
   ],
   "scale": [
    0.9999999403953552,
    1,
    0.9999999403953552
   ],
   "translation": [
    0.05932203307747841,
    0.17274412512779236,
    0.035613588988780975
   ]
  },
  {
   "name": "pet",
   "rotation": [
    0.6560280323028564,
    0,
    0,
    0.754736602306366
   ],
   "scale": [
    1,
    0.9999999403953552,
    0.9999998807907104
   ],
   "translation": [
    0,
    0.1309119611978531,
    0.0789373442530632
   ]
  },
  {
   "children": [
    23,
    29,
    35,
    36
   ],
   "name": "spine2",
   "rotation": [
    0.0990694910287857,
    0,
    0,
    0.9950805306434631
   ],
   "translation": [
    0,
    0.2020435482263565,
    3.480818122625351e-08
   ]
  },
  {
   "children": [
    37
   ],
   "name": "spine1",
   "rotation": [
    -0.7275720238685608,
    0,
    0,
    0.6860313415527344
   ]
  },
  {
   "children": [
    14,
    38
   ],
   "name": "root",
   "translation": [
    0,
    0.4567796587944031,
    0.22542372345924377
   ]
  },
  {
   "mesh": 0,
   "name": "Body",
   "skin": 0
  },
  {
   "mesh": 1,
   "name": "Fur",
   "skin": 0
  },
  {
   "children": [
    40,
    41,
    39
   ],
   "name": "Skeleton"
  }
 ],
 "materials": [
  {
   "doubleSided": true,
   "extensions": {
    "KHR_materials_specular": {
     "specularFactor": 0.699999988079071
    }
   },
   "name": "dog_coat",
   "normalTexture": {
    "index": 0,
    "scale": 0.6000000238418579
   },
   "pbrMetallicRoughness": {
    "baseColorTexture": {
     "index": 1
    },
    "metallicRoughnessTexture": {
     "index": 2
    }
   }
  },
  {
   "doubleSided": true,
   "extensions": {
    "KHR_materials_specular": {
     "specularFactor": 0.699999988079071
    }
   },
   "name": "dog_fur",
   "normalTexture": {
    "index": 3,
    "scale": 0.6000000238418579
   },
   "pbrMetallicRoughness": {
    "baseColorTexture": {
     "index": 4
    },
    "metallicRoughnessTexture": {
     "index": 5
    }
   }
  }
 ],
 "meshes": [
  {
   "name": "Body",
   "primitives": [
    {
     "attributes": {
      "POSITION": 0,
      "NORMAL": 1,
      "TEXCOORD_0": 2,
      "TANGENT": 3,
      "JOINTS_0": 4,
      "WEIGHTS_0": 5
     },
     "indices": 6,
     "material": 0
    }
   ]
  },
  {
   "name": "Fur",
   "primitives": [
    {
     "attributes": {
      "POSITION": 8,
      "NORMAL": 9,
      "TEXCOORD_0": 10,
      "TEXCOORD_1": 11,
      "TANGENT": 12,
      "JOINTS_0": 13,
      "WEIGHTS_0": 14
     },
     "indices": 15,
     "material": 1
    }
   ]
  }
 ],
 "textures": [
  {
   "sampler": 0,
   "source": 0
  },
  {
   "sampler": 0,
   "source": 1
  },
  {
   "sampler": 0,
   "source": 2
  },
  {
   "sampler": 0,
   "source": 0
  },
  {
   "sampler": 0,
   "source": 1
  },
  {
   "sampler": 0,
   "source": 2
  }
 ],
 "images": [
  {
   "mimeType": "image/png",
   "name": "dog_normal",
   "uri": "textures/dog_normal.png"
  },
  {
   "mimeType": "image/png",
   "name": "dog_albedo",
   "uri": "textures/dog_albedo.png"
  },
  {
   "mimeType": "image/png",
   "name": "dog_orm",
   "uri": "textures/dog_orm.png"
  }
 ],
 "skins": [
  {
   "inverseBindMatrices": 7,
   "joints": [
    39,
    14,
    3,
    2,
    1,
    0,
    8,
    7,
    6,
    5,
    4,
    13,
    12,
    11,
    10,
    9,
    38,
    37,
    23,
    22,
    21,
    15,
    17,
    16,
    19,
    18,
    20,
    29,
    28,
    27,
    26,
    25,
    24,
    35,
    34,
    33,
    32,
    31,
    30,
    36
   ],
   "name": "Skeleton"
  }
 ],
 "accessors": [
  {
   "bufferView": 0,
   "componentType": 5126,
   "count": 13524,
   "max": [
    0.1369445025920868,
    0.7437587380409241,
    0.5148963928222656
   ],
   "min": [
    -0.13825099170207977,
    -0.0015338564990088344,
    -0.6088681817054749
   ],
   "type": "VEC3"
  },
  {
   "bufferView": 1,
   "componentType": 5126,
   "count": 13524,
   "type": "VEC3"
  },
  {
   "bufferView": 2,
   "componentType": 5126,
   "count": 13524,
   "type": "VEC2"
  },
  {
   "bufferView": 3,
   "componentType": 5126,
   "count": 13524,
   "type": "VEC4"
  },
  {
   "bufferView": 4,
   "componentType": 5121,
   "count": 13524,
   "type": "VEC4"
  },
  {
   "bufferView": 5,
   "componentType": 5126,
   "count": 13524,
   "type": "VEC4"
  },
  {
   "bufferView": 6,
   "componentType": 5123,
   "count": 75840,
   "type": "SCALAR"
  },
  {
   "bufferView": 7,
   "componentType": 5126,
   "count": 40,
   "type": "MAT4"
  },
  {
   "bufferView": 8,
   "componentType": 5126,
   "count": 44688,
   "max": [
    0.13712862133979797,
    0.743588924407959,
    0.5147539973258972
   ],
   "min": [
    -0.13843797147274017,
    -0.0008745804661884904,
    -0.5157792568206787
   ],
   "type": "VEC3"
  },
  {
   "bufferView": 9,
   "componentType": 5126,
   "count": 44688,
   "type": "VEC3"
  },
  {
   "bufferView": 10,
   "componentType": 5126,
   "count": 44688,
   "type": "VEC2"
  },
  {
   "bufferView": 11,
   "componentType": 5126,
   "count": 44688,
   "type": "VEC2"
  },
  {
   "bufferView": 12,
   "componentType": 5126,
   "count": 44688,
   "type": "VEC4"
  },
  {
   "bufferView": 13,
   "componentType": 5121,
   "count": 44688,
   "type": "VEC4"
  },
  {
   "bufferView": 14,
   "componentType": 5126,
   "count": 44688,
   "type": "VEC4"
  },
  {
   "bufferView": 15,
   "componentType": 5123,
   "count": 231462,
   "type": "SCALAR"
  }
 ],
 "bufferViews": [
  {
   "buffer": 0,
   "byteLength": 162288,
   "byteOffset": 0,
   "target": 34962
  },
  {
   "buffer": 0,
   "byteLength": 162288,
   "byteOffset": 162288,
   "target": 34962
  },
  {
   "buffer": 0,
   "byteLength": 108192,
   "byteOffset": 324576,
   "target": 34962
  },
  {
   "buffer": 0,
   "byteLength": 216384,
   "byteOffset": 432768,
   "target": 34962
  },
  {
   "buffer": 0,
   "byteLength": 54096,
   "byteOffset": 649152,
   "target": 34962
  },
  {
   "buffer": 0,
   "byteLength": 216384,
   "byteOffset": 703248,
   "target": 34962
  },
  {
   "buffer": 0,
   "byteLength": 151680,
   "byteOffset": 919632,
   "target": 34963
  },
  {
   "buffer": 0,
   "byteLength": 2560,
   "byteOffset": 1071312
  },
  {
   "buffer": 0,
   "byteLength": 536256,
   "byteOffset": 1073872,
   "target": 34962
  },
  {
   "buffer": 0,
   "byteLength": 536256,
   "byteOffset": 1610128,
   "target": 34962
  },
  {
   "buffer": 0,
   "byteLength": 357504,
   "byteOffset": 2146384,
   "target": 34962
  },
  {
   "buffer": 0,
   "byteLength": 357504,
   "byteOffset": 2503888,
   "target": 34962
  },
  {
   "buffer": 0,
   "byteLength": 715008,
   "byteOffset": 2861392,
   "target": 34962
  },
  {
   "buffer": 0,
   "byteLength": 178752,
   "byteOffset": 3576400,
   "target": 34962
  },
  {
   "buffer": 0,
   "byteLength": 715008,
   "byteOffset": 3755152,
   "target": 34962
  },
  {
   "buffer": 0,
   "byteLength": 462924,
   "byteOffset": 4470160,
   "target": 34963
  }
 ],
 "samplers": [
  {
   "magFilter": 9729,
   "minFilter": 9987
  }
 ],
 "buffers": [
  {
   "byteLength": 4933084,
   "uri": "dog.bin"
  }
 ]
}