{
	"asset":{
		"generator":"Khronos glTF Blender I/O v4.4.56",
		"version":"2.0"
	},
	"extensionsUsed":[
		"KHR_materials_clearcoat"
	],
	"scene":0,
	"scenes":[
		{
			"name":"Scene",
			"nodes":[
				0
			]
		}
	],
	"nodes":[
		{
			"mesh":0,
			"name":"cane_rod"
		}
	],
	"materials":[
		{
			"extensions":{
				"KHR_materials_clearcoat":{
					"clearcoatFactor":0.25
				}
			},
			"name":"cane_rod_skin",
			"normalTexture":{
				"index":0
			},
			"pbrMetallicRoughness":{
				"baseColorTexture":{
					"index":1
				},
				"metallicFactor":0,
				"roughnessFactor":0.41999998688697815
			}
		},
		{
			"name":"cane_rod_twine",
			"pbrMetallicRoughness":{
				"baseColorFactor":[
					0.34239163994789124,
					0.21404114365577698,
					0.08353512734174728,
					1
				],
				"metallicFactor":0,
				"roughnessFactor":0.8500000238418579
			}
		},
		{
			"name":"cane_rod_winder",
			"pbrMetallicRoughness":{
				"baseColorFactor":[
					0.17064493894577026,
					0.07323895394802094,
					0.02451501414179802,
					1
				],
				"metallicFactor":0,
				"roughnessFactor":0.6000000238418579
			}
		},
		{
			"name":"cane_rod_line",
			"pbrMetallicRoughness":{
				"baseColorFactor":[
					0.7874122858047485,
					0.7874122858047485,
					0.7105664610862732,
					1
				],
				"metallicFactor":0,
				"roughnessFactor":0.3499999940395355
			}
		},
		{
			"name":"cane_rod_wire",
			"pbrMetallicRoughness":{
				"baseColorFactor":[
					0.2632734179496765,
					0.27383843064308167,
					0.295699805021286,
					1
				],
				"roughnessFactor":0.30000001192092896
			}
		}
	],
	"meshes":[
		{
			"name":"cane_rod",
			"primitives":[
				{
					"attributes":{
						"POSITION":0,
						"NORMAL":1,
						"TEXCOORD_0":2,
						"TANGENT":3
					},
					"indices":4,
					"material":0
				},
				{
					"attributes":{
						"POSITION":5,
						"NORMAL":6,
						"TEXCOORD_0":7,
						"TANGENT":8
					},
					"indices":9,
					"material":1
				},
				{
					"attributes":{
						"POSITION":10,
						"NORMAL":11,
						"TEXCOORD_0":12,
						"TANGENT":13
					},
					"indices":14,
					"material":2
				},
				{
					"attributes":{
						"POSITION":15,
						"NORMAL":16,
						"TEXCOORD_0":17,
						"TANGENT":18
					},
					"indices":19,
					"material":3
				},
				{
					"attributes":{
						"POSITION":20,
						"NORMAL":21,
						"TEXCOORD_0":22,
						"TANGENT":23
					},
					"indices":24,
					"material":4
				}
			]
		}
	],
	"textures":[
		{
			"sampler":0,
			"source":0
		},
		{
			"sampler":0,
			"source":1
		}
	],
	"images":[
		{
			"mimeType":"image/jpeg",
			"name":"cane_rod_skin_nor",
			"uri":"textures/cane_rod_skin_nor.jpg"
		},
		{
			"mimeType":"image/jpeg",
			"name":"cane_rod_skin",
			"uri":"textures/cane_rod_skin.jpg"
		}
	],
	"accessors":[
		{
			"bufferView":0,
			"componentType":5126,
			"count":6349,
			"max":[
				0.014499999582767487,
				2.250999927520752,
				0.01413645502179861
			],
			"min":[
				-0.014499999582767487,
				-0.35199999809265137,
				-0.01413645502179861
			],
			"type":"VEC3"
		},
		{
			"bufferView":1,
			"componentType":5126,
			"count":6349,
			"type":"VEC3"
		},
		{
			"bufferView":2,
			"componentType":5126,
			"count":6349,
			"type":"VEC2"
		},
		{
			"bufferView":3,
			"componentType":5126,
			"count":6349,
			"type":"VEC4"
		},
		{
			"bufferView":4,
			"componentType":5123,
			"count":35364,
			"type":"SCALAR"
		},
		{
			"bufferView":5,
			"componentType":5126,
			"count":1692,
			"max":[
				0.017241742461919785,
				2.247999906539917,
				0.017241742461919785
			],
			"min":[
				-0.017241742461919785,
				-0.3345000147819519,
				-0.017241742461919785
			],
			"type":"VEC3"
		},
		{
			"bufferView":6,
			"componentType":5126,
			"count":1692,
			"type":"VEC3"
		},
		{
			"bufferView":7,
			"componentType":5126,
			"count":1692,
			"type":"VEC2"
		},
		{
			"bufferView":8,
			"componentType":5126,
			"count":1692,
			"type":"VEC4"
		},
		{
			"bufferView":9,
			"componentType":5123,
			"count":6840,
			"type":"SCALAR"
		},
		{
			"bufferView":10,
			"componentType":5126,
			"count":112,
			"max":[
				-0.011019377037882805,
				0.36000001430511475,
				0.01799999736249447
			],
			"min":[
				-0.020019376650452614,
				0.09999999403953552,
				-0.01799999736249447
			],
			"type":"VEC3"
		},
		{
			"bufferView":11,
			"componentType":5126,
			"count":112,
			"type":"VEC3"
		},
		{
			"bufferView":12,
			"componentType":5126,
			"count":112,
			"type":"VEC2"
		},
		{
			"bufferView":13,
			"componentType":5126,
			"count":112,
			"type":"VEC4"
		},
		{
			"bufferView":14,
			"componentType":5123,
			"count":252,
			"type":"SCALAR"
		},
		{
			"bufferView":15,
			"componentType":5126,
			"count":357,
			"max":[
				0.00038453188608400524,
				2.250537872314453,
				0.012900000438094139
			],
			"min":[
				-0.02087532728910446,
				0.12200000882148743,
				-0.012728115543723106
			],
			"type":"VEC3"
		},
		{
			"bufferView":16,
			"componentType":5126,
			"count":357,
			"type":"VEC3"
		},
		{
			"bufferView":17,
			"componentType":5126,
			"count":357,
			"type":"VEC2"
		},
		{
			"bufferView":18,
			"componentType":5126,
			"count":357,
			"type":"VEC4"
		},
		{
			"bufferView":19,
			"componentType":5123,
			"count":1164,
			"type":"SCALAR"
		},
		{
			"bufferView":20,
			"componentType":5126,
			"count":56,
			"max":[
				0.0029017836786806583,
				2.2568483352661133,
				0.0005900730029679835
			],
			"min":[
				-0.002934603951871395,
				2.2511515617370605,
				-0.0005926130106672645
			],
			"type":"VEC3"
		},
		{
			"bufferView":21,
			"componentType":5126,
			"count":56,
			"type":"VEC3"
		},
		{
			"bufferView":22,
			"componentType":5126,
			"count":56,
			"type":"VEC2"
		},
		{
			"bufferView":23,
			"componentType":5126,
			"count":56,
			"type":"VEC4"
		},
		{
			"bufferView":24,
			"componentType":5123,
			"count":315,
			"type":"SCALAR"
		}
	],
	"bufferViews":[
		{
			"buffer":0,
			"byteLength":76188,
			"byteOffset":0,
			"target":34962
		},
		{
			"buffer":0,
			"byteLength":76188,
			"byteOffset":76188,
			"target":34962
		},
		{
			"buffer":0,
			"byteLength":50792,
			"byteOffset":152376,
			"target":34962
		},
		{
			"buffer":0,
			"byteLength":101584,
			"byteOffset":203168,
			"target":34962
		},
		{
			"buffer":0,
			"byteLength":70728,
			"byteOffset":304752,
			"target":34963
		},
		{
			"buffer":0,
			"byteLength":20304,
			"byteOffset":375480,
			"target":34962
		},
		{
			"buffer":0,
			"byteLength":20304,
			"byteOffset":395784,
			"target":34962
		},
		{
			"buffer":0,
			"byteLength":13536,
			"byteOffset":416088,
			"target":34962
		},
		{
			"buffer":0,
			"byteLength":27072,
			"byteOffset":429624,
			"target":34962
		},
		{
			"buffer":0,
			"byteLength":13680,
			"byteOffset":456696,
			"target":34963
		},
		{
			"buffer":0,
			"byteLength":1344,
			"byteOffset":470376,
			"target":34962
		},
		{
			"buffer":0,
			"byteLength":1344,
			"byteOffset":471720,
			"target":34962
		},
		{
			"buffer":0,
			"byteLength":896,
			"byteOffset":473064,
			"target":34962
		},
		{
			"buffer":0,
			"byteLength":1792,
			"byteOffset":473960,
			"target":34962
		},
		{
			"buffer":0,
			"byteLength":504,
			"byteOffset":475752,
			"target":34963
		},
		{
			"buffer":0,
			"byteLength":4284,
			"byteOffset":476256,
			"target":34962
		},
		{
			"buffer":0,
			"byteLength":4284,
			"byteOffset":480540,
			"target":34962
		},
		{
			"buffer":0,
			"byteLength":2856,
			"byteOffset":484824,
			"target":34962
		},
		{
			"buffer":0,
			"byteLength":5712,
			"byteOffset":487680,
			"target":34962
		},
		{
			"buffer":0,
			"byteLength":2328,
			"byteOffset":493392,
			"target":34963
		},
		{
			"buffer":0,
			"byteLength":672,
			"byteOffset":495720,
			"target":34962
		},
		{
			"buffer":0,
			"byteLength":672,
			"byteOffset":496392,
			"target":34962
		},
		{
			"buffer":0,
			"byteLength":448,
			"byteOffset":497064,
			"target":34962
		},
		{
			"buffer":0,
			"byteLength":896,
			"byteOffset":497512,
			"target":34962
		},
		{
			"buffer":0,
			"byteLength":630,
			"byteOffset":498408,
			"target":34963
		}
	],
	"samplers":[
		{
			"magFilter":9729,
			"minFilter":9987
		}
	],
	"buffers":[
		{
			"byteLength":499040,
			"uri":"cane_rod.bin"
		}
	]
}
