{
	"asset":{
		"generator":"Khronos glTF Blender I/O v4.4.56",
		"version":"2.0"
	},
	"extensionsUsed":[
		"KHR_materials_clearcoat"
	],
	"scene":0,
	"scenes":[
		{
			"name":"Scene",
			"nodes":[
				0
			]
		}
	],
	"nodes":[
		{
			"mesh":0,
			"name":"carbon_rod"
		}
	],
	"materials":[
		{
			"name":"carbon_rod_rubber",
			"pbrMetallicRoughness":{
				"baseColorFactor":[
					0.0027089782524853945,
					0.0027089782524853945,
					0.0027089782524853945,
					1
				],
				"metallicFactor":0,
				"roughnessFactor":0.699999988079071
			}
		},
		{
			"name":"carbon_rod_grip",
			"normalTexture":{
				"index":0
			},
			"pbrMetallicRoughness":{
				"baseColorTexture":{
					"index":1
				},
				"metallicFactor":0,
				"roughnessFactor":0.800000011920929
			}
		},
		{
			"extensions":{
				"KHR_materials_clearcoat":{
					"clearcoatFactor":0.8999999761581421
				}
			},
			"name":"carbon_rod_blank",
			"pbrMetallicRoughness":{
				"baseColorFactor":[
					0.0015479875728487968,
					0.003935939632356167,
					0.021980946883559227,
					1
				],
				"metallicFactor":0.15000000596046448,
				"roughnessFactor":0.14000000059604645
			}
		},
		{
			"name":"carbon_rod_seat",
			"pbrMetallicRoughness":{
				"baseColorFactor":[
					0.003935939632356167,
					0.003935939632356167,
					0.004400849808007479,
					1
				],
				"metallicFactor":0.6000000238418579,
				"roughnessFactor":0.3199999928474426
			}
		},
		{
			"extensions":{
				"KHR_materials_clearcoat":{
					"clearcoatFactor":0.6000000238418579
				}
			},
			"name":"carbon_rod_trim",
			"pbrMetallicRoughness":{
				"baseColorFactor":[
					0.010022825561463833,
					0.07323895394802094,
					0.6920710802078247,
					1
				],
				"metallicFactor":0.699999988079071,
				"roughnessFactor":0.25
			}
		},
		{
			"extensions":{
				"KHR_materials_clearcoat":{
					"clearcoatFactor":0.800000011920929
				}
			},
			"name":"carbon_rod_wrap",
			"pbrMetallicRoughness":{
				"baseColorFactor":[
					0.34239163994789124,
					0.36724647879600525,
					0.4200332760810852,
					1
				],
				"metallicFactor":0.5,
				"roughnessFactor":0.30000001192092896
			}
		},
		{
			"name":"carbon_rod_insert",
			"pbrMetallicRoughness":{
				"baseColorFactor":[
					0.0134117491543293,
					0.0134117491543293,
					0.015325203537940979,
					1
				],
				"metallicFactor":0.800000011920929,
				"roughnessFactor":0.07999999821186066
			}
		},
		{
			"name":"carbon_rod_frame",
			"pbrMetallicRoughness":{
				"baseColorFactor":[
					0.004896310158073902,
					0.004896310158073902,
					0.005422868765890598,
					1
				],
				"metallicFactor":0.8999999761581421,
				"roughnessFactor":0.25
			}
		},
		{
			"name":"carbon_rod_reel",
			"pbrMetallicRoughness":{
				"baseColorFactor":[
					0.004896310158073902,
					0.004896310158073902,
					0.005422868765890598,
					1
				],
				"metallicFactor":0.8500000238418579,
				"roughnessFactor":0.30000001192092896
			}
		},
		{
			"name":"carbon_rod_spool",
			"pbrMetallicRoughness":{
				"baseColorFactor":[
					0.0134117491543293,
					0.09462962299585342,
					0.6038273572921753,
					1
				],
				"roughnessFactor":0.2199999988079071
			}
		},
		{
			"name":"carbon_rod_line",
			"pbrMetallicRoughness":{
				"baseColorFactor":[
					0.7105664610862732,
					0.7874122858047485,
					0.6738595366477966,
					1
				],
				"metallicFactor":0,
				"roughnessFactor":0.3499999940395355
			}
		},
		{
			"name":"carbon_rod_chrome",
			"pbrMetallicRoughness":{
				"baseColorFactor":[
					0.6038273572921753,
					0.6038273572921753,
					0.6382831931114197,
					1
				],
				"roughnessFactor":0.11999999731779099
			}
		}
	],
	"meshes":[
		{
			"name":"carbon_rod",
			"primitives":[
				{
					"attributes":{
						"POSITION":0,
						"NORMAL":1,
						"TEXCOORD_0":2,
						"TANGENT":3
					},
					"indices":4,
					"material":0
				},
				{
					"attributes":{
						"POSITION":5,
						"NORMAL":6,
						"TEXCOORD_0":7,
						"TANGENT":8
					},
					"indices":9,
					"material":1
				},
				{
					"attributes":{
						"POSITION":10,
						"NORMAL":11,
						"TEXCOORD_0":12,
						"TANGENT":13
					},
					"indices":14,
					"material":2
				},
				{
					"attributes":{
						"POSITION":15,
						"NORMAL":16,
						"TEXCOORD_0":17,
						"TANGENT":18
					},
					"indices":19,
					"material":3
				},
				{
					"attributes":{
						"POSITION":20,
						"NORMAL":21,
						"TEXCOORD_0":22,
						"TANGENT":23
					},
					"indices":24,
					"material":4
				},
				{
					"attributes":{
						"POSITION":25,
						"NORMAL":26,
						"TEXCOORD_0":27,
						"TANGENT":28
					},
					"indices":29,
					"material":5
				},
				{
					"attributes":{
						"POSITION":30,
						"NORMAL":31,
						"TEXCOORD_0":32,
						"TANGENT":33
					},
					"indices":34,
					"material":6
				},
				{
					"attributes":{
						"POSITION":35,
						"NORMAL":36,
						"TEXCOORD_0":37,
						"TANGENT":38
					},
					"indices":39,
					"material":7
				},
				{
					"attributes":{
						"POSITION":40,
						"NORMAL":41,
						"TEXCOORD_0":42,
						"TANGENT":43
					},
					"indices":44,
					"material":8
				},
				{
					"attributes":{
						"POSITION":45,
						"NORMAL":46,
						"TEXCOORD_0":47,
						"TANGENT":48
					},
					"indices":49,
					"material":9
				},
				{
					"attributes":{
						"POSITION":50,
						"NORMAL":51,
						"TEXCOORD_0":52,
						"TANGENT":53
					},
					"indices":54,
					"material":10
				},
				{
					"attributes":{
						"POSITION":55,
						"NORMAL":56,
						"TEXCOORD_0":57,
						"TANGENT":58
					},
					"indices":59,
					"material":11
				}
			]
		}
	],
	"textures":[
		{
			"sampler":0,
			"source":0
		},
		{
			"sampler":0,
			"source":1
		}
	],
	"images":[
		{
			"mimeType":"image/jpeg",
			"name":"carbon_rod_grip_nor",
			"uri":"textures/carbon_rod_grip_nor.jpg"
		},
		{
			"mimeType":"image/jpeg",
			"name":"carbon_rod_grip",
			"uri":"textures/carbon_rod_grip.jpg"
		}
	],
	"accessors":[
		{
			"bufferView":0,
			"componentType":5126,
			"count":171,
			"max":[
				0.01549999974668026,
				-0.02486400119960308,
				0.01549999974668026
			],
			"min":[
				-0.07369600236415863,
				-0.4000000059604645,
				-0.07391999661922455
			],
			"type":"VEC3"
		},
		{
			"bufferView":1,
			"componentType":5126,
			"count":171,
			"type":"VEC3"
		},
		{
			"bufferView":2,
			"componentType":5126,
			"count":171,
			"type":"VEC2"
		},
		{
			"bufferView":3,
			"componentType":5126,
			"count":171,
			"type":"VEC4"
		},
		{
			"bufferView":4,
			"componentType":5123,
			"count":612,
			"type":"SCALAR"
		},
		{
			"bufferView":5,
			"componentType":5126,
			"count":252,
			"max":[
				0.014800000004470348,
				0.1899999976158142,
				0.014800000004470348
			],
			"min":[
				-0.014800000004470348,
				-0.375,
				-0.014800000004470348
			],
			"type":"VEC3"
		},
		{
			"bufferView":6,
			"componentType":5126,
			"count":252,
			"type":"VEC3"
		},
		{
			"bufferView":7,
			"componentType":5126,
			"count":252,
			"type":"VEC2"
		},
		{
			"bufferView":8,
			"componentType":5126,
			"count":252,
			"type":"VEC4"
		},
		{
			"bufferView":9,
			"componentType":5123,
			"count":1080,
			"type":"SCALAR"
		},
		{
			"bufferView":10,
			"componentType":5126,
			"count":674,
			"max":[
				0.008500000461935997,
				2.0950000286102295,
				0.008286886848509312
			],
			"min":[
				-0.008500000461935997,
				-0.25999999046325684,
				-0.008286886848509312
			],
			"type":"VEC3"
		},
		{
			"bufferView":11,
			"componentType":5126,
			"count":674,
			"type":"VEC3"
		},
		{
			"bufferView":12,
			"componentType":5126,
			"count":674,
			"type":"VEC2"
		},
		{
			"bufferView":13,
			"componentType":5126,
			"count":674,
			"type":"VEC4"
		},
		{
			"bufferView":14,
			"componentType":5123,
			"count":3540,
			"type":"SCALAR"
		},
		{
			"bufferView":15,
			"componentType":5126,
			"count":105,
			"max":[
				0.013199999928474426,
				0.057999998331069946,
				0.013199999928474426
			],
			"min":[
				-0.013199999928474426,
				-0.05999999865889549,
				-0.013199999928474426
			],
			"type":"VEC3"
		},
		{
			"bufferView":16,
			"componentType":5126,
			"count":105,
			"type":"VEC3"
		},
		{
			"bufferView":17,
			"componentType":5126,
			"count":105,
			"type":"VEC2"
		},
		{
			"bufferView":18,
			"componentType":5126,
			"count":105,
			"type":"VEC4"
		},
		{
			"bufferView":19,
			"componentType":5123,
			"count":480,
			"type":"SCALAR"
		},
		{
			"bufferView":20,
			"componentType":5126,
			"count":528,
			"max":[
				0.013799999840557575,
				1.9970999956130981,
				0.02486399933695793
			],
			"min":[
				-0.09430399537086487,
				-0.06400000303983688,
				-0.02486399933695793
			],
			"type":"VEC3"
		},
		{
			"bufferView":21,
			"componentType":5126,
			"count":528,
			"type":"VEC3"
		},
		{
			"bufferView":22,
			"componentType":5126,
			"count":528,
			"type":"VEC2"
		},
		{
			"bufferView":23,
			"componentType":5126,
			"count":528,
			"type":"VEC4"
		},
		{
			"bufferView":24,
			"componentType":5123,
			"count":1452,
			"type":"SCALAR"
		},
		{
			"bufferView":25,
			"componentType":5126,
			"count":404,
			"max":[
				0.007600000128149986,
				2.0969998836517334,
				0.007409451995044947
			],
			"min":[
				-0.007600000128149986,
				0.1899999976158142,
				-0.007409451995044947
			],
			"type":"VEC3"
		},
		{
			"bufferView":26,
			"componentType":5126,
			"count":404,
			"type":"VEC3"
		},
		{
			"bufferView":27,
			"componentType":5126,
			"count":404,
			"type":"VEC2"
		},
		{
			"bufferView":28,
			"componentType":5126,
			"count":404,
			"type":"VEC4"
		},
		{
			"bufferView":29,
			"componentType":5123,
			"count":1104,
			"type":"SCALAR"
		},
		{
			"bufferView":30,
			"componentType":5126,
			"count":890,
			"max":[
				0.003482333617284894,
				2.1035900115966797,
				0.0011949383188039064
			],
			"min":[
				-0.0530664399266243,
				0.4908409118652344,
				-0.0011949383188039064
			],
			"type":"VEC3"
		},
		{
			"bufferView":31,
			"componentType":5126,
			"count":890,
			"type":"VEC3"
		},
		{
			"bufferView":32,
			"componentType":5126,
			"count":890,
			"type":"VEC2"
		},
		{
			"bufferView":33,
			"componentType":5126,
			"count":890,
			"type":"VEC4"
		},
		{
			"bufferView":34,
			"componentType":5123,
			"count":5127,
			"type":"SCALAR"
		},
		{
			"bufferView":35,
			"componentType":5126,
			"count":1040,
			"max":[
				-0.0010057329200208187,
				1.9888620376586914,
				0.0007608471787534654
			],
			"min":[
				-0.054708853363990784,
				0.4719966948032379,
				-0.0007608470623381436
			],
			"type":"VEC3"
		},
		{
			"bufferView":36,
			"componentType":5126,
			"count":1040,
			"type":"VEC3"
		},
		{
			"bufferView":37,
			"componentType":5126,
			"count":1040,
			"type":"VEC2"
		},
		{
			"bufferView":38,
			"componentType":5126,
			"count":1040,
			"type":"VEC4"
		},
		{
			"bufferView":39,
			"componentType":5123,
			"count":4728,
			"type":"SCALAR"
		},
		{
			"bufferView":40,
			"componentType":5126,
			"count":390,
			"max":[
				-0.012320000678300858,
				0.05151999741792679,
				0.02127999998629093
			],
			"min":[
				-0.0937056615948677,
				-0.03136000037193298,
				-0.05955127626657486
			],
			"type":"VEC3"
		},
		{
			"bufferView":41,
			"componentType":5126,
			"count":390,
			"type":"VEC3"
		},
		{
			"bufferView":42,
			"componentType":5126,
			"count":390,
			"type":"VEC2"
		},
		{
			"bufferView":43,
			"componentType":5126,
			"count":390,
			"type":"VEC4"
		},
		{
			"bufferView":44,
			"componentType":5123,
			"count":1524,
			"type":"SCALAR"
		},
		{
			"bufferView":45,
			"componentType":5126,
			"count":200,
			"max":[
				-0.04479999840259552,
				0.08623999357223511,
				0.024639999493956566
			],
			"min":[
				-0.09408000111579895,
				0.05151999741792679,
				-0.024639999493956566
			],
			"type":"VEC3"
		},
		{
			"bufferView":46,
			"componentType":5126,
			"count":200,
			"type":"VEC3"
		},
		{
			"bufferView":47,
			"componentType":5126,
			"count":200,
			"type":"VEC2"
		},
		{
			"bufferView":48,
			"componentType":5126,
			"count":200,
			"type":"VEC4"
		},
		{
			"bufferView":49,
			"componentType":5123,
			"count":960,
			"type":"SCALAR"
		},
		{
			"bufferView":50,
			"componentType":5126,
			"count":50,
			"max":[
				-0.05009999871253967,
				0.07391999661922455,
				0.019339999184012413
			],
			"min":[
				-0.0887800008058548,
				0.05823999643325806,
				-0.019339999184012413
			],
			"type":"VEC3"
		},
		{
			"bufferView":51,
			"componentType":5126,
			"count":50,
			"type":"VEC3"
		},
		{
			"bufferView":52,
			"componentType":5126,
			"count":50,
			"type":"VEC2"
		},
		{
			"bufferView":53,
			"componentType":5126,
			"count":50,
			"type":"VEC4"
		},
		{
			"bufferView":54,
			"componentType":5123,
			"count":144,
			"type":"SCALAR"
		},
		{
			"bufferView":55,
			"componentType":5126,
			"count":79,
			"max":[
				-0.04137713462114334,
				0.08181364834308624,
				0.0011990630300715566
			],
			"min":[
				-0.0974946990609169,
				0.07496997714042664,
				-0.025382019579410553
			],
			"type":"VEC3"
		},
		{
			"bufferView":56,
			"componentType":5126,
			"count":79,
			"type":"VEC3"
		},
		{
			"bufferView":57,
			"componentType":5126,
			"count":79,
			"type":"VEC2"
		},
		{
			"bufferView":58,
			"componentType":5126,
			"count":79,
			"type":"VEC4"
		},
		{
			"bufferView":59,
			"componentType":5123,
			"count":450,
			"type":"SCALAR"
		}
	],
	"bufferViews":[
		{
			"buffer":0,
			"byteLength":2052,
			"byteOffset":0,
			"target":34962
		},
		{
			"buffer":0,
			"byteLength":2052,
			"byteOffset":2052,
			"target":34962
		},
		{
			"buffer":0,
			"byteLength":1368,
			"byteOffset":4104,
			"target":34962
		},
		{
			"buffer":0,
			"byteLength":2736,
			"byteOffset":5472,
			"target":34962
		},
		{
			"buffer":0,
			"byteLength":1224,
			"byteOffset":8208,
			"target":34963
		},
		{
			"buffer":0,
			"byteLength":3024,
			"byteOffset":9432,
			"target":34962
		},
		{
			"buffer":0,
			"byteLength":3024,
			"byteOffset":12456,
			"target":34962
		},
		{
			"buffer":0,
			"byteLength":2016,
			"byteOffset":15480,
			"target":34962
		},
		{
			"buffer":0,
			"byteLength":4032,
			"byteOffset":17496,
			"target":34962
		},
		{
			"buffer":0,
			"byteLength":2160,
			"byteOffset":21528,
			"target":34963
		},
		{
			"buffer":0,
			"byteLength":8088,
			"byteOffset":23688,
			"target":34962
		},
		{
			"buffer":0,
			"byteLength":8088,
			"byteOffset":31776,
			"target":34962
		},
		{
			"buffer":0,
			"byteLength":5392,
			"byteOffset":39864,
			"target":34962
		},
		{
			"buffer":0,
			"byteLength":10784,
			"byteOffset":45256,
			"target":34962
		},
		{
			"buffer":0,
			"byteLength":7080,
			"byteOffset":56040,
			"target":34963
		},
		{
			"buffer":0,
			"byteLength":1260,
			"byteOffset":63120,
			"target":34962
		},
		{
			"buffer":0,
			"byteLength":1260,
			"byteOffset":64380,
			"target":34962
		},
		{
			"buffer":0,
			"byteLength":840,
			"byteOffset":65640,
			"target":34962
		},
		{
			"buffer":0,
			"byteLength":1680,
			"byteOffset":66480,
			"target":34962
		},
		{
			"buffer":0,
			"byteLength":960,
			"byteOffset":68160,
			"target":34963
		},
		{
			"buffer":0,
			"byteLength":6336,
			"byteOffset":69120,
			"target":34962
		},
		{
			"buffer":0,
			"byteLength":6336,
			"byteOffset":75456,
			"target":34962
		},
		{
			"buffer":0,
			"byteLength":4224,
			"byteOffset":81792,
			"target":34962
		},
		{
			"buffer":0,
			"byteLength":8448,
			"byteOffset":86016,
			"target":34962
		},
		{
			"buffer":0,
			"byteLength":2904,
			"byteOffset":94464,
			"target":34963
		},
		{
			"buffer":0,
			"byteLength":4848,
			"byteOffset":97368,
			"target":34962
		},
		{
			"buffer":0,
			"byteLength":4848,
			"byteOffset":102216,
			"target":34962
		},
		{
			"buffer":0,
			"byteLength":3232,
			"byteOffset":107064,
			"target":34962
		},
		{
			"buffer":0,
			"byteLength":6464,
			"byteOffset":110296,
			"target":34962
		},
		{
			"buffer":0,
			"byteLength":2208,
			"byteOffset":116760,
			"target":34963
		},
		{
			"buffer":0,
			"byteLength":10680,
			"byteOffset":118968,
			"target":34962
		},
		{
			"buffer":0,
			"byteLength":10680,
			"byteOffset":129648,
			"target":34962
		},
		{
			"buffer":0,
			"byteLength":7120,
			"byteOffset":140328,
			"target":34962
		},
		{
			"buffer":0,
			"byteLength":14240,
			"byteOffset":147448,
			"target":34962
		},
		{
			"buffer":0,
			"byteLength":10254,
			"byteOffset":161688,
			"target":34963
		},
		{
			"buffer":0,
			"byteLength":12480,
			"byteOffset":171944,
			"target":34962
		},
		{
			"buffer":0,
			"byteLength":12480,
			"byteOffset":184424,
			"target":34962
		},
		{
			"buffer":0,
			"byteLength":8320,
			"byteOffset":196904,
			"target":34962
		},
		{
			"buffer":0,
			"byteLength":16640,
			"byteOffset":205224,
			"target":34962
		},
		{
			"buffer":0,
			"byteLength":9456,
			"byteOffset":221864,
			"target":34963
		},
		{
			"buffer":0,
			"byteLength":4680,
			"byteOffset":231320,
			"target":34962
		},
		{
			"buffer":0,
			"byteLength":4680,
			"byteOffset":236000,
			"target":34962
		},
		{
			"buffer":0,
			"byteLength":3120,
			"byteOffset":240680,
			"target":34962
		},
		{
			"buffer":0,
			"byteLength":6240,
			"byteOffset":243800,
			"target":34962
		},
		{
			"buffer":0,
			"byteLength":3048,
			"byteOffset":250040,
			"target":34963
		},
		{
			"buffer":0,
			"byteLength":2400,
			"byteOffset":253088,
			"target":34962
		},
		{
			"buffer":0,
			"byteLength":2400,
			"byteOffset":255488,
			"target":34962
		},
		{
			"buffer":0,
			"byteLength":1600,
			"byteOffset":257888,
			"target":34962
		},
		{
			"buffer":0,
			"byteLength":3200,
			"byteOffset":259488,
			"target":34962
		},
		{
			"buffer":0,
			"byteLength":1920,
			"byteOffset":262688,
			"target":34963
		},
		{
			"buffer":0,
			"byteLength":600,
			"byteOffset":264608,
			"target":34962
		},
		{
			"buffer":0,
			"byteLength":600,
			"byteOffset":265208,
			"target":34962
		},
		{
			"buffer":0,
			"byteLength":400,
			"byteOffset":265808,
			"target":34962
		},
		{
			"buffer":0,
			"byteLength":800,
			"byteOffset":266208,
			"target":34962
		},
		{
			"buffer":0,
			"byteLength":288,
			"byteOffset":267008,
			"target":34963
		},
		{
			"buffer":0,
			"byteLength":948,
			"byteOffset":267296,
			"target":34962
		},
		{
			"buffer":0,
			"byteLength":948,
			"byteOffset":268244,
			"target":34962
		},
		{
			"buffer":0,
			"byteLength":632,
			"byteOffset":269192,
			"target":34962
		},
		{
			"buffer":0,
			"byteLength":1264,
			"byteOffset":269824,
			"target":34962
		},
		{
			"buffer":0,
			"byteLength":900,
			"byteOffset":271088,
			"target":34963
		}
	],
	"samplers":[
		{
			"magFilter":9729,
			"minFilter":9987
		}
	],
	"buffers":[
		{
			"byteLength":271988,
			"uri":"carbon_rod.bin"
		}
	]
}
