{
	"asset":{
		"generator":"Khronos glTF Blender I/O v4.4.56",
		"version":"2.0"
	},
	"extensionsUsed":[
		"KHR_materials_clearcoat"
	],
	"scene":0,
	"scenes":[
		{
			"name":"Scene",
			"nodes":[
				0
			]
		}
	],
	"nodes":[
		{
			"mesh":0,
			"name":"carp_rod"
		}
	],
	"materials":[
		{
			"name":"carp_rod_rubber",
			"pbrMetallicRoughness":{
				"baseColorFactor":[
					0.0027089782524853945,
					0.0027089782524853945,
					0.0027089782524853945,
					1
				],
				"metallicFactor":0,
				"roughnessFactor":0.699999988079071
			}
		},
		{
			"name":"carp_rod_grip",
			"normalTexture":{
				"index":0
			},
			"pbrMetallicRoughness":{
				"baseColorTexture":{
					"index":1
				},
				"metallicFactor":0,
				"roughnessFactor":0.6200000047683716
			}
		},
		{
			"name":"carp_rod_seat",
			"pbrMetallicRoughness":{
				"baseColorFactor":[
					0.003935939632356167,
					0.003935939632356167,
					0.004400849808007479,
					1
				],
				"metallicFactor":0.6000000238418579,
				"roughnessFactor":0.3199999928474426
			}
		},
		{
			"extensions":{
				"KHR_materials_clearcoat":{
					"clearcoatFactor":0.6000000238418579
				}
			},
			"name":"carp_rod_trim",
			"pbrMetallicRoughness":{
				"baseColorFactor":[
					0.47699978947639465,
					0.31854677200317383,
					0.07323895394802094,
					1
				],
				"metallicFactor":0.699999988079071,
				"roughnessFactor":0.25
			}
		},
		{
			"extensions":{
				"KHR_materials_clearcoat":{
					"clearcoatFactor":0.800000011920929
				}
			},
			"name":"carp_rod_wrap",
			"pbrMetallicRoughness":{
				"baseColorFactor":[
					0.007194409146904945,
					0.007194409146904945,
					0.007194409146904945,
					1
				],
				"metallicFactor":0,
				"roughnessFactor":0.30000001192092896
			}
		},
		{
			"extensions":{
				"KHR_materials_clearcoat":{
					"clearcoatFactor":0.20000000298023224
				}
			},
			"name":"carp_rod_blank",
			"pbrMetallicRoughness":{
				"baseColorFactor":[
					0.017389101907610893,
					0.021980946883559227,
					0.010022825561463833,
					1
				],
				"metallicFactor":0.15000000596046448,
				"roughnessFactor":0.41999998688697815
			}
		},
		{
			"name":"carp_rod_insert",
			"pbrMetallicRoughness":{
				"baseColorFactor":[
					0.0134117491543293,
					0.0134117491543293,
					0.015325203537940979,
					1
				],
				"metallicFactor":0.800000011920929,
				"roughnessFactor":0.07999999821186066
			}
		},
		{
			"name":"carp_rod_frame",
			"pbrMetallicRoughness":{
				"baseColorFactor":[
					0.004896310158073902,
					0.004896310158073902,
					0.005422868765890598,
					1
				],
				"metallicFactor":0.8999999761581421,
				"roughnessFactor":0.25
			}
		},
		{
			"name":"carp_rod_reel",
			"pbrMetallicRoughness":{
				"baseColorFactor":[
					0.03310476616024971,
					0.036306485533714294,
					0.03310476616024971,
					1
				],
				"metallicFactor":0.8500000238418579,
				"roughnessFactor":0.30000001192092896
			}
		},
		{
			"name":"carp_rod_spool",
			"pbrMetallicRoughness":{
				"baseColorFactor":[
					0.3931231200695038,
					0.3931231200695038,
					0.4200332760810852,
					1
				],
				"roughnessFactor":0.2199999988079071
			}
		},
		{
			"name":"carp_rod_line",
			"pbrMetallicRoughness":{
				"baseColorFactor":[
					0.06372379511594772,
					0.13286831974983215,
					0.03968190774321556,
					1
				],
				"metallicFactor":0,
				"roughnessFactor":0.3499999940395355
			}
		},
		{
			"name":"carp_rod_chrome",
			"pbrMetallicRoughness":{
				"baseColorFactor":[
					0.6038273572921753,
					0.6038273572921753,
					0.6382831931114197,
					1
				],
				"roughnessFactor":0.11999999731779099
			}
		}
	],
	"meshes":[
		{
			"name":"carp_rod",
			"primitives":[
				{
					"attributes":{
						"POSITION":0,
						"NORMAL":1,
						"TEXCOORD_0":2,
						"TANGENT":3
					},
					"indices":4,
					"material":0
				},
				{
					"attributes":{
						"POSITION":5,
						"NORMAL":6,
						"TEXCOORD_0":7,
						"TANGENT":8
					},
					"indices":9,
					"material":1
				},
				{
					"attributes":{
						"POSITION":10,
						"NORMAL":11,
						"TEXCOORD_0":12,
						"TANGENT":13
					},
					"indices":14,
					"material":2
				},
				{
					"attributes":{
						"POSITION":15,
						"NORMAL":16,
						"TEXCOORD_0":17,
						"TANGENT":18
					},
					"indices":19,
					"material":3
				},
				{
					"attributes":{
						"POSITION":20,
						"NORMAL":21,
						"TEXCOORD_0":22,
						"TANGENT":23
					},
					"indices":24,
					"material":4
				},
				{
					"attributes":{
						"POSITION":25,
						"NORMAL":26,
						"TEXCOORD_0":27,
						"TANGENT":28
					},
					"indices":29,
					"material":5
				},
				{
					"attributes":{
						"POSITION":30,
						"NORMAL":31,
						"TEXCOORD_0":32,
						"TANGENT":33
					},
					"indices":34,
					"material":6
				},
				{
					"attributes":{
						"POSITION":35,
						"NORMAL":36,
						"TEXCOORD_0":37,
						"TANGENT":38
					},
					"indices":39,
					"material":7
				},
				{
					"attributes":{
						"POSITION":40,
						"NORMAL":41,
						"TEXCOORD_0":42,
						"TANGENT":43
					},
					"indices":44,
					"material":8
				},
				{
					"attributes":{
						"POSITION":45,
						"NORMAL":46,
						"TEXCOORD_0":47,
						"TANGENT":48
					},
					"indices":49,
					"material":9
				},
				{
					"attributes":{
						"POSITION":50,
						"NORMAL":51,
						"TEXCOORD_0":52,
						"TANGENT":53
					},
					"indices":54,
					"material":10
				},
				{
					"attributes":{
						"POSITION":55,
						"NORMAL":56,
						"TEXCOORD_0":57,
						"TANGENT":58
					},
					"indices":59,
					"material":11
				}
			]
		}
	],
	"textures":[
		{
			"sampler":0,
			"source":0
		},
		{
			"sampler":0,
			"source":1
		}
	],
	"images":[
		{
			"mimeType":"image/jpeg",
			"name":"carp_rod_grip_nor",
			"uri":"textures/carp_rod_grip_nor.jpg"
		},
		{
			"mimeType":"image/jpeg",
			"name":"carp_rod_grip",
			"uri":"textures/carp_rod_grip.jpg"
		}
	],
	"accessors":[
		{
			"bufferView":0,
			"componentType":5126,
			"count":171,
			"max":[
				0.01549999974668026,
				-0.030636001378297806,
				0.01549999974668026
			],
			"min":[
				-0.09080400317907333,
				-0.550000011920929,
				-0.09107999503612518
			],
			"type":"VEC3"
		},
		{
			"bufferView":1,
			"componentType":5126,
			"count":171,
			"type":"VEC3"
		},
		{
			"bufferView":2,
			"componentType":5126,
			"count":171,
			"type":"VEC2"
		},
		{
			"bufferView":3,
			"componentType":5126,
			"count":171,
			"type":"VEC4"
		},
		{
			"bufferView":4,
			"componentType":5123,
			"count":612,
			"type":"SCALAR"
		},
		{
			"bufferView":5,
			"componentType":5126,
			"count":210,
			"max":[
				0.015200000256299973,
				0.30000001192092896,
				0.015200000256299973
			],
			"min":[
				-0.015200000256299973,
				-0.5249999761581421,
				-0.015200000256299973
			],
			"type":"VEC3"
		},
		{
			"bufferView":6,
			"componentType":5126,
			"count":210,
			"type":"VEC3"
		},
		{
			"bufferView":7,
			"componentType":5126,
			"count":210,
			"type":"VEC2"
		},
		{
			"bufferView":8,
			"componentType":5126,
			"count":210,
			"type":"VEC4"
		},
		{
			"bufferView":9,
			"componentType":5123,
			"count":960,
			"type":"SCALAR"
		},
		{
			"bufferView":10,
			"componentType":5126,
			"count":105,
			"max":[
				0.013199999928474426,
				0.057999998331069946,
				0.013199999928474426
			],
			"min":[
				-0.013199999928474426,
				-0.05999999865889549,
				-0.013199999928474426
			],
			"type":"VEC3"
		},
		{
			"bufferView":11,
			"componentType":5126,
			"count":105,
			"type":"VEC3"
		},
		{
			"bufferView":12,
			"componentType":5126,
			"count":105,
			"type":"VEC2"
		},
		{
			"bufferView":13,
			"componentType":5126,
			"count":105,
			"type":"VEC4"
		},
		{
			"bufferView":14,
			"componentType":5123,
			"count":480,
			"type":"SCALAR"
		},
		{
			"bufferView":15,
			"componentType":5126,
			"count":484,
			"max":[
				0.013799999840557575,
				2.4971001148223877,
				0.03615599870681763
			],
			"min":[
				-0.12171600013971329,
				-0.06400000303983688,
				-0.03615599870681763
			],
			"type":"VEC3"
		},
		{
			"bufferView":16,
			"componentType":5126,
			"count":484,
			"type":"VEC3"
		},
		{
			"bufferView":17,
			"componentType":5126,
			"count":484,
			"type":"VEC2"
		},
		{
			"bufferView":18,
			"componentType":5126,
			"count":484,
			"type":"VEC4"
		},
		{
			"bufferView":19,
			"componentType":5123,
			"count":1332,
			"type":"SCALAR"
		},
		{
			"bufferView":20,
			"componentType":5126,
			"count":360,
			"max":[
				0.009999999776482582,
				2.5969998836517334,
				0.009749279357492924
			],
			"min":[
				-0.009999999776482582,
				0.30000001192092896,
				-0.009749279357492924
			],
			"type":"VEC3"
		},
		{
			"bufferView":21,
			"componentType":5126,
			"count":360,
			"type":"VEC3"
		},
		{
			"bufferView":22,
			"componentType":5126,
			"count":360,
			"type":"VEC2"
		},
		{
			"bufferView":23,
			"componentType":5126,
			"count":360,
			"type":"VEC4"
		},
		{
			"bufferView":24,
			"componentType":5123,
			"count":984,
			"type":"SCALAR"
		},
		{
			"bufferView":25,
			"componentType":5126,
			"count":648,
			"max":[
				0.009200000204145908,
				2.5950000286102295,
				0.009200000204145908
			],
			"min":[
				-0.009200000204145908,
				0.30000001192092896,
				-0.009200000204145908
			],
			"type":"VEC3"
		},
		{
			"bufferView":26,
			"componentType":5126,
			"count":648,
			"type":"VEC3"
		},
		{
			"bufferView":27,
			"componentType":5126,
			"count":648,
			"type":"VEC2"
		},
		{
			"bufferView":28,
			"componentType":5126,
			"count":648,
			"type":"VEC4"
		},
		{
			"bufferView":29,
			"componentType":5123,
			"count":3456,
			"type":"SCALAR"
		},
		{
			"bufferView":30,
			"componentType":5126,
			"count":787,
			"max":[
				0.003482333617284894,
				2.6035900115966797,
				0.0029873456805944443
			],
			"min":[
				-0.10388212651014328,
				0.5911022424697876,
				-0.0029873456805944443
			],
			"type":"VEC3"
		},
		{
			"bufferView":31,
			"componentType":5126,
			"count":787,
			"type":"VEC3"
		},
		{
			"bufferView":32,
			"componentType":5126,
			"count":787,
			"type":"VEC2"
		},
		{
			"bufferView":33,
			"componentType":5126,
			"count":787,
			"type":"VEC4"
		},
		{
			"bufferView":34,
			"componentType":5123,
			"count":4533,
			"type":"SCALAR"
		},
		{
			"bufferView":35,
			"componentType":5126,
			"count":910,
			"max":[
				-0.001641052309423685,
				2.4888620376586914,
				0.0017778389155864716
			],
			"min":[
				-0.10798816382884979,
				0.5686564445495605,
				-0.0017778389155864716
			],
			"type":"VEC3"
		},
		{
			"bufferView":36,
			"componentType":5126,
			"count":910,
			"type":"VEC3"
		},
		{
			"bufferView":37,
			"componentType":5126,
			"count":910,
			"type":"VEC2"
		},
		{
			"bufferView":38,
			"componentType":5126,
			"count":910,
			"type":"VEC4"
		},
		{
			"bufferView":39,
			"componentType":5123,
			"count":4137,
			"type":"SCALAR"
		},
		{
			"bufferView":40,
			"componentType":5126,
			"count":390,
			"max":[
				-0.015180002897977829,
				0.06348000466823578,
				0.02621999941766262
			],
			"min":[
				-0.11545876413583755,
				-0.03863999992609024,
				-0.07337567210197449
			],
			"type":"VEC3"
		},
		{
			"bufferView":41,
			"componentType":5126,
			"count":390,
			"type":"VEC3"
		},
		{
			"bufferView":42,
			"componentType":5126,
			"count":390,
			"type":"VEC2"
		},
		{
			"bufferView":43,
			"componentType":5126,
			"count":390,
			"type":"VEC4"
		},
		{
			"bufferView":44,
			"componentType":5123,
			"count":1524,
			"type":"SCALAR"
		},
		{
			"bufferView":45,
			"componentType":5126,
			"count":202,
			"max":[
				-0.04968000203371048,
				0.11454000324010849,
				0.03587999939918518
			],
			"min":[
				-0.12144000083208084,
				0.06348000466823578,
				-0.03587999939918518
			],
			"type":"VEC3"
		},
		{
			"bufferView":46,
			"componentType":5126,
			"count":202,
			"type":"VEC3"
		},
		{
			"bufferView":47,
			"componentType":5126,
			"count":202,
			"type":"VEC2"
		},
		{
			"bufferView":48,
			"componentType":5126,
			"count":202,
			"type":"VEC4"
		},
		{
			"bufferView":49,
			"componentType":5123,
			"count":960,
			"type":"SCALAR"
		},
		{
			"bufferView":50,
			"componentType":5126,
			"count":50,
			"max":[
				-0.05628000199794769,
				0.09936000406742096,
				0.029279999434947968
			],
			"min":[
				-0.11484000086784363,
				0.07175999879837036,
				-0.029279999434947968
			],
			"type":"VEC3"
		},
		{
			"bufferView":51,
			"componentType":5126,
			"count":50,
			"type":"VEC3"
		},
		{
			"bufferView":52,
			"componentType":5126,
			"count":50,
			"type":"VEC2"
		},
		{
			"bufferView":53,
			"componentType":5126,
			"count":50,
			"type":"VEC4"
		},
		{
			"bufferView":54,
			"componentType":5123,
			"count":144,
			"type":"SCALAR"
		},
		{
			"bufferView":55,
			"componentType":5126,
			"count":79,
			"max":[
				-0.04546413570642471,
				0.10909248888492584,
				0.0014838256174698472
			],
			"min":[
				-0.12564708292484283,
				0.10065372288227081,
				-0.036242272704839706
			],
			"type":"VEC3"
		},
		{
			"bufferView":56,
			"componentType":5126,
			"count":79,
			"type":"VEC3"
		},
		{
			"bufferView":57,
			"componentType":5126,
			"count":79,
			"type":"VEC2"
		},
		{
			"bufferView":58,
			"componentType":5126,
			"count":79,
			"type":"VEC4"
		},
		{
			"bufferView":59,
			"componentType":5123,
			"count":450,
			"type":"SCALAR"
		}
	],
	"bufferViews":[
		{
			"buffer":0,
			"byteLength":2052,
			"byteOffset":0,
			"target":34962
		},
		{
			"buffer":0,
			"byteLength":2052,
			"byteOffset":2052,
			"target":34962
		},
		{
			"buffer":0,
			"byteLength":1368,
			"byteOffset":4104,
			"target":34962
		},
		{
			"buffer":0,
			"byteLength":2736,
			"byteOffset":5472,
			"target":34962
		},
		{
			"buffer":0,
			"byteLength":1224,
			"byteOffset":8208,
			"target":34963
		},
		{
			"buffer":0,
			"byteLength":2520,
			"byteOffset":9432,
			"target":34962
		},
		{
			"buffer":0,
			"byteLength":2520,
			"byteOffset":11952,
			"target":34962
		},
		{
			"buffer":0,
			"byteLength":1680,
			"byteOffset":14472,
			"target":34962
		},
		{
			"buffer":0,
			"byteLength":3360,
			"byteOffset":16152,
			"target":34962
		},
		{
			"buffer":0,
			"byteLength":1920,
			"byteOffset":19512,
			"target":34963
		},
		{
			"buffer":0,
			"byteLength":1260,
			"byteOffset":21432,
			"target":34962
		},
		{
			"buffer":0,
			"byteLength":1260,
			"byteOffset":22692,
			"target":34962
		},
		{
			"buffer":0,
			"byteLength":840,
			"byteOffset":23952,
			"target":34962
		},
		{
			"buffer":0,
			"byteLength":1680,
			"byteOffset":24792,
			"target":34962
		},
		{
			"buffer":0,
			"byteLength":960,
			"byteOffset":26472,
			"target":34963
		},
		{
			"buffer":0,
			"byteLength":5808,
			"byteOffset":27432,
			"target":34962
		},
		{
			"buffer":0,
			"byteLength":5808,
			"byteOffset":33240,
			"target":34962
		},
		{
			"buffer":0,
			"byteLength":3872,
			"byteOffset":39048,
			"target":34962
		},
		{
			"buffer":0,
			"byteLength":7744,
			"byteOffset":42920,
			"target":34962
		},
		{
			"buffer":0,
			"byteLength":2664,
			"byteOffset":50664,
			"target":34963
		},
		{
			"buffer":0,
			"byteLength":4320,
			"byteOffset":53328,
			"target":34962
		},
		{
			"buffer":0,
			"byteLength":4320,
			"byteOffset":57648,
			"target":34962
		},
		{
			"buffer":0,
			"byteLength":2880,
			"byteOffset":61968,
			"target":34962
		},
		{
			"buffer":0,
			"byteLength":5760,
			"byteOffset":64848,
			"target":34962
		},
		{
			"buffer":0,
			"byteLength":1968,
			"byteOffset":70608,
			"target":34963
		},
		{
			"buffer":0,
			"byteLength":7776,
			"byteOffset":72576,
			"target":34962
		},
		{
			"buffer":0,
			"byteLength":7776,
			"byteOffset":80352,
			"target":34962
		},
		{
			"buffer":0,
			"byteLength":5184,
			"byteOffset":88128,
			"target":34962
		},
		{
			"buffer":0,
			"byteLength":10368,
			"byteOffset":93312,
			"target":34962
		},
		{
			"buffer":0,
			"byteLength":6912,
			"byteOffset":103680,
			"target":34963
		},
		{
			"buffer":0,
			"byteLength":9444,
			"byteOffset":110592,
			"target":34962
		},
		{
			"buffer":0,
			"byteLength":9444,
			"byteOffset":120036,
			"target":34962
		},
		{
			"buffer":0,
			"byteLength":6296,
			"byteOffset":129480,
			"target":34962
		},
		{
			"buffer":0,
			"byteLength":12592,
			"byteOffset":135776,
			"target":34962
		},
		{
			"buffer":0,
			"byteLength":9066,
			"byteOffset":148368,
			"target":34963
		},
		{
			"buffer":0,
			"byteLength":10920,
			"byteOffset":157436,
			"target":34962
		},
		{
			"buffer":0,
			"byteLength":10920,
			"byteOffset":168356,
			"target":34962
		},
		{
			"buffer":0,
			"byteLength":7280,
			"byteOffset":179276,
			"target":34962
		},
		{
			"buffer":0,
			"byteLength":14560,
			"byteOffset":186556,
			"target":34962
		},
		{
			"buffer":0,
			"byteLength":8274,
			"byteOffset":201116,
			"target":34963
		},
		{
			"buffer":0,
			"byteLength":4680,
			"byteOffset":209392,
			"target":34962
		},
		{
			"buffer":0,
			"byteLength":4680,
			"byteOffset":214072,
			"target":34962
		},
		{
			"buffer":0,
			"byteLength":3120,
			"byteOffset":218752,
			"target":34962
		},
		{
			"buffer":0,
			"byteLength":6240,
			"byteOffset":221872,
			"target":34962
		},
		{
			"buffer":0,
			"byteLength":3048,
			"byteOffset":228112,
			"target":34963
		},
		{
			"buffer":0,
			"byteLength":2424,
			"byteOffset":231160,
			"target":34962
		},
		{
			"buffer":0,
			"byteLength":2424,
			"byteOffset":233584,
			"target":34962
		},
		{
			"buffer":0,
			"byteLength":1616,
			"byteOffset":236008,
			"target":34962
		},
		{
			"buffer":0,
			"byteLength":3232,
			"byteOffset":237624,
			"target":34962
		},
		{
			"buffer":0,
			"byteLength":1920,
			"byteOffset":240856,
			"target":34963
		},
		{
			"buffer":0,
			"byteLength":600,
			"byteOffset":242776,
			"target":34962
		},
		{
			"buffer":0,
			"byteLength":600,
			"byteOffset":243376,
			"target":34962
		},
		{
			"buffer":0,
			"byteLength":400,
			"byteOffset":243976,
			"target":34962
		},
		{
			"buffer":0,
			"byteLength":800,
			"byteOffset":244376,
			"target":34962
		},
		{
			"buffer":0,
			"byteLength":288,
			"byteOffset":245176,
			"target":34963
		},
		{
			"buffer":0,
			"byteLength":948,
			"byteOffset":245464,
			"target":34962
		},
		{
			"buffer":0,
			"byteLength":948,
			"byteOffset":246412,
			"target":34962
		},
		{
			"buffer":0,
			"byteLength":632,
			"byteOffset":247360,
			"target":34962
		},
		{
			"buffer":0,
			"byteLength":1264,
			"byteOffset":247992,
			"target":34962
		},
		{
			"buffer":0,
			"byteLength":900,
			"byteOffset":249256,
			"target":34963
		}
	],
	"samplers":[
		{
			"magFilter":9729,
			"minFilter":9987
		}
	],
	"buffers":[
		{
			"byteLength":250156,
			"uri":"carp_rod.bin"
		}
	]
}
