{
	"asset":{
		"generator":"Khronos glTF Blender I/O v4.4.56",
		"version":"2.0"
	},
	"extensionsUsed":[
		"KHR_materials_clearcoat"
	],
	"scene":0,
	"scenes":[
		{
			"name":"Scene",
			"nodes":[
				0
			]
		}
	],
	"nodes":[
		{
			"mesh":0,
			"name":"cheese_bait"
		}
	],
	"materials":[
		{
			"doubleSided":true,
			"extensions":{
				"KHR_materials_clearcoat":{
					"clearcoatFactor":0.15000000596046448
				}
			},
			"name":"cheese_paper",
			"pbrMetallicRoughness":{
				"baseColorFactor":[
					0.27383843064308167,
					0.13286831974983215,
					0.05087608844041824,
					1
				],
				"metallicFactor":0,
				"roughnessFactor":0.550000011920929
			}
		},
		{
			"name":"cheese_bait",
			"normalTexture":{
				"index":0
			},
			"pbrMetallicRoughness":{
				"baseColorTexture":{
					"index":1
				},
				"metallicFactor":0,
				"roughnessFactor":0.550000011920929
			}
		}
	],
	"meshes":[
		{
			"name":"cheese_bait",
			"primitives":[
				{
					"attributes":{
						"POSITION":0,
						"NORMAL":1,
						"TEXCOORD_0":2,
						"TANGENT":3
					},
					"indices":4,
					"material":0
				},
				{
					"attributes":{
						"POSITION":5,
						"NORMAL":6,
						"TEXCOORD_0":7,
						"TANGENT":8
					},
					"indices":9,
					"material":1
				}
			]
		}
	],
	"textures":[
		{
			"sampler":0,
			"source":0
		},
		{
			"sampler":0,
			"source":1
		}
	],
	"images":[
		{
			"mimeType":"image/jpeg",
			"name":"cheese_bait_nor",
			"uri":"textures/cheese_bait_nor.jpg"
		},
		{
			"mimeType":"image/jpeg",
			"name":"cheese_bait",
			"uri":"textures/cheese_bait.jpg"
		}
	],
	"accessors":[
		{
			"bufferView":0,
			"componentType":5126,
			"count":169,
			"max":[
				0.04749999940395355,
				0.0030540486332029104,
				0.04749999940395355
			],
			"min":[
				-0.04749999940395355,
				0.00025464847567491233,
				-0.04749999940395355
			],
			"type":"VEC3"
		},
		{
			"bufferView":1,
			"componentType":5126,
			"count":169,
			"type":"VEC3"
		},
		{
			"bufferView":2,
			"componentType":5126,
			"count":169,
			"type":"VEC2"
		},
		{
			"bufferView":3,
			"componentType":5126,
			"count":169,
			"type":"VEC4"
		},
		{
			"bufferView":4,
			"componentType":5123,
			"count":864,
			"type":"SCALAR"
		},
		{
			"bufferView":5,
			"componentType":5126,
			"count":1080,
			"max":[
				0.015420304611325264,
				0.015953054651618004,
				0.030353451147675514
			],
			"min":[
				-0.027561092749238014,
				0.002307523973286152,
				-0.027352649718523026
			],
			"type":"VEC3"
		},
		{
			"bufferView":6,
			"componentType":5126,
			"count":1080,
			"type":"VEC3"
		},
		{
			"bufferView":7,
			"componentType":5126,
			"count":1080,
			"type":"VEC2"
		},
		{
			"bufferView":8,
			"componentType":5126,
			"count":1080,
			"type":"VEC4"
		},
		{
			"bufferView":9,
			"componentType":5123,
			"count":1620,
			"type":"SCALAR"
		}
	],
	"bufferViews":[
		{
			"buffer":0,
			"byteLength":2028,
			"byteOffset":0,
			"target":34962
		},
		{
			"buffer":0,
			"byteLength":2028,
			"byteOffset":2028,
			"target":34962
		},
		{
			"buffer":0,
			"byteLength":1352,
			"byteOffset":4056,
			"target":34962
		},
		{
			"buffer":0,
			"byteLength":2704,
			"byteOffset":5408,
			"target":34962
		},
		{
			"buffer":0,
			"byteLength":1728,
			"byteOffset":8112,
			"target":34963
		},
		{
			"buffer":0,
			"byteLength":12960,
			"byteOffset":9840,
			"target":34962
		},
		{
			"buffer":0,
			"byteLength":12960,
			"byteOffset":22800,
			"target":34962
		},
		{
			"buffer":0,
			"byteLength":8640,
			"byteOffset":35760,
			"target":34962
		},
		{
			"buffer":0,
			"byteLength":17280,
			"byteOffset":44400,
			"target":34962
		},
		{
			"buffer":0,
			"byteLength":3240,
			"byteOffset":61680,
			"target":34963
		}
	],
	"samplers":[
		{
			"magFilter":9729,
			"minFilter":9987
		}
	],
	"buffers":[
		{
			"byteLength":64920,
			"uri":"cheese_bait.bin"
		}
	]
}
