{
	"asset":{
		"generator":"Khronos glTF Blender I/O v4.4.56",
		"version":"2.0"
	},
	"extensionsUsed":[
		"KHR_materials_clearcoat",
		"KHR_materials_specular"
	],
	"scene":0,
	"scenes":[
		{
			"name":"Scene",
			"nodes":[
				0
			]
		}
	],
	"nodes":[
		{
			"mesh":0,
			"name":"fish_zander"
		}
	],
	"materials":[
		{
			"extensions":{
				"KHR_materials_clearcoat":{
					"clearcoatFactor":0.3499999940395355
				},
				"KHR_materials_specular":{
					"specularColorFactor":[
						1.2000000476837158,
						1.2000000476837158,
						1.2000000476837158
					]
				}
			},
			"name":"fish_zander_skin",
			"normalTexture":{
				"index":0
			},
			"pbrMetallicRoughness":{
				"baseColorTexture":{
					"index":1
				},
				"metallicFactor":0,
				"roughnessFactor":0.30000001192092896
			}
		},
		{
			"doubleSided":true,
			"name":"fish_zander_spiny",
			"normalTexture":{
				"index":2
			},
			"pbrMetallicRoughness":{
				"baseColorTexture":{
					"index":3
				},
				"metallicFactor":0,
				"roughnessFactor":0.3499999940395355
			}
		},
		{
			"doubleSided":true,
			"name":"fish_zander_dorsal",
			"normalTexture":{
				"index":4
			},
			"pbrMetallicRoughness":{
				"baseColorTexture":{
					"index":5
				},
				"metallicFactor":0,
				"roughnessFactor":0.3499999940395355
			}
		},
		{
			"doubleSided":true,
			"name":"fish_zander_paired",
			"normalTexture":{
				"index":6
			},
			"pbrMetallicRoughness":{
				"baseColorTexture":{
					"index":7
				},
				"metallicFactor":0,
				"roughnessFactor":0.3499999940395355
			}
		},
		{
			"doubleSided":true,
			"name":"fish_zander_caudal",
			"normalTexture":{
				"index":8
			},
			"pbrMetallicRoughness":{
				"baseColorTexture":{
					"index":9
				},
				"metallicFactor":0,
				"roughnessFactor":0.3499999940395355
			}
		},
		{
			"extensions":{
				"KHR_materials_specular":{
					"specularColorFactor":[
						1.7999999523162842,
						1.7999999523162842,
						1.7999999523162842
					]
				}
			},
			"name":"fish_zander_iris",
			"pbrMetallicRoughness":{
				"baseColorFactor":[
					0.6920710802078247,
					0.6920710802078247,
					0.6038273572921753,
					1
				],
				"metallicFactor":0,
				"roughnessFactor":0.07999999821186066
			}
		},
		{
			"extensions":{
				"KHR_materials_specular":{
					"specularColorFactor":[
						2.0,
						2.0,
						2.0
					]
				}
			},
			"name":"fish_zander_pupil",
			"pbrMetallicRoughness":{
				"baseColorFactor":[
					0.0007739937864243984,
					0.0007739937864243984,
					0.0009287925786338747,
					1
				],
				"metallicFactor":0,
				"roughnessFactor":0.029999999329447746
			}
		}
	],
	"meshes":[
		{
			"name":"fish_zander",
			"primitives":[
				{
					"attributes":{
						"POSITION":0,
						"NORMAL":1,
						"TEXCOORD_0":2,
						"TANGENT":3
					},
					"indices":4,
					"material":0
				},
				{
					"attributes":{
						"POSITION":5,
						"NORMAL":6,
						"TEXCOORD_0":7,
						"TANGENT":8
					},
					"indices":9,
					"material":1
				},
				{
					"attributes":{
						"POSITION":10,
						"NORMAL":11,
						"TEXCOORD_0":12,
						"TANGENT":13
					},
					"indices":9,
					"material":2
				},
				{
					"attributes":{
						"POSITION":14,
						"NORMAL":15,
						"TEXCOORD_0":16,
						"TANGENT":17
					},
					"indices":18,
					"material":3
				},
				{
					"attributes":{
						"POSITION":19,
						"NORMAL":20,
						"TEXCOORD_0":21,
						"TANGENT":22
					},
					"indices":23,
					"material":4
				},
				{
					"attributes":{
						"POSITION":24,
						"NORMAL":25,
						"TEXCOORD_0":26,
						"TANGENT":27
					},
					"indices":28,
					"material":5
				},
				{
					"attributes":{
						"POSITION":29,
						"NORMAL":30,
						"TEXCOORD_0":31,
						"TANGENT":32
					},
					"indices":33,
					"material":6
				}
			]
		}
	],
	"textures":[
		{
			"sampler":0,
			"source":0
		},
		{
			"sampler":0,
			"source":1
		},
		{
			"sampler":0,
			"source":2
		},
		{
			"sampler":0,
			"source":3
		},
		{
			"sampler":0,
			"source":4
		},
		{
			"sampler":0,
			"source":5
		},
		{
			"sampler":0,
			"source":6
		},
		{
			"sampler":0,
			"source":7
		},
		{
			"sampler":0,
			"source":8
		},
		{
			"sampler":0,
			"source":9
		}
	],
	"images":[
		{
			"mimeType":"image/jpeg",
			"name":"fish_zander_body_nor",
			"uri":"textures/fish_zander_body_nor.jpg"
		},
		{
			"mimeType":"image/jpeg",
			"name":"fish_zander_body",
			"uri":"textures/fish_zander_body.jpg"
		},
		{
			"mimeType":"image/jpeg",
			"name":"fish_zander_spiny_nor",
			"uri":"textures/fish_zander_spiny_nor.jpg"
		},
		{
			"mimeType":"image/jpeg",
			"name":"fish_zander_spiny",
			"uri":"textures/fish_zander_spiny.jpg"
		},
		{
			"mimeType":"image/jpeg",
			"name":"fish_zander_dorsal_nor",
			"uri":"textures/fish_zander_dorsal_nor.jpg"
		},
		{
			"mimeType":"image/jpeg",
			"name":"fish_zander_dorsal",
			"uri":"textures/fish_zander_dorsal.jpg"
		},
		{
			"mimeType":"image/jpeg",
			"name":"fish_zander_paired_nor",
			"uri":"textures/fish_zander_paired_nor.jpg"
		},
		{
			"mimeType":"image/jpeg",
			"name":"fish_zander_paired",
			"uri":"textures/fish_zander_paired.jpg"
		},
		{
			"mimeType":"image/jpeg",
			"name":"fish_zander_caudal_nor",
			"uri":"textures/fish_zander_caudal_nor.jpg"
		},
		{
			"mimeType":"image/jpeg",
			"name":"fish_zander_caudal",
			"uri":"textures/fish_zander_caudal.jpg"
		}
	],
	"accessors":[
		{
			"bufferView":0,
			"componentType":5126,
			"count":3818,
			"max":[
				0.2770000100135803,
				0.04802973195910454,
				0.0254026148468256
			],
			"min":[
				-0.18799999356269836,
				-0.04433513805270195,
				-0.0254026148468256
			],
			"type":"VEC3"
		},
		{
			"bufferView":1,
			"componentType":5126,
			"count":3818,
			"type":"VEC3"
		},
		{
			"bufferView":2,
			"componentType":5126,
			"count":3818,
			"type":"VEC2"
		},
		{
			"bufferView":3,
			"componentType":5126,
			"count":3818,
			"type":"VEC4"
		},
		{
			"bufferView":4,
			"componentType":5123,
			"count":21024,
			"type":"SCALAR"
		},
		{
			"bufferView":5,
			"componentType":5126,
			"count":90,
			"max":[
				0.14564000070095062,
				0.13106948137283325,
				0.0015109415398910642
			],
			"min":[
				0.031525999307632446,
				0.042453374713659286,
				-0.0012449306668713689
			],
			"type":"VEC3"
		},
		{
			"bufferView":6,
			"componentType":5126,
			"count":90,
			"type":"VEC3"
		},
		{
			"bufferView":7,
			"componentType":5126,
			"count":90,
			"type":"VEC2"
		},
		{
			"bufferView":8,
			"componentType":5126,
			"count":90,
			"type":"VEC4"
		},
		{
			"bufferView":9,
			"componentType":5123,
			"count":420,
			"type":"SCALAR"
		},
		{
			"bufferView":10,
			"componentType":5126,
			"count":90,
			"max":[
				0.025520000606775284,
				0.10113310813903809,
				0.0011273948475718498
			],
			"min":[
				-0.06734199821949005,
				0.024725453928112984,
				-0.001107988297007978
			],
			"type":"VEC3"
		},
		{
			"bufferView":11,
			"componentType":5126,
			"count":90,
			"type":"VEC3"
		},
		{
			"bufferView":12,
			"componentType":5126,
			"count":90,
			"type":"VEC2"
		},
		{
			"bufferView":13,
			"componentType":5126,
			"count":90,
			"type":"VEC4"
		},
		{
			"bufferView":14,
			"componentType":5126,
			"count":306,
			"max":[
				0.15488000214099884,
				-0.017393536865711212,
				0.041601717472076416
			],
			"min":[
				-0.09806499630212784,
				-0.07950480282306671,
				-0.041601717472076416
			],
			"type":"VEC3"
		},
		{
			"bufferView":15,
			"componentType":5126,
			"count":306,
			"type":"VEC3"
		},
		{
			"bufferView":16,
			"componentType":5126,
			"count":306,
			"type":"VEC2"
		},
		{
			"bufferView":17,
			"componentType":5126,
			"count":306,
			"type":"VEC4"
		},
		{
			"bufferView":18,
			"componentType":5123,
			"count":1380,
			"type":"SCALAR"
		},
		{
			"bufferView":19,
			"componentType":5126,
			"count":153,
			"max":[
				-0.18479999899864197,
				0.1016400009393692,
				0.0010391726391389966
			],
			"min":[
				-0.2646327316761017,
				-0.1016400009393692,
				-0.0010503449011594057
			],
			"type":"VEC3"
		},
		{
			"bufferView":20,
			"componentType":5126,
			"count":153,
			"type":"VEC3"
		},
		{
			"bufferView":21,
			"componentType":5126,
			"count":153,
			"type":"VEC2"
		},
		{
			"bufferView":22,
			"componentType":5126,
			"count":153,
			"type":"VEC4"
		},
		{
			"bufferView":23,
			"componentType":5123,
			"count":768,
			"type":"SCALAR"
		},
		{
			"bufferView":24,
			"componentType":5126,
			"count":302,
			"max":[
				0.2506248950958252,
				0.02650826796889305,
				0.017282996326684952
			],
			"min":[
				0.2208351194858551,
				-0.003204573877155781,
				-0.017282996326684952
			],
			"type":"VEC3"
		},
		{
			"bufferView":25,
			"componentType":5126,
			"count":302,
			"type":"VEC3"
		},
		{
			"bufferView":26,
			"componentType":5126,
			"count":302,
			"type":"VEC2"
		},
		{
			"bufferView":27,
			"componentType":5126,
			"count":302,
			"type":"VEC4"
		},
		{
			"bufferView":28,
			"componentType":5123,
			"count":1344,
			"type":"SCALAR"
		},
		{
			"bufferView":29,
			"componentType":5126,
			"count":206,
			"max":[
				0.2452627271413803,
				0.021028533577919006,
				0.017877252772450447
			],
			"min":[
				0.2261972874403,
				0.0024890918284654617,
				-0.017877252772450447
			],
			"type":"VEC3"
		},
		{
			"bufferView":30,
			"componentType":5126,
			"count":206,
			"type":"VEC3"
		},
		{
			"bufferView":31,
			"componentType":5126,
			"count":206,
			"type":"VEC2"
		},
		{
			"bufferView":32,
			"componentType":5126,
			"count":206,
			"type":"VEC4"
		},
		{
			"bufferView":33,
			"componentType":5123,
			"count":840,
			"type":"SCALAR"
		}
	],
	"bufferViews":[
		{
			"buffer":0,
			"byteLength":45816,
			"byteOffset":0,
			"target":34962
		},
		{
			"buffer":0,
			"byteLength":45816,
			"byteOffset":45816,
			"target":34962
		},
		{
			"buffer":0,
			"byteLength":30544,
			"byteOffset":91632,
			"target":34962
		},
		{
			"buffer":0,
			"byteLength":61088,
			"byteOffset":122176,
			"target":34962
		},
		{
			"buffer":0,
			"byteLength":42048,
			"byteOffset":183264,
			"target":34963
		},
		{
			"buffer":0,
			"byteLength":1080,
			"byteOffset":225312,
			"target":34962
		},
		{
			"buffer":0,
			"byteLength":1080,
			"byteOffset":226392,
			"target":34962
		},
		{
			"buffer":0,
			"byteLength":720,
			"byteOffset":227472,
			"target":34962
		},
		{
			"buffer":0,
			"byteLength":1440,
			"byteOffset":228192,
			"target":34962
		},
		{
			"buffer":0,
			"byteLength":840,
			"byteOffset":229632,
			"target":34963
		},
		{
			"buffer":0,
			"byteLength":1080,
			"byteOffset":230472,
			"target":34962
		},
		{
			"buffer":0,
			"byteLength":1080,
			"byteOffset":231552,
			"target":34962
		},
		{
			"buffer":0,
			"byteLength":720,
			"byteOffset":232632,
			"target":34962
		},
		{
			"buffer":0,
			"byteLength":1440,
			"byteOffset":233352,
			"target":34962
		},
		{
			"buffer":0,
			"byteLength":3672,
			"byteOffset":234792,
			"target":34962
		},
		{
			"buffer":0,
			"byteLength":3672,
			"byteOffset":238464,
			"target":34962
		},
		{
			"buffer":0,
			"byteLength":2448,
			"byteOffset":242136,
			"target":34962
		},
		{
			"buffer":0,
			"byteLength":4896,
			"byteOffset":244584,
			"target":34962
		},
		{
			"buffer":0,
			"byteLength":2760,
			"byteOffset":249480,
			"target":34963
		},
		{
			"buffer":0,
			"byteLength":1836,
			"byteOffset":252240,
			"target":34962
		},
		{
			"buffer":0,
			"byteLength":1836,
			"byteOffset":254076,
			"target":34962
		},
		{
			"buffer":0,
			"byteLength":1224,
			"byteOffset":255912,
			"target":34962
		},
		{
			"buffer":0,
			"byteLength":2448,
			"byteOffset":257136,
			"target":34962
		},
		{
			"buffer":0,
			"byteLength":1536,
			"byteOffset":259584,
			"target":34963
		},
		{
			"buffer":0,
			"byteLength":3624,
			"byteOffset":261120,
			"target":34962
		},
		{
			"buffer":0,
			"byteLength":3624,
			"byteOffset":264744,
			"target":34962
		},
		{
			"buffer":0,
			"byteLength":2416,
			"byteOffset":268368,
			"target":34962
		},
		{
			"buffer":0,
			"byteLength":4832,
			"byteOffset":270784,
			"target":34962
		},
		{
			"buffer":0,
			"byteLength":2688,
			"byteOffset":275616,
			"target":34963
		},
		{
			"buffer":0,
			"byteLength":2472,
			"byteOffset":278304,
			"target":34962
		},
		{
			"buffer":0,
			"byteLength":2472,
			"byteOffset":280776,
			"target":34962
		},
		{
			"buffer":0,
			"byteLength":1648,
			"byteOffset":283248,
			"target":34962
		},
		{
			"buffer":0,
			"byteLength":3296,
			"byteOffset":284896,
			"target":34962
		},
		{
			"buffer":0,
			"byteLength":1680,
			"byteOffset":288192,
			"target":34963
		}
	],
	"samplers":[
		{
			"magFilter":9729,
			"minFilter":9987
		}
	],
	"buffers":[
		{
			"byteLength":289872,
			"uri":"fish_zander.bin"
		}
	]
}
