{
	"asset":{
		"generator":"Khronos glTF Blender I/O v4.4.56",
		"version":"2.0"
	},
	"extensionsUsed":[
		"KHR_materials_specular"
	],
	"scene":0,
	"scenes":[
		{
			"extras":{
				"revision":2
			},
			"name":"Scene",
			"nodes":[
				0
			]
		}
	],
	"nodes":[
		{
			"mesh":0,
			"name":"fish_catfish_cooked"
		}
	],
	"materials":[
		{
			"extensions":{
				"KHR_materials_specular":{
					"specularColorFactor":[
						1.2000000476837158,
						1.2000000476837158,
						1.2000000476837158
					]
				}
			},
			"name":"fish_catfish_cooked_skin",
			"normalTexture":{
				"index":0
			},
			"pbrMetallicRoughness":{
				"baseColorTexture":{
					"index":1
				},
				"metallicFactor":0,
				"roughnessFactor":0.550000011920929
			}
		},
		{
			"doubleSided":true,
			"name":"fish_catfish_cooked_dorsal",
			"normalTexture":{
				"index":2
			},
			"pbrMetallicRoughness":{
				"baseColorTexture":{
					"index":3
				},
				"metallicFactor":0,
				"roughnessFactor":0.6000000238418579
			}
		},
		{
			"doubleSided":true,
			"name":"fish_catfish_cooked_paired",
			"normalTexture":{
				"index":4
			},
			"pbrMetallicRoughness":{
				"baseColorTexture":{
					"index":5
				},
				"metallicFactor":0,
				"roughnessFactor":0.6000000238418579
			}
		},
		{
			"doubleSided":true,
			"name":"fish_catfish_cooked_caudal",
			"normalTexture":{
				"index":6
			},
			"pbrMetallicRoughness":{
				"baseColorTexture":{
					"index":7
				},
				"metallicFactor":0,
				"roughnessFactor":0.6000000238418579
			}
		},
		{
			"extensions":{
				"KHR_materials_specular":{
					"specularColorFactor":[
						1.7999999523162842,
						1.7999999523162842,
						1.7999999523162842
					]
				}
			},
			"name":"fish_catfish_cooked_iris",
			"pbrMetallicRoughness":{
				"baseColorFactor":[
					0.7105664610862732,
					0.6738595366477966,
					0.5704815983772278,
					1
				],
				"metallicFactor":0,
				"roughnessFactor":0.3499999940395355
			}
		},
		{
			"extensions":{
				"KHR_materials_specular":{
					"specularColorFactor":[
						2.0,
						2.0,
						2.0
					]
				}
			},
			"name":"fish_catfish_cooked_pupil",
			"pbrMetallicRoughness":{
				"baseColorFactor":[
					0.2632734179496765,
					0.24286681413650513,
					0.21404114365577698,
					1
				],
				"metallicFactor":0,
				"roughnessFactor":0.30000001192092896
			}
		},
		{
			"name":"fish_catfish_cooked_barbel",
			"pbrMetallicRoughness":{
				"baseColorFactor":[
					0.10048151016235352,
					0.03968190774321556,
					0.010022825561463833,
					1
				],
				"metallicFactor":0,
				"roughnessFactor":0.4000000059604645
			}
		}
	],
	"meshes":[
		{
			"name":"fish_catfish_cooked",
			"primitives":[
				{
					"attributes":{
						"POSITION":0,
						"NORMAL":1,
						"TEXCOORD_0":2,
						"TANGENT":3
					},
					"indices":4,
					"material":0
				},
				{
					"attributes":{
						"POSITION":5,
						"NORMAL":6,
						"TEXCOORD_0":7,
						"TANGENT":8
					},
					"indices":9,
					"material":1
				},
				{
					"attributes":{
						"POSITION":10,
						"NORMAL":11,
						"TEXCOORD_0":12,
						"TANGENT":13
					},
					"indices":14,
					"material":2
				},
				{
					"attributes":{
						"POSITION":15,
						"NORMAL":16,
						"TEXCOORD_0":17,
						"TANGENT":18
					},
					"indices":19,
					"material":3
				},
				{
					"attributes":{
						"POSITION":20,
						"NORMAL":21,
						"TEXCOORD_0":22,
						"TANGENT":23
					},
					"indices":24,
					"material":4
				},
				{
					"attributes":{
						"POSITION":25,
						"NORMAL":26,
						"TEXCOORD_0":27,
						"TANGENT":28
					},
					"indices":29,
					"material":5
				},
				{
					"attributes":{
						"POSITION":30,
						"NORMAL":31,
						"TEXCOORD_0":32,
						"TANGENT":33
					},
					"indices":34,
					"material":6
				}
			]
		}
	],
	"textures":[
		{
			"sampler":0,
			"source":0
		},
		{
			"sampler":0,
			"source":1
		},
		{
			"sampler":0,
			"source":2
		},
		{
			"sampler":0,
			"source":3
		},
		{
			"sampler":0,
			"source":4
		},
		{
			"sampler":0,
			"source":5
		},
		{
			"sampler":0,
			"source":6
		},
		{
			"sampler":0,
			"source":7
		}
	],
	"images":[
		{
			"mimeType":"image/jpeg",
			"name":"fish_catfish_body_nor",
			"uri":"textures/fish_catfish_body_nor.jpg"
		},
		{
			"mimeType":"image/jpeg",
			"name":"fish_catfish_cooked_body",
			"uri":"textures/fish_catfish_cooked_body.jpg"
		},
		{
			"mimeType":"image/jpeg",
			"name":"fish_catfish_dorsal_nor",
			"uri":"textures/fish_catfish_dorsal_nor.jpg"
		},
		{
			"mimeType":"image/jpeg",
			"name":"fish_catfish_cooked_dorsal",
			"uri":"textures/fish_catfish_cooked_dorsal.jpg"
		},
		{
			"mimeType":"image/jpeg",
			"name":"fish_catfish_paired_nor",
			"uri":"textures/fish_catfish_paired_nor.jpg"
		},
		{
			"mimeType":"image/jpeg",
			"name":"fish_catfish_cooked_paired",
			"uri":"textures/fish_catfish_cooked_paired.jpg"
		},
		{
			"mimeType":"image/jpeg",
			"name":"fish_catfish_caudal_nor",
			"uri":"textures/fish_catfish_caudal_nor.jpg"
		},
		{
			"mimeType":"image/jpeg",
			"name":"fish_catfish_cooked_caudal",
			"uri":"textures/fish_catfish_cooked_caudal.jpg"
		}
	],
	"accessors":[
		{
			"bufferView":0,
			"componentType":5126,
			"count":3818,
			"max":[
				0.5519999861717224,
				0.07284221798181534,
				0.07263052463531494
			],
			"min":[
				-0.4410000145435333,
				-0.08551043272018433,
				-0.11718270927667618
			],
			"type":"VEC3"
		},
		{
			"bufferView":1,
			"componentType":5126,
			"count":3818,
			"type":"VEC3"
		},
		{
			"bufferView":2,
			"componentType":5126,
			"count":3818,
			"type":"VEC2"
		},
		{
			"bufferView":3,
			"componentType":5126,
			"count":3818,
			"type":"VEC4"
		},
		{
			"bufferView":4,
			"componentType":5123,
			"count":21024,
			"type":"SCALAR"
		},
		{
			"bufferView":5,
			"componentType":5126,
			"count":90,
			"max":[
				0.2529999911785126,
				0.13893043994903564,
				-0.004393808543682098
			],
			"min":[
				0.19399599730968475,
				0.0677410215139389,
				-0.008592606522142887
			],
			"type":"VEC3"
		},
		{
			"bufferView":6,
			"componentType":5126,
			"count":90,
			"type":"VEC3"
		},
		{
			"bufferView":7,
			"componentType":5126,
			"count":90,
			"type":"VEC2"
		},
		{
			"bufferView":8,
			"componentType":5126,
			"count":90,
			"type":"VEC4"
		},
		{
			"bufferView":9,
			"componentType":5123,
			"count":420,
			"type":"SCALAR"
		},
		{
			"bufferView":10,
			"componentType":5126,
			"count":306,
			"max":[
				0.3718000054359436,
				-0.01971251331269741,
				0.10130810737609863
			],
			"min":[
				-0.41623997688293457,
				-0.11309444904327393,
				-0.12222162634134293
			],
			"type":"VEC3"
		},
		{
			"bufferView":11,
			"componentType":5126,
			"count":306,
			"type":"VEC3"
		},
		{
			"bufferView":12,
			"componentType":5126,
			"count":306,
			"type":"VEC2"
		},
		{
			"bufferView":13,
			"componentType":5126,
			"count":306,
			"type":"VEC4"
		},
		{
			"bufferView":14,
			"componentType":5123,
			"count":1380,
			"type":"SCALAR"
		},
		{
			"bufferView":15,
			"componentType":5126,
			"count":153,
			"max":[
				-0.43560001254081726,
				0.15839999914169312,
				-0.024149665609002113
			],
			"min":[
				-0.550000011920929,
				-0.15839999914169312,
				-0.03850000351667404
			],
			"type":"VEC3"
		},
		{
			"bufferView":16,
			"componentType":5126,
			"count":153,
			"type":"VEC3"
		},
		{
			"bufferView":17,
			"componentType":5126,
			"count":153,
			"type":"VEC2"
		},
		{
			"bufferView":18,
			"componentType":5126,
			"count":153,
			"type":"VEC4"
		},
		{
			"bufferView":19,
			"componentType":5123,
			"count":768,
			"type":"SCALAR"
		},
		{
			"bufferView":20,
			"componentType":5126,
			"count":302,
			"max":[
				0.4885566234588623,
				0.027431197464466095,
				0.04845774546265602
			],
			"min":[
				0.47284334897994995,
				0.011758491396903992,
				-0.10727816075086594
			],
			"type":"VEC3"
		},
		{
			"bufferView":21,
			"componentType":5126,
			"count":302,
			"type":"VEC3"
		},
		{
			"bufferView":22,
			"componentType":5126,
			"count":302,
			"type":"VEC2"
		},
		{
			"bufferView":23,
			"componentType":5126,
			"count":302,
			"type":"VEC4"
		},
		{
			"bufferView":24,
			"componentType":5123,
			"count":1344,
			"type":"SCALAR"
		},
		{
			"bufferView":25,
			"componentType":5126,
			"count":206,
			"max":[
				0.4857282340526581,
				0.024540789425373077,
				0.048600200563669205
			],
			"min":[
				0.4756717383861542,
				0.014761742204427719,
				-0.10741864889860153
			],
			"type":"VEC3"
		},
		{
			"bufferView":26,
			"componentType":5126,
			"count":206,
			"type":"VEC3"
		},
		{
			"bufferView":27,
			"componentType":5126,
			"count":206,
			"type":"VEC2"
		},
		{
			"bufferView":28,
			"componentType":5126,
			"count":206,
			"type":"VEC4"
		},
		{
			"bufferView":29,
			"componentType":5123,
			"count":840,
			"type":"SCALAR"
		},
		{
			"bufferView":30,
			"componentType":5126,
			"count":294,
			"max":[
				0.5333188772201538,
				0.002865780843421817,
				0.17238745093345642
			],
			"min":[
				0.42937734723091125,
				-0.158774271607399,
				-0.2194518744945526
			],
			"type":"VEC3"
		},
		{
			"bufferView":31,
			"componentType":5126,
			"count":294,
			"type":"VEC3"
		},
		{
			"bufferView":32,
			"componentType":5126,
			"count":294,
			"type":"VEC2"
		},
		{
			"bufferView":33,
			"componentType":5126,
			"count":294,
			"type":"VEC4"
		},
		{
			"bufferView":34,
			"componentType":5123,
			"count":1620,
			"type":"SCALAR"
		}
	],
	"bufferViews":[
		{
			"buffer":0,
			"byteLength":45816,
			"byteOffset":0,
			"target":34962
		},
		{
			"buffer":0,
			"byteLength":45816,
			"byteOffset":45816,
			"target":34962
		},
		{
			"buffer":0,
			"byteLength":30544,
			"byteOffset":91632,
			"target":34962
		},
		{
			"buffer":0,
			"byteLength":61088,
			"byteOffset":122176,
			"target":34962
		},
		{
			"buffer":0,
			"byteLength":42048,
			"byteOffset":183264,
			"target":34963
		},
		{
			"buffer":0,
			"byteLength":1080,
			"byteOffset":225312,
			"target":34962
		},
		{
			"buffer":0,
			"byteLength":1080,
			"byteOffset":226392,
			"target":34962
		},
		{
			"buffer":0,
			"byteLength":720,
			"byteOffset":227472,
			"target":34962
		},
		{
			"buffer":0,
			"byteLength":1440,
			"byteOffset":228192,
			"target":34962
		},
		{
			"buffer":0,
			"byteLength":840,
			"byteOffset":229632,
			"target":34963
		},
		{
			"buffer":0,
			"byteLength":3672,
			"byteOffset":230472,
			"target":34962
		},
		{
			"buffer":0,
			"byteLength":3672,
			"byteOffset":234144,
			"target":34962
		},
		{
			"buffer":0,
			"byteLength":2448,
			"byteOffset":237816,
			"target":34962
		},
		{
			"buffer":0,
			"byteLength":4896,
			"byteOffset":240264,
			"target":34962
		},
		{
			"buffer":0,
			"byteLength":2760,
			"byteOffset":245160,
			"target":34963
		},
		{
			"buffer":0,
			"byteLength":1836,
			"byteOffset":247920,
			"target":34962
		},
		{
			"buffer":0,
			"byteLength":1836,
			"byteOffset":249756,
			"target":34962
		},
		{
			"buffer":0,
			"byteLength":1224,
			"byteOffset":251592,
			"target":34962
		},
		{
			"buffer":0,
			"byteLength":2448,
			"byteOffset":252816,
			"target":34962
		},
		{
			"buffer":0,
			"byteLength":1536,
			"byteOffset":255264,
			"target":34963
		},
		{
			"buffer":0,
			"byteLength":3624,
			"byteOffset":256800,
			"target":34962
		},
		{
			"buffer":0,
			"byteLength":3624,
			"byteOffset":260424,
			"target":34962
		},
		{
			"buffer":0,
			"byteLength":2416,
			"byteOffset":264048,
			"target":34962
		},
		{
			"buffer":0,
			"byteLength":4832,
			"byteOffset":266464,
			"target":34962
		},
		{
			"buffer":0,
			"byteLength":2688,
			"byteOffset":271296,
			"target":34963
		},
		{
			"buffer":0,
			"byteLength":2472,
			"byteOffset":273984,
			"target":34962
		},
		{
			"buffer":0,
			"byteLength":2472,
			"byteOffset":276456,
			"target":34962
		},
		{
			"buffer":0,
			"byteLength":1648,
			"byteOffset":278928,
			"target":34962
		},
		{
			"buffer":0,
			"byteLength":3296,
			"byteOffset":280576,
			"target":34962
		},
		{
			"buffer":0,
			"byteLength":1680,
			"byteOffset":283872,
			"target":34963
		},
		{
			"buffer":0,
			"byteLength":3528,
			"byteOffset":285552,
			"target":34962
		},
		{
			"buffer":0,
			"byteLength":3528,
			"byteOffset":289080,
			"target":34962
		},
		{
			"buffer":0,
			"byteLength":2352,
			"byteOffset":292608,
			"target":34962
		},
		{
			"buffer":0,
			"byteLength":4704,
			"byteOffset":294960,
			"target":34962
		},
		{
			"buffer":0,
			"byteLength":3240,
			"byteOffset":299664,
			"target":34963
		}
	],
	"samplers":[
		{
			"magFilter":9729,
			"minFilter":9987
		}
	],
	"buffers":[
		{
			"byteLength":302904,
			"uri":"fish_catfish_cooked.bin"
		}
	]
}
