{
	"asset":{
		"generator":"Khronos glTF Blender I/O v4.4.56",
		"version":"2.0"
	},
	"extensionsUsed":[
		"KHR_materials_clearcoat",
		"KHR_materials_specular"
	],
	"scene":0,
	"scenes":[
		{
			"extras":{
				"revision":2
			},
			"name":"Scene",
			"nodes":[
				0
			]
		}
	],
	"nodes":[
		{
			"mesh":0,
			"name":"fish_brown_trout"
		}
	],
	"materials":[
		{
			"extensions":{
				"KHR_materials_clearcoat":{
					"clearcoatFactor":0.3499999940395355
				},
				"KHR_materials_specular":{
					"specularColorFactor":[
						1.2000000476837158,
						1.2000000476837158,
						1.2000000476837158
					]
				}
			},
			"name":"fish_brown_trout_skin",
			"normalTexture":{
				"index":0
			},
			"pbrMetallicRoughness":{
				"baseColorTexture":{
					"index":1
				},
				"metallicFactor":0,
				"roughnessFactor":0.30000001192092896
			}
		},
		{
			"doubleSided":true,
			"name":"fish_brown_trout_dorsal",
			"normalTexture":{
				"index":2
			},
			"pbrMetallicRoughness":{
				"baseColorTexture":{
					"index":3
				},
				"metallicFactor":0,
				"roughnessFactor":0.3499999940395355
			}
		},
		{
			"doubleSided":true,
			"name":"fish_brown_trout_paired",
			"normalTexture":{
				"index":4
			},
			"pbrMetallicRoughness":{
				"baseColorTexture":{
					"index":5
				},
				"metallicFactor":0,
				"roughnessFactor":0.3499999940395355
			}
		},
		{
			"doubleSided":true,
			"extensions":{
				"KHR_materials_clearcoat":{
					"clearcoatFactor":0.3499999940395355
				},
				"KHR_materials_specular":{
					"specularColorFactor":[
						1.2000000476837158,
						1.2000000476837158,
						1.2000000476837158
					]
				}
			},
			"name":"fish_brown_trout_adipose",
			"normalTexture":{
				"index":6
			},
			"pbrMetallicRoughness":{
				"baseColorTexture":{
					"index":7
				},
				"metallicFactor":0,
				"roughnessFactor":0.30000001192092896
			}
		},
		{
			"doubleSided":true,
			"name":"fish_brown_trout_caudal",
			"normalTexture":{
				"index":8
			},
			"pbrMetallicRoughness":{
				"baseColorTexture":{
					"index":9
				},
				"metallicFactor":0,
				"roughnessFactor":0.3499999940395355
			}
		},
		{
			"extensions":{
				"KHR_materials_specular":{
					"specularColorFactor":[
						1.7999999523162842,
						1.7999999523162842,
						1.7999999523162842
					]
				}
			},
			"name":"fish_brown_trout_iris",
			"pbrMetallicRoughness":{
				"baseColorFactor":[
					0.6738595366477966,
					0.4479884207248688,
					0.10653922706842422,
					1
				],
				"metallicFactor":0,
				"roughnessFactor":0.07999999821186066
			}
		},
		{
			"extensions":{
				"KHR_materials_specular":{
					"specularColorFactor":[
						2.0,
						2.0,
						2.0
					]
				}
			},
			"name":"fish_brown_trout_pupil",
			"pbrMetallicRoughness":{
				"baseColorFactor":[
					0.0007739937864243984,
					0.0007739937864243984,
					0.0009287925786338747,
					1
				],
				"metallicFactor":0,
				"roughnessFactor":0.029999999329447746
			}
		}
	],
	"meshes":[
		{
			"name":"fish_brown_trout",
			"primitives":[
				{
					"attributes":{
						"POSITION":0,
						"NORMAL":1,
						"TEXCOORD_0":2,
						"TANGENT":3
					},
					"indices":4,
					"material":0
				},
				{
					"attributes":{
						"POSITION":5,
						"NORMAL":6,
						"TEXCOORD_0":7,
						"TANGENT":8
					},
					"indices":9,
					"material":1
				},
				{
					"attributes":{
						"POSITION":10,
						"NORMAL":11,
						"TEXCOORD_0":12,
						"TANGENT":13
					},
					"indices":14,
					"material":2
				},
				{
					"attributes":{
						"POSITION":15,
						"NORMAL":16,
						"TEXCOORD_0":17,
						"TANGENT":18
					},
					"indices":19,
					"material":3
				},
				{
					"attributes":{
						"POSITION":20,
						"NORMAL":21,
						"TEXCOORD_0":22,
						"TANGENT":23
					},
					"indices":24,
					"material":4
				},
				{
					"attributes":{
						"POSITION":25,
						"NORMAL":26,
						"TEXCOORD_0":27,
						"TANGENT":28
					},
					"indices":29,
					"material":5
				},
				{
					"attributes":{
						"POSITION":30,
						"NORMAL":31,
						"TEXCOORD_0":32,
						"TANGENT":33
					},
					"indices":34,
					"material":6
				}
			]
		}
	],
	"textures":[
		{
			"sampler":0,
			"source":0
		},
		{
			"sampler":0,
			"source":1
		},
		{
			"sampler":0,
			"source":2
		},
		{
			"sampler":0,
			"source":3
		},
		{
			"sampler":0,
			"source":4
		},
		{
			"sampler":0,
			"source":5
		},
		{
			"sampler":0,
			"source":0
		},
		{
			"sampler":0,
			"source":1
		},
		{
			"sampler":0,
			"source":6
		},
		{
			"sampler":0,
			"source":7
		}
	],
	"images":[
		{
			"mimeType":"image/jpeg",
			"name":"fish_brown_trout_body_nor",
			"uri":"textures/fish_brown_trout_body_nor.jpg"
		},
		{
			"mimeType":"image/jpeg",
			"name":"fish_brown_trout_body",
			"uri":"textures/fish_brown_trout_body.jpg"
		},
		{
			"mimeType":"image/jpeg",
			"name":"fish_brown_trout_dorsal_nor",
			"uri":"textures/fish_brown_trout_dorsal_nor.jpg"
		},
		{
			"mimeType":"image/jpeg",
			"name":"fish_brown_trout_dorsal",
			"uri":"textures/fish_brown_trout_dorsal.jpg"
		},
		{
			"mimeType":"image/jpeg",
			"name":"fish_brown_trout_paired_nor",
			"uri":"textures/fish_brown_trout_paired_nor.jpg"
		},
		{
			"mimeType":"image/jpeg",
			"name":"fish_brown_trout_paired",
			"uri":"textures/fish_brown_trout_paired.jpg"
		},
		{
			"mimeType":"image/jpeg",
			"name":"fish_brown_trout_caudal_nor",
			"uri":"textures/fish_brown_trout_caudal_nor.jpg"
		},
		{
			"mimeType":"image/jpeg",
			"name":"fish_brown_trout_caudal",
			"uri":"textures/fish_brown_trout_caudal.jpg"
		}
	],
	"accessors":[
		{
			"bufferView":0,
			"componentType":5126,
			"count":3818,
			"max":[
				0.21199999749660492,
				0.04351197928190231,
				0.021411554887890816
			],
			"min":[
				-0.14800000190734863,
				-0.0385860949754715,
				-0.021411554887890816
			],
			"type":"VEC3"
		},
		{
			"bufferView":1,
			"componentType":5126,
			"count":3818,
			"type":"VEC3"
		},
		{
			"bufferView":2,
			"componentType":5126,
			"count":3818,
			"type":"VEC2"
		},
		{
			"bufferView":3,
			"componentType":5126,
			"count":3818,
			"type":"VEC4"
		},
		{
			"bufferView":4,
			"componentType":5123,
			"count":21024,
			"type":"SCALAR"
		},
		{
			"bufferView":5,
			"componentType":5126,
			"count":90,
			"max":[
				0.06005999818444252,
				0.09473653137683868,
				0.000896130979526788
			],
			"min":[
				0.006465374957770109,
				0.037991173565387726,
				-0.000925596512388438
			],
			"type":"VEC3"
		},
		{
			"bufferView":6,
			"componentType":5126,
			"count":90,
			"type":"VEC3"
		},
		{
			"bufferView":7,
			"componentType":5126,
			"count":90,
			"type":"VEC2"
		},
		{
			"bufferView":8,
			"componentType":5126,
			"count":90,
			"type":"VEC4"
		},
		{
			"bufferView":9,
			"componentType":5123,
			"count":420,
			"type":"SCALAR"
		},
		{
			"bufferView":10,
			"componentType":5126,
			"count":306,
			"max":[
				0.13145999610424042,
				-0.016778845340013504,
				0.03295639902353287
			],
			"min":[
				-0.08134769648313522,
				-0.06756461411714554,
				-0.03295639902353287
			],
			"type":"VEC3"
		},
		{
			"bufferView":11,
			"componentType":5126,
			"count":306,
			"type":"VEC3"
		},
		{
			"bufferView":12,
			"componentType":5126,
			"count":306,
			"type":"VEC2"
		},
		{
			"bufferView":13,
			"componentType":5126,
			"count":306,
			"type":"VEC4"
		},
		{
			"bufferView":14,
			"componentType":5123,
			"count":1380,
			"type":"SCALAR"
		},
		{
			"bufferView":15,
			"componentType":5126,
			"count":28,
			"max":[
				-0.07559999823570251,
				0.03527705371379852,
				0.0002896699297707528
			],
			"min":[
				-0.10352311283349991,
				0.01556924544274807,
				-0.00018320979143027216
			],
			"type":"VEC3"
		},
		{
			"bufferView":16,
			"componentType":5126,
			"count":28,
			"type":"VEC3"
		},
		{
			"bufferView":17,
			"componentType":5126,
			"count":28,
			"type":"VEC2"
		},
		{
			"bufferView":18,
			"componentType":5126,
			"count":28,
			"type":"VEC4"
		},
		{
			"bufferView":19,
			"componentType":5123,
			"count":108,
			"type":"SCALAR"
		},
		{
			"bufferView":20,
			"componentType":5126,
			"count":153,
			"max":[
				-0.14531999826431274,
				0.07853999733924866,
				0.0007439531618729234
			],
			"min":[
				-0.20748981833457947,
				-0.07853999733924866,
				-0.0007519514765590429
			],
			"type":"VEC3"
		},
		{
			"bufferView":21,
			"componentType":5126,
			"count":153,
			"type":"VEC3"
		},
		{
			"bufferView":22,
			"componentType":5126,
			"count":153,
			"type":"VEC2"
		},
		{
			"bufferView":23,
			"componentType":5126,
			"count":153,
			"type":"VEC4"
		},
		{
			"bufferView":24,
			"componentType":5123,
			"count":768,
			"type":"SCALAR"
		},
		{
			"bufferView":25,
			"componentType":5126,
			"count":302,
			"max":[
				0.18983663618564606,
				0.01999502442777157,
				0.014343485236167908
			],
			"min":[
				0.16947336494922638,
				-0.0003266790881752968,
				-0.014343485236167908
			],
			"type":"VEC3"
		},
		{
			"bufferView":26,
			"componentType":5126,
			"count":302,
			"type":"VEC3"
		},
		{
			"bufferView":27,
			"componentType":5126,
			"count":302,
			"type":"VEC2"
		},
		{
			"bufferView":28,
			"componentType":5126,
			"count":302,
			"type":"VEC4"
		},
		{
			"bufferView":29,
			"componentType":5123,
			"count":1344,
			"type":"SCALAR"
		},
		{
			"bufferView":30,
			"componentType":5126,
			"count":206,
			"max":[
				0.1861712485551834,
				0.0162391047924757,
				0.01474991999566555
			],
			"min":[
				0.17313875257968903,
				0.0035592997446656227,
				-0.01474991999566555
			],
			"type":"VEC3"
		},
		{
			"bufferView":31,
			"componentType":5126,
			"count":206,
			"type":"VEC3"
		},
		{
			"bufferView":32,
			"componentType":5126,
			"count":206,
			"type":"VEC2"
		},
		{
			"bufferView":33,
			"componentType":5126,
			"count":206,
			"type":"VEC4"
		},
		{
			"bufferView":34,
			"componentType":5123,
			"count":840,
			"type":"SCALAR"
		}
	],
	"bufferViews":[
		{
			"buffer":0,
			"byteLength":45816,
			"byteOffset":0,
			"target":34962
		},
		{
			"buffer":0,
			"byteLength":45816,
			"byteOffset":45816,
			"target":34962
		},
		{
			"buffer":0,
			"byteLength":30544,
			"byteOffset":91632,
			"target":34962
		},
		{
			"buffer":0,
			"byteLength":61088,
			"byteOffset":122176,
			"target":34962
		},
		{
			"buffer":0,
			"byteLength":42048,
			"byteOffset":183264,
			"target":34963
		},
		{
			"buffer":0,
			"byteLength":1080,
			"byteOffset":225312,
			"target":34962
		},
		{
			"buffer":0,
			"byteLength":1080,
			"byteOffset":226392,
			"target":34962
		},
		{
			"buffer":0,
			"byteLength":720,
			"byteOffset":227472,
			"target":34962
		},
		{
			"buffer":0,
			"byteLength":1440,
			"byteOffset":228192,
			"target":34962
		},
		{
			"buffer":0,
			"byteLength":840,
			"byteOffset":229632,
			"target":34963
		},
		{
			"buffer":0,
			"byteLength":3672,
			"byteOffset":230472,
			"target":34962
		},
		{
			"buffer":0,
			"byteLength":3672,
			"byteOffset":234144,
			"target":34962
		},
		{
			"buffer":0,
			"byteLength":2448,
			"byteOffset":237816,
			"target":34962
		},
		{
			"buffer":0,
			"byteLength":4896,
			"byteOffset":240264,
			"target":34962
		},
		{
			"buffer":0,
			"byteLength":2760,
			"byteOffset":245160,
			"target":34963
		},
		{
			"buffer":0,
			"byteLength":336,
			"byteOffset":247920,
			"target":34962
		},
		{
			"buffer":0,
			"byteLength":336,
			"byteOffset":248256,
			"target":34962
		},
		{
			"buffer":0,
			"byteLength":224,
			"byteOffset":248592,
			"target":34962
		},
		{
			"buffer":0,
			"byteLength":448,
			"byteOffset":248816,
			"target":34962
		},
		{
			"buffer":0,
			"byteLength":216,
			"byteOffset":249264,
			"target":34963
		},
		{
			"buffer":0,
			"byteLength":1836,
			"byteOffset":249480,
			"target":34962
		},
		{
			"buffer":0,
			"byteLength":1836,
			"byteOffset":251316,
			"target":34962
		},
		{
			"buffer":0,
			"byteLength":1224,
			"byteOffset":253152,
			"target":34962
		},
		{
			"buffer":0,
			"byteLength":2448,
			"byteOffset":254376,
			"target":34962
		},
		{
			"buffer":0,
			"byteLength":1536,
			"byteOffset":256824,
			"target":34963
		},
		{
			"buffer":0,
			"byteLength":3624,
			"byteOffset":258360,
			"target":34962
		},
		{
			"buffer":0,
			"byteLength":3624,
			"byteOffset":261984,
			"target":34962
		},
		{
			"buffer":0,
			"byteLength":2416,
			"byteOffset":265608,
			"target":34962
		},
		{
			"buffer":0,
			"byteLength":4832,
			"byteOffset":268024,
			"target":34962
		},
		{
			"buffer":0,
			"byteLength":2688,
			"byteOffset":272856,
			"target":34963
		},
		{
			"buffer":0,
			"byteLength":2472,
			"byteOffset":275544,
			"target":34962
		},
		{
			"buffer":0,
			"byteLength":2472,
			"byteOffset":278016,
			"target":34962
		},
		{
			"buffer":0,
			"byteLength":1648,
			"byteOffset":280488,
			"target":34962
		},
		{
			"buffer":0,
			"byteLength":3296,
			"byteOffset":282136,
			"target":34962
		},
		{
			"buffer":0,
			"byteLength":1680,
			"byteOffset":285432,
			"target":34963
		}
	],
	"samplers":[
		{
			"magFilter":9729,
			"minFilter":9987
		}
	],
	"buffers":[
		{
			"byteLength":287112,
			"uri":"fish_brown_trout.bin"
		}
	]
}
