{
	"asset":{
		"generator":"Khronos glTF Blender I/O v4.4.56",
		"version":"2.0"
	},
	"extensionsUsed":[
		"KHR_materials_specular"
	],
	"scene":0,
	"scenes":[
		{
			"name":"Scene",
			"nodes":[
				0
			]
		}
	],
	"nodes":[
		{
			"mesh":0,
			"name":"fish_trout_cooked"
		}
	],
	"materials":[
		{
			"extensions":{
				"KHR_materials_specular":{
					"specularColorFactor":[
						1.2000000476837158,
						1.2000000476837158,
						1.2000000476837158
					]
				}
			},
			"name":"fish_trout_cooked_skin",
			"normalTexture":{
				"index":0
			},
			"pbrMetallicRoughness":{
				"baseColorTexture":{
					"index":1
				},
				"metallicFactor":0,
				"roughnessFactor":0.550000011920929
			}
		},
		{
			"doubleSided":true,
			"name":"fish_trout_cooked_dorsal",
			"normalTexture":{
				"index":2
			},
			"pbrMetallicRoughness":{
				"baseColorTexture":{
					"index":3
				},
				"metallicFactor":0,
				"roughnessFactor":0.6000000238418579
			}
		},
		{
			"doubleSided":true,
			"name":"fish_trout_cooked_paired",
			"normalTexture":{
				"index":4
			},
			"pbrMetallicRoughness":{
				"baseColorTexture":{
					"index":5
				},
				"metallicFactor":0,
				"roughnessFactor":0.6000000238418579
			}
		},
		{
			"doubleSided":true,
			"name":"fish_trout_cooked_caudal",
			"normalTexture":{
				"index":6
			},
			"pbrMetallicRoughness":{
				"baseColorTexture":{
					"index":7
				},
				"metallicFactor":0,
				"roughnessFactor":0.6000000238418579
			}
		},
		{
			"extensions":{
				"KHR_materials_specular":{
					"specularColorFactor":[
						1.7999999523162842,
						1.7999999523162842,
						1.7999999523162842
					]
				}
			},
			"name":"fish_trout_cooked_iris",
			"pbrMetallicRoughness":{
				"baseColorFactor":[
					0.7105664610862732,
					0.6738595366477966,
					0.5704815983772278,
					1
				],
				"metallicFactor":0,
				"roughnessFactor":0.3499999940395355
			}
		},
		{
			"extensions":{
				"KHR_materials_specular":{
					"specularColorFactor":[
						2.0,
						2.0,
						2.0
					]
				}
			},
			"name":"fish_trout_cooked_pupil",
			"pbrMetallicRoughness":{
				"baseColorFactor":[
					0.2632734179496765,
					0.24286681413650513,
					0.21404114365577698,
					1
				],
				"metallicFactor":0,
				"roughnessFactor":0.30000001192092896
			}
		}
	],
	"meshes":[
		{
			"name":"fish_trout_cooked",
			"primitives":[
				{
					"attributes":{
						"POSITION":0,
						"NORMAL":1,
						"TEXCOORD_0":2,
						"TANGENT":3
					},
					"indices":4,
					"material":0
				},
				{
					"attributes":{
						"POSITION":5,
						"NORMAL":6,
						"TEXCOORD_0":7,
						"TANGENT":8
					},
					"indices":9,
					"material":1
				},
				{
					"attributes":{
						"POSITION":10,
						"NORMAL":11,
						"TEXCOORD_0":12,
						"TANGENT":13
					},
					"indices":14,
					"material":2
				},
				{
					"attributes":{
						"POSITION":15,
						"NORMAL":16,
						"TEXCOORD_0":17,
						"TANGENT":18
					},
					"indices":19,
					"material":3
				},
				{
					"attributes":{
						"POSITION":20,
						"NORMAL":21,
						"TEXCOORD_0":22,
						"TANGENT":23
					},
					"indices":24,
					"material":4
				},
				{
					"attributes":{
						"POSITION":25,
						"NORMAL":26,
						"TEXCOORD_0":27,
						"TANGENT":28
					},
					"indices":29,
					"material":5
				}
			]
		}
	],
	"textures":[
		{
			"sampler":0,
			"source":0
		},
		{
			"sampler":0,
			"source":1
		},
		{
			"sampler":0,
			"source":2
		},
		{
			"sampler":0,
			"source":3
		},
		{
			"sampler":0,
			"source":4
		},
		{
			"sampler":0,
			"source":5
		},
		{
			"sampler":0,
			"source":6
		},
		{
			"sampler":0,
			"source":7
		}
	],
	"images":[
		{
			"mimeType":"image/jpeg",
			"name":"fish_trout_body_nor",
			"uri":"textures/fish_trout_body_nor.jpg"
		},
		{
			"mimeType":"image/jpeg",
			"name":"fish_trout_cooked_body",
			"uri":"textures/fish_trout_cooked_body.jpg"
		},
		{
			"mimeType":"image/jpeg",
			"name":"fish_trout_dorsal_nor",
			"uri":"textures/fish_trout_dorsal_nor.jpg"
		},
		{
			"mimeType":"image/jpeg",
			"name":"fish_trout_cooked_dorsal",
			"uri":"textures/fish_trout_cooked_dorsal.jpg"
		},
		{
			"mimeType":"image/jpeg",
			"name":"fish_trout_paired_nor",
			"uri":"textures/fish_trout_paired_nor.jpg"
		},
		{
			"mimeType":"image/jpeg",
			"name":"fish_trout_cooked_paired",
			"uri":"textures/fish_trout_cooked_paired.jpg"
		},
		{
			"mimeType":"image/jpeg",
			"name":"fish_trout_caudal_nor",
			"uri":"textures/fish_trout_caudal_nor.jpg"
		},
		{
			"mimeType":"image/jpeg",
			"name":"fish_trout_cooked_caudal",
			"uri":"textures/fish_trout_cooked_caudal.jpg"
		}
	],
	"accessors":[
		{
			"bufferView":0,
			"componentType":5126,
			"count":3846,
			"max":[
				0.20200000703334808,
				0.041439980268478394,
				0.018702596426010132
			],
			"min":[
				-0.14100000262260437,
				-0.03674866259098053,
				-0.024744175374507904
			],
			"type":"VEC3"
		},
		{
			"bufferView":1,
			"componentType":5126,
			"count":3846,
			"type":"VEC3"
		},
		{
			"bufferView":2,
			"componentType":5126,
			"count":3846,
			"type":"VEC2"
		},
		{
			"bufferView":3,
			"componentType":5126,
			"count":3846,
			"type":"VEC4"
		},
		{
			"bufferView":4,
			"componentType":5123,
			"count":21132,
			"type":"SCALAR"
		},
		{
			"bufferView":5,
			"componentType":5126,
			"count":90,
			"max":[
				0.05719999969005585,
				0.09022296220064163,
				0.00041920639341697097
			],
			"min":[
				0.0061575002036988735,
				0.036074306815862656,
				-0.001671212143264711
			],
			"type":"VEC3"
		},
		{
			"bufferView":6,
			"componentType":5126,
			"count":90,
			"type":"VEC3"
		},
		{
			"bufferView":7,
			"componentType":5126,
			"count":90,
			"type":"VEC2"
		},
		{
			"bufferView":8,
			"componentType":5126,
			"count":90,
			"type":"VEC4"
		},
		{
			"bufferView":9,
			"componentType":5123,
			"count":420,
			"type":"SCALAR"
		},
		{
			"bufferView":10,
			"componentType":5126,
			"count":306,
			"max":[
				0.12520000338554382,
				-0.015415905974805355,
				0.028399638831615448
			],
			"min":[
				-0.07747399806976318,
				-0.06394635140895844,
				-0.03437444567680359
			],
			"type":"VEC3"
		},
		{
			"bufferView":11,
			"componentType":5126,
			"count":306,
			"type":"VEC3"
		},
		{
			"bufferView":12,
			"componentType":5126,
			"count":306,
			"type":"VEC2"
		},
		{
			"bufferView":13,
			"componentType":5126,
			"count":306,
			"type":"VEC4"
		},
		{
			"bufferView":14,
			"componentType":5123,
			"count":1380,
			"type":"SCALAR"
		},
		{
			"bufferView":15,
			"componentType":5126,
			"count":153,
			"max":[
				-0.13840000331401825,
				0.07479999959468842,
				-0.006704096216708422
			],
			"min":[
				-0.19453904032707214,
				-0.07479999959468842,
				-0.013245902955532074
			],
			"type":"VEC3"
		},
		{
			"bufferView":16,
			"componentType":5126,
			"count":153,
			"type":"VEC3"
		},
		{
			"bufferView":17,
			"componentType":5126,
			"count":153,
			"type":"VEC2"
		},
		{
			"bufferView":18,
			"componentType":5126,
			"count":153,
			"type":"VEC4"
		},
		{
			"bufferView":19,
			"componentType":5123,
			"count":768,
			"type":"SCALAR"
		},
		{
			"bufferView":20,
			"componentType":5126,
			"count":302,
			"max":[
				0.1807968020439148,
				0.01857619546353817,
				0.0037168615963310003
			],
			"min":[
				0.16140320897102356,
				-0.0007825912907719612,
				-0.024217737838625908
			],
			"type":"VEC3"
		},
		{
			"bufferView":21,
			"componentType":5126,
			"count":302,
			"type":"VEC3"
		},
		{
			"bufferView":22,
			"componentType":5126,
			"count":302,
			"type":"VEC2"
		},
		{
			"bufferView":23,
			"componentType":5126,
			"count":302,
			"type":"VEC4"
		},
		{
			"bufferView":24,
			"componentType":5123,
			"count":1344,
			"type":"SCALAR"
		},
		{
			"bufferView":25,
			"componentType":5126,
			"count":206,
			"max":[
				0.17730595171451569,
				0.014994371682405472,
				0.00392194464802742
			],
			"min":[
				0.16489405930042267,
				0.002915383782237768,
				-0.02441459335386753
			],
			"type":"VEC3"
		},
		{
			"bufferView":26,
			"componentType":5126,
			"count":206,
			"type":"VEC3"
		},
		{
			"bufferView":27,
			"componentType":5126,
			"count":206,
			"type":"VEC2"
		},
		{
			"bufferView":28,
			"componentType":5126,
			"count":206,
			"type":"VEC4"
		},
		{
			"bufferView":29,
			"componentType":5123,
			"count":840,
			"type":"SCALAR"
		}
	],
	"bufferViews":[
		{
			"buffer":0,
			"byteLength":46152,
			"byteOffset":0,
			"target":34962
		},
		{
			"buffer":0,
			"byteLength":46152,
			"byteOffset":46152,
			"target":34962
		},
		{
			"buffer":0,
			"byteLength":30768,
			"byteOffset":92304,
			"target":34962
		},
		{
			"buffer":0,
			"byteLength":61536,
			"byteOffset":123072,
			"target":34962
		},
		{
			"buffer":0,
			"byteLength":42264,
			"byteOffset":184608,
			"target":34963
		},
		{
			"buffer":0,
			"byteLength":1080,
			"byteOffset":226872,
			"target":34962
		},
		{
			"buffer":0,
			"byteLength":1080,
			"byteOffset":227952,
			"target":34962
		},
		{
			"buffer":0,
			"byteLength":720,
			"byteOffset":229032,
			"target":34962
		},
		{
			"buffer":0,
			"byteLength":1440,
			"byteOffset":229752,
			"target":34962
		},
		{
			"buffer":0,
			"byteLength":840,
			"byteOffset":231192,
			"target":34963
		},
		{
			"buffer":0,
			"byteLength":3672,
			"byteOffset":232032,
			"target":34962
		},
		{
			"buffer":0,
			"byteLength":3672,
			"byteOffset":235704,
			"target":34962
		},
		{
			"buffer":0,
			"byteLength":2448,
			"byteOffset":239376,
			"target":34962
		},
		{
			"buffer":0,
			"byteLength":4896,
			"byteOffset":241824,
			"target":34962
		},
		{
			"buffer":0,
			"byteLength":2760,
			"byteOffset":246720,
			"target":34963
		},
		{
			"buffer":0,
			"byteLength":1836,
			"byteOffset":249480,
			"target":34962
		},
		{
			"buffer":0,
			"byteLength":1836,
			"byteOffset":251316,
			"target":34962
		},
		{
			"buffer":0,
			"byteLength":1224,
			"byteOffset":253152,
			"target":34962
		},
		{
			"buffer":0,
			"byteLength":2448,
			"byteOffset":254376,
			"target":34962
		},
		{
			"buffer":0,
			"byteLength":1536,
			"byteOffset":256824,
			"target":34963
		},
		{
			"buffer":0,
			"byteLength":3624,
			"byteOffset":258360,
			"target":34962
		},
		{
			"buffer":0,
			"byteLength":3624,
			"byteOffset":261984,
			"target":34962
		},
		{
			"buffer":0,
			"byteLength":2416,
			"byteOffset":265608,
			"target":34962
		},
		{
			"buffer":0,
			"byteLength":4832,
			"byteOffset":268024,
			"target":34962
		},
		{
			"buffer":0,
			"byteLength":2688,
			"byteOffset":272856,
			"target":34963
		},
		{
			"buffer":0,
			"byteLength":2472,
			"byteOffset":275544,
			"target":34962
		},
		{
			"buffer":0,
			"byteLength":2472,
			"byteOffset":278016,
			"target":34962
		},
		{
			"buffer":0,
			"byteLength":1648,
			"byteOffset":280488,
			"target":34962
		},
		{
			"buffer":0,
			"byteLength":3296,
			"byteOffset":282136,
			"target":34962
		},
		{
			"buffer":0,
			"byteLength":1680,
			"byteOffset":285432,
			"target":34963
		}
	],
	"samplers":[
		{
			"magFilter":9729,
			"minFilter":9987
		}
	],
	"buffers":[
		{
			"byteLength":287112,
			"uri":"fish_trout_cooked.bin"
		}
	]
}
