{
	"asset":{
		"generator":"Khronos glTF Blender I/O v4.4.56",
		"version":"2.0"
	},
	"extensionsUsed":[
		"KHR_materials_specular"
	],
	"scene":0,
	"scenes":[
		{
			"extras":{
				"revision":2
			},
			"name":"Scene",
			"nodes":[
				0
			]
		}
	],
	"nodes":[
		{
			"mesh":0,
			"name":"fish_crucian_cooked"
		}
	],
	"materials":[
		{
			"extensions":{
				"KHR_materials_specular":{
					"specularColorFactor":[
						1.2000000476837158,
						1.2000000476837158,
						1.2000000476837158
					]
				}
			},
			"name":"fish_crucian_cooked_skin",
			"normalTexture":{
				"index":0
			},
			"pbrMetallicRoughness":{
				"baseColorTexture":{
					"index":1
				},
				"metallicFactor":0,
				"roughnessFactor":0.550000011920929
			}
		},
		{
			"doubleSided":true,
			"name":"fish_crucian_cooked_dorsal",
			"normalTexture":{
				"index":2
			},
			"pbrMetallicRoughness":{
				"baseColorTexture":{
					"index":3
				},
				"metallicFactor":0,
				"roughnessFactor":0.6000000238418579
			}
		},
		{
			"doubleSided":true,
			"name":"fish_crucian_cooked_paired",
			"normalTexture":{
				"index":4
			},
			"pbrMetallicRoughness":{
				"baseColorTexture":{
					"index":5
				},
				"metallicFactor":0,
				"roughnessFactor":0.6000000238418579
			}
		},
		{
			"doubleSided":true,
			"name":"fish_crucian_cooked_caudal",
			"normalTexture":{
				"index":6
			},
			"pbrMetallicRoughness":{
				"baseColorTexture":{
					"index":7
				},
				"metallicFactor":0,
				"roughnessFactor":0.6000000238418579
			}
		},
		{
			"extensions":{
				"KHR_materials_specular":{
					"specularColorFactor":[
						1.7999999523162842,
						1.7999999523162842,
						1.7999999523162842
					]
				}
			},
			"name":"fish_crucian_cooked_iris",
			"pbrMetallicRoughness":{
				"baseColorFactor":[
					0.7105664610862732,
					0.6738595366477966,
					0.5704815983772278,
					1
				],
				"metallicFactor":0,
				"roughnessFactor":0.3499999940395355
			}
		},
		{
			"extensions":{
				"KHR_materials_specular":{
					"specularColorFactor":[
						2.0,
						2.0,
						2.0
					]
				}
			},
			"name":"fish_crucian_cooked_pupil",
			"pbrMetallicRoughness":{
				"baseColorFactor":[
					0.2632734179496765,
					0.24286681413650513,
					0.21404114365577698,
					1
				],
				"metallicFactor":0,
				"roughnessFactor":0.30000001192092896
			}
		}
	],
	"meshes":[
		{
			"name":"fish_crucian_cooked",
			"primitives":[
				{
					"attributes":{
						"POSITION":0,
						"NORMAL":1,
						"TEXCOORD_0":2,
						"TANGENT":3
					},
					"indices":4,
					"material":0
				},
				{
					"attributes":{
						"POSITION":5,
						"NORMAL":6,
						"TEXCOORD_0":7,
						"TANGENT":8
					},
					"indices":9,
					"material":1
				},
				{
					"attributes":{
						"POSITION":10,
						"NORMAL":11,
						"TEXCOORD_0":12,
						"TANGENT":13
					},
					"indices":14,
					"material":2
				},
				{
					"attributes":{
						"POSITION":15,
						"NORMAL":16,
						"TEXCOORD_0":17,
						"TANGENT":18
					},
					"indices":19,
					"material":3
				},
				{
					"attributes":{
						"POSITION":20,
						"NORMAL":21,
						"TEXCOORD_0":22,
						"TANGENT":23
					},
					"indices":24,
					"material":4
				},
				{
					"attributes":{
						"POSITION":25,
						"NORMAL":26,
						"TEXCOORD_0":27,
						"TANGENT":28
					},
					"indices":29,
					"material":5
				}
			]
		}
	],
	"textures":[
		{
			"sampler":0,
			"source":0
		},
		{
			"sampler":0,
			"source":1
		},
		{
			"sampler":0,
			"source":2
		},
		{
			"sampler":0,
			"source":3
		},
		{
			"sampler":0,
			"source":4
		},
		{
			"sampler":0,
			"source":5
		},
		{
			"sampler":0,
			"source":6
		},
		{
			"sampler":0,
			"source":7
		}
	],
	"images":[
		{
			"mimeType":"image/jpeg",
			"name":"fish_crucian_body_nor",
			"uri":"textures/fish_crucian_body_nor.jpg"
		},
		{
			"mimeType":"image/jpeg",
			"name":"fish_crucian_cooked_body",
			"uri":"textures/fish_crucian_cooked_body.jpg"
		},
		{
			"mimeType":"image/jpeg",
			"name":"fish_crucian_dorsal_nor",
			"uri":"textures/fish_crucian_dorsal_nor.jpg"
		},
		{
			"mimeType":"image/jpeg",
			"name":"fish_crucian_cooked_dorsal",
			"uri":"textures/fish_crucian_cooked_dorsal.jpg"
		},
		{
			"mimeType":"image/jpeg",
			"name":"fish_crucian_paired_nor",
			"uri":"textures/fish_crucian_paired_nor.jpg"
		},
		{
			"mimeType":"image/jpeg",
			"name":"fish_crucian_cooked_paired",
			"uri":"textures/fish_crucian_cooked_paired.jpg"
		},
		{
			"mimeType":"image/jpeg",
			"name":"fish_crucian_caudal_nor",
			"uri":"textures/fish_crucian_caudal_nor.jpg"
		},
		{
			"mimeType":"image/jpeg",
			"name":"fish_crucian_cooked_caudal",
			"uri":"textures/fish_crucian_cooked_caudal.jpg"
		}
	],
	"accessors":[
		{
			"bufferView":0,
			"componentType":5126,
			"count":3818,
			"max":[
				0.10199999809265137,
				0.04525802657008171,
				0.012831645086407661
			],
			"min":[
				-0.06499999761581421,
				-0.030172016471624374,
				-0.015998441725969315
			],
			"type":"VEC3"
		},
		{
			"bufferView":1,
			"componentType":5126,
			"count":3818,
			"type":"VEC3"
		},
		{
			"bufferView":2,
			"componentType":5126,
			"count":3818,
			"type":"VEC2"
		},
		{
			"bufferView":3,
			"componentType":5126,
			"count":3818,
			"type":"VEC4"
		},
		{
			"bufferView":4,
			"componentType":5123,
			"count":21024,
			"type":"SCALAR"
		},
		{
			"bufferView":5,
			"componentType":5126,
			"count":90,
			"max":[
				0.04095999896526337,
				0.08347725868225098,
				0.00046306810691021383
			],
			"min":[
				-0.03169200196862221,
				0.0242740660905838,
				-0.0014249016530811787
			],
			"type":"VEC3"
		},
		{
			"bufferView":6,
			"componentType":5126,
			"count":90,
			"type":"VEC3"
		},
		{
			"bufferView":7,
			"componentType":5126,
			"count":90,
			"type":"VEC2"
		},
		{
			"bufferView":8,
			"componentType":5126,
			"count":90,
			"type":"VEC4"
		},
		{
			"bufferView":9,
			"componentType":5123,
			"count":420,
			"type":"SCALAR"
		},
		{
			"bufferView":10,
			"componentType":5126,
			"count":306,
			"max":[
				0.06227999925613403,
				-0.014194061048328876,
				0.023043787106871605
			],
			"min":[
				-0.038553763180971146,
				-0.04939800500869751,
				-0.025045709684491158
			],
			"type":"VEC3"
		},
		{
			"bufferView":11,
			"componentType":5126,
			"count":306,
			"type":"VEC3"
		},
		{
			"bufferView":12,
			"componentType":5126,
			"count":306,
			"type":"VEC2"
		},
		{
			"bufferView":13,
			"componentType":5126,
			"count":306,
			"type":"VEC4"
		},
		{
			"bufferView":14,
			"componentType":5123,
			"count":1380,
			"type":"SCALAR"
		},
		{
			"bufferView":15,
			"componentType":5126,
			"count":153,
			"max":[
				-0.06319999694824219,
				0.04100000113248825,
				-0.0027959677390754223
			],
			"min":[
				-0.09569314122200012,
				-0.04100000113248825,
				-0.006410024128854275
			],
			"type":"VEC3"
		},
		{
			"bufferView":16,
			"componentType":5126,
			"count":153,
			"type":"VEC3"
		},
		{
			"bufferView":17,
			"componentType":5126,
			"count":153,
			"type":"VEC2"
		},
		{
			"bufferView":18,
			"componentType":5126,
			"count":153,
			"type":"VEC4"
		},
		{
			"bufferView":19,
			"componentType":5123,
			"count":768,
			"type":"SCALAR"
		},
		{
			"bufferView":20,
			"componentType":5126,
			"count":302,
			"max":[
				0.09260819107294083,
				0.0168391615152359,
				0.004457676317542791
			],
			"min":[
				0.07951181381940842,
				0.0037662875838577747,
				-0.014834033325314522
			],
			"type":"VEC3"
		},
		{
			"bufferView":21,
			"componentType":5126,
			"count":302,
			"type":"VEC3"
		},
		{
			"bufferView":22,
			"componentType":5126,
			"count":302,
			"type":"VEC2"
		},
		{
			"bufferView":23,
			"componentType":5126,
			"count":302,
			"type":"VEC4"
		},
		{
			"bufferView":24,
			"componentType":5123,
			"count":1344,
			"type":"SCALAR"
		},
		{
			"bufferView":25,
			"componentType":5126,
			"count":206,
			"max":[
				0.09025084227323532,
				0.01442037895321846,
				0.0045954883098602295
			],
			"min":[
				0.08186916261911392,
				0.006263508461415768,
				-0.01496434211730957
			],
			"type":"VEC3"
		},
		{
			"bufferView":26,
			"componentType":5126,
			"count":206,
			"type":"VEC3"
		},
		{
			"bufferView":27,
			"componentType":5126,
			"count":206,
			"type":"VEC2"
		},
		{
			"bufferView":28,
			"componentType":5126,
			"count":206,
			"type":"VEC4"
		},
		{
			"bufferView":29,
			"componentType":5123,
			"count":840,
			"type":"SCALAR"
		}
	],
	"bufferViews":[
		{
			"buffer":0,
			"byteLength":45816,
			"byteOffset":0,
			"target":34962
		},
		{
			"buffer":0,
			"byteLength":45816,
			"byteOffset":45816,
			"target":34962
		},
		{
			"buffer":0,
			"byteLength":30544,
			"byteOffset":91632,
			"target":34962
		},
		{
			"buffer":0,
			"byteLength":61088,
			"byteOffset":122176,
			"target":34962
		},
		{
			"buffer":0,
			"byteLength":42048,
			"byteOffset":183264,
			"target":34963
		},
		{
			"buffer":0,
			"byteLength":1080,
			"byteOffset":225312,
			"target":34962
		},
		{
			"buffer":0,
			"byteLength":1080,
			"byteOffset":226392,
			"target":34962
		},
		{
			"buffer":0,
			"byteLength":720,
			"byteOffset":227472,
			"target":34962
		},
		{
			"buffer":0,
			"byteLength":1440,
			"byteOffset":228192,
			"target":34962
		},
		{
			"buffer":0,
			"byteLength":840,
			"byteOffset":229632,
			"target":34963
		},
		{
			"buffer":0,
			"byteLength":3672,
			"byteOffset":230472,
			"target":34962
		},
		{
			"buffer":0,
			"byteLength":3672,
			"byteOffset":234144,
			"target":34962
		},
		{
			"buffer":0,
			"byteLength":2448,
			"byteOffset":237816,
			"target":34962
		},
		{
			"buffer":0,
			"byteLength":4896,
			"byteOffset":240264,
			"target":34962
		},
		{
			"buffer":0,
			"byteLength":2760,
			"byteOffset":245160,
			"target":34963
		},
		{
			"buffer":0,
			"byteLength":1836,
			"byteOffset":247920,
			"target":34962
		},
		{
			"buffer":0,
			"byteLength":1836,
			"byteOffset":249756,
			"target":34962
		},
		{
			"buffer":0,
			"byteLength":1224,
			"byteOffset":251592,
			"target":34962
		},
		{
			"buffer":0,
			"byteLength":2448,
			"byteOffset":252816,
			"target":34962
		},
		{
			"buffer":0,
			"byteLength":1536,
			"byteOffset":255264,
			"target":34963
		},
		{
			"buffer":0,
			"byteLength":3624,
			"byteOffset":256800,
			"target":34962
		},
		{
			"buffer":0,
			"byteLength":3624,
			"byteOffset":260424,
			"target":34962
		},
		{
			"buffer":0,
			"byteLength":2416,
			"byteOffset":264048,
			"target":34962
		},
		{
			"buffer":0,
			"byteLength":4832,
			"byteOffset":266464,
			"target":34962
		},
		{
			"buffer":0,
			"byteLength":2688,
			"byteOffset":271296,
			"target":34963
		},
		{
			"buffer":0,
			"byteLength":2472,
			"byteOffset":273984,
			"target":34962
		},
		{
			"buffer":0,
			"byteLength":2472,
			"byteOffset":276456,
			"target":34962
		},
		{
			"buffer":0,
			"byteLength":1648,
			"byteOffset":278928,
			"target":34962
		},
		{
			"buffer":0,
			"byteLength":3296,
			"byteOffset":280576,
			"target":34962
		},
		{
			"buffer":0,
			"byteLength":1680,
			"byteOffset":283872,
			"target":34963
		}
	],
	"samplers":[
		{
			"magFilter":9729,
			"minFilter":9987
		}
	],
	"buffers":[
		{
			"byteLength":285552,
			"uri":"fish_crucian_cooked.bin"
		}
	]
}
