{
	"asset":{
		"generator":"Khronos glTF Blender I/O v4.4.56",
		"version":"2.0"
	},
	"extensionsUsed":[
		"KHR_materials_clearcoat",
		"KHR_materials_specular"
	],
	"scene":0,
	"scenes":[
		{
			"extras":{
				"revision":2
			},
			"name":"Scene",
			"nodes":[
				0
			]
		}
	],
	"nodes":[
		{
			"mesh":0,
			"name":"fish_roach"
		}
	],
	"materials":[
		{
			"extensions":{
				"KHR_materials_clearcoat":{
					"clearcoatFactor":0.3499999940395355
				},
				"KHR_materials_specular":{
					"specularColorFactor":[
						1.2000000476837158,
						1.2000000476837158,
						1.2000000476837158
					]
				}
			},
			"name":"fish_roach_skin",
			"normalTexture":{
				"index":0
			},
			"pbrMetallicRoughness":{
				"baseColorTexture":{
					"index":1
				},
				"metallicFactor":0,
				"roughnessFactor":0.30000001192092896
			}
		},
		{
			"doubleSided":true,
			"name":"fish_roach_dorsal",
			"normalTexture":{
				"index":2
			},
			"pbrMetallicRoughness":{
				"baseColorTexture":{
					"index":3
				},
				"metallicFactor":0,
				"roughnessFactor":0.3499999940395355
			}
		},
		{
			"doubleSided":true,
			"name":"fish_roach_paired",
			"normalTexture":{
				"index":4
			},
			"pbrMetallicRoughness":{
				"baseColorTexture":{
					"index":5
				},
				"metallicFactor":0,
				"roughnessFactor":0.3499999940395355
			}
		},
		{
			"doubleSided":true,
			"name":"fish_roach_caudal",
			"normalTexture":{
				"index":6
			},
			"pbrMetallicRoughness":{
				"baseColorTexture":{
					"index":7
				},
				"metallicFactor":0,
				"roughnessFactor":0.3499999940395355
			}
		},
		{
			"extensions":{
				"KHR_materials_specular":{
					"specularColorFactor":[
						1.7999999523162842,
						1.7999999523162842,
						1.7999999523162842
					]
				}
			},
			"name":"fish_roach_iris",
			"pbrMetallicRoughness":{
				"baseColorFactor":[
					0.7105664610862732,
					0.017389101907610893,
					0.005981059744954109,
					1
				],
				"metallicFactor":0,
				"roughnessFactor":0.07999999821186066
			}
		},
		{
			"extensions":{
				"KHR_materials_specular":{
					"specularColorFactor":[
						2.0,
						2.0,
						2.0
					]
				}
			},
			"name":"fish_roach_pupil",
			"pbrMetallicRoughness":{
				"baseColorFactor":[
					0.0007739937864243984,
					0.0007739937864243984,
					0.0009287925786338747,
					1
				],
				"metallicFactor":0,
				"roughnessFactor":0.029999999329447746
			}
		}
	],
	"meshes":[
		{
			"name":"fish_roach",
			"primitives":[
				{
					"attributes":{
						"POSITION":0,
						"NORMAL":1,
						"TEXCOORD_0":2,
						"TANGENT":3
					},
					"indices":4,
					"material":0
				},
				{
					"attributes":{
						"POSITION":5,
						"NORMAL":6,
						"TEXCOORD_0":7,
						"TANGENT":8
					},
					"indices":9,
					"material":1
				},
				{
					"attributes":{
						"POSITION":10,
						"NORMAL":11,
						"TEXCOORD_0":12,
						"TANGENT":13
					},
					"indices":14,
					"material":2
				},
				{
					"attributes":{
						"POSITION":15,
						"NORMAL":16,
						"TEXCOORD_0":17,
						"TANGENT":18
					},
					"indices":19,
					"material":3
				},
				{
					"attributes":{
						"POSITION":20,
						"NORMAL":21,
						"TEXCOORD_0":22,
						"TANGENT":23
					},
					"indices":24,
					"material":4
				},
				{
					"attributes":{
						"POSITION":25,
						"NORMAL":26,
						"TEXCOORD_0":27,
						"TANGENT":28
					},
					"indices":29,
					"material":5
				}
			]
		}
	],
	"textures":[
		{
			"sampler":0,
			"source":0
		},
		{
			"sampler":0,
			"source":1
		},
		{
			"sampler":0,
			"source":2
		},
		{
			"sampler":0,
			"source":3
		},
		{
			"sampler":0,
			"source":4
		},
		{
			"sampler":0,
			"source":5
		},
		{
			"sampler":0,
			"source":6
		},
		{
			"sampler":0,
			"source":7
		}
	],
	"images":[
		{
			"mimeType":"image/jpeg",
			"name":"fish_roach_body_nor",
			"uri":"textures/fish_roach_body_nor.jpg"
		},
		{
			"mimeType":"image/jpeg",
			"name":"fish_roach_body",
			"uri":"textures/fish_roach_body.jpg"
		},
		{
			"mimeType":"image/jpeg",
			"name":"fish_roach_dorsal_nor",
			"uri":"textures/fish_roach_dorsal_nor.jpg"
		},
		{
			"mimeType":"image/jpeg",
			"name":"fish_roach_dorsal",
			"uri":"textures/fish_roach_dorsal.jpg"
		},
		{
			"mimeType":"image/jpeg",
			"name":"fish_roach_paired_nor",
			"uri":"textures/fish_roach_paired_nor.jpg"
		},
		{
			"mimeType":"image/jpeg",
			"name":"fish_roach_paired",
			"uri":"textures/fish_roach_paired.jpg"
		},
		{
			"mimeType":"image/jpeg",
			"name":"fish_roach_caudal_nor",
			"uri":"textures/fish_roach_caudal_nor.jpg"
		},
		{
			"mimeType":"image/jpeg",
			"name":"fish_roach_caudal",
			"uri":"textures/fish_roach_caudal.jpg"
		}
	],
	"accessors":[
		{
			"bufferView":0,
			"componentType":5126,
			"count":3818,
			"max":[
				0.1120000034570694,
				0.030378688126802444,
				0.011582945473492146
			],
			"min":[
				-0.06920000165700912,
				-0.024855289608240128,
				-0.011582945473492146
			],
			"type":"VEC3"
		},
		{
			"bufferView":1,
			"componentType":5126,
			"count":3818,
			"type":"VEC3"
		},
		{
			"bufferView":2,
			"componentType":5126,
			"count":3818,
			"type":"VEC2"
		},
		{
			"bufferView":3,
			"componentType":5126,
			"count":3818,
			"type":"VEC4"
		},
		{
			"bufferView":4,
			"componentType":5123,
			"count":21024,
			"type":"SCALAR"
		},
		{
			"bufferView":5,
			"componentType":5126,
			"count":90,
			"max":[
				0.029810000211000443,
				0.0679895207285881,
				0.0006352547788992524
			],
			"min":[
				0.0026665758341550827,
				0.025533616542816162,
				-0.0006785449804738164
			],
			"type":"VEC3"
		},
		{
			"bufferView":6,
			"componentType":5126,
			"count":90,
			"type":"VEC3"
		},
		{
			"bufferView":7,
			"componentType":5126,
			"count":90,
			"type":"VEC2"
		},
		{
			"bufferView":8,
			"componentType":5126,
			"count":90,
			"type":"VEC4"
		},
		{
			"bufferView":9,
			"componentType":5123,
			"count":420,
			"type":"SCALAR"
		},
		{
			"bufferView":10,
			"componentType":5126,
			"count":306,
			"max":[
				0.07079599797725677,
				-0.011392672546207905,
				0.020138446241617203
			],
			"min":[
				-0.034258246421813965,
				-0.044580183923244476,
				-0.020138446241617203
			],
			"type":"VEC3"
		},
		{
			"bufferView":11,
			"componentType":5126,
			"count":306,
			"type":"VEC3"
		},
		{
			"bufferView":12,
			"componentType":5126,
			"count":306,
			"type":"VEC2"
		},
		{
			"bufferView":13,
			"componentType":5126,
			"count":306,
			"type":"VEC4"
		},
		{
			"bufferView":14,
			"componentType":5123,
			"count":1380,
			"type":"SCALAR"
		},
		{
			"bufferView":15,
			"componentType":5126,
			"count":153,
			"max":[
				-0.06731999665498734,
				0.03564000129699707,
				0.0004936070181429386
			],
			"min":[
				-0.10590360313653946,
				-0.03564000129699707,
				-0.0004989138105884194
			],
			"type":"VEC3"
		},
		{
			"bufferView":16,
			"componentType":5126,
			"count":153,
			"type":"VEC3"
		},
		{
			"bufferView":17,
			"componentType":5126,
			"count":153,
			"type":"VEC2"
		},
		{
			"bufferView":18,
			"componentType":5126,
			"count":153,
			"type":"VEC4"
		},
		{
			"bufferView":19,
			"componentType":5123,
			"count":768,
			"type":"SCALAR"
		},
		{
			"bufferView":20,
			"componentType":5126,
			"count":302,
			"max":[
				0.10218200832605362,
				0.01453922688961029,
				0.008486359380185604
			],
			"min":[
				0.08574198931455612,
				-0.0018750731833279133,
				-0.008486359380185604
			],
			"type":"VEC3"
		},
		{
			"bufferView":21,
			"componentType":5126,
			"count":302,
			"type":"VEC3"
		},
		{
			"bufferView":22,
			"componentType":5126,
			"count":302,
			"type":"VEC2"
		},
		{
			"bufferView":23,
			"componentType":5126,
			"count":302,
			"type":"VEC4"
		},
		{
			"bufferView":24,
			"componentType":5123,
			"count":1344,
			"type":"SCALAR"
		},
		{
			"bufferView":25,
			"componentType":5126,
			"count":206,
			"max":[
				0.09922280162572861,
				0.011498919688165188,
				0.008814645931124687
			],
			"min":[
				0.08870119601488113,
				0.0012571532279253006,
				-0.008814645931124687
			],
			"type":"VEC3"
		},
		{
			"bufferView":26,
			"componentType":5126,
			"count":206,
			"type":"VEC3"
		},
		{
			"bufferView":27,
			"componentType":5126,
			"count":206,
			"type":"VEC2"
		},
		{
			"bufferView":28,
			"componentType":5126,
			"count":206,
			"type":"VEC4"
		},
		{
			"bufferView":29,
			"componentType":5123,
			"count":840,
			"type":"SCALAR"
		}
	],
	"bufferViews":[
		{
			"buffer":0,
			"byteLength":45816,
			"byteOffset":0,
			"target":34962
		},
		{
			"buffer":0,
			"byteLength":45816,
			"byteOffset":45816,
			"target":34962
		},
		{
			"buffer":0,
			"byteLength":30544,
			"byteOffset":91632,
			"target":34962
		},
		{
			"buffer":0,
			"byteLength":61088,
			"byteOffset":122176,
			"target":34962
		},
		{
			"buffer":0,
			"byteLength":42048,
			"byteOffset":183264,
			"target":34963
		},
		{
			"buffer":0,
			"byteLength":1080,
			"byteOffset":225312,
			"target":34962
		},
		{
			"buffer":0,
			"byteLength":1080,
			"byteOffset":226392,
			"target":34962
		},
		{
			"buffer":0,
			"byteLength":720,
			"byteOffset":227472,
			"target":34962
		},
		{
			"buffer":0,
			"byteLength":1440,
			"byteOffset":228192,
			"target":34962
		},
		{
			"buffer":0,
			"byteLength":840,
			"byteOffset":229632,
			"target":34963
		},
		{
			"buffer":0,
			"byteLength":3672,
			"byteOffset":230472,
			"target":34962
		},
		{
			"buffer":0,
			"byteLength":3672,
			"byteOffset":234144,
			"target":34962
		},
		{
			"buffer":0,
			"byteLength":2448,
			"byteOffset":237816,
			"target":34962
		},
		{
			"buffer":0,
			"byteLength":4896,
			"byteOffset":240264,
			"target":34962
		},
		{
			"buffer":0,
			"byteLength":2760,
			"byteOffset":245160,
			"target":34963
		},
		{
			"buffer":0,
			"byteLength":1836,
			"byteOffset":247920,
			"target":34962
		},
		{
			"buffer":0,
			"byteLength":1836,
			"byteOffset":249756,
			"target":34962
		},
		{
			"buffer":0,
			"byteLength":1224,
			"byteOffset":251592,
			"target":34962
		},
		{
			"buffer":0,
			"byteLength":2448,
			"byteOffset":252816,
			"target":34962
		},
		{
			"buffer":0,
			"byteLength":1536,
			"byteOffset":255264,
			"target":34963
		},
		{
			"buffer":0,
			"byteLength":3624,
			"byteOffset":256800,
			"target":34962
		},
		{
			"buffer":0,
			"byteLength":3624,
			"byteOffset":260424,
			"target":34962
		},
		{
			"buffer":0,
			"byteLength":2416,
			"byteOffset":264048,
			"target":34962
		},
		{
			"buffer":0,
			"byteLength":4832,
			"byteOffset":266464,
			"target":34962
		},
		{
			"buffer":0,
			"byteLength":2688,
			"byteOffset":271296,
			"target":34963
		},
		{
			"buffer":0,
			"byteLength":2472,
			"byteOffset":273984,
			"target":34962
		},
		{
			"buffer":0,
			"byteLength":2472,
			"byteOffset":276456,
			"target":34962
		},
		{
			"buffer":0,
			"byteLength":1648,
			"byteOffset":278928,
			"target":34962
		},
		{
			"buffer":0,
			"byteLength":3296,
			"byteOffset":280576,
			"target":34962
		},
		{
			"buffer":0,
			"byteLength":1680,
			"byteOffset":283872,
			"target":34963
		}
	],
	"samplers":[
		{
			"magFilter":9729,
			"minFilter":9987
		}
	],
	"buffers":[
		{
			"byteLength":285552,
			"uri":"fish_roach.bin"
		}
	]
}
