{
	"asset":{
		"generator":"Khronos glTF Blender I/O v4.4.56",
		"version":"2.0"
	},
	"extensionsUsed":[
		"KHR_materials_clearcoat",
		"KHR_materials_specular"
	],
	"scene":0,
	"scenes":[
		{
			"extras":{
				"revision":2
			},
			"name":"Scene",
			"nodes":[
				0
			]
		}
	],
	"nodes":[
		{
			"mesh":0,
			"name":"fish_gudgeon"
		}
	],
	"materials":[
		{
			"extensions":{
				"KHR_materials_clearcoat":{
					"clearcoatFactor":0.3499999940395355
				},
				"KHR_materials_specular":{
					"specularColorFactor":[
						1.2000000476837158,
						1.2000000476837158,
						1.2000000476837158
					]
				}
			},
			"name":"fish_gudgeon_skin",
			"normalTexture":{
				"index":0
			},
			"pbrMetallicRoughness":{
				"baseColorTexture":{
					"index":1
				},
				"metallicFactor":0,
				"roughnessFactor":0.30000001192092896
			}
		},
		{
			"doubleSided":true,
			"name":"fish_gudgeon_dorsal",
			"normalTexture":{
				"index":2
			},
			"pbrMetallicRoughness":{
				"baseColorTexture":{
					"index":3
				},
				"metallicFactor":0,
				"roughnessFactor":0.3499999940395355
			}
		},
		{
			"doubleSided":true,
			"name":"fish_gudgeon_paired",
			"normalTexture":{
				"index":4
			},
			"pbrMetallicRoughness":{
				"baseColorTexture":{
					"index":5
				},
				"metallicFactor":0,
				"roughnessFactor":0.3499999940395355
			}
		},
		{
			"doubleSided":true,
			"name":"fish_gudgeon_caudal",
			"normalTexture":{
				"index":6
			},
			"pbrMetallicRoughness":{
				"baseColorTexture":{
					"index":7
				},
				"metallicFactor":0,
				"roughnessFactor":0.3499999940395355
			}
		},
		{
			"extensions":{
				"KHR_materials_specular":{
					"specularColorFactor":[
						1.7999999523162842,
						1.7999999523162842,
						1.7999999523162842
					]
				}
			},
			"name":"fish_gudgeon_iris",
			"pbrMetallicRoughness":{
				"baseColorFactor":[
					0.5704815983772278,
					0.4479884207248688,
					0.17064493894577026,
					1
				],
				"metallicFactor":0,
				"roughnessFactor":0.07999999821186066
			}
		},
		{
			"extensions":{
				"KHR_materials_specular":{
					"specularColorFactor":[
						2.0,
						2.0,
						2.0
					]
				}
			},
			"name":"fish_gudgeon_pupil",
			"pbrMetallicRoughness":{
				"baseColorFactor":[
					0.0007739937864243984,
					0.0007739937864243984,
					0.0009287925786338747,
					1
				],
				"metallicFactor":0,
				"roughnessFactor":0.029999999329447746
			}
		},
		{
			"name":"fish_gudgeon_barbel",
			"pbrMetallicRoughness":{
				"baseColorFactor":[
					0.36724647879600525,
					0.31854677200317383,
					0.17886750400066376,
					1
				],
				"metallicFactor":0,
				"roughnessFactor":0.4000000059604645
			}
		}
	],
	"meshes":[
		{
			"name":"fish_gudgeon",
			"primitives":[
				{
					"attributes":{
						"POSITION":0,
						"NORMAL":1,
						"TEXCOORD_0":2,
						"TANGENT":3
					},
					"indices":4,
					"material":0
				},
				{
					"attributes":{
						"POSITION":5,
						"NORMAL":6,
						"TEXCOORD_0":7,
						"TANGENT":8
					},
					"indices":9,
					"material":1
				},
				{
					"attributes":{
						"POSITION":10,
						"NORMAL":11,
						"TEXCOORD_0":12,
						"TANGENT":13
					},
					"indices":14,
					"material":2
				},
				{
					"attributes":{
						"POSITION":15,
						"NORMAL":16,
						"TEXCOORD_0":17,
						"TANGENT":18
					},
					"indices":19,
					"material":3
				},
				{
					"attributes":{
						"POSITION":20,
						"NORMAL":21,
						"TEXCOORD_0":22,
						"TANGENT":23
					},
					"indices":24,
					"material":4
				},
				{
					"attributes":{
						"POSITION":25,
						"NORMAL":26,
						"TEXCOORD_0":27,
						"TANGENT":28
					},
					"indices":29,
					"material":5
				},
				{
					"attributes":{
						"POSITION":30,
						"NORMAL":31,
						"TEXCOORD_0":32,
						"TANGENT":33
					},
					"indices":34,
					"material":6
				}
			]
		}
	],
	"textures":[
		{
			"sampler":0,
			"source":0
		},
		{
			"sampler":0,
			"source":1
		},
		{
			"sampler":0,
			"source":2
		},
		{
			"sampler":0,
			"source":3
		},
		{
			"sampler":0,
			"source":4
		},
		{
			"sampler":0,
			"source":5
		},
		{
			"sampler":0,
			"source":6
		},
		{
			"sampler":0,
			"source":7
		}
	],
	"images":[
		{
			"mimeType":"image/jpeg",
			"name":"fish_gudgeon_body_nor",
			"uri":"textures/fish_gudgeon_body_nor.jpg"
		},
		{
			"mimeType":"image/jpeg",
			"name":"fish_gudgeon_body",
			"uri":"textures/fish_gudgeon_body.jpg"
		},
		{
			"mimeType":"image/jpeg",
			"name":"fish_gudgeon_dorsal_nor",
			"uri":"textures/fish_gudgeon_dorsal_nor.jpg"
		},
		{
			"mimeType":"image/jpeg",
			"name":"fish_gudgeon_dorsal",
			"uri":"textures/fish_gudgeon_dorsal.jpg"
		},
		{
			"mimeType":"image/jpeg",
			"name":"fish_gudgeon_paired_nor",
			"uri":"textures/fish_gudgeon_paired_nor.jpg"
		},
		{
			"mimeType":"image/jpeg",
			"name":"fish_gudgeon_paired",
			"uri":"textures/fish_gudgeon_paired.jpg"
		},
		{
			"mimeType":"image/jpeg",
			"name":"fish_gudgeon_caudal_nor",
			"uri":"textures/fish_gudgeon_caudal_nor.jpg"
		},
		{
			"mimeType":"image/jpeg",
			"name":"fish_gudgeon_caudal",
			"uri":"textures/fish_gudgeon_caudal.jpg"
		}
	],
	"accessors":[
		{
			"bufferView":0,
			"componentType":5126,
			"count":3818,
			"max":[
				0.06700000166893005,
				0.010527071543037891,
				0.007992875762283802
			],
			"min":[
				-0.04259999841451645,
				-0.009717296808958054,
				-0.007992875762283802
			],
			"type":"VEC3"
		},
		{
			"bufferView":1,
			"componentType":5126,
			"count":3818,
			"type":"VEC3"
		},
		{
			"bufferView":2,
			"componentType":5126,
			"count":3818,
			"type":"VEC2"
		},
		{
			"bufferView":3,
			"componentType":5126,
			"count":3818,
			"type":"VEC4"
		},
		{
			"bufferView":4,
			"componentType":5123,
			"count":21024,
			"type":"SCALAR"
		},
		{
			"bufferView":5,
			"componentType":5126,
			"count":90,
			"max":[
				0.026623999699950218,
				0.02504005841910839,
				0.0002540176792535931
			],
			"min":[
				0.009674599394202232,
				0.00917551014572382,
				-0.0002565144677646458
			],
			"type":"VEC3"
		},
		{
			"bufferView":6,
			"componentType":5126,
			"count":90,
			"type":"VEC3"
		},
		{
			"bufferView":7,
			"componentType":5126,
			"count":90,
			"type":"VEC2"
		},
		{
			"bufferView":8,
			"componentType":5126,
			"count":90,
			"type":"VEC4"
		},
		{
			"bufferView":9,
			"componentType":5123,
			"count":420,
			"type":"SCALAR"
		},
		{
			"bufferView":10,
			"componentType":5126,
			"count":306,
			"max":[
				0.03941600024700165,
				-0.004687379579991102,
				0.010427954606711864
			],
			"min":[
				-0.017433781176805496,
				-0.016051022335886955,
				-0.010427954606711864
			],
			"type":"VEC3"
		},
		{
			"bufferView":11,
			"componentType":5126,
			"count":306,
			"type":"VEC3"
		},
		{
			"bufferView":12,
			"componentType":5126,
			"count":306,
			"type":"VEC2"
		},
		{
			"bufferView":13,
			"componentType":5126,
			"count":306,
			"type":"VEC4"
		},
		{
			"bufferView":14,
			"componentType":5123,
			"count":1380,
			"type":"SCALAR"
		},
		{
			"bufferView":15,
			"componentType":5126,
			"count":153,
			"max":[
				-0.04108000174164772,
				0.021320000290870667,
				0.00027632544515654445
			],
			"min":[
				-0.06231250613927841,
				-0.021320000290870667,
				-0.000279296247754246
			],
			"type":"VEC3"
		},
		{
			"bufferView":16,
			"componentType":5126,
			"count":153,
			"type":"VEC3"
		},
		{
			"bufferView":17,
			"componentType":5126,
			"count":153,
			"type":"VEC2"
		},
		{
			"bufferView":18,
			"componentType":5126,
			"count":153,
			"type":"VEC4"
		},
		{
			"bufferView":19,
			"componentType":5123,
			"count":768,
			"type":"SCALAR"
		},
		{
			"bufferView":20,
			"componentType":5126,
			"count":302,
			"max":[
				0.057604946196079254,
				0.006502550095319748,
				0.00544307567179203
			],
			"min":[
				0.051075056195259094,
				-4.422618076205254e-06,
				-0.00544307567179203
			],
			"type":"VEC3"
		},
		{
			"bufferView":21,
			"componentType":5126,
			"count":302,
			"type":"VEC3"
		},
		{
			"bufferView":22,
			"componentType":5126,
			"count":302,
			"type":"VEC2"
		},
		{
			"bufferView":23,
			"componentType":5126,
			"count":302,
			"type":"VEC4"
		},
		{
			"bufferView":24,
			"componentType":5123,
			"count":1344,
			"type":"SCALAR"
		},
		{
			"bufferView":25,
			"componentType":5126,
			"count":206,
			"max":[
				0.05642956495285034,
				0.005306418053805828,
				0.005572646390646696
			],
			"min":[
				0.05225043743848801,
				0.0012463675811886787,
				-0.005572646390646696
			],
			"type":"VEC3"
		},
		{
			"bufferView":26,
			"componentType":5126,
			"count":206,
			"type":"VEC3"
		},
		{
			"bufferView":27,
			"componentType":5126,
			"count":206,
			"type":"VEC2"
		},
		{
			"bufferView":28,
			"componentType":5126,
			"count":206,
			"type":"VEC4"
		},
		{
			"bufferView":29,
			"componentType":5123,
			"count":840,
			"type":"SCALAR"
		},
		{
			"bufferView":30,
			"componentType":5126,
			"count":98,
			"max":[
				0.06335406005382538,
				-0.0006837975233793259,
				0.0075520966202020645
			],
			"min":[
				0.059119898825883865,
				-0.006767207756638527,
				-0.007524936459958553
			],
			"type":"VEC3"
		},
		{
			"bufferView":31,
			"componentType":5126,
			"count":98,
			"type":"VEC3"
		},
		{
			"bufferView":32,
			"componentType":5126,
			"count":98,
			"type":"VEC2"
		},
		{
			"bufferView":33,
			"componentType":5126,
			"count":98,
			"type":"VEC4"
		},
		{
			"bufferView":34,
			"componentType":5123,
			"count":540,
			"type":"SCALAR"
		}
	],
	"bufferViews":[
		{
			"buffer":0,
			"byteLength":45816,
			"byteOffset":0,
			"target":34962
		},
		{
			"buffer":0,
			"byteLength":45816,
			"byteOffset":45816,
			"target":34962
		},
		{
			"buffer":0,
			"byteLength":30544,
			"byteOffset":91632,
			"target":34962
		},
		{
			"buffer":0,
			"byteLength":61088,
			"byteOffset":122176,
			"target":34962
		},
		{
			"buffer":0,
			"byteLength":42048,
			"byteOffset":183264,
			"target":34963
		},
		{
			"buffer":0,
			"byteLength":1080,
			"byteOffset":225312,
			"target":34962
		},
		{
			"buffer":0,
			"byteLength":1080,
			"byteOffset":226392,
			"target":34962
		},
		{
			"buffer":0,
			"byteLength":720,
			"byteOffset":227472,
			"target":34962
		},
		{
			"buffer":0,
			"byteLength":1440,
			"byteOffset":228192,
			"target":34962
		},
		{
			"buffer":0,
			"byteLength":840,
			"byteOffset":229632,
			"target":34963
		},
		{
			"buffer":0,
			"byteLength":3672,
			"byteOffset":230472,
			"target":34962
		},
		{
			"buffer":0,
			"byteLength":3672,
			"byteOffset":234144,
			"target":34962
		},
		{
			"buffer":0,
			"byteLength":2448,
			"byteOffset":237816,
			"target":34962
		},
		{
			"buffer":0,
			"byteLength":4896,
			"byteOffset":240264,
			"target":34962
		},
		{
			"buffer":0,
			"byteLength":2760,
			"byteOffset":245160,
			"target":34963
		},
		{
			"buffer":0,
			"byteLength":1836,
			"byteOffset":247920,
			"target":34962
		},
		{
			"buffer":0,
			"byteLength":1836,
			"byteOffset":249756,
			"target":34962
		},
		{
			"buffer":0,
			"byteLength":1224,
			"byteOffset":251592,
			"target":34962
		},
		{
			"buffer":0,
			"byteLength":2448,
			"byteOffset":252816,
			"target":34962
		},
		{
			"buffer":0,
			"byteLength":1536,
			"byteOffset":255264,
			"target":34963
		},
		{
			"buffer":0,
			"byteLength":3624,
			"byteOffset":256800,
			"target":34962
		},
		{
			"buffer":0,
			"byteLength":3624,
			"byteOffset":260424,
			"target":34962
		},
		{
			"buffer":0,
			"byteLength":2416,
			"byteOffset":264048,
			"target":34962
		},
		{
			"buffer":0,
			"byteLength":4832,
			"byteOffset":266464,
			"target":34962
		},
		{
			"buffer":0,
			"byteLength":2688,
			"byteOffset":271296,
			"target":34963
		},
		{
			"buffer":0,
			"byteLength":2472,
			"byteOffset":273984,
			"target":34962
		},
		{
			"buffer":0,
			"byteLength":2472,
			"byteOffset":276456,
			"target":34962
		},
		{
			"buffer":0,
			"byteLength":1648,
			"byteOffset":278928,
			"target":34962
		},
		{
			"buffer":0,
			"byteLength":3296,
			"byteOffset":280576,
			"target":34962
		},
		{
			"buffer":0,
			"byteLength":1680,
			"byteOffset":283872,
			"target":34963
		},
		{
			"buffer":0,
			"byteLength":1176,
			"byteOffset":285552,
			"target":34962
		},
		{
			"buffer":0,
			"byteLength":1176,
			"byteOffset":286728,
			"target":34962
		},
		{
			"buffer":0,
			"byteLength":784,
			"byteOffset":287904,
			"target":34962
		},
		{
			"buffer":0,
			"byteLength":1568,
			"byteOffset":288688,
			"target":34962
		},
		{
			"buffer":0,
			"byteLength":1080,
			"byteOffset":290256,
			"target":34963
		}
	],
	"samplers":[
		{
			"magFilter":9729,
			"minFilter":9987
		}
	],
	"buffers":[
		{
			"byteLength":291336,
			"uri":"fish_gudgeon.bin"
		}
	]
}
