{
	"asset":{
		"generator":"Khronos glTF Blender I/O v4.4.56",
		"version":"2.0"
	},
	"extensionsUsed":[
		"KHR_materials_clearcoat",
		"KHR_materials_specular"
	],
	"scene":0,
	"scenes":[
		{
			"extras":{
				"revision":2
			},
			"name":"Scene",
			"nodes":[
				0
			]
		}
	],
	"nodes":[
		{
			"mesh":0,
			"name":"fish_barbel"
		}
	],
	"materials":[
		{
			"extensions":{
				"KHR_materials_clearcoat":{
					"clearcoatFactor":0.3499999940395355
				},
				"KHR_materials_specular":{
					"specularColorFactor":[
						1.2000000476837158,
						1.2000000476837158,
						1.2000000476837158
					]
				}
			},
			"name":"fish_barbel_skin",
			"normalTexture":{
				"index":0
			},
			"pbrMetallicRoughness":{
				"baseColorTexture":{
					"index":1
				},
				"metallicFactor":0,
				"roughnessFactor":0.30000001192092896
			}
		},
		{
			"doubleSided":true,
			"name":"fish_barbel_dorsal",
			"normalTexture":{
				"index":2
			},
			"pbrMetallicRoughness":{
				"baseColorTexture":{
					"index":3
				},
				"metallicFactor":0,
				"roughnessFactor":0.3499999940395355
			}
		},
		{
			"doubleSided":true,
			"name":"fish_barbel_paired",
			"normalTexture":{
				"index":4
			},
			"pbrMetallicRoughness":{
				"baseColorTexture":{
					"index":5
				},
				"metallicFactor":0,
				"roughnessFactor":0.3499999940395355
			}
		},
		{
			"doubleSided":true,
			"name":"fish_barbel_caudal",
			"normalTexture":{
				"index":6
			},
			"pbrMetallicRoughness":{
				"baseColorTexture":{
					"index":7
				},
				"metallicFactor":0,
				"roughnessFactor":0.3499999940395355
			}
		},
		{
			"extensions":{
				"KHR_materials_specular":{
					"specularColorFactor":[
						1.7999999523162842,
						1.7999999523162842,
						1.7999999523162842
					]
				}
			},
			"name":"fish_barbel_iris",
			"pbrMetallicRoughness":{
				"baseColorFactor":[
					0.6038273572921753,
					0.4200332760810852,
					0.10653922706842422,
					1
				],
				"metallicFactor":0,
				"roughnessFactor":0.07999999821186066
			}
		},
		{
			"extensions":{
				"KHR_materials_specular":{
					"specularColorFactor":[
						2.0,
						2.0,
						2.0
					]
				}
			},
			"name":"fish_barbel_pupil",
			"pbrMetallicRoughness":{
				"baseColorFactor":[
					0.0007739937864243984,
					0.0007739937864243984,
					0.0009287925786338747,
					1
				],
				"metallicFactor":0,
				"roughnessFactor":0.029999999329447746
			}
		},
		{
			"name":"fish_barbel_barbel",
			"pbrMetallicRoughness":{
				"baseColorFactor":[
					0.31854677200317383,
					0.21404114365577698,
					0.06372379511594772,
					1
				],
				"metallicFactor":0,
				"roughnessFactor":0.4000000059604645
			}
		}
	],
	"meshes":[
		{
			"name":"fish_barbel",
			"primitives":[
				{
					"attributes":{
						"POSITION":0,
						"NORMAL":1,
						"TEXCOORD_0":2,
						"TANGENT":3
					},
					"indices":4,
					"material":0
				},
				{
					"attributes":{
						"POSITION":5,
						"NORMAL":6,
						"TEXCOORD_0":7,
						"TANGENT":8
					},
					"indices":9,
					"material":1
				},
				{
					"attributes":{
						"POSITION":10,
						"NORMAL":11,
						"TEXCOORD_0":12,
						"TANGENT":13
					},
					"indices":14,
					"material":2
				},
				{
					"attributes":{
						"POSITION":15,
						"NORMAL":16,
						"TEXCOORD_0":17,
						"TANGENT":18
					},
					"indices":19,
					"material":3
				},
				{
					"attributes":{
						"POSITION":20,
						"NORMAL":21,
						"TEXCOORD_0":22,
						"TANGENT":23
					},
					"indices":24,
					"material":4
				},
				{
					"attributes":{
						"POSITION":25,
						"NORMAL":26,
						"TEXCOORD_0":27,
						"TANGENT":28
					},
					"indices":29,
					"material":5
				},
				{
					"attributes":{
						"POSITION":30,
						"NORMAL":31,
						"TEXCOORD_0":32,
						"TANGENT":33
					},
					"indices":34,
					"material":6
				}
			]
		}
	],
	"textures":[
		{
			"sampler":0,
			"source":0
		},
		{
			"sampler":0,
			"source":1
		},
		{
			"sampler":0,
			"source":2
		},
		{
			"sampler":0,
			"source":3
		},
		{
			"sampler":0,
			"source":4
		},
		{
			"sampler":0,
			"source":5
		},
		{
			"sampler":0,
			"source":6
		},
		{
			"sampler":0,
			"source":7
		}
	],
	"images":[
		{
			"mimeType":"image/jpeg",
			"name":"fish_barbel_body_nor",
			"uri":"textures/fish_barbel_body_nor.jpg"
		},
		{
			"mimeType":"image/jpeg",
			"name":"fish_barbel_body",
			"uri":"textures/fish_barbel_body.jpg"
		},
		{
			"mimeType":"image/jpeg",
			"name":"fish_barbel_dorsal_nor",
			"uri":"textures/fish_barbel_dorsal_nor.jpg"
		},
		{
			"mimeType":"image/jpeg",
			"name":"fish_barbel_dorsal",
			"uri":"textures/fish_barbel_dorsal.jpg"
		},
		{
			"mimeType":"image/jpeg",
			"name":"fish_barbel_paired_nor",
			"uri":"textures/fish_barbel_paired_nor.jpg"
		},
		{
			"mimeType":"image/jpeg",
			"name":"fish_barbel_paired",
			"uri":"textures/fish_barbel_paired.jpg"
		},
		{
			"mimeType":"image/jpeg",
			"name":"fish_barbel_caudal_nor",
			"uri":"textures/fish_barbel_caudal_nor.jpg"
		},
		{
			"mimeType":"image/jpeg",
			"name":"fish_barbel_caudal",
			"uri":"textures/fish_barbel_caudal.jpg"
		}
	],
	"accessors":[
		{
			"bufferView":0,
			"componentType":5126,
			"count":3818,
			"max":[
				0.25200000405311584,
				0.05105070397257805,
				0.03149013966321945
			],
			"min":[
				-0.17100000381469727,
				-0.02871602028608322,
				-0.03149013966321945
			],
			"type":"VEC3"
		},
		{
			"bufferView":1,
			"componentType":5126,
			"count":3818,
			"type":"VEC3"
		},
		{
			"bufferView":2,
			"componentType":5126,
			"count":3818,
			"type":"VEC2"
		},
		{
			"bufferView":3,
			"componentType":5126,
			"count":3818,
			"type":"VEC4"
		},
		{
			"bufferView":4,
			"componentType":5123,
			"count":21024,
			"type":"SCALAR"
		},
		{
			"bufferView":5,
			"componentType":5126,
			"count":90,
			"max":[
				0.0820000022649765,
				0.12310385704040527,
				0.0012296211207285523
			],
			"min":[
				0.02361999824643135,
				0.0446275919675827,
				-0.001277657225728035
			],
			"type":"VEC3"
		},
		{
			"bufferView":6,
			"componentType":5126,
			"count":90,
			"type":"VEC3"
		},
		{
			"bufferView":7,
			"componentType":5126,
			"count":90,
			"type":"VEC2"
		},
		{
			"bufferView":8,
			"componentType":5126,
			"count":90,
			"type":"VEC4"
		},
		{
			"bufferView":9,
			"componentType":5123,
			"count":420,
			"type":"SCALAR"
		},
		{
			"bufferView":10,
			"componentType":5126,
			"count":306,
			"max":[
				0.14499999582767487,
				-0.011631864123046398,
				0.03720325231552124
			],
			"min":[
				-0.09298250079154968,
				-0.06564010679721832,
				-0.03720325231552124
			],
			"type":"VEC3"
		},
		{
			"bufferView":11,
			"componentType":5126,
			"count":306,
			"type":"VEC3"
		},
		{
			"bufferView":12,
			"componentType":5126,
			"count":306,
			"type":"VEC2"
		},
		{
			"bufferView":13,
			"componentType":5126,
			"count":306,
			"type":"VEC4"
		},
		{
			"bufferView":14,
			"componentType":5123,
			"count":1380,
			"type":"SCALAR"
		},
		{
			"bufferView":15,
			"componentType":5126,
			"count":153,
			"max":[
				-0.1679999977350235,
				0.09239999949932098,
				0.0009447024203836918
			],
			"min":[
				-0.24104873836040497,
				-0.09239999949932098,
				-0.0009548589587211609
			],
			"type":"VEC3"
		},
		{
			"bufferView":16,
			"componentType":5126,
			"count":153,
			"type":"VEC3"
		},
		{
			"bufferView":17,
			"componentType":5126,
			"count":153,
			"type":"VEC2"
		},
		{
			"bufferView":18,
			"componentType":5126,
			"count":153,
			"type":"VEC4"
		},
		{
			"bufferView":19,
			"componentType":5123,
			"count":768,
			"type":"SCALAR"
		},
		{
			"bufferView":20,
			"componentType":5126,
			"count":302,
			"max":[
				0.21023187041282654,
				0.022067729383707047,
				0.020385045558214188
			],
			"min":[
				0.19736811518669128,
				0.009249115362763405,
				-0.020385045558214188
			],
			"type":"VEC3"
		},
		{
			"bufferView":21,
			"componentType":5126,
			"count":302,
			"type":"VEC3"
		},
		{
			"bufferView":22,
			"componentType":5126,
			"count":302,
			"type":"VEC2"
		},
		{
			"bufferView":23,
			"componentType":5126,
			"count":302,
			"type":"VEC4"
		},
		{
			"bufferView":24,
			"componentType":5123,
			"count":1344,
			"type":"SCALAR"
		},
		{
			"bufferView":25,
			"componentType":5126,
			"count":206,
			"max":[
				0.20791639387607574,
				0.019711371511220932,
				0.02064029686152935
			],
			"min":[
				0.19968359172344208,
				0.011713147163391113,
				-0.02064029686152935
			],
			"type":"VEC3"
		},
		{
			"bufferView":26,
			"componentType":5126,
			"count":206,
			"type":"VEC3"
		},
		{
			"bufferView":27,
			"componentType":5126,
			"count":206,
			"type":"VEC2"
		},
		{
			"bufferView":28,
			"componentType":5126,
			"count":206,
			"type":"VEC4"
		},
		{
			"bufferView":29,
			"componentType":5123,
			"count":840,
			"type":"SCALAR"
		},
		{
			"bufferView":30,
			"componentType":5126,
			"count":196,
			"max":[
				0.24301767349243164,
				-0.009134790860116482,
				0.031169192865490913
			],
			"min":[
				0.21058689057826996,
				-0.05498843267560005,
				-0.031142031773924828
			],
			"type":"VEC3"
		},
		{
			"bufferView":31,
			"componentType":5126,
			"count":196,
			"type":"VEC3"
		},
		{
			"bufferView":32,
			"componentType":5126,
			"count":196,
			"type":"VEC2"
		},
		{
			"bufferView":33,
			"componentType":5126,
			"count":196,
			"type":"VEC4"
		},
		{
			"bufferView":34,
			"componentType":5123,
			"count":1080,
			"type":"SCALAR"
		}
	],
	"bufferViews":[
		{
			"buffer":0,
			"byteLength":45816,
			"byteOffset":0,
			"target":34962
		},
		{
			"buffer":0,
			"byteLength":45816,
			"byteOffset":45816,
			"target":34962
		},
		{
			"buffer":0,
			"byteLength":30544,
			"byteOffset":91632,
			"target":34962
		},
		{
			"buffer":0,
			"byteLength":61088,
			"byteOffset":122176,
			"target":34962
		},
		{
			"buffer":0,
			"byteLength":42048,
			"byteOffset":183264,
			"target":34963
		},
		{
			"buffer":0,
			"byteLength":1080,
			"byteOffset":225312,
			"target":34962
		},
		{
			"buffer":0,
			"byteLength":1080,
			"byteOffset":226392,
			"target":34962
		},
		{
			"buffer":0,
			"byteLength":720,
			"byteOffset":227472,
			"target":34962
		},
		{
			"buffer":0,
			"byteLength":1440,
			"byteOffset":228192,
			"target":34962
		},
		{
			"buffer":0,
			"byteLength":840,
			"byteOffset":229632,
			"target":34963
		},
		{
			"buffer":0,
			"byteLength":3672,
			"byteOffset":230472,
			"target":34962
		},
		{
			"buffer":0,
			"byteLength":3672,
			"byteOffset":234144,
			"target":34962
		},
		{
			"buffer":0,
			"byteLength":2448,
			"byteOffset":237816,
			"target":34962
		},
		{
			"buffer":0,
			"byteLength":4896,
			"byteOffset":240264,
			"target":34962
		},
		{
			"buffer":0,
			"byteLength":2760,
			"byteOffset":245160,
			"target":34963
		},
		{
			"buffer":0,
			"byteLength":1836,
			"byteOffset":247920,
			"target":34962
		},
		{
			"buffer":0,
			"byteLength":1836,
			"byteOffset":249756,
			"target":34962
		},
		{
			"buffer":0,
			"byteLength":1224,
			"byteOffset":251592,
			"target":34962
		},
		{
			"buffer":0,
			"byteLength":2448,
			"byteOffset":252816,
			"target":34962
		},
		{
			"buffer":0,
			"byteLength":1536,
			"byteOffset":255264,
			"target":34963
		},
		{
			"buffer":0,
			"byteLength":3624,
			"byteOffset":256800,
			"target":34962
		},
		{
			"buffer":0,
			"byteLength":3624,
			"byteOffset":260424,
			"target":34962
		},
		{
			"buffer":0,
			"byteLength":2416,
			"byteOffset":264048,
			"target":34962
		},
		{
			"buffer":0,
			"byteLength":4832,
			"byteOffset":266464,
			"target":34962
		},
		{
			"buffer":0,
			"byteLength":2688,
			"byteOffset":271296,
			"target":34963
		},
		{
			"buffer":0,
			"byteLength":2472,
			"byteOffset":273984,
			"target":34962
		},
		{
			"buffer":0,
			"byteLength":2472,
			"byteOffset":276456,
			"target":34962
		},
		{
			"buffer":0,
			"byteLength":1648,
			"byteOffset":278928,
			"target":34962
		},
		{
			"buffer":0,
			"byteLength":3296,
			"byteOffset":280576,
			"target":34962
		},
		{
			"buffer":0,
			"byteLength":1680,
			"byteOffset":283872,
			"target":34963
		},
		{
			"buffer":0,
			"byteLength":2352,
			"byteOffset":285552,
			"target":34962
		},
		{
			"buffer":0,
			"byteLength":2352,
			"byteOffset":287904,
			"target":34962
		},
		{
			"buffer":0,
			"byteLength":1568,
			"byteOffset":290256,
			"target":34962
		},
		{
			"buffer":0,
			"byteLength":3136,
			"byteOffset":291824,
			"target":34962
		},
		{
			"buffer":0,
			"byteLength":2160,
			"byteOffset":294960,
			"target":34963
		}
	],
	"samplers":[
		{
			"magFilter":9729,
			"minFilter":9987
		}
	],
	"buffers":[
		{
			"byteLength":297120,
			"uri":"fish_barbel.bin"
		}
	]
}
