{
	"asset":{
		"generator":"Khronos glTF Blender I/O v4.4.56",
		"version":"2.0"
	},
	"extensionsUsed":[
		"KHR_materials_clearcoat",
		"KHR_materials_specular"
	],
	"scene":0,
	"scenes":[
		{
			"extras":{
				"revision":2
			},
			"name":"Scene",
			"nodes":[
				0
			]
		}
	],
	"nodes":[
		{
			"mesh":0,
			"name":"fish_perch"
		}
	],
	"materials":[
		{
			"extensions":{
				"KHR_materials_clearcoat":{
					"clearcoatFactor":0.3499999940395355
				},
				"KHR_materials_specular":{
					"specularColorFactor":[
						1.2000000476837158,
						1.2000000476837158,
						1.2000000476837158
					]
				}
			},
			"name":"fish_perch_skin",
			"normalTexture":{
				"index":0
			},
			"pbrMetallicRoughness":{
				"baseColorTexture":{
					"index":1
				},
				"metallicFactor":0,
				"roughnessFactor":0.30000001192092896
			}
		},
		{
			"doubleSided":true,
			"name":"fish_perch_spiny",
			"normalTexture":{
				"index":2
			},
			"pbrMetallicRoughness":{
				"baseColorTexture":{
					"index":3
				},
				"metallicFactor":0,
				"roughnessFactor":0.3499999940395355
			}
		},
		{
			"doubleSided":true,
			"name":"fish_perch_dorsal",
			"normalTexture":{
				"index":4
			},
			"pbrMetallicRoughness":{
				"baseColorTexture":{
					"index":5
				},
				"metallicFactor":0,
				"roughnessFactor":0.3499999940395355
			}
		},
		{
			"doubleSided":true,
			"name":"fish_perch_paired",
			"normalTexture":{
				"index":6
			},
			"pbrMetallicRoughness":{
				"baseColorTexture":{
					"index":7
				},
				"metallicFactor":0,
				"roughnessFactor":0.3499999940395355
			}
		},
		{
			"doubleSided":true,
			"name":"fish_perch_caudal",
			"normalTexture":{
				"index":8
			},
			"pbrMetallicRoughness":{
				"baseColorTexture":{
					"index":9
				},
				"metallicFactor":0,
				"roughnessFactor":0.3499999940395355
			}
		},
		{
			"extensions":{
				"KHR_materials_specular":{
					"specularColorFactor":[
						1.7999999523162842,
						1.7999999523162842,
						1.7999999523162842
					]
				}
			},
			"name":"fish_perch_iris",
			"pbrMetallicRoughness":{
				"baseColorFactor":[
					0.7484140992164612,
					0.4479884207248688,
					0.03310476616024971,
					1
				],
				"metallicFactor":0,
				"roughnessFactor":0.07999999821186066
			}
		},
		{
			"extensions":{
				"KHR_materials_specular":{
					"specularColorFactor":[
						2.0,
						2.0,
						2.0
					]
				}
			},
			"name":"fish_perch_pupil",
			"pbrMetallicRoughness":{
				"baseColorFactor":[
					0.0007739937864243984,
					0.0007739937864243984,
					0.0009287925786338747,
					1
				],
				"metallicFactor":0,
				"roughnessFactor":0.029999999329447746
			}
		}
	],
	"meshes":[
		{
			"name":"fish_perch",
			"primitives":[
				{
					"attributes":{
						"POSITION":0,
						"NORMAL":1,
						"TEXCOORD_0":2,
						"TANGENT":3
					},
					"indices":4,
					"material":0
				},
				{
					"attributes":{
						"POSITION":5,
						"NORMAL":6,
						"TEXCOORD_0":7,
						"TANGENT":8
					},
					"indices":9,
					"material":1
				},
				{
					"attributes":{
						"POSITION":10,
						"NORMAL":11,
						"TEXCOORD_0":12,
						"TANGENT":13
					},
					"indices":9,
					"material":2
				},
				{
					"attributes":{
						"POSITION":14,
						"NORMAL":15,
						"TEXCOORD_0":16,
						"TANGENT":17
					},
					"indices":18,
					"material":3
				},
				{
					"attributes":{
						"POSITION":19,
						"NORMAL":20,
						"TEXCOORD_0":21,
						"TANGENT":22
					},
					"indices":23,
					"material":4
				},
				{
					"attributes":{
						"POSITION":24,
						"NORMAL":25,
						"TEXCOORD_0":26,
						"TANGENT":27
					},
					"indices":28,
					"material":5
				},
				{
					"attributes":{
						"POSITION":29,
						"NORMAL":30,
						"TEXCOORD_0":31,
						"TANGENT":32
					},
					"indices":33,
					"material":6
				}
			]
		}
	],
	"textures":[
		{
			"sampler":0,
			"source":0
		},
		{
			"sampler":0,
			"source":1
		},
		{
			"sampler":0,
			"source":2
		},
		{
			"sampler":0,
			"source":3
		},
		{
			"sampler":0,
			"source":4
		},
		{
			"sampler":0,
			"source":5
		},
		{
			"sampler":0,
			"source":6
		},
		{
			"sampler":0,
			"source":7
		},
		{
			"sampler":0,
			"source":8
		},
		{
			"sampler":0,
			"source":9
		}
	],
	"images":[
		{
			"mimeType":"image/jpeg",
			"name":"fish_perch_body_nor",
			"uri":"textures/fish_perch_body_nor.jpg"
		},
		{
			"mimeType":"image/jpeg",
			"name":"fish_perch_body",
			"uri":"textures/fish_perch_body.jpg"
		},
		{
			"mimeType":"image/jpeg",
			"name":"fish_perch_spiny_nor",
			"uri":"textures/fish_perch_spiny_nor.jpg"
		},
		{
			"mimeType":"image/jpeg",
			"name":"fish_perch_spiny",
			"uri":"textures/fish_perch_spiny.jpg"
		},
		{
			"mimeType":"image/jpeg",
			"name":"fish_perch_dorsal_nor",
			"uri":"textures/fish_perch_dorsal_nor.jpg"
		},
		{
			"mimeType":"image/jpeg",
			"name":"fish_perch_dorsal",
			"uri":"textures/fish_perch_dorsal.jpg"
		},
		{
			"mimeType":"image/jpeg",
			"name":"fish_perch_paired_nor",
			"uri":"textures/fish_perch_paired_nor.jpg"
		},
		{
			"mimeType":"image/jpeg",
			"name":"fish_perch_paired",
			"uri":"textures/fish_perch_paired.jpg"
		},
		{
			"mimeType":"image/jpeg",
			"name":"fish_perch_caudal_nor",
			"uri":"textures/fish_perch_caudal_nor.jpg"
		},
		{
			"mimeType":"image/jpeg",
			"name":"fish_perch_caudal",
			"uri":"textures/fish_perch_caudal.jpg"
		}
	],
	"accessors":[
		{
			"bufferView":0,
			"componentType":5126,
			"count":3818,
			"max":[
				0.12700000405311584,
				0.03857520595192909,
				0.014520778320729733
			],
			"min":[
				-0.08349999785423279,
				-0.02571680396795273,
				-0.014520778320729733
			],
			"type":"VEC3"
		},
		{
			"bufferView":1,
			"componentType":5126,
			"count":3818,
			"type":"VEC3"
		},
		{
			"bufferView":2,
			"componentType":5126,
			"count":3818,
			"type":"VEC2"
		},
		{
			"bufferView":3,
			"componentType":5126,
			"count":3818,
			"type":"VEC4"
		},
		{
			"bufferView":4,
			"componentType":5123,
			"count":21024,
			"type":"SCALAR"
		},
		{
			"bufferView":5,
			"componentType":5126,
			"count":90,
			"max":[
				0.06897500157356262,
				0.08736979961395264,
				0.0008819391950964928
			],
			"min":[
				0.01417425088584423,
				0.03414617478847504,
				-0.0007141231326386333
			],
			"type":"VEC3"
		},
		{
			"bufferView":6,
			"componentType":5126,
			"count":90,
			"type":"VEC3"
		},
		{
			"bufferView":7,
			"componentType":5126,
			"count":90,
			"type":"VEC2"
		},
		{
			"bufferView":8,
			"componentType":5126,
			"count":90,
			"type":"VEC4"
		},
		{
			"bufferView":9,
			"componentType":5123,
			"count":420,
			"type":"SCALAR"
		},
		{
			"bufferView":10,
			"componentType":5126,
			"count":90,
			"max":[
				0.015025000087916851,
				0.06585793197154999,
				0.0006159414770081639
			],
			"min":[
				-0.020602751523256302,
				0.022770347073674202,
				-0.000628334644716233
			],
			"type":"VEC3"
		},
		{
			"bufferView":11,
			"componentType":5126,
			"count":90,
			"type":"VEC3"
		},
		{
			"bufferView":12,
			"componentType":5126,
			"count":90,
			"type":"VEC2"
		},
		{
			"bufferView":13,
			"componentType":5126,
			"count":90,
			"type":"VEC4"
		},
		{
			"bufferView":14,
			"componentType":5126,
			"count":306,
			"max":[
				0.0710500031709671,
				-0.009343616664409637,
				0.02502954751253128
			],
			"min":[
				-0.038827475160360336,
				-0.04295147955417633,
				-0.02502954751253128
			],
			"type":"VEC3"
		},
		{
			"bufferView":15,
			"componentType":5126,
			"count":306,
			"type":"VEC3"
		},
		{
			"bufferView":16,
			"componentType":5126,
			"count":306,
			"type":"VEC2"
		},
		{
			"bufferView":17,
			"componentType":5126,
			"count":306,
			"type":"VEC4"
		},
		{
			"bufferView":18,
			"componentType":5123,
			"count":1380,
			"type":"SCALAR"
		},
		{
			"bufferView":19,
			"componentType":5126,
			"count":153,
			"max":[
				-0.08150000125169754,
				0.04149999842047691,
				0.000501873146276921
			],
			"min":[
				-0.11999308317899704,
				-0.04149999842047691,
				-0.0005072688218206167
			],
			"type":"VEC3"
		},
		{
			"bufferView":20,
			"componentType":5126,
			"count":153,
			"type":"VEC3"
		},
		{
			"bufferView":21,
			"componentType":5126,
			"count":153,
			"type":"VEC2"
		},
		{
			"bufferView":22,
			"componentType":5126,
			"count":153,
			"type":"VEC4"
		},
		{
			"bufferView":23,
			"componentType":5123,
			"count":768,
			"type":"SCALAR"
		},
		{
			"bufferView":24,
			"componentType":5126,
			"count":302,
			"max":[
				0.11302392929792404,
				0.018408065661787987,
				0.010788952931761742
			],
			"min":[
				0.09547606855630875,
				0.0008960338309407234,
				-0.010788952931761742
			],
			"type":"VEC3"
		},
		{
			"bufferView":25,
			"componentType":5126,
			"count":302,
			"type":"VEC3"
		},
		{
			"bufferView":26,
			"componentType":5126,
			"count":302,
			"type":"VEC2"
		},
		{
			"bufferView":27,
			"componentType":5126,
			"count":302,
			"type":"VEC4"
		},
		{
			"bufferView":28,
			"componentType":5123,
			"count":1344,
			"type":"SCALAR"
		},
		{
			"bufferView":29,
			"componentType":5126,
			"count":206,
			"max":[
				0.10986531525850296,
				0.015171438455581665,
				0.011139193549752235
			],
			"min":[
				0.09863468259572983,
				0.004244737792760134,
				-0.011139193549752235
			],
			"type":"VEC3"
		},
		{
			"bufferView":30,
			"componentType":5126,
			"count":206,
			"type":"VEC3"
		},
		{
			"bufferView":31,
			"componentType":5126,
			"count":206,
			"type":"VEC2"
		},
		{
			"bufferView":32,
			"componentType":5126,
			"count":206,
			"type":"VEC4"
		},
		{
			"bufferView":33,
			"componentType":5123,
			"count":840,
			"type":"SCALAR"
		}
	],
	"bufferViews":[
		{
			"buffer":0,
			"byteLength":45816,
			"byteOffset":0,
			"target":34962
		},
		{
			"buffer":0,
			"byteLength":45816,
			"byteOffset":45816,
			"target":34962
		},
		{
			"buffer":0,
			"byteLength":30544,
			"byteOffset":91632,
			"target":34962
		},
		{
			"buffer":0,
			"byteLength":61088,
			"byteOffset":122176,
			"target":34962
		},
		{
			"buffer":0,
			"byteLength":42048,
			"byteOffset":183264,
			"target":34963
		},
		{
			"buffer":0,
			"byteLength":1080,
			"byteOffset":225312,
			"target":34962
		},
		{
			"buffer":0,
			"byteLength":1080,
			"byteOffset":226392,
			"target":34962
		},
		{
			"buffer":0,
			"byteLength":720,
			"byteOffset":227472,
			"target":34962
		},
		{
			"buffer":0,
			"byteLength":1440,
			"byteOffset":228192,
			"target":34962
		},
		{
			"buffer":0,
			"byteLength":840,
			"byteOffset":229632,
			"target":34963
		},
		{
			"buffer":0,
			"byteLength":1080,
			"byteOffset":230472,
			"target":34962
		},
		{
			"buffer":0,
			"byteLength":1080,
			"byteOffset":231552,
			"target":34962
		},
		{
			"buffer":0,
			"byteLength":720,
			"byteOffset":232632,
			"target":34962
		},
		{
			"buffer":0,
			"byteLength":1440,
			"byteOffset":233352,
			"target":34962
		},
		{
			"buffer":0,
			"byteLength":3672,
			"byteOffset":234792,
			"target":34962
		},
		{
			"buffer":0,
			"byteLength":3672,
			"byteOffset":238464,
			"target":34962
		},
		{
			"buffer":0,
			"byteLength":2448,
			"byteOffset":242136,
			"target":34962
		},
		{
			"buffer":0,
			"byteLength":4896,
			"byteOffset":244584,
			"target":34962
		},
		{
			"buffer":0,
			"byteLength":2760,
			"byteOffset":249480,
			"target":34963
		},
		{
			"buffer":0,
			"byteLength":1836,
			"byteOffset":252240,
			"target":34962
		},
		{
			"buffer":0,
			"byteLength":1836,
			"byteOffset":254076,
			"target":34962
		},
		{
			"buffer":0,
			"byteLength":1224,
			"byteOffset":255912,
			"target":34962
		},
		{
			"buffer":0,
			"byteLength":2448,
			"byteOffset":257136,
			"target":34962
		},
		{
			"buffer":0,
			"byteLength":1536,
			"byteOffset":259584,
			"target":34963
		},
		{
			"buffer":0,
			"byteLength":3624,
			"byteOffset":261120,
			"target":34962
		},
		{
			"buffer":0,
			"byteLength":3624,
			"byteOffset":264744,
			"target":34962
		},
		{
			"buffer":0,
			"byteLength":2416,
			"byteOffset":268368,
			"target":34962
		},
		{
			"buffer":0,
			"byteLength":4832,
			"byteOffset":270784,
			"target":34962
		},
		{
			"buffer":0,
			"byteLength":2688,
			"byteOffset":275616,
			"target":34963
		},
		{
			"buffer":0,
			"byteLength":2472,
			"byteOffset":278304,
			"target":34962
		},
		{
			"buffer":0,
			"byteLength":2472,
			"byteOffset":280776,
			"target":34962
		},
		{
			"buffer":0,
			"byteLength":1648,
			"byteOffset":283248,
			"target":34962
		},
		{
			"buffer":0,
			"byteLength":3296,
			"byteOffset":284896,
			"target":34962
		},
		{
			"buffer":0,
			"byteLength":1680,
			"byteOffset":288192,
			"target":34963
		}
	],
	"samplers":[
		{
			"magFilter":9729,
			"minFilter":9987
		}
	],
	"buffers":[
		{
			"byteLength":289872,
			"uri":"fish_perch.bin"
		}
	]
}
