{
	"asset":{
		"generator":"Khronos glTF Blender I/O v4.4.56",
		"version":"2.0"
	},
	"extensionsUsed":[
		"KHR_materials_clearcoat"
	],
	"scene":0,
	"scenes":[
		{
			"name":"Scene",
			"nodes":[
				0
			]
		}
	],
	"nodes":[
		{
			"mesh":0,
			"name":"fishing_float"
		}
	],
	"materials":[
		{
			"extensions":{
				"KHR_materials_clearcoat":{
					"clearcoatFactor":0.5
				}
			},
			"name":"float_white",
			"pbrMetallicRoughness":{
				"baseColorFactor":[
					0.8275708556175232,
					0.8275708556175232,
					0.7874122858047485,
					1
				],
				"metallicFactor":0,
				"roughnessFactor":0.25
			}
		},
		{
			"name":"float_band",
			"pbrMetallicRoughness":{
				"baseColorFactor":[
					0.0030959751456975937,
					0.0030959751456975937,
					0.0030959751456975937,
					1
				],
				"metallicFactor":0,
				"roughnessFactor":0.30000001192092896
			}
		},
		{
			"extensions":{
				"KHR_materials_clearcoat":{
					"clearcoatFactor":0.6000000238418579
				}
			},
			"name":"float_red",
			"pbrMetallicRoughness":{
				"baseColorFactor":[
					0.6920710802078247,
					0.007194409146904945,
					0.0030959751456975937,
					1
				],
				"metallicFactor":0,
				"roughnessFactor":0.20000000298023224
			}
		},
		{
			"name":"float_tip",
			"pbrMetallicRoughness":{
				"baseColorFactor":[
					1,
					0.17064493894577026,
					0.0015479875728487968,
					1
				],
				"metallicFactor":0,
				"roughnessFactor":0.30000001192092896
			}
		}
	],
	"meshes":[
		{
			"name":"fishing_float",
			"primitives":[
				{
					"attributes":{
						"POSITION":0,
						"NORMAL":1,
						"TEXCOORD_0":2,
						"TANGENT":3
					},
					"indices":4,
					"material":0
				},
				{
					"attributes":{
						"POSITION":5,
						"NORMAL":6,
						"TEXCOORD_0":7,
						"TANGENT":8
					},
					"indices":9,
					"material":1
				},
				{
					"attributes":{
						"POSITION":10,
						"NORMAL":11,
						"TEXCOORD_0":12,
						"TANGENT":13
					},
					"indices":14,
					"material":2
				},
				{
					"attributes":{
						"POSITION":15,
						"NORMAL":16,
						"TEXCOORD_0":17,
						"TANGENT":18
					},
					"indices":19,
					"material":3
				}
			]
		}
	],
	"accessors":[
		{
			"bufferView":0,
			"componentType":5126,
			"count":129,
			"max":[
				0.010999999940395355,
				0.03999999910593033,
				0.010832885280251503
			],
			"min":[
				-0.010999999940395355,
				-0.024000000208616257,
				-0.010832885280251503
			],
			"type":"VEC3"
		},
		{
			"bufferView":1,
			"componentType":5126,
			"count":129,
			"type":"VEC3"
		},
		{
			"bufferView":2,
			"componentType":5126,
			"count":129,
			"type":"VEC2"
		},
		{
			"bufferView":3,
			"componentType":5126,
			"count":129,
			"type":"VEC4"
		},
		{
			"bufferView":4,
			"componentType":5123,
			"count":480,
			"type":"SCALAR"
		},
		{
			"bufferView":5,
			"componentType":5126,
			"count":94,
			"max":[
				0.010999999940395355,
				0,
				0.010832885280251503
			],
			"min":[
				-0.010999999940395355,
				-0.029063714668154716,
				-0.010832885280251503
			],
			"type":"VEC3"
		},
		{
			"bufferView":6,
			"componentType":5126,
			"count":94,
			"type":"VEC3"
		},
		{
			"bufferView":7,
			"componentType":5126,
			"count":94,
			"type":"VEC2"
		},
		{
			"bufferView":8,
			"componentType":5126,
			"count":94,
			"type":"VEC4"
		},
		{
			"bufferView":9,
			"componentType":5123,
			"count":423,
			"type":"SCALAR"
		},
		{
			"bufferView":10,
			"componentType":5126,
			"count":95,
			"max":[
				0.010999999940395355,
				0.01899999938905239,
				0.010832885280251503
			],
			"min":[
				-0.010999999940395355,
				0,
				-0.010832885280251503
			],
			"type":"VEC3"
		},
		{
			"bufferView":11,
			"componentType":5126,
			"count":95,
			"type":"VEC3"
		},
		{
			"bufferView":12,
			"componentType":5126,
			"count":95,
			"type":"VEC2"
		},
		{
			"bufferView":13,
			"componentType":5126,
			"count":95,
			"type":"VEC4"
		},
		{
			"bufferView":14,
			"componentType":5123,
			"count":432,
			"type":"SCALAR"
		},
		{
			"bufferView":15,
			"componentType":5126,
			"count":31,
			"max":[
				0.0012000000569969416,
				0.05299999937415123,
				0.0012000000569969416
			],
			"min":[
				-0.0012000000569969416,
				0.03999999910593033,
				-0.0012000000569969416
			],
			"type":"VEC3"
		},
		{
			"bufferView":16,
			"componentType":5126,
			"count":31,
			"type":"VEC3"
		},
		{
			"bufferView":17,
			"componentType":5126,
			"count":31,
			"type":"VEC2"
		},
		{
			"bufferView":18,
			"componentType":5126,
			"count":31,
			"type":"VEC4"
		},
		{
			"bufferView":19,
			"componentType":5123,
			"count":96,
			"type":"SCALAR"
		}
	],
	"bufferViews":[
		{
			"buffer":0,
			"byteLength":1548,
			"byteOffset":0,
			"target":34962
		},
		{
			"buffer":0,
			"byteLength":1548,
			"byteOffset":1548,
			"target":34962
		},
		{
			"buffer":0,
			"byteLength":1032,
			"byteOffset":3096,
			"target":34962
		},
		{
			"buffer":0,
			"byteLength":2064,
			"byteOffset":4128,
			"target":34962
		},
		{
			"buffer":0,
			"byteLength":960,
			"byteOffset":6192,
			"target":34963
		},
		{
			"buffer":0,
			"byteLength":1128,
			"byteOffset":7152,
			"target":34962
		},
		{
			"buffer":0,
			"byteLength":1128,
			"byteOffset":8280,
			"target":34962
		},
		{
			"buffer":0,
			"byteLength":752,
			"byteOffset":9408,
			"target":34962
		},
		{
			"buffer":0,
			"byteLength":1504,
			"byteOffset":10160,
			"target":34962
		},
		{
			"buffer":0,
			"byteLength":846,
			"byteOffset":11664,
			"target":34963
		},
		{
			"buffer":0,
			"byteLength":1140,
			"byteOffset":12512,
			"target":34962
		},
		{
			"buffer":0,
			"byteLength":1140,
			"byteOffset":13652,
			"target":34962
		},
		{
			"buffer":0,
			"byteLength":760,
			"byteOffset":14792,
			"target":34962
		},
		{
			"buffer":0,
			"byteLength":1520,
			"byteOffset":15552,
			"target":34962
		},
		{
			"buffer":0,
			"byteLength":864,
			"byteOffset":17072,
			"target":34963
		},
		{
			"buffer":0,
			"byteLength":372,
			"byteOffset":17936,
			"target":34962
		},
		{
			"buffer":0,
			"byteLength":372,
			"byteOffset":18308,
			"target":34962
		},
		{
			"buffer":0,
			"byteLength":248,
			"byteOffset":18680,
			"target":34962
		},
		{
			"buffer":0,
			"byteLength":496,
			"byteOffset":18928,
			"target":34962
		},
		{
			"buffer":0,
			"byteLength":192,
			"byteOffset":19424,
			"target":34963
		}
	],
	"buffers":[
		{
			"byteLength":19616,
			"uri":"fishing_float.bin"
		}
	]
}
