{
	"asset":{
		"generator":"Khronos glTF Blender I/O v4.4.56",
		"version":"2.0"
	},
	"extensionsUsed":[
		"KHR_materials_clearcoat",
		"KHR_materials_specular"
	],
	"scene":0,
	"scenes":[
		{
			"name":"Scene",
			"nodes":[
				0
			]
		}
	],
	"nodes":[
		{
			"mesh":0,
			"name":"fish_crayfish"
		}
	],
	"materials":[
		{
			"extensions":{
				"KHR_materials_clearcoat":{
					"clearcoatFactor":0.4000000059604645
				}
			},
			"name":"fish_crayfish_shell",
			"normalTexture":{
				"index":0
			},
			"pbrMetallicRoughness":{
				"baseColorTexture":{
					"index":1
				},
				"metallicFactor":0,
				"roughnessFactor":0.30000001192092896
			}
		},
		{
			"extensions":{
				"KHR_materials_specular":{
					"specularColorFactor":[
						2.0,
						2.0,
						2.0
					]
				}
			},
			"name":"fish_crayfish_eye",
			"pbrMetallicRoughness":{
				"baseColorFactor":[
					0.0015479875728487968,
					0.0015479875728487968,
					0.0015479875728487968,
					1
				],
				"metallicFactor":0,
				"roughnessFactor":0.05000000074505806
			}
		}
	],
	"meshes":[
		{
			"name":"fish_crayfish",
			"primitives":[
				{
					"attributes":{
						"POSITION":0,
						"NORMAL":1,
						"TEXCOORD_0":2,
						"TANGENT":3
					},
					"indices":4,
					"material":0
				},
				{
					"attributes":{
						"POSITION":5,
						"NORMAL":6,
						"TEXCOORD_0":7,
						"TANGENT":8
					},
					"indices":9,
					"material":1
				}
			]
		}
	],
	"textures":[
		{
			"sampler":0,
			"source":0
		},
		{
			"sampler":0,
			"source":1
		}
	],
	"images":[
		{
			"mimeType":"image/jpeg",
			"name":"crayfish_shell_nor",
			"uri":"textures/crayfish_shell_nor.jpg"
		},
		{
			"mimeType":"image/jpeg",
			"name":"crayfish_shell",
			"uri":"textures/crayfish_shell.jpg"
		}
	],
	"accessors":[
		{
			"bufferView":0,
			"componentType":5126,
			"count":2806,
			"max":[
				0.10871753096580505,
				0.01600000075995922,
				0.0811491534113884
			],
			"min":[
				-0.08641268312931061,
				-0.020312443375587463,
				-0.0811491534113884
			],
			"type":"VEC3"
		},
		{
			"bufferView":1,
			"componentType":5126,
			"count":2806,
			"type":"VEC3"
		},
		{
			"bufferView":2,
			"componentType":5126,
			"count":2806,
			"type":"VEC2"
		},
		{
			"bufferView":3,
			"componentType":5126,
			"count":2806,
			"type":"VEC4"
		},
		{
			"bufferView":4,
			"componentType":5123,
			"count":10296,
			"type":"SCALAR"
		},
		{
			"bufferView":5,
			"componentType":5126,
			"count":104,
			"max":[
				0.05209232494235039,
				0.010200000368058681,
				0.008592324331402779
			],
			"min":[
				0.04790767654776573,
				0.005800000391900539,
				-0.008592324331402779
			],
			"type":"VEC3"
		},
		{
			"bufferView":6,
			"componentType":5126,
			"count":104,
			"type":"VEC3"
		},
		{
			"bufferView":7,
			"componentType":5126,
			"count":104,
			"type":"VEC2"
		},
		{
			"bufferView":8,
			"componentType":5126,
			"count":104,
			"type":"VEC4"
		},
		{
			"bufferView":9,
			"componentType":5123,
			"count":384,
			"type":"SCALAR"
		}
	],
	"bufferViews":[
		{
			"buffer":0,
			"byteLength":33672,
			"byteOffset":0,
			"target":34962
		},
		{
			"buffer":0,
			"byteLength":33672,
			"byteOffset":33672,
			"target":34962
		},
		{
			"buffer":0,
			"byteLength":22448,
			"byteOffset":67344,
			"target":34962
		},
		{
			"buffer":0,
			"byteLength":44896,
			"byteOffset":89792,
			"target":34962
		},
		{
			"buffer":0,
			"byteLength":20592,
			"byteOffset":134688,
			"target":34963
		},
		{
			"buffer":0,
			"byteLength":1248,
			"byteOffset":155280,
			"target":34962
		},
		{
			"buffer":0,
			"byteLength":1248,
			"byteOffset":156528,
			"target":34962
		},
		{
			"buffer":0,
			"byteLength":832,
			"byteOffset":157776,
			"target":34962
		},
		{
			"buffer":0,
			"byteLength":1664,
			"byteOffset":158608,
			"target":34962
		},
		{
			"buffer":0,
			"byteLength":768,
			"byteOffset":160272,
			"target":34963
		}
	],
	"samplers":[
		{
			"magFilter":9729,
			"minFilter":9987
		}
	],
	"buffers":[
		{
			"byteLength":161040,
			"uri":"fish_crayfish.bin"
		}
	]
}
