{
	"asset":{
		"generator":"Khronos glTF Blender I/O v4.4.56",
		"version":"2.0"
	},
	"extensionsUsed":[
		"KHR_materials_clearcoat",
		"KHR_materials_specular"
	],
	"scene":0,
	"scenes":[
		{
			"name":"Scene",
			"nodes":[
				0
			]
		}
	],
	"nodes":[
		{
			"mesh":0,
			"name":"fish_eel"
		}
	],
	"materials":[
		{
			"extensions":{
				"KHR_materials_clearcoat":{
					"clearcoatFactor":0.3499999940395355
				},
				"KHR_materials_specular":{
					"specularColorFactor":[
						1.2000000476837158,
						1.2000000476837158,
						1.2000000476837158
					]
				}
			},
			"name":"fish_eel_skin",
			"normalTexture":{
				"index":0
			},
			"pbrMetallicRoughness":{
				"baseColorTexture":{
					"index":1
				},
				"metallicFactor":0,
				"roughnessFactor":0.2199999988079071
			}
		},
		{
			"doubleSided":true,
			"name":"fish_eel_dorsal",
			"normalTexture":{
				"index":2
			},
			"pbrMetallicRoughness":{
				"baseColorTexture":{
					"index":3
				},
				"metallicFactor":0,
				"roughnessFactor":0.3499999940395355
			}
		},
		{
			"doubleSided":true,
			"name":"fish_eel_paired",
			"normalTexture":{
				"index":4
			},
			"pbrMetallicRoughness":{
				"baseColorTexture":{
					"index":5
				},
				"metallicFactor":0,
				"roughnessFactor":0.3499999940395355
			}
		},
		{
			"doubleSided":true,
			"name":"fish_eel_caudal",
			"normalTexture":{
				"index":6
			},
			"pbrMetallicRoughness":{
				"baseColorTexture":{
					"index":7
				},
				"metallicFactor":0,
				"roughnessFactor":0.3499999940395355
			}
		},
		{
			"extensions":{
				"KHR_materials_specular":{
					"specularColorFactor":[
						1.7999999523162842,
						1.7999999523162842,
						1.7999999523162842
					]
				}
			},
			"name":"fish_eel_iris",
			"pbrMetallicRoughness":{
				"baseColorFactor":[
					0.47699978947639465,
					0.34239163994789124,
					0.07323895394802094,
					1
				],
				"metallicFactor":0,
				"roughnessFactor":0.07999999821186066
			}
		},
		{
			"extensions":{
				"KHR_materials_specular":{
					"specularColorFactor":[
						2.0,
						2.0,
						2.0
					]
				}
			},
			"name":"fish_eel_pupil",
			"pbrMetallicRoughness":{
				"baseColorFactor":[
					0.0007739937864243984,
					0.0007739937864243984,
					0.0009287925786338747,
					1
				],
				"metallicFactor":0,
				"roughnessFactor":0.029999999329447746
			}
		}
	],
	"meshes":[
		{
			"name":"fish_eel",
			"primitives":[
				{
					"attributes":{
						"POSITION":0,
						"NORMAL":1,
						"TEXCOORD_0":2,
						"TANGENT":3
					},
					"indices":4,
					"material":0
				},
				{
					"attributes":{
						"POSITION":5,
						"NORMAL":6,
						"TEXCOORD_0":7,
						"TANGENT":8
					},
					"indices":9,
					"material":1
				},
				{
					"attributes":{
						"POSITION":10,
						"NORMAL":11,
						"TEXCOORD_0":12,
						"TANGENT":13
					},
					"indices":14,
					"material":2
				},
				{
					"attributes":{
						"POSITION":15,
						"NORMAL":16,
						"TEXCOORD_0":17,
						"TANGENT":18
					},
					"indices":19,
					"material":3
				},
				{
					"attributes":{
						"POSITION":20,
						"NORMAL":21,
						"TEXCOORD_0":22,
						"TANGENT":23
					},
					"indices":24,
					"material":4
				},
				{
					"attributes":{
						"POSITION":25,
						"NORMAL":26,
						"TEXCOORD_0":27,
						"TANGENT":28
					},
					"indices":29,
					"material":5
				}
			]
		}
	],
	"textures":[
		{
			"sampler":0,
			"source":0
		},
		{
			"sampler":0,
			"source":1
		},
		{
			"sampler":0,
			"source":2
		},
		{
			"sampler":0,
			"source":3
		},
		{
			"sampler":0,
			"source":4
		},
		{
			"sampler":0,
			"source":5
		},
		{
			"sampler":0,
			"source":6
		},
		{
			"sampler":0,
			"source":7
		}
	],
	"images":[
		{
			"mimeType":"image/jpeg",
			"name":"fish_eel_body_nor",
			"uri":"textures/fish_eel_body_nor.jpg"
		},
		{
			"mimeType":"image/jpeg",
			"name":"fish_eel_body",
			"uri":"textures/fish_eel_body.jpg"
		},
		{
			"mimeType":"image/jpeg",
			"name":"fish_eel_dorsal_nor",
			"uri":"textures/fish_eel_dorsal_nor.jpg"
		},
		{
			"mimeType":"image/jpeg",
			"name":"fish_eel_dorsal",
			"uri":"textures/fish_eel_dorsal.jpg"
		},
		{
			"mimeType":"image/jpeg",
			"name":"fish_eel_paired_nor",
			"uri":"textures/fish_eel_paired_nor.jpg"
		},
		{
			"mimeType":"image/jpeg",
			"name":"fish_eel_paired",
			"uri":"textures/fish_eel_paired.jpg"
		},
		{
			"mimeType":"image/jpeg",
			"name":"fish_eel_caudal_nor",
			"uri":"textures/fish_eel_caudal_nor.jpg"
		},
		{
			"mimeType":"image/jpeg",
			"name":"fish_eel_caudal",
			"uri":"textures/fish_eel_caudal.jpg"
		}
	],
	"accessors":[
		{
			"bufferView":0,
			"componentType":5126,
			"count":3818,
			"max":[
				0.37700000405311584,
				0.03060000017285347,
				0.0251927450299263
			],
			"min":[
				-0.34599998593330383,
				-0.03060000017285347,
				-0.0251927450299263
			],
			"type":"VEC3"
		},
		{
			"bufferView":1,
			"componentType":5126,
			"count":3818,
			"type":"VEC3"
		},
		{
			"bufferView":2,
			"componentType":5126,
			"count":3818,
			"type":"VEC2"
		},
		{
			"bufferView":3,
			"componentType":5126,
			"count":3818,
			"type":"VEC4"
		},
		{
			"bufferView":4,
			"componentType":5123,
			"count":21024,
			"type":"SCALAR"
		},
		{
			"bufferView":5,
			"componentType":5126,
			"count":234,
			"max":[
				0.11580000072717667,
				0.039534877985715866,
				0.0005838158540427685
			],
			"min":[
				-0.34203648567199707,
				0.0077108764089643955,
				-0.0005935787339694798
			],
			"type":"VEC3"
		},
		{
			"bufferView":6,
			"componentType":5126,
			"count":234,
			"type":"VEC3"
		},
		{
			"bufferView":7,
			"componentType":5126,
			"count":234,
			"type":"VEC2"
		},
		{
			"bufferView":8,
			"componentType":5126,
			"count":234,
			"type":"VEC4"
		},
		{
			"bufferView":9,
			"componentType":5123,
			"count":1140,
			"type":"SCALAR"
		},
		{
			"bufferView":10,
			"componentType":5126,
			"count":198,
			"max":[
				0.2669999897480011,
				-0.002508793957531452,
				0.049404554069042206
			],
			"min":[
				-0.34203648567199707,
				-0.039534877985715866,
				-0.049404554069042206
			],
			"type":"VEC3"
		},
		{
			"bufferView":11,
			"componentType":5126,
			"count":198,
			"type":"VEC3"
		},
		{
			"bufferView":12,
			"componentType":5126,
			"count":198,
			"type":"VEC2"
		},
		{
			"bufferView":13,
			"componentType":5126,
			"count":198,
			"type":"VEC4"
		},
		{
			"bufferView":14,
			"componentType":5123,
			"count":900,
			"type":"SCALAR"
		},
		{
			"bufferView":15,
			"componentType":5126,
			"count":153,
			"max":[
				-0.34200000762939453,
				0.04320000112056732,
				0.0003542634076438844
			],
			"min":[
				-0.375,
				-0.04320000112056732,
				-0.00035807210952043533
			],
			"type":"VEC3"
		},
		{
			"bufferView":16,
			"componentType":5126,
			"count":153,
			"type":"VEC3"
		},
		{
			"bufferView":17,
			"componentType":5126,
			"count":153,
			"type":"VEC2"
		},
		{
			"bufferView":18,
			"componentType":5126,
			"count":153,
			"type":"VEC4"
		},
		{
			"bufferView":19,
			"componentType":5123,
			"count":768,
			"type":"SCALAR"
		},
		{
			"bufferView":20,
			"componentType":5126,
			"count":302,
			"max":[
				0.3501887917518616,
				0.014323538169264793,
				0.014082418754696846
			],
			"min":[
				0.33501118421554565,
				-0.0008148718625307083,
				-0.014082418754696846
			],
			"type":"VEC3"
		},
		{
			"bufferView":21,
			"componentType":5126,
			"count":302,
			"type":"VEC3"
		},
		{
			"bufferView":22,
			"componentType":5126,
			"count":302,
			"type":"VEC2"
		},
		{
			"bufferView":23,
			"componentType":5126,
			"count":302,
			"type":"VEC4"
		},
		{
			"bufferView":24,
			"componentType":5123,
			"count":1344,
			"type":"SCALAR"
		},
		{
			"bufferView":25,
			"componentType":5126,
			"count":206,
			"max":[
				0.34745681285858154,
				0.011531665921211243,
				0.01438518613576889
			],
			"min":[
				0.3377431631088257,
				0.0020859967917203903,
				-0.01438518613576889
			],
			"type":"VEC3"
		},
		{
			"bufferView":26,
			"componentType":5126,
			"count":206,
			"type":"VEC3"
		},
		{
			"bufferView":27,
			"componentType":5126,
			"count":206,
			"type":"VEC2"
		},
		{
			"bufferView":28,
			"componentType":5126,
			"count":206,
			"type":"VEC4"
		},
		{
			"bufferView":29,
			"componentType":5123,
			"count":840,
			"type":"SCALAR"
		}
	],
	"bufferViews":[
		{
			"buffer":0,
			"byteLength":45816,
			"byteOffset":0,
			"target":34962
		},
		{
			"buffer":0,
			"byteLength":45816,
			"byteOffset":45816,
			"target":34962
		},
		{
			"buffer":0,
			"byteLength":30544,
			"byteOffset":91632,
			"target":34962
		},
		{
			"buffer":0,
			"byteLength":61088,
			"byteOffset":122176,
			"target":34962
		},
		{
			"buffer":0,
			"byteLength":42048,
			"byteOffset":183264,
			"target":34963
		},
		{
			"buffer":0,
			"byteLength":2808,
			"byteOffset":225312,
			"target":34962
		},
		{
			"buffer":0,
			"byteLength":2808,
			"byteOffset":228120,
			"target":34962
		},
		{
			"buffer":0,
			"byteLength":1872,
			"byteOffset":230928,
			"target":34962
		},
		{
			"buffer":0,
			"byteLength":3744,
			"byteOffset":232800,
			"target":34962
		},
		{
			"buffer":0,
			"byteLength":2280,
			"byteOffset":236544,
			"target":34963
		},
		{
			"buffer":0,
			"byteLength":2376,
			"byteOffset":238824,
			"target":34962
		},
		{
			"buffer":0,
			"byteLength":2376,
			"byteOffset":241200,
			"target":34962
		},
		{
			"buffer":0,
			"byteLength":1584,
			"byteOffset":243576,
			"target":34962
		},
		{
			"buffer":0,
			"byteLength":3168,
			"byteOffset":245160,
			"target":34962
		},
		{
			"buffer":0,
			"byteLength":1800,
			"byteOffset":248328,
			"target":34963
		},
		{
			"buffer":0,
			"byteLength":1836,
			"byteOffset":250128,
			"target":34962
		},
		{
			"buffer":0,
			"byteLength":1836,
			"byteOffset":251964,
			"target":34962
		},
		{
			"buffer":0,
			"byteLength":1224,
			"byteOffset":253800,
			"target":34962
		},
		{
			"buffer":0,
			"byteLength":2448,
			"byteOffset":255024,
			"target":34962
		},
		{
			"buffer":0,
			"byteLength":1536,
			"byteOffset":257472,
			"target":34963
		},
		{
			"buffer":0,
			"byteLength":3624,
			"byteOffset":259008,
			"target":34962
		},
		{
			"buffer":0,
			"byteLength":3624,
			"byteOffset":262632,
			"target":34962
		},
		{
			"buffer":0,
			"byteLength":2416,
			"byteOffset":266256,
			"target":34962
		},
		{
			"buffer":0,
			"byteLength":4832,
			"byteOffset":268672,
			"target":34962
		},
		{
			"buffer":0,
			"byteLength":2688,
			"byteOffset":273504,
			"target":34963
		},
		{
			"buffer":0,
			"byteLength":2472,
			"byteOffset":276192,
			"target":34962
		},
		{
			"buffer":0,
			"byteLength":2472,
			"byteOffset":278664,
			"target":34962
		},
		{
			"buffer":0,
			"byteLength":1648,
			"byteOffset":281136,
			"target":34962
		},
		{
			"buffer":0,
			"byteLength":3296,
			"byteOffset":282784,
			"target":34962
		},
		{
			"buffer":0,
			"byteLength":1680,
			"byteOffset":286080,
			"target":34963
		}
	],
	"samplers":[
		{
			"magFilter":9729,
			"minFilter":9987
		}
	],
	"buffers":[
		{
			"byteLength":287760,
			"uri":"fish_eel.bin"
		}
	]
}
