{
	"asset":{
		"generator":"Khronos glTF Blender I/O v4.4.56",
		"version":"2.0"
	},
	"extensionsUsed":[
		"KHR_materials_clearcoat"
	],
	"scene":0,
	"scenes":[
		{
			"name":"Scene",
			"nodes":[
				0
			]
		}
	],
	"nodes":[
		{
			"mesh":0,
			"name":"fishing_rod"
		}
	],
	"materials":[
		{
			"name":"rod_rubber",
			"pbrMetallicRoughness":{
				"baseColorFactor":[
					0.0030959751456975937,
					0.0030959751456975937,
					0.0030959751456975937,
					1
				],
				"metallicFactor":0,
				"roughnessFactor":0.699999988079071
			}
		},
		{
			"name":"rod_cork",
			"normalTexture":{
				"index":0
			},
			"pbrMetallicRoughness":{
				"baseColorTexture":{
					"index":1
				},
				"metallicFactor":0,
				"roughnessFactor":0.75
			}
		},
		{
			"name":"rod_gunmetal",
			"pbrMetallicRoughness":{
				"baseColorFactor":[
					0.027211781591176987,
					0.0300741046667099,
					0.03310476616024971,
					1
				],
				"metallicFactor":0.8999999761581421,
				"roughnessFactor":0.30000001192092896
			}
		},
		{
			"name":"rod_gold",
			"pbrMetallicRoughness":{
				"baseColorFactor":[
					0.5704815983772278,
					0.31854677200317383,
					0.05087608844041824,
					1
				],
				"roughnessFactor":0.25
			}
		},
		{
			"extensions":{
				"KHR_materials_clearcoat":{
					"clearcoatFactor":0.6000000238418579
				}
			},
			"name":"rod_blank",
			"pbrMetallicRoughness":{
				"baseColorFactor":[
					0.003935939632356167,
					0.005981059744954109,
					0.004896310158073902,
					1
				],
				"metallicFactor":0.20000000298023224,
				"roughnessFactor":0.18000000715255737
			}
		},
		{
			"name":"rod_chrome",
			"pbrMetallicRoughness":{
				"baseColorFactor":[
					0.6038273572921753,
					0.6038273572921753,
					0.6382831931114197,
					1
				],
				"roughnessFactor":0.11999999731779099
			}
		},
		{
			"extensions":{
				"KHR_materials_clearcoat":{
					"clearcoatFactor":0.800000011920929
				}
			},
			"name":"rod_wrap",
			"pbrMetallicRoughness":{
				"baseColorFactor":[
					0.10048151016235352,
					0.005981059744954109,
					0.003935939632356167,
					1
				],
				"metallicFactor":0,
				"roughnessFactor":0.30000001192092896
			}
		},
		{
			"name":"rod_line",
			"pbrMetallicRoughness":{
				"baseColorFactor":[
					0.5070785284042358,
					0.5704815983772278,
					0.47699978947639465,
					1
				],
				"metallicFactor":0,
				"roughnessFactor":0.3499999940395355
			}
		}
	],
	"meshes":[
		{
			"name":"fishing_rod",
			"primitives":[
				{
					"attributes":{
						"POSITION":0,
						"NORMAL":1,
						"TEXCOORD_0":2,
						"TANGENT":3
					},
					"indices":4,
					"material":0
				},
				{
					"attributes":{
						"POSITION":5,
						"NORMAL":6,
						"TEXCOORD_0":7,
						"TANGENT":8
					},
					"indices":9,
					"material":1
				},
				{
					"attributes":{
						"POSITION":10,
						"NORMAL":11,
						"TEXCOORD_0":12,
						"TANGENT":13
					},
					"indices":14,
					"material":2
				},
				{
					"attributes":{
						"POSITION":15,
						"NORMAL":16,
						"TEXCOORD_0":17,
						"TANGENT":18
					},
					"indices":19,
					"material":3
				},
				{
					"attributes":{
						"POSITION":20,
						"NORMAL":21,
						"TEXCOORD_0":22,
						"TANGENT":23
					},
					"indices":24,
					"material":4
				},
				{
					"attributes":{
						"POSITION":25,
						"NORMAL":26,
						"TEXCOORD_0":27,
						"TANGENT":28
					},
					"indices":29,
					"material":5
				},
				{
					"attributes":{
						"POSITION":30,
						"NORMAL":31,
						"TEXCOORD_0":32,
						"TANGENT":33
					},
					"indices":34,
					"material":6
				},
				{
					"attributes":{
						"POSITION":35,
						"NORMAL":36,
						"TEXCOORD_0":37,
						"TANGENT":38
					},
					"indices":39,
					"material":7
				}
			]
		}
	],
	"textures":[
		{
			"sampler":0,
			"source":0
		},
		{
			"sampler":0,
			"source":1
		}
	],
	"images":[
		{
			"mimeType":"image/jpeg",
			"name":"rod_cork_nor",
			"uri":"textures/rod_cork_nor.jpg"
		},
		{
			"mimeType":"image/jpeg",
			"name":"rod_cork",
			"uri":"textures/rod_cork.jpg"
		}
	],
	"accessors":[
		{
			"bufferView":0,
			"componentType":5126,
			"count":174,
			"max":[
				0.014499999582767487,
				-0.02240000106394291,
				0.014499999582767487
			],
			"min":[
				-0.06560000032186508,
				-0.3700000047683716,
				-0.06499999761581421
			],
			"type":"VEC3"
		},
		{
			"bufferView":1,
			"componentType":5126,
			"count":174,
			"type":"VEC3"
		},
		{
			"bufferView":2,
			"componentType":5126,
			"count":174,
			"type":"VEC2"
		},
		{
			"bufferView":3,
			"componentType":5126,
			"count":174,
			"type":"VEC4"
		},
		{
			"bufferView":4,
			"componentType":5123,
			"count":612,
			"type":"SCALAR"
		},
		{
			"bufferView":5,
			"componentType":5126,
			"count":189,
			"max":[
				0.014499999582767487,
				0.17499999701976776,
				0.014499999582767487
			],
			"min":[
				-0.014499999582767487,
				-0.3449999988079071,
				-0.014499999582767487
			],
			"type":"VEC3"
		},
		{
			"bufferView":6,
			"componentType":5126,
			"count":189,
			"type":"VEC3"
		},
		{
			"bufferView":7,
			"componentType":5126,
			"count":189,
			"type":"VEC2"
		},
		{
			"bufferView":8,
			"componentType":5126,
			"count":189,
			"type":"VEC4"
		},
		{
			"bufferView":9,
			"componentType":5123,
			"count":840,
			"type":"SCALAR"
		},
		{
			"bufferView":10,
			"componentType":5126,
			"count":521,
			"max":[
				0.012500000186264515,
				0.054999999701976776,
				0.01899999938905239
			],
			"min":[
				-0.08366577327251434,
				-0.06499999761581421,
				-0.05317077785730362
			],
			"type":"VEC3"
		},
		{
			"bufferView":11,
			"componentType":5126,
			"count":521,
			"type":"VEC3"
		},
		{
			"bufferView":12,
			"componentType":5126,
			"count":521,
			"type":"VEC2"
		},
		{
			"bufferView":13,
			"componentType":5126,
			"count":521,
			"type":"VEC4"
		},
		{
			"bufferView":14,
			"componentType":5123,
			"count":2124,
			"type":"SCALAR"
		},
		{
			"bufferView":15,
			"componentType":5126,
			"count":168,
			"max":[
				0.012199999764561653,
				0.1899999976158142,
				0.012199999764561653
			],
			"min":[
				-0.06580422818660736,
				-0.057999998331069946,
				-0.017000000923871994
			],
			"type":"VEC3"
		},
		{
			"bufferView":16,
			"componentType":5126,
			"count":168,
			"type":"VEC3"
		},
		{
			"bufferView":17,
			"componentType":5126,
			"count":168,
			"type":"VEC2"
		},
		{
			"bufferView":18,
			"componentType":5126,
			"count":168,
			"type":"VEC4"
		},
		{
			"bufferView":19,
			"componentType":5123,
			"count":588,
			"type":"SCALAR"
		},
		{
			"bufferView":20,
			"componentType":5126,
			"count":544,
			"max":[
				0.006200000178068876,
				1.659999966621399,
				0.006200000178068876
			],
			"min":[
				-0.006200000178068876,
				0.1899999976158142,
				-0.006200000178068876
			],
			"type":"VEC3"
		},
		{
			"bufferView":21,
			"componentType":5126,
			"count":544,
			"type":"VEC3"
		},
		{
			"bufferView":22,
			"componentType":5126,
			"count":544,
			"type":"VEC2"
		},
		{
			"bufferView":23,
			"componentType":5126,
			"count":544,
			"type":"VEC4"
		},
		{
			"bufferView":24,
			"componentType":5123,
			"count":2880,
			"type":"SCALAR"
		},
		{
			"bufferView":25,
			"componentType":5126,
			"count":1377,
			"max":[
				0.00339704193174839,
				1.6704914569854736,
				0.02199999988079071
			],
			"min":[
				-0.08704882860183716,
				0.04600000008940697,
				-0.022662518545985222
			],
			"type":"VEC3"
		},
		{
			"bufferView":26,
			"componentType":5126,
			"count":1377,
			"type":"VEC3"
		},
		{
			"bufferView":27,
			"componentType":5126,
			"count":1377,
			"type":"VEC2"
		},
		{
			"bufferView":28,
			"componentType":5126,
			"count":1377,
			"type":"VEC4"
		},
		{
			"bufferView":29,
			"componentType":5123,
			"count":6615,
			"type":"SCALAR"
		},
		{
			"bufferView":30,
			"componentType":5126,
			"count":308,
			"max":[
				0.005587755236774683,
				1.5732899904251099,
				0.005314270965754986
			],
			"min":[
				-0.005587755236774683,
				0.4664599895477295,
				-0.005314270965754986
			],
			"type":"VEC3"
		},
		{
			"bufferView":31,
			"componentType":5126,
			"count":308,
			"type":"VEC3"
		},
		{
			"bufferView":32,
			"componentType":5126,
			"count":308,
			"type":"VEC2"
		},
		{
			"bufferView":33,
			"componentType":5126,
			"count":308,
			"type":"VEC4"
		},
		{
			"bufferView":34,
			"componentType":5123,
			"count":840,
			"type":"SCALAR"
		},
		{
			"bufferView":35,
			"componentType":5126,
			"count":50,
			"max":[
				-0.04479999840259552,
				0.06599999964237213,
				0.01720000058412552
			],
			"min":[
				-0.07919999957084656,
				0.052000001072883606,
				-0.01720000058412552
			],
			"type":"VEC3"
		},
		{
			"bufferView":36,
			"componentType":5126,
			"count":50,
			"type":"VEC3"
		},
		{
			"bufferView":37,
			"componentType":5126,
			"count":50,
			"type":"VEC2"
		},
		{
			"bufferView":38,
			"componentType":5126,
			"count":50,
			"type":"VEC4"
		},
		{
			"bufferView":39,
			"componentType":5123,
			"count":144,
			"type":"SCALAR"
		}
	],
	"bufferViews":[
		{
			"buffer":0,
			"byteLength":2088,
			"byteOffset":0,
			"target":34962
		},
		{
			"buffer":0,
			"byteLength":2088,
			"byteOffset":2088,
			"target":34962
		},
		{
			"buffer":0,
			"byteLength":1392,
			"byteOffset":4176,
			"target":34962
		},
		{
			"buffer":0,
			"byteLength":2784,
			"byteOffset":5568,
			"target":34962
		},
		{
			"buffer":0,
			"byteLength":1224,
			"byteOffset":8352,
			"target":34963
		},
		{
			"buffer":0,
			"byteLength":2268,
			"byteOffset":9576,
			"target":34962
		},
		{
			"buffer":0,
			"byteLength":2268,
			"byteOffset":11844,
			"target":34962
		},
		{
			"buffer":0,
			"byteLength":1512,
			"byteOffset":14112,
			"target":34962
		},
		{
			"buffer":0,
			"byteLength":3024,
			"byteOffset":15624,
			"target":34962
		},
		{
			"buffer":0,
			"byteLength":1680,
			"byteOffset":18648,
			"target":34963
		},
		{
			"buffer":0,
			"byteLength":6252,
			"byteOffset":20328,
			"target":34962
		},
		{
			"buffer":0,
			"byteLength":6252,
			"byteOffset":26580,
			"target":34962
		},
		{
			"buffer":0,
			"byteLength":4168,
			"byteOffset":32832,
			"target":34962
		},
		{
			"buffer":0,
			"byteLength":8336,
			"byteOffset":37000,
			"target":34962
		},
		{
			"buffer":0,
			"byteLength":4248,
			"byteOffset":45336,
			"target":34963
		},
		{
			"buffer":0,
			"byteLength":2016,
			"byteOffset":49584,
			"target":34962
		},
		{
			"buffer":0,
			"byteLength":2016,
			"byteOffset":51600,
			"target":34962
		},
		{
			"buffer":0,
			"byteLength":1344,
			"byteOffset":53616,
			"target":34962
		},
		{
			"buffer":0,
			"byteLength":2688,
			"byteOffset":54960,
			"target":34962
		},
		{
			"buffer":0,
			"byteLength":1176,
			"byteOffset":57648,
			"target":34963
		},
		{
			"buffer":0,
			"byteLength":6528,
			"byteOffset":58824,
			"target":34962
		},
		{
			"buffer":0,
			"byteLength":6528,
			"byteOffset":65352,
			"target":34962
		},
		{
			"buffer":0,
			"byteLength":4352,
			"byteOffset":71880,
			"target":34962
		},
		{
			"buffer":0,
			"byteLength":8704,
			"byteOffset":76232,
			"target":34962
		},
		{
			"buffer":0,
			"byteLength":5760,
			"byteOffset":84936,
			"target":34963
		},
		{
			"buffer":0,
			"byteLength":16524,
			"byteOffset":90696,
			"target":34962
		},
		{
			"buffer":0,
			"byteLength":16524,
			"byteOffset":107220,
			"target":34962
		},
		{
			"buffer":0,
			"byteLength":11016,
			"byteOffset":123744,
			"target":34962
		},
		{
			"buffer":0,
			"byteLength":22032,
			"byteOffset":134760,
			"target":34962
		},
		{
			"buffer":0,
			"byteLength":13230,
			"byteOffset":156792,
			"target":34963
		},
		{
			"buffer":0,
			"byteLength":3696,
			"byteOffset":170024,
			"target":34962
		},
		{
			"buffer":0,
			"byteLength":3696,
			"byteOffset":173720,
			"target":34962
		},
		{
			"buffer":0,
			"byteLength":2464,
			"byteOffset":177416,
			"target":34962
		},
		{
			"buffer":0,
			"byteLength":4928,
			"byteOffset":179880,
			"target":34962
		},
		{
			"buffer":0,
			"byteLength":1680,
			"byteOffset":184808,
			"target":34963
		},
		{
			"buffer":0,
			"byteLength":600,
			"byteOffset":186488,
			"target":34962
		},
		{
			"buffer":0,
			"byteLength":600,
			"byteOffset":187088,
			"target":34962
		},
		{
			"buffer":0,
			"byteLength":400,
			"byteOffset":187688,
			"target":34962
		},
		{
			"buffer":0,
			"byteLength":800,
			"byteOffset":188088,
			"target":34962
		},
		{
			"buffer":0,
			"byteLength":288,
			"byteOffset":188888,
			"target":34963
		}
	],
	"samplers":[
		{
			"magFilter":9729,
			"minFilter":9987
		}
	],
	"buffers":[
		{
			"byteLength":189176,
			"uri":"fishing_rod.bin"
		}
	]
}
