{
	"asset":{
		"generator":"Khronos glTF Blender I/O v4.4.56",
		"version":"2.0"
	},
	"extensionsUsed":[
		"KHR_materials_clearcoat",
		"KHR_materials_specular"
	],
	"scene":0,
	"scenes":[
		{
			"name":"Scene",
			"nodes":[
				0,
				1
			]
		}
	],
	"nodes":[
		{
			"mesh":0,
			"name":"maggot"
		},
		{
			"mesh":1,
			"name":"maggot_lid",
			"rotation":[
				0,
				0,
				-0.5646425485610962,
				0.8253355622291565
			],
			"translation":[
				0.06499999761581421,
				0.042750000953674316,
				0
			]
		}
	],
	"materials":[
		{
			"name":"maggot_tin",
			"pbrMetallicRoughness":{
				"baseColorTexture":{
					"index":0
				},
				"metallicFactor":0.8999999761581421,
				"roughnessFactor":0.3499999940395355
			}
		},
		{
			"name":"maggot_bran",
			"pbrMetallicRoughness":{
				"baseColorTexture":{
					"index":1
				},
				"metallicFactor":0,
				"roughnessFactor":0.8999999761581421
			}
		},
		{
			"extensions":{
				"KHR_materials_clearcoat":{
					"clearcoatFactor":0.30000001192092896
				},
				"KHR_materials_specular":{
					"specularColorFactor":[
						1.2000000476837158,
						1.2000000476837158,
						1.2000000476837158
					]
				}
			},
			"name":"maggot_grub",
			"pbrMetallicRoughness":{
				"baseColorFactor":[
					0.848088264465332,
					0.7484140992164612,
					0.5070785284042358,
					1
				],
				"metallicFactor":0,
				"roughnessFactor":0.3199999928474426
			}
		},
		{
			"name":"maggot_tip",
			"pbrMetallicRoughness":{
				"baseColorFactor":[
					0.027211781591176987,
					0.0134117491543293,
					0.007194409146904945,
					1
				],
				"metallicFactor":0,
				"roughnessFactor":0.5
			}
		}
	],
	"meshes":[
		{
			"name":"maggot",
			"primitives":[
				{
					"attributes":{
						"POSITION":0,
						"NORMAL":1,
						"TEXCOORD_0":2,
						"TANGENT":3
					},
					"indices":4,
					"material":0
				},
				{
					"attributes":{
						"POSITION":5,
						"NORMAL":6,
						"TEXCOORD_0":7,
						"TANGENT":8
					},
					"indices":9,
					"material":1
				},
				{
					"attributes":{
						"POSITION":10,
						"NORMAL":11,
						"TEXCOORD_0":12,
						"TANGENT":13
					},
					"indices":14,
					"material":2
				},
				{
					"attributes":{
						"POSITION":15,
						"NORMAL":16,
						"TEXCOORD_0":17,
						"TANGENT":18
					},
					"indices":19,
					"material":3
				}
			]
		},
		{
			"name":"maggot_lid",
			"primitives":[
				{
					"attributes":{
						"POSITION":20,
						"NORMAL":21,
						"TEXCOORD_0":22,
						"TANGENT":23
					},
					"indices":24,
					"material":0
				}
			]
		}
	],
	"textures":[
		{
			"sampler":0,
			"source":0
		},
		{
			"sampler":0,
			"source":1
		}
	],
	"images":[
		{
			"mimeType":"image/jpeg",
			"name":"maggot_tin",
			"uri":"textures/maggot_tin.jpg"
		},
		{
			"mimeType":"image/jpeg",
			"name":"maggot_bran",
			"uri":"textures/maggot_bran.jpg"
		}
	],
	"accessors":[
		{
			"bufferView":0,
			"componentType":5126,
			"count":384,
			"max":[
				0.04650000110268593,
				0.02800000086426735,
				0.04650000110268593
			],
			"min":[
				-0.04650000110268593,
				0,
				-0.04650000110268593
			],
			"type":"VEC3"
		},
		{
			"bufferView":1,
			"componentType":5126,
			"count":384,
			"type":"VEC3"
		},
		{
			"bufferView":2,
			"componentType":5126,
			"count":384,
			"type":"VEC2"
		},
		{
			"bufferView":3,
			"componentType":5126,
			"count":384,
			"type":"VEC4"
		},
		{
			"bufferView":4,
			"componentType":5123,
			"count":1728,
			"type":"SCALAR"
		},
		{
			"bufferView":5,
			"componentType":5126,
			"count":130,
			"max":[
				0.044199999421834946,
				0.02250000089406967,
				0.044199999421834946
			],
			"min":[
				-0.044199999421834946,
				0.02199999988079071,
				-0.044199999421834946
			],
			"type":"VEC3"
		},
		{
			"bufferView":6,
			"componentType":5126,
			"count":130,
			"type":"VEC3"
		},
		{
			"bufferView":7,
			"componentType":5126,
			"count":130,
			"type":"VEC2"
		},
		{
			"bufferView":8,
			"componentType":5126,
			"count":130,
			"type":"VEC4"
		},
		{
			"bufferView":9,
			"componentType":5123,
			"count":216,
			"type":"SCALAR"
		},
		{
			"bufferView":10,
			"componentType":5126,
			"count":17250,
			"max":[
				0.042850423604249954,
				0.02620573714375496,
				0.03844475746154785
			],
			"min":[
				-0.03950132802128792,
				0.020681165158748627,
				-0.039310477674007416
			],
			"type":"VEC3"
		},
		{
			"bufferView":11,
			"componentType":5126,
			"count":17250,
			"type":"VEC3"
		},
		{
			"bufferView":12,
			"componentType":5126,
			"count":17250,
			"type":"VEC2"
		},
		{
			"bufferView":13,
			"componentType":5126,
			"count":17250,
			"type":"VEC4"
		},
		{
			"bufferView":14,
			"componentType":5123,
			"count":69000,
			"type":"SCALAR"
		},
		{
			"bufferView":15,
			"componentType":5126,
			"count":1518,
			"max":[
				0.044987328350543976,
				0.025285737589001656,
				0.036836083978414536
			],
			"min":[
				-0.042802080512046814,
				0.02160116471350193,
				-0.04280679300427437
			],
			"type":"VEC3"
		},
		{
			"bufferView":16,
			"componentType":5126,
			"count":1518,
			"type":"VEC3"
		},
		{
			"bufferView":17,
			"componentType":5126,
			"count":1518,
			"type":"VEC2"
		},
		{
			"bufferView":18,
			"componentType":5126,
			"count":1518,
			"type":"VEC4"
		},
		{
			"bufferView":19,
			"componentType":5123,
			"count":4968,
			"type":"SCALAR"
		},
		{
			"bufferView":20,
			"componentType":5126,
			"count":278,
			"max":[
				0.046799998730421066,
				0.006000000052154064,
				0.046799998730421066
			],
			"min":[
				-0.046799998730421066,
				0,
				-0.046799998730421066
			],
			"type":"VEC3"
		},
		{
			"bufferView":21,
			"componentType":5126,
			"count":278,
			"type":"VEC3"
		},
		{
			"bufferView":22,
			"componentType":5126,
			"count":278,
			"type":"VEC2"
		},
		{
			"bufferView":23,
			"componentType":5126,
			"count":278,
			"type":"VEC4"
		},
		{
			"bufferView":24,
			"componentType":5123,
			"count":1080,
			"type":"SCALAR"
		}
	],
	"bufferViews":[
		{
			"buffer":0,
			"byteLength":4608,
			"byteOffset":0,
			"target":34962
		},
		{
			"buffer":0,
			"byteLength":4608,
			"byteOffset":4608,
			"target":34962
		},
		{
			"buffer":0,
			"byteLength":3072,
			"byteOffset":9216,
			"target":34962
		},
		{
			"buffer":0,
			"byteLength":6144,
			"byteOffset":12288,
			"target":34962
		},
		{
			"buffer":0,
			"byteLength":3456,
			"byteOffset":18432,
			"target":34963
		},
		{
			"buffer":0,
			"byteLength":1560,
			"byteOffset":21888,
			"target":34962
		},
		{
			"buffer":0,
			"byteLength":1560,
			"byteOffset":23448,
			"target":34962
		},
		{
			"buffer":0,
			"byteLength":1040,
			"byteOffset":25008,
			"target":34962
		},
		{
			"buffer":0,
			"byteLength":2080,
			"byteOffset":26048,
			"target":34962
		},
		{
			"buffer":0,
			"byteLength":432,
			"byteOffset":28128,
			"target":34963
		},
		{
			"buffer":0,
			"byteLength":207000,
			"byteOffset":28560,
			"target":34962
		},
		{
			"buffer":0,
			"byteLength":207000,
			"byteOffset":235560,
			"target":34962
		},
		{
			"buffer":0,
			"byteLength":138000,
			"byteOffset":442560,
			"target":34962
		},
		{
			"buffer":0,
			"byteLength":276000,
			"byteOffset":580560,
			"target":34962
		},
		{
			"buffer":0,
			"byteLength":138000,
			"byteOffset":856560,
			"target":34963
		},
		{
			"buffer":0,
			"byteLength":18216,
			"byteOffset":994560,
			"target":34962
		},
		{
			"buffer":0,
			"byteLength":18216,
			"byteOffset":1012776,
			"target":34962
		},
		{
			"buffer":0,
			"byteLength":12144,
			"byteOffset":1030992,
			"target":34962
		},
		{
			"buffer":0,
			"byteLength":24288,
			"byteOffset":1043136,
			"target":34962
		},
		{
			"buffer":0,
			"byteLength":9936,
			"byteOffset":1067424,
			"target":34963
		},
		{
			"buffer":0,
			"byteLength":3336,
			"byteOffset":1077360,
			"target":34962
		},
		{
			"buffer":0,
			"byteLength":3336,
			"byteOffset":1080696,
			"target":34962
		},
		{
			"buffer":0,
			"byteLength":2224,
			"byteOffset":1084032,
			"target":34962
		},
		{
			"buffer":0,
			"byteLength":4448,
			"byteOffset":1086256,
			"target":34962
		},
		{
			"buffer":0,
			"byteLength":2160,
			"byteOffset":1090704,
			"target":34963
		}
	],
	"samplers":[
		{
			"magFilter":9729,
			"minFilter":9987
		}
	],
	"buffers":[
		{
			"byteLength":1092864,
			"uri":"maggot.bin"
		}
	]
}
