{
	"asset":{
		"generator":"Khronos glTF Blender I/O v4.4.56",
		"version":"2.0"
	},
	"extensionsUsed":[
		"KHR_materials_clearcoat",
		"KHR_materials_specular"
	],
	"scene":0,
	"scenes":[
		{
			"name":"Scene",
			"nodes":[
				0
			]
		}
	],
	"nodes":[
		{
			"mesh":0,
			"name":"minnow"
		}
	],
	"materials":[
		{
			"name":"minnow_bucket",
			"pbrMetallicRoughness":{
				"baseColorTexture":{
					"index":0
				},
				"metallicFactor":0.8500000238418579,
				"roughnessFactor":0.41999998688697815
			}
		},
		{
			"alphaMode":"BLEND",
			"extensions":{
				"KHR_materials_specular":{
					"specularColorFactor":[
						1.600000023841858,
						1.600000023841858,
						1.600000023841858
					]
				}
			},
			"name":"minnow_water",
			"pbrMetallicRoughness":{
				"baseColorFactor":[
					0.03968190774321556,
					0.07323895394802094,
					0.05497173219919205,
					0.550000011920929
				],
				"metallicFactor":0,
				"roughnessFactor":0.03999999910593033
			}
		},
		{
			"extensions":{
				"KHR_materials_clearcoat":{
					"clearcoatFactor":0.5
				}
			},
			"name":"minnow_skin",
			"pbrMetallicRoughness":{
				"baseColorFactor":[
					0.5704815983772278,
					0.6038273572921753,
					0.6038273572921753,
					1
				],
				"metallicFactor":0.5,
				"roughnessFactor":0.20000000298023224
			}
		},
		{
			"doubleSided":true,
			"name":"minnow_fin",
			"pbrMetallicRoughness":{
				"baseColorFactor":[
					0.31854677200317383,
					0.31854677200317383,
					0.27383843064308167,
					1
				],
				"metallicFactor":0,
				"roughnessFactor":0.4000000059604645
			}
		},
		{
			"extensions":{
				"KHR_materials_specular":{
					"specularColorFactor":[
						1.7999999523162842,
						1.7999999523162842,
						1.7999999523162842
					]
				}
			},
			"name":"minnow_iris",
			"pbrMetallicRoughness":{
				"baseColorFactor":[
					0.6920710802078247,
					0.6920710802078247,
					0.6038273572921753,
					1
				],
				"metallicFactor":0,
				"roughnessFactor":0.07999999821186066
			}
		},
		{
			"extensions":{
				"KHR_materials_specular":{
					"specularColorFactor":[
						2.0,
						2.0,
						2.0
					]
				}
			},
			"name":"minnow_pupil",
			"pbrMetallicRoughness":{
				"baseColorFactor":[
					0.0007739937864243984,
					0.0007739937864243984,
					0.0009287925786338747,
					1
				],
				"metallicFactor":0,
				"roughnessFactor":0.029999999329447746
			}
		},
		{
			"name":"minnow_wire",
			"pbrMetallicRoughness":{
				"baseColorFactor":[
					0.21404114365577698,
					0.21404114365577698,
					0.21404114365577698,
					1
				],
				"roughnessFactor":0.30000001192092896
			}
		}
	],
	"meshes":[
		{
			"name":"minnow",
			"primitives":[
				{
					"attributes":{
						"POSITION":0,
						"NORMAL":1,
						"TEXCOORD_0":2,
						"TANGENT":3
					},
					"indices":4,
					"material":0
				},
				{
					"attributes":{
						"POSITION":5,
						"NORMAL":6,
						"TEXCOORD_0":7,
						"TANGENT":8
					},
					"indices":9,
					"material":1
				},
				{
					"attributes":{
						"POSITION":10,
						"NORMAL":11,
						"TEXCOORD_0":12,
						"TANGENT":13
					},
					"indices":14,
					"material":2
				},
				{
					"attributes":{
						"POSITION":15,
						"NORMAL":16,
						"TEXCOORD_0":17,
						"TANGENT":18
					},
					"indices":19,
					"material":3
				},
				{
					"attributes":{
						"POSITION":20,
						"NORMAL":21,
						"TEXCOORD_0":22,
						"TANGENT":23
					},
					"indices":24,
					"material":4
				},
				{
					"attributes":{
						"POSITION":25,
						"NORMAL":26,
						"TEXCOORD_0":27,
						"TANGENT":28
					},
					"indices":29,
					"material":5
				},
				{
					"attributes":{
						"POSITION":30,
						"NORMAL":31,
						"TEXCOORD_0":32,
						"TANGENT":33
					},
					"indices":34,
					"material":6
				}
			]
		}
	],
	"textures":[
		{
			"sampler":0,
			"source":0
		}
	],
	"images":[
		{
			"mimeType":"image/jpeg",
			"name":"minnow_bucket",
			"uri":"textures/minnow_bucket.jpg"
		}
	],
	"accessors":[
		{
			"bufferView":0,
			"componentType":5126,
			"count":543,
			"max":[
				0.08100000023841858,
				0.12200000137090683,
				0.08100000023841858
			],
			"min":[
				-0.08100000023841858,
				0,
				-0.08100000023841858
			],
			"type":"VEC3"
		},
		{
			"bufferView":1,
			"componentType":5126,
			"count":543,
			"type":"VEC3"
		},
		{
			"bufferView":2,
			"componentType":5126,
			"count":543,
			"type":"VEC2"
		},
		{
			"bufferView":3,
			"componentType":5126,
			"count":543,
			"type":"VEC4"
		},
		{
			"bufferView":4,
			"componentType":5123,
			"count":2640,
			"type":"SCALAR"
		},
		{
			"bufferView":5,
			"componentType":5126,
			"count":128,
			"max":[
				0.07286666333675385,
				0.09799999743700027,
				0.07286666333675385
			],
			"min":[
				-0.07286666333675385,
				0.09799999743700027,
				-0.07286666333675385
			],
			"type":"VEC3"
		},
		{
			"bufferView":6,
			"componentType":5126,
			"count":128,
			"type":"VEC3"
		},
		{
			"bufferView":7,
			"componentType":5126,
			"count":128,
			"type":"VEC2"
		},
		{
			"bufferView":8,
			"componentType":5126,
			"count":128,
			"type":"VEC4"
		},
		{
			"bufferView":9,
			"componentType":5123,
			"count":240,
			"type":"SCALAR"
		},
		{
			"bufferView":10,
			"componentType":5126,
			"count":2530,
			"max":[
				0.05455148220062256,
				0.10516085475683212,
				0.053347114473581314
			],
			"min":[
				-0.054245270788669586,
				0.06840492784976959,
				-0.04930088669061661
			],
			"type":"VEC3"
		},
		{
			"bufferView":11,
			"componentType":5126,
			"count":2530,
			"type":"VEC3"
		},
		{
			"bufferView":12,
			"componentType":5126,
			"count":2530,
			"type":"VEC2"
		},
		{
			"bufferView":13,
			"componentType":5126,
			"count":2530,
			"type":"VEC4"
		},
		{
			"bufferView":14,
			"componentType":5123,
			"count":12000,
			"type":"SCALAR"
		},
		{
			"bufferView":15,
			"componentType":5126,
			"count":365,
			"max":[
				0.03978513181209564,
				0.1061176210641861,
				0.055064331740140915
			],
			"min":[
				-0.04888062924146652,
				0.06227199733257294,
				-0.055158831179142
			],
			"type":"VEC3"
		},
		{
			"bufferView":16,
			"componentType":5126,
			"count":365,
			"type":"VEC3"
		},
		{
			"bufferView":17,
			"componentType":5126,
			"count":365,
			"type":"VEC2"
		},
		{
			"bufferView":18,
			"componentType":5126,
			"count":365,
			"type":"VEC4"
		},
		{
			"bufferView":19,
			"componentType":5123,
			"count":1500,
			"type":"SCALAR"
		},
		{
			"bufferView":20,
			"componentType":5126,
			"count":1510,
			"max":[
				0.05180632323026657,
				0.10582540929317474,
				0.04973985627293587
			],
			"min":[
				-0.05033589154481888,
				0.07468308508396149,
				-0.039845481514930725
			],
			"type":"VEC3"
		},
		{
			"bufferView":21,
			"componentType":5126,
			"count":1510,
			"type":"VEC3"
		},
		{
			"bufferView":22,
			"componentType":5126,
			"count":1510,
			"type":"VEC2"
		},
		{
			"bufferView":23,
			"componentType":5126,
			"count":1510,
			"type":"VEC4"
		},
		{
			"bufferView":24,
			"componentType":5123,
			"count":6720,
			"type":"SCALAR"
		},
		{
			"bufferView":25,
			"componentType":5126,
			"count":1030,
			"max":[
				0.05136784538626671,
				0.10498876124620438,
				0.049090493470430374
			],
			"min":[
				-0.04965638369321823,
				0.07561333477497101,
				-0.03917089104652405
			],
			"type":"VEC3"
		},
		{
			"bufferView":26,
			"componentType":5126,
			"count":1030,
			"type":"VEC3"
		},
		{
			"bufferView":27,
			"componentType":5126,
			"count":1030,
			"type":"VEC2"
		},
		{
			"bufferView":28,
			"componentType":5126,
			"count":1030,
			"type":"VEC4"
		},
		{
			"bufferView":29,
			"componentType":5123,
			"count":4200,
			"type":"SCALAR"
		},
		{
			"bufferView":30,
			"componentType":5126,
			"count":151,
			"max":[
				0.08354034274816513,
				0.18554547429084778,
				0.0015892719384282827
			],
			"min":[
				-0.08354034274816513,
				0.11240469664335251,
				-0.0015892719384282827
			],
			"type":"VEC3"
		},
		{
			"bufferView":31,
			"componentType":5126,
			"count":151,
			"type":"VEC3"
		},
		{
			"bufferView":32,
			"componentType":5126,
			"count":151,
			"type":"VEC2"
		},
		{
			"bufferView":33,
			"componentType":5126,
			"count":151,
			"type":"VEC4"
		},
		{
			"bufferView":34,
			"componentType":5123,
			"count":882,
			"type":"SCALAR"
		}
	],
	"bufferViews":[
		{
			"buffer":0,
			"byteLength":6516,
			"byteOffset":0,
			"target":34962
		},
		{
			"buffer":0,
			"byteLength":6516,
			"byteOffset":6516,
			"target":34962
		},
		{
			"buffer":0,
			"byteLength":4344,
			"byteOffset":13032,
			"target":34962
		},
		{
			"buffer":0,
			"byteLength":8688,
			"byteOffset":17376,
			"target":34962
		},
		{
			"buffer":0,
			"byteLength":5280,
			"byteOffset":26064,
			"target":34963
		},
		{
			"buffer":0,
			"byteLength":1536,
			"byteOffset":31344,
			"target":34962
		},
		{
			"buffer":0,
			"byteLength":1536,
			"byteOffset":32880,
			"target":34962
		},
		{
			"buffer":0,
			"byteLength":1024,
			"byteOffset":34416,
			"target":34962
		},
		{
			"buffer":0,
			"byteLength":2048,
			"byteOffset":35440,
			"target":34962
		},
		{
			"buffer":0,
			"byteLength":480,
			"byteOffset":37488,
			"target":34963
		},
		{
			"buffer":0,
			"byteLength":30360,
			"byteOffset":37968,
			"target":34962
		},
		{
			"buffer":0,
			"byteLength":30360,
			"byteOffset":68328,
			"target":34962
		},
		{
			"buffer":0,
			"byteLength":20240,
			"byteOffset":98688,
			"target":34962
		},
		{
			"buffer":0,
			"byteLength":40480,
			"byteOffset":118928,
			"target":34962
		},
		{
			"buffer":0,
			"byteLength":24000,
			"byteOffset":159408,
			"target":34963
		},
		{
			"buffer":0,
			"byteLength":4380,
			"byteOffset":183408,
			"target":34962
		},
		{
			"buffer":0,
			"byteLength":4380,
			"byteOffset":187788,
			"target":34962
		},
		{
			"buffer":0,
			"byteLength":2920,
			"byteOffset":192168,
			"target":34962
		},
		{
			"buffer":0,
			"byteLength":5840,
			"byteOffset":195088,
			"target":34962
		},
		{
			"buffer":0,
			"byteLength":3000,
			"byteOffset":200928,
			"target":34963
		},
		{
			"buffer":0,
			"byteLength":18120,
			"byteOffset":203928,
			"target":34962
		},
		{
			"buffer":0,
			"byteLength":18120,
			"byteOffset":222048,
			"target":34962
		},
		{
			"buffer":0,
			"byteLength":12080,
			"byteOffset":240168,
			"target":34962
		},
		{
			"buffer":0,
			"byteLength":24160,
			"byteOffset":252248,
			"target":34962
		},
		{
			"buffer":0,
			"byteLength":13440,
			"byteOffset":276408,
			"target":34963
		},
		{
			"buffer":0,
			"byteLength":12360,
			"byteOffset":289848,
			"target":34962
		},
		{
			"buffer":0,
			"byteLength":12360,
			"byteOffset":302208,
			"target":34962
		},
		{
			"buffer":0,
			"byteLength":8240,
			"byteOffset":314568,
			"target":34962
		},
		{
			"buffer":0,
			"byteLength":16480,
			"byteOffset":322808,
			"target":34962
		},
		{
			"buffer":0,
			"byteLength":8400,
			"byteOffset":339288,
			"target":34963
		},
		{
			"buffer":0,
			"byteLength":1812,
			"byteOffset":347688,
			"target":34962
		},
		{
			"buffer":0,
			"byteLength":1812,
			"byteOffset":349500,
			"target":34962
		},
		{
			"buffer":0,
			"byteLength":1208,
			"byteOffset":351312,
			"target":34962
		},
		{
			"buffer":0,
			"byteLength":2416,
			"byteOffset":352520,
			"target":34962
		},
		{
			"buffer":0,
			"byteLength":1764,
			"byteOffset":354936,
			"target":34963
		}
	],
	"samplers":[
		{
			"magFilter":9729,
			"minFilter":9987
		}
	],
	"buffers":[
		{
			"byteLength":356700,
			"uri":"minnow.bin"
		}
	]
}
