{
	"asset":{
		"generator":"Khronos glTF Blender I/O v4.4.56",
		"version":"2.0"
	},
	"scene":0,
	"scenes":[
		{
			"name":"Scene",
			"nodes":[
				0
			]
		}
	],
	"nodes":[
		{
			"mesh":0,
			"name":"rubber_boots_l"
		}
	],
	"materials":[
		{
			"doubleSided":true,
			"name":"rubber_boots",
			"normalTexture":{
				"index":0
			},
			"pbrMetallicRoughness":{
				"baseColorTexture":{
					"index":1
				},
				"metallicFactor":0,
				"metallicRoughnessTexture":{
					"index":2
				}
			}
		}
	],
	"meshes":[
		{
			"name":"rubber_boots_LOD0.L",
			"primitives":[
				{
					"attributes":{
						"POSITION":0,
						"NORMAL":1,
						"TEXCOORD_0":2,
						"TANGENT":3
					},
					"indices":4,
					"material":0
				}
			]
		}
	],
	"textures":[
		{
			"sampler":0,
			"source":0
		},
		{
			"sampler":0,
			"source":1
		},
		{
			"sampler":0,
			"source":2
		}
	],
	"images":[
		{
			"mimeType":"image/jpeg",
			"name":"rubber_boots_dirty_nor_gl_1k",
			"uri":"textures/rubber_boots_dirty_nor_gl_1k.jpg"
		},
		{
			"mimeType":"image/jpeg",
			"name":"rubber_boots_dirty_diff_1k",
			"uri":"textures/rubber_boots_dirty_diff_1k.jpg"
		},
		{
			"mimeType":"image/jpeg",
			"name":"rubber_boots_dirty_arm_1k",
			"uri":"textures/rubber_boots_dirty_arm_1k.jpg"
		}
	],
	"accessors":[
		{
			"bufferView":0,
			"componentType":5126,
			"count":7670,
			"max":[
				0.04563991725444794,
				0.37276914715766907,
				0.13310325145721436
			],
			"min":[
				-0.04563993215560913,
				0,
				-0.13310325145721436
			],
			"type":"VEC3"
		},
		{
			"bufferView":1,
			"componentType":5126,
			"count":7670,
			"type":"VEC3"
		},
		{
			"bufferView":2,
			"componentType":5126,
			"count":7670,
			"type":"VEC2"
		},
		{
			"bufferView":3,
			"componentType":5126,
			"count":7670,
			"type":"VEC4"
		},
		{
			"bufferView":4,
			"componentType":5123,
			"count":42096,
			"type":"SCALAR"
		}
	],
	"bufferViews":[
		{
			"buffer":0,
			"byteLength":92040,
			"byteOffset":0,
			"target":34962
		},
		{
			"buffer":0,
			"byteLength":92040,
			"byteOffset":92040,
			"target":34962
		},
		{
			"buffer":0,
			"byteLength":61360,
			"byteOffset":184080,
			"target":34962
		},
		{
			"buffer":0,
			"byteLength":122720,
			"byteOffset":245440,
			"target":34962
		},
		{
			"buffer":0,
			"byteLength":84192,
			"byteOffset":368160,
			"target":34963
		}
	],
	"samplers":[
		{
			"magFilter":9729,
			"minFilter":9987
		}
	],
	"buffers":[
		{
			"byteLength":452352,
			"uri":"old_boot.bin"
		}
	]
}
