{
	"asset":{
		"generator":"Khronos glTF Blender I/O v4.4.56",
		"version":"2.0"
	},
	"extensionsUsed":[
		"KHR_materials_clearcoat"
	],
	"scene":0,
	"scenes":[
		{
			"name":"Scene",
			"nodes":[
				0,
				1
			]
		}
	],
	"nodes":[
		{
			"mesh":0,
			"name":"spinner_blade",
			"rotation":[
				0.342897891998291,
				0,
				0,
				0.9393726587295532
			],
			"translation":[
				0,
				0.0015050102956593037,
				-0.004122993443161249
			]
		},
		{
			"mesh":1,
			"name":"spinner"
		}
	],
	"materials":[
		{
			"doubleSided":true,
			"name":"spinner_blade",
			"pbrMetallicRoughness":{
				"baseColorFactor":[
					0.7874122858047485,
					0.7874122858047485,
					0.8275708556175232,
					1
				],
				"roughnessFactor":0.07999999821186066
			}
		},
		{
			"name":"spinner_wire",
			"pbrMetallicRoughness":{
				"baseColorFactor":[
					0.34239163994789124,
					0.3546920716762543,
					0.38005632162094116,
					1
				],
				"roughnessFactor":0.20000000298023224
			}
		},
		{
			"extensions":{
				"KHR_materials_clearcoat":{
					"clearcoatFactor":0.6000000238418579
				}
			},
			"name":"spinner_red",
			"pbrMetallicRoughness":{
				"baseColorFactor":[
					0.6038273572921753,
					0.004896310158073902,
					0.0030959751456975937,
					1
				],
				"metallicFactor":0,
				"roughnessFactor":0.30000001192092896
			}
		},
		{
			"name":"spinner_brass",
			"pbrMetallicRoughness":{
				"baseColorFactor":[
					0.6038273572921753,
					0.34239163994789124,
					0.07323895394802094,
					1
				],
				"roughnessFactor":0.20000000298023224
			}
		},
		{
			"doubleSided":true,
			"name":"spinner_tag",
			"pbrMetallicRoughness":{
				"baseColorFactor":[
					0.5225215554237366,
					0.007194409146904945,
					0.004896310158073902,
					1
				],
				"metallicFactor":0,
				"roughnessFactor":0.800000011920929
			}
		}
	],
	"meshes":[
		{
			"name":"spinner_blade",
			"primitives":[
				{
					"attributes":{
						"POSITION":0,
						"NORMAL":1,
						"TEXCOORD_0":2,
						"TANGENT":3
					},
					"indices":4,
					"material":0
				}
			]
		},
		{
			"name":"spinner",
			"primitives":[
				{
					"attributes":{
						"POSITION":5,
						"NORMAL":6,
						"TEXCOORD_0":7,
						"TANGENT":8
					},
					"indices":9,
					"material":1
				},
				{
					"attributes":{
						"POSITION":10,
						"NORMAL":11,
						"TEXCOORD_0":12,
						"TANGENT":13
					},
					"indices":14,
					"material":2
				},
				{
					"attributes":{
						"POSITION":15,
						"NORMAL":16,
						"TEXCOORD_0":17,
						"TANGENT":18
					},
					"indices":19,
					"material":3
				},
				{
					"attributes":{
						"POSITION":20,
						"NORMAL":21,
						"TEXCOORD_0":22,
						"TANGENT":23
					},
					"indices":24,
					"material":4
				}
			]
		}
	],
	"accessors":[
		{
			"bufferView":0,
			"componentType":5126,
			"count":101,
			"max":[
				0.07999999821186066,
				0.009920000098645687,
				-0.0020800000056624413
			],
			"min":[
				0.03840000182390213,
				0.006399999838322401,
				-0.02191999927163124
			],
			"type":"VEC3"
		},
		{
			"bufferView":1,
			"componentType":5126,
			"count":101,
			"type":"VEC3"
		},
		{
			"bufferView":2,
			"componentType":5126,
			"count":101,
			"type":"VEC2"
		},
		{
			"bufferView":3,
			"componentType":5126,
			"count":101,
			"type":"VEC4"
		},
		{
			"bufferView":4,
			"componentType":5123,
			"count":432,
			"type":"SCALAR"
		},
		{
			"bufferView":5,
			"componentType":5126,
			"count":282,
			"max":[
				0.10628233104944229,
				0.016051340848207474,
				0.005986268166452646
			],
			"min":[
				-0.0010037217289209366,
				-0.0033360873349010944,
				-0.011020812205970287
			],
			"type":"VEC3"
		},
		{
			"bufferView":6,
			"componentType":5126,
			"count":282,
			"type":"VEC3"
		},
		{
			"bufferView":7,
			"componentType":5126,
			"count":282,
			"type":"VEC2"
		},
		{
			"bufferView":8,
			"componentType":5126,
			"count":282,
			"type":"VEC4"
		},
		{
			"bufferView":9,
			"componentType":5123,
			"count":1428,
			"type":"SCALAR"
		},
		{
			"bufferView":10,
			"componentType":5126,
			"count":75,
			"max":[
				0.07633904367685318,
				0.009279999881982803,
				0.002880000276491046
			],
			"min":[
				0.07086095958948135,
				0.0035199997946619987,
				-0.002880000276491046
			],
			"type":"VEC3"
		},
		{
			"bufferView":11,
			"componentType":5126,
			"count":75,
			"type":"VEC3"
		},
		{
			"bufferView":12,
			"componentType":5126,
			"count":75,
			"type":"VEC2"
		},
		{
			"bufferView":13,
			"componentType":5126,
			"count":75,
			"type":"VEC4"
		},
		{
			"bufferView":14,
			"componentType":5123,
			"count":300,
			"type":"SCALAR"
		},
		{
			"bufferView":15,
			"componentType":5126,
			"count":395,
			"max":[
				0.06943999975919724,
				0.01151999831199646,
				0.0051199994049966335
			],
			"min":[
				0.025600001215934753,
				0.001279999502003193,
				-0.0051199994049966335
			],
			"type":"VEC3"
		},
		{
			"bufferView":16,
			"componentType":5126,
			"count":395,
			"type":"VEC3"
		},
		{
			"bufferView":17,
			"componentType":5126,
			"count":395,
			"type":"VEC2"
		},
		{
			"bufferView":18,
			"componentType":5126,
			"count":395,
			"type":"VEC4"
		},
		{
			"bufferView":19,
			"componentType":5123,
			"count":1644,
			"type":"SCALAR"
		},
		{
			"bufferView":20,
			"componentType":5126,
			"count":178,
			"max":[
				0.02776276506483555,
				0.013092517852783203,
				0.006220872513949871
			],
			"min":[
				0.006259134970605373,
				-0.00022812862880527973,
				-0.006836321204900742
			],
			"type":"VEC3"
		},
		{
			"bufferView":21,
			"componentType":5126,
			"count":178,
			"type":"VEC3"
		},
		{
			"bufferView":22,
			"componentType":5126,
			"count":178,
			"type":"VEC2"
		},
		{
			"bufferView":23,
			"componentType":5126,
			"count":178,
			"type":"VEC4"
		},
		{
			"bufferView":24,
			"componentType":5123,
			"count":336,
			"type":"SCALAR"
		}
	],
	"bufferViews":[
		{
			"buffer":0,
			"byteLength":1212,
			"byteOffset":0,
			"target":34962
		},
		{
			"buffer":0,
			"byteLength":1212,
			"byteOffset":1212,
			"target":34962
		},
		{
			"buffer":0,
			"byteLength":808,
			"byteOffset":2424,
			"target":34962
		},
		{
			"buffer":0,
			"byteLength":1616,
			"byteOffset":3232,
			"target":34962
		},
		{
			"buffer":0,
			"byteLength":864,
			"byteOffset":4848,
			"target":34963
		},
		{
			"buffer":0,
			"byteLength":3384,
			"byteOffset":5712,
			"target":34962
		},
		{
			"buffer":0,
			"byteLength":3384,
			"byteOffset":9096,
			"target":34962
		},
		{
			"buffer":0,
			"byteLength":2256,
			"byteOffset":12480,
			"target":34962
		},
		{
			"buffer":0,
			"byteLength":4512,
			"byteOffset":14736,
			"target":34962
		},
		{
			"buffer":0,
			"byteLength":2856,
			"byteOffset":19248,
			"target":34963
		},
		{
			"buffer":0,
			"byteLength":900,
			"byteOffset":22104,
			"target":34962
		},
		{
			"buffer":0,
			"byteLength":900,
			"byteOffset":23004,
			"target":34962
		},
		{
			"buffer":0,
			"byteLength":600,
			"byteOffset":23904,
			"target":34962
		},
		{
			"buffer":0,
			"byteLength":1200,
			"byteOffset":24504,
			"target":34962
		},
		{
			"buffer":0,
			"byteLength":600,
			"byteOffset":25704,
			"target":34963
		},
		{
			"buffer":0,
			"byteLength":4740,
			"byteOffset":26304,
			"target":34962
		},
		{
			"buffer":0,
			"byteLength":4740,
			"byteOffset":31044,
			"target":34962
		},
		{
			"buffer":0,
			"byteLength":3160,
			"byteOffset":35784,
			"target":34962
		},
		{
			"buffer":0,
			"byteLength":6320,
			"byteOffset":38944,
			"target":34962
		},
		{
			"buffer":0,
			"byteLength":3288,
			"byteOffset":45264,
			"target":34963
		},
		{
			"buffer":0,
			"byteLength":2136,
			"byteOffset":48552,
			"target":34962
		},
		{
			"buffer":0,
			"byteLength":2136,
			"byteOffset":50688,
			"target":34962
		},
		{
			"buffer":0,
			"byteLength":1424,
			"byteOffset":52824,
			"target":34962
		},
		{
			"buffer":0,
			"byteLength":2848,
			"byteOffset":54248,
			"target":34962
		},
		{
			"buffer":0,
			"byteLength":672,
			"byteOffset":57096,
			"target":34963
		}
	],
	"buffers":[
		{
			"byteLength":57768,
			"uri":"spinner.bin"
		}
	]
}
