{
	"asset":{
		"generator":"Khronos glTF Blender I/O v4.4.56",
		"version":"2.0"
	},
	"extensionsUsed":[
		"KHR_materials_clearcoat",
		"KHR_materials_specular"
	],
	"scene":0,
	"scenes":[
		{
			"name":"Scene",
			"nodes":[
				0,
				1
			]
		}
	],
	"nodes":[
		{
			"mesh":0,
			"name":"sweetcorn"
		},
		{
			"mesh":1,
			"name":"corn_lid",
			"rotation":[
				0,
				0,
				0.8134154677391052,
				0.5816831588745117
			],
			"translation":[
				-0.0432918444275856,
				0.10117420554161072,
				0
			]
		}
	],
	"materials":[
		{
			"name":"corn_tin",
			"pbrMetallicRoughness":{
				"baseColorFactor":[
					0.5070785284042358,
					0.5070785284042358,
					0.47699978947639465,
					1
				],
				"roughnessFactor":0.25
			}
		},
		{
			"name":"corn_label",
			"pbrMetallicRoughness":{
				"baseColorTexture":{
					"index":0
				},
				"metallicFactor":0,
				"roughnessFactor":0.5
			}
		},
		{
			"extensions":{
				"KHR_materials_clearcoat":{
					"clearcoatFactor":0.5
				},
				"KHR_materials_specular":{
					"specularColorFactor":[
						1.399999976158142,
						1.399999976158142,
						1.399999976158142
					]
				}
			},
			"name":"corn_kernel",
			"pbrMetallicRoughness":{
				"baseColorFactor":[
					0.9331068396568298,
					0.5070785284042358,
					0.0134117491543293,
					1
				],
				"metallicFactor":0,
				"roughnessFactor":0.2199999988079071
			}
		}
	],
	"meshes":[
		{
			"name":"sweetcorn",
			"primitives":[
				{
					"attributes":{
						"POSITION":0,
						"NORMAL":1,
						"TEXCOORD_0":2,
						"TANGENT":3
					},
					"indices":4,
					"material":0
				},
				{
					"attributes":{
						"POSITION":5,
						"NORMAL":6,
						"TEXCOORD_0":7,
						"TANGENT":8
					},
					"indices":9,
					"material":1
				},
				{
					"attributes":{
						"POSITION":10,
						"NORMAL":11,
						"TEXCOORD_0":12,
						"TANGENT":13
					},
					"indices":14,
					"material":2
				}
			]
		},
		{
			"name":"corn_lid",
			"primitives":[
				{
					"attributes":{
						"POSITION":15,
						"NORMAL":16,
						"TEXCOORD_0":17,
						"TANGENT":18
					},
					"indices":19,
					"material":0
				}
			]
		}
	],
	"textures":[
		{
			"sampler":0,
			"source":0
		}
	],
	"images":[
		{
			"mimeType":"image/jpeg",
			"name":"corn_label",
			"uri":"textures/corn_label.jpg"
		}
	],
	"accessors":[
		{
			"bufferView":0,
			"componentType":5126,
			"count":462,
			"max":[
				0.03519999980926514,
				0.0689999982714653,
				0.03519999980926514
			],
			"min":[
				-0.03519999980926514,
				0,
				-0.03519999980926514
			],
			"type":"VEC3"
		},
		{
			"bufferView":1,
			"componentType":5126,
			"count":462,
			"type":"VEC3"
		},
		{
			"bufferView":2,
			"componentType":5126,
			"count":462,
			"type":"VEC2"
		},
		{
			"bufferView":3,
			"componentType":5126,
			"count":462,
			"type":"VEC4"
		},
		{
			"bufferView":4,
			"componentType":5123,
			"count":1944,
			"type":"SCALAR"
		},
		{
			"bufferView":5,
			"componentType":5126,
			"count":74,
			"max":[
				0.034299999475479126,
				0.06199999898672104,
				0.034299999475479126
			],
			"min":[
				-0.034299999475479126,
				0.006000000052154064,
				-0.034299999475479126
			],
			"type":"VEC3"
		},
		{
			"bufferView":6,
			"componentType":5126,
			"count":74,
			"type":"VEC3"
		},
		{
			"bufferView":7,
			"componentType":5126,
			"count":74,
			"type":"VEC2"
		},
		{
			"bufferView":8,
			"componentType":5126,
			"count":74,
			"type":"VEC4"
		},
		{
			"bufferView":9,
			"componentType":5123,
			"count":216,
			"type":"SCALAR"
		},
		{
			"bufferView":10,
			"componentType":5126,
			"count":4636,
			"max":[
				0.06038551405072212,
				0.0776994600892067,
				0.03287699073553085
			],
			"min":[
				-0.03507991135120392,
				0,
				-0.03354014456272125
			],
			"type":"VEC3"
		},
		{
			"bufferView":11,
			"componentType":5126,
			"count":4636,
			"type":"VEC3"
		},
		{
			"bufferView":12,
			"componentType":5126,
			"count":4636,
			"type":"VEC2"
		},
		{
			"bufferView":13,
			"componentType":5126,
			"count":4636,
			"type":"VEC4"
		},
		{
			"bufferView":14,
			"componentType":5123,
			"count":18240,
			"type":"SCALAR"
		},
		{
			"bufferView":15,
			"componentType":5126,
			"count":204,
			"max":[
				0.03460000082850456,
				0.0012000000569969416,
				0.03460000082850456
			],
			"min":[
				-0.03460000082850456,
				0,
				-0.03460000082850456
			],
			"type":"VEC3"
		},
		{
			"bufferView":16,
			"componentType":5126,
			"count":204,
			"type":"VEC3"
		},
		{
			"bufferView":17,
			"componentType":5126,
			"count":204,
			"type":"VEC2"
		},
		{
			"bufferView":18,
			"componentType":5126,
			"count":204,
			"type":"VEC4"
		},
		{
			"bufferView":19,
			"componentType":5123,
			"count":648,
			"type":"SCALAR"
		}
	],
	"bufferViews":[
		{
			"buffer":0,
			"byteLength":5544,
			"byteOffset":0,
			"target":34962
		},
		{
			"buffer":0,
			"byteLength":5544,
			"byteOffset":5544,
			"target":34962
		},
		{
			"buffer":0,
			"byteLength":3696,
			"byteOffset":11088,
			"target":34962
		},
		{
			"buffer":0,
			"byteLength":7392,
			"byteOffset":14784,
			"target":34962
		},
		{
			"buffer":0,
			"byteLength":3888,
			"byteOffset":22176,
			"target":34963
		},
		{
			"buffer":0,
			"byteLength":888,
			"byteOffset":26064,
			"target":34962
		},
		{
			"buffer":0,
			"byteLength":888,
			"byteOffset":26952,
			"target":34962
		},
		{
			"buffer":0,
			"byteLength":592,
			"byteOffset":27840,
			"target":34962
		},
		{
			"buffer":0,
			"byteLength":1184,
			"byteOffset":28432,
			"target":34962
		},
		{
			"buffer":0,
			"byteLength":432,
			"byteOffset":29616,
			"target":34963
		},
		{
			"buffer":0,
			"byteLength":55632,
			"byteOffset":30048,
			"target":34962
		},
		{
			"buffer":0,
			"byteLength":55632,
			"byteOffset":85680,
			"target":34962
		},
		{
			"buffer":0,
			"byteLength":37088,
			"byteOffset":141312,
			"target":34962
		},
		{
			"buffer":0,
			"byteLength":74176,
			"byteOffset":178400,
			"target":34962
		},
		{
			"buffer":0,
			"byteLength":36480,
			"byteOffset":252576,
			"target":34963
		},
		{
			"buffer":0,
			"byteLength":2448,
			"byteOffset":289056,
			"target":34962
		},
		{
			"buffer":0,
			"byteLength":2448,
			"byteOffset":291504,
			"target":34962
		},
		{
			"buffer":0,
			"byteLength":1632,
			"byteOffset":293952,
			"target":34962
		},
		{
			"buffer":0,
			"byteLength":3264,
			"byteOffset":295584,
			"target":34962
		},
		{
			"buffer":0,
			"byteLength":1296,
			"byteOffset":298848,
			"target":34963
		}
	],
	"samplers":[
		{
			"magFilter":9729,
			"minFilter":9987
		}
	],
	"buffers":[
		{
			"byteLength":300144,
			"uri":"sweetcorn.bin"
		}
	]
}
