{"accessors":[{"bufferView":0,"componentType":5126,"count":681,"max":[0.42476707696914673,0.42228615283966064,0.4227652847766876],"min":[-0.5721806883811951,-0.4033071994781494,-0.36009880900382996],"normalized":false,"type":"VEC3"},{"bufferView":1,"componentType":5126,"count":681,"max":[0.9973442554473877,0.986973762512207,0.9991213083267212,1.0],"min":[-0.9619728922843933,-0.9993161559104919,-0.997341513633728,1.0],"normalized":false,"type":"VEC4"},{"bufferView":2,"componentType":5126,"count":681,"max":[0.9975484013557434,0.9996148347854614,0.9987830519676208],"min":[-0.9983839988708496,-0.9994429349899292,-0.9998160600662231],"normalized":false,"type":"VEC3"},{"bufferView":3,"componentType":5126,"count":681,"max":[0.888624370098114,0.9989013671875],"min":[0.0010833905544131994,0.0010833905544131994],"normalized":false,"type":"VEC2"},{"bufferView":4,"componentType":5123,"count":3000,"max":[680],"min":[0],"normalized":false,"type":"SCALAR"}],"asset":{"generator":"Godot Engine v4.7.2.stable.official@ed1daf0bf001b61586d9930840f2f1394092c079","version":"2.0"},"bufferViews":[{"buffer":0,"byteLength":8172,"byteStride":12,"target":34962},{"buffer":0,"byteLength":10896,"byteOffset":8172,"byteStride":16,"target":34962},{"buffer":0,"byteLength":8172,"byteOffset":19068,"byteStride":12,"target":34962},{"buffer":0,"byteLength":5448,"byteOffset":27240,"byteStride":8,"target":34962},{"buffer":0,"byteLength":6000,"byteOffset":32688,"target":34963}],"buffers":[{"byteLength":38688,"uri":"potato_b0.bin"}],"extensionsUsed":["GODOT_single_root"],"images":[{"name":"50","uri":"textures%2F50.png"},{"name":"42_potato_normal","uri":"textures%2F42_potato_normal.png"}],"materials":[{"doubleSided":true,"name":"42_potato","normalTexture":{"index":1,"scale":1.0},"pbrMetallicRoughness":{"baseColorFactor":[1.0,1.0,1.0,1.0],"baseColorTexture":{"index":0},"metallicFactor":0.05000000074505806,"roughnessFactor":0.9577051401138306}}],"meshes":[{"name":"Sketchfab_Scene_42_potato_42_potato_0","primitives":[{"attributes":{"NORMAL":2,"POSITION":0,"TANGENT":1,"TEXCOORD_0":3},"indices":4,"material":0,"mode":4}]}],"nodes":[{"children":[1],"name":"potato_b"},{"mesh":0,"name":"potato_b2","rotation":[-0.7071067690849304,0.0,0.0,0.7071067690849304],"scale":[100.0,100.0,100.0],"translation":[-226.035888671875,-3.631921084950966e-14,163.5671844482422]}],"samplers":[{"magFilter":9729,"minFilter":9987,"wrapS":10497,"wrapT":10497}],"scene":0,"scenes":[{"nodes":[0]}],"textures":[{"sampler":0,"source":0},{"sampler":0,"source":1}]}