{"accessors":[{"bufferView":0,"componentType":5126,"count":1007,"max":[0.3364591598510742,0.3641807436943054,0.3369271457195282],"min":[-0.4989832639694214,-0.3480280041694641,-0.3241690695285797],"normalized":false,"type":"VEC3"},{"bufferView":1,"componentType":5126,"count":1007,"max":[0.9925057888031006,0.9986240267753601,0.9997003674507141,1.0],"min":[-0.9996126294136047,-0.9987045526504517,-0.9916406273841858,-1.0],"normalized":false,"type":"VEC4"},{"bufferView":2,"componentType":5126,"count":1007,"max":[0.9975030422210693,0.9994781613349915,0.999301016330719],"min":[-0.9775055646896362,-0.9921573400497437,-0.9982571005821228],"normalized":false,"type":"VEC3"},{"bufferView":3,"componentType":5126,"count":1007,"max":[0.9978942275047302,0.9786679148674011],"min":[0.0020904859993606806,0.0020904859993606806],"normalized":false,"type":"VEC2"},{"bufferView":4,"componentType":5123,"count":2994,"max":[1006],"min":[0],"normalized":false,"type":"SCALAR"}],"asset":{"generator":"Godot Engine v4.7.2.stable.official@ed1daf0bf001b61586d9930840f2f1394092c079","version":"2.0"},"bufferViews":[{"buffer":0,"byteLength":12084,"byteStride":12,"target":34962},{"buffer":0,"byteLength":16112,"byteOffset":12084,"byteStride":16,"target":34962},{"buffer":0,"byteLength":12084,"byteOffset":28196,"byteStride":12,"target":34962},{"buffer":0,"byteLength":8056,"byteOffset":40280,"byteStride":8,"target":34962},{"buffer":0,"byteLength":5988,"byteOffset":48336,"target":34963}],"buffers":[{"byteLength":54324,"uri":"strawberry0.bin"}],"extensionsUsed":["GODOT_single_root"],"images":[{"name":"176","uri":"textures%2F176.png"},{"name":"73_strawberry_normal","uri":"textures%2F73_strawberry_normal.png"}],"materials":[{"doubleSided":true,"name":"73_strawberry","normalTexture":{"index":1,"scale":1.0},"pbrMetallicRoughness":{"baseColorFactor":[1.0,1.0,1.0,1.0],"baseColorTexture":{"index":0},"metallicFactor":0.05000000074505806,"roughnessFactor":0.9577051401138306}}],"meshes":[{"name":"Sketchfab_Scene_73_strawberry_73_strawberry_0","primitives":[{"attributes":{"NORMAL":2,"POSITION":0,"TANGENT":1,"TEXCOORD_0":3},"indices":4,"material":0,"mode":4}]}],"nodes":[{"children":[1],"name":"strawberry"},{"mesh":0,"name":"strawberry2","rotation":[-0.7071067690849304,0.0,0.0,0.7071067690849304],"scale":[100.0,100.0,100.0],"translation":[527.4171142578125,-1.2106403898847536e-14,54.522396087646484]}],"samplers":[{"magFilter":9729,"minFilter":9987,"wrapS":10497,"wrapT":10497}],"scene":0,"scenes":[{"nodes":[0]}],"textures":[{"sampler":0,"source":0},{"sampler":0,"source":1}]}