{
  "accessors": [
    {
      "bufferView": 2,
      "componentType": 5126,
      "count": 1408,
      "max": [
        0.09009400010108948,
        1.0,
        0.027949199080467224
      ],
      "min": [
        -0.09009400010108948,
        -0.1818310022354126,
        -0.027168000116944313
      ],
      "type": "VEC3"
    },
    {
      "bufferView": 2,
      "byteOffset": 16896,
      "componentType": 5126,
      "count": 1408,
      "max": [
        0.9999998807907104,
        1.0,
        1.0
      ],
      "min": [
        -0.9999997615814209,
        -1.0,
        -1.0
      ],
      "type": "VEC3"
    },
    {
      "bufferView": 3,
      "componentType": 5126,
      "count": 1408,
      "max": [
        1.0,
        1.0,
        1.0,
        1.0
      ],
      "min": [
        -1.0,
        -1.0,
        -1.0,
        -1.0
      ],
      "type": "VEC4"
    },
    {
      "bufferView": 1,
      "componentType": 5126,
      "count": 1408,
      "max": [
        0.6839650273323059,
        0.9979599714279175
      ],
      "min": [
        0.002004970097914338,
        0.002039860002696514
      ],
      "type": "VEC2"
    },
    {
      "bufferView": 1,
      "byteOffset": 11264,
      "componentType": 5126,
      "count": 1408,
      "max": [
        0.9989989995956421,
        0.9989989995956421
      ],
      "min": [
        0.0010010000551119447,
        0.0010010000551119447
      ],
      "type": "VEC2"
    },
    {
      "bufferView": 0,
      "componentType": 5125,
      "count": 2112,
      "type": "SCALAR"
    },
    {
      "bufferView": 2,
      "byteOffset": 33792,
      "componentType": 5126,
      "count": 4112,
      "max": [
        0.22032099962234497,
        0.9961159825325012,
        0.02901729941368103
      ],
      "min": [
        -0.22032099962234497,
        -1.0,
        -0.02901729941368103
      ],
      "type": "VEC3"
    },
    {
      "bufferView": 2,
      "byteOffset": 83136,
      "componentType": 5126,
      "count": 4112,
      "max": [
        1.0,
        1.0,
        1.0
      ],
      "min": [
        -1.0,
        -1.0,
        -1.0
      ],
      "type": "VEC3"
    },
    {
      "bufferView": 3,
      "byteOffset": 22528,
      "componentType": 5126,
      "count": 4112,
      "max": [
        1.0,
        1.0,
        1.0,
        1.0
      ],
      "min": [
        -1.0,
        -0.999998927116394,
        -1.0,
        -1.0
      ],
      "type": "VEC4"
    },
    {
      "bufferView": 1,
      "byteOffset": 22528,
      "componentType": 5126,
      "count": 4112,
      "max": [
        0.6909570097923279,
        0.995078980922699
      ],
      "min": [
        0.1854970008134842,
        0.0020398099441081285
      ],
      "type": "VEC2"
    },
    {
      "bufferView": 1,
      "byteOffset": 55424,
      "componentType": 5126,
      "count": 4112,
      "max": [
        0.9795820116996765,
        0.9795820116996765
      ],
      "min": [
        0.0010010000551119447,
        0.0010010000551119447
      ],
      "type": "VEC2"
    },
    {
      "bufferView": 0,
      "byteOffset": 8448,
      "componentType": 5125,
      "count": 6120,
      "type": "SCALAR"
    }
  ],
  "asset": {
    "extras": {
      "author": "Multipainkiller Studio (https://sketchfab.com/Multipainkiller_Studio)",
      "license": "CC-BY-4.0 (http://creativecommons.org/licenses/by/4.0/)",
      "source": "https://sketchfab.com/3d-models/pichfork-0b386fa4706747169db655bf4ca6cfd5",
      "title": "Pichfork"
    },
    "generator": "Sketchfab-12.68.0",
    "version": "2.0"
  },
  "bufferViews": [
    {
      "buffer": 0,
      "byteLength": 32928,
      "name": "floatBufferViews",
      "target": 34963
    },
    {
      "buffer": 0,
      "byteLength": 88320,
      "byteOffset": 32928,
      "byteStride": 8,
      "name": "floatBufferViews",
      "target": 34962
    },
    {
      "buffer": 0,
      "byteLength": 132480,
      "byteOffset": 121248,
      "byteStride": 12,
      "name": "floatBufferViews",
      "target": 34962
    },
    {
      "buffer": 0,
      "byteLength": 88320,
      "byteOffset": 253728,
      "byteStride": 16,
      "name": "floatBufferViews",
      "target": 34962
    }
  ],
  "buffers": [
    {
      "byteLength": 342048,
      "uri": "scene.bin"
    }
  ],
  "images": [
    {
      "uri": "textures/M_Metal_baseColor.jpeg"
    },
    {
      "uri": "textures/M_Metal_metallicRoughness.png"
    },
    {
      "uri": "textures/M_Metal_normal.png"
    },
    {
      "uri": "textures/M_Wood_baseColor.jpeg"
    },
    {
      "uri": "textures/M_Wood_metallicRoughness.png"
    },
    {
      "uri": "textures/M_Wood_normal.png"
    }
  ],
  "materials": [
    {
      "doubleSided": true,
      "name": "M_Metal",
      "normalTexture": {
        "index": 2
      },
      "occlusionTexture": {
        "index": 1
      },
      "pbrMetallicRoughness": {
        "baseColorTexture": {
          "index": 0
        },
        "metallicRoughnessTexture": {
          "index": 1
        }
      }
    },
    {
      "doubleSided": true,
      "name": "M_Wood",
      "normalTexture": {
        "index": 5
      },
      "occlusionTexture": {
        "index": 4
      },
      "pbrMetallicRoughness": {
        "baseColorTexture": {
          "index": 3
        },
        "metallicRoughnessTexture": {
          "index": 4
        }
      }
    }
  ],
  "meshes": [
    {
      "name": "defaultMaterial",
      "primitives": [
        {
          "attributes": {
            "NORMAL": 1,
            "POSITION": 0,
            "TANGENT": 2,
            "TEXCOORD_0": 3,
            "TEXCOORD_1": 4
          },
          "indices": 5,
          "material": 1,
          "mode": 4
        }
      ]
    },
    {
      "name": "defaultMaterial",
      "primitives": [
        {
          "attributes": {
            "NORMAL": 7,
            "POSITION": 6,
            "TANGENT": 8,
            "TEXCOORD_0": 9,
            "TEXCOORD_1": 10
          },
          "indices": 11,
          "material": 0,
          "mode": 4
        }
      ]
    }
  ],
  "nodes": [
    {
      "children": [
        1
      ],
      "matrix": [
        1.0,
        0.0,
        0.0,
        0.0,
        0.0,
        2.220446049250313e-16,
        -1.0,
        0.0,
        0.0,
        1.0,
        2.220446049250313e-16,
        0.0,
        0.0,
        0.0,
        0.0,
        1.0
      ],
      "name": "Sketchfab_model"
    },
    {
      "children": [
        2,
        4
      ],
      "matrix": [
        1.0,
        0.0,
        0.0,
        0.0,
        0.0,
        -4.371139006309477e-08,
        0.999999999999999,
        0.0,
        0.0,
        -0.999999999999999,
        -4.371139006309477e-08,
        0.0,
        0.0,
        0.0,
        0.0,
        1.0
      ],
      "name": "Collada visual scene group"
    },
    {
      "children": [
        3
      ],
      "name": "SM_Pitchfork"
    },
    {
      "mesh": 0,
      "name": "defaultMaterial"
    },
    {
      "children": [
        5
      ],
      "name": "SM_Pitchfork"
    },
    {
      "mesh": 1,
      "name": "defaultMaterial"
    }
  ],
  "samplers": [
    {
      "magFilter": 9729,
      "minFilter": 9987,
      "wrapS": 10497,
      "wrapT": 10497
    }
  ],
  "scene": 0,
  "scenes": [
    {
      "name": "Sketchfab_Scene",
      "nodes": [
        0
      ]
    }
  ],
  "textures": [
    {
      "sampler": 0,
      "source": 0
    },
    {
      "sampler": 0,
      "source": 1
    },
    {
      "sampler": 0,
      "source": 2
    },
    {
      "sampler": 0,
      "source": 3
    },
    {
      "sampler": 0,
      "source": 4
    },
    {
      "sampler": 0,
      "source": 5
    }
  ]
}
