{"accessors":[{"bufferView":0,"componentType":5126,"count":651,"max":[0.48661208152770996,0.3468065559864044,0.34930071234703064],"min":[-0.5136375427246094,-0.33575698733329773,-0.33568963408470154],"normalized":false,"type":"VEC3"},{"bufferView":1,"componentType":5126,"count":651,"max":[0.9903835654258728,0.9794142842292786,0.9882640838623047,1.0],"min":[-0.994968593120575,-0.9986695051193237,-0.8689547777175903,1.0],"normalized":false,"type":"VEC4"},{"bufferView":2,"componentType":5126,"count":651,"max":[0.9961088299751282,0.9941084980964661,0.9958216547966003],"min":[-0.9910879731178284,-0.9995003342628479,-0.9994871020317078],"normalized":false,"type":"VEC3"},{"bufferView":3,"componentType":5126,"count":651,"max":[0.9929198026657104,0.998748779296875],"min":[0.001235980773344636,0.001235980773344636],"normalized":false,"type":"VEC2"},{"bufferView":4,"componentType":5123,"count":3000,"max":[650],"min":[0],"normalized":false,"type":"SCALAR"}],"asset":{"generator":"Godot Engine v4.7.2.stable.official@ed1daf0bf001b61586d9930840f2f1394092c079","version":"2.0"},"bufferViews":[{"buffer":0,"byteLength":7812,"byteStride":12,"target":34962},{"buffer":0,"byteLength":10416,"byteOffset":7812,"byteStride":16,"target":34962},{"buffer":0,"byteLength":7812,"byteOffset":18228,"byteStride":12,"target":34962},{"buffer":0,"byteLength":5208,"byteOffset":26040,"byteStride":8,"target":34962},{"buffer":0,"byteLength":6000,"byteOffset":31248,"target":34963}],"buffers":[{"byteLength":37248,"uri":"potato_a0.bin"}],"extensionsUsed":["GODOT_single_root"],"images":[{"name":"112","uri":"textures%2F112.png"},{"name":"02_potato_normal","uri":"textures%2F02_potato_normal.png"}],"materials":[{"doubleSided":true,"name":"02_potato","normalTexture":{"index":1,"scale":1.0},"pbrMetallicRoughness":{"baseColorFactor":[1.0,1.0,1.0,1.0],"baseColorTexture":{"index":0},"metallicFactor":0.05000000074505806,"roughnessFactor":0.9577051401138306}}],"meshes":[{"name":"Sketchfab_Scene_02_potato_02_potato_0","primitives":[{"attributes":{"NORMAL":2,"POSITION":0,"TANGENT":1,"TEXCOORD_0":3},"indices":4,"material":0,"mode":4}]}],"nodes":[{"children":[1],"name":"potato_a"},{"mesh":0,"name":"potato_a2","rotation":[-0.7071067690849304,0.0,0.0,0.7071067690849304],"scale":[100.0,100.0,100.0],"translation":[-75.34529876708984,-3.631921084950966e-14,163.5671844482422]}],"samplers":[{"magFilter":9729,"minFilter":9987,"wrapS":10497,"wrapT":10497}],"scene":0,"scenes":[{"nodes":[0]}],"textures":[{"sampler":0,"source":0},{"sampler":0,"source":1}]}