{
  "accessors": [
    {
      "bufferView": 2,
      "componentType": 5126,
      "count": 4510,
      "max": [
        0.5611460208892822,
        0.769320011138916,
        0.4831230044364929
      ],
      "min": [
        -0.5542430281639099,
        -0.7408599853515625,
        -0.09661000221967697
      ],
      "type": "VEC3"
    },
    {
      "bufferView": 2,
      "byteOffset": 54120,
      "componentType": 5126,
      "count": 4510,
      "max": [
        0.9996194243431091,
        1.0,
        1.0
      ],
      "min": [
        -0.999083936214447,
        -1.0,
        -1.0
      ],
      "type": "VEC3"
    },
    {
      "bufferView": 3,
      "componentType": 5126,
      "count": 4510,
      "max": [
        0.999920666217804,
        0.9986876249313354,
        0.9870639443397522,
        1.0
      ],
      "min": [
        -0.9999997615814209,
        -0.9989539384841919,
        -0.9999891519546509,
        1.0
      ],
      "type": "VEC4"
    },
    {
      "bufferView": 1,
      "componentType": 5126,
      "count": 4510,
      "max": [
        0.9913409948348999,
        0.9938610196113586
      ],
      "min": [
        0.006176999770104885,
        0.006142999976873398
      ],
      "type": "VEC2"
    },
    {
      "bufferView": 0,
      "componentType": 5125,
      "count": 9180,
      "type": "SCALAR"
    }
  ],
  "asset": {
    "extras": {
      "author": "Zbrojmistrz (https://sketchfab.com/zbrojmistrz)",
      "license": "CC-BY-4.0 (http://creativecommons.org/licenses/by/4.0/)",
      "source": "https://sketchfab.com/3d-models/hay-bales-d6e087f9a2a9416c94918f0503943c17",
      "title": "Hay bales"
    },
    "generator": "Sketchfab-15.38.0",
    "version": "2.0"
  },
  "bufferViews": [
    {
      "buffer": 0,
      "byteLength": 36720,
      "name": "floatBufferViews",
      "target": 34963
    },
    {
      "buffer": 0,
      "byteLength": 36080,
      "byteOffset": 36720,
      "byteStride": 8,
      "name": "floatBufferViews",
      "target": 34962
    },
    {
      "buffer": 0,
      "byteLength": 108240,
      "byteOffset": 72800,
      "byteStride": 12,
      "name": "floatBufferViews",
      "target": 34962
    },
    {
      "buffer": 0,
      "byteLength": 72160,
      "byteOffset": 181040,
      "byteStride": 16,
      "name": "floatBufferViews",
      "target": 34962
    }
  ],
  "buffers": [
    {
      "byteLength": 253200,
      "uri": "scene.bin"
    }
  ],
  "images": [
    {
      "uri": "textures/hay_bale_texture_baseColor.png"
    },
    {
      "uri": "textures/hay_bale_texture_metallicRoughness.png"
    },
    {
      "uri": "textures/hay_bale_texture_normal.png"
    }
  ],
  "materials": [
    {
      "alphaCutoff": 0.7542880130682302,
      "alphaMode": "MASK",
      "doubleSided": true,
      "name": "hay_bale_texture",
      "normalTexture": {
        "index": 2
      },
      "pbrMetallicRoughness": {
        "baseColorTexture": {
          "index": 0
        },
        "metallicFactor": 0.0,
        "metallicRoughnessTexture": {
          "index": 1
        }
      }
    }
  ],
  "meshes": [
    {
      "name": "Object_0",
      "primitives": [
        {
          "attributes": {
            "NORMAL": 1,
            "POSITION": 0,
            "TANGENT": 2,
            "TEXCOORD_0": 3
          },
          "indices": 4,
          "material": 0,
          "mode": 4
        }
      ]
    }
  ],
  "nodes": [
    {
      "children": [
        1
      ],
      "matrix": [
        1.0,
        0.0,
        0.0,
        0.0,
        0.0,
        2.220446049250313e-16,
        -1.0,
        0.0,
        0.0,
        1.0,
        2.220446049250313e-16,
        0.0,
        0.0,
        0.0,
        0.0,
        1.0
      ],
      "name": "Sketchfab_model"
    },
    {
      "children": [
        2
      ],
      "name": "f742b4b32ac64112b81b78af7c19c2b3.obj.cleaner.materialmerger.gles"
    },
    {
      "mesh": 0,
      "name": "Object_2"
    }
  ],
  "samplers": [
    {
      "magFilter": 9729,
      "minFilter": 9987,
      "wrapS": 10497,
      "wrapT": 10497
    }
  ],
  "scene": 0,
  "scenes": [
    {
      "name": "Sketchfab_Scene",
      "nodes": [
        0
      ]
    }
  ],
  "textures": [
    {
      "sampler": 0,
      "source": 0
    },
    {
      "sampler": 0,
      "source": 1
    },
    {
      "sampler": 0,
      "source": 2
    }
  ]
}
