{"accessors":[{"bufferView":0,"componentType":5126,"count":747,"max":[0.49572116136550903,0.4788133502006531,0.38949766755104065],"min":[-0.5023949146270752,-0.49189162254333496,-0.38529643416404724],"normalized":false,"type":"VEC3"},{"bufferView":1,"componentType":5126,"count":747,"max":[0.9927195310592651,0.9997779130935669,0.9997857809066772,1.0],"min":[-0.9956239461898804,-0.9988589882850647,-0.9989652633666992,1.0],"normalized":false,"type":"VEC4"},{"bufferView":2,"componentType":5126,"count":747,"max":[0.9972499012947083,0.9984875917434692,0.9991499781608582],"min":[-0.992317795753479,-0.9996129870414734,-0.9986665844917297],"normalized":false,"type":"VEC3"},{"bufferView":3,"componentType":5126,"count":747,"max":[0.9136797189712524,0.998565673828125],"min":[0.0014190890360623598,0.0014190890360623598],"normalized":false,"type":"VEC2"},{"bufferView":4,"componentType":5123,"count":3000,"max":[746],"min":[0],"normalized":false,"type":"SCALAR"}],"asset":{"generator":"Godot Engine v4.7.2.stable.official@ed1daf0bf001b61586d9930840f2f1394092c079","version":"2.0"},"bufferViews":[{"buffer":0,"byteLength":8964,"byteStride":12,"target":34962},{"buffer":0,"byteLength":11952,"byteOffset":8964,"byteStride":16,"target":34962},{"buffer":0,"byteLength":8964,"byteOffset":20916,"byteStride":12,"target":34962},{"buffer":0,"byteLength":5976,"byteOffset":29880,"byteStride":8,"target":34962},{"buffer":0,"byteLength":6000,"byteOffset":35856,"target":34963}],"buffers":[{"byteLength":41856,"uri":"pumpkin_c0.bin"}],"extensionsUsed":["GODOT_single_root"],"images":[{"name":"198","uri":"textures%2F198.png"},{"name":"65_pumpkin_normal","uri":"textures%2F65_pumpkin_normal.png"}],"materials":[{"doubleSided":true,"name":"65_pumpkin","normalTexture":{"index":1,"scale":1.0},"pbrMetallicRoughness":{"baseColorFactor":[1.0,1.0,1.0,1.0],"baseColorTexture":{"index":0},"metallicFactor":0.05000000074505806,"roughnessFactor":0.9577051401138306}}],"meshes":[{"name":"Sketchfab_Scene_65_pumpkin_65_pumpkin_0","primitives":[{"attributes":{"NORMAL":2,"POSITION":0,"TANGENT":1,"TEXCOORD_0":3},"indices":4,"material":0,"mode":4}]}],"nodes":[{"children":[1],"name":"pumpkin_c"},{"mesh":0,"name":"pumpkin_c2","rotation":[-0.7071067690849304,0.0,0.0,0.7071067690849304],"scale":[100.0,100.0,100.0],"translation":[-226.035888671875,-8.474482644489981e-14,381.6567687988281]}],"samplers":[{"magFilter":9729,"minFilter":9987,"wrapS":10497,"wrapT":10497}],"scene":0,"scenes":[{"nodes":[0]}],"textures":[{"sampler":0,"source":0},{"sampler":0,"source":1}]}