{"accessors":[{"bufferView":0,"componentType":5126,"count":662,"max":[0.825786292552948,0.17220202088356018,0.19397208094596863],"min":[-0.5904685854911804,-0.1709774136543274,-0.1658456027507782],"normalized":false,"type":"VEC3"},{"bufferView":1,"componentType":5126,"count":662,"max":[0.8801915049552917,0.8018187284469604,0.9999960064888,1.0],"min":[-0.9931769371032715,-0.9997498393058777,-0.9969848394393921,1.0],"normalized":false,"type":"VEC4"},{"bufferView":2,"componentType":5126,"count":662,"max":[0.9950318336486816,0.9999246597290039,0.998990535736084],"min":[-0.9995267987251282,-0.9997633099555969,-0.9993927478790283],"normalized":false,"type":"VEC3"},{"bufferView":3,"componentType":5126,"count":662,"max":[0.998870849609375,0.9825284481048584],"min":[0.0011139085981994867,0.0011139085981994867],"normalized":false,"type":"VEC2"},{"bufferView":4,"componentType":5123,"count":3000,"max":[661],"min":[0],"normalized":false,"type":"SCALAR"}],"asset":{"generator":"Godot Engine v4.7.2.stable.official@ed1daf0bf001b61586d9930840f2f1394092c079","version":"2.0"},"bufferViews":[{"buffer":0,"byteLength":7944,"byteStride":12,"target":34962},{"buffer":0,"byteLength":10592,"byteOffset":7944,"byteStride":16,"target":34962},{"buffer":0,"byteLength":7944,"byteOffset":18536,"byteStride":12,"target":34962},{"buffer":0,"byteLength":5296,"byteOffset":26480,"byteStride":8,"target":34962},{"buffer":0,"byteLength":6000,"byteOffset":31776,"target":34963}],"buffers":[{"byteLength":37776,"uri":"carrot0.bin"}],"extensionsUsed":["GODOT_single_root"],"images":[{"name":"158","uri":"textures%2F158.png"},{"name":"07_carrot_normal","uri":"textures%2F07_carrot_normal.png"}],"materials":[{"doubleSided":true,"name":"07_carrot","normalTexture":{"index":1,"scale":1.0},"pbrMetallicRoughness":{"baseColorFactor":[1.0,1.0,1.0,1.0],"baseColorTexture":{"index":0},"metallicFactor":0.05000000074505806,"roughnessFactor":0.9577051401138306}}],"meshes":[{"name":"Sketchfab_Scene_07_carrot_07_carrot_0","primitives":[{"attributes":{"NORMAL":2,"POSITION":0,"TANGENT":1,"TEXCOORD_0":3},"indices":4,"material":0,"mode":4}]}],"nodes":[{"children":[1],"name":"carrot"},{"mesh":0,"name":"carrot2","rotation":[-0.7071067690849304,0.0,0.0,0.7071067690849304],"scale":[100.0,100.0,100.0],"translation":[678.107666015625,-6.053201695313884e-14,272.6119689941406]}],"samplers":[{"magFilter":9729,"minFilter":9987,"wrapS":10497,"wrapT":10497}],"scene":0,"scenes":[{"nodes":[0]}],"textures":[{"sampler":0,"source":0},{"sampler":0,"source":1}]}