{
	"asset":{
		"generator":"Khronos glTF Blender I/O v4.4.56",
		"version":"2.0"
	},
	"scene":0,
	"scenes":[
		{
			"name":"Scene",
			"nodes":[
				54
			]
		}
	],
	"nodes":[
		{
			"name":"index_03_l",
			"rotation":[
				0.06653086841106415,
				-0.007054803427308798,
				0.016107091680169106,
				0.9976294040679932
			],
			"scale":[
				0.9999999403953552,
				1,
				1
			],
			"translation":[
				-8.940696716308594e-08,
				0.022126251831650734,
				-1.4901161193847656e-08
			]
		},
		{
			"children":[
				0
			],
			"name":"index_02_l",
			"rotation":[
				0.12305381894111633,
				-0.04461551830172539,
				0.008489995263516903,
				0.9913602471351624
			],
			"scale":[
				1,
				1,
				0.9999998807907104
			],
			"translation":[
				1.4901161193847656e-08,
				0.024964742362499237,
				-2.2351741790771484e-08
			]
		},
		{
			"children":[
				1
			],
			"name":"index_01_l",
			"rotation":[
				0.09673582017421722,
				0.4963662028312683,
				0.004724930506199598,
				0.8626937866210938
			],
			"scale":[
				1,
				0.9999999403953552,
				1
			],
			"translation":[
				-0.013574056327342987,
				0.10009723901748657,
				0.006865687668323517
			]
		},
		{
			"name":"middle_03_l",
			"rotation":[
				0.049591656774282455,
				0.02691946178674698,
				-0.00630780216306448,
				0.9983868598937988
			],
			"scale":[
				1.0000001192092896,
				1,
				0.9999999403953552
			],
			"translation":[
				-1.4901161193847656e-08,
				0.02600198984146118,
				1.4901161193847656e-08
			]
		},
		{
			"children":[
				3
			],
			"name":"middle_02_l",
			"rotation":[
				0.058268994092941284,
				-0.022729597985744476,
				0.03468484431505203,
				0.9974392652511597
			],
			"translation":[
				1.4901161193847656e-08,
				0.03249534219503403,
				-1.4901161193847656e-08
			]
		},
		{
			"children":[
				4
			],
			"name":"middle_01_l",
			"rotation":[
				0.09700644016265869,
				0.4030519127845764,
				-0.15269486606121063,
				0.897119402885437
			],
			"scale":[
				1.0000001192092896,
				1.0000001192092896,
				1.0000001192092896
			],
			"translation":[
				0.0013341009616851807,
				0.09665077924728394,
				-0.012892156839370728
			]
		},
		{
			"name":"pinky_03_l",
			"rotation":[
				0.0009292236063629389,
				-0.012770705856382847,
				-0.014873137697577477,
				0.9998074173927307
			],
			"scale":[
				1,
				0.9999999403953552,
				1
			],
			"translation":[
				7.450580596923828e-08,
				0.014739811420440674,
				-6.705522537231445e-08
			]
		},
		{
			"children":[
				6
			],
			"name":"pinky_02_l",
			"rotation":[
				0.09283675998449326,
				-0.022445471957325935,
				0.022277528420090675,
				0.9951789975166321
			],
			"translation":[
				2.9802322387695312e-08,
				0.020313754677772522,
				4.0978193283081055e-08
			]
		},
		{
			"children":[
				7
			],
			"name":"pinky_01_l",
			"rotation":[
				0.04042278230190277,
				0.3070727586746216,
				-0.29148679971694946,
				0.905045747756958
			],
			"scale":[
				1,
				0.9999999403953552,
				1
			],
			"translation":[
				0.03162117302417755,
				0.07863306999206543,
				-0.030792146921157837
			]
		},
		{
			"name":"ring_03_l",
			"rotation":[
				0.06507451832294464,
				-0.0093240300193429,
				-0.026796158403158188,
				0.9974770545959473
			],
			"translation":[
				-5.960464477539063e-08,
				0.023557983338832855,
				2.9802322387695312e-08
			]
		},
		{
			"children":[
				9
			],
			"name":"ring_02_l",
			"rotation":[
				0.054473452270030975,
				0.00046667008427903056,
				0.04651418328285217,
				0.9974311590194702
			],
			"scale":[
				1,
				0.9999999403953552,
				1
			],
			"translation":[
				1.4901161193847656e-08,
				0.028540372848510742,
				2.9802322387695312e-08
			]
		},
		{
			"children":[
				10
			],
			"name":"ring_01_l",
			"rotation":[
				0.05030563473701477,
				0.3872511386871338,
				-0.22919784486293793,
				0.8916133046150208
			],
			"scale":[
				1,
				0.9999999403953552,
				1
			],
			"translation":[
				0.015312101691961288,
				0.08889304101467133,
				-0.023993782699108124
			]
		},
		{
			"name":"thumb_03_l",
			"rotation":[
				0.15634992718696594,
				0.07408372312784195,
				-0.04836876317858696,
				0.9837310910224915
			],
			"translation":[
				-1.0244548320770264e-08,
				0.03475986421108246,
				-3.725290298461914e-09
			]
		},
		{
			"children":[
				12
			],
			"name":"thumb_02_l",
			"rotation":[
				0.04156438261270523,
				-0.04660198092460632,
				-0.1837899386882782,
				0.9809800982475281
			],
			"scale":[
				0.9999999403953552,
				0.9999998211860657,
				1
			],
			"translation":[
				4.0978193283081055e-08,
				0.029042109847068787,
				9.685754776000977e-08
			]
		},
		{
			"children":[
				13
			],
			"name":"thumb_01_l",
			"rotation":[
				0.27967163920402527,
				0.7101824879646301,
				0.42430418729782104,
				0.48722749948501587
			],
			"scale":[
				1,
				1.0000001192092896,
				1.0000001192092896
			],
			"translation":[
				-0.013813711702823639,
				0.037754759192466736,
				0.013781525194644928
			]
		},
		{
			"children":[
				2,
				5,
				8,
				11,
				14
			],
			"name":"hand_l",
			"rotation":[
				0.11194094270467758,
				0.37873536348342896,
				-0.023177344352006912,
				0.9184179902076721
			],
			"scale":[
				0.9999999403953552,
				1,
				1
			],
			"translation":[
				-9.499490261077881e-08,
				0.22088204324245453,
				1.4901161193847656e-08
			]
		},
		{
			"children":[
				15
			],
			"name":"lowerarm_l",
			"rotation":[
				0.3626059293746948,
				0.0186665877699852,
				0.02412191405892372,
				0.9314432740211487
			],
			"scale":[
				0.9999999403953552,
				1,
				0.9999999403953552
			],
			"translation":[
				3.2188836485147476e-08,
				0.2298521101474762,
				1.3969838619232178e-09
			]
		},
		{
			"children":[
				16
			],
			"name":"upperarm_l",
			"rotation":[
				0.056246183812618256,
				0.032292574644088745,
				-0.3278088867664337,
				0.9425151944160461
			],
			"scale":[
				1.0000001192092896,
				1.0000001192092896,
				0.9999998211860657
			],
			"translation":[
				-1.619919203221798e-07,
				0.15677239000797272,
				-2.7939677238464355e-09
			]
		},
		{
			"children":[
				17
			],
			"name":"clavicle_l",
			"rotation":[
				-0.022516446188092232,
				0.06214245408773422,
				-0.7574223279953003,
				0.6495712399482727
			],
			"scale":[
				1,
				1,
				0.9999998807907104
			],
			"translation":[
				0.022322144359350204,
				0.2353355884552002,
				0.10107053816318512
			]
		},
		{
			"name":"index_03_r",
			"rotation":[
				0.06653086841106415,
				0.007054803427308798,
				-0.016107091680169106,
				0.9976294040679932
			],
			"scale":[
				0.9999999403953552,
				1,
				1
			],
			"translation":[
				8.940696716308594e-08,
				0.022126251831650734,
				-1.4901161193847656e-08
			]
		},
		{
			"children":[
				19
			],
			"name":"index_02_r",
			"rotation":[
				0.12305381894111633,
				0.04461551830172539,
				-0.008489995263516903,
				0.9913602471351624
			],
			"scale":[
				1,
				1,
				0.9999998807907104
			],
			"translation":[
				-1.4901161193847656e-08,
				0.024964742362499237,
				-2.2351741790771484e-08
			]
		},
		{
			"children":[
				20
			],
			"name":"index_01_r",
			"rotation":[
				0.09673582017421722,
				-0.4963662028312683,
				-0.004724930506199598,
				0.8626937866210938
			],
			"scale":[
				1,
				0.9999999403953552,
				1
			],
			"translation":[
				0.013574056327342987,
				0.10009723901748657,
				0.006865687668323517
			]
		},
		{
			"name":"middle_03_r",
			"rotation":[
				0.049591656774282455,
				-0.02691946178674698,
				0.00630780216306448,
				0.9983868598937988
			],
			"scale":[
				1.0000001192092896,
				1,
				0.9999999403953552
			],
			"translation":[
				1.4901161193847656e-08,
				0.02600198984146118,
				1.4901161193847656e-08
			]
		},
		{
			"children":[
				22
			],
			"name":"middle_02_r",
			"rotation":[
				0.058268994092941284,
				0.022729597985744476,
				-0.03468484431505203,
				0.9974392652511597
			],
			"translation":[
				-1.4901161193847656e-08,
				0.03249534219503403,
				-1.4901161193847656e-08
			]
		},
		{
			"children":[
				23
			],
			"name":"middle_01_r",
			"rotation":[
				0.09700644016265869,
				-0.4030519127845764,
				0.15269486606121063,
				0.897119402885437
			],
			"scale":[
				1.0000001192092896,
				1.0000001192092896,
				1.0000001192092896
			],
			"translation":[
				-0.0013341009616851807,
				0.09665077924728394,
				-0.012892156839370728
			]
		},
		{
			"name":"pinky_03_r",
			"rotation":[
				0.0009292236063629389,
				0.012770705856382847,
				0.014873137697577477,
				0.9998074173927307
			],
			"scale":[
				1,
				0.9999999403953552,
				1
			],
			"translation":[
				-7.450580596923828e-08,
				0.014739811420440674,
				-6.705522537231445e-08
			]
		},
		{
			"children":[
				25
			],
			"name":"pinky_02_r",
			"rotation":[
				0.09283675998449326,
				0.022445471957325935,
				-0.022277528420090675,
				0.9951789975166321
			],
			"translation":[
				-2.9802322387695312e-08,
				0.020313754677772522,
				4.0978193283081055e-08
			]
		},
		{
			"children":[
				26
			],
			"name":"pinky_01_r",
			"rotation":[
				0.04042278230190277,
				-0.3070727586746216,
				0.29148679971694946,
				0.905045747756958
			],
			"scale":[
				1,
				0.9999999403953552,
				1
			],
			"translation":[
				-0.03162117302417755,
				0.07863306999206543,
				-0.030792146921157837
			]
		},
		{
			"name":"ring_03_r",
			"rotation":[
				0.06507451832294464,
				0.0093240300193429,
				0.026796158403158188,
				0.9974770545959473
			],
			"translation":[
				5.960464477539063e-08,
				0.023557983338832855,
				2.9802322387695312e-08
			]
		},
		{
			"children":[
				28
			],
			"name":"ring_02_r",
			"rotation":[
				0.054473452270030975,
				-0.00046667008427903056,
				-0.04651418328285217,
				0.9974311590194702
			],
			"scale":[
				1,
				0.9999999403953552,
				1
			],
			"translation":[
				-1.4901161193847656e-08,
				0.028540372848510742,
				2.9802322387695312e-08
			]
		},
		{
			"children":[
				29
			],
			"name":"ring_01_r",
			"rotation":[
				0.05030563473701477,
				-0.3872511386871338,
				0.22919784486293793,
				0.8916133046150208
			],
			"scale":[
				1,
				0.9999999403953552,
				1
			],
			"translation":[
				-0.015312101691961288,
				0.08889304101467133,
				-0.023993782699108124
			]
		},
		{
			"name":"thumb_03_r",
			"rotation":[
				0.15634992718696594,
				-0.07408372312784195,
				0.04836876317858696,
				0.9837310910224915
			],
			"translation":[
				1.0244548320770264e-08,
				0.03475986421108246,
				-3.725290298461914e-09
			]
		},
		{
			"children":[
				31
			],
			"name":"thumb_02_r",
			"rotation":[
				0.04156438261270523,
				0.04660198092460632,
				0.1837899386882782,
				0.9809800982475281
			],
			"scale":[
				0.9999999403953552,
				0.9999998211860657,
				1
			],
			"translation":[
				-4.0978193283081055e-08,
				0.029042109847068787,
				9.685754776000977e-08
			]
		},
		{
			"children":[
				32
			],
			"name":"thumb_01_r",
			"rotation":[
				0.27967163920402527,
				-0.7101824879646301,
				-0.42430418729782104,
				0.48722749948501587
			],
			"scale":[
				1,
				1.0000001192092896,
				1.0000001192092896
			],
			"translation":[
				0.013813711702823639,
				0.037754759192466736,
				0.013781525194644928
			]
		},
		{
			"children":[
				21,
				24,
				27,
				30,
				33
			],
			"name":"hand_r",
			"rotation":[
				0.11194094270467758,
				-0.37873536348342896,
				0.023177344352006912,
				0.9184179902076721
			],
			"scale":[
				0.9999999403953552,
				1,
				1
			],
			"translation":[
				9.499490261077881e-08,
				0.22088204324245453,
				1.4901161193847656e-08
			]
		},
		{
			"children":[
				34
			],
			"name":"lowerarm_r",
			"rotation":[
				0.3626059293746948,
				-0.0186665877699852,
				-0.02412191405892372,
				0.9314432740211487
			],
			"scale":[
				0.9999999403953552,
				1,
				0.9999999403953552
			],
			"translation":[
				-3.2188836485147476e-08,
				0.2298521101474762,
				1.3969838619232178e-09
			]
		},
		{
			"children":[
				35
			],
			"name":"upperarm_r",
			"rotation":[
				0.056246183812618256,
				-0.032292574644088745,
				0.3278088867664337,
				0.9425151944160461
			],
			"scale":[
				1.0000001192092896,
				1.0000001192092896,
				0.9999998211860657
			],
			"translation":[
				1.619919203221798e-07,
				0.15677239000797272,
				-2.7939677238464355e-09
			]
		},
		{
			"children":[
				36
			],
			"name":"clavicle_r",
			"rotation":[
				-0.022516446188092232,
				-0.06214245408773422,
				0.7574223279953003,
				0.6495712399482727
			],
			"scale":[
				1,
				1,
				0.9999998807907104
			],
			"translation":[
				-0.022322144359350204,
				0.2353355884552002,
				0.10107053816318512
			]
		},
		{
			"name":"head",
			"rotation":[
				-0.1408156007528305,
				0,
				0,
				0.9900358319282532
			],
			"translation":[
				0,
				0.08765970170497894,
				1.1175870895385742e-08
			]
		},
		{
			"children":[
				38
			],
			"name":"neck_01",
			"rotation":[
				0.220398411154747,
				0,
				0,
				0.975409984588623
			],
			"scale":[
				1,
				1,
				0.9999998807907104
			],
			"translation":[
				0,
				0.3124728798866272,
				0.09514996409416199
			]
		},
		{
			"children":[
				18,
				37,
				39
			],
			"name":"spine_03",
			"rotation":[
				0.15626993775367737,
				0,
				0,
				0.987714409828186
			],
			"scale":[
				1,
				0.9999999403953552,
				0.9999999403953552
			],
			"translation":[
				0,
				0.06065521016716957,
				-7.450580596923828e-09
			]
		},
		{
			"children":[
				40
			],
			"name":"spine_02",
			"rotation":[
				-0.2615046501159668,
				0,
				0,
				0.9652022123336792
			],
			"translation":[
				0,
				0.06551683694124222,
				1.862645149230957e-09
			]
		},
		{
			"children":[
				41
			],
			"name":"spine_01",
			"rotation":[
				0.2170007824897766,
				0,
				0,
				0.9761714339256287
			],
			"translation":[
				0,
				0.09070993214845657,
				1.1175870895385742e-08
			]
		},
		{
			"name":"ball_l",
			"rotation":[
				-0.2327270209789276,
				-0.04917634278535843,
				0.04761537164449692,
				0.970130205154419
			],
			"scale":[
				1,
				0.9999999403953552,
				0.9999999403953552
			],
			"translation":[
				-9.011273505166173e-09,
				0.1383613795042038,
				1.1641532182693481e-09
			]
		},
		{
			"children":[
				43
			],
			"name":"foot_l",
			"rotation":[
				-0.5638808608055115,
				-0.00531585980206728,
				0.0300520621240139,
				0.8252920508384705
			],
			"scale":[
				1,
				1,
				0.9999999403953552
			],
			"translation":[
				-4.270987119525671e-09,
				0.44709479808807373,
				6.984919309616089e-10
			]
		},
		{
			"children":[
				44
			],
			"name":"calf_l",
			"rotation":[
				0.07753772288560867,
				0.2120397686958313,
				0.005993850063532591,
				0.9741618037223816
			],
			"scale":[
				0.9999999403953552,
				0.9999998807907104,
				1
			],
			"translation":[
				-2.2351741790771484e-08,
				0.35617244243621826,
				7.450580596923828e-09
			]
		},
		{
			"children":[
				45
			],
			"name":"thigh_l",
			"rotation":[
				-0.9653560519218445,
				-0.0784662514925003,
				0.22050601243972778,
				0.11535930633544922
			],
			"scale":[
				1.000000238418579,
				1,
				1.0000011920928955
			],
			"translation":[
				0.11444644629955292,
				-0.02203851379454136,
				-0.01910804584622383
			]
		},
		{
			"name":"ball_r",
			"rotation":[
				-0.2327270209789276,
				0.04917634278535843,
				-0.04761537164449692,
				0.970130205154419
			],
			"scale":[
				1,
				0.9999999403953552,
				0.9999999403953552
			],
			"translation":[
				9.011273505166173e-09,
				0.1383613795042038,
				1.1641532182693481e-09
			]
		},
		{
			"children":[
				47
			],
			"name":"foot_r",
			"rotation":[
				-0.5638808608055115,
				0.00531585980206728,
				-0.0300520621240139,
				0.8252920508384705
			],
			"scale":[
				1,
				1,
				0.9999999403953552
			],
			"translation":[
				4.270987119525671e-09,
				0.44709479808807373,
				6.984919309616089e-10
			]
		},
		{
			"children":[
				48
			],
			"name":"calf_r",
			"rotation":[
				0.07753772288560867,
				-0.2120397686958313,
				-0.005993850063532591,
				0.9741618037223816
			],
			"scale":[
				0.9999999403953552,
				0.9999998807907104,
				1
			],
			"translation":[
				2.2351741790771484e-08,
				0.35617244243621826,
				7.450580596923828e-09
			]
		},
		{
			"children":[
				49
			],
			"name":"thigh_r",
			"rotation":[
				-0.9653560519218445,
				0.0784662514925003,
				-0.22050601243972778,
				0.11535930633544922
			],
			"scale":[
				1.000000238418579,
				1,
				1.0000011920928955
			],
			"translation":[
				-0.11444644629955292,
				-0.02203851379454136,
				-0.01910804584622383
			]
		},
		{
			"children":[
				42,
				46,
				50
			],
			"name":"pelvis",
			"rotation":[
				0.5737907886505127,
				0,
				0,
				0.8190019726753235
			],
			"scale":[
				1,
				0.9999999403953552,
				0.9999999403953552
			],
			"translation":[
				0,
				0.007816251367330551,
				0.8914555907249451
			]
		},
		{
			"children":[
				51
			],
			"name":"Root",
			"rotation":[
				-0.7071067690849304,
				0,
				0,
				0.7071067690849304
			],
			"translation":[
				0,
				0.0014823060482740402,
				0.012823168188333511
			]
		},
		{
			"mesh":0,
			"name":"elder.001",
			"skin":0
		},
		{
			"children":[
				53,
				52
			],
			"name":"Skeleton"
		}
	],
	"materials":[
		{
			"doubleSided":true,
			"name":"skin",
			"pbrMetallicRoughness":{
				"baseColorTexture":{
					"index":0
				},
				"metallicFactor":0,
				"roughnessFactor":0.550000011920929
			}
		},
		{
			"doubleSided":true,
			"name":"eyes",
			"pbrMetallicRoughness":{
				"baseColorTexture":{
					"index":1
				},
				"metallicFactor":0,
				"roughnessFactor":0.10000000149011612
			}
		},
		{
			"alphaMode":"BLEND",
			"doubleSided":true,
			"name":"lashes",
			"pbrMetallicRoughness":{
				"baseColorTexture":{
					"index":2
				},
				"metallicFactor":0,
				"roughnessFactor":0.8500000238418579
			}
		},
		{
			"alphaMode":"BLEND",
			"doubleSided":true,
			"name":"brows",
			"pbrMetallicRoughness":{
				"baseColorTexture":{
					"index":3
				},
				"metallicFactor":0,
				"roughnessFactor":0.8500000238418579
			}
		},
		{
			"alphaMode":"BLEND",
			"doubleSided":true,
			"name":"hair",
			"pbrMetallicRoughness":{
				"baseColorTexture":{
					"index":4
				},
				"metallicFactor":0,
				"roughnessFactor":0.6000000238418579
			}
		},
		{
			"doubleSided":true,
			"name":"cloth_male_elegantsuit01",
			"pbrMetallicRoughness":{
				"baseColorTexture":{
					"index":5
				},
				"metallicFactor":0,
				"roughnessFactor":0.8500000238418579
			}
		},
		{
			"doubleSided":true,
			"name":"cloth_shoes04",
			"normalTexture":{
				"index":6
			},
			"pbrMetallicRoughness":{
				"baseColorTexture":{
					"index":7
				},
				"metallicFactor":0,
				"roughnessFactor":0.8500000238418579
			}
		},
		{
			"doubleSided":true,
			"name":"cloth_fedora01",
			"normalTexture":{
				"index":8
			},
			"pbrMetallicRoughness":{
				"baseColorTexture":{
					"index":9
				},
				"metallicFactor":0,
				"roughnessFactor":0.8500000238418579
			}
		},
		{
			"alphaMode":"BLEND",
			"doubleSided":true,
			"name":"beard",
			"pbrMetallicRoughness":{
				"baseColorTexture":{
					"index":10
				},
				"metallicFactor":0,
				"roughnessFactor":0.6000000238418579
			}
		}
	],
	"meshes":[
		{
			"name":"elder",
			"primitives":[
				{
					"attributes":{
						"POSITION":0,
						"NORMAL":1,
						"TEXCOORD_0":2,
						"JOINTS_0":3,
						"WEIGHTS_0":4
					},
					"indices":5,
					"material":0
				},
				{
					"attributes":{
						"POSITION":6,
						"NORMAL":7,
						"TEXCOORD_0":8,
						"JOINTS_0":9,
						"WEIGHTS_0":10
					},
					"indices":11,
					"material":1
				},
				{
					"attributes":{
						"POSITION":12,
						"NORMAL":13,
						"TEXCOORD_0":14,
						"JOINTS_0":15,
						"WEIGHTS_0":16
					},
					"indices":17,
					"material":2
				},
				{
					"attributes":{
						"POSITION":18,
						"NORMAL":19,
						"TEXCOORD_0":20,
						"JOINTS_0":21,
						"WEIGHTS_0":22
					},
					"indices":23,
					"material":3
				},
				{
					"attributes":{
						"POSITION":24,
						"NORMAL":25,
						"TEXCOORD_0":26,
						"JOINTS_0":27,
						"WEIGHTS_0":28
					},
					"indices":29,
					"material":4
				},
				{
					"attributes":{
						"POSITION":30,
						"NORMAL":31,
						"TEXCOORD_0":32,
						"JOINTS_0":33,
						"WEIGHTS_0":34
					},
					"indices":35,
					"material":5
				},
				{
					"attributes":{
						"POSITION":36,
						"NORMAL":37,
						"TEXCOORD_0":38,
						"JOINTS_0":39,
						"WEIGHTS_0":40
					},
					"indices":41,
					"material":6
				},
				{
					"attributes":{
						"POSITION":42,
						"NORMAL":43,
						"TEXCOORD_0":44,
						"JOINTS_0":45,
						"WEIGHTS_0":46
					},
					"indices":47,
					"material":7
				},
				{
					"attributes":{
						"POSITION":48,
						"NORMAL":49,
						"TEXCOORD_0":50,
						"JOINTS_0":51,
						"WEIGHTS_0":52
					},
					"indices":53,
					"material":8
				}
			]
		}
	],
	"textures":[
		{
			"sampler":0,
			"source":0
		},
		{
			"sampler":0,
			"source":1
		},
		{
			"sampler":0,
			"source":2
		},
		{
			"sampler":0,
			"source":3
		},
		{
			"sampler":0,
			"source":4
		},
		{
			"sampler":0,
			"source":5
		},
		{
			"sampler":0,
			"source":6
		},
		{
			"sampler":0,
			"source":7
		},
		{
			"sampler":0,
			"source":8
		},
		{
			"sampler":0,
			"source":9
		},
		{
			"sampler":0,
			"source":10
		}
	],
	"images":[
		{
			"mimeType":"image/jpeg",
			"name":"skin_old_caucasian_male_albedo",
			"uri":"textures/skin_old_caucasian_male_albedo.jpg"
		},
		{
			"mimeType":"image/jpeg",
			"name":"eyes_brown_albedo",
			"uri":"textures/eyes_brown_albedo.jpg"
		},
		{
			"mimeType":"image/png",
			"name":"eyelashes01_albedo",
			"uri":"textures/eyelashes01_albedo.png"
		},
		{
			"mimeType":"image/png",
			"name":"eyebrow001_albedo",
			"uri":"textures/eyebrow001_albedo.png"
		},
		{
			"mimeType":"image/png",
			"name":"hair_short02_albedo",
			"uri":"textures/hair_short02_albedo.png"
		},
		{
			"mimeType":"image/jpeg",
			"name":"male_elegantsuit01_albedo",
			"uri":"textures/male_elegantsuit01_albedo.jpg"
		},
		{
			"mimeType":"image/jpeg",
			"name":"shoes04_normal",
			"uri":"textures/shoes04_normal.jpg"
		},
		{
			"mimeType":"image/jpeg",
			"name":"shoes04_albedo",
			"uri":"textures/shoes04_albedo.jpg"
		},
		{
			"mimeType":"image/jpeg",
			"name":"fedora01_normal",
			"uri":"textures/fedora01_normal.jpg"
		},
		{
			"mimeType":"image/jpeg",
			"name":"fedora01_albedo",
			"uri":"textures/fedora01_albedo.jpg"
		},
		{
			"mimeType":"image/png",
			"name":"rehmanpolanski_moustache_viking_albedo",
			"uri":"textures/rehmanpolanski_moustache_viking_albedo.png"
		}
	],
	"skins":[
		{
			"inverseBindMatrices":54,
			"joints":[
				52,
				51,
				42,
				41,
				40,
				18,
				17,
				16,
				15,
				2,
				1,
				0,
				5,
				4,
				3,
				8,
				7,
				6,
				11,
				10,
				9,
				14,
				13,
				12,
				37,
				36,
				35,
				34,
				21,
				20,
				19,
				24,
				23,
				22,
				27,
				26,
				25,
				30,
				29,
				28,
				33,
				32,
				31,
				39,
				38,
				46,
				45,
				44,
				43,
				50,
				49,
				48,
				47
			],
			"name":"Skeleton"
		}
	],
	"accessors":[
		{
			"bufferView":0,
			"componentType":5126,
			"count":7834,
			"max":[
				0.5135179758071899,
				1.6011685132980347,
				0.3246820271015167
			],
			"min":[
				-0.5135179758071899,
				0.9251171350479126,
				-0.05271552875638008
			],
			"type":"VEC3"
		},
		{
			"bufferView":1,
			"componentType":5126,
			"count":7834,
			"type":"VEC3"
		},
		{
			"bufferView":2,
			"componentType":5126,
			"count":7834,
			"type":"VEC2"
		},
		{
			"bufferView":3,
			"componentType":5121,
			"count":7834,
			"type":"VEC4"
		},
		{
			"bufferView":4,
			"componentType":5126,
			"count":7834,
			"type":"VEC4"
		},
		{
			"bufferView":5,
			"componentType":5123,
			"count":42918,
			"type":"SCALAR"
		},
		{
			"bufferView":6,
			"componentType":5126,
			"count":96,
			"max":[
				0.04322204738855362,
				1.5546464920043945,
				0.13479094207286835
			],
			"min":[
				-0.04322204738855362,
				1.5274550914764404,
				0.11139573156833649
			],
			"type":"VEC3"
		},
		{
			"bufferView":7,
			"componentType":5126,
			"count":96,
			"type":"VEC3"
		},
		{
			"bufferView":8,
			"componentType":5126,
			"count":96,
			"type":"VEC2"
		},
		{
			"bufferView":9,
			"componentType":5121,
			"count":96,
			"type":"VEC4"
		},
		{
			"bufferView":10,
			"componentType":5126,
			"count":96,
			"type":"VEC4"
		},
		{
			"bufferView":11,
			"componentType":5123,
			"count":516,
			"type":"SCALAR"
		},
		{
			"bufferView":12,
			"componentType":5126,
			"count":250,
			"max":[
				0.04707866907119751,
				1.5433990955352783,
				0.13946592807769775
			],
			"min":[
				-0.04707866907119751,
				1.5303237438201904,
				0.12668144702911377
			],
			"type":"VEC3"
		},
		{
			"bufferView":13,
			"componentType":5126,
			"count":250,
			"type":"VEC3"
		},
		{
			"bufferView":14,
			"componentType":5126,
			"count":250,
			"type":"VEC2"
		},
		{
			"bufferView":15,
			"componentType":5121,
			"count":250,
			"type":"VEC4"
		},
		{
			"bufferView":16,
			"componentType":5126,
			"count":250,
			"type":"VEC4"
		},
		{
			"bufferView":17,
			"componentType":5123,
			"count":1104,
			"type":"SCALAR"
		},
		{
			"bufferView":18,
			"componentType":5126,
			"count":124,
			"max":[
				0.05783325806260109,
				1.5520163774490356,
				0.14479607343673706
			],
			"min":[
				-0.05783326178789139,
				1.5432217121124268,
				0.11009944975376129
			],
			"type":"VEC3"
		},
		{
			"bufferView":19,
			"componentType":5126,
			"count":124,
			"type":"VEC3"
		},
		{
			"bufferView":20,
			"componentType":5126,
			"count":124,
			"type":"VEC2"
		},
		{
			"bufferView":21,
			"componentType":5121,
			"count":124,
			"type":"VEC4"
		},
		{
			"bufferView":22,
			"componentType":5126,
			"count":124,
			"type":"VEC4"
		},
		{
			"bufferView":23,
			"componentType":5123,
			"count":576,
			"type":"SCALAR"
		},
		{
			"bufferView":24,
			"componentType":5126,
			"count":1794,
			"max":[
				0.0824866071343422,
				1.6665955781936646,
				0.1602313369512558
			],
			"min":[
				-0.08841153979301453,
				1.4701679944992065,
				-0.05504462867975235
			],
			"type":"VEC3"
		},
		{
			"bufferView":25,
			"componentType":5126,
			"count":1794,
			"type":"VEC3"
		},
		{
			"bufferView":26,
			"componentType":5126,
			"count":1794,
			"type":"VEC2"
		},
		{
			"bufferView":27,
			"componentType":5121,
			"count":1794,
			"type":"VEC4"
		},
		{
			"bufferView":28,
			"componentType":5126,
			"count":1794,
			"type":"VEC4"
		},
		{
			"bufferView":29,
			"componentType":5123,
			"count":10032,
			"type":"SCALAR"
		},
		{
			"bufferView":30,
			"componentType":5126,
			"count":3021,
			"max":[
				0.4868660569190979,
				1.4546781778335571,
				0.22541990876197815
			],
			"min":[
				-0.48190945386886597,
				0.05611333250999451,
				-0.1287894994020462
			],
			"type":"VEC3"
		},
		{
			"bufferView":31,
			"componentType":5126,
			"count":3021,
			"type":"VEC3"
		},
		{
			"bufferView":32,
			"componentType":5126,
			"count":3021,
			"type":"VEC2"
		},
		{
			"bufferView":33,
			"componentType":5121,
			"count":3021,
			"type":"VEC4"
		},
		{
			"bufferView":34,
			"componentType":5126,
			"count":3021,
			"type":"VEC4"
		},
		{
			"bufferView":35,
			"componentType":5123,
			"count":15318,
			"type":"SCALAR"
		},
		{
			"bufferView":36,
			"componentType":5126,
			"count":1846,
			"max":[
				0.23332783579826355,
				0.20692074298858643,
				0.19936798512935638
			],
			"min":[
				-0.23332783579826355,
				-0.004276614636182785,
				-0.06733473390340805
			],
			"type":"VEC3"
		},
		{
			"bufferView":37,
			"componentType":5126,
			"count":1846,
			"type":"VEC3"
		},
		{
			"bufferView":38,
			"componentType":5126,
			"count":1846,
			"type":"VEC2"
		},
		{
			"bufferView":39,
			"componentType":5121,
			"count":1846,
			"type":"VEC4"
		},
		{
			"bufferView":40,
			"componentType":5126,
			"count":1846,
			"type":"VEC4"
		},
		{
			"bufferView":41,
			"componentType":5123,
			"count":9960,
			"type":"SCALAR"
		},
		{
			"bufferView":42,
			"componentType":5126,
			"count":696,
			"max":[
				0.09177596122026443,
				1.6735265254974365,
				0.18589256703853607
			],
			"min":[
				-0.09332528710365295,
				1.5762391090393066,
				-0.08008411526679993
			],
			"type":"VEC3"
		},
		{
			"bufferView":43,
			"componentType":5126,
			"count":696,
			"type":"VEC3"
		},
		{
			"bufferView":44,
			"componentType":5126,
			"count":696,
			"type":"VEC2"
		},
		{
			"bufferView":45,
			"componentType":5121,
			"count":696,
			"type":"VEC4"
		},
		{
			"bufferView":46,
			"componentType":5126,
			"count":696,
			"type":"VEC4"
		},
		{
			"bufferView":47,
			"componentType":5123,
			"count":3732,
			"type":"SCALAR"
		},
		{
			"bufferView":48,
			"componentType":5126,
			"count":1598,
			"max":[
				0.03348289057612419,
				1.4915220737457275,
				0.15189228951931
			],
			"min":[
				-0.031422268599271774,
				1.4601601362228394,
				0.12432777136564255
			],
			"type":"VEC3"
		},
		{
			"bufferView":49,
			"componentType":5126,
			"count":1598,
			"type":"VEC3"
		},
		{
			"bufferView":50,
			"componentType":5126,
			"count":1598,
			"type":"VEC2"
		},
		{
			"bufferView":51,
			"componentType":5121,
			"count":1598,
			"type":"VEC4"
		},
		{
			"bufferView":52,
			"componentType":5126,
			"count":1598,
			"type":"VEC4"
		},
		{
			"bufferView":53,
			"componentType":5123,
			"count":4092,
			"type":"SCALAR"
		},
		{
			"bufferView":54,
			"componentType":5126,
			"count":53,
			"type":"MAT4"
		}
	],
	"bufferViews":[
		{
			"buffer":0,
			"byteLength":94008,
			"byteOffset":0,
			"target":34962
		},
		{
			"buffer":0,
			"byteLength":94008,
			"byteOffset":94008,
			"target":34962
		},
		{
			"buffer":0,
			"byteLength":62672,
			"byteOffset":188016,
			"target":34962
		},
		{
			"buffer":0,
			"byteLength":31336,
			"byteOffset":250688,
			"target":34962
		},
		{
			"buffer":0,
			"byteLength":125344,
			"byteOffset":282024,
			"target":34962
		},
		{
			"buffer":0,
			"byteLength":85836,
			"byteOffset":407368,
			"target":34963
		},
		{
			"buffer":0,
			"byteLength":1152,
			"byteOffset":493204,
			"target":34962
		},
		{
			"buffer":0,
			"byteLength":1152,
			"byteOffset":494356,
			"target":34962
		},
		{
			"buffer":0,
			"byteLength":768,
			"byteOffset":495508,
			"target":34962
		},
		{
			"buffer":0,
			"byteLength":384,
			"byteOffset":496276,
			"target":34962
		},
		{
			"buffer":0,
			"byteLength":1536,
			"byteOffset":496660,
			"target":34962
		},
		{
			"buffer":0,
			"byteLength":1032,
			"byteOffset":498196,
			"target":34963
		},
		{
			"buffer":0,
			"byteLength":3000,
			"byteOffset":499228,
			"target":34962
		},
		{
			"buffer":0,
			"byteLength":3000,
			"byteOffset":502228,
			"target":34962
		},
		{
			"buffer":0,
			"byteLength":2000,
			"byteOffset":505228,
			"target":34962
		},
		{
			"buffer":0,
			"byteLength":1000,
			"byteOffset":507228,
			"target":34962
		},
		{
			"buffer":0,
			"byteLength":4000,
			"byteOffset":508228,
			"target":34962
		},
		{
			"buffer":0,
			"byteLength":2208,
			"byteOffset":512228,
			"target":34963
		},
		{
			"buffer":0,
			"byteLength":1488,
			"byteOffset":514436,
			"target":34962
		},
		{
			"buffer":0,
			"byteLength":1488,
			"byteOffset":515924,
			"target":34962
		},
		{
			"buffer":0,
			"byteLength":992,
			"byteOffset":517412,
			"target":34962
		},
		{
			"buffer":0,
			"byteLength":496,
			"byteOffset":518404,
			"target":34962
		},
		{
			"buffer":0,
			"byteLength":1984,
			"byteOffset":518900,
			"target":34962
		},
		{
			"buffer":0,
			"byteLength":1152,
			"byteOffset":520884,
			"target":34963
		},
		{
			"buffer":0,
			"byteLength":21528,
			"byteOffset":522036,
			"target":34962
		},
		{
			"buffer":0,
			"byteLength":21528,
			"byteOffset":543564,
			"target":34962
		},
		{
			"buffer":0,
			"byteLength":14352,
			"byteOffset":565092,
			"target":34962
		},
		{
			"buffer":0,
			"byteLength":7176,
			"byteOffset":579444,
			"target":34962
		},
		{
			"buffer":0,
			"byteLength":28704,
			"byteOffset":586620,
			"target":34962
		},
		{
			"buffer":0,
			"byteLength":20064,
			"byteOffset":615324,
			"target":34963
		},
		{
			"buffer":0,
			"byteLength":36252,
			"byteOffset":635388,
			"target":34962
		},
		{
			"buffer":0,
			"byteLength":36252,
			"byteOffset":671640,
			"target":34962
		},
		{
			"buffer":0,
			"byteLength":24168,
			"byteOffset":707892,
			"target":34962
		},
		{
			"buffer":0,
			"byteLength":12084,
			"byteOffset":732060,
			"target":34962
		},
		{
			"buffer":0,
			"byteLength":48336,
			"byteOffset":744144,
			"target":34962
		},
		{
			"buffer":0,
			"byteLength":30636,
			"byteOffset":792480,
			"target":34963
		},
		{
			"buffer":0,
			"byteLength":22152,
			"byteOffset":823116,
			"target":34962
		},
		{
			"buffer":0,
			"byteLength":22152,
			"byteOffset":845268,
			"target":34962
		},
		{
			"buffer":0,
			"byteLength":14768,
			"byteOffset":867420,
			"target":34962
		},
		{
			"buffer":0,
			"byteLength":7384,
			"byteOffset":882188,
			"target":34962
		},
		{
			"buffer":0,
			"byteLength":29536,
			"byteOffset":889572,
			"target":34962
		},
		{
			"buffer":0,
			"byteLength":19920,
			"byteOffset":919108,
			"target":34963
		},
		{
			"buffer":0,
			"byteLength":8352,
			"byteOffset":939028,
			"target":34962
		},
		{
			"buffer":0,
			"byteLength":8352,
			"byteOffset":947380,
			"target":34962
		},
		{
			"buffer":0,
			"byteLength":5568,
			"byteOffset":955732,
			"target":34962
		},
		{
			"buffer":0,
			"byteLength":2784,
			"byteOffset":961300,
			"target":34962
		},
		{
			"buffer":0,
			"byteLength":11136,
			"byteOffset":964084,
			"target":34962
		},
		{
			"buffer":0,
			"byteLength":7464,
			"byteOffset":975220,
			"target":34963
		},
		{
			"buffer":0,
			"byteLength":19176,
			"byteOffset":982684,
			"target":34962
		},
		{
			"buffer":0,
			"byteLength":19176,
			"byteOffset":1001860,
			"target":34962
		},
		{
			"buffer":0,
			"byteLength":12784,
			"byteOffset":1021036,
			"target":34962
		},
		{
			"buffer":0,
			"byteLength":6392,
			"byteOffset":1033820,
			"target":34962
		},
		{
			"buffer":0,
			"byteLength":25568,
			"byteOffset":1040212,
			"target":34962
		},
		{
			"buffer":0,
			"byteLength":8184,
			"byteOffset":1065780,
			"target":34963
		},
		{
			"buffer":0,
			"byteLength":3392,
			"byteOffset":1073964
		}
	],
	"samplers":[
		{
			"magFilter":9729,
			"minFilter":9987
		}
	],
	"buffers":[
		{
			"byteLength":1077356,
			"uri":"elder.bin"
		}
	]
}
