{
	"asset":{
		"generator":"Khronos glTF Blender I/O v4.4.56",
		"version":"2.0"
	},
	"scene":0,
	"scenes":[
		{
			"name":"Scene",
			"nodes":[
				54
			]
		}
	],
	"nodes":[
		{
			"name":"index_03_l",
			"rotation":[
				0.06529353559017181,
				-0.00542340986430645,
				0.016248011961579323,
				0.9977191090583801
			],
			"scale":[
				1,
				1,
				0.9999999403953552
			],
			"translation":[
				-8.940696716308594e-08,
				0.022796720266342163,
				1.043081283569336e-07
			]
		},
		{
			"children":[
				0
			],
			"name":"index_02_l",
			"rotation":[
				0.11906071752309799,
				-0.035276081413030624,
				0.008003545925021172,
				0.9922278523445129
			],
			"scale":[
				1,
				0.9999999403953552,
				0.9999999403953552
			],
			"translation":[
				-7.450580596923828e-08,
				0.02563498169183731,
				7.450580596923828e-09
			]
		},
		{
			"children":[
				1
			],
			"name":"index_01_l",
			"rotation":[
				0.1019720509648323,
				0.48197421431541443,
				0.0032199618872255087,
				0.8702253699302673
			],
			"scale":[
				0.9999999403953552,
				0.9999999403953552,
				1
			],
			"translation":[
				-0.013648990541696548,
				0.10300952196121216,
				0.007340729236602783
			]
		},
		{
			"name":"middle_03_l",
			"rotation":[
				0.052229415625333786,
				0.022571424022316933,
				-0.006338425446301699,
				0.9983598589897156
			],
			"translation":[
				7.450580596923828e-08,
				0.026729028671979904,
				2.2351741790771484e-08
			]
		},
		{
			"children":[
				3
			],
			"name":"middle_02_l",
			"rotation":[
				0.05586490407586098,
				-0.019072789698839188,
				0.035307180136442184,
				0.9976315498352051
			],
			"scale":[
				0.9999999403953552,
				0.9999998211860657,
				1
			],
			"translation":[
				0,
				0.033428750932216644,
				-1.6391277313232422e-07
			]
		},
		{
			"children":[
				4
			],
			"name":"middle_01_l",
			"rotation":[
				0.10137380659580231,
				0.3947748839855194,
				-0.1526063084602356,
				0.9003263711929321
			],
			"scale":[
				1,
				1,
				0.9999999403953552
			],
			"translation":[
				0.0021784305572509766,
				0.09949976205825806,
				-0.012651316821575165
			]
		},
		{
			"name":"pinky_03_l",
			"rotation":[
				0.0023065474815666676,
				-0.014849040657281876,
				-0.014571723528206348,
				0.9997808933258057
			],
			"scale":[
				1.0000001192092896,
				1.0000001192092896,
				1
			],
			"translation":[
				1.4901161193847656e-08,
				0.015189561992883682,
				-7.450580596923828e-09
			]
		},
		{
			"children":[
				6
			],
			"name":"pinky_02_l",
			"rotation":[
				0.08940847218036652,
				-0.017335515469312668,
				0.022726725786924362,
				0.9955847859382629
			],
			"scale":[
				0.9999999403953552,
				0.9999999403953552,
				1
			],
			"translation":[
				1.4901161193847656e-08,
				0.020880505442619324,
				0
			]
		},
		{
			"children":[
				7
			],
			"name":"pinky_01_l",
			"rotation":[
				0.04710201174020767,
				0.2953908443450928,
				-0.2933814227581024,
				0.9079939126968384
			],
			"translation":[
				0.03350672125816345,
				0.08093070983886719,
				-0.030652664601802826
			]
		},
		{
			"name":"ring_03_l",
			"rotation":[
				0.06591439247131348,
				-0.01054129283875227,
				-0.02674660086631775,
				0.9974110722541809
			],
			"scale":[
				1.0000001192092896,
				1,
				0.9999999403953552
			],
			"translation":[
				-7.450580596923828e-08,
				0.024248167872428894,
				2.2351741790771484e-08
			]
		},
		{
			"children":[
				9
			],
			"name":"ring_02_l",
			"rotation":[
				0.05239778012037277,
				0.003973330836743116,
				0.04656202346086502,
				0.997532308101654
			],
			"scale":[
				1,
				0.9999999403953552,
				1.0000001192092896
			],
			"translation":[
				2.9802322387695312e-08,
				0.02935931086540222,
				0
			]
		},
		{
			"children":[
				10
			],
			"name":"ring_01_l",
			"rotation":[
				0.056312087923288345,
				0.37638795375823975,
				-0.23036034405231476,
				0.8955976366996765
			],
			"scale":[
				1,
				0.9999998807907104,
				1
			],
			"translation":[
				0.01662934571504593,
				0.09154099225997925,
				-0.023953914642333984
			]
		},
		{
			"name":"thumb_03_l",
			"rotation":[
				0.15666770935058594,
				0.0733352079987526,
				-0.04796518385410309,
				0.9837563633918762
			],
			"scale":[
				0.9999999403953552,
				1.0000001192092896,
				1
			],
			"translation":[
				9.313225746154785e-10,
				0.03577724099159241,
				4.0978193283081055e-08
			]
		},
		{
			"children":[
				12
			],
			"name":"thumb_02_l",
			"rotation":[
				0.04059348255395889,
				-0.048261068761348724,
				-0.18566229939460754,
				0.980587899684906
			],
			"scale":[
				1,
				1,
				0.9999999403953552
			],
			"translation":[
				-3.725290298461914e-08,
				0.029960021376609802,
				0
			]
		},
		{
			"children":[
				13
			],
			"name":"thumb_01_l",
			"rotation":[
				0.27921417355537415,
				0.7041815519332886,
				0.4285356104373932,
				0.49246832728385925
			],
			"scale":[
				1,
				0.9999999403953552,
				1
			],
			"translation":[
				-0.014479801058769226,
				0.03890250623226166,
				0.01391071081161499
			]
		},
		{
			"children":[
				2,
				5,
				8,
				11,
				14
			],
			"name":"hand_l",
			"rotation":[
				0.10967402160167694,
				0.38971731066703796,
				-0.01902894861996174,
				0.9141826629638672
			],
			"scale":[
				1,
				1,
				0.9999999403953552
			],
			"translation":[
				9.12696123123169e-08,
				0.22951683402061462,
				-5.960464477539063e-08
			]
		},
		{
			"children":[
				15
			],
			"name":"lowerarm_l",
			"rotation":[
				0.3684382438659668,
				0.020638009533286095,
				0.02424384281039238,
				0.9291068911552429
			],
			"scale":[
				1,
				0.9999998807907104,
				0.9999998211860657
			],
			"translation":[
				5.657784640789032e-08,
				0.23491300642490387,
				-1.3969838619232178e-09
			]
		},
		{
			"children":[
				16
			],
			"name":"upperarm_l",
			"rotation":[
				0.04474903270602226,
				0.03090105950832367,
				-0.3288428783416748,
				0.9428176283836365
			],
			"translation":[
				2.8579961508512497e-08,
				0.15881597995758057,
				1.1175870895385742e-08
			]
		},
		{
			"children":[
				17
			],
			"name":"clavicle_l",
			"rotation":[
				-0.018415195867419243,
				0.05910443514585495,
				-0.758533239364624,
				0.6486870050430298
			],
			"translation":[
				0.02254311554133892,
				0.24077153205871582,
				0.09988075494766235
			]
		},
		{
			"name":"index_03_r",
			"rotation":[
				0.06529353559017181,
				0.00542340986430645,
				-0.016248011961579323,
				0.9977191090583801
			],
			"scale":[
				1,
				1,
				0.9999999403953552
			],
			"translation":[
				8.940696716308594e-08,
				0.022796720266342163,
				1.043081283569336e-07
			]
		},
		{
			"children":[
				19
			],
			"name":"index_02_r",
			"rotation":[
				0.11906071752309799,
				0.035276081413030624,
				-0.008003545925021172,
				0.9922278523445129
			],
			"scale":[
				1,
				0.9999999403953552,
				0.9999999403953552
			],
			"translation":[
				7.450580596923828e-08,
				0.02563498169183731,
				7.450580596923828e-09
			]
		},
		{
			"children":[
				20
			],
			"name":"index_01_r",
			"rotation":[
				0.1019720509648323,
				-0.48197421431541443,
				-0.0032199618872255087,
				0.8702253699302673
			],
			"scale":[
				0.9999999403953552,
				0.9999999403953552,
				1
			],
			"translation":[
				0.013648990541696548,
				0.10300952196121216,
				0.007340729236602783
			]
		},
		{
			"name":"middle_03_r",
			"rotation":[
				0.052229415625333786,
				-0.022571424022316933,
				0.006338425446301699,
				0.9983598589897156
			],
			"translation":[
				-7.450580596923828e-08,
				0.026729028671979904,
				2.2351741790771484e-08
			]
		},
		{
			"children":[
				22
			],
			"name":"middle_02_r",
			"rotation":[
				0.05586490407586098,
				0.019072789698839188,
				-0.035307180136442184,
				0.9976315498352051
			],
			"scale":[
				0.9999999403953552,
				0.9999998211860657,
				1
			],
			"translation":[
				0,
				0.033428750932216644,
				-1.6391277313232422e-07
			]
		},
		{
			"children":[
				23
			],
			"name":"middle_01_r",
			"rotation":[
				0.10137380659580231,
				-0.3947748839855194,
				0.1526063084602356,
				0.9003263711929321
			],
			"scale":[
				1,
				1,
				0.9999999403953552
			],
			"translation":[
				-0.0021784305572509766,
				0.09949976205825806,
				-0.012651316821575165
			]
		},
		{
			"name":"pinky_03_r",
			"rotation":[
				0.0023065474815666676,
				0.014849040657281876,
				0.014571723528206348,
				0.9997808933258057
			],
			"scale":[
				1.0000001192092896,
				1.0000001192092896,
				1
			],
			"translation":[
				-1.4901161193847656e-08,
				0.015189561992883682,
				-7.450580596923828e-09
			]
		},
		{
			"children":[
				25
			],
			"name":"pinky_02_r",
			"rotation":[
				0.08940847218036652,
				0.017335515469312668,
				-0.022726725786924362,
				0.9955847859382629
			],
			"scale":[
				0.9999999403953552,
				0.9999999403953552,
				1
			],
			"translation":[
				-1.4901161193847656e-08,
				0.020880505442619324,
				0
			]
		},
		{
			"children":[
				26
			],
			"name":"pinky_01_r",
			"rotation":[
				0.04710201174020767,
				-0.2953908443450928,
				0.2933814227581024,
				0.9079939126968384
			],
			"translation":[
				-0.03350672125816345,
				0.08093070983886719,
				-0.030652664601802826
			]
		},
		{
			"name":"ring_03_r",
			"rotation":[
				0.06591439247131348,
				0.01054129283875227,
				0.02674660086631775,
				0.9974110722541809
			],
			"scale":[
				1.0000001192092896,
				1,
				0.9999999403953552
			],
			"translation":[
				7.450580596923828e-08,
				0.024248167872428894,
				2.2351741790771484e-08
			]
		},
		{
			"children":[
				28
			],
			"name":"ring_02_r",
			"rotation":[
				0.05239778012037277,
				-0.003973330836743116,
				-0.04656202346086502,
				0.997532308101654
			],
			"scale":[
				1,
				0.9999999403953552,
				1.0000001192092896
			],
			"translation":[
				-2.9802322387695312e-08,
				0.02935931086540222,
				0
			]
		},
		{
			"children":[
				29
			],
			"name":"ring_01_r",
			"rotation":[
				0.056312087923288345,
				-0.37638795375823975,
				0.23036034405231476,
				0.8955976366996765
			],
			"scale":[
				1,
				0.9999998807907104,
				1
			],
			"translation":[
				-0.01662934571504593,
				0.09154099225997925,
				-0.023953914642333984
			]
		},
		{
			"name":"thumb_03_r",
			"rotation":[
				0.15666770935058594,
				-0.0733352079987526,
				0.04796518385410309,
				0.9837563633918762
			],
			"scale":[
				0.9999999403953552,
				1.0000001192092896,
				1
			],
			"translation":[
				-9.313225746154785e-10,
				0.03577724099159241,
				4.0978193283081055e-08
			]
		},
		{
			"children":[
				31
			],
			"name":"thumb_02_r",
			"rotation":[
				0.04059348255395889,
				0.048261068761348724,
				0.18566229939460754,
				0.980587899684906
			],
			"scale":[
				1,
				1,
				0.9999999403953552
			],
			"translation":[
				3.725290298461914e-08,
				0.029960021376609802,
				0
			]
		},
		{
			"children":[
				32
			],
			"name":"thumb_01_r",
			"rotation":[
				0.27921417355537415,
				-0.7041815519332886,
				-0.4285356104373932,
				0.49246832728385925
			],
			"scale":[
				1,
				0.9999999403953552,
				1
			],
			"translation":[
				0.014479801058769226,
				0.03890250623226166,
				0.01391071081161499
			]
		},
		{
			"children":[
				21,
				24,
				27,
				30,
				33
			],
			"name":"hand_r",
			"rotation":[
				0.10967402160167694,
				-0.38971731066703796,
				0.01902894861996174,
				0.9141826629638672
			],
			"scale":[
				1,
				1,
				0.9999999403953552
			],
			"translation":[
				-9.12696123123169e-08,
				0.22951683402061462,
				-5.960464477539063e-08
			]
		},
		{
			"children":[
				34
			],
			"name":"lowerarm_r",
			"rotation":[
				0.3684382438659668,
				-0.020638009533286095,
				-0.02424384281039238,
				0.9291068911552429
			],
			"scale":[
				1,
				0.9999998807907104,
				0.9999998211860657
			],
			"translation":[
				-5.657784640789032e-08,
				0.23491300642490387,
				-1.3969838619232178e-09
			]
		},
		{
			"children":[
				35
			],
			"name":"upperarm_r",
			"rotation":[
				0.04474903270602226,
				-0.03090105950832367,
				0.3288428783416748,
				0.9428176283836365
			],
			"translation":[
				-2.8579961508512497e-08,
				0.15881597995758057,
				1.1175870895385742e-08
			]
		},
		{
			"children":[
				36
			],
			"name":"clavicle_r",
			"rotation":[
				-0.018415195867419243,
				-0.05910443514585495,
				0.758533239364624,
				0.6486870050430298
			],
			"translation":[
				-0.02254311554133892,
				0.24077153205871582,
				0.09988075494766235
			]
		},
		{
			"name":"head",
			"rotation":[
				-0.14592602849006653,
				0,
				0,
				0.9892955422401428
			],
			"scale":[
				1,
				1.0000001192092896,
				1
			],
			"translation":[
				0,
				0.09039608389139175,
				2.60770320892334e-08
			]
		},
		{
			"children":[
				38
			],
			"name":"neck_01",
			"rotation":[
				0.22322426736354828,
				0,
				0,
				0.9747671484947205
			],
			"translation":[
				0,
				0.31799325346946716,
				0.09459443390369415
			]
		},
		{
			"children":[
				18,
				37,
				39
			],
			"name":"spine_03",
			"rotation":[
				0.12799443304538727,
				0,
				0,
				0.99177485704422
			],
			"scale":[
				1,
				1,
				1.0000001192092896
			],
			"translation":[
				0,
				0.06071264669299126,
				-1.862645149230957e-08
			]
		},
		{
			"children":[
				40
			],
			"name":"spine_02",
			"rotation":[
				-0.2401006817817688,
				0,
				0,
				0.9707480072975159
			],
			"translation":[
				0,
				0.06661101430654526,
				-3.725290298461914e-09
			]
		},
		{
			"children":[
				41
			],
			"name":"spine_01",
			"rotation":[
				0.22168968617916107,
				0,
				0,
				0.9751172661781311
			],
			"scale":[
				1,
				1,
				0.9999999403953552
			],
			"translation":[
				0,
				0.09136562794446945,
				-5.587935447692871e-09
			]
		},
		{
			"name":"ball_l",
			"rotation":[
				-0.23588810861110687,
				-0.09834674000740051,
				0.060527779161930084,
				0.9648943543434143
			],
			"scale":[
				1,
				0.9999999403953552,
				1
			],
			"translation":[
				1.596572474227287e-08,
				0.1393653154373169,
				4.6566128730773926e-09
			]
		},
		{
			"children":[
				43
			],
			"name":"foot_l",
			"rotation":[
				-0.5592817068099976,
				-0.0096189696341753,
				0.02971363440155983,
				0.8283891081809998
			],
			"translation":[
				-1.0906660463660955e-08,
				0.44638070464134216,
				-1.1641532182693481e-10
			]
		},
		{
			"children":[
				44
			],
			"name":"calf_l",
			"rotation":[
				0.07283350825309753,
				0.21672941744327545,
				0.0026244588661938906,
				0.9735074639320374
			],
			"translation":[
				-1.1175870895385742e-08,
				0.37275466322898865,
				1.862645149230957e-09
			]
		},
		{
			"children":[
				45
			],
			"name":"thigh_l",
			"rotation":[
				-0.9650385975837708,
				-0.07837484776973724,
				0.2211187332868576,
				0.11689499020576477
			],
			"scale":[
				0.9999998211860657,
				0.9999998211860657,
				0.9999989867210388
			],
			"translation":[
				0.11393903195858002,
				-0.018718436360359192,
				-0.017966659739613533
			]
		},
		{
			"name":"ball_r",
			"rotation":[
				-0.23588810861110687,
				0.09834674000740051,
				-0.060527779161930084,
				0.9648943543434143
			],
			"scale":[
				1,
				0.9999999403953552,
				1
			],
			"translation":[
				-1.596572474227287e-08,
				0.1393653154373169,
				4.6566128730773926e-09
			]
		},
		{
			"children":[
				47
			],
			"name":"foot_r",
			"rotation":[
				-0.5592817068099976,
				0.0096189696341753,
				-0.02971363440155983,
				0.8283891081809998
			],
			"translation":[
				1.0906660463660955e-08,
				0.44638070464134216,
				-1.1641532182693481e-10
			]
		},
		{
			"children":[
				48
			],
			"name":"calf_r",
			"rotation":[
				0.07283350825309753,
				-0.21672941744327545,
				-0.0026244588661938906,
				0.9735074639320374
			],
			"translation":[
				1.1175870895385742e-08,
				0.37275466322898865,
				1.862645149230957e-09
			]
		},
		{
			"children":[
				49
			],
			"name":"thigh_r",
			"rotation":[
				-0.9650385975837708,
				0.07837484776973724,
				-0.2211187332868576,
				0.11689499020576477
			],
			"scale":[
				0.9999998211860657,
				0.9999998211860657,
				0.9999989867210388
			],
			"translation":[
				-0.11393903195858002,
				-0.018718436360359192,
				-0.017966659739613533
			]
		},
		{
			"children":[
				42,
				46,
				50
			],
			"name":"pelvis",
			"rotation":[
				0.5733640789985657,
				0,
				0,
				0.8193007111549377
			],
			"scale":[
				1,
				0.9999999403953552,
				1
			],
			"translation":[
				0,
				0.005564071238040924,
				0.9050218462944031
			]
		},
		{
			"children":[
				51
			],
			"name":"Root",
			"rotation":[
				-0.7071067690849304,
				0,
				0,
				0.7071067690849304
			],
			"translation":[
				0,
				0.0011800900101661682,
				0.010736428201198578
			]
		},
		{
			"mesh":0,
			"name":"farmer.001",
			"skin":0
		},
		{
			"children":[
				53,
				52
			],
			"name":"Skeleton"
		}
	],
	"materials":[
		{
			"doubleSided":true,
			"name":"skin",
			"pbrMetallicRoughness":{
				"baseColorTexture":{
					"index":0
				},
				"metallicFactor":0,
				"roughnessFactor":0.550000011920929
			}
		},
		{
			"doubleSided":true,
			"name":"eyes",
			"pbrMetallicRoughness":{
				"baseColorTexture":{
					"index":1
				},
				"metallicFactor":0,
				"roughnessFactor":0.10000000149011612
			}
		},
		{
			"alphaMode":"BLEND",
			"doubleSided":true,
			"name":"lashes",
			"pbrMetallicRoughness":{
				"baseColorTexture":{
					"index":2
				},
				"metallicFactor":0,
				"roughnessFactor":0.8500000238418579
			}
		},
		{
			"alphaMode":"BLEND",
			"doubleSided":true,
			"name":"brows",
			"pbrMetallicRoughness":{
				"baseColorTexture":{
					"index":3
				},
				"metallicFactor":0,
				"roughnessFactor":0.8500000238418579
			}
		},
		{
			"alphaMode":"BLEND",
			"doubleSided":true,
			"name":"hair",
			"pbrMetallicRoughness":{
				"baseColorTexture":{
					"index":4
				},
				"metallicFactor":0,
				"roughnessFactor":0.6000000238418579
			}
		},
		{
			"doubleSided":true,
			"name":"cloth_male_casualsuit05",
			"normalTexture":{
				"index":5
			},
			"pbrMetallicRoughness":{
				"baseColorTexture":{
					"index":6
				},
				"metallicFactor":0,
				"roughnessFactor":0.8500000238418579
			}
		},
		{
			"doubleSided":true,
			"name":"cloth_shoes03",
			"pbrMetallicRoughness":{
				"baseColorTexture":{
					"index":7
				},
				"metallicFactor":0,
				"roughnessFactor":0.8500000238418579
			}
		},
		{
			"doubleSided":true,
			"name":"cloth_jujube_newsboy_cap",
			"normalTexture":{
				"index":8
			},
			"pbrMetallicRoughness":{
				"baseColorTexture":{
					"index":9
				},
				"metallicFactor":0,
				"roughnessFactor":0.8500000238418579
			}
		}
	],
	"meshes":[
		{
			"name":"farmer",
			"primitives":[
				{
					"attributes":{
						"POSITION":0,
						"NORMAL":1,
						"TEXCOORD_0":2,
						"JOINTS_0":3,
						"WEIGHTS_0":4
					},
					"indices":5,
					"material":0
				},
				{
					"attributes":{
						"POSITION":6,
						"NORMAL":7,
						"TEXCOORD_0":8,
						"JOINTS_0":9,
						"WEIGHTS_0":10
					},
					"indices":11,
					"material":1
				},
				{
					"attributes":{
						"POSITION":12,
						"NORMAL":13,
						"TEXCOORD_0":14,
						"JOINTS_0":15,
						"WEIGHTS_0":16
					},
					"indices":17,
					"material":2
				},
				{
					"attributes":{
						"POSITION":18,
						"NORMAL":19,
						"TEXCOORD_0":20,
						"JOINTS_0":21,
						"WEIGHTS_0":22
					},
					"indices":23,
					"material":3
				},
				{
					"attributes":{
						"POSITION":24,
						"NORMAL":25,
						"TEXCOORD_0":26,
						"JOINTS_0":27,
						"WEIGHTS_0":28
					},
					"indices":29,
					"material":4
				},
				{
					"attributes":{
						"POSITION":30,
						"NORMAL":31,
						"TEXCOORD_0":32,
						"JOINTS_0":33,
						"WEIGHTS_0":34
					},
					"indices":35,
					"material":5
				},
				{
					"attributes":{
						"POSITION":36,
						"NORMAL":37,
						"TEXCOORD_0":38,
						"JOINTS_0":39,
						"WEIGHTS_0":40
					},
					"indices":41,
					"material":6
				},
				{
					"attributes":{
						"POSITION":42,
						"NORMAL":43,
						"TEXCOORD_0":44,
						"JOINTS_0":45,
						"WEIGHTS_0":46
					},
					"indices":47,
					"material":7
				}
			]
		}
	],
	"textures":[
		{
			"sampler":0,
			"source":0
		},
		{
			"sampler":0,
			"source":1
		},
		{
			"sampler":0,
			"source":2
		},
		{
			"sampler":0,
			"source":3
		},
		{
			"sampler":0,
			"source":4
		},
		{
			"sampler":0,
			"source":5
		},
		{
			"sampler":0,
			"source":6
		},
		{
			"sampler":0,
			"source":7
		},
		{
			"sampler":0,
			"source":8
		},
		{
			"sampler":0,
			"source":9
		}
	],
	"images":[
		{
			"mimeType":"image/jpeg",
			"name":"skin_jartur69_old_slavic_male_albedo",
			"uri":"textures/skin_jartur69_old_slavic_male_albedo.jpg"
		},
		{
			"mimeType":"image/jpeg",
			"name":"eyes_brown_albedo",
			"uri":"textures/eyes_brown_albedo.jpg"
		},
		{
			"mimeType":"image/png",
			"name":"eyelashes01_albedo",
			"uri":"textures/eyelashes01_albedo.png"
		},
		{
			"mimeType":"image/png",
			"name":"eyebrow001_albedo",
			"uri":"textures/eyebrow001_albedo.png"
		},
		{
			"mimeType":"image/png",
			"name":"hair_short02_albedo",
			"uri":"textures/hair_short02_albedo.png"
		},
		{
			"mimeType":"image/jpeg",
			"name":"male_casualsuit05_normal",
			"uri":"textures/male_casualsuit05_normal.jpg"
		},
		{
			"mimeType":"image/jpeg",
			"name":"male_casualsuit05_albedo",
			"uri":"textures/male_casualsuit05_albedo.jpg"
		},
		{
			"mimeType":"image/jpeg",
			"name":"shoes03_albedo",
			"uri":"textures/shoes03_albedo.jpg"
		},
		{
			"mimeType":"image/jpeg",
			"name":"jujube_newsboy_cap_normal",
			"uri":"textures/jujube_newsboy_cap_normal.jpg"
		},
		{
			"mimeType":"image/jpeg",
			"name":"jujube_newsboy_cap_albedo",
			"uri":"textures/jujube_newsboy_cap_albedo.jpg"
		}
	],
	"skins":[
		{
			"inverseBindMatrices":48,
			"joints":[
				52,
				51,
				42,
				41,
				40,
				18,
				17,
				16,
				15,
				2,
				1,
				0,
				5,
				4,
				3,
				8,
				7,
				6,
				11,
				10,
				9,
				14,
				13,
				12,
				37,
				36,
				35,
				34,
				21,
				20,
				19,
				24,
				23,
				22,
				27,
				26,
				25,
				30,
				29,
				28,
				33,
				32,
				31,
				39,
				38,
				46,
				45,
				44,
				43,
				50,
				49,
				48,
				47
			],
			"name":"Skeleton"
		}
	],
	"accessors":[
		{
			"bufferView":0,
			"componentType":5126,
			"count":7934,
			"max":[
				0.5245848298072815,
				1.6493169069290161,
				0.33503496646881104
			],
			"min":[
				-0.5245848298072815,
				0.9339348077774048,
				-0.0518840029835701
			],
			"type":"VEC3"
		},
		{
			"bufferView":1,
			"componentType":5126,
			"count":7934,
			"type":"VEC3"
		},
		{
			"bufferView":2,
			"componentType":5126,
			"count":7934,
			"type":"VEC2"
		},
		{
			"bufferView":3,
			"componentType":5121,
			"count":7934,
			"type":"VEC4"
		},
		{
			"bufferView":4,
			"componentType":5126,
			"count":7934,
			"type":"VEC4"
		},
		{
			"bufferView":5,
			"componentType":5123,
			"count":43554,
			"type":"SCALAR"
		},
		{
			"bufferView":6,
			"componentType":5126,
			"count":96,
			"max":[
				0.04353601858019829,
				1.579676866531372,
				0.13690736889839172
			],
			"min":[
				-0.04353601858019829,
				1.5522387027740479,
				0.11333832889795303
			],
			"type":"VEC3"
		},
		{
			"bufferView":7,
			"componentType":5126,
			"count":96,
			"type":"VEC3"
		},
		{
			"bufferView":8,
			"componentType":5126,
			"count":96,
			"type":"VEC2"
		},
		{
			"bufferView":9,
			"componentType":5121,
			"count":96,
			"type":"VEC4"
		},
		{
			"bufferView":10,
			"componentType":5126,
			"count":96,
			"type":"VEC4"
		},
		{
			"bufferView":11,
			"componentType":5123,
			"count":516,
			"type":"SCALAR"
		},
		{
			"bufferView":12,
			"componentType":5126,
			"count":250,
			"max":[
				0.0475185252726078,
				1.5686031579971313,
				0.1415974199771881
			],
			"min":[
				-0.0475185252726078,
				1.5553650856018066,
				0.12848252058029175
			],
			"type":"VEC3"
		},
		{
			"bufferView":13,
			"componentType":5126,
			"count":250,
			"type":"VEC3"
		},
		{
			"bufferView":14,
			"componentType":5126,
			"count":250,
			"type":"VEC2"
		},
		{
			"bufferView":15,
			"componentType":5121,
			"count":250,
			"type":"VEC4"
		},
		{
			"bufferView":16,
			"componentType":5126,
			"count":250,
			"type":"VEC4"
		},
		{
			"bufferView":17,
			"componentType":5123,
			"count":1104,
			"type":"SCALAR"
		},
		{
			"bufferView":18,
			"componentType":5126,
			"count":124,
			"max":[
				0.058335080742836,
				1.5772697925567627,
				0.14690673351287842
			],
			"min":[
				-0.0583350844681263,
				1.568339228630066,
				0.11264242231845856
			],
			"type":"VEC3"
		},
		{
			"bufferView":19,
			"componentType":5126,
			"count":124,
			"type":"VEC3"
		},
		{
			"bufferView":20,
			"componentType":5126,
			"count":124,
			"type":"VEC2"
		},
		{
			"bufferView":21,
			"componentType":5121,
			"count":124,
			"type":"VEC4"
		},
		{
			"bufferView":22,
			"componentType":5126,
			"count":124,
			"type":"VEC4"
		},
		{
			"bufferView":23,
			"componentType":5123,
			"count":576,
			"type":"SCALAR"
		},
		{
			"bufferView":24,
			"componentType":5126,
			"count":1794,
			"max":[
				0.0830865353345871,
				1.6915730237960815,
				0.16210898756980896
			],
			"min":[
				-0.08905954658985138,
				1.4933464527130127,
				-0.0542823001742363
			],
			"type":"VEC3"
		},
		{
			"bufferView":25,
			"componentType":5126,
			"count":1794,
			"type":"VEC3"
		},
		{
			"bufferView":26,
			"componentType":5126,
			"count":1794,
			"type":"VEC2"
		},
		{
			"bufferView":27,
			"componentType":5121,
			"count":1794,
			"type":"VEC4"
		},
		{
			"bufferView":28,
			"componentType":5126,
			"count":1794,
			"type":"VEC4"
		},
		{
			"bufferView":29,
			"componentType":5123,
			"count":10032,
			"type":"SCALAR"
		},
		{
			"bufferView":30,
			"componentType":5126,
			"count":2921,
			"max":[
				0.5069231390953064,
				1.4778797626495361,
				0.2340257465839386
			],
			"min":[
				-0.50693279504776,
				0.06253672391176224,
				-0.1476721167564392
			],
			"type":"VEC3"
		},
		{
			"bufferView":31,
			"componentType":5126,
			"count":2921,
			"type":"VEC3"
		},
		{
			"bufferView":32,
			"componentType":5126,
			"count":2921,
			"type":"VEC2"
		},
		{
			"bufferView":33,
			"componentType":5121,
			"count":2921,
			"type":"VEC4"
		},
		{
			"bufferView":34,
			"componentType":5126,
			"count":2921,
			"type":"VEC4"
		},
		{
			"bufferView":35,
			"componentType":5123,
			"count":14637,
			"type":"SCALAR"
		},
		{
			"bufferView":36,
			"componentType":5126,
			"count":2510,
			"max":[
				0.24266864359378815,
				0.20863786339759827,
				0.21061132848262787
			],
			"min":[
				-0.24266864359378815,
				-0.025412917137145996,
				-0.0585794672369957
			],
			"type":"VEC3"
		},
		{
			"bufferView":37,
			"componentType":5126,
			"count":2510,
			"type":"VEC3"
		},
		{
			"bufferView":38,
			"componentType":5126,
			"count":2510,
			"type":"VEC2"
		},
		{
			"bufferView":39,
			"componentType":5121,
			"count":2510,
			"type":"VEC4"
		},
		{
			"bufferView":40,
			"componentType":5126,
			"count":2510,
			"type":"VEC4"
		},
		{
			"bufferView":41,
			"componentType":5123,
			"count":12384,
			"type":"SCALAR"
		},
		{
			"bufferView":42,
			"componentType":5126,
			"count":557,
			"max":[
				0.0878550112247467,
				1.699591875076294,
				0.18538880348205566
			],
			"min":[
				-0.08799487352371216,
				1.6196459531784058,
				-0.06410998106002808
			],
			"type":"VEC3"
		},
		{
			"bufferView":43,
			"componentType":5126,
			"count":557,
			"type":"VEC3"
		},
		{
			"bufferView":44,
			"componentType":5126,
			"count":557,
			"type":"VEC2"
		},
		{
			"bufferView":45,
			"componentType":5121,
			"count":557,
			"type":"VEC4"
		},
		{
			"bufferView":46,
			"componentType":5126,
			"count":557,
			"type":"VEC4"
		},
		{
			"bufferView":47,
			"componentType":5123,
			"count":2988,
			"type":"SCALAR"
		},
		{
			"bufferView":48,
			"componentType":5126,
			"count":53,
			"type":"MAT4"
		}
	],
	"bufferViews":[
		{
			"buffer":0,
			"byteLength":95208,
			"byteOffset":0,
			"target":34962
		},
		{
			"buffer":0,
			"byteLength":95208,
			"byteOffset":95208,
			"target":34962
		},
		{
			"buffer":0,
			"byteLength":63472,
			"byteOffset":190416,
			"target":34962
		},
		{
			"buffer":0,
			"byteLength":31736,
			"byteOffset":253888,
			"target":34962
		},
		{
			"buffer":0,
			"byteLength":126944,
			"byteOffset":285624,
			"target":34962
		},
		{
			"buffer":0,
			"byteLength":87108,
			"byteOffset":412568,
			"target":34963
		},
		{
			"buffer":0,
			"byteLength":1152,
			"byteOffset":499676,
			"target":34962
		},
		{
			"buffer":0,
			"byteLength":1152,
			"byteOffset":500828,
			"target":34962
		},
		{
			"buffer":0,
			"byteLength":768,
			"byteOffset":501980,
			"target":34962
		},
		{
			"buffer":0,
			"byteLength":384,
			"byteOffset":502748,
			"target":34962
		},
		{
			"buffer":0,
			"byteLength":1536,
			"byteOffset":503132,
			"target":34962
		},
		{
			"buffer":0,
			"byteLength":1032,
			"byteOffset":504668,
			"target":34963
		},
		{
			"buffer":0,
			"byteLength":3000,
			"byteOffset":505700,
			"target":34962
		},
		{
			"buffer":0,
			"byteLength":3000,
			"byteOffset":508700,
			"target":34962
		},
		{
			"buffer":0,
			"byteLength":2000,
			"byteOffset":511700,
			"target":34962
		},
		{
			"buffer":0,
			"byteLength":1000,
			"byteOffset":513700,
			"target":34962
		},
		{
			"buffer":0,
			"byteLength":4000,
			"byteOffset":514700,
			"target":34962
		},
		{
			"buffer":0,
			"byteLength":2208,
			"byteOffset":518700,
			"target":34963
		},
		{
			"buffer":0,
			"byteLength":1488,
			"byteOffset":520908,
			"target":34962
		},
		{
			"buffer":0,
			"byteLength":1488,
			"byteOffset":522396,
			"target":34962
		},
		{
			"buffer":0,
			"byteLength":992,
			"byteOffset":523884,
			"target":34962
		},
		{
			"buffer":0,
			"byteLength":496,
			"byteOffset":524876,
			"target":34962
		},
		{
			"buffer":0,
			"byteLength":1984,
			"byteOffset":525372,
			"target":34962
		},
		{
			"buffer":0,
			"byteLength":1152,
			"byteOffset":527356,
			"target":34963
		},
		{
			"buffer":0,
			"byteLength":21528,
			"byteOffset":528508,
			"target":34962
		},
		{
			"buffer":0,
			"byteLength":21528,
			"byteOffset":550036,
			"target":34962
		},
		{
			"buffer":0,
			"byteLength":14352,
			"byteOffset":571564,
			"target":34962
		},
		{
			"buffer":0,
			"byteLength":7176,
			"byteOffset":585916,
			"target":34962
		},
		{
			"buffer":0,
			"byteLength":28704,
			"byteOffset":593092,
			"target":34962
		},
		{
			"buffer":0,
			"byteLength":20064,
			"byteOffset":621796,
			"target":34963
		},
		{
			"buffer":0,
			"byteLength":35052,
			"byteOffset":641860,
			"target":34962
		},
		{
			"buffer":0,
			"byteLength":35052,
			"byteOffset":676912,
			"target":34962
		},
		{
			"buffer":0,
			"byteLength":23368,
			"byteOffset":711964,
			"target":34962
		},
		{
			"buffer":0,
			"byteLength":11684,
			"byteOffset":735332,
			"target":34962
		},
		{
			"buffer":0,
			"byteLength":46736,
			"byteOffset":747016,
			"target":34962
		},
		{
			"buffer":0,
			"byteLength":29274,
			"byteOffset":793752,
			"target":34963
		},
		{
			"buffer":0,
			"byteLength":30120,
			"byteOffset":823028,
			"target":34962
		},
		{
			"buffer":0,
			"byteLength":30120,
			"byteOffset":853148,
			"target":34962
		},
		{
			"buffer":0,
			"byteLength":20080,
			"byteOffset":883268,
			"target":34962
		},
		{
			"buffer":0,
			"byteLength":10040,
			"byteOffset":903348,
			"target":34962
		},
		{
			"buffer":0,
			"byteLength":40160,
			"byteOffset":913388,
			"target":34962
		},
		{
			"buffer":0,
			"byteLength":24768,
			"byteOffset":953548,
			"target":34963
		},
		{
			"buffer":0,
			"byteLength":6684,
			"byteOffset":978316,
			"target":34962
		},
		{
			"buffer":0,
			"byteLength":6684,
			"byteOffset":985000,
			"target":34962
		},
		{
			"buffer":0,
			"byteLength":4456,
			"byteOffset":991684,
			"target":34962
		},
		{
			"buffer":0,
			"byteLength":2228,
			"byteOffset":996140,
			"target":34962
		},
		{
			"buffer":0,
			"byteLength":8912,
			"byteOffset":998368,
			"target":34962
		},
		{
			"buffer":0,
			"byteLength":5976,
			"byteOffset":1007280,
			"target":34963
		},
		{
			"buffer":0,
			"byteLength":3392,
			"byteOffset":1013256
		}
	],
	"samplers":[
		{
			"magFilter":9729,
			"minFilter":9987
		}
	],
	"buffers":[
		{
			"byteLength":1016648,
			"uri":"farmer.bin"
		}
	]
}
