{
	"asset":{
		"generator":"Khronos glTF Blender I/O v4.4.56",
		"version":"2.0"
	},
	"scene":0,
	"scenes":[
		{
			"name":"Scene",
			"nodes":[
				54
			]
		}
	],
	"nodes":[
		{
			"name":"index_03_l",
			"rotation":[
				0.061015352606773376,
				0.0005522607243619859,
				0.016458785161376,
				0.998000979423523
			],
			"translation":[
				0,
				0.025395182892680168,
				-1.4901161193847656e-08
			]
		},
		{
			"children":[
				0
			],
			"name":"index_02_l",
			"rotation":[
				0.10762394964694977,
				-0.009188612923026085,
				0.006844676099717617,
				0.9941256642341614
			],
			"scale":[
				1,
				0.9999999403953552,
				0.9999999403953552
			],
			"translation":[
				-1.4901161193847656e-08,
				0.028289571404457092,
				-3.725290298461914e-08
			]
		},
		{
			"children":[
				1
			],
			"name":"index_01_l",
			"rotation":[
				0.11442562937736511,
				0.44799426198005676,
				-0.0004471061402000487,
				0.8866835236549377
			],
			"scale":[
				1,
				1.0000001192092896,
				1.0000001192092896
			],
			"translation":[
				-0.014387939125299454,
				0.1143551915884018,
				0.009067244827747345
			]
		},
		{
			"name":"middle_03_l",
			"rotation":[
				0.058684878051280975,
				0.011753672733902931,
				-0.006161689758300781,
				0.998188316822052
			],
			"scale":[
				0.9999999403953552,
				0.9999997019767761,
				0.9999998807907104
			],
			"translation":[
				5.960464477539063e-08,
				0.02955831214785576,
				4.470348358154297e-08
			]
		},
		{
			"children":[
				3
			],
			"name":"middle_02_l",
			"rotation":[
				0.049641598016023636,
				-0.010202160105109215,
				0.03714269399642944,
				0.9980241060256958
			],
			"scale":[
				0.9999999403953552,
				0.9999999403953552,
				1
			],
			"translation":[
				0,
				0.03704417496919632,
				7.450580596923828e-08
			]
		},
		{
			"children":[
				4
			],
			"name":"middle_01_l",
			"rotation":[
				0.10981675237417221,
				0.380088746547699,
				-0.15103113651275635,
				0.905904233455658
			],
			"scale":[
				1,
				1.0000001192092896,
				1
			],
			"translation":[
				0.004446275532245636,
				0.11056827008724213,
				-0.01213662326335907
			]
		},
		{
			"name":"pinky_03_l",
			"rotation":[
				0.006139692850410938,
				-0.02060415968298912,
				-0.013802848756313324,
				0.99967360496521
			],
			"scale":[
				0.9999999403953552,
				0.9999999403953552,
				0.9999999403953552
			],
			"translation":[
				0,
				0.01691257953643799,
				1.4901161193847656e-08
			]
		},
		{
			"children":[
				6
			],
			"name":"pinky_02_l",
			"rotation":[
				0.07974746823310852,
				-0.003056140383705497,
				0.023598061874508858,
				0.996531069278717
			],
			"scale":[
				0.9999999403953552,
				1,
				1
			],
			"translation":[
				2.9802322387695312e-08,
				0.023127593100070953,
				1.862645149230957e-08
			]
		},
		{
			"children":[
				7
			],
			"name":"pinky_01_l",
			"rotation":[
				0.06217515841126442,
				0.2686675190925598,
				-0.2968180775642395,
				0.9142488837242126
			],
			"scale":[
				1,
				1.0000001192092896,
				1.0000001192092896
			],
			"translation":[
				0.03942984342575073,
				0.0899251401424408,
				-0.03135262429714203
			]
		},
		{
			"name":"ring_03_l",
			"rotation":[
				0.06720389425754547,
				-0.01241560373455286,
				-0.026383113116025925,
				0.9973130822181702
			],
			"scale":[
				0.9999999403953552,
				1,
				1
			],
			"translation":[
				-5.960464477539063e-08,
				0.026931293308734894,
				-4.470348358154297e-08
			]
		},
		{
			"children":[
				9
			],
			"name":"ring_02_l",
			"rotation":[
				0.04735158383846283,
				0.012236181646585464,
				0.04676138237118721,
				0.9977080821990967
			],
			"scale":[
				1.0000001192092896,
				1.0000001192092896,
				1
			],
			"translation":[
				4.470348358154297e-08,
				0.03253655135631561,
				-1.4901161193847656e-08
			]
		},
		{
			"children":[
				10
			],
			"name":"ring_01_l",
			"rotation":[
				0.06916122883558273,
				0.3536885380744934,
				-0.2319994419813156,
				0.9034917950630188
			],
			"scale":[
				1,
				1,
				0.9999999403953552
			],
			"translation":[
				0.020544588565826416,
				0.10183095932006836,
				-0.024548575282096863
			]
		},
		{
			"name":"thumb_03_l",
			"rotation":[
				0.15545997023582458,
				0.06588564068078995,
				-0.0462372750043869,
				0.9845575094223022
			],
			"translation":[
				1.3969838619232178e-09,
				0.03975309431552887,
				4.0978193283081055e-08
			]
		},
		{
			"children":[
				12
			],
			"name":"thumb_02_l",
			"rotation":[
				0.03898150101304054,
				-0.051506999880075455,
				-0.18980617821216583,
				0.9796943664550781
			],
			"scale":[
				0.9999998807907104,
				1,
				0.9999998807907104
			],
			"translation":[
				-4.0978193283081055e-08,
				0.033447638154029846,
				-5.587935447692871e-08
			]
		},
		{
			"children":[
				13
			],
			"name":"thumb_01_l",
			"rotation":[
				0.2774570882320404,
				0.6922329664230347,
				0.4379618167877197,
				0.5020164251327515
			],
			"scale":[
				1.0000001192092896,
				1,
				1.0000001192092896
			],
			"translation":[
				-0.016693472862243652,
				0.04340022802352905,
				0.014766789972782135
			]
		},
		{
			"children":[
				2,
				5,
				8,
				11,
				14
			],
			"name":"hand_l",
			"rotation":[
				0.10409943759441376,
				0.414364755153656,
				-0.010070627555251122,
				0.9040817618370056
			],
			"scale":[
				0.9999999403953552,
				0.9999999403953552,
				1
			],
			"translation":[
				4.423782229423523e-09,
				0.259729266166687,
				2.9802322387695312e-08
			]
		},
		{
			"children":[
				15
			],
			"name":"lowerarm_l",
			"rotation":[
				0.38313695788383484,
				0.0265264343470335,
				0.024596450850367546,
				0.922982931137085
			],
			"scale":[
				0.9999999403953552,
				0.9999999403953552,
				1
			],
			"translation":[
				-5.0873495638370514e-08,
				0.2580789029598236,
				-1.862645149230957e-09
			]
		},
		{
			"children":[
				16
			],
			"name":"upperarm_l",
			"rotation":[
				0.013390187174081802,
				0.025787267833948135,
				-0.33207428455352783,
				0.9428055882453918
			],
			"scale":[
				0.9999998807907104,
				1,
				1
			],
			"translation":[
				-3.236345946788788e-08,
				0.16764825582504272,
				2.7939677238464355e-09
			]
		},
		{
			"children":[
				17
			],
			"name":"clavicle_l",
			"rotation":[
				-0.005486690439283848,
				0.051749177277088165,
				-0.7613821029663086,
				0.6462115049362183
			],
			"scale":[
				0.9999998807907104,
				0.9999999403953552,
				0.9999998807907104
			],
			"translation":[
				0.023489773273468018,
				0.26013222336769104,
				0.09798390418291092
			]
		},
		{
			"name":"index_03_r",
			"rotation":[
				0.061015352606773376,
				-0.0005522607243619859,
				-0.016458785161376,
				0.998000979423523
			],
			"translation":[
				0,
				0.025395182892680168,
				-1.4901161193847656e-08
			]
		},
		{
			"children":[
				19
			],
			"name":"index_02_r",
			"rotation":[
				0.10762394964694977,
				0.009188612923026085,
				-0.006844676099717617,
				0.9941256642341614
			],
			"scale":[
				1,
				0.9999999403953552,
				0.9999999403953552
			],
			"translation":[
				1.4901161193847656e-08,
				0.028289571404457092,
				-3.725290298461914e-08
			]
		},
		{
			"children":[
				20
			],
			"name":"index_01_r",
			"rotation":[
				0.11442562937736511,
				-0.44799426198005676,
				0.0004471061402000487,
				0.8866835236549377
			],
			"scale":[
				1,
				1.0000001192092896,
				1.0000001192092896
			],
			"translation":[
				0.014387939125299454,
				0.1143551915884018,
				0.009067244827747345
			]
		},
		{
			"name":"middle_03_r",
			"rotation":[
				0.058684878051280975,
				-0.011753672733902931,
				0.006161689758300781,
				0.998188316822052
			],
			"scale":[
				0.9999999403953552,
				0.9999997019767761,
				0.9999998807907104
			],
			"translation":[
				-5.960464477539063e-08,
				0.02955831214785576,
				4.470348358154297e-08
			]
		},
		{
			"children":[
				22
			],
			"name":"middle_02_r",
			"rotation":[
				0.049641598016023636,
				0.010202160105109215,
				-0.03714269399642944,
				0.9980241060256958
			],
			"scale":[
				0.9999999403953552,
				0.9999999403953552,
				1
			],
			"translation":[
				0,
				0.03704417496919632,
				7.450580596923828e-08
			]
		},
		{
			"children":[
				23
			],
			"name":"middle_01_r",
			"rotation":[
				0.10981675237417221,
				-0.380088746547699,
				0.15103113651275635,
				0.905904233455658
			],
			"scale":[
				1,
				1.0000001192092896,
				1
			],
			"translation":[
				-0.004446275532245636,
				0.11056827008724213,
				-0.01213662326335907
			]
		},
		{
			"name":"pinky_03_r",
			"rotation":[
				0.006139692850410938,
				0.02060415968298912,
				0.013802848756313324,
				0.99967360496521
			],
			"scale":[
				0.9999999403953552,
				0.9999999403953552,
				0.9999999403953552
			],
			"translation":[
				0,
				0.01691257953643799,
				1.4901161193847656e-08
			]
		},
		{
			"children":[
				25
			],
			"name":"pinky_02_r",
			"rotation":[
				0.07974746823310852,
				0.003056140383705497,
				-0.023598061874508858,
				0.996531069278717
			],
			"scale":[
				0.9999999403953552,
				1,
				1
			],
			"translation":[
				-2.9802322387695312e-08,
				0.023127593100070953,
				1.862645149230957e-08
			]
		},
		{
			"children":[
				26
			],
			"name":"pinky_01_r",
			"rotation":[
				0.06217515841126442,
				-0.2686675190925598,
				0.2968180775642395,
				0.9142488837242126
			],
			"scale":[
				1,
				1.0000001192092896,
				1.0000001192092896
			],
			"translation":[
				-0.03942984342575073,
				0.0899251401424408,
				-0.03135262429714203
			]
		},
		{
			"name":"ring_03_r",
			"rotation":[
				0.06720389425754547,
				0.01241560373455286,
				0.026383113116025925,
				0.9973130822181702
			],
			"scale":[
				0.9999999403953552,
				1,
				1
			],
			"translation":[
				5.960464477539063e-08,
				0.026931293308734894,
				-4.470348358154297e-08
			]
		},
		{
			"children":[
				28
			],
			"name":"ring_02_r",
			"rotation":[
				0.04735158383846283,
				-0.012236181646585464,
				-0.04676138237118721,
				0.9977080821990967
			],
			"scale":[
				1.0000001192092896,
				1.0000001192092896,
				1
			],
			"translation":[
				-4.470348358154297e-08,
				0.03253655135631561,
				-1.4901161193847656e-08
			]
		},
		{
			"children":[
				29
			],
			"name":"ring_01_r",
			"rotation":[
				0.06916122883558273,
				-0.3536885380744934,
				0.2319994419813156,
				0.9034917950630188
			],
			"scale":[
				1,
				1,
				0.9999999403953552
			],
			"translation":[
				-0.020544588565826416,
				0.10183095932006836,
				-0.024548575282096863
			]
		},
		{
			"name":"thumb_03_r",
			"rotation":[
				0.15545997023582458,
				-0.06588564068078995,
				0.0462372750043869,
				0.9845575094223022
			],
			"translation":[
				-1.3969838619232178e-09,
				0.03975309431552887,
				4.0978193283081055e-08
			]
		},
		{
			"children":[
				31
			],
			"name":"thumb_02_r",
			"rotation":[
				0.03898150101304054,
				0.051506999880075455,
				0.18980617821216583,
				0.9796943664550781
			],
			"scale":[
				0.9999998807907104,
				1,
				0.9999998807907104
			],
			"translation":[
				4.0978193283081055e-08,
				0.033447638154029846,
				-5.587935447692871e-08
			]
		},
		{
			"children":[
				32
			],
			"name":"thumb_01_r",
			"rotation":[
				0.2774570882320404,
				-0.6922329664230347,
				-0.4379618167877197,
				0.5020164251327515
			],
			"scale":[
				1.0000001192092896,
				1,
				1.0000001192092896
			],
			"translation":[
				0.016693472862243652,
				0.04340022802352905,
				0.014766789972782135
			]
		},
		{
			"children":[
				21,
				24,
				27,
				30,
				33
			],
			"name":"hand_r",
			"rotation":[
				0.10409943759441376,
				-0.414364755153656,
				0.010070627555251122,
				0.9040817618370056
			],
			"scale":[
				0.9999999403953552,
				0.9999999403953552,
				1
			],
			"translation":[
				-4.423782229423523e-09,
				0.259729266166687,
				2.9802322387695312e-08
			]
		},
		{
			"children":[
				34
			],
			"name":"lowerarm_r",
			"rotation":[
				0.38313695788383484,
				-0.0265264343470335,
				-0.024596450850367546,
				0.922982931137085
			],
			"scale":[
				0.9999999403953552,
				0.9999999403953552,
				1
			],
			"translation":[
				5.0873495638370514e-08,
				0.2580789029598236,
				-1.862645149230957e-09
			]
		},
		{
			"children":[
				35
			],
			"name":"upperarm_r",
			"rotation":[
				0.013390187174081802,
				-0.025787267833948135,
				0.33207428455352783,
				0.9428055882453918
			],
			"scale":[
				0.9999998807907104,
				1,
				1
			],
			"translation":[
				3.236345946788788e-08,
				0.16764825582504272,
				2.7939677238464355e-09
			]
		},
		{
			"children":[
				36
			],
			"name":"clavicle_r",
			"rotation":[
				-0.005486690439283848,
				-0.051749177277088165,
				0.7613821029663086,
				0.6462115049362183
			],
			"scale":[
				0.9999998807907104,
				0.9999999403953552,
				0.9999998807907104
			],
			"translation":[
				-0.023489773273468018,
				0.26013222336769104,
				0.09798390418291092
			]
		},
		{
			"name":"head",
			"rotation":[
				-0.1588727980852127,
				0,
				0,
				0.9872990846633911
			],
			"scale":[
				1,
				0.9999998807907104,
				0.9999999403953552
			],
			"translation":[
				0,
				0.10021403431892395,
				-7.450580596923828e-09
			]
		},
		{
			"children":[
				38
			],
			"name":"neck_01",
			"rotation":[
				0.2301713079214096,
				0,
				0,
				0.9731501936912537
			],
			"scale":[
				1,
				0.9999999403953552,
				0.9999999403953552
			],
			"translation":[
				0,
				0.33858591318130493,
				0.09464623779058456
			]
		},
		{
			"children":[
				18,
				37,
				39
			],
			"name":"spine_03",
			"rotation":[
				0.036488812416791916,
				0,
				0,
				0.9993340373039246
			],
			"scale":[
				1,
				1.0000001192092896,
				1
			],
			"translation":[
				0,
				0.063913993537426,
				-5.587935447692871e-09
			]
		},
		{
			"children":[
				40
			],
			"name":"spine_02",
			"rotation":[
				-0.16970008611679077,
				0,
				0,
				0.9854957461357117
			],
			"scale":[
				1,
				0.9999999403953552,
				1
			],
			"translation":[
				0,
				0.07174288481473923,
				9.313225746154785e-09
			]
		},
		{
			"children":[
				41
			],
			"name":"spine_01",
			"rotation":[
				0.23432649672031403,
				0,
				0,
				0.9721579551696777
			],
			"scale":[
				1,
				1,
				0.9999999403953552
			],
			"translation":[
				0,
				0.09447909891605377,
				-9.313225746154785e-09
			]
		},
		{
			"name":"ball_l",
			"rotation":[
				-0.2444896399974823,
				-0.21352194249629974,
				0.09436618536710739,
				0.9411313533782959
			],
			"scale":[
				1,
				1,
				1.0000001192092896
			],
			"translation":[
				-5.9881131164729595e-09,
				0.1460655927658081,
				-7.967173587530851e-10
			]
		},
		{
			"children":[
				43
			],
			"name":"foot_l",
			"rotation":[
				-0.5460587739944458,
				-0.0247186329215765,
				0.030160734429955482,
				0.8368388414382935
			],
			"scale":[
				1,
				0.9999998211860657,
				0.9999998807907104
			],
			"translation":[
				9.044015314429998e-09,
				0.4512975513935089,
				-2.3283064365386963e-10
			]
		},
		{
			"children":[
				44
			],
			"name":"calf_l",
			"rotation":[
				0.05958644673228264,
				0.2320401668548584,
				-0.009083714336156845,
				0.9708369374275208
			],
			"scale":[
				1,
				1.0000003576278687,
				1.0000001192092896
			],
			"translation":[
				-1.3969838619232178e-08,
				0.43385404348373413,
				0
			]
		},
		{
			"children":[
				45
			],
			"name":"thigh_l",
			"rotation":[
				-0.9640991687774658,
				-0.07773736864328384,
				0.22331279516220093,
				0.12083520740270615
			],
			"translation":[
				0.11386086046695709,
				-0.008465624414384365,
				-0.014463962987065315
			]
		},
		{
			"name":"ball_r",
			"rotation":[
				-0.2444896399974823,
				0.21352194249629974,
				-0.09436618536710739,
				0.9411313533782959
			],
			"scale":[
				1,
				1,
				1.0000001192092896
			],
			"translation":[
				5.9881131164729595e-09,
				0.1460655927658081,
				-7.967173587530851e-10
			]
		},
		{
			"children":[
				47
			],
			"name":"foot_r",
			"rotation":[
				-0.5460587739944458,
				0.0247186329215765,
				-0.030160734429955482,
				0.8368388414382935
			],
			"scale":[
				1,
				0.9999998211860657,
				0.9999998807907104
			],
			"translation":[
				-9.044015314429998e-09,
				0.4512975513935089,
				-2.3283064365386963e-10
			]
		},
		{
			"children":[
				48
			],
			"name":"calf_r",
			"rotation":[
				0.05958644673228264,
				-0.2320401668548584,
				0.009083714336156845,
				0.9708369374275208
			],
			"scale":[
				1,
				1.0000003576278687,
				1.0000001192092896
			],
			"translation":[
				1.3969838619232178e-08,
				0.43385404348373413,
				0
			]
		},
		{
			"children":[
				49
			],
			"name":"thigh_r",
			"rotation":[
				-0.9640991687774658,
				0.07773736864328384,
				-0.22331279516220093,
				0.12083520740270615
			],
			"translation":[
				-0.11386086046695709,
				-0.008465624414384365,
				-0.014463962987065315
			]
		},
		{
			"children":[
				42,
				46,
				50
			],
			"name":"pelvis",
			"rotation":[
				0.5727460384368896,
				0,
				0,
				0.8197329044342041
			],
			"translation":[
				0,
				-0.00152641162276268,
				0.965097188949585
			]
		},
		{
			"children":[
				51
			],
			"name":"Root",
			"rotation":[
				-0.7071067690849304,
				0,
				0,
				0.7071067690849304
			],
			"scale":[
				1,
				0.9999999403953552,
				1
			],
			"translation":[
				0,
				0.00047159940004348755,
				0.004175060894340277
			]
		},
		{
			"mesh":0,
			"name":"salesman.001",
			"skin":0
		},
		{
			"children":[
				53,
				52
			],
			"name":"Skeleton"
		}
	],
	"materials":[
		{
			"doubleSided":true,
			"name":"skin",
			"pbrMetallicRoughness":{
				"baseColorTexture":{
					"index":0
				},
				"metallicFactor":0,
				"roughnessFactor":0.550000011920929
			}
		},
		{
			"doubleSided":true,
			"name":"eyes",
			"pbrMetallicRoughness":{
				"baseColorTexture":{
					"index":1
				},
				"metallicFactor":0,
				"roughnessFactor":0.10000000149011612
			}
		},
		{
			"alphaMode":"BLEND",
			"doubleSided":true,
			"name":"lashes",
			"pbrMetallicRoughness":{
				"baseColorTexture":{
					"index":2
				},
				"metallicFactor":0,
				"roughnessFactor":0.8500000238418579
			}
		},
		{
			"alphaMode":"BLEND",
			"doubleSided":true,
			"name":"brows",
			"pbrMetallicRoughness":{
				"baseColorTexture":{
					"index":3
				},
				"metallicFactor":0,
				"roughnessFactor":0.8500000238418579
			}
		},
		{
			"alphaMode":"BLEND",
			"doubleSided":true,
			"name":"hair",
			"pbrMetallicRoughness":{
				"baseColorTexture":{
					"index":4
				},
				"metallicFactor":0,
				"roughnessFactor":0.6000000238418579
			}
		},
		{
			"doubleSided":true,
			"name":"cloth_male_elegantsuit01",
			"pbrMetallicRoughness":{
				"baseColorTexture":{
					"index":5
				},
				"metallicFactor":0,
				"roughnessFactor":0.8500000238418579
			}
		},
		{
			"doubleSided":true,
			"name":"cloth_shoes04",
			"normalTexture":{
				"index":6
			},
			"pbrMetallicRoughness":{
				"baseColorTexture":{
					"index":7
				},
				"metallicFactor":0,
				"roughnessFactor":0.8500000238418579
			}
		},
		{
			"alphaMode":"BLEND",
			"doubleSided":true,
			"name":"beard",
			"pbrMetallicRoughness":{
				"baseColorTexture":{
					"index":8
				},
				"metallicFactor":0,
				"roughnessFactor":0.6000000238418579
			}
		}
	],
	"meshes":[
		{
			"name":"salesman",
			"primitives":[
				{
					"attributes":{
						"POSITION":0,
						"NORMAL":1,
						"TEXCOORD_0":2,
						"JOINTS_0":3,
						"WEIGHTS_0":4
					},
					"indices":5,
					"material":0
				},
				{
					"attributes":{
						"POSITION":6,
						"NORMAL":7,
						"TEXCOORD_0":8,
						"JOINTS_0":9,
						"WEIGHTS_0":10
					},
					"indices":11,
					"material":1
				},
				{
					"attributes":{
						"POSITION":12,
						"NORMAL":13,
						"TEXCOORD_0":14,
						"JOINTS_0":15,
						"WEIGHTS_0":16
					},
					"indices":17,
					"material":2
				},
				{
					"attributes":{
						"POSITION":18,
						"NORMAL":19,
						"TEXCOORD_0":20,
						"JOINTS_0":21,
						"WEIGHTS_0":22
					},
					"indices":23,
					"material":3
				},
				{
					"attributes":{
						"POSITION":24,
						"NORMAL":25,
						"TEXCOORD_0":26,
						"JOINTS_0":27,
						"WEIGHTS_0":28
					},
					"indices":29,
					"material":4
				},
				{
					"attributes":{
						"POSITION":30,
						"NORMAL":31,
						"TEXCOORD_0":32,
						"JOINTS_0":33,
						"WEIGHTS_0":34
					},
					"indices":35,
					"material":5
				},
				{
					"attributes":{
						"POSITION":36,
						"NORMAL":37,
						"TEXCOORD_0":38,
						"JOINTS_0":39,
						"WEIGHTS_0":40
					},
					"indices":41,
					"material":6
				},
				{
					"attributes":{
						"POSITION":42,
						"NORMAL":43,
						"TEXCOORD_0":44,
						"JOINTS_0":45,
						"WEIGHTS_0":46
					},
					"indices":47,
					"material":7
				}
			]
		}
	],
	"textures":[
		{
			"sampler":0,
			"source":0
		},
		{
			"sampler":0,
			"source":1
		},
		{
			"sampler":0,
			"source":2
		},
		{
			"sampler":0,
			"source":3
		},
		{
			"sampler":0,
			"source":4
		},
		{
			"sampler":0,
			"source":5
		},
		{
			"sampler":0,
			"source":6
		},
		{
			"sampler":0,
			"source":7
		},
		{
			"sampler":0,
			"source":8
		}
	],
	"images":[
		{
			"mimeType":"image/jpeg",
			"name":"skin_middleage_caucasian_male_albedo",
			"uri":"textures/skin_middleage_caucasian_male_albedo.jpg"
		},
		{
			"mimeType":"image/jpeg",
			"name":"eyes_brown_albedo",
			"uri":"textures/eyes_brown_albedo.jpg"
		},
		{
			"mimeType":"image/png",
			"name":"eyelashes01_albedo",
			"uri":"textures/eyelashes01_albedo.png"
		},
		{
			"mimeType":"image/png",
			"name":"eyebrow003_albedo",
			"uri":"textures/eyebrow003_albedo.png"
		},
		{
			"mimeType":"image/png",
			"name":"hair_short02_albedo",
			"uri":"textures/hair_short02_albedo.png"
		},
		{
			"mimeType":"image/jpeg",
			"name":"male_elegantsuit01_albedo",
			"uri":"textures/male_elegantsuit01_albedo.jpg"
		},
		{
			"mimeType":"image/jpeg",
			"name":"shoes04_normal",
			"uri":"textures/shoes04_normal.jpg"
		},
		{
			"mimeType":"image/jpeg",
			"name":"shoes04_albedo",
			"uri":"textures/shoes04_albedo.jpg"
		},
		{
			"mimeType":"image/png",
			"name":"rehmanpolanski_moustache_viking_albedo",
			"uri":"textures/rehmanpolanski_moustache_viking_albedo.png"
		}
	],
	"skins":[
		{
			"inverseBindMatrices":48,
			"joints":[
				52,
				51,
				42,
				41,
				40,
				18,
				17,
				16,
				15,
				2,
				1,
				0,
				5,
				4,
				3,
				8,
				7,
				6,
				11,
				10,
				9,
				14,
				13,
				12,
				37,
				36,
				35,
				34,
				21,
				20,
				19,
				24,
				23,
				22,
				27,
				26,
				25,
				30,
				29,
				28,
				33,
				32,
				31,
				39,
				38,
				46,
				45,
				44,
				43,
				50,
				49,
				48,
				47
			],
			"name":"Skeleton"
		}
	],
	"accessors":[
		{
			"bufferView":0,
			"componentType":5126,
			"count":8049,
			"max":[
				0.569586992263794,
				1.7832945585250854,
				0.3741154074668884
			],
			"min":[
				-0.569586992263794,
				0.9766793251037598,
				-0.04976750165224075
			],
			"type":"VEC3"
		},
		{
			"bufferView":1,
			"componentType":5126,
			"count":8049,
			"type":"VEC3"
		},
		{
			"bufferView":2,
			"componentType":5126,
			"count":8049,
			"type":"VEC2"
		},
		{
			"bufferView":3,
			"componentType":5121,
			"count":8049,
			"type":"VEC4"
		},
		{
			"bufferView":4,
			"componentType":5126,
			"count":8049,
			"type":"VEC4"
		},
		{
			"bufferView":5,
			"componentType":5123,
			"count":44322,
			"type":"SCALAR"
		},
		{
			"bufferView":6,
			"componentType":5126,
			"count":96,
			"max":[
				0.04509403556585312,
				1.6860109567642212,
				0.14551708102226257
			],
			"min":[
				-0.04509403556585312,
				1.6574535369873047,
				0.1211152896285057
			],
			"type":"VEC3"
		},
		{
			"bufferView":7,
			"componentType":5126,
			"count":96,
			"type":"VEC3"
		},
		{
			"bufferView":8,
			"componentType":5126,
			"count":96,
			"type":"VEC2"
		},
		{
			"bufferView":9,
			"componentType":5121,
			"count":96,
			"type":"VEC4"
		},
		{
			"bufferView":10,
			"componentType":5126,
			"count":96,
			"type":"VEC4"
		},
		{
			"bufferView":11,
			"componentType":5123,
			"count":516,
			"type":"SCALAR"
		},
		{
			"bufferView":12,
			"componentType":5126,
			"count":250,
			"max":[
				0.04954994097352028,
				1.675372838973999,
				0.15031708776950836
			],
			"min":[
				-0.04954994097352028,
				1.6614383459091187,
				0.13598257303237915
			],
			"type":"VEC3"
		},
		{
			"bufferView":13,
			"componentType":5126,
			"count":250,
			"type":"VEC3"
		},
		{
			"bufferView":14,
			"componentType":5126,
			"count":250,
			"type":"VEC2"
		},
		{
			"bufferView":15,
			"componentType":5121,
			"count":250,
			"type":"VEC4"
		},
		{
			"bufferView":16,
			"componentType":5126,
			"count":250,
			"type":"VEC4"
		},
		{
			"bufferView":17,
			"componentType":5123,
			"count":1104,
			"type":"SCALAR"
		},
		{
			"bufferView":18,
			"componentType":5126,
			"count":124,
			"max":[
				0.06045670807361603,
				1.687778353691101,
				0.15534155070781708
			],
			"min":[
				-0.06045670807361603,
				1.6752859354019165,
				0.12282866984605789
			],
			"type":"VEC3"
		},
		{
			"bufferView":19,
			"componentType":5126,
			"count":124,
			"type":"VEC3"
		},
		{
			"bufferView":20,
			"componentType":5126,
			"count":124,
			"type":"VEC2"
		},
		{
			"bufferView":21,
			"componentType":5121,
			"count":124,
			"type":"VEC4"
		},
		{
			"bufferView":22,
			"componentType":5126,
			"count":124,
			"type":"VEC4"
		},
		{
			"bufferView":23,
			"componentType":5123,
			"count":576,
			"type":"SCALAR"
		},
		{
			"bufferView":24,
			"componentType":5126,
			"count":1794,
			"max":[
				0.08608908951282501,
				1.7993777990341187,
				0.17032262682914734
			],
			"min":[
				-0.09230715781450272,
				1.5927618741989136,
				-0.052418582141399384
			],
			"type":"VEC3"
		},
		{
			"bufferView":25,
			"componentType":5126,
			"count":1794,
			"type":"VEC3"
		},
		{
			"bufferView":26,
			"componentType":5126,
			"count":1794,
			"type":"VEC2"
		},
		{
			"bufferView":27,
			"componentType":5121,
			"count":1794,
			"type":"VEC4"
		},
		{
			"bufferView":28,
			"componentType":5126,
			"count":1794,
			"type":"VEC4"
		},
		{
			"bufferView":29,
			"componentType":5123,
			"count":10032,
			"type":"SCALAR"
		},
		{
			"bufferView":30,
			"componentType":5126,
			"count":3001,
			"max":[
				0.5333714485168457,
				1.5711328983306885,
				0.2491798996925354
			],
			"min":[
				-0.5283851027488708,
				0.06188786029815674,
				-0.12477952241897583
			],
			"type":"VEC3"
		},
		{
			"bufferView":31,
			"componentType":5126,
			"count":3001,
			"type":"VEC3"
		},
		{
			"bufferView":32,
			"componentType":5126,
			"count":3001,
			"type":"VEC2"
		},
		{
			"bufferView":33,
			"componentType":5121,
			"count":3001,
			"type":"VEC4"
		},
		{
			"bufferView":34,
			"componentType":5126,
			"count":3001,
			"type":"VEC4"
		},
		{
			"bufferView":35,
			"componentType":5123,
			"count":15321,
			"type":"SCALAR"
		},
		{
			"bufferView":36,
			"componentType":5126,
			"count":1846,
			"max":[
				0.2543172538280487,
				0.21856342256069183,
				0.21749290823936462
			],
			"min":[
				-0.2543172538280487,
				-0.0028217770159244537,
				-0.06311197578907013
			],
			"type":"VEC3"
		},
		{
			"bufferView":37,
			"componentType":5126,
			"count":1846,
			"type":"VEC3"
		},
		{
			"bufferView":38,
			"componentType":5126,
			"count":1846,
			"type":"VEC2"
		},
		{
			"bufferView":39,
			"componentType":5121,
			"count":1846,
			"type":"VEC4"
		},
		{
			"bufferView":40,
			"componentType":5126,
			"count":1846,
			"type":"VEC4"
		},
		{
			"bufferView":41,
			"componentType":5123,
			"count":9960,
			"type":"SCALAR"
		},
		{
			"bufferView":42,
			"componentType":5126,
			"count":1598,
			"max":[
				0.03455184027552605,
				1.6217371225357056,
				0.16761687397956848
			],
			"min":[
				-0.03184670954942703,
				1.5878669023513794,
				0.13862934708595276
			],
			"type":"VEC3"
		},
		{
			"bufferView":43,
			"componentType":5126,
			"count":1598,
			"type":"VEC3"
		},
		{
			"bufferView":44,
			"componentType":5126,
			"count":1598,
			"type":"VEC2"
		},
		{
			"bufferView":45,
			"componentType":5121,
			"count":1598,
			"type":"VEC4"
		},
		{
			"bufferView":46,
			"componentType":5126,
			"count":1598,
			"type":"VEC4"
		},
		{
			"bufferView":47,
			"componentType":5123,
			"count":4092,
			"type":"SCALAR"
		},
		{
			"bufferView":48,
			"componentType":5126,
			"count":53,
			"type":"MAT4"
		}
	],
	"bufferViews":[
		{
			"buffer":0,
			"byteLength":96588,
			"byteOffset":0,
			"target":34962
		},
		{
			"buffer":0,
			"byteLength":96588,
			"byteOffset":96588,
			"target":34962
		},
		{
			"buffer":0,
			"byteLength":64392,
			"byteOffset":193176,
			"target":34962
		},
		{
			"buffer":0,
			"byteLength":32196,
			"byteOffset":257568,
			"target":34962
		},
		{
			"buffer":0,
			"byteLength":128784,
			"byteOffset":289764,
			"target":34962
		},
		{
			"buffer":0,
			"byteLength":88644,
			"byteOffset":418548,
			"target":34963
		},
		{
			"buffer":0,
			"byteLength":1152,
			"byteOffset":507192,
			"target":34962
		},
		{
			"buffer":0,
			"byteLength":1152,
			"byteOffset":508344,
			"target":34962
		},
		{
			"buffer":0,
			"byteLength":768,
			"byteOffset":509496,
			"target":34962
		},
		{
			"buffer":0,
			"byteLength":384,
			"byteOffset":510264,
			"target":34962
		},
		{
			"buffer":0,
			"byteLength":1536,
			"byteOffset":510648,
			"target":34962
		},
		{
			"buffer":0,
			"byteLength":1032,
			"byteOffset":512184,
			"target":34963
		},
		{
			"buffer":0,
			"byteLength":3000,
			"byteOffset":513216,
			"target":34962
		},
		{
			"buffer":0,
			"byteLength":3000,
			"byteOffset":516216,
			"target":34962
		},
		{
			"buffer":0,
			"byteLength":2000,
			"byteOffset":519216,
			"target":34962
		},
		{
			"buffer":0,
			"byteLength":1000,
			"byteOffset":521216,
			"target":34962
		},
		{
			"buffer":0,
			"byteLength":4000,
			"byteOffset":522216,
			"target":34962
		},
		{
			"buffer":0,
			"byteLength":2208,
			"byteOffset":526216,
			"target":34963
		},
		{
			"buffer":0,
			"byteLength":1488,
			"byteOffset":528424,
			"target":34962
		},
		{
			"buffer":0,
			"byteLength":1488,
			"byteOffset":529912,
			"target":34962
		},
		{
			"buffer":0,
			"byteLength":992,
			"byteOffset":531400,
			"target":34962
		},
		{
			"buffer":0,
			"byteLength":496,
			"byteOffset":532392,
			"target":34962
		},
		{
			"buffer":0,
			"byteLength":1984,
			"byteOffset":532888,
			"target":34962
		},
		{
			"buffer":0,
			"byteLength":1152,
			"byteOffset":534872,
			"target":34963
		},
		{
			"buffer":0,
			"byteLength":21528,
			"byteOffset":536024,
			"target":34962
		},
		{
			"buffer":0,
			"byteLength":21528,
			"byteOffset":557552,
			"target":34962
		},
		{
			"buffer":0,
			"byteLength":14352,
			"byteOffset":579080,
			"target":34962
		},
		{
			"buffer":0,
			"byteLength":7176,
			"byteOffset":593432,
			"target":34962
		},
		{
			"buffer":0,
			"byteLength":28704,
			"byteOffset":600608,
			"target":34962
		},
		{
			"buffer":0,
			"byteLength":20064,
			"byteOffset":629312,
			"target":34963
		},
		{
			"buffer":0,
			"byteLength":36012,
			"byteOffset":649376,
			"target":34962
		},
		{
			"buffer":0,
			"byteLength":36012,
			"byteOffset":685388,
			"target":34962
		},
		{
			"buffer":0,
			"byteLength":24008,
			"byteOffset":721400,
			"target":34962
		},
		{
			"buffer":0,
			"byteLength":12004,
			"byteOffset":745408,
			"target":34962
		},
		{
			"buffer":0,
			"byteLength":48016,
			"byteOffset":757412,
			"target":34962
		},
		{
			"buffer":0,
			"byteLength":30642,
			"byteOffset":805428,
			"target":34963
		},
		{
			"buffer":0,
			"byteLength":22152,
			"byteOffset":836072,
			"target":34962
		},
		{
			"buffer":0,
			"byteLength":22152,
			"byteOffset":858224,
			"target":34962
		},
		{
			"buffer":0,
			"byteLength":14768,
			"byteOffset":880376,
			"target":34962
		},
		{
			"buffer":0,
			"byteLength":7384,
			"byteOffset":895144,
			"target":34962
		},
		{
			"buffer":0,
			"byteLength":29536,
			"byteOffset":902528,
			"target":34962
		},
		{
			"buffer":0,
			"byteLength":19920,
			"byteOffset":932064,
			"target":34963
		},
		{
			"buffer":0,
			"byteLength":19176,
			"byteOffset":951984,
			"target":34962
		},
		{
			"buffer":0,
			"byteLength":19176,
			"byteOffset":971160,
			"target":34962
		},
		{
			"buffer":0,
			"byteLength":12784,
			"byteOffset":990336,
			"target":34962
		},
		{
			"buffer":0,
			"byteLength":6392,
			"byteOffset":1003120,
			"target":34962
		},
		{
			"buffer":0,
			"byteLength":25568,
			"byteOffset":1009512,
			"target":34962
		},
		{
			"buffer":0,
			"byteLength":8184,
			"byteOffset":1035080,
			"target":34963
		},
		{
			"buffer":0,
			"byteLength":3392,
			"byteOffset":1043264
		}
	],
	"samplers":[
		{
			"magFilter":9729,
			"minFilter":9987
		}
	],
	"buffers":[
		{
			"byteLength":1046656,
			"uri":"salesman.bin"
		}
	]
}
