{
	"asset":{
		"generator":"Khronos glTF Blender I/O v4.4.56",
		"version":"2.0"
	},
	"scene":0,
	"scenes":[
		{
			"name":"Scene",
			"nodes":[
				54
			]
		}
	],
	"nodes":[
		{
			"name":"index_03_l",
			"rotation":[
				0.06284890323877335,
				-0.002341301180422306,
				0.016522927209734917,
				0.9978835582733154
			],
			"scale":[
				0.9999998807907104,
				1,
				0.9999999403953552
			],
			"translation":[
				1.4901161193847656e-08,
				0.02426045946776867,
				-2.9802322387695312e-08
			]
		},
		{
			"children":[
				0
			],
			"name":"index_02_l",
			"rotation":[
				0.10980825126171112,
				-0.014035572297871113,
				0.00692492350935936,
				0.993829607963562
			],
			"scale":[
				0.9999999403953552,
				0.9999999403953552,
				0.9999998807907104
			],
			"translation":[
				0,
				0.027069494128227234,
				-3.725290298461914e-08
			]
		},
		{
			"children":[
				1
			],
			"name":"index_01_l",
			"rotation":[
				0.11421823501586914,
				0.4477824568748474,
				-9.704761760076508e-05,
				0.8868173956871033
			],
			"translation":[
				-0.013835776597261429,
				0.10934214293956757,
				0.008455544710159302
			]
		},
		{
			"name":"middle_03_l",
			"rotation":[
				0.05902862176299095,
				0.011163772083818913,
				-0.006343658547848463,
				0.998173713684082
			],
			"scale":[
				0.9999999403953552,
				1,
				0.9999999403953552
			],
			"translation":[
				2.9802322387695312e-08,
				0.02831219509243965,
				5.21540641784668e-08
			]
		},
		{
			"children":[
				3
			],
			"name":"middle_02_l",
			"rotation":[
				0.04976460337638855,
				-0.009541709907352924,
				0.03658337518572807,
				0.9980451464653015
			],
			"scale":[
				1,
				0.9999998807907104,
				1
			],
			"translation":[
				-2.9802322387695312e-08,
				0.03546193242073059,
				8.195638656616211e-08
			]
		},
		{
			"children":[
				4
			],
			"name":"middle_01_l",
			"rotation":[
				0.11199870705604553,
				0.37380847334861755,
				-0.1524381935596466,
				0.9080122113227844
			],
			"scale":[
				1,
				0.9999998211860657,
				1
			],
			"translation":[
				0.004105580970644951,
				0.10570681095123291,
				-0.011912807822227478
			]
		},
		{
			"name":"pinky_03_l",
			"rotation":[
				0.005317461211234331,
				-0.019395973533391953,
				-0.01392968650907278,
				0.9997007250785828
			],
			"scale":[
				0.9999999403953552,
				1,
				1
			],
			"translation":[
				-2.9802322387695312e-08,
				0.016181983053684235,
				-7.450580596923828e-09
			]
		},
		{
			"children":[
				6
			],
			"name":"pinky_02_l",
			"rotation":[
				0.08167627453804016,
				-0.006009149365127087,
				0.0241136085242033,
				0.996349036693573
			],
			"scale":[
				1,
				1,
				0.9999999403953552
			],
			"translation":[
				4.470348358154297e-08,
				0.022091113030910492,
				2.9802322387695312e-08
			]
		},
		{
			"children":[
				7
			],
			"name":"pinky_01_l",
			"rotation":[
				0.06273860484361649,
				0.26796403527259827,
				-0.2977050542831421,
				0.9141284823417664
			],
			"scale":[
				1,
				0.9999998807907104,
				0.9999998807907104
			],
			"translation":[
				0.03780686482787132,
				0.08595246076583862,
				-0.029889807105064392
			]
		},
		{
			"name":"ring_03_l",
			"rotation":[
				0.0685780867934227,
				-0.014575835317373276,
				-0.02664935775101185,
				0.9971832036972046
			],
			"scale":[
				1,
				1,
				1.0000001192092896
			],
			"translation":[
				4.470348358154297e-08,
				0.025749772787094116,
				5.960464477539063e-08
			]
		},
		{
			"children":[
				9
			],
			"name":"ring_02_l",
			"rotation":[
				0.0469844713807106,
				0.013115586712956429,
				0.046582989394664764,
				0.9977226257324219
			],
			"scale":[
				0.9999998807907104,
				1,
				0.9999999403953552
			],
			"translation":[
				4.470348358154297e-08,
				0.031141474843025208,
				2.9802322387695312e-08
			]
		},
		{
			"children":[
				10
			],
			"name":"ring_01_l",
			"rotation":[
				0.07074229419231415,
				0.3495948314666748,
				-0.23299512267112732,
				0.9047056436538696
			],
			"scale":[
				1,
				1,
				1.0000001192092896
			],
			"translation":[
				0.019642209634184837,
				0.0973370373249054,
				-0.023580200970172882
			]
		},
		{
			"name":"thumb_03_l",
			"rotation":[
				0.15859466791152954,
				0.07582087814807892,
				-0.04764315485954285,
				0.9832746386528015
			],
			"scale":[
				1,
				1,
				0.9999999403953552
			],
			"translation":[
				1.30385160446167e-08,
				0.03798231482505798,
				-1.1548399925231934e-07
			]
		},
		{
			"children":[
				12
			],
			"name":"thumb_02_l",
			"rotation":[
				0.03746683523058891,
				-0.0525667779147625,
				-0.190241739153862,
				0.9796127080917358
			],
			"scale":[
				1,
				1.0000001192092896,
				1
			],
			"translation":[
				2.60770320892334e-08,
				0.031976982951164246,
				1.4901161193847656e-08
			]
		},
		{
			"children":[
				13
			],
			"name":"thumb_01_l",
			"rotation":[
				0.2783924341201782,
				0.6885485053062439,
				0.4384022653102875,
				0.506164014339447
			],
			"scale":[
				0.9999999403953552,
				1.0000001192092896,
				1
			],
			"translation":[
				-0.01601206138730049,
				0.04143190383911133,
				0.014061041176319122
			]
		},
		{
			"children":[
				2,
				5,
				8,
				11,
				14
			],
			"name":"hand_l",
			"rotation":[
				0.10563914477825165,
				0.41388142108917236,
				-0.00926315225660801,
				0.904133141040802
			],
			"scale":[
				1,
				1,
				0.9999999403953552
			],
			"translation":[
				6.007030606269836e-08,
				0.24574415385723114,
				4.470348358154297e-08
			]
		},
		{
			"children":[
				15
			],
			"name":"lowerarm_l",
			"rotation":[
				0.3812994360923767,
				0.02643078751862049,
				0.025619227439165115,
				0.9237185120582581
			],
			"scale":[
				0.9999998807907104,
				1.0000001192092896,
				1.0000001192092896
			],
			"translation":[
				2.1903542801737785e-07,
				0.24352417886257172,
				-4.6566128730773926e-09
			]
		},
		{
			"children":[
				16
			],
			"name":"upperarm_l",
			"rotation":[
				0.014791164547204971,
				0.02710132859647274,
				-0.33050480484962463,
				0.9432991743087769
			],
			"scale":[
				1.0000001192092896,
				0.9999999403953552,
				1.0000001192092896
			],
			"translation":[
				1.5564728528261185e-07,
				0.16266414523124695,
				-2.514570951461792e-08
			]
		},
		{
			"children":[
				17
			],
			"name":"clavicle_l",
			"rotation":[
				-0.002633911557495594,
				0.055347662419080734,
				-0.7613291144371033,
				0.6459935903549194
			],
			"translation":[
				0.022739479318261147,
				0.2476511001586914,
				0.09750019013881683
			]
		},
		{
			"name":"index_03_r",
			"rotation":[
				0.06284890323877335,
				0.002341301180422306,
				-0.016522927209734917,
				0.9978835582733154
			],
			"scale":[
				0.9999998807907104,
				1,
				0.9999999403953552
			],
			"translation":[
				-1.4901161193847656e-08,
				0.02426045946776867,
				-2.9802322387695312e-08
			]
		},
		{
			"children":[
				19
			],
			"name":"index_02_r",
			"rotation":[
				0.10980825126171112,
				0.014035572297871113,
				-0.00692492350935936,
				0.993829607963562
			],
			"scale":[
				0.9999999403953552,
				0.9999999403953552,
				0.9999998807907104
			],
			"translation":[
				0,
				0.027069494128227234,
				-3.725290298461914e-08
			]
		},
		{
			"children":[
				20
			],
			"name":"index_01_r",
			"rotation":[
				0.11421823501586914,
				-0.4477824568748474,
				9.704761760076508e-05,
				0.8868173956871033
			],
			"translation":[
				0.013835776597261429,
				0.10934214293956757,
				0.008455544710159302
			]
		},
		{
			"name":"middle_03_r",
			"rotation":[
				0.05902862176299095,
				-0.011163772083818913,
				0.006343658547848463,
				0.998173713684082
			],
			"scale":[
				0.9999999403953552,
				1,
				0.9999999403953552
			],
			"translation":[
				-2.9802322387695312e-08,
				0.02831219509243965,
				5.21540641784668e-08
			]
		},
		{
			"children":[
				22
			],
			"name":"middle_02_r",
			"rotation":[
				0.04976460337638855,
				0.009541709907352924,
				-0.03658337518572807,
				0.9980451464653015
			],
			"scale":[
				1,
				0.9999998807907104,
				1
			],
			"translation":[
				2.9802322387695312e-08,
				0.03546193242073059,
				8.195638656616211e-08
			]
		},
		{
			"children":[
				23
			],
			"name":"middle_01_r",
			"rotation":[
				0.11199870705604553,
				-0.37380847334861755,
				0.1524381935596466,
				0.9080122113227844
			],
			"scale":[
				1,
				0.9999998211860657,
				1
			],
			"translation":[
				-0.004105580970644951,
				0.10570681095123291,
				-0.011912807822227478
			]
		},
		{
			"name":"pinky_03_r",
			"rotation":[
				0.005317461211234331,
				0.019395973533391953,
				0.01392968650907278,
				0.9997007250785828
			],
			"scale":[
				0.9999999403953552,
				1,
				1
			],
			"translation":[
				2.9802322387695312e-08,
				0.016181983053684235,
				-7.450580596923828e-09
			]
		},
		{
			"children":[
				25
			],
			"name":"pinky_02_r",
			"rotation":[
				0.08167627453804016,
				0.006009149365127087,
				-0.0241136085242033,
				0.996349036693573
			],
			"scale":[
				1,
				1,
				0.9999999403953552
			],
			"translation":[
				-4.470348358154297e-08,
				0.022091113030910492,
				2.9802322387695312e-08
			]
		},
		{
			"children":[
				26
			],
			"name":"pinky_01_r",
			"rotation":[
				0.06273860484361649,
				-0.26796403527259827,
				0.2977050542831421,
				0.9141284823417664
			],
			"scale":[
				1,
				0.9999998807907104,
				0.9999998807907104
			],
			"translation":[
				-0.03780686482787132,
				0.08595246076583862,
				-0.029889807105064392
			]
		},
		{
			"name":"ring_03_r",
			"rotation":[
				0.0685780867934227,
				0.014575835317373276,
				0.02664935775101185,
				0.9971832036972046
			],
			"scale":[
				1,
				1,
				1.0000001192092896
			],
			"translation":[
				-4.470348358154297e-08,
				0.025749772787094116,
				5.960464477539063e-08
			]
		},
		{
			"children":[
				28
			],
			"name":"ring_02_r",
			"rotation":[
				0.0469844713807106,
				-0.013115586712956429,
				-0.046582989394664764,
				0.9977226257324219
			],
			"scale":[
				0.9999998807907104,
				1,
				0.9999999403953552
			],
			"translation":[
				-4.470348358154297e-08,
				0.031141474843025208,
				2.9802322387695312e-08
			]
		},
		{
			"children":[
				29
			],
			"name":"ring_01_r",
			"rotation":[
				0.07074229419231415,
				-0.3495948314666748,
				0.23299512267112732,
				0.9047056436538696
			],
			"scale":[
				1,
				1,
				1.0000001192092896
			],
			"translation":[
				-0.019642209634184837,
				0.0973370373249054,
				-0.023580200970172882
			]
		},
		{
			"name":"thumb_03_r",
			"rotation":[
				0.15859466791152954,
				-0.07582087814807892,
				0.04764315485954285,
				0.9832746386528015
			],
			"scale":[
				1,
				1,
				0.9999999403953552
			],
			"translation":[
				-1.30385160446167e-08,
				0.03798231482505798,
				-1.1548399925231934e-07
			]
		},
		{
			"children":[
				31
			],
			"name":"thumb_02_r",
			"rotation":[
				0.03746683523058891,
				0.0525667779147625,
				0.190241739153862,
				0.9796127080917358
			],
			"scale":[
				1,
				1.0000001192092896,
				1
			],
			"translation":[
				-2.60770320892334e-08,
				0.031976982951164246,
				1.4901161193847656e-08
			]
		},
		{
			"children":[
				32
			],
			"name":"thumb_01_r",
			"rotation":[
				0.2783924341201782,
				-0.6885485053062439,
				-0.4384022653102875,
				0.506164014339447
			],
			"scale":[
				0.9999999403953552,
				1.0000001192092896,
				1
			],
			"translation":[
				0.01601206138730049,
				0.04143190383911133,
				0.014061041176319122
			]
		},
		{
			"children":[
				21,
				24,
				27,
				30,
				33
			],
			"name":"hand_r",
			"rotation":[
				0.10563914477825165,
				-0.41388142108917236,
				0.00926315225660801,
				0.904133141040802
			],
			"scale":[
				1,
				1,
				0.9999999403953552
			],
			"translation":[
				-6.007030606269836e-08,
				0.24574415385723114,
				4.470348358154297e-08
			]
		},
		{
			"children":[
				34
			],
			"name":"lowerarm_r",
			"rotation":[
				0.3812994360923767,
				-0.02643078751862049,
				-0.025619227439165115,
				0.9237185120582581
			],
			"scale":[
				0.9999998807907104,
				1.0000001192092896,
				1.0000001192092896
			],
			"translation":[
				-2.1903542801737785e-07,
				0.24352417886257172,
				-4.6566128730773926e-09
			]
		},
		{
			"children":[
				35
			],
			"name":"upperarm_r",
			"rotation":[
				0.014791164547204971,
				-0.02710132859647274,
				0.33050480484962463,
				0.9432991743087769
			],
			"scale":[
				1.0000001192092896,
				0.9999999403953552,
				1.0000001192092896
			],
			"translation":[
				-1.5564728528261185e-07,
				0.16266414523124695,
				-2.514570951461792e-08
			]
		},
		{
			"children":[
				36
			],
			"name":"clavicle_r",
			"rotation":[
				-0.002633911557495594,
				-0.055347662419080734,
				0.7613291144371033,
				0.6459935903549194
			],
			"translation":[
				-0.022739479318261147,
				0.2476511001586914,
				0.09750019013881683
			]
		},
		{
			"name":"head",
			"rotation":[
				-0.15981528162956238,
				0,
				0,
				0.9871469140052795
			],
			"translation":[
				0,
				0.09607811272144318,
				4.0978193283081055e-08
			]
		},
		{
			"children":[
				38
			],
			"name":"neck_01",
			"rotation":[
				0.23859275877475739,
				0,
				0,
				0.9711197018623352
			],
			"scale":[
				1,
				0.9999999403953552,
				1
			],
			"translation":[
				0,
				0.32411766052246094,
				0.09584338217973709
			]
		},
		{
			"children":[
				18,
				37,
				39
			],
			"name":"spine_03",
			"rotation":[
				0.04266086220741272,
				0,
				0,
				0.9990896582603455
			],
			"translation":[
				0,
				0.06181277334690094,
				-1.1175870895385742e-08
			]
		},
		{
			"children":[
				40
			],
			"name":"spine_02",
			"rotation":[
				-0.18161363899707794,
				0,
				0,
				0.9833699464797974
			],
			"scale":[
				1,
				0.9999999403953552,
				0.9999999403953552
			],
			"translation":[
				0,
				0.06868048012256622,
				-5.587935447692871e-09
			]
		},
		{
			"children":[
				41
			],
			"name":"spine_01",
			"rotation":[
				0.23869135975837708,
				0,
				0,
				0.9710955023765564
			],
			"translation":[
				0,
				0.09199345111846924,
				-1.4901161193847656e-08
			]
		},
		{
			"name":"ball_l",
			"rotation":[
				-0.2427349090576172,
				-0.19348083436489105,
				0.08798838406801224,
				0.946521520614624
			],
			"scale":[
				1,
				0.9999998211860657,
				0.9999998807907104
			],
			"translation":[
				-4.067260306328535e-09,
				0.14047710597515106,
				6.693881005048752e-10
			]
		},
		{
			"children":[
				43
			],
			"name":"foot_l",
			"rotation":[
				-0.5476107001304626,
				-0.021633954718708992,
				0.029914436861872673,
				0.8359184265136719
			],
			"scale":[
				1,
				1.0000001192092896,
				0.9999998807907104
			],
			"translation":[
				2.990418579429388e-09,
				0.44013431668281555,
				0
			]
		},
		{
			"children":[
				44
			],
			"name":"calf_l",
			"rotation":[
				0.0621071457862854,
				0.226660817861557,
				-0.004151567816734314,
				0.9719827175140381
			],
			"scale":[
				1,
				0.9999999403953552,
				1
			],
			"translation":[
				9.313225746154785e-10,
				0.39716365933418274,
				-7.450580596923828e-09
			]
		},
		{
			"children":[
				45
			],
			"name":"thigh_l",
			"rotation":[
				-0.9644719362258911,
				-0.0803973525762558,
				0.21983668208122253,
				0.12248283624649048
			],
			"scale":[
				1,
				1,
				1.000000238418579
			],
			"translation":[
				0.11120690405368805,
				-0.010287932120263577,
				-0.014893269166350365
			]
		},
		{
			"name":"ball_r",
			"rotation":[
				-0.2427349090576172,
				0.19348083436489105,
				-0.08798838406801224,
				0.946521520614624
			],
			"scale":[
				1,
				0.9999998211860657,
				0.9999998807907104
			],
			"translation":[
				4.067260306328535e-09,
				0.14047710597515106,
				6.693881005048752e-10
			]
		},
		{
			"children":[
				47
			],
			"name":"foot_r",
			"rotation":[
				-0.5476107001304626,
				0.021633954718708992,
				-0.029914436861872673,
				0.8359184265136719
			],
			"scale":[
				1,
				1.0000001192092896,
				0.9999998807907104
			],
			"translation":[
				-2.990418579429388e-09,
				0.44013431668281555,
				0
			]
		},
		{
			"children":[
				48
			],
			"name":"calf_r",
			"rotation":[
				0.0621071457862854,
				-0.226660817861557,
				0.004151567816734314,
				0.9719827175140381
			],
			"scale":[
				1,
				0.9999999403953552,
				1
			],
			"translation":[
				-9.313225746154785e-10,
				0.39716365933418274,
				-7.450580596923828e-09
			]
		},
		{
			"children":[
				49
			],
			"name":"thigh_r",
			"rotation":[
				-0.9644719362258911,
				0.0803973525762558,
				-0.21983668208122253,
				0.12248283624649048
			],
			"scale":[
				1,
				1,
				1.000000238418579
			],
			"translation":[
				-0.11120690405368805,
				-0.010287932120263577,
				-0.014893269166350365
			]
		},
		{
			"children":[
				42,
				46,
				50
			],
			"name":"pelvis",
			"rotation":[
				0.5698917508125305,
				0,
				0,
				0.8217198252677917
			],
			"scale":[
				1,
				0.9999999403953552,
				1
			],
			"translation":[
				0,
				-0.0005204160697758198,
				0.9163339138031006
			]
		},
		{
			"children":[
				51
			],
			"name":"Root",
			"rotation":[
				-0.7071067690849304,
				0,
				0,
				0.7071067690849304
			],
			"scale":[
				1,
				0.9999999403953552,
				1
			],
			"translation":[
				0,
				0.00044117681682109833,
				0.00536900432780385
			]
		},
		{
			"mesh":0,
			"name":"shopkeeper.001",
			"skin":0
		},
		{
			"children":[
				53,
				52
			],
			"name":"Skeleton"
		}
	],
	"materials":[
		{
			"doubleSided":true,
			"name":"skin",
			"pbrMetallicRoughness":{
				"baseColorTexture":{
					"index":0
				},
				"metallicFactor":0,
				"roughnessFactor":0.550000011920929
			}
		},
		{
			"doubleSided":true,
			"name":"eyes",
			"pbrMetallicRoughness":{
				"baseColorTexture":{
					"index":1
				},
				"metallicFactor":0,
				"roughnessFactor":0.10000000149011612
			}
		},
		{
			"alphaMode":"BLEND",
			"doubleSided":true,
			"name":"lashes",
			"pbrMetallicRoughness":{
				"baseColorTexture":{
					"index":2
				},
				"metallicFactor":0,
				"roughnessFactor":0.8500000238418579
			}
		},
		{
			"alphaMode":"BLEND",
			"doubleSided":true,
			"name":"brows",
			"pbrMetallicRoughness":{
				"baseColorTexture":{
					"index":3
				},
				"metallicFactor":0,
				"roughnessFactor":0.8500000238418579
			}
		},
		{
			"alphaMode":"BLEND",
			"doubleSided":true,
			"name":"hair",
			"pbrMetallicRoughness":{
				"baseColorTexture":{
					"index":4
				},
				"metallicFactor":0,
				"roughnessFactor":0.6000000238418579
			}
		},
		{
			"doubleSided":true,
			"name":"cloth_male_casualsuit03",
			"normalTexture":{
				"index":5
			},
			"pbrMetallicRoughness":{
				"baseColorTexture":{
					"index":6
				},
				"metallicFactor":0,
				"roughnessFactor":0.8500000238418579
			}
		},
		{
			"doubleSided":true,
			"name":"cloth_shoes04",
			"normalTexture":{
				"index":7
			},
			"pbrMetallicRoughness":{
				"baseColorTexture":{
					"index":8
				},
				"metallicFactor":0,
				"roughnessFactor":0.8500000238418579
			}
		},
		{
			"alphaMode":"BLEND",
			"doubleSided":true,
			"name":"beard",
			"pbrMetallicRoughness":{
				"baseColorTexture":{
					"index":9
				},
				"metallicFactor":0,
				"roughnessFactor":0.6000000238418579
			}
		},
		{
			"doubleSided":true,
			"name":"cloth_apron",
			"pbrMetallicRoughness":{
				"baseColorFactor":[
					0.07000000029802322,
					0.11999999731779099,
					0.10000000149011612,
					1
				],
				"metallicFactor":0,
				"roughnessFactor":0.8999999761581421
			}
		}
	],
	"meshes":[
		{
			"name":"shopkeeper",
			"primitives":[
				{
					"attributes":{
						"POSITION":0,
						"NORMAL":1,
						"TEXCOORD_0":2,
						"TEXCOORD_1":3,
						"JOINTS_0":4,
						"WEIGHTS_0":5
					},
					"indices":6,
					"material":0
				},
				{
					"attributes":{
						"POSITION":7,
						"NORMAL":8,
						"TEXCOORD_0":9,
						"TEXCOORD_1":10,
						"JOINTS_0":11,
						"WEIGHTS_0":12
					},
					"indices":13,
					"material":1
				},
				{
					"attributes":{
						"POSITION":14,
						"NORMAL":15,
						"TEXCOORD_0":16,
						"TEXCOORD_1":17,
						"JOINTS_0":18,
						"WEIGHTS_0":19
					},
					"indices":20,
					"material":2
				},
				{
					"attributes":{
						"POSITION":21,
						"NORMAL":22,
						"TEXCOORD_0":23,
						"TEXCOORD_1":24,
						"JOINTS_0":25,
						"WEIGHTS_0":26
					},
					"indices":27,
					"material":3
				},
				{
					"attributes":{
						"POSITION":28,
						"NORMAL":29,
						"TEXCOORD_0":30,
						"TEXCOORD_1":31,
						"JOINTS_0":32,
						"WEIGHTS_0":33
					},
					"indices":34,
					"material":4
				},
				{
					"attributes":{
						"POSITION":35,
						"NORMAL":36,
						"TEXCOORD_0":37,
						"TEXCOORD_1":38,
						"JOINTS_0":39,
						"WEIGHTS_0":40
					},
					"indices":41,
					"material":5
				},
				{
					"attributes":{
						"POSITION":42,
						"NORMAL":43,
						"TEXCOORD_0":44,
						"TEXCOORD_1":45,
						"JOINTS_0":46,
						"WEIGHTS_0":47
					},
					"indices":48,
					"material":6
				},
				{
					"attributes":{
						"POSITION":49,
						"NORMAL":50,
						"TEXCOORD_0":51,
						"TEXCOORD_1":52,
						"JOINTS_0":53,
						"WEIGHTS_0":54
					},
					"indices":55,
					"material":7
				},
				{
					"attributes":{
						"POSITION":56,
						"NORMAL":57,
						"TEXCOORD_0":58,
						"TEXCOORD_1":59,
						"JOINTS_0":60,
						"WEIGHTS_0":61
					},
					"indices":62,
					"material":8
				}
			]
		}
	],
	"textures":[
		{
			"sampler":0,
			"source":0
		},
		{
			"sampler":0,
			"source":1
		},
		{
			"sampler":0,
			"source":2
		},
		{
			"sampler":0,
			"source":3
		},
		{
			"sampler":0,
			"source":4
		},
		{
			"sampler":0,
			"source":5
		},
		{
			"sampler":0,
			"source":6
		},
		{
			"sampler":0,
			"source":7
		},
		{
			"sampler":0,
			"source":8
		},
		{
			"sampler":0,
			"source":9
		}
	],
	"images":[
		{
			"mimeType":"image/jpeg",
			"name":"skin_jartur69_middleage_slavic_male_albedo",
			"uri":"textures/skin_jartur69_middleage_slavic_male_albedo.jpg"
		},
		{
			"mimeType":"image/jpeg",
			"name":"eyes_brown_albedo",
			"uri":"textures/eyes_brown_albedo.jpg"
		},
		{
			"mimeType":"image/png",
			"name":"eyelashes01_albedo",
			"uri":"textures/eyelashes01_albedo.png"
		},
		{
			"mimeType":"image/png",
			"name":"eyebrow001_albedo",
			"uri":"textures/eyebrow001_albedo.png"
		},
		{
			"mimeType":"image/png",
			"name":"hair_short02_albedo",
			"uri":"textures/hair_short02_albedo.png"
		},
		{
			"mimeType":"image/jpeg",
			"name":"male_casualsuit03_normal",
			"uri":"textures/male_casualsuit03_normal.jpg"
		},
		{
			"mimeType":"image/jpeg",
			"name":"male_casualsuit03_albedo",
			"uri":"textures/male_casualsuit03_albedo.jpg"
		},
		{
			"mimeType":"image/jpeg",
			"name":"shoes04_normal",
			"uri":"textures/shoes04_normal.jpg"
		},
		{
			"mimeType":"image/jpeg",
			"name":"shoes04_albedo",
			"uri":"textures/shoes04_albedo.jpg"
		},
		{
			"mimeType":"image/png",
			"name":"rehmanpolanski_moustache_viking_albedo",
			"uri":"textures/rehmanpolanski_moustache_viking_albedo.png"
		}
	],
	"skins":[
		{
			"inverseBindMatrices":63,
			"joints":[
				52,
				51,
				42,
				41,
				40,
				18,
				17,
				16,
				15,
				2,
				1,
				0,
				5,
				4,
				3,
				8,
				7,
				6,
				11,
				10,
				9,
				14,
				13,
				12,
				37,
				36,
				35,
				34,
				21,
				20,
				19,
				24,
				23,
				22,
				27,
				26,
				25,
				30,
				29,
				28,
				33,
				32,
				31,
				39,
				38,
				46,
				45,
				44,
				43,
				50,
				49,
				48,
				47
			],
			"name":"Skeleton"
		}
	],
	"accessors":[
		{
			"bufferView":0,
			"componentType":5126,
			"count":8107,
			"max":[
				0.5447937846183777,
				1.7047476768493652,
				0.3550783395767212
			],
			"min":[
				-0.5447937846183777,
				0.9330463409423828,
				-0.04920754209160805
			],
			"type":"VEC3"
		},
		{
			"bufferView":1,
			"componentType":5126,
			"count":8107,
			"type":"VEC3"
		},
		{
			"bufferView":2,
			"componentType":5126,
			"count":8107,
			"type":"VEC2"
		},
		{
			"bufferView":3,
			"componentType":5126,
			"count":8107,
			"type":"VEC2"
		},
		{
			"bufferView":4,
			"componentType":5121,
			"count":8107,
			"type":"VEC4"
		},
		{
			"bufferView":5,
			"componentType":5126,
			"count":8107,
			"type":"VEC4"
		},
		{
			"bufferView":6,
			"componentType":5123,
			"count":44502,
			"type":"SCALAR"
		},
		{
			"bufferView":7,
			"componentType":5126,
			"count":96,
			"max":[
				0.04382516071200371,
				1.6099871397018433,
				0.14082475006580353
			],
			"min":[
				-0.04382516071200371,
				1.5822598934173584,
				0.11707735061645508
			],
			"type":"VEC3"
		},
		{
			"bufferView":8,
			"componentType":5126,
			"count":96,
			"type":"VEC3"
		},
		{
			"bufferView":9,
			"componentType":5126,
			"count":96,
			"type":"VEC2"
		},
		{
			"bufferView":10,
			"componentType":5126,
			"count":96,
			"type":"VEC2"
		},
		{
			"bufferView":11,
			"componentType":5121,
			"count":96,
			"type":"VEC4"
		},
		{
			"bufferView":12,
			"componentType":5126,
			"count":96,
			"type":"VEC4"
		},
		{
			"bufferView":13,
			"componentType":5123,
			"count":516,
			"type":"SCALAR"
		},
		{
			"bufferView":14,
			"componentType":5126,
			"count":250,
			"max":[
				0.04808346927165985,
				1.5994564294815063,
				0.14550544321537018
			],
			"min":[
				-0.04808346927165985,
				1.5859812498092651,
				0.13168473541736603
			],
			"type":"VEC3"
		},
		{
			"bufferView":15,
			"componentType":5126,
			"count":250,
			"type":"VEC3"
		},
		{
			"bufferView":16,
			"componentType":5126,
			"count":250,
			"type":"VEC2"
		},
		{
			"bufferView":17,
			"componentType":5126,
			"count":250,
			"type":"VEC2"
		},
		{
			"bufferView":18,
			"componentType":5121,
			"count":250,
			"type":"VEC4"
		},
		{
			"bufferView":19,
			"componentType":5126,
			"count":250,
			"type":"VEC4"
		},
		{
			"bufferView":20,
			"componentType":5123,
			"count":1104,
			"type":"SCALAR"
		},
		{
			"bufferView":21,
			"componentType":5126,
			"count":124,
			"max":[
				0.05898457393050194,
				1.6081287860870361,
				0.1506480574607849
			],
			"min":[
				-0.058984577655792236,
				1.5989811420440674,
				0.11792993545532227
			],
			"type":"VEC3"
		},
		{
			"bufferView":22,
			"componentType":5126,
			"count":124,
			"type":"VEC3"
		},
		{
			"bufferView":23,
			"componentType":5126,
			"count":124,
			"type":"VEC2"
		},
		{
			"bufferView":24,
			"componentType":5126,
			"count":124,
			"type":"VEC2"
		},
		{
			"bufferView":25,
			"componentType":5121,
			"count":124,
			"type":"VEC4"
		},
		{
			"bufferView":26,
			"componentType":5126,
			"count":124,
			"type":"VEC4"
		},
		{
			"bufferView":27,
			"componentType":5123,
			"count":576,
			"type":"SCALAR"
		},
		{
			"bufferView":28,
			"componentType":5126,
			"count":1794,
			"max":[
				0.0836491510272026,
				1.720611572265625,
				0.16513767838478088
			],
			"min":[
				-0.08966179192066193,
				1.5198702812194824,
				-0.051748257130384445
			],
			"type":"VEC3"
		},
		{
			"bufferView":29,
			"componentType":5126,
			"count":1794,
			"type":"VEC3"
		},
		{
			"bufferView":30,
			"componentType":5126,
			"count":1794,
			"type":"VEC2"
		},
		{
			"bufferView":31,
			"componentType":5126,
			"count":1794,
			"type":"VEC2"
		},
		{
			"bufferView":32,
			"componentType":5121,
			"count":1794,
			"type":"VEC4"
		},
		{
			"bufferView":33,
			"componentType":5126,
			"count":1794,
			"type":"VEC4"
		},
		{
			"bufferView":34,
			"componentType":5123,
			"count":10032,
			"type":"SCALAR"
		},
		{
			"bufferView":35,
			"componentType":5126,
			"count":2773,
			"max":[
				0.5073062777519226,
				1.495210886001587,
				0.24840666353702545
			],
			"min":[
				-0.4957207441329956,
				0.06431324034929276,
				-0.1322808861732483
			],
			"type":"VEC3"
		},
		{
			"bufferView":36,
			"componentType":5126,
			"count":2773,
			"type":"VEC3"
		},
		{
			"bufferView":37,
			"componentType":5126,
			"count":2773,
			"type":"VEC2"
		},
		{
			"bufferView":38,
			"componentType":5126,
			"count":2773,
			"type":"VEC2"
		},
		{
			"bufferView":39,
			"componentType":5121,
			"count":2773,
			"type":"VEC4"
		},
		{
			"bufferView":40,
			"componentType":5126,
			"count":2773,
			"type":"VEC4"
		},
		{
			"bufferView":41,
			"componentType":5123,
			"count":14400,
			"type":"SCALAR"
		},
		{
			"bufferView":42,
			"componentType":5126,
			"count":1846,
			"max":[
				0.2451593577861786,
				0.21068833768367767,
				0.2092861384153366
			],
			"min":[
				-0.2451593577861786,
				-0.0025276802480220795,
				-0.06008581072092056
			],
			"type":"VEC3"
		},
		{
			"bufferView":43,
			"componentType":5126,
			"count":1846,
			"type":"VEC3"
		},
		{
			"bufferView":44,
			"componentType":5126,
			"count":1846,
			"type":"VEC2"
		},
		{
			"bufferView":45,
			"componentType":5126,
			"count":1846,
			"type":"VEC2"
		},
		{
			"bufferView":46,
			"componentType":5121,
			"count":1846,
			"type":"VEC4"
		},
		{
			"bufferView":47,
			"componentType":5126,
			"count":1846,
			"type":"VEC4"
		},
		{
			"bufferView":48,
			"componentType":5123,
			"count":9960,
			"type":"SCALAR"
		},
		{
			"bufferView":49,
			"componentType":5126,
			"count":1598,
			"max":[
				0.03363390266895294,
				1.5472426414489746,
				0.1616557091474533
			],
			"min":[
				-0.03107580915093422,
				1.5144532918930054,
				0.133527010679245
			],
			"type":"VEC3"
		},
		{
			"bufferView":50,
			"componentType":5126,
			"count":1598,
			"type":"VEC3"
		},
		{
			"bufferView":51,
			"componentType":5126,
			"count":1598,
			"type":"VEC2"
		},
		{
			"bufferView":52,
			"componentType":5126,
			"count":1598,
			"type":"VEC2"
		},
		{
			"bufferView":53,
			"componentType":5121,
			"count":1598,
			"type":"VEC4"
		},
		{
			"bufferView":54,
			"componentType":5126,
			"count":1598,
			"type":"VEC4"
		},
		{
			"bufferView":55,
			"componentType":5123,
			"count":4092,
			"type":"SCALAR"
		},
		{
			"bufferView":56,
			"componentType":5126,
			"count":630,
			"max":[
				0.20999999344348907,
				1.5131793022155762,
				0.18954983353614807
			],
			"min":[
				-0.20999999344348907,
				0.5372990965843201,
				-0.06809931993484497
			],
			"type":"VEC3"
		},
		{
			"bufferView":57,
			"componentType":5126,
			"count":630,
			"type":"VEC3"
		},
		{
			"bufferView":58,
			"componentType":5126,
			"count":630,
			"type":"VEC2"
		},
		{
			"bufferView":59,
			"componentType":5126,
			"count":630,
			"type":"VEC2"
		},
		{
			"bufferView":60,
			"componentType":5121,
			"count":630,
			"type":"VEC4"
		},
		{
			"bufferView":61,
			"componentType":5126,
			"count":630,
			"type":"VEC4"
		},
		{
			"bufferView":62,
			"componentType":5123,
			"count":3744,
			"type":"SCALAR"
		},
		{
			"bufferView":63,
			"componentType":5126,
			"count":53,
			"type":"MAT4"
		}
	],
	"bufferViews":[
		{
			"buffer":0,
			"byteLength":97284,
			"byteOffset":0,
			"target":34962
		},
		{
			"buffer":0,
			"byteLength":97284,
			"byteOffset":97284,
			"target":34962
		},
		{
			"buffer":0,
			"byteLength":64856,
			"byteOffset":194568,
			"target":34962
		},
		{
			"buffer":0,
			"byteLength":64856,
			"byteOffset":259424,
			"target":34962
		},
		{
			"buffer":0,
			"byteLength":32428,
			"byteOffset":324280,
			"target":34962
		},
		{
			"buffer":0,
			"byteLength":129712,
			"byteOffset":356708,
			"target":34962
		},
		{
			"buffer":0,
			"byteLength":89004,
			"byteOffset":486420,
			"target":34963
		},
		{
			"buffer":0,
			"byteLength":1152,
			"byteOffset":575424,
			"target":34962
		},
		{
			"buffer":0,
			"byteLength":1152,
			"byteOffset":576576,
			"target":34962
		},
		{
			"buffer":0,
			"byteLength":768,
			"byteOffset":577728,
			"target":34962
		},
		{
			"buffer":0,
			"byteLength":768,
			"byteOffset":578496,
			"target":34962
		},
		{
			"buffer":0,
			"byteLength":384,
			"byteOffset":579264,
			"target":34962
		},
		{
			"buffer":0,
			"byteLength":1536,
			"byteOffset":579648,
			"target":34962
		},
		{
			"buffer":0,
			"byteLength":1032,
			"byteOffset":581184,
			"target":34963
		},
		{
			"buffer":0,
			"byteLength":3000,
			"byteOffset":582216,
			"target":34962
		},
		{
			"buffer":0,
			"byteLength":3000,
			"byteOffset":585216,
			"target":34962
		},
		{
			"buffer":0,
			"byteLength":2000,
			"byteOffset":588216,
			"target":34962
		},
		{
			"buffer":0,
			"byteLength":2000,
			"byteOffset":590216,
			"target":34962
		},
		{
			"buffer":0,
			"byteLength":1000,
			"byteOffset":592216,
			"target":34962
		},
		{
			"buffer":0,
			"byteLength":4000,
			"byteOffset":593216,
			"target":34962
		},
		{
			"buffer":0,
			"byteLength":2208,
			"byteOffset":597216,
			"target":34963
		},
		{
			"buffer":0,
			"byteLength":1488,
			"byteOffset":599424,
			"target":34962
		},
		{
			"buffer":0,
			"byteLength":1488,
			"byteOffset":600912,
			"target":34962
		},
		{
			"buffer":0,
			"byteLength":992,
			"byteOffset":602400,
			"target":34962
		},
		{
			"buffer":0,
			"byteLength":992,
			"byteOffset":603392,
			"target":34962
		},
		{
			"buffer":0,
			"byteLength":496,
			"byteOffset":604384,
			"target":34962
		},
		{
			"buffer":0,
			"byteLength":1984,
			"byteOffset":604880,
			"target":34962
		},
		{
			"buffer":0,
			"byteLength":1152,
			"byteOffset":606864,
			"target":34963
		},
		{
			"buffer":0,
			"byteLength":21528,
			"byteOffset":608016,
			"target":34962
		},
		{
			"buffer":0,
			"byteLength":21528,
			"byteOffset":629544,
			"target":34962
		},
		{
			"buffer":0,
			"byteLength":14352,
			"byteOffset":651072,
			"target":34962
		},
		{
			"buffer":0,
			"byteLength":14352,
			"byteOffset":665424,
			"target":34962
		},
		{
			"buffer":0,
			"byteLength":7176,
			"byteOffset":679776,
			"target":34962
		},
		{
			"buffer":0,
			"byteLength":28704,
			"byteOffset":686952,
			"target":34962
		},
		{
			"buffer":0,
			"byteLength":20064,
			"byteOffset":715656,
			"target":34963
		},
		{
			"buffer":0,
			"byteLength":33276,
			"byteOffset":735720,
			"target":34962
		},
		{
			"buffer":0,
			"byteLength":33276,
			"byteOffset":768996,
			"target":34962
		},
		{
			"buffer":0,
			"byteLength":22184,
			"byteOffset":802272,
			"target":34962
		},
		{
			"buffer":0,
			"byteLength":22184,
			"byteOffset":824456,
			"target":34962
		},
		{
			"buffer":0,
			"byteLength":11092,
			"byteOffset":846640,
			"target":34962
		},
		{
			"buffer":0,
			"byteLength":44368,
			"byteOffset":857732,
			"target":34962
		},
		{
			"buffer":0,
			"byteLength":28800,
			"byteOffset":902100,
			"target":34963
		},
		{
			"buffer":0,
			"byteLength":22152,
			"byteOffset":930900,
			"target":34962
		},
		{
			"buffer":0,
			"byteLength":22152,
			"byteOffset":953052,
			"target":34962
		},
		{
			"buffer":0,
			"byteLength":14768,
			"byteOffset":975204,
			"target":34962
		},
		{
			"buffer":0,
			"byteLength":14768,
			"byteOffset":989972,
			"target":34962
		},
		{
			"buffer":0,
			"byteLength":7384,
			"byteOffset":1004740,
			"target":34962
		},
		{
			"buffer":0,
			"byteLength":29536,
			"byteOffset":1012124,
			"target":34962
		},
		{
			"buffer":0,
			"byteLength":19920,
			"byteOffset":1041660,
			"target":34963
		},
		{
			"buffer":0,
			"byteLength":19176,
			"byteOffset":1061580,
			"target":34962
		},
		{
			"buffer":0,
			"byteLength":19176,
			"byteOffset":1080756,
			"target":34962
		},
		{
			"buffer":0,
			"byteLength":12784,
			"byteOffset":1099932,
			"target":34962
		},
		{
			"buffer":0,
			"byteLength":12784,
			"byteOffset":1112716,
			"target":34962
		},
		{
			"buffer":0,
			"byteLength":6392,
			"byteOffset":1125500,
			"target":34962
		},
		{
			"buffer":0,
			"byteLength":25568,
			"byteOffset":1131892,
			"target":34962
		},
		{
			"buffer":0,
			"byteLength":8184,
			"byteOffset":1157460,
			"target":34963
		},
		{
			"buffer":0,
			"byteLength":7560,
			"byteOffset":1165644,
			"target":34962
		},
		{
			"buffer":0,
			"byteLength":7560,
			"byteOffset":1173204,
			"target":34962
		},
		{
			"buffer":0,
			"byteLength":5040,
			"byteOffset":1180764,
			"target":34962
		},
		{
			"buffer":0,
			"byteLength":5040,
			"byteOffset":1185804,
			"target":34962
		},
		{
			"buffer":0,
			"byteLength":2520,
			"byteOffset":1190844,
			"target":34962
		},
		{
			"buffer":0,
			"byteLength":10080,
			"byteOffset":1193364,
			"target":34962
		},
		{
			"buffer":0,
			"byteLength":7488,
			"byteOffset":1203444,
			"target":34963
		},
		{
			"buffer":0,
			"byteLength":3392,
			"byteOffset":1210932
		}
	],
	"samplers":[
		{
			"magFilter":9729,
			"minFilter":9987
		}
	],
	"buffers":[
		{
			"byteLength":1214324,
			"uri":"shopkeeper.bin"
		}
	]
}
