{
	"asset":{
		"generator":"Khronos glTF Blender I/O v4.4.56",
		"version":"2.0"
	},
	"scene":0,
	"scenes":[
		{
			"name":"Scene",
			"nodes":[
				54
			]
		}
	],
	"nodes":[
		{
			"name":"index_03_l",
			"rotation":[
				0.0650612860918045,
				-0.001643286319449544,
				0.020855514332652092,
				0.9976620078086853
			],
			"scale":[
				1,
				1.0000001192092896,
				1.0000001192092896
			],
			"translation":[
				1.4901161193847656e-08,
				0.021014712750911713,
				0
			]
		},
		{
			"children":[
				0
			],
			"name":"index_02_l",
			"rotation":[
				0.11204680055379868,
				0.007219761610031128,
				0.00508118374273181,
				0.9936637282371521
			],
			"scale":[
				0.9999999403953552,
				1.0000001192092896,
				1
			],
			"translation":[
				-1.4901161193847656e-08,
				0.023585069924592972,
				7.450580596923828e-09
			]
		},
		{
			"children":[
				1
			],
			"name":"index_01_l",
			"rotation":[
				0.1100011095404625,
				0.4912256598472595,
				-0.0057233660481870174,
				0.8640395998954773
			],
			"scale":[
				1,
				1.0000001192092896,
				1
			],
			"translation":[
				-0.011590316891670227,
				0.09629584848880768,
				0.008819105103611946
			]
		},
		{
			"name":"middle_03_l",
			"rotation":[
				0.07063441723585129,
				0.0019588996656239033,
				-0.008643663488328457,
				0.9974629282951355
			],
			"scale":[
				1,
				0.9999998807907104,
				1
			],
			"translation":[
				-1.4901161193847656e-08,
				0.025439705699682236,
				5.960464477539063e-08
			]
		},
		{
			"children":[
				3
			],
			"name":"middle_02_l",
			"rotation":[
				0.04827733337879181,
				-0.000751118641346693,
				0.03952648863196373,
				0.9980513453483582
			],
			"scale":[
				1,
				0.9999999403953552,
				0.9999999403953552
			],
			"translation":[
				0,
				0.031020790338516235,
				0
			]
		},
		{
			"children":[
				4
			],
			"name":"middle_01_l",
			"rotation":[
				0.0944688469171524,
				0.4259502589702606,
				-0.15551987290382385,
				0.8862593770027161
			],
			"scale":[
				0.9999999403953552,
				1,
				1
			],
			"translation":[
				0.0021119490265846252,
				0.09259352087974548,
				-0.010874178260564804
			]
		},
		{
			"name":"pinky_03_l",
			"rotation":[
				-0.0015717907808721066,
				-0.010223018936812878,
				-0.012565628625452518,
				0.9998675584793091
			],
			"translation":[
				2.9802322387695312e-08,
				0.01436636596918106,
				4.470348358154297e-08
			]
		},
		{
			"children":[
				6
			],
			"name":"pinky_02_l",
			"rotation":[
				0.08252567797899246,
				0.0012639511842280626,
				0.02908390760421753,
				0.9961636662483215
			],
			"scale":[
				0.9999999403953552,
				1.0000001192092896,
				1.0000001192092896
			],
			"translation":[
				7.450580596923828e-09,
				0.01947726309299469,
				2.2351741790771484e-08
			]
		},
		{
			"children":[
				7
			],
			"name":"pinky_01_l",
			"rotation":[
				0.037596091628074646,
				0.31052184104919434,
				-0.30666306614875793,
				0.898955225944519
			],
			"scale":[
				1,
				1.0000001192092896,
				1
			],
			"translation":[
				0.028996296226978302,
				0.07604336738586426,
				-0.030649451538920403
			]
		},
		{
			"name":"ring_03_l",
			"rotation":[
				0.06117284297943115,
				0.0018282367382198572,
				-0.027293341234326363,
				0.99775230884552
			],
			"scale":[
				1,
				1.0000001192092896,
				0.9999999403953552
			],
			"translation":[
				4.470348358154297e-08,
				0.02259516716003418,
				3.725290298461914e-08
			]
		},
		{
			"children":[
				9
			],
			"name":"ring_02_l",
			"rotation":[
				0.06833204627037048,
				-0.011622114107012749,
				0.04658365249633789,
				0.9965067505836487
			],
			"scale":[
				0.9999999403953552,
				1,
				0.9999998807907104
			],
			"translation":[
				-2.9802322387695312e-08,
				0.02736346423625946,
				6.705522537231445e-08
			]
		},
		{
			"children":[
				10
			],
			"name":"ring_01_l",
			"rotation":[
				0.04296485707163811,
				0.41044092178344727,
				-0.23148547112941742,
				0.880969226360321
			],
			"scale":[
				0.9999999403953552,
				1,
				0.9999999403953552
			],
			"translation":[
				0.014255180954933167,
				0.0858573466539383,
				-0.022709758952260017
			]
		},
		{
			"name":"thumb_03_l",
			"rotation":[
				0.1423073709011078,
				-0.02438722364604473,
				-0.028708824887871742,
				0.9891055226325989
			],
			"scale":[
				0.9999999403953552,
				1.0000001192092896,
				1
			],
			"translation":[
				-2.2351741790771484e-08,
				0.032964274287223816,
				-8.195638656616211e-08
			]
		},
		{
			"children":[
				12
			],
			"name":"thumb_02_l",
			"rotation":[
				0.08187627047300339,
				-0.009553926065564156,
				-0.17926818132400513,
				0.9803407192230225
			],
			"scale":[
				0.9999997615814209,
				1,
				0.9999998807907104
			],
			"translation":[
				-5.960464477539063e-08,
				0.02825048565864563,
				5.587935447692871e-08
			]
		},
		{
			"children":[
				13
			],
			"name":"thumb_01_l",
			"rotation":[
				0.27325236797332764,
				0.7494603395462036,
				0.4411008059978485,
				0.4111841917037964
			],
			"scale":[
				1,
				1,
				0.9999999403953552
			],
			"translation":[
				-0.012488879263401031,
				0.035871535539627075,
				0.014128318056464195
			]
		},
		{
			"children":[
				2,
				5,
				8,
				11,
				14
			],
			"name":"hand_l",
			"rotation":[
				0.11997432261705399,
				0.41878947615623474,
				-0.01354833971709013,
				0.9000211358070374
			],
			"scale":[
				0.9999999403953552,
				0.9999999403953552,
				0.9999999403953552
			],
			"translation":[
				1.4901161193847656e-08,
				0.21473699808120728,
				7.450580596923828e-08
			]
		},
		{
			"children":[
				15
			],
			"name":"lowerarm_l",
			"rotation":[
				0.33281517028808594,
				-0.028973249718546867,
				-0.01746365986764431,
				0.9423850774765015
			],
			"scale":[
				0.9999999403953552,
				1.0000001192092896,
				1
			],
			"translation":[
				-5.372567102313042e-08,
				0.2327016294002533,
				2.444721758365631e-09
			]
		},
		{
			"children":[
				16
			],
			"name":"upperarm_l",
			"rotation":[
				0.005094301886856556,
				-0.005216134712100029,
				-0.3488590121269226,
				0.9371468424797058
			],
			"translation":[
				5.7101715356111526e-08,
				0.13343961536884308,
				5.675246939063072e-09
			]
		},
		{
			"children":[
				17
			],
			"name":"clavicle_l",
			"rotation":[
				-0.013754473067820072,
				-0.013433797284960747,
				-0.7441829442977905,
				0.6676991581916809
			],
			"scale":[
				1,
				1,
				1.0000001192092896
			],
			"translation":[
				0.02313084341585636,
				0.224873885512352,
				0.012837736867368221
			]
		},
		{
			"name":"index_03_r",
			"rotation":[
				0.0650612860918045,
				0.001643286319449544,
				-0.020855514332652092,
				0.9976620078086853
			],
			"scale":[
				1,
				1.0000001192092896,
				1.0000001192092896
			],
			"translation":[
				-1.4901161193847656e-08,
				0.021014712750911713,
				0
			]
		},
		{
			"children":[
				19
			],
			"name":"index_02_r",
			"rotation":[
				0.11204680055379868,
				-0.007219761610031128,
				-0.00508118374273181,
				0.9936637282371521
			],
			"scale":[
				0.9999999403953552,
				1.0000001192092896,
				1
			],
			"translation":[
				1.4901161193847656e-08,
				0.023585069924592972,
				7.450580596923828e-09
			]
		},
		{
			"children":[
				20
			],
			"name":"index_01_r",
			"rotation":[
				0.1100011095404625,
				-0.4912256598472595,
				0.0057233660481870174,
				0.8640395998954773
			],
			"scale":[
				1,
				1.0000001192092896,
				1
			],
			"translation":[
				0.011590316891670227,
				0.09629584848880768,
				0.008819105103611946
			]
		},
		{
			"name":"middle_03_r",
			"rotation":[
				0.07063441723585129,
				-0.0019588996656239033,
				0.008643663488328457,
				0.9974629282951355
			],
			"scale":[
				1,
				0.9999998807907104,
				1
			],
			"translation":[
				1.4901161193847656e-08,
				0.025439705699682236,
				5.960464477539063e-08
			]
		},
		{
			"children":[
				22
			],
			"name":"middle_02_r",
			"rotation":[
				0.04827733337879181,
				0.000751118641346693,
				-0.03952648863196373,
				0.9980513453483582
			],
			"scale":[
				1,
				0.9999999403953552,
				0.9999999403953552
			],
			"translation":[
				0,
				0.031020790338516235,
				0
			]
		},
		{
			"children":[
				23
			],
			"name":"middle_01_r",
			"rotation":[
				0.0944688469171524,
				-0.4259502589702606,
				0.15551987290382385,
				0.8862593770027161
			],
			"scale":[
				0.9999999403953552,
				1,
				1
			],
			"translation":[
				-0.0021119490265846252,
				0.09259352087974548,
				-0.010874178260564804
			]
		},
		{
			"name":"pinky_03_r",
			"rotation":[
				-0.0015717907808721066,
				0.010223018936812878,
				0.012565628625452518,
				0.9998675584793091
			],
			"translation":[
				-2.9802322387695312e-08,
				0.01436636596918106,
				4.470348358154297e-08
			]
		},
		{
			"children":[
				25
			],
			"name":"pinky_02_r",
			"rotation":[
				0.08252567797899246,
				-0.0012639511842280626,
				-0.02908390760421753,
				0.9961636662483215
			],
			"scale":[
				0.9999999403953552,
				1.0000001192092896,
				1.0000001192092896
			],
			"translation":[
				-7.450580596923828e-09,
				0.01947726309299469,
				2.2351741790771484e-08
			]
		},
		{
			"children":[
				26
			],
			"name":"pinky_01_r",
			"rotation":[
				0.037596091628074646,
				-0.31052184104919434,
				0.30666306614875793,
				0.898955225944519
			],
			"scale":[
				1,
				1.0000001192092896,
				1
			],
			"translation":[
				-0.028996296226978302,
				0.07604336738586426,
				-0.030649451538920403
			]
		},
		{
			"name":"ring_03_r",
			"rotation":[
				0.06117284297943115,
				-0.0018282367382198572,
				0.027293341234326363,
				0.99775230884552
			],
			"scale":[
				1,
				1.0000001192092896,
				0.9999999403953552
			],
			"translation":[
				-4.470348358154297e-08,
				0.02259516716003418,
				3.725290298461914e-08
			]
		},
		{
			"children":[
				28
			],
			"name":"ring_02_r",
			"rotation":[
				0.06833204627037048,
				0.011622114107012749,
				-0.04658365249633789,
				0.9965067505836487
			],
			"scale":[
				0.9999999403953552,
				1,
				0.9999998807907104
			],
			"translation":[
				2.9802322387695312e-08,
				0.02736346423625946,
				6.705522537231445e-08
			]
		},
		{
			"children":[
				29
			],
			"name":"ring_01_r",
			"rotation":[
				0.04296485707163811,
				-0.41044092178344727,
				0.23148547112941742,
				0.880969226360321
			],
			"scale":[
				0.9999999403953552,
				1,
				0.9999999403953552
			],
			"translation":[
				-0.014255180954933167,
				0.0858573466539383,
				-0.022709758952260017
			]
		},
		{
			"name":"thumb_03_r",
			"rotation":[
				0.1423073709011078,
				0.02438722364604473,
				0.028708824887871742,
				0.9891055226325989
			],
			"scale":[
				0.9999999403953552,
				1.0000001192092896,
				1
			],
			"translation":[
				2.2351741790771484e-08,
				0.032964274287223816,
				-8.195638656616211e-08
			]
		},
		{
			"children":[
				31
			],
			"name":"thumb_02_r",
			"rotation":[
				0.08187627047300339,
				0.009553926065564156,
				0.17926818132400513,
				0.9803407192230225
			],
			"scale":[
				0.9999997615814209,
				1,
				0.9999998807907104
			],
			"translation":[
				5.960464477539063e-08,
				0.02825048565864563,
				5.587935447692871e-08
			]
		},
		{
			"children":[
				32
			],
			"name":"thumb_01_r",
			"rotation":[
				0.27325236797332764,
				-0.7494603395462036,
				-0.4411008059978485,
				0.4111841917037964
			],
			"scale":[
				1,
				1,
				0.9999999403953552
			],
			"translation":[
				0.012488879263401031,
				0.035871535539627075,
				0.014128318056464195
			]
		},
		{
			"children":[
				21,
				24,
				27,
				30,
				33
			],
			"name":"hand_r",
			"rotation":[
				0.11997432261705399,
				-0.41878947615623474,
				0.01354833971709013,
				0.9000211358070374
			],
			"scale":[
				0.9999999403953552,
				0.9999999403953552,
				0.9999999403953552
			],
			"translation":[
				-1.4901161193847656e-08,
				0.21473699808120728,
				7.450580596923828e-08
			]
		},
		{
			"children":[
				34
			],
			"name":"lowerarm_r",
			"rotation":[
				0.33281517028808594,
				0.028973249718546867,
				0.01746365986764431,
				0.9423850774765015
			],
			"scale":[
				0.9999999403953552,
				1.0000001192092896,
				1
			],
			"translation":[
				5.372567102313042e-08,
				0.2327016294002533,
				2.444721758365631e-09
			]
		},
		{
			"children":[
				35
			],
			"name":"upperarm_r",
			"rotation":[
				0.005094301886856556,
				0.005216134712100029,
				0.3488590121269226,
				0.9371468424797058
			],
			"translation":[
				-5.7101715356111526e-08,
				0.13343961536884308,
				5.675246939063072e-09
			]
		},
		{
			"children":[
				36
			],
			"name":"clavicle_r",
			"rotation":[
				-0.013754473067820072,
				0.013433797284960747,
				0.7441829442977905,
				0.6676991581916809
			],
			"scale":[
				1,
				1,
				1.0000001192092896
			],
			"translation":[
				-0.02313084341585636,
				0.224873885512352,
				0.012837736867368221
			]
		},
		{
			"name":"head",
			"rotation":[
				-0.20046764612197876,
				0,
				0,
				0.9797003269195557
			],
			"translation":[
				0,
				0.11373760551214218,
				1.1175870895385742e-08
			]
		},
		{
			"children":[
				38
			],
			"name":"neck_01",
			"rotation":[
				0.16952358186244965,
				0,
				0,
				0.9855261445045471
			],
			"scale":[
				1,
				1,
				1.0000001192092896
			],
			"translation":[
				0,
				0.2944207191467285,
				-0.008924043737351894
			]
		},
		{
			"children":[
				18,
				37,
				39
			],
			"name":"spine_03",
			"rotation":[
				-0.058497484773397446,
				0,
				0,
				0.9982874989509583
			],
			"translation":[
				0,
				0.09151419997215271,
				-4.6566128730773926e-09
			]
		},
		{
			"children":[
				40
			],
			"name":"spine_02",
			"rotation":[
				-0.09539469331502914,
				0,
				0,
				0.9954395294189453
			],
			"translation":[
				0,
				0.06636061519384384,
				1.0855728760361671e-08
			]
		},
		{
			"children":[
				41
			],
			"name":"spine_01",
			"rotation":[
				0.4284095764160156,
				0,
				0,
				0.9035846590995789
			],
			"translation":[
				0,
				0.08527098596096039,
				-1.862645149230957e-09
			]
		},
		{
			"name":"ball_l",
			"rotation":[
				-0.25307899713516235,
				0.40360283851623535,
				-0.06799156963825226,
				0.8766030669212341
			],
			"scale":[
				0.9999999403953552,
				0.9999999403953552,
				0.9999999403953552
			],
			"translation":[
				2.561137080192566e-09,
				0.12411995977163315,
				4.190951585769653e-09
			]
		},
		{
			"children":[
				43
			],
			"name":"foot_l",
			"rotation":[
				-0.5310530066490173,
				-0.018490435555577278,
				0.018120279535651207,
				0.8469430208206177
			],
			"scale":[
				0.9999999403953552,
				1,
				1
			],
			"translation":[
				-1.5279510989785194e-10,
				0.385002464056015,
				2.1100277081131935e-09
			]
		},
		{
			"children":[
				44
			],
			"name":"calf_l",
			"rotation":[
				0.06503414362668991,
				0.23381070792675018,
				-0.011731479316949844,
				0.9700337648391724
			],
			"scale":[
				0.9999999403953552,
				0.9999997615814209,
				0.9999998211860657
			],
			"translation":[
				-9.313225746154785e-09,
				0.3759312331676483,
				7.450580596923828e-09
			]
		},
		{
			"children":[
				45
			],
			"name":"thigh_l",
			"rotation":[
				-0.9470773935317993,
				-0.10308457911014557,
				0.20944541692733765,
				0.22034190595149994
			],
			"scale":[
				1,
				1.0000001192092896,
				1.0000005960464478
			],
			"translation":[
				0.09511134028434753,
				-0.006908993236720562,
				-0.012278557755053043
			]
		},
		{
			"name":"ball_r",
			"rotation":[
				-0.25307899713516235,
				-0.40360283851623535,
				0.06799156963825226,
				0.8766030669212341
			],
			"scale":[
				0.9999999403953552,
				0.9999999403953552,
				0.9999999403953552
			],
			"translation":[
				-2.561137080192566e-09,
				0.12411995977163315,
				4.190951585769653e-09
			]
		},
		{
			"children":[
				47
			],
			"name":"foot_r",
			"rotation":[
				-0.5310530066490173,
				0.018490435555577278,
				-0.018120279535651207,
				0.8469430208206177
			],
			"scale":[
				0.9999999403953552,
				1,
				1
			],
			"translation":[
				1.5279510989785194e-10,
				0.385002464056015,
				2.1100277081131935e-09
			]
		},
		{
			"children":[
				48
			],
			"name":"calf_r",
			"rotation":[
				0.06503414362668991,
				-0.23381070792675018,
				0.011731479316949844,
				0.9700337648391724
			],
			"scale":[
				0.9999999403953552,
				0.9999997615814209,
				0.9999998211860657
			],
			"translation":[
				9.313225746154785e-09,
				0.3759312331676483,
				7.450580596923828e-09
			]
		},
		{
			"children":[
				49
			],
			"name":"thigh_r",
			"rotation":[
				-0.9470773935317993,
				0.10308457911014557,
				-0.20944541692733765,
				0.22034190595149994
			],
			"scale":[
				1,
				1.0000001192092896,
				1.0000005960464478
			],
			"translation":[
				-0.09511134028434753,
				-0.006908993236720562,
				-0.012278557755053043
			]
		},
		{
			"children":[
				42,
				46,
				50
			],
			"name":"pelvis",
			"rotation":[
				0.48422694206237793,
				0,
				0,
				0.874942421913147
			],
			"translation":[
				0,
				-0.025841977447271347,
				0.837595522403717
			]
		},
		{
			"children":[
				51
			],
			"name":"Root",
			"rotation":[
				-0.7076206803321838,
				0,
				0,
				0.7065926194190979
			],
			"scale":[
				1,
				0.9999999403953552,
				0.9999999403953552
			],
			"translation":[
				0,
				0.000636756420135498,
				6.100162863731384e-08
			]
		},
		{
			"mesh":0,
			"name":"vet.001",
			"skin":0
		},
		{
			"children":[
				53,
				52
			],
			"name":"Skeleton"
		}
	],
	"materials":[
		{
			"doubleSided":true,
			"name":"skin",
			"pbrMetallicRoughness":{
				"baseColorTexture":{
					"index":0
				},
				"metallicFactor":0,
				"roughnessFactor":0.550000011920929
			}
		},
		{
			"doubleSided":true,
			"name":"eyes",
			"pbrMetallicRoughness":{
				"baseColorTexture":{
					"index":1
				},
				"metallicFactor":0,
				"roughnessFactor":0.10000000149011612
			}
		},
		{
			"alphaMode":"BLEND",
			"doubleSided":true,
			"name":"lashes",
			"pbrMetallicRoughness":{
				"baseColorTexture":{
					"index":2
				},
				"metallicFactor":0,
				"roughnessFactor":0.8500000238418579
			}
		},
		{
			"alphaMode":"BLEND",
			"doubleSided":true,
			"name":"brows",
			"pbrMetallicRoughness":{
				"baseColorTexture":{
					"index":3
				},
				"metallicFactor":0,
				"roughnessFactor":0.8500000238418579
			}
		},
		{
			"alphaMode":"BLEND",
			"doubleSided":true,
			"name":"hair",
			"pbrMetallicRoughness":{
				"baseColorTexture":{
					"index":4
				},
				"metallicFactor":0,
				"roughnessFactor":0.6000000238418579
			}
		},
		{
			"doubleSided":true,
			"name":"cloth_female_casualsuit01",
			"normalTexture":{
				"index":5
			},
			"pbrMetallicRoughness":{
				"baseColorTexture":{
					"index":6
				},
				"metallicFactor":0,
				"roughnessFactor":0.8500000238418579
			}
		},
		{
			"doubleSided":true,
			"name":"cloth_toigo_basic_tucked_t-shirt",
			"pbrMetallicRoughness":{
				"baseColorTexture":{
					"index":7
				},
				"metallicFactor":0,
				"roughnessFactor":0.8500000238418579
			}
		},
		{
			"doubleSided":true,
			"name":"cloth_crudelabcoatopen",
			"pbrMetallicRoughness":{
				"baseColorTexture":{
					"index":8
				},
				"metallicFactor":0,
				"roughnessFactor":0.8500000238418579
			}
		},
		{
			"doubleSided":true,
			"name":"cloth_toigo_ankle_boots_female",
			"normalTexture":{
				"index":9
			},
			"pbrMetallicRoughness":{
				"baseColorTexture":{
					"index":10
				},
				"metallicFactor":0,
				"roughnessFactor":0.8500000238418579
			}
		}
	],
	"meshes":[
		{
			"name":"vet",
			"primitives":[
				{
					"attributes":{
						"POSITION":0,
						"NORMAL":1,
						"TEXCOORD_0":2,
						"JOINTS_0":3,
						"WEIGHTS_0":4
					},
					"indices":5,
					"material":0
				},
				{
					"attributes":{
						"POSITION":6,
						"NORMAL":7,
						"TEXCOORD_0":8,
						"JOINTS_0":9,
						"WEIGHTS_0":10
					},
					"indices":11,
					"material":1
				},
				{
					"attributes":{
						"POSITION":12,
						"NORMAL":13,
						"TEXCOORD_0":14,
						"JOINTS_0":15,
						"WEIGHTS_0":16
					},
					"indices":17,
					"material":2
				},
				{
					"attributes":{
						"POSITION":18,
						"NORMAL":19,
						"TEXCOORD_0":20,
						"JOINTS_0":21,
						"WEIGHTS_0":22
					},
					"indices":23,
					"material":3
				},
				{
					"attributes":{
						"POSITION":24,
						"NORMAL":25,
						"TEXCOORD_0":26,
						"JOINTS_0":27,
						"WEIGHTS_0":28
					},
					"indices":29,
					"material":4
				},
				{
					"attributes":{
						"POSITION":30,
						"NORMAL":31,
						"TEXCOORD_0":32,
						"JOINTS_0":33,
						"WEIGHTS_0":34
					},
					"indices":35,
					"material":5
				},
				{
					"attributes":{
						"POSITION":36,
						"NORMAL":37,
						"TEXCOORD_0":38,
						"JOINTS_0":39,
						"WEIGHTS_0":40
					},
					"indices":41,
					"material":6
				},
				{
					"attributes":{
						"POSITION":42,
						"NORMAL":43,
						"TEXCOORD_0":44,
						"JOINTS_0":45,
						"WEIGHTS_0":46
					},
					"indices":47,
					"material":7
				},
				{
					"attributes":{
						"POSITION":48,
						"NORMAL":49,
						"TEXCOORD_0":50,
						"JOINTS_0":51,
						"WEIGHTS_0":52
					},
					"indices":53,
					"material":8
				}
			]
		}
	],
	"textures":[
		{
			"sampler":0,
			"source":0
		},
		{
			"sampler":0,
			"source":1
		},
		{
			"sampler":0,
			"source":2
		},
		{
			"sampler":0,
			"source":3
		},
		{
			"sampler":0,
			"source":4
		},
		{
			"sampler":0,
			"source":5
		},
		{
			"sampler":0,
			"source":6
		},
		{
			"sampler":0,
			"source":7
		},
		{
			"sampler":0,
			"source":8
		},
		{
			"sampler":0,
			"source":9
		},
		{
			"sampler":0,
			"source":10
		}
	],
	"images":[
		{
			"mimeType":"image/jpeg",
			"name":"skin_onlytheghosts_middle_aged_eurasian_female_albedo",
			"uri":"textures/skin_onlytheghosts_middle_aged_eurasian_female_albedo.jpg"
		},
		{
			"mimeType":"image/jpeg",
			"name":"eyes_brown_albedo",
			"uri":"textures/eyes_brown_albedo.jpg"
		},
		{
			"mimeType":"image/png",
			"name":"eyelashes02_albedo",
			"uri":"textures/eyelashes02_albedo.png"
		},
		{
			"mimeType":"image/png",
			"name":"eyebrow007_albedo",
			"uri":"textures/eyebrow007_albedo.png"
		},
		{
			"mimeType":"image/png",
			"name":"hair_braid01_brown_albedo",
			"uri":"textures/hair_braid01_brown_albedo.png"
		},
		{
			"mimeType":"image/jpeg",
			"name":"female_casualsuit01_normal",
			"uri":"textures/female_casualsuit01_normal.jpg"
		},
		{
			"mimeType":"image/jpeg",
			"name":"female_casualsuit01_albedo",
			"uri":"textures/female_casualsuit01_albedo.jpg"
		},
		{
			"mimeType":"image/jpeg",
			"name":"toigo_basic_tucked_t-shirt_sage_albedo",
			"uri":"textures/toigo_basic_tucked_t-shirt_sage_albedo.jpg"
		},
		{
			"mimeType":"image/jpeg",
			"name":"crudelabcoatopen_white_albedo",
			"uri":"textures/crudelabcoatopen_white_albedo.jpg"
		},
		{
			"mimeType":"image/jpeg",
			"name":"toigo_ankle_boots_female_normal",
			"uri":"textures/toigo_ankle_boots_female_normal.jpg"
		},
		{
			"mimeType":"image/jpeg",
			"name":"toigo_ankle_boots_female_dark_albedo",
			"uri":"textures/toigo_ankle_boots_female_dark_albedo.jpg"
		}
	],
	"skins":[
		{
			"inverseBindMatrices":54,
			"joints":[
				52,
				51,
				42,
				41,
				40,
				18,
				17,
				16,
				15,
				2,
				1,
				0,
				5,
				4,
				3,
				8,
				7,
				6,
				11,
				10,
				9,
				14,
				13,
				12,
				37,
				36,
				35,
				34,
				21,
				20,
				19,
				24,
				23,
				22,
				27,
				26,
				25,
				30,
				29,
				28,
				33,
				32,
				31,
				39,
				38,
				46,
				45,
				44,
				43,
				50,
				49,
				48,
				47
			],
			"name":"Skeleton"
		}
	],
	"accessors":[
		{
			"bufferView":0,
			"componentType":5126,
			"count":8434,
			"max":[
				0.492105633020401,
				1.6091240644454956,
				0.3111598789691925
			],
			"min":[
				-0.492105633020401,
				0.864035964012146,
				-0.03865119814872742
			],
			"type":"VEC3"
		},
		{
			"bufferView":1,
			"componentType":5126,
			"count":8434,
			"type":"VEC3"
		},
		{
			"bufferView":2,
			"componentType":5126,
			"count":8434,
			"type":"VEC2"
		},
		{
			"bufferView":3,
			"componentType":5121,
			"count":8434,
			"type":"VEC4"
		},
		{
			"bufferView":4,
			"componentType":5126,
			"count":8434,
			"type":"VEC4"
		},
		{
			"bufferView":5,
			"componentType":5123,
			"count":46296,
			"type":"SCALAR"
		},
		{
			"bufferView":6,
			"componentType":5126,
			"count":96,
			"max":[
				0.04341652989387512,
				1.513870358467102,
				0.13376495242118835
			],
			"min":[
				-0.04341652989387512,
				1.4850716590881348,
				0.1117854192852974
			],
			"type":"VEC3"
		},
		{
			"bufferView":7,
			"componentType":5126,
			"count":96,
			"type":"VEC3"
		},
		{
			"bufferView":8,
			"componentType":5126,
			"count":96,
			"type":"VEC2"
		},
		{
			"bufferView":9,
			"componentType":5121,
			"count":96,
			"type":"VEC4"
		},
		{
			"bufferView":10,
			"componentType":5126,
			"count":96,
			"type":"VEC4"
		},
		{
			"bufferView":11,
			"componentType":5123,
			"count":516,
			"type":"SCALAR"
		},
		{
			"bufferView":12,
			"componentType":5126,
			"count":250,
			"max":[
				0.05354722589254379,
				1.5070531368255615,
				0.1380879282951355
			],
			"min":[
				-0.05354722589254379,
				1.4906872510910034,
				0.1263524442911148
			],
			"type":"VEC3"
		},
		{
			"bufferView":13,
			"componentType":5126,
			"count":250,
			"type":"VEC3"
		},
		{
			"bufferView":14,
			"componentType":5126,
			"count":250,
			"type":"VEC2"
		},
		{
			"bufferView":15,
			"componentType":5121,
			"count":250,
			"type":"VEC4"
		},
		{
			"bufferView":16,
			"componentType":5126,
			"count":250,
			"type":"VEC4"
		},
		{
			"bufferView":17,
			"componentType":5123,
			"count":1104,
			"type":"SCALAR"
		},
		{
			"bufferView":18,
			"componentType":5126,
			"count":124,
			"max":[
				0.0523214116692543,
				1.5171773433685303,
				0.14547042548656464
			],
			"min":[
				-0.0523214153945446,
				1.505415439605713,
				0.12017796188592911
			],
			"type":"VEC3"
		},
		{
			"bufferView":19,
			"componentType":5126,
			"count":124,
			"type":"VEC3"
		},
		{
			"bufferView":20,
			"componentType":5126,
			"count":124,
			"type":"VEC2"
		},
		{
			"bufferView":21,
			"componentType":5121,
			"count":124,
			"type":"VEC4"
		},
		{
			"bufferView":22,
			"componentType":5126,
			"count":124,
			"type":"VEC4"
		},
		{
			"bufferView":23,
			"componentType":5123,
			"count":576,
			"type":"SCALAR"
		},
		{
			"bufferView":24,
			"componentType":5126,
			"count":3023,
			"max":[
				0.09533078223466873,
				1.6207505464553833,
				0.1584494411945343
			],
			"min":[
				-0.09736008942127228,
				1.0266512632369995,
				-0.09746065735816956
			],
			"type":"VEC3"
		},
		{
			"bufferView":25,
			"componentType":5126,
			"count":3023,
			"type":"VEC3"
		},
		{
			"bufferView":26,
			"componentType":5126,
			"count":3023,
			"type":"VEC2"
		},
		{
			"bufferView":27,
			"componentType":5121,
			"count":3023,
			"type":"VEC4"
		},
		{
			"bufferView":28,
			"componentType":5126,
			"count":3023,
			"type":"VEC4"
		},
		{
			"bufferView":29,
			"componentType":5123,
			"count":9579,
			"type":"SCALAR"
		},
		{
			"bufferView":30,
			"componentType":5126,
			"count":950,
			"max":[
				0.21339765191078186,
				0.9029675126075745,
				0.13592667877674103
			],
			"min":[
				-0.21412421762943268,
				0.0814998671412468,
				-0.08670443296432495
			],
			"type":"VEC3"
		},
		{
			"bufferView":31,
			"componentType":5126,
			"count":950,
			"type":"VEC3"
		},
		{
			"bufferView":32,
			"componentType":5126,
			"count":950,
			"type":"VEC2"
		},
		{
			"bufferView":33,
			"componentType":5121,
			"count":950,
			"type":"VEC4"
		},
		{
			"bufferView":34,
			"componentType":5126,
			"count":950,
			"type":"VEC4"
		},
		{
			"bufferView":35,
			"componentType":5123,
			"count":5136,
			"type":"SCALAR"
		},
		{
			"bufferView":36,
			"componentType":5126,
			"count":1553,
			"max":[
				0.2938583493232727,
				1.3717875480651855,
				0.15551091730594635
			],
			"min":[
				-0.29412516951560974,
				0.9249863028526306,
				-0.05369395762681961
			],
			"type":"VEC3"
		},
		{
			"bufferView":37,
			"componentType":5126,
			"count":1553,
			"type":"VEC3"
		},
		{
			"bufferView":38,
			"componentType":5126,
			"count":1553,
			"type":"VEC2"
		},
		{
			"bufferView":39,
			"componentType":5121,
			"count":1553,
			"type":"VEC4"
		},
		{
			"bufferView":40,
			"componentType":5126,
			"count":1553,
			"type":"VEC4"
		},
		{
			"bufferView":41,
			"componentType":5123,
			"count":8100,
			"type":"SCALAR"
		},
		{
			"bufferView":42,
			"componentType":5126,
			"count":5680,
			"max":[
				0.4325712323188782,
				1.3871792554855347,
				0.17812834680080414
			],
			"min":[
				-0.43257126212120056,
				0.4574603736400604,
				-0.09574851393699646
			],
			"type":"VEC3"
		},
		{
			"bufferView":43,
			"componentType":5126,
			"count":5680,
			"type":"VEC3"
		},
		{
			"bufferView":44,
			"componentType":5126,
			"count":5680,
			"type":"VEC2"
		},
		{
			"bufferView":45,
			"componentType":5121,
			"count":5680,
			"type":"VEC4"
		},
		{
			"bufferView":46,
			"componentType":5126,
			"count":5680,
			"type":"VEC4"
		},
		{
			"bufferView":47,
			"componentType":5123,
			"count":31584,
			"type":"SCALAR"
		},
		{
			"bufferView":48,
			"componentType":5126,
			"count":2416,
			"max":[
				0.21920658648014069,
				0.13564567267894745,
				0.18262892961502075
			],
			"min":[
				-0.21920658648014069,
				-0.017999479547142982,
				-0.017739232629537582
			],
			"type":"VEC3"
		},
		{
			"bufferView":49,
			"componentType":5126,
			"count":2416,
			"type":"VEC3"
		},
		{
			"bufferView":50,
			"componentType":5126,
			"count":2416,
			"type":"VEC2"
		},
		{
			"bufferView":51,
			"componentType":5121,
			"count":2416,
			"type":"VEC4"
		},
		{
			"bufferView":52,
			"componentType":5126,
			"count":2416,
			"type":"VEC4"
		},
		{
			"bufferView":53,
			"componentType":5123,
			"count":12360,
			"type":"SCALAR"
		},
		{
			"bufferView":54,
			"componentType":5126,
			"count":53,
			"type":"MAT4"
		}
	],
	"bufferViews":[
		{
			"buffer":0,
			"byteLength":101208,
			"byteOffset":0,
			"target":34962
		},
		{
			"buffer":0,
			"byteLength":101208,
			"byteOffset":101208,
			"target":34962
		},
		{
			"buffer":0,
			"byteLength":67472,
			"byteOffset":202416,
			"target":34962
		},
		{
			"buffer":0,
			"byteLength":33736,
			"byteOffset":269888,
			"target":34962
		},
		{
			"buffer":0,
			"byteLength":134944,
			"byteOffset":303624,
			"target":34962
		},
		{
			"buffer":0,
			"byteLength":92592,
			"byteOffset":438568,
			"target":34963
		},
		{
			"buffer":0,
			"byteLength":1152,
			"byteOffset":531160,
			"target":34962
		},
		{
			"buffer":0,
			"byteLength":1152,
			"byteOffset":532312,
			"target":34962
		},
		{
			"buffer":0,
			"byteLength":768,
			"byteOffset":533464,
			"target":34962
		},
		{
			"buffer":0,
			"byteLength":384,
			"byteOffset":534232,
			"target":34962
		},
		{
			"buffer":0,
			"byteLength":1536,
			"byteOffset":534616,
			"target":34962
		},
		{
			"buffer":0,
			"byteLength":1032,
			"byteOffset":536152,
			"target":34963
		},
		{
			"buffer":0,
			"byteLength":3000,
			"byteOffset":537184,
			"target":34962
		},
		{
			"buffer":0,
			"byteLength":3000,
			"byteOffset":540184,
			"target":34962
		},
		{
			"buffer":0,
			"byteLength":2000,
			"byteOffset":543184,
			"target":34962
		},
		{
			"buffer":0,
			"byteLength":1000,
			"byteOffset":545184,
			"target":34962
		},
		{
			"buffer":0,
			"byteLength":4000,
			"byteOffset":546184,
			"target":34962
		},
		{
			"buffer":0,
			"byteLength":2208,
			"byteOffset":550184,
			"target":34963
		},
		{
			"buffer":0,
			"byteLength":1488,
			"byteOffset":552392,
			"target":34962
		},
		{
			"buffer":0,
			"byteLength":1488,
			"byteOffset":553880,
			"target":34962
		},
		{
			"buffer":0,
			"byteLength":992,
			"byteOffset":555368,
			"target":34962
		},
		{
			"buffer":0,
			"byteLength":496,
			"byteOffset":556360,
			"target":34962
		},
		{
			"buffer":0,
			"byteLength":1984,
			"byteOffset":556856,
			"target":34962
		},
		{
			"buffer":0,
			"byteLength":1152,
			"byteOffset":558840,
			"target":34963
		},
		{
			"buffer":0,
			"byteLength":36276,
			"byteOffset":559992,
			"target":34962
		},
		{
			"buffer":0,
			"byteLength":36276,
			"byteOffset":596268,
			"target":34962
		},
		{
			"buffer":0,
			"byteLength":24184,
			"byteOffset":632544,
			"target":34962
		},
		{
			"buffer":0,
			"byteLength":12092,
			"byteOffset":656728,
			"target":34962
		},
		{
			"buffer":0,
			"byteLength":48368,
			"byteOffset":668820,
			"target":34962
		},
		{
			"buffer":0,
			"byteLength":19158,
			"byteOffset":717188,
			"target":34963
		},
		{
			"buffer":0,
			"byteLength":11400,
			"byteOffset":736348,
			"target":34962
		},
		{
			"buffer":0,
			"byteLength":11400,
			"byteOffset":747748,
			"target":34962
		},
		{
			"buffer":0,
			"byteLength":7600,
			"byteOffset":759148,
			"target":34962
		},
		{
			"buffer":0,
			"byteLength":3800,
			"byteOffset":766748,
			"target":34962
		},
		{
			"buffer":0,
			"byteLength":15200,
			"byteOffset":770548,
			"target":34962
		},
		{
			"buffer":0,
			"byteLength":10272,
			"byteOffset":785748,
			"target":34963
		},
		{
			"buffer":0,
			"byteLength":18636,
			"byteOffset":796020,
			"target":34962
		},
		{
			"buffer":0,
			"byteLength":18636,
			"byteOffset":814656,
			"target":34962
		},
		{
			"buffer":0,
			"byteLength":12424,
			"byteOffset":833292,
			"target":34962
		},
		{
			"buffer":0,
			"byteLength":6212,
			"byteOffset":845716,
			"target":34962
		},
		{
			"buffer":0,
			"byteLength":24848,
			"byteOffset":851928,
			"target":34962
		},
		{
			"buffer":0,
			"byteLength":16200,
			"byteOffset":876776,
			"target":34963
		},
		{
			"buffer":0,
			"byteLength":68160,
			"byteOffset":892976,
			"target":34962
		},
		{
			"buffer":0,
			"byteLength":68160,
			"byteOffset":961136,
			"target":34962
		},
		{
			"buffer":0,
			"byteLength":45440,
			"byteOffset":1029296,
			"target":34962
		},
		{
			"buffer":0,
			"byteLength":22720,
			"byteOffset":1074736,
			"target":34962
		},
		{
			"buffer":0,
			"byteLength":90880,
			"byteOffset":1097456,
			"target":34962
		},
		{
			"buffer":0,
			"byteLength":63168,
			"byteOffset":1188336,
			"target":34963
		},
		{
			"buffer":0,
			"byteLength":28992,
			"byteOffset":1251504,
			"target":34962
		},
		{
			"buffer":0,
			"byteLength":28992,
			"byteOffset":1280496,
			"target":34962
		},
		{
			"buffer":0,
			"byteLength":19328,
			"byteOffset":1309488,
			"target":34962
		},
		{
			"buffer":0,
			"byteLength":9664,
			"byteOffset":1328816,
			"target":34962
		},
		{
			"buffer":0,
			"byteLength":38656,
			"byteOffset":1338480,
			"target":34962
		},
		{
			"buffer":0,
			"byteLength":24720,
			"byteOffset":1377136,
			"target":34963
		},
		{
			"buffer":0,
			"byteLength":3392,
			"byteOffset":1401856
		}
	],
	"samplers":[
		{
			"magFilter":9729,
			"minFilter":9987
		}
	],
	"buffers":[
		{
			"byteLength":1405248,
			"uri":"vet.bin"
		}
	]
}
