{
	"asset":{
		"generator":"Khronos glTF Blender I/O v4.4.56",
		"version":"2.0"
	},
	"scene":0,
	"scenes":[
		{
			"name":"Scene",
			"nodes":[
				54
			]
		}
	],
	"nodes":[
		{
			"name":"index_03_l",
			"rotation":[
				0.06727535277605057,
				-0.006962435320019722,
				0.020154178142547607,
				0.9975065588951111
			],
			"scale":[
				1,
				1,
				0.9999998211860657
			],
			"translation":[
				1.4901161193847656e-08,
				0.02041901834309101,
				4.470348358154297e-08
			]
		},
		{
			"children":[
				0
			],
			"name":"index_02_l",
			"rotation":[
				0.11210883408784866,
				-0.00017028252477757633,
				0.005506433080881834,
				0.9936806559562683
			],
			"scale":[
				0.9999998807907104,
				0.9999998807907104,
				0.9999999403953552
			],
			"translation":[
				4.470348358154297e-08,
				0.022929199039936066,
				-3.725290298461914e-08
			]
		},
		{
			"children":[
				1
			],
			"name":"index_01_l",
			"rotation":[
				0.10480518639087677,
				0.49636244773864746,
				-0.004111862275749445,
				0.8617559671401978
			],
			"scale":[
				1,
				1,
				0.9999999403953552
			],
			"translation":[
				-0.011930115520954132,
				0.09385685622692108,
				0.00778207927942276
			]
		},
		{
			"name":"middle_03_l",
			"rotation":[
				0.07552417367696762,
				-0.00905935000628233,
				-0.008101134561002254,
				0.9970698952674866
			],
			"translation":[
				0,
				0.024795759469270706,
				1.4901161193847656e-08
			]
		},
		{
			"children":[
				3
			],
			"name":"middle_02_l",
			"rotation":[
				0.04695134982466698,
				-0.0008846308337524533,
				0.0391547791659832,
				0.99812912940979
			],
			"scale":[
				0.9999999403953552,
				1.0000001192092896,
				1
			],
			"translation":[
				-4.470348358154297e-08,
				0.030110247433185577,
				1.4901161193847656e-08
			]
		},
		{
			"children":[
				4
			],
			"name":"middle_01_l",
			"rotation":[
				0.09102243185043335,
				0.4274015724658966,
				-0.15495477616786957,
				0.8860202431678772
			],
			"translation":[
				0.001253865659236908,
				0.09028464555740356,
				-0.011507931165397167
			]
		},
		{
			"name":"pinky_03_l",
			"rotation":[
				-0.0024890161585062742,
				-0.008927172981202602,
				-0.012584629468619823,
				0.9998778700828552
			],
			"scale":[
				1,
				0.9999999403953552,
				0.9999998807907104
			],
			"translation":[
				1.4901161193847656e-08,
				0.013976804912090302,
				1.4901161193847656e-08
			]
		},
		{
			"children":[
				6
			],
			"name":"pinky_02_l",
			"rotation":[
				0.08940160274505615,
				-0.01069689728319645,
				0.028424007818102837,
				0.9955325722694397
			],
			"scale":[
				1,
				1,
				0.9999999403953552
			],
			"translation":[
				1.4901161193847656e-08,
				0.018916055560112,
				2.60770320892334e-08
			]
		},
		{
			"children":[
				7
			],
			"name":"pinky_01_l",
			"rotation":[
				0.03262602165341377,
				0.3176756799221039,
				-0.30375438928604126,
				0.8976362943649292
			],
			"scale":[
				1.0000001192092896,
				1,
				1.0000001192092896
			],
			"translation":[
				0.027696214616298676,
				0.07412479817867279,
				-0.030477249994874
			]
		},
		{
			"name":"ring_03_l",
			"rotation":[
				0.06620558351278305,
				-0.007103807292878628,
				-0.027671141549944878,
				0.9973969459533691
			],
			"scale":[
				1,
				0.9999998211860657,
				1
			],
			"translation":[
				5.960464477539063e-08,
				0.02201889455318451,
				-3.725290298461914e-08
			]
		},
		{
			"children":[
				9
			],
			"name":"ring_02_l",
			"rotation":[
				0.06751935184001923,
				-0.013445825316011906,
				0.04678457975387573,
				0.996529757976532
			],
			"scale":[
				1,
				1,
				1.0000001192092896
			],
			"translation":[
				0,
				0.02659515291452408,
				5.21540641784668e-08
			]
		},
		{
			"children":[
				10
			],
			"name":"ring_01_l",
			"rotation":[
				0.03982085362076759,
				0.41300860047340393,
				-0.23044830560684204,
				0.880188524723053
			],
			"scale":[
				0.9999999403953552,
				0.9999998211860657,
				0.9999999403953552
			],
			"translation":[
				0.013168089091777802,
				0.08367730677127838,
				-0.02298872545361519
			]
		},
		{
			"name":"thumb_03_l",
			"rotation":[
				0.145407035946846,
				-0.0020734528079628944,
				-0.03289962559938431,
				0.9888225793838501
			],
			"scale":[
				0.9999998807907104,
				1,
				1
			],
			"translation":[
				3.725290298461914e-08,
				0.03207497298717499,
				5.21540641784668e-08
			]
		},
		{
			"children":[
				12
			],
			"name":"thumb_02_l",
			"rotation":[
				0.07413387298583984,
				-0.007715031038969755,
				-0.1815171092748642,
				0.9805591702461243
			],
			"scale":[
				1.0000001192092896,
				0.9999999403953552,
				1
			],
			"translation":[
				-1.30385160446167e-08,
				0.027344897389411926,
				-1.0803341865539551e-07
			]
		},
		{
			"children":[
				13
			],
			"name":"thumb_01_l",
			"rotation":[
				0.2779979407787323,
				0.7396907210350037,
				0.43325135111808777,
				0.4334375858306885
			],
			"scale":[
				1,
				1,
				0.9999999403953552
			],
			"translation":[
				-0.012189902365207672,
				0.03504733741283417,
				0.013707390986382961
			]
		},
		{
			"children":[
				2,
				5,
				8,
				11,
				14
			],
			"name":"hand_l",
			"rotation":[
				0.13017073273658752,
				0.401741087436676,
				-0.015137947164475918,
				0.9063280820846558
			],
			"scale":[
				1,
				1.0000001192092896,
				0.9999998807907104
			],
			"translation":[
				-5.122274160385132e-08,
				0.19752442836761475,
				1.4901161193847656e-08
			]
		},
		{
			"children":[
				15
			],
			"name":"lowerarm_l",
			"rotation":[
				0.32681402564048767,
				-0.02655182220041752,
				-0.010473204776644707,
				0.9446575045585632
			],
			"scale":[
				0.9999998211860657,
				1.0000001192092896,
				1.0000001192092896
			],
			"translation":[
				3.346940502524376e-08,
				0.21504682302474976,
				-5.122274160385132e-09
			]
		},
		{
			"children":[
				16
			],
			"name":"upperarm_l",
			"rotation":[
				0.002425145823508501,
				-0.009260282851755619,
				-0.3455805778503418,
				0.9383403062820435
			],
			"scale":[
				0.9999999403953552,
				1,
				0.9999998807907104
			],
			"translation":[
				6.740447133779526e-08,
				0.12861847877502441,
				1.1641532182693481e-09
			]
		},
		{
			"children":[
				17
			],
			"name":"clavicle_l",
			"rotation":[
				-0.00812041200697422,
				-0.027742847800254822,
				-0.7416754961013794,
				0.6701357364654541
			],
			"scale":[
				1.0000001192092896,
				0.9999999403953552,
				1
			],
			"translation":[
				0.021842114627361298,
				0.20234987139701843,
				0.014201730489730835
			]
		},
		{
			"name":"index_03_r",
			"rotation":[
				0.06727535277605057,
				0.006962435320019722,
				-0.020154178142547607,
				0.9975065588951111
			],
			"scale":[
				1,
				1,
				0.9999998211860657
			],
			"translation":[
				-1.4901161193847656e-08,
				0.02041901834309101,
				4.470348358154297e-08
			]
		},
		{
			"children":[
				19
			],
			"name":"index_02_r",
			"rotation":[
				0.11210883408784866,
				0.00017028252477757633,
				-0.005506433080881834,
				0.9936806559562683
			],
			"scale":[
				0.9999998807907104,
				0.9999998807907104,
				0.9999999403953552
			],
			"translation":[
				-4.470348358154297e-08,
				0.022929199039936066,
				-3.725290298461914e-08
			]
		},
		{
			"children":[
				20
			],
			"name":"index_01_r",
			"rotation":[
				0.10480518639087677,
				-0.49636244773864746,
				0.004111862275749445,
				0.8617559671401978
			],
			"scale":[
				1,
				1,
				0.9999999403953552
			],
			"translation":[
				0.011930115520954132,
				0.09385685622692108,
				0.00778207927942276
			]
		},
		{
			"name":"middle_03_r",
			"rotation":[
				0.07552417367696762,
				0.00905935000628233,
				0.008101134561002254,
				0.9970698952674866
			],
			"translation":[
				0,
				0.024795759469270706,
				1.4901161193847656e-08
			]
		},
		{
			"children":[
				22
			],
			"name":"middle_02_r",
			"rotation":[
				0.04695134982466698,
				0.0008846308337524533,
				-0.0391547791659832,
				0.99812912940979
			],
			"scale":[
				0.9999999403953552,
				1.0000001192092896,
				1
			],
			"translation":[
				4.470348358154297e-08,
				0.030110247433185577,
				1.4901161193847656e-08
			]
		},
		{
			"children":[
				23
			],
			"name":"middle_01_r",
			"rotation":[
				0.09102243185043335,
				-0.4274015724658966,
				0.15495477616786957,
				0.8860202431678772
			],
			"translation":[
				-0.001253865659236908,
				0.09028464555740356,
				-0.011507931165397167
			]
		},
		{
			"name":"pinky_03_r",
			"rotation":[
				-0.0024890161585062742,
				0.008927172981202602,
				0.012584629468619823,
				0.9998778700828552
			],
			"scale":[
				1,
				0.9999999403953552,
				0.9999998807907104
			],
			"translation":[
				-1.4901161193847656e-08,
				0.013976804912090302,
				1.4901161193847656e-08
			]
		},
		{
			"children":[
				25
			],
			"name":"pinky_02_r",
			"rotation":[
				0.08940160274505615,
				0.01069689728319645,
				-0.028424007818102837,
				0.9955325722694397
			],
			"scale":[
				1,
				1,
				0.9999999403953552
			],
			"translation":[
				-1.4901161193847656e-08,
				0.018916055560112,
				2.60770320892334e-08
			]
		},
		{
			"children":[
				26
			],
			"name":"pinky_01_r",
			"rotation":[
				0.03262602165341377,
				-0.3176756799221039,
				0.30375438928604126,
				0.8976362943649292
			],
			"scale":[
				1.0000001192092896,
				1,
				1.0000001192092896
			],
			"translation":[
				-0.027696214616298676,
				0.07412479817867279,
				-0.030477249994874
			]
		},
		{
			"name":"ring_03_r",
			"rotation":[
				0.06620558351278305,
				0.007103807292878628,
				0.027671141549944878,
				0.9973969459533691
			],
			"scale":[
				1,
				0.9999998211860657,
				1
			],
			"translation":[
				-5.960464477539063e-08,
				0.02201889455318451,
				-3.725290298461914e-08
			]
		},
		{
			"children":[
				28
			],
			"name":"ring_02_r",
			"rotation":[
				0.06751935184001923,
				0.013445825316011906,
				-0.04678457975387573,
				0.996529757976532
			],
			"scale":[
				1,
				1,
				1.0000001192092896
			],
			"translation":[
				0,
				0.02659515291452408,
				5.21540641784668e-08
			]
		},
		{
			"children":[
				29
			],
			"name":"ring_01_r",
			"rotation":[
				0.03982085362076759,
				-0.41300860047340393,
				0.23044830560684204,
				0.880188524723053
			],
			"scale":[
				0.9999999403953552,
				0.9999998211860657,
				0.9999999403953552
			],
			"translation":[
				-0.013168089091777802,
				0.08367730677127838,
				-0.02298872545361519
			]
		},
		{
			"name":"thumb_03_r",
			"rotation":[
				0.145407035946846,
				0.0020734528079628944,
				0.03289962559938431,
				0.9888225793838501
			],
			"scale":[
				0.9999998807907104,
				1,
				1
			],
			"translation":[
				-3.725290298461914e-08,
				0.03207497298717499,
				5.21540641784668e-08
			]
		},
		{
			"children":[
				31
			],
			"name":"thumb_02_r",
			"rotation":[
				0.07413387298583984,
				0.007715031038969755,
				0.1815171092748642,
				0.9805591702461243
			],
			"scale":[
				1.0000001192092896,
				0.9999999403953552,
				1
			],
			"translation":[
				1.30385160446167e-08,
				0.027344897389411926,
				-1.0803341865539551e-07
			]
		},
		{
			"children":[
				32
			],
			"name":"thumb_01_r",
			"rotation":[
				0.2779979407787323,
				-0.7396907210350037,
				-0.43325135111808777,
				0.4334375858306885
			],
			"scale":[
				1,
				1,
				0.9999999403953552
			],
			"translation":[
				0.012189902365207672,
				0.03504733741283417,
				0.013707390986382961
			]
		},
		{
			"children":[
				21,
				24,
				27,
				30,
				33
			],
			"name":"hand_r",
			"rotation":[
				0.13017073273658752,
				-0.401741087436676,
				0.015137947164475918,
				0.9063280820846558
			],
			"scale":[
				1,
				1.0000001192092896,
				0.9999998807907104
			],
			"translation":[
				5.122274160385132e-08,
				0.19752442836761475,
				1.4901161193847656e-08
			]
		},
		{
			"children":[
				34
			],
			"name":"lowerarm_r",
			"rotation":[
				0.32681402564048767,
				0.02655182220041752,
				0.010473204776644707,
				0.9446575045585632
			],
			"scale":[
				0.9999998211860657,
				1.0000001192092896,
				1.0000001192092896
			],
			"translation":[
				-3.346940502524376e-08,
				0.21504682302474976,
				-5.122274160385132e-09
			]
		},
		{
			"children":[
				35
			],
			"name":"upperarm_r",
			"rotation":[
				0.002425145823508501,
				0.009260282851755619,
				0.3455805778503418,
				0.9383403062820435
			],
			"scale":[
				0.9999999403953552,
				1,
				0.9999998807907104
			],
			"translation":[
				-6.740447133779526e-08,
				0.12861847877502441,
				1.1641532182693481e-09
			]
		},
		{
			"children":[
				36
			],
			"name":"clavicle_r",
			"rotation":[
				-0.00812041200697422,
				0.027742847800254822,
				0.7416754961013794,
				0.6701357364654541
			],
			"scale":[
				1.0000001192092896,
				0.9999999403953552,
				1
			],
			"translation":[
				-0.021842114627361298,
				0.20234987139701843,
				0.014201730489730835
			]
		},
		{
			"name":"head",
			"rotation":[
				-0.20500993728637695,
				0,
				0,
				0.9787599444389343
			],
			"scale":[
				1,
				1.0000001192092896,
				1
			],
			"translation":[
				0,
				0.10364140570163727,
				0
			]
		},
		{
			"children":[
				38
			],
			"name":"neck_01",
			"rotation":[
				0.16428852081298828,
				0,
				0,
				0.9864123463630676
			],
			"translation":[
				0,
				0.27005907893180847,
				-0.002958906814455986
			]
		},
		{
			"children":[
				18,
				37,
				39
			],
			"name":"spine_03",
			"rotation":[
				-0.04707033187150955,
				0,
				0,
				0.9988915920257568
			],
			"scale":[
				1,
				0.9999999403953552,
				0.9999999403953552
			],
			"translation":[
				0,
				0.08956605195999146,
				7.450580596923828e-09
			]
		},
		{
			"children":[
				40
			],
			"name":"spine_02",
			"rotation":[
				-0.09420739114284515,
				0,
				0,
				0.9955525994300842
			],
			"scale":[
				1,
				0.9999999403953552,
				0.9999999403953552
			],
			"translation":[
				0,
				0.06377548724412918,
				9.313225746154785e-10
			]
		},
		{
			"children":[
				41
			],
			"name":"spine_01",
			"rotation":[
				0.4253230690956116,
				0,
				0,
				0.9050416350364685
			],
			"scale":[
				1,
				1,
				0.9999998211860657
			],
			"translation":[
				0,
				0.08258579671382904,
				-2.60770320892334e-08
			]
		},
		{
			"name":"ball_l",
			"rotation":[
				-0.26220837235450745,
				0.4396304190158844,
				-0.06531964242458344,
				0.8565659523010254
			],
			"scale":[
				1,
				1.0000001192092896,
				1.000000238418579
			],
			"translation":[
				-2.8114300221204758e-08,
				0.1202782392501831,
				1.210719347000122e-08
			]
		},
		{
			"children":[
				43
			],
			"name":"foot_l",
			"rotation":[
				-0.5216003060340881,
				-0.07480130344629288,
				0.06466379761695862,
				0.8474411368370056
			],
			"scale":[
				0.9999998807907104,
				0.9999998807907104,
				0.9999999403953552
			],
			"translation":[
				1.6763806343078613e-08,
				0.36602145433425903,
				-3.026798367500305e-09
			]
		},
		{
			"children":[
				44
			],
			"name":"calf_l",
			"rotation":[
				0.06649446487426758,
				0.2463974505662918,
				-0.024436261504888535,
				0.9665762782096863
			],
			"scale":[
				0.9999999403953552,
				0.9999999403953552,
				1
			],
			"translation":[
				-2.60770320892334e-08,
				0.32286450266838074,
				1.1175870895385742e-08
			]
		},
		{
			"children":[
				45
			],
			"name":"thigh_l",
			"rotation":[
				-0.9476527571678162,
				-0.1022011786699295,
				0.20984283089637756,
				0.2178879827260971
			],
			"scale":[
				0.9999998807907104,
				1,
				0.9999998807907104
			],
			"translation":[
				0.09424775093793869,
				-0.006825003772974014,
				-0.013454637490212917
			]
		},
		{
			"name":"ball_r",
			"rotation":[
				-0.26220837235450745,
				-0.4396304190158844,
				0.06531964242458344,
				0.8565659523010254
			],
			"scale":[
				1,
				1.0000001192092896,
				1.000000238418579
			],
			"translation":[
				2.8114300221204758e-08,
				0.1202782392501831,
				1.210719347000122e-08
			]
		},
		{
			"children":[
				47
			],
			"name":"foot_r",
			"rotation":[
				-0.5216003060340881,
				0.07480130344629288,
				-0.06466379761695862,
				0.8474411368370056
			],
			"scale":[
				0.9999998807907104,
				0.9999998807907104,
				0.9999999403953552
			],
			"translation":[
				-1.6763806343078613e-08,
				0.36602145433425903,
				-3.026798367500305e-09
			]
		},
		{
			"children":[
				48
			],
			"name":"calf_r",
			"rotation":[
				0.06649446487426758,
				-0.2463974505662918,
				0.024436261504888535,
				0.9665762782096863
			],
			"scale":[
				0.9999999403953552,
				0.9999999403953552,
				1
			],
			"translation":[
				2.60770320892334e-08,
				0.32286450266838074,
				1.1175870895385742e-08
			]
		},
		{
			"children":[
				49
			],
			"name":"thigh_r",
			"rotation":[
				-0.9476527571678162,
				0.1022011786699295,
				-0.20984283089637756,
				0.2178879827260971
			],
			"scale":[
				0.9999998807907104,
				1,
				0.9999998807907104
			],
			"translation":[
				-0.09424775093793869,
				-0.006825003772974014,
				-0.013454637490212917
			]
		},
		{
			"children":[
				42,
				46,
				50
			],
			"name":"pelvis",
			"rotation":[
				0.48464763164520264,
				0,
				0,
				0.8747094869613647
			],
			"scale":[
				1,
				0.9999999403953552,
				0.9999998807907104
			],
			"translation":[
				0,
				-0.028644157573580742,
				0.764778196811676
			]
		},
		{
			"children":[
				51
			],
			"name":"Root",
			"rotation":[
				-0.7082369923591614,
				0,
				0,
				0.7059747576713562
			],
			"scale":[
				1,
				0.9999999403953552,
				1
			],
			"translation":[
				0,
				0.001085586380213499,
				6.100162863731384e-08
			]
		},
		{
			"mesh":0,
			"name":"villager.001",
			"skin":0
		},
		{
			"children":[
				53,
				52
			],
			"name":"Skeleton"
		}
	],
	"materials":[
		{
			"doubleSided":true,
			"name":"skin",
			"pbrMetallicRoughness":{
				"baseColorTexture":{
					"index":0
				},
				"metallicFactor":0,
				"roughnessFactor":0.550000011920929
			}
		},
		{
			"doubleSided":true,
			"name":"eyes",
			"pbrMetallicRoughness":{
				"baseColorTexture":{
					"index":1
				},
				"metallicFactor":0,
				"roughnessFactor":0.10000000149011612
			}
		},
		{
			"alphaMode":"BLEND",
			"doubleSided":true,
			"name":"lashes",
			"pbrMetallicRoughness":{
				"baseColorTexture":{
					"index":2
				},
				"metallicFactor":0,
				"roughnessFactor":0.8500000238418579
			}
		},
		{
			"alphaMode":"BLEND",
			"doubleSided":true,
			"name":"brows",
			"pbrMetallicRoughness":{
				"baseColorTexture":{
					"index":3
				},
				"metallicFactor":0,
				"roughnessFactor":0.8500000238418579
			}
		},
		{
			"doubleSided":true,
			"name":"cloth_toigo_fisherman_sweater",
			"pbrMetallicRoughness":{
				"baseColorTexture":{
					"index":4
				},
				"metallicFactor":0,
				"roughnessFactor":0.8500000238418579
			}
		},
		{
			"doubleSided":true,
			"name":"cloth_toigo_harem_pants",
			"pbrMetallicRoughness":{
				"baseColorTexture":{
					"index":5
				},
				"metallicFactor":0,
				"roughnessFactor":0.8500000238418579
			}
		},
		{
			"doubleSided":true,
			"name":"cloth_toigo_flats",
			"pbrMetallicRoughness":{
				"baseColorTexture":{
					"index":6
				},
				"metallicFactor":0,
				"roughnessFactor":0.8500000238418579
			}
		},
		{
			"doubleSided":true,
			"name":"cloth_scarf",
			"pbrMetallicRoughness":{
				"baseColorTexture":{
					"index":7
				},
				"metallicFactor":0,
				"roughnessFactor":0.8999999761581421
			}
		}
	],
	"meshes":[
		{
			"name":"villager",
			"primitives":[
				{
					"attributes":{
						"POSITION":0,
						"NORMAL":1,
						"TEXCOORD_0":2,
						"JOINTS_0":3,
						"WEIGHTS_0":4
					},
					"indices":5,
					"material":0
				},
				{
					"attributes":{
						"POSITION":6,
						"NORMAL":7,
						"TEXCOORD_0":8,
						"JOINTS_0":9,
						"WEIGHTS_0":10
					},
					"indices":11,
					"material":1
				},
				{
					"attributes":{
						"POSITION":12,
						"NORMAL":13,
						"TEXCOORD_0":14,
						"JOINTS_0":15,
						"WEIGHTS_0":16
					},
					"indices":17,
					"material":2
				},
				{
					"attributes":{
						"POSITION":18,
						"NORMAL":19,
						"TEXCOORD_0":20,
						"JOINTS_0":21,
						"WEIGHTS_0":22
					},
					"indices":23,
					"material":3
				},
				{
					"attributes":{
						"POSITION":24,
						"NORMAL":25,
						"TEXCOORD_0":26,
						"JOINTS_0":27,
						"WEIGHTS_0":28
					},
					"indices":29,
					"material":4
				},
				{
					"attributes":{
						"POSITION":30,
						"NORMAL":31,
						"TEXCOORD_0":32,
						"JOINTS_0":33,
						"WEIGHTS_0":34
					},
					"indices":35,
					"material":5
				},
				{
					"attributes":{
						"POSITION":36,
						"NORMAL":37,
						"TEXCOORD_0":38,
						"JOINTS_0":39,
						"WEIGHTS_0":40
					},
					"indices":41,
					"material":6
				},
				{
					"attributes":{
						"POSITION":42,
						"NORMAL":43,
						"TEXCOORD_0":44,
						"JOINTS_0":45,
						"WEIGHTS_0":46
					},
					"indices":47,
					"material":7
				}
			]
		}
	],
	"textures":[
		{
			"sampler":0,
			"source":0
		},
		{
			"sampler":0,
			"source":1
		},
		{
			"sampler":0,
			"source":2
		},
		{
			"sampler":0,
			"source":3
		},
		{
			"sampler":0,
			"source":4
		},
		{
			"sampler":0,
			"source":5
		},
		{
			"sampler":0,
			"source":6
		},
		{
			"sampler":0,
			"source":7
		}
	],
	"images":[
		{
			"mimeType":"image/jpeg",
			"name":"skin_middleage_caucasian_female_albedo",
			"uri":"textures/skin_middleage_caucasian_female_albedo.jpg"
		},
		{
			"mimeType":"image/jpeg",
			"name":"eyes_brown_albedo",
			"uri":"textures/eyes_brown_albedo.jpg"
		},
		{
			"mimeType":"image/png",
			"name":"eyelashes01_albedo",
			"uri":"textures/eyelashes01_albedo.png"
		},
		{
			"mimeType":"image/png",
			"name":"eyebrow006_albedo",
			"uri":"textures/eyebrow006_albedo.png"
		},
		{
			"mimeType":"image/jpeg",
			"name":"toigo_fisherman_sweater_albedo",
			"uri":"textures/toigo_fisherman_sweater_albedo.jpg"
		},
		{
			"mimeType":"image/jpeg",
			"name":"toigo_harem_pants_albedo",
			"uri":"textures/toigo_harem_pants_albedo.jpg"
		},
		{
			"mimeType":"image/jpeg",
			"name":"toigo_flats_albedo",
			"uri":"textures/toigo_flats_albedo.jpg"
		},
		{
			"mimeType":"image/png",
			"name":"scarf_print",
			"uri":"textures/scarf_print.png"
		}
	],
	"skins":[
		{
			"inverseBindMatrices":48,
			"joints":[
				52,
				51,
				42,
				41,
				40,
				18,
				17,
				16,
				15,
				2,
				1,
				0,
				5,
				4,
				3,
				8,
				7,
				6,
				11,
				10,
				9,
				14,
				13,
				12,
				37,
				36,
				35,
				34,
				21,
				20,
				19,
				24,
				23,
				22,
				27,
				26,
				25,
				30,
				29,
				28,
				33,
				32,
				31,
				39,
				38,
				46,
				45,
				44,
				43,
				50,
				49,
				48,
				47
			],
			"name":"Skeleton"
		}
	],
	"accessors":[
		{
			"bufferView":0,
			"componentType":5126,
			"count":7669,
			"max":[
				0.4670359790325165,
				1.4486324787139893,
				0.30956074595451355
			],
			"min":[
				-0.4670359790325165,
				0.0024303256068378687,
				-0.018349215388298035
			],
			"type":"VEC3"
		},
		{
			"bufferView":1,
			"componentType":5126,
			"count":7669,
			"type":"VEC3"
		},
		{
			"bufferView":2,
			"componentType":5126,
			"count":7669,
			"type":"VEC2"
		},
		{
			"bufferView":3,
			"componentType":5121,
			"count":7669,
			"type":"VEC4"
		},
		{
			"bufferView":4,
			"componentType":5126,
			"count":7669,
			"type":"VEC4"
		},
		{
			"bufferView":5,
			"componentType":5123,
			"count":38700,
			"type":"SCALAR"
		},
		{
			"bufferView":6,
			"componentType":5126,
			"count":96,
			"max":[
				0.04176125302910805,
				1.4043363332748413,
				0.13672779500484467
			],
			"min":[
				-0.04176125302910805,
				1.376609444618225,
				0.11560919880867004
			],
			"type":"VEC3"
		},
		{
			"bufferView":7,
			"componentType":5126,
			"count":96,
			"type":"VEC3"
		},
		{
			"bufferView":8,
			"componentType":5126,
			"count":96,
			"type":"VEC2"
		},
		{
			"bufferView":9,
			"componentType":5121,
			"count":96,
			"type":"VEC4"
		},
		{
			"bufferView":10,
			"componentType":5126,
			"count":96,
			"type":"VEC4"
		},
		{
			"bufferView":11,
			"componentType":5123,
			"count":516,
			"type":"SCALAR"
		},
		{
			"bufferView":12,
			"componentType":5126,
			"count":250,
			"max":[
				0.04558528587222099,
				1.3962918519973755,
				0.1408911943435669
			],
			"min":[
				-0.04558528587222099,
				1.381704568862915,
				0.12961609661579132
			],
			"type":"VEC3"
		},
		{
			"bufferView":13,
			"componentType":5126,
			"count":250,
			"type":"VEC3"
		},
		{
			"bufferView":14,
			"componentType":5126,
			"count":250,
			"type":"VEC2"
		},
		{
			"bufferView":15,
			"componentType":5121,
			"count":250,
			"type":"VEC4"
		},
		{
			"bufferView":16,
			"componentType":5126,
			"count":250,
			"type":"VEC4"
		},
		{
			"bufferView":17,
			"componentType":5123,
			"count":1104,
			"type":"SCALAR"
		},
		{
			"bufferView":18,
			"componentType":5126,
			"count":124,
			"max":[
				0.05286936089396477,
				1.4080967903137207,
				0.14817623794078827
			],
			"min":[
				-0.05286936089396477,
				1.3951377868652344,
				0.11857232451438904
			],
			"type":"VEC3"
		},
		{
			"bufferView":19,
			"componentType":5126,
			"count":124,
			"type":"VEC3"
		},
		{
			"bufferView":20,
			"componentType":5126,
			"count":124,
			"type":"VEC2"
		},
		{
			"bufferView":21,
			"componentType":5121,
			"count":124,
			"type":"VEC4"
		},
		{
			"bufferView":22,
			"componentType":5126,
			"count":124,
			"type":"VEC4"
		},
		{
			"bufferView":23,
			"componentType":5123,
			"count":576,
			"type":"SCALAR"
		},
		{
			"bufferView":24,
			"componentType":5126,
			"count":2386,
			"max":[
				0.42301496863365173,
				1.2786704301834106,
				0.1873481720685959
			],
			"min":[
				-0.42301496863365173,
				0.7599629759788513,
				-0.08804945647716522
			],
			"type":"VEC3"
		},
		{
			"bufferView":25,
			"componentType":5126,
			"count":2386,
			"type":"VEC3"
		},
		{
			"bufferView":26,
			"componentType":5126,
			"count":2386,
			"type":"VEC2"
		},
		{
			"bufferView":27,
			"componentType":5121,
			"count":2386,
			"type":"VEC4"
		},
		{
			"bufferView":28,
			"componentType":5126,
			"count":2386,
			"type":"VEC4"
		},
		{
			"bufferView":29,
			"componentType":5123,
			"count":12492,
			"type":"SCALAR"
		},
		{
			"bufferView":30,
			"componentType":5126,
			"count":2887,
			"max":[
				0.2480342984199524,
				0.8797568678855896,
				0.1543760746717453
			],
			"min":[
				-0.2464541494846344,
				0.11687839776277542,
				-0.09231666475534439
			],
			"type":"VEC3"
		},
		{
			"bufferView":31,
			"componentType":5126,
			"count":2887,
			"type":"VEC3"
		},
		{
			"bufferView":32,
			"componentType":5126,
			"count":2887,
			"type":"VEC2"
		},
		{
			"bufferView":33,
			"componentType":5121,
			"count":2887,
			"type":"VEC4"
		},
		{
			"bufferView":34,
			"componentType":5126,
			"count":2887,
			"type":"VEC4"
		},
		{
			"bufferView":35,
			"componentType":5123,
			"count":15399,
			"type":"SCALAR"
		},
		{
			"bufferView":36,
			"componentType":5126,
			"count":3209,
			"max":[
				0.21797791123390198,
				0.04900098219513893,
				0.20222842693328857
			],
			"min":[
				-0.21790923178195953,
				-0.006757054477930069,
				-0.02489386685192585
			],
			"type":"VEC3"
		},
		{
			"bufferView":37,
			"componentType":5126,
			"count":3209,
			"type":"VEC3"
		},
		{
			"bufferView":38,
			"componentType":5126,
			"count":3209,
			"type":"VEC2"
		},
		{
			"bufferView":39,
			"componentType":5121,
			"count":3209,
			"type":"VEC4"
		},
		{
			"bufferView":40,
			"componentType":5126,
			"count":3209,
			"type":"VEC4"
		},
		{
			"bufferView":41,
			"componentType":5123,
			"count":15594,
			"type":"SCALAR"
		},
		{
			"bufferView":42,
			"componentType":5126,
			"count":4712,
			"max":[
				0.16606013476848602,
				1.5113855600357056,
				0.15543100237846375
			],
			"min":[
				-0.16606013476848602,
				1.10025155544281,
				-0.0764896497130394
			],
			"type":"VEC3"
		},
		{
			"bufferView":43,
			"componentType":5126,
			"count":4712,
			"type":"VEC3"
		},
		{
			"bufferView":44,
			"componentType":5126,
			"count":4712,
			"type":"VEC2"
		},
		{
			"bufferView":45,
			"componentType":5121,
			"count":4712,
			"type":"VEC4"
		},
		{
			"bufferView":46,
			"componentType":5126,
			"count":4712,
			"type":"VEC4"
		},
		{
			"bufferView":47,
			"componentType":5123,
			"count":27840,
			"type":"SCALAR"
		},
		{
			"bufferView":48,
			"componentType":5126,
			"count":53,
			"type":"MAT4"
		}
	],
	"bufferViews":[
		{
			"buffer":0,
			"byteLength":92028,
			"byteOffset":0,
			"target":34962
		},
		{
			"buffer":0,
			"byteLength":92028,
			"byteOffset":92028,
			"target":34962
		},
		{
			"buffer":0,
			"byteLength":61352,
			"byteOffset":184056,
			"target":34962
		},
		{
			"buffer":0,
			"byteLength":30676,
			"byteOffset":245408,
			"target":34962
		},
		{
			"buffer":0,
			"byteLength":122704,
			"byteOffset":276084,
			"target":34962
		},
		{
			"buffer":0,
			"byteLength":77400,
			"byteOffset":398788,
			"target":34963
		},
		{
			"buffer":0,
			"byteLength":1152,
			"byteOffset":476188,
			"target":34962
		},
		{
			"buffer":0,
			"byteLength":1152,
			"byteOffset":477340,
			"target":34962
		},
		{
			"buffer":0,
			"byteLength":768,
			"byteOffset":478492,
			"target":34962
		},
		{
			"buffer":0,
			"byteLength":384,
			"byteOffset":479260,
			"target":34962
		},
		{
			"buffer":0,
			"byteLength":1536,
			"byteOffset":479644,
			"target":34962
		},
		{
			"buffer":0,
			"byteLength":1032,
			"byteOffset":481180,
			"target":34963
		},
		{
			"buffer":0,
			"byteLength":3000,
			"byteOffset":482212,
			"target":34962
		},
		{
			"buffer":0,
			"byteLength":3000,
			"byteOffset":485212,
			"target":34962
		},
		{
			"buffer":0,
			"byteLength":2000,
			"byteOffset":488212,
			"target":34962
		},
		{
			"buffer":0,
			"byteLength":1000,
			"byteOffset":490212,
			"target":34962
		},
		{
			"buffer":0,
			"byteLength":4000,
			"byteOffset":491212,
			"target":34962
		},
		{
			"buffer":0,
			"byteLength":2208,
			"byteOffset":495212,
			"target":34963
		},
		{
			"buffer":0,
			"byteLength":1488,
			"byteOffset":497420,
			"target":34962
		},
		{
			"buffer":0,
			"byteLength":1488,
			"byteOffset":498908,
			"target":34962
		},
		{
			"buffer":0,
			"byteLength":992,
			"byteOffset":500396,
			"target":34962
		},
		{
			"buffer":0,
			"byteLength":496,
			"byteOffset":501388,
			"target":34962
		},
		{
			"buffer":0,
			"byteLength":1984,
			"byteOffset":501884,
			"target":34962
		},
		{
			"buffer":0,
			"byteLength":1152,
			"byteOffset":503868,
			"target":34963
		},
		{
			"buffer":0,
			"byteLength":28632,
			"byteOffset":505020,
			"target":34962
		},
		{
			"buffer":0,
			"byteLength":28632,
			"byteOffset":533652,
			"target":34962
		},
		{
			"buffer":0,
			"byteLength":19088,
			"byteOffset":562284,
			"target":34962
		},
		{
			"buffer":0,
			"byteLength":9544,
			"byteOffset":581372,
			"target":34962
		},
		{
			"buffer":0,
			"byteLength":38176,
			"byteOffset":590916,
			"target":34962
		},
		{
			"buffer":0,
			"byteLength":24984,
			"byteOffset":629092,
			"target":34963
		},
		{
			"buffer":0,
			"byteLength":34644,
			"byteOffset":654076,
			"target":34962
		},
		{
			"buffer":0,
			"byteLength":34644,
			"byteOffset":688720,
			"target":34962
		},
		{
			"buffer":0,
			"byteLength":23096,
			"byteOffset":723364,
			"target":34962
		},
		{
			"buffer":0,
			"byteLength":11548,
			"byteOffset":746460,
			"target":34962
		},
		{
			"buffer":0,
			"byteLength":46192,
			"byteOffset":758008,
			"target":34962
		},
		{
			"buffer":0,
			"byteLength":30798,
			"byteOffset":804200,
			"target":34963
		},
		{
			"buffer":0,
			"byteLength":38508,
			"byteOffset":835000,
			"target":34962
		},
		{
			"buffer":0,
			"byteLength":38508,
			"byteOffset":873508,
			"target":34962
		},
		{
			"buffer":0,
			"byteLength":25672,
			"byteOffset":912016,
			"target":34962
		},
		{
			"buffer":0,
			"byteLength":12836,
			"byteOffset":937688,
			"target":34962
		},
		{
			"buffer":0,
			"byteLength":51344,
			"byteOffset":950524,
			"target":34962
		},
		{
			"buffer":0,
			"byteLength":31188,
			"byteOffset":1001868,
			"target":34963
		},
		{
			"buffer":0,
			"byteLength":56544,
			"byteOffset":1033056,
			"target":34962
		},
		{
			"buffer":0,
			"byteLength":56544,
			"byteOffset":1089600,
			"target":34962
		},
		{
			"buffer":0,
			"byteLength":37696,
			"byteOffset":1146144,
			"target":34962
		},
		{
			"buffer":0,
			"byteLength":18848,
			"byteOffset":1183840,
			"target":34962
		},
		{
			"buffer":0,
			"byteLength":75392,
			"byteOffset":1202688,
			"target":34962
		},
		{
			"buffer":0,
			"byteLength":55680,
			"byteOffset":1278080,
			"target":34963
		},
		{
			"buffer":0,
			"byteLength":3392,
			"byteOffset":1333760
		}
	],
	"samplers":[
		{
			"magFilter":9729,
			"minFilter":9987
		}
	],
	"buffers":[
		{
			"byteLength":1337152,
			"uri":"villager.bin"
		}
	]
}
