{
	"asset":{
		"generator":"Khronos glTF Blender I/O v4.4.56",
		"version":"2.0"
	},
	"scene":0,
	"scenes":[
		{
			"name":"Scene",
			"nodes":[
				54
			]
		}
	],
	"nodes":[
		{
			"name":"index_03_l",
			"rotation":[
				0.059865180402994156,
				0.0020754102151840925,
				0.016526367515325546,
				0.9980675578117371
			],
			"scale":[
				1,
				1,
				0.9999999403953552
			],
			"translation":[
				1.043081283569336e-07,
				0.025945378467440605,
				0
			]
		},
		{
			"children":[
				0
			],
			"name":"index_02_l",
			"rotation":[
				0.10396610200405121,
				-0.000927577493712306,
				0.006462784484028816,
				0.9945594668388367
			],
			"scale":[
				0.9999998807907104,
				1,
				0.9999999403953552
			],
			"translation":[
				-2.9802322387695312e-08,
				0.02881397306919098,
				9.685754776000977e-08
			]
		},
		{
			"children":[
				1
			],
			"name":"index_01_l",
			"rotation":[
				0.1173873171210289,
				0.44006696343421936,
				-0.0018876263638958335,
				0.8902571201324463
			],
			"scale":[
				1.0000001192092896,
				1,
				1
			],
			"translation":[
				-0.014565341174602509,
				0.1166558712720871,
				0.009437784552574158
			]
		},
		{
			"name":"middle_03_l",
			"rotation":[
				0.06099478900432587,
				0.007800891995429993,
				-0.006082457024604082,
				0.998089075088501
			],
			"scale":[
				0.9999998211860657,
				0.9999999403953552,
				0.9999999403953552
			],
			"translation":[
				2.9802322387695312e-08,
				0.030129477381706238,
				4.470348358154297e-08
			]
		},
		{
			"children":[
				3
			],
			"name":"middle_02_l",
			"rotation":[
				0.047361645847558975,
				-0.006722072139382362,
				0.03761860355734825,
				0.9981465339660645
			],
			"scale":[
				1,
				1,
				1.0000001192092896
			],
			"translation":[
				5.960464477539063e-08,
				0.03779187053442001,
				2.9802322387695312e-08
			]
		},
		{
			"children":[
				4
			],
			"name":"middle_01_l",
			"rotation":[
				0.11120811849832535,
				0.3775644302368164,
				-0.1508570909500122,
				0.9068186283111572
			],
			"translation":[
				0.004883036017417908,
				0.1128159761428833,
				-0.012026265263557434
			]
		},
		{
			"name":"pinky_03_l",
			"rotation":[
				0.007365452591329813,
				-0.022446738556027412,
				-0.013571971096098423,
				0.9996287822723389
			],
			"scale":[
				1,
				1.000000238418579,
				1
			],
			"translation":[
				-4.470348358154297e-08,
				0.017279498279094696,
				-8.940696716308594e-08
			]
		},
		{
			"children":[
				6
			],
			"name":"pinky_02_l",
			"rotation":[
				0.07655299454927444,
				0.001586934202350676,
				0.02406425215303898,
				0.9967738389968872
			],
			"scale":[
				0.9999998807907104,
				0.9999999403953552,
				0.9999999403953552
			],
			"translation":[
				2.9802322387695312e-08,
				0.023574747145175934,
				1.1175870895385742e-08
			]
		},
		{
			"children":[
				7
			],
			"name":"pinky_01_l",
			"rotation":[
				0.06495952606201172,
				0.2629876732826233,
				-0.29790210723876953,
				0.9153534770011902
			],
			"scale":[
				1.0000001192092896,
				1.0000001192092896,
				1
			],
			"translation":[
				0.04057878255844116,
				0.09176267683506012,
				-0.03154953569173813
			]
		},
		{
			"name":"ring_03_l",
			"rotation":[
				0.06800445914268494,
				-0.013657350093126297,
				-0.026279844343662262,
				0.9972453713417053
			],
			"scale":[
				1.0000001192092896,
				1,
				1
			],
			"translation":[
				0,
				0.027485579252243042,
				7.450580596923828e-09
			]
		},
		{
			"children":[
				9
			],
			"name":"ring_02_l",
			"rotation":[
				0.04521142691373825,
				0.015810739248991013,
				0.046747706830501556,
				0.9977577924728394
			],
			"scale":[
				0.9999999403953552,
				1,
				1
			],
			"translation":[
				2.9802322387695312e-08,
				0.03319135308265686,
				7.450580596923828e-09
			]
		},
		{
			"children":[
				10
			],
			"name":"ring_01_l",
			"rotation":[
				0.07168513536453247,
				0.34850645065307617,
				-0.23265030980110168,
				0.9051399827003479
			],
			"scale":[
				1,
				1,
				1.0000001192092896
			],
			"translation":[
				0.021267376840114594,
				0.10393567383289337,
				-0.024734191596508026
			]
		},
		{
			"name":"thumb_03_l",
			"rotation":[
				0.1559607833623886,
				0.0664023756980896,
				-0.04609399661421776,
				0.9844502806663513
			],
			"scale":[
				0.9999999403953552,
				1,
				0.9999998211860657
			],
			"translation":[
				1.257285475730896e-08,
				0.04057496786117554,
				-5.587935447692871e-08
			]
		},
		{
			"children":[
				12
			],
			"name":"thumb_02_l",
			"rotation":[
				0.0381748341023922,
				-0.05292096361517906,
				-0.19045373797416687,
				0.979525089263916
			],
			"scale":[
				1,
				1,
				0.9999999403953552
			],
			"translation":[
				-3.91155481338501e-08,
				0.034158721566200256,
				4.842877388000488e-08
			]
		},
		{
			"children":[
				13
			],
			"name":"thumb_01_l",
			"rotation":[
				0.2771490812301636,
				0.6901177167892456,
				0.4394209682941437,
				0.503820538520813
			],
			"scale":[
				1.0000001192092896,
				1.000000238418579,
				1.0000001192092896
			],
			"translation":[
				-0.01713407412171364,
				0.0443047434091568,
				0.014951802790164948
			]
		},
		{
			"children":[
				2,
				5,
				8,
				11,
				14
			],
			"name":"hand_l",
			"rotation":[
				0.10356329381465912,
				0.41784802079200745,
				-0.008628863841295242,
				0.9025537371635437
			],
			"scale":[
				1,
				0.9999998211860657,
				1
			],
			"translation":[
				-9.033828973770142e-08,
				0.26487642526626587,
				-4.470348358154297e-08
			]
		},
		{
			"children":[
				15
			],
			"name":"lowerarm_l",
			"rotation":[
				0.38840451836586,
				0.02959033101797104,
				0.025738243013620377,
				0.9206540584564209
			],
			"scale":[
				0.9999998807907104,
				1,
				1.0000001192092896
			],
			"translation":[
				9.208451956510544e-08,
				0.26014992594718933,
				0
			]
		},
		{
			"children":[
				16
			],
			"name":"upperarm_l",
			"rotation":[
				0.0011210906086489558,
				0.023701032623648643,
				-0.3332710862159729,
				0.9425324201583862
			],
			"translation":[
				1.0395888239145279e-07,
				0.1686319261789322,
				-9.313225746154785e-10
			]
		},
		{
			"children":[
				17
			],
			"name":"clavicle_l",
			"rotation":[
				0.00045709931873716414,
				0.04969659820199013,
				-0.7622227072715759,
				0.6454042196273804
			],
			"scale":[
				0.9999999403953552,
				0.9999998807907104,
				1
			],
			"translation":[
				0.023482484742999077,
				0.262347012758255,
				0.09594860672950745
			]
		},
		{
			"name":"index_03_r",
			"rotation":[
				0.059865180402994156,
				-0.0020754102151840925,
				-0.016526367515325546,
				0.9980675578117371
			],
			"scale":[
				1,
				1,
				0.9999999403953552
			],
			"translation":[
				-1.043081283569336e-07,
				0.025945378467440605,
				0
			]
		},
		{
			"children":[
				19
			],
			"name":"index_02_r",
			"rotation":[
				0.10396610200405121,
				0.000927577493712306,
				-0.006462784484028816,
				0.9945594668388367
			],
			"scale":[
				0.9999998807907104,
				1,
				0.9999999403953552
			],
			"translation":[
				2.9802322387695312e-08,
				0.02881397306919098,
				9.685754776000977e-08
			]
		},
		{
			"children":[
				20
			],
			"name":"index_01_r",
			"rotation":[
				0.1173873171210289,
				-0.44006696343421936,
				0.0018876263638958335,
				0.8902571201324463
			],
			"scale":[
				1.0000001192092896,
				1,
				1
			],
			"translation":[
				0.014565341174602509,
				0.1166558712720871,
				0.009437784552574158
			]
		},
		{
			"name":"middle_03_r",
			"rotation":[
				0.06099478900432587,
				-0.007800891995429993,
				0.006082457024604082,
				0.998089075088501
			],
			"scale":[
				0.9999998211860657,
				0.9999999403953552,
				0.9999999403953552
			],
			"translation":[
				-2.9802322387695312e-08,
				0.030129477381706238,
				4.470348358154297e-08
			]
		},
		{
			"children":[
				22
			],
			"name":"middle_02_r",
			"rotation":[
				0.047361645847558975,
				0.006722072139382362,
				-0.03761860355734825,
				0.9981465339660645
			],
			"scale":[
				1,
				1,
				1.0000001192092896
			],
			"translation":[
				-5.960464477539063e-08,
				0.03779187053442001,
				2.9802322387695312e-08
			]
		},
		{
			"children":[
				23
			],
			"name":"middle_01_r",
			"rotation":[
				0.11120811849832535,
				-0.3775644302368164,
				0.1508570909500122,
				0.9068186283111572
			],
			"translation":[
				-0.004883036017417908,
				0.1128159761428833,
				-0.012026265263557434
			]
		},
		{
			"name":"pinky_03_r",
			"rotation":[
				0.007365452591329813,
				0.022446738556027412,
				0.013571971096098423,
				0.9996287822723389
			],
			"scale":[
				1,
				1.000000238418579,
				1
			],
			"translation":[
				4.470348358154297e-08,
				0.017279498279094696,
				-8.940696716308594e-08
			]
		},
		{
			"children":[
				25
			],
			"name":"pinky_02_r",
			"rotation":[
				0.07655299454927444,
				-0.001586934202350676,
				-0.02406425215303898,
				0.9967738389968872
			],
			"scale":[
				0.9999998807907104,
				0.9999999403953552,
				0.9999999403953552
			],
			"translation":[
				-2.9802322387695312e-08,
				0.023574747145175934,
				1.1175870895385742e-08
			]
		},
		{
			"children":[
				26
			],
			"name":"pinky_01_r",
			"rotation":[
				0.06495952606201172,
				-0.2629876732826233,
				0.29790210723876953,
				0.9153534770011902
			],
			"scale":[
				1.0000001192092896,
				1.0000001192092896,
				1
			],
			"translation":[
				-0.04057878255844116,
				0.09176267683506012,
				-0.03154953569173813
			]
		},
		{
			"name":"ring_03_r",
			"rotation":[
				0.06800445914268494,
				0.013657350093126297,
				0.026279844343662262,
				0.9972453713417053
			],
			"scale":[
				1.0000001192092896,
				1,
				1
			],
			"translation":[
				0,
				0.027485579252243042,
				7.450580596923828e-09
			]
		},
		{
			"children":[
				28
			],
			"name":"ring_02_r",
			"rotation":[
				0.04521142691373825,
				-0.015810739248991013,
				-0.046747706830501556,
				0.9977577924728394
			],
			"scale":[
				0.9999999403953552,
				1,
				1
			],
			"translation":[
				-2.9802322387695312e-08,
				0.03319135308265686,
				7.450580596923828e-09
			]
		},
		{
			"children":[
				29
			],
			"name":"ring_01_r",
			"rotation":[
				0.07168513536453247,
				-0.34850645065307617,
				0.23265030980110168,
				0.9051399827003479
			],
			"scale":[
				1,
				1,
				1.0000001192092896
			],
			"translation":[
				-0.021267376840114594,
				0.10393567383289337,
				-0.024734191596508026
			]
		},
		{
			"name":"thumb_03_r",
			"rotation":[
				0.1559607833623886,
				-0.0664023756980896,
				0.04609399661421776,
				0.9844502806663513
			],
			"scale":[
				0.9999999403953552,
				1,
				0.9999998211860657
			],
			"translation":[
				-1.257285475730896e-08,
				0.04057496786117554,
				-5.587935447692871e-08
			]
		},
		{
			"children":[
				31
			],
			"name":"thumb_02_r",
			"rotation":[
				0.0381748341023922,
				0.05292096361517906,
				0.19045373797416687,
				0.979525089263916
			],
			"scale":[
				1,
				1,
				0.9999999403953552
			],
			"translation":[
				3.91155481338501e-08,
				0.034158721566200256,
				4.842877388000488e-08
			]
		},
		{
			"children":[
				32
			],
			"name":"thumb_01_r",
			"rotation":[
				0.2771490812301636,
				-0.6901177167892456,
				-0.4394209682941437,
				0.503820538520813
			],
			"scale":[
				1.0000001192092896,
				1.000000238418579,
				1.0000001192092896
			],
			"translation":[
				0.01713407412171364,
				0.0443047434091568,
				0.014951802790164948
			]
		},
		{
			"children":[
				21,
				24,
				27,
				30,
				33
			],
			"name":"hand_r",
			"rotation":[
				0.10356329381465912,
				-0.41784802079200745,
				0.008628863841295242,
				0.9025537371635437
			],
			"scale":[
				1,
				0.9999998211860657,
				1
			],
			"translation":[
				9.033828973770142e-08,
				0.26487642526626587,
				-4.470348358154297e-08
			]
		},
		{
			"children":[
				34
			],
			"name":"lowerarm_r",
			"rotation":[
				0.38840451836586,
				-0.02959033101797104,
				-0.025738243013620377,
				0.9206540584564209
			],
			"scale":[
				0.9999998807907104,
				1,
				1.0000001192092896
			],
			"translation":[
				-9.208451956510544e-08,
				0.26014992594718933,
				0
			]
		},
		{
			"children":[
				35
			],
			"name":"upperarm_r",
			"rotation":[
				0.0011210906086489558,
				-0.023701032623648643,
				0.3332710862159729,
				0.9425324201583862
			],
			"translation":[
				-1.0395888239145279e-07,
				0.1686319261789322,
				-9.313225746154785e-10
			]
		},
		{
			"children":[
				36
			],
			"name":"clavicle_r",
			"rotation":[
				0.00045709931873716414,
				-0.04969659820199013,
				0.7622227072715759,
				0.6454042196273804
			],
			"scale":[
				0.9999999403953552,
				0.9999998807907104,
				1
			],
			"translation":[
				-0.023482484742999077,
				0.262347012758255,
				0.09594860672950745
			]
		},
		{
			"name":"head",
			"rotation":[
				-0.16490352153778076,
				0,
				0,
				0.9863097071647644
			],
			"translation":[
				0,
				0.10247070342302322,
				4.0978193283081055e-08
			]
		},
		{
			"children":[
				38
			],
			"name":"neck_01",
			"rotation":[
				0.23484164476394653,
				0,
				0,
				0.972033679485321
			],
			"scale":[
				1,
				0.9999998211860657,
				0.9999999403953552
			],
			"translation":[
				0,
				0.3400658369064331,
				0.09381873160600662
			]
		},
		{
			"children":[
				18,
				37,
				39
			],
			"name":"spine_03",
			"rotation":[
				0.004004260990768671,
				0,
				0,
				0.9999920129776001
			],
			"scale":[
				1,
				0.9999999403953552,
				1
			],
			"translation":[
				0,
				0.06399085372686386,
				-1.1175870895385742e-08
			]
		},
		{
			"children":[
				40
			],
			"name":"spine_02",
			"rotation":[
				-0.14601854979991913,
				0,
				0,
				0.9892818331718445
			],
			"translation":[
				0,
				0.07214926928281784,
				-5.587935447692871e-09
			]
		},
		{
			"children":[
				41
			],
			"name":"spine_01",
			"rotation":[
				0.23961441218852997,
				0,
				0,
				0.9708681702613831
			],
			"translation":[
				0,
				0.0936691164970398,
				-5.587935447692871e-09
			]
		},
		{
			"name":"ball_l",
			"rotation":[
				-0.24732808768749237,
				-0.24587689340114594,
				0.10516562312841415,
				0.9312967658042908
			],
			"scale":[
				1,
				1.0000001192092896,
				0.9999999403953552
			],
			"translation":[
				6.446498446166515e-09,
				0.14586849510669708,
				-6.693881005048752e-09
			]
		},
		{
			"children":[
				43
			],
			"name":"foot_l",
			"rotation":[
				-0.5407341718673706,
				-0.03154530003666878,
				0.0310670118778944,
				0.8400275707244873
			],
			"scale":[
				0.9999999403953552,
				0.9999998807907104,
				0.9999999403953552
			],
			"translation":[
				-1.5978002920746803e-08,
				0.44582557678222656,
				1.3969838619232178e-09
			]
		},
		{
			"children":[
				44
			],
			"name":"calf_l",
			"rotation":[
				0.05525682121515274,
				0.23700305819511414,
				-0.012784305959939957,
				0.9698519706726074
			],
			"scale":[
				1,
				0.9999998211860657,
				1
			],
			"translation":[
				0,
				0.4402528405189514,
				1.30385160446167e-08
			]
		},
		{
			"children":[
				45
			],
			"name":"thigh_l",
			"rotation":[
				-0.9640946388244629,
				-0.07843190431594849,
				0.22259512543678284,
				0.12174335867166519
			],
			"scale":[
				0.999999463558197,
				0.9999998211860657,
				0.9999963641166687
			],
			"translation":[
				0.11216297000646591,
				-0.0047500357031822205,
				-0.013014636933803558
			]
		},
		{
			"name":"ball_r",
			"rotation":[
				-0.24732808768749237,
				0.24587689340114594,
				-0.10516562312841415,
				0.9312967658042908
			],
			"scale":[
				1,
				1.0000001192092896,
				0.9999999403953552
			],
			"translation":[
				-6.446498446166515e-09,
				0.14586849510669708,
				-6.693881005048752e-09
			]
		},
		{
			"children":[
				47
			],
			"name":"foot_r",
			"rotation":[
				-0.5407341718673706,
				0.03154530003666878,
				-0.0310670118778944,
				0.8400275707244873
			],
			"scale":[
				0.9999999403953552,
				0.9999998807907104,
				0.9999999403953552
			],
			"translation":[
				1.5978002920746803e-08,
				0.44582557678222656,
				1.3969838619232178e-09
			]
		},
		{
			"children":[
				48
			],
			"name":"calf_r",
			"rotation":[
				0.05525682121515274,
				-0.23700305819511414,
				0.012784305959939957,
				0.9698519706726074
			],
			"scale":[
				1,
				0.9999998211860657,
				1
			],
			"translation":[
				0,
				0.4402528405189514,
				1.30385160446167e-08
			]
		},
		{
			"children":[
				49
			],
			"name":"thigh_r",
			"rotation":[
				-0.9640946388244629,
				0.07843190431594849,
				-0.22259512543678284,
				0.12174335867166519
			],
			"scale":[
				0.999999463558197,
				0.9999998211860657,
				0.9999963641166687
			],
			"translation":[
				-0.11216297000646591,
				-0.0047500357031822205,
				-0.013014636933803558
			]
		},
		{
			"children":[
				42,
				46,
				50
			],
			"name":"pelvis",
			"rotation":[
				0.5720811486244202,
				0,
				0,
				0.8201970458030701
			],
			"scale":[
				1,
				0.9999999403953552,
				1
			],
			"translation":[
				0,
				-0.004061764106154442,
				0.9625068306922913
			]
		},
		{
			"children":[
				51
			],
			"name":"Root",
			"rotation":[
				-0.7071067690849304,
				0,
				0,
				0.7071067690849304
			],
			"translation":[
				0,
				0.00010110251605510712,
				0.001790215726941824
			]
		},
		{
			"mesh":0,
			"name":"worker.001",
			"skin":0
		},
		{
			"children":[
				53,
				52
			],
			"name":"Skeleton"
		}
	],
	"materials":[
		{
			"doubleSided":true,
			"name":"skin",
			"pbrMetallicRoughness":{
				"baseColorTexture":{
					"index":0
				},
				"metallicFactor":0,
				"roughnessFactor":0.550000011920929
			}
		},
		{
			"doubleSided":true,
			"name":"eyes",
			"pbrMetallicRoughness":{
				"baseColorTexture":{
					"index":1
				},
				"metallicFactor":0,
				"roughnessFactor":0.10000000149011612
			}
		},
		{
			"alphaMode":"BLEND",
			"doubleSided":true,
			"name":"lashes",
			"pbrMetallicRoughness":{
				"baseColorTexture":{
					"index":2
				},
				"metallicFactor":0,
				"roughnessFactor":0.8500000238418579
			}
		},
		{
			"alphaMode":"BLEND",
			"doubleSided":true,
			"name":"brows",
			"pbrMetallicRoughness":{
				"baseColorTexture":{
					"index":3
				},
				"metallicFactor":0,
				"roughnessFactor":0.8500000238418579
			}
		},
		{
			"alphaMode":"BLEND",
			"doubleSided":true,
			"name":"hair",
			"pbrMetallicRoughness":{
				"baseColorTexture":{
					"index":4
				},
				"metallicFactor":0,
				"roughnessFactor":0.6000000238418579
			}
		},
		{
			"doubleSided":true,
			"name":"cloth_male_worksuit01",
			"normalTexture":{
				"index":5
			},
			"pbrMetallicRoughness":{
				"baseColorTexture":{
					"index":6
				},
				"metallicFactor":0,
				"roughnessFactor":0.8500000238418579
			}
		},
		{
			"doubleSided":true,
			"name":"cloth_shoes03",
			"pbrMetallicRoughness":{
				"baseColorTexture":{
					"index":7
				},
				"metallicFactor":0,
				"roughnessFactor":0.8500000238418579
			}
		}
	],
	"meshes":[
		{
			"name":"worker",
			"primitives":[
				{
					"attributes":{
						"POSITION":0,
						"NORMAL":1,
						"TEXCOORD_0":2,
						"JOINTS_0":3,
						"WEIGHTS_0":4
					},
					"indices":5,
					"material":0
				},
				{
					"attributes":{
						"POSITION":6,
						"NORMAL":7,
						"TEXCOORD_0":8,
						"JOINTS_0":9,
						"WEIGHTS_0":10
					},
					"indices":11,
					"material":1
				},
				{
					"attributes":{
						"POSITION":12,
						"NORMAL":13,
						"TEXCOORD_0":14,
						"JOINTS_0":15,
						"WEIGHTS_0":16
					},
					"indices":17,
					"material":2
				},
				{
					"attributes":{
						"POSITION":18,
						"NORMAL":19,
						"TEXCOORD_0":20,
						"JOINTS_0":21,
						"WEIGHTS_0":22
					},
					"indices":23,
					"material":3
				},
				{
					"attributes":{
						"POSITION":24,
						"NORMAL":25,
						"TEXCOORD_0":26,
						"JOINTS_0":27,
						"WEIGHTS_0":28
					},
					"indices":29,
					"material":4
				},
				{
					"attributes":{
						"POSITION":30,
						"NORMAL":31,
						"TEXCOORD_0":32,
						"JOINTS_0":33,
						"WEIGHTS_0":34
					},
					"indices":35,
					"material":5
				},
				{
					"attributes":{
						"POSITION":36,
						"NORMAL":37,
						"TEXCOORD_0":38,
						"JOINTS_0":39,
						"WEIGHTS_0":40
					},
					"indices":41,
					"material":6
				}
			]
		}
	],
	"textures":[
		{
			"sampler":0,
			"source":0
		},
		{
			"sampler":0,
			"source":1
		},
		{
			"sampler":0,
			"source":2
		},
		{
			"sampler":0,
			"source":3
		},
		{
			"sampler":0,
			"source":4
		},
		{
			"sampler":0,
			"source":5
		},
		{
			"sampler":0,
			"source":6
		},
		{
			"sampler":0,
			"source":7
		}
	],
	"images":[
		{
			"mimeType":"image/jpeg",
			"name":"skin_young_caucasian_male2_albedo",
			"uri":"textures/skin_young_caucasian_male2_albedo.jpg"
		},
		{
			"mimeType":"image/jpeg",
			"name":"eyes_brownlight_albedo",
			"uri":"textures/eyes_brownlight_albedo.jpg"
		},
		{
			"mimeType":"image/png",
			"name":"eyelashes01_albedo",
			"uri":"textures/eyelashes01_albedo.png"
		},
		{
			"mimeType":"image/png",
			"name":"eyebrow002_albedo",
			"uri":"textures/eyebrow002_albedo.png"
		},
		{
			"mimeType":"image/png",
			"name":"hair_short01_albedo",
			"uri":"textures/hair_short01_albedo.png"
		},
		{
			"mimeType":"image/jpeg",
			"name":"male_worksuit01_normal",
			"uri":"textures/male_worksuit01_normal.jpg"
		},
		{
			"mimeType":"image/jpeg",
			"name":"male_worksuit01_albedo",
			"uri":"textures/male_worksuit01_albedo.jpg"
		},
		{
			"mimeType":"image/jpeg",
			"name":"shoes03_albedo",
			"uri":"textures/shoes03_albedo.jpg"
		}
	],
	"skins":[
		{
			"inverseBindMatrices":42,
			"joints":[
				52,
				51,
				42,
				41,
				40,
				18,
				17,
				16,
				15,
				2,
				1,
				0,
				5,
				4,
				3,
				8,
				7,
				6,
				11,
				10,
				9,
				14,
				13,
				12,
				37,
				36,
				35,
				34,
				21,
				20,
				19,
				24,
				23,
				22,
				27,
				26,
				25,
				30,
				29,
				28,
				33,
				32,
				31,
				39,
				38,
				46,
				45,
				44,
				43,
				50,
				49,
				48,
				47
			],
			"name":"Skeleton"
		}
	],
	"accessors":[
		{
			"bufferView":0,
			"componentType":5126,
			"count":8938,
			"max":[
				0.5751720070838928,
				1.7839555740356445,
				0.3805013597011566
			],
			"min":[
				-0.5751720070838928,
				0.9681842923164368,
				-0.04829750210046768
			],
			"type":"VEC3"
		},
		{
			"bufferView":1,
			"componentType":5126,
			"count":8938,
			"type":"VEC3"
		},
		{
			"bufferView":2,
			"componentType":5126,
			"count":8938,
			"type":"VEC2"
		},
		{
			"bufferView":3,
			"componentType":5121,
			"count":8938,
			"type":"VEC4"
		},
		{
			"bufferView":4,
			"componentType":5126,
			"count":8938,
			"type":"VEC4"
		},
		{
			"bufferView":5,
			"componentType":5123,
			"count":49218,
			"type":"SCALAR"
		},
		{
			"bufferView":6,
			"componentType":5126,
			"count":96,
			"max":[
				0.04505034536123276,
				1.6873096227645874,
				0.14673815667629242
			],
			"min":[
				-0.04505034536123276,
				1.658740520477295,
				0.12219105660915375
			],
			"type":"VEC3"
		},
		{
			"bufferView":7,
			"componentType":5126,
			"count":96,
			"type":"VEC3"
		},
		{
			"bufferView":8,
			"componentType":5126,
			"count":96,
			"type":"VEC2"
		},
		{
			"bufferView":9,
			"componentType":5121,
			"count":96,
			"type":"VEC4"
		},
		{
			"bufferView":10,
			"componentType":5126,
			"count":96,
			"type":"VEC4"
		},
		{
			"bufferView":11,
			"componentType":5123,
			"count":516,
			"type":"SCALAR"
		},
		{
			"bufferView":12,
			"componentType":5126,
			"count":250,
			"max":[
				0.049626030027866364,
				1.6770035028457642,
				0.15152275562286377
			],
			"min":[
				-0.049626030027866364,
				1.6629338264465332,
				0.1369396448135376
			],
			"type":"VEC3"
		},
		{
			"bufferView":13,
			"componentType":5126,
			"count":250,
			"type":"VEC3"
		},
		{
			"bufferView":14,
			"componentType":5126,
			"count":250,
			"type":"VEC2"
		},
		{
			"bufferView":15,
			"componentType":5121,
			"count":250,
			"type":"VEC4"
		},
		{
			"bufferView":16,
			"componentType":5126,
			"count":250,
			"type":"VEC4"
		},
		{
			"bufferView":17,
			"componentType":5123,
			"count":1104,
			"type":"SCALAR"
		},
		{
			"bufferView":18,
			"componentType":5126,
			"count":124,
			"max":[
				0.059752821922302246,
				1.689736247062683,
				0.1570446491241455
			],
			"min":[
				-0.059752825647592545,
				1.6761488914489746,
				0.12629881501197815
			],
			"type":"VEC3"
		},
		{
			"bufferView":19,
			"componentType":5126,
			"count":124,
			"type":"VEC3"
		},
		{
			"bufferView":20,
			"componentType":5126,
			"count":124,
			"type":"VEC2"
		},
		{
			"bufferView":21,
			"componentType":5121,
			"count":124,
			"type":"VEC4"
		},
		{
			"bufferView":22,
			"componentType":5126,
			"count":124,
			"type":"VEC4"
		},
		{
			"bufferView":23,
			"componentType":5123,
			"count":576,
			"type":"SCALAR"
		},
		{
			"bufferView":24,
			"componentType":5126,
			"count":2789,
			"max":[
				0.07856973260641098,
				1.801055908203125,
				0.1505080610513687
			],
			"min":[
				-0.07945267111063004,
				1.5905320644378662,
				-0.06023089587688446
			],
			"type":"VEC3"
		},
		{
			"bufferView":25,
			"componentType":5126,
			"count":2789,
			"type":"VEC3"
		},
		{
			"bufferView":26,
			"componentType":5126,
			"count":2789,
			"type":"VEC2"
		},
		{
			"bufferView":27,
			"componentType":5121,
			"count":2789,
			"type":"VEC4"
		},
		{
			"bufferView":28,
			"componentType":5126,
			"count":2789,
			"type":"VEC4"
		},
		{
			"bufferView":29,
			"componentType":5123,
			"count":9609,
			"type":"SCALAR"
		},
		{
			"bufferView":30,
			"componentType":5126,
			"count":2819,
			"max":[
				0.3250404894351959,
				1.5500372648239136,
				0.16440702974796295
			],
			"min":[
				-0.32771462202072144,
				0.04000774398446083,
				-0.10780021548271179
			],
			"type":"VEC3"
		},
		{
			"bufferView":31,
			"componentType":5126,
			"count":2819,
			"type":"VEC3"
		},
		{
			"bufferView":32,
			"componentType":5126,
			"count":2819,
			"type":"VEC2"
		},
		{
			"bufferView":33,
			"componentType":5121,
			"count":2819,
			"type":"VEC4"
		},
		{
			"bufferView":34,
			"componentType":5126,
			"count":2819,
			"type":"VEC4"
		},
		{
			"bufferView":35,
			"componentType":5123,
			"count":14478,
			"type":"SCALAR"
		},
		{
			"bufferView":36,
			"componentType":5126,
			"count":2510,
			"max":[
				0.2603813409805298,
				0.21988500654697418,
				0.22698518633842468
			],
			"min":[
				-0.2603813409805298,
				-0.025607667863368988,
				-0.05273862183094025
			],
			"type":"VEC3"
		},
		{
			"bufferView":37,
			"componentType":5126,
			"count":2510,
			"type":"VEC3"
		},
		{
			"bufferView":38,
			"componentType":5126,
			"count":2510,
			"type":"VEC2"
		},
		{
			"bufferView":39,
			"componentType":5121,
			"count":2510,
			"type":"VEC4"
		},
		{
			"bufferView":40,
			"componentType":5126,
			"count":2510,
			"type":"VEC4"
		},
		{
			"bufferView":41,
			"componentType":5123,
			"count":12384,
			"type":"SCALAR"
		},
		{
			"bufferView":42,
			"componentType":5126,
			"count":53,
			"type":"MAT4"
		}
	],
	"bufferViews":[
		{
			"buffer":0,
			"byteLength":107256,
			"byteOffset":0,
			"target":34962
		},
		{
			"buffer":0,
			"byteLength":107256,
			"byteOffset":107256,
			"target":34962
		},
		{
			"buffer":0,
			"byteLength":71504,
			"byteOffset":214512,
			"target":34962
		},
		{
			"buffer":0,
			"byteLength":35752,
			"byteOffset":286016,
			"target":34962
		},
		{
			"buffer":0,
			"byteLength":143008,
			"byteOffset":321768,
			"target":34962
		},
		{
			"buffer":0,
			"byteLength":98436,
			"byteOffset":464776,
			"target":34963
		},
		{
			"buffer":0,
			"byteLength":1152,
			"byteOffset":563212,
			"target":34962
		},
		{
			"buffer":0,
			"byteLength":1152,
			"byteOffset":564364,
			"target":34962
		},
		{
			"buffer":0,
			"byteLength":768,
			"byteOffset":565516,
			"target":34962
		},
		{
			"buffer":0,
			"byteLength":384,
			"byteOffset":566284,
			"target":34962
		},
		{
			"buffer":0,
			"byteLength":1536,
			"byteOffset":566668,
			"target":34962
		},
		{
			"buffer":0,
			"byteLength":1032,
			"byteOffset":568204,
			"target":34963
		},
		{
			"buffer":0,
			"byteLength":3000,
			"byteOffset":569236,
			"target":34962
		},
		{
			"buffer":0,
			"byteLength":3000,
			"byteOffset":572236,
			"target":34962
		},
		{
			"buffer":0,
			"byteLength":2000,
			"byteOffset":575236,
			"target":34962
		},
		{
			"buffer":0,
			"byteLength":1000,
			"byteOffset":577236,
			"target":34962
		},
		{
			"buffer":0,
			"byteLength":4000,
			"byteOffset":578236,
			"target":34962
		},
		{
			"buffer":0,
			"byteLength":2208,
			"byteOffset":582236,
			"target":34963
		},
		{
			"buffer":0,
			"byteLength":1488,
			"byteOffset":584444,
			"target":34962
		},
		{
			"buffer":0,
			"byteLength":1488,
			"byteOffset":585932,
			"target":34962
		},
		{
			"buffer":0,
			"byteLength":992,
			"byteOffset":587420,
			"target":34962
		},
		{
			"buffer":0,
			"byteLength":496,
			"byteOffset":588412,
			"target":34962
		},
		{
			"buffer":0,
			"byteLength":1984,
			"byteOffset":588908,
			"target":34962
		},
		{
			"buffer":0,
			"byteLength":1152,
			"byteOffset":590892,
			"target":34963
		},
		{
			"buffer":0,
			"byteLength":33468,
			"byteOffset":592044,
			"target":34962
		},
		{
			"buffer":0,
			"byteLength":33468,
			"byteOffset":625512,
			"target":34962
		},
		{
			"buffer":0,
			"byteLength":22312,
			"byteOffset":658980,
			"target":34962
		},
		{
			"buffer":0,
			"byteLength":11156,
			"byteOffset":681292,
			"target":34962
		},
		{
			"buffer":0,
			"byteLength":44624,
			"byteOffset":692448,
			"target":34962
		},
		{
			"buffer":0,
			"byteLength":19218,
			"byteOffset":737072,
			"target":34963
		},
		{
			"buffer":0,
			"byteLength":33828,
			"byteOffset":756292,
			"target":34962
		},
		{
			"buffer":0,
			"byteLength":33828,
			"byteOffset":790120,
			"target":34962
		},
		{
			"buffer":0,
			"byteLength":22552,
			"byteOffset":823948,
			"target":34962
		},
		{
			"buffer":0,
			"byteLength":11276,
			"byteOffset":846500,
			"target":34962
		},
		{
			"buffer":0,
			"byteLength":45104,
			"byteOffset":857776,
			"target":34962
		},
		{
			"buffer":0,
			"byteLength":28956,
			"byteOffset":902880,
			"target":34963
		},
		{
			"buffer":0,
			"byteLength":30120,
			"byteOffset":931836,
			"target":34962
		},
		{
			"buffer":0,
			"byteLength":30120,
			"byteOffset":961956,
			"target":34962
		},
		{
			"buffer":0,
			"byteLength":20080,
			"byteOffset":992076,
			"target":34962
		},
		{
			"buffer":0,
			"byteLength":10040,
			"byteOffset":1012156,
			"target":34962
		},
		{
			"buffer":0,
			"byteLength":40160,
			"byteOffset":1022196,
			"target":34962
		},
		{
			"buffer":0,
			"byteLength":24768,
			"byteOffset":1062356,
			"target":34963
		},
		{
			"buffer":0,
			"byteLength":3392,
			"byteOffset":1087124
		}
	],
	"samplers":[
		{
			"magFilter":9729,
			"minFilter":9987
		}
	],
	"buffers":[
		{
			"byteLength":1090516,
			"uri":"worker.bin"
		}
	]
}
