{
	"asset":{
		"generator":"Khronos glTF Blender I/O v4.4.56",
		"version":"2.0"
	},
	"scene":0,
	"scenes":[
		{
			"name":"Scene",
			"nodes":[
				54
			]
		}
	],
	"nodes":[
		{
			"name":"index_03_l",
			"rotation":[
				0.05821453779935837,
				0.004688423592597246,
				0.016416890546679497,
				0.9981580972671509
			],
			"scale":[
				1,
				1.0000001192092896,
				1
			],
			"translation":[
				0,
				0.027156630530953407,
				1.4901161193847656e-08
			]
		},
		{
			"children":[
				0
			],
			"name":"index_02_l",
			"rotation":[
				0.10215464979410172,
				0.0029276080895215273,
				0.00639988761395216,
				0.9947436451911926
			],
			"scale":[
				1,
				0.9999999403953552,
				1
			],
			"translation":[
				-4.470348358154297e-08,
				0.030119270086288452,
				-7.450580596923828e-08
			]
		},
		{
			"children":[
				1
			],
			"name":"index_01_l",
			"rotation":[
				0.11701985448598862,
				0.44165825843811035,
				-0.002008626237511635,
				0.8895168900489807
			],
			"scale":[
				1,
				0.9999998807907104,
				1
			],
			"translation":[
				-0.015206649899482727,
				0.12204499542713165,
				0.010053597390651703
			]
		},
		{
			"name":"middle_03_l",
			"rotation":[
				0.06058138981461525,
				0.008426853455603123,
				-0.005889559164643288,
				0.9981103539466858
			],
			"scale":[
				0.9999998211860657,
				1,
				0.9999998807907104
			],
			"translation":[
				7.450580596923828e-08,
				0.03146476298570633,
				1.4901161193847656e-07
			]
		},
		{
			"children":[
				3
			],
			"name":"middle_02_l",
			"rotation":[
				0.047317344695329666,
				-0.007531691342592239,
				0.03811759501695633,
				0.9981239438056946
			],
			"translation":[
				-7.450580596923828e-08,
				0.039482250809669495,
				7.450580596923828e-08
			]
		},
		{
			"children":[
				4
			],
			"name":"middle_01_l",
			"rotation":[
				0.10862985253334045,
				0.38441357016563416,
				-0.14946787059307098,
				0.9044805765151978
			],
			"scale":[
				0.9999998807907104,
				0.9999998807907104,
				1
			],
			"translation":[
				0.005155857652425766,
				0.11804653704166412,
				-0.012338899075984955
			]
		},
		{
			"name":"pinky_03_l",
			"rotation":[
				0.007963445037603378,
				-0.023310638964176178,
				-0.0135191036388278,
				0.9996051788330078
			],
			"scale":[
				1,
				0.9999999403953552,
				1
			],
			"translation":[
				-1.4901161193847656e-08,
				0.018060103058815002,
				3.725290298461914e-08
			]
		},
		{
			"children":[
				6
			],
			"name":"pinky_02_l",
			"rotation":[
				0.07508684694766998,
				0.003777076955884695,
				0.023587051779031754,
				0.9968908429145813
			],
			"translation":[
				1.4901161193847656e-08,
				0.024683326482772827,
				3.3527612686157227e-08
			]
		},
		{
			"children":[
				7
			],
			"name":"pinky_01_l",
			"rotation":[
				0.06371261924505234,
				0.2648822069168091,
				-0.2967975437641144,
				0.9152536988258362
			],
			"scale":[
				0.9999999403953552,
				1,
				1
			],
			"translation":[
				0.0422125980257988,
				0.0960521250963211,
				-0.033223673701286316
			]
		},
		{
			"name":"ring_03_l",
			"rotation":[
				0.06671302020549774,
				-0.011700958013534546,
				-0.026000382378697395,
				0.9973647594451904
			],
			"scale":[
				1.0000001192092896,
				1,
				1
			],
			"translation":[
				-4.470348358154297e-08,
				0.028748296201229095,
				-7.450580596923828e-08
			]
		},
		{
			"children":[
				9
			],
			"name":"ring_02_l",
			"rotation":[
				0.04565454646945,
				0.014778535813093185,
				0.04687650874257088,
				0.9977473616600037
			],
			"scale":[
				1,
				0.9999999403953552,
				1.0000001192092896
			],
			"translation":[
				0,
				0.03468167781829834,
				-3.725290298461914e-08
			]
		},
		{
			"children":[
				10
			],
			"name":"ring_01_l",
			"rotation":[
				0.06956382840871811,
				0.35345447063446045,
				-0.23150648176670074,
				0.9036788940429688
			],
			"scale":[
				1,
				0.9999998807907104,
				0.9999998807907104
			],
			"translation":[
				0.022132396697998047,
				0.10877558588981628,
				-0.025859124958515167
			]
		},
		{
			"name":"thumb_03_l",
			"rotation":[
				0.1529630869626999,
				0.05746553838253021,
				-0.044897232204675674,
				0.985537588596344
			],
			"scale":[
				0.9999998807907104,
				0.9999999403953552,
				0.9999999403953552
			],
			"translation":[
				3.306195139884949e-08,
				0.04246869683265686,
				-1.1175870895385742e-07
			]
		},
		{
			"children":[
				12
			],
			"name":"thumb_02_l",
			"rotation":[
				0.03948022052645683,
				-0.05175791308283806,
				-0.1899709701538086,
				0.9796292781829834
			],
			"scale":[
				1,
				1.0000001192092896,
				1
			],
			"translation":[
				-3.3527612686157227e-08,
				0.03572189807891846,
				4.0978193283081055e-08
			]
		},
		{
			"children":[
				13
			],
			"name":"thumb_01_l",
			"rotation":[
				0.27648043632507324,
				0.6938760280609131,
				0.4384987950325012,
				0.499813437461853
			],
			"translation":[
				-0.01784290187060833,
				0.046435460448265076,
				0.015730932354927063
			]
		},
		{
			"children":[
				2,
				5,
				8,
				11,
				14
			],
			"name":"hand_l",
			"rotation":[
				0.10291334986686707,
				0.416883260011673,
				-0.009657864458858967,
				0.9030636548995972
			],
			"scale":[
				0.9999999403953552,
				1,
				0.9999998807907104
			],
			"translation":[
				7.217749953269958e-08,
				0.2777644693851471,
				5.960464477539063e-08
			]
		},
		{
			"children":[
				15
			],
			"name":"lowerarm_l",
			"rotation":[
				0.3887668550014496,
				0.0298545490950346,
				0.025077899917960167,
				0.9205108284950256
			],
			"scale":[
				1,
				0.9999999403953552,
				0.9999998807907104
			],
			"translation":[
				1.1222437024116516e-07,
				0.27547985315322876,
				-5.587935447692871e-09
			]
		},
		{
			"children":[
				16
			],
			"name":"upperarm_l",
			"rotation":[
				0.0003018162678927183,
				0.022140847519040108,
				-0.3346235156059265,
				0.942091703414917
			],
			"scale":[
				1,
				1.0000001192092896,
				0.9999999403953552
			],
			"translation":[
				-9.755603969097137e-08,
				0.17393410205841064,
				2.7939677238464355e-09
			]
		},
		{
			"children":[
				17
			],
			"name":"clavicle_l",
			"rotation":[
				0.002102527767419815,
				0.05068441107869148,
				-0.7619903087615967,
				0.6455985307693481
			],
			"scale":[
				0.9999999403953552,
				0.9999999403953552,
				0.9999999403953552
			],
			"translation":[
				0.02418108657002449,
				0.27150678634643555,
				0.09824741631746292
			]
		},
		{
			"name":"index_03_r",
			"rotation":[
				0.05821453779935837,
				-0.004688423592597246,
				-0.016416890546679497,
				0.9981580972671509
			],
			"scale":[
				1,
				1.0000001192092896,
				1
			],
			"translation":[
				0,
				0.027156630530953407,
				1.4901161193847656e-08
			]
		},
		{
			"children":[
				19
			],
			"name":"index_02_r",
			"rotation":[
				0.10215464979410172,
				-0.0029276080895215273,
				-0.00639988761395216,
				0.9947436451911926
			],
			"scale":[
				1,
				0.9999999403953552,
				1
			],
			"translation":[
				4.470348358154297e-08,
				0.030119270086288452,
				-7.450580596923828e-08
			]
		},
		{
			"children":[
				20
			],
			"name":"index_01_r",
			"rotation":[
				0.11701985448598862,
				-0.44165825843811035,
				0.002008626237511635,
				0.8895168900489807
			],
			"scale":[
				1,
				0.9999998807907104,
				1
			],
			"translation":[
				0.015206649899482727,
				0.12204499542713165,
				0.010053597390651703
			]
		},
		{
			"name":"middle_03_r",
			"rotation":[
				0.06058138981461525,
				-0.008426853455603123,
				0.005889559164643288,
				0.9981103539466858
			],
			"scale":[
				0.9999998211860657,
				1,
				0.9999998807907104
			],
			"translation":[
				-7.450580596923828e-08,
				0.03146476298570633,
				1.4901161193847656e-07
			]
		},
		{
			"children":[
				22
			],
			"name":"middle_02_r",
			"rotation":[
				0.047317344695329666,
				0.007531691342592239,
				-0.03811759501695633,
				0.9981239438056946
			],
			"translation":[
				7.450580596923828e-08,
				0.039482250809669495,
				7.450580596923828e-08
			]
		},
		{
			"children":[
				23
			],
			"name":"middle_01_r",
			"rotation":[
				0.10862985253334045,
				-0.38441357016563416,
				0.14946787059307098,
				0.9044805765151978
			],
			"scale":[
				0.9999998807907104,
				0.9999998807907104,
				1
			],
			"translation":[
				-0.005155857652425766,
				0.11804653704166412,
				-0.012338899075984955
			]
		},
		{
			"name":"pinky_03_r",
			"rotation":[
				0.007963445037603378,
				0.023310638964176178,
				0.0135191036388278,
				0.9996051788330078
			],
			"scale":[
				1,
				0.9999999403953552,
				1
			],
			"translation":[
				1.4901161193847656e-08,
				0.018060103058815002,
				3.725290298461914e-08
			]
		},
		{
			"children":[
				25
			],
			"name":"pinky_02_r",
			"rotation":[
				0.07508684694766998,
				-0.003777076955884695,
				-0.023587051779031754,
				0.9968908429145813
			],
			"translation":[
				-1.4901161193847656e-08,
				0.024683326482772827,
				3.3527612686157227e-08
			]
		},
		{
			"children":[
				26
			],
			"name":"pinky_01_r",
			"rotation":[
				0.06371261924505234,
				-0.2648822069168091,
				0.2967975437641144,
				0.9152536988258362
			],
			"scale":[
				0.9999999403953552,
				1,
				1
			],
			"translation":[
				-0.0422125980257988,
				0.0960521250963211,
				-0.033223673701286316
			]
		},
		{
			"name":"ring_03_r",
			"rotation":[
				0.06671302020549774,
				0.011700958013534546,
				0.026000382378697395,
				0.9973647594451904
			],
			"scale":[
				1.0000001192092896,
				1,
				1
			],
			"translation":[
				4.470348358154297e-08,
				0.028748296201229095,
				-7.450580596923828e-08
			]
		},
		{
			"children":[
				28
			],
			"name":"ring_02_r",
			"rotation":[
				0.04565454646945,
				-0.014778535813093185,
				-0.04687650874257088,
				0.9977473616600037
			],
			"scale":[
				1,
				0.9999999403953552,
				1.0000001192092896
			],
			"translation":[
				0,
				0.03468167781829834,
				-3.725290298461914e-08
			]
		},
		{
			"children":[
				29
			],
			"name":"ring_01_r",
			"rotation":[
				0.06956382840871811,
				-0.35345447063446045,
				0.23150648176670074,
				0.9036788940429688
			],
			"scale":[
				1,
				0.9999998807907104,
				0.9999998807907104
			],
			"translation":[
				-0.022132396697998047,
				0.10877558588981628,
				-0.025859124958515167
			]
		},
		{
			"name":"thumb_03_r",
			"rotation":[
				0.1529630869626999,
				-0.05746553838253021,
				0.044897232204675674,
				0.985537588596344
			],
			"scale":[
				0.9999998807907104,
				0.9999999403953552,
				0.9999999403953552
			],
			"translation":[
				-3.306195139884949e-08,
				0.04246869683265686,
				-1.1175870895385742e-07
			]
		},
		{
			"children":[
				31
			],
			"name":"thumb_02_r",
			"rotation":[
				0.03948022052645683,
				0.05175791308283806,
				0.1899709701538086,
				0.9796292781829834
			],
			"scale":[
				1,
				1.0000001192092896,
				1
			],
			"translation":[
				3.3527612686157227e-08,
				0.03572189807891846,
				4.0978193283081055e-08
			]
		},
		{
			"children":[
				32
			],
			"name":"thumb_01_r",
			"rotation":[
				0.27648043632507324,
				-0.6938760280609131,
				-0.4384987950325012,
				0.499813437461853
			],
			"translation":[
				0.01784290187060833,
				0.046435460448265076,
				0.015730932354927063
			]
		},
		{
			"children":[
				21,
				24,
				27,
				30,
				33
			],
			"name":"hand_r",
			"rotation":[
				0.10291334986686707,
				-0.416883260011673,
				0.009657864458858967,
				0.9030636548995972
			],
			"scale":[
				0.9999999403953552,
				1,
				0.9999998807907104
			],
			"translation":[
				-7.217749953269958e-08,
				0.2777644693851471,
				5.960464477539063e-08
			]
		},
		{
			"children":[
				34
			],
			"name":"lowerarm_r",
			"rotation":[
				0.3887668550014496,
				-0.0298545490950346,
				-0.025077899917960167,
				0.9205108284950256
			],
			"scale":[
				1,
				0.9999999403953552,
				0.9999998807907104
			],
			"translation":[
				-1.1222437024116516e-07,
				0.27547985315322876,
				-5.587935447692871e-09
			]
		},
		{
			"children":[
				35
			],
			"name":"upperarm_r",
			"rotation":[
				0.0003018162678927183,
				-0.022140847519040108,
				0.3346235156059265,
				0.942091703414917
			],
			"scale":[
				1,
				1.0000001192092896,
				0.9999999403953552
			],
			"translation":[
				9.755603969097137e-08,
				0.17393410205841064,
				2.7939677238464355e-09
			]
		},
		{
			"children":[
				36
			],
			"name":"clavicle_r",
			"rotation":[
				0.002102527767419815,
				-0.05068441107869148,
				0.7619903087615967,
				0.6455985307693481
			],
			"scale":[
				0.9999999403953552,
				0.9999999403953552,
				0.9999999403953552
			],
			"translation":[
				-0.02418108657002449,
				0.27150678634643555,
				0.09824741631746292
			]
		},
		{
			"name":"head",
			"rotation":[
				-0.1633458137512207,
				0,
				0,
				0.9865688681602478
			],
			"translation":[
				0,
				0.10646138340234756,
				-1.1175870895385742e-08
			]
		},
		{
			"children":[
				38
			],
			"name":"neck_01",
			"rotation":[
				0.23281188309192657,
				0,
				0,
				0.9725217819213867
			],
			"scale":[
				1,
				0.9999999403953552,
				0.9999998807907104
			],
			"translation":[
				0,
				0.35124173760414124,
				0.09581055492162704
			]
		},
		{
			"children":[
				18,
				37,
				39
			],
			"name":"spine_03",
			"rotation":[
				-0.014092509634792805,
				0,
				0,
				0.9999006986618042
			],
			"scale":[
				1,
				1.0000001192092896,
				1
			],
			"translation":[
				0,
				0.06794855743646622,
				1.862645149230957e-09
			]
		},
		{
			"children":[
				40
			],
			"name":"spine_02",
			"rotation":[
				-0.13148456811904907,
				0,
				0,
				0.9913182258605957
			],
			"scale":[
				1,
				0.9999999403953552,
				0.9999998807907104
			],
			"translation":[
				0,
				0.07574458420276642,
				-1.862645149230957e-09
			]
		},
		{
			"children":[
				41
			],
			"name":"spine_01",
			"rotation":[
				0.2405310869216919,
				0,
				0,
				0.9706414937973022
			],
			"scale":[
				1,
				0.9999998807907104,
				0.9999999403953552
			],
			"translation":[
				0,
				0.09652429819107056,
				3.725290298461914e-09
			]
		},
		{
			"name":"ball_l",
			"rotation":[
				-0.24859008193016052,
				-0.26176461577415466,
				0.11074648797512054,
				0.9259684085845947
			],
			"scale":[
				0.9999999403953552,
				0.9999998211860657,
				0.9999999403953552
			],
			"translation":[
				3.2741809263825417e-10,
				0.15218974649906158,
				-8.498318493366241e-09
			]
		},
		{
			"children":[
				43
			],
			"name":"foot_l",
			"rotation":[
				-0.5399484038352966,
				-0.034550804644823074,
				0.031774409115314484,
				0.8403882384300232
			],
			"scale":[
				1,
				0.9999998807907104,
				0.9999999403953552
			],
			"translation":[
				-5.820766091346741e-11,
				0.4581875503063202,
				-3.4924596548080444e-10
			]
		},
		{
			"children":[
				44
			],
			"name":"calf_l",
			"rotation":[
				0.05369393154978752,
				0.24069148302078247,
				-0.01618950255215168,
				0.9689801335334778
			],
			"scale":[
				1,
				0.9999999403953552,
				1
			],
			"translation":[
				9.313225746154785e-09,
				0.47219234704971313,
				0
			]
		},
		{
			"children":[
				45
			],
			"name":"thigh_l",
			"rotation":[
				-0.9636756181716919,
				-0.07738175243139267,
				0.2243846207857132,
				0.12244594842195511
			],
			"scale":[
				0.9999998211860657,
				0.9999998807907104,
				0.9999983310699463
			],
			"translation":[
				0.1147669330239296,
				-0.0029558083042502403,
				-0.012550285086035728
			]
		},
		{
			"name":"ball_r",
			"rotation":[
				-0.24859008193016052,
				0.26176461577415466,
				-0.11074648797512054,
				0.9259684085845947
			],
			"scale":[
				0.9999999403953552,
				0.9999998211860657,
				0.9999999403953552
			],
			"translation":[
				-3.2741809263825417e-10,
				0.15218974649906158,
				-8.498318493366241e-09
			]
		},
		{
			"children":[
				47
			],
			"name":"foot_r",
			"rotation":[
				-0.5399484038352966,
				0.034550804644823074,
				-0.031774409115314484,
				0.8403882384300232
			],
			"scale":[
				1,
				0.9999998807907104,
				0.9999999403953552
			],
			"translation":[
				5.820766091346741e-11,
				0.4581875503063202,
				-3.4924596548080444e-10
			]
		},
		{
			"children":[
				48
			],
			"name":"calf_r",
			"rotation":[
				0.05369393154978752,
				-0.24069148302078247,
				0.01618950255215168,
				0.9689801335334778
			],
			"scale":[
				1,
				0.9999999403953552,
				1
			],
			"translation":[
				-9.313225746154785e-09,
				0.47219234704971313,
				0
			]
		},
		{
			"children":[
				49
			],
			"name":"thigh_r",
			"rotation":[
				-0.9636756181716919,
				0.07738175243139267,
				-0.2243846207857132,
				0.12244594842195511
			],
			"scale":[
				0.9999998211860657,
				0.9999998807907104,
				0.9999983310699463
			],
			"translation":[
				-0.1147669330239296,
				-0.0029558083042502403,
				-0.012550285086035728
			]
		},
		{
			"children":[
				42,
				46,
				50
			],
			"name":"pelvis",
			"rotation":[
				0.5728029608726501,
				0,
				0,
				0.8196930885314941
			],
			"translation":[
				0,
				-0.005478613078594208,
				1.0079517364501953
			]
		},
		{
			"children":[
				51
			],
			"name":"Root",
			"rotation":[
				-0.7071067690849304,
				0,
				0,
				0.7071067690849304
			],
			"translation":[
				0,
				0.00023179315030574799,
				0.0005962732248008251
			]
		},
		{
			"mesh":0,
			"name":"young.001",
			"skin":0
		},
		{
			"children":[
				53,
				52
			],
			"name":"Skeleton"
		}
	],
	"materials":[
		{
			"doubleSided":true,
			"name":"skin",
			"pbrMetallicRoughness":{
				"baseColorTexture":{
					"index":0
				},
				"metallicFactor":0,
				"roughnessFactor":0.550000011920929
			}
		},
		{
			"doubleSided":true,
			"name":"eyes",
			"pbrMetallicRoughness":{
				"baseColorTexture":{
					"index":1
				},
				"metallicFactor":0,
				"roughnessFactor":0.10000000149011612
			}
		},
		{
			"alphaMode":"BLEND",
			"doubleSided":true,
			"name":"lashes",
			"pbrMetallicRoughness":{
				"baseColorTexture":{
					"index":2
				},
				"metallicFactor":0,
				"roughnessFactor":0.8500000238418579
			}
		},
		{
			"alphaMode":"BLEND",
			"doubleSided":true,
			"name":"brows",
			"pbrMetallicRoughness":{
				"baseColorTexture":{
					"index":3
				},
				"metallicFactor":0,
				"roughnessFactor":0.8500000238418579
			}
		},
		{
			"alphaMode":"BLEND",
			"doubleSided":true,
			"name":"hair",
			"pbrMetallicRoughness":{
				"baseColorTexture":{
					"index":4
				},
				"metallicFactor":0,
				"roughnessFactor":0.6000000238418579
			}
		},
		{
			"doubleSided":true,
			"name":"cloth_male_casualsuit01",
			"normalTexture":{
				"index":5
			},
			"pbrMetallicRoughness":{
				"baseColorTexture":{
					"index":6
				},
				"metallicFactor":0,
				"roughnessFactor":0.8500000238418579
			}
		},
		{
			"doubleSided":true,
			"name":"cloth_shoes05",
			"pbrMetallicRoughness":{
				"baseColorTexture":{
					"index":7
				},
				"metallicFactor":0,
				"roughnessFactor":0.8500000238418579
			}
		}
	],
	"meshes":[
		{
			"name":"young",
			"primitives":[
				{
					"attributes":{
						"POSITION":0,
						"NORMAL":1,
						"TEXCOORD_0":2,
						"JOINTS_0":3,
						"WEIGHTS_0":4
					},
					"indices":5,
					"material":0
				},
				{
					"attributes":{
						"POSITION":6,
						"NORMAL":7,
						"TEXCOORD_0":8,
						"JOINTS_0":9,
						"WEIGHTS_0":10
					},
					"indices":11,
					"material":1
				},
				{
					"attributes":{
						"POSITION":12,
						"NORMAL":13,
						"TEXCOORD_0":14,
						"JOINTS_0":15,
						"WEIGHTS_0":16
					},
					"indices":17,
					"material":2
				},
				{
					"attributes":{
						"POSITION":18,
						"NORMAL":19,
						"TEXCOORD_0":20,
						"JOINTS_0":21,
						"WEIGHTS_0":22
					},
					"indices":23,
					"material":3
				},
				{
					"attributes":{
						"POSITION":24,
						"NORMAL":25,
						"TEXCOORD_0":26,
						"JOINTS_0":27,
						"WEIGHTS_0":28
					},
					"indices":29,
					"material":4
				},
				{
					"attributes":{
						"POSITION":30,
						"NORMAL":31,
						"TEXCOORD_0":32,
						"JOINTS_0":33,
						"WEIGHTS_0":34
					},
					"indices":35,
					"material":5
				},
				{
					"attributes":{
						"POSITION":36,
						"NORMAL":37,
						"TEXCOORD_0":38,
						"JOINTS_0":39,
						"WEIGHTS_0":40
					},
					"indices":41,
					"material":6
				}
			]
		}
	],
	"textures":[
		{
			"sampler":0,
			"source":0
		},
		{
			"sampler":0,
			"source":1
		},
		{
			"sampler":0,
			"source":2
		},
		{
			"sampler":0,
			"source":3
		},
		{
			"sampler":0,
			"source":4
		},
		{
			"sampler":0,
			"source":5
		},
		{
			"sampler":0,
			"source":6
		},
		{
			"sampler":0,
			"source":7
		}
	],
	"images":[
		{
			"mimeType":"image/jpeg",
			"name":"skin_young_caucasian_male_albedo",
			"uri":"textures/skin_young_caucasian_male_albedo.jpg"
		},
		{
			"mimeType":"image/jpeg",
			"name":"eyes_brown_albedo",
			"uri":"textures/eyes_brown_albedo.jpg"
		},
		{
			"mimeType":"image/png",
			"name":"eyelashes01_albedo",
			"uri":"textures/eyelashes01_albedo.png"
		},
		{
			"mimeType":"image/png",
			"name":"eyebrow004_albedo",
			"uri":"textures/eyebrow004_albedo.png"
		},
		{
			"mimeType":"image/png",
			"name":"hair_short04_albedo",
			"uri":"textures/hair_short04_albedo.png"
		},
		{
			"mimeType":"image/jpeg",
			"name":"male_casualsuit01_normal",
			"uri":"textures/male_casualsuit01_normal.jpg"
		},
		{
			"mimeType":"image/jpeg",
			"name":"male_casualsuit01_albedo",
			"uri":"textures/male_casualsuit01_albedo.jpg"
		},
		{
			"mimeType":"image/jpeg",
			"name":"shoes05_albedo",
			"uri":"textures/shoes05_albedo.jpg"
		}
	],
	"skins":[
		{
			"inverseBindMatrices":42,
			"joints":[
				52,
				51,
				42,
				41,
				40,
				18,
				17,
				16,
				15,
				2,
				1,
				0,
				5,
				4,
				3,
				8,
				7,
				6,
				11,
				10,
				9,
				14,
				13,
				12,
				37,
				36,
				35,
				34,
				21,
				20,
				19,
				24,
				23,
				22,
				27,
				26,
				25,
				30,
				29,
				28,
				33,
				32,
				31,
				39,
				38,
				46,
				45,
				44,
				43,
				50,
				49,
				48,
				47
			],
			"name":"Skeleton"
		}
	],
	"accessors":[
		{
			"bufferView":0,
			"componentType":5126,
			"count":8137,
			"max":[
				0.600589394569397,
				1.859505295753479,
				0.3994942605495453
			],
			"min":[
				-0.600589394569397,
				1.008273959159851,
				-0.048950862139463425
			],
			"type":"VEC3"
		},
		{
			"bufferView":1,
			"componentType":5126,
			"count":8137,
			"type":"VEC3"
		},
		{
			"bufferView":2,
			"componentType":5126,
			"count":8137,
			"type":"VEC2"
		},
		{
			"bufferView":3,
			"componentType":5121,
			"count":8137,
			"type":"VEC4"
		},
		{
			"bufferView":4,
			"componentType":5126,
			"count":8137,
			"type":"VEC4"
		},
		{
			"bufferView":5,
			"componentType":5123,
			"count":44850,
			"type":"SCALAR"
		},
		{
			"bufferView":6,
			"componentType":5126,
			"count":96,
			"max":[
				0.04631119966506958,
				1.7603282928466797,
				0.15155385434627533
			],
			"min":[
				-0.04631119966506958,
				1.7309449911117554,
				0.12620940804481506
			],
			"type":"VEC3"
		},
		{
			"bufferView":7,
			"componentType":5126,
			"count":96,
			"type":"VEC3"
		},
		{
			"bufferView":8,
			"componentType":5126,
			"count":96,
			"type":"VEC2"
		},
		{
			"bufferView":9,
			"componentType":5121,
			"count":96,
			"type":"VEC4"
		},
		{
			"bufferView":10,
			"componentType":5126,
			"count":96,
			"type":"VEC4"
		},
		{
			"bufferView":11,
			"componentType":5123,
			"count":516,
			"type":"SCALAR"
		},
		{
			"bufferView":12,
			"componentType":5126,
			"count":250,
			"max":[
				0.051108237355947495,
				1.7499196529388428,
				0.15644216537475586
			],
			"min":[
				-0.051108237355947495,
				1.7353233098983765,
				0.14133168756961823
			],
			"type":"VEC3"
		},
		{
			"bufferView":13,
			"componentType":5126,
			"count":250,
			"type":"VEC3"
		},
		{
			"bufferView":14,
			"componentType":5126,
			"count":250,
			"type":"VEC2"
		},
		{
			"bufferView":15,
			"componentType":5121,
			"count":250,
			"type":"VEC4"
		},
		{
			"bufferView":16,
			"componentType":5126,
			"count":250,
			"type":"VEC4"
		},
		{
			"bufferView":17,
			"componentType":5123,
			"count":1104,
			"type":"SCALAR"
		},
		{
			"bufferView":18,
			"componentType":5126,
			"count":124,
			"max":[
				0.060687530785799026,
				1.7607566118240356,
				0.16131220757961273
			],
			"min":[
				-0.060687530785799026,
				1.7478156089782715,
				0.13253115117549896
			],
			"type":"VEC3"
		},
		{
			"bufferView":19,
			"componentType":5126,
			"count":124,
			"type":"VEC3"
		},
		{
			"bufferView":20,
			"componentType":5126,
			"count":124,
			"type":"VEC2"
		},
		{
			"bufferView":21,
			"componentType":5121,
			"count":124,
			"type":"VEC4"
		},
		{
			"bufferView":22,
			"componentType":5126,
			"count":124,
			"type":"VEC4"
		},
		{
			"bufferView":23,
			"componentType":5123,
			"count":576,
			"type":"SCALAR"
		},
		{
			"bufferView":24,
			"componentType":5126,
			"count":983,
			"max":[
				0.0819174125790596,
				1.8633450269699097,
				0.14872899651527405
			],
			"min":[
				-0.08103779703378677,
				1.6482031345367432,
				-0.05703156068921089
			],
			"type":"VEC3"
		},
		{
			"bufferView":25,
			"componentType":5126,
			"count":983,
			"type":"VEC3"
		},
		{
			"bufferView":26,
			"componentType":5126,
			"count":983,
			"type":"VEC2"
		},
		{
			"bufferView":27,
			"componentType":5121,
			"count":983,
			"type":"VEC4"
		},
		{
			"bufferView":28,
			"componentType":5126,
			"count":983,
			"type":"VEC4"
		},
		{
			"bufferView":29,
			"componentType":5123,
			"count":3150,
			"type":"SCALAR"
		},
		{
			"bufferView":30,
			"componentType":5126,
			"count":2917,
			"max":[
				0.5476155281066895,
				1.6451189517974854,
				0.25328049063682556
			],
			"min":[
				-0.5509365797042847,
				0.07680956274271011,
				-0.12802134454250336
			],
			"type":"VEC3"
		},
		{
			"bufferView":31,
			"componentType":5126,
			"count":2917,
			"type":"VEC3"
		},
		{
			"bufferView":32,
			"componentType":5126,
			"count":2917,
			"type":"VEC2"
		},
		{
			"bufferView":33,
			"componentType":5121,
			"count":2917,
			"type":"VEC4"
		},
		{
			"bufferView":34,
			"componentType":5126,
			"count":2917,
			"type":"VEC4"
		},
		{
			"bufferView":35,
			"componentType":5123,
			"count":15429,
			"type":"SCALAR"
		},
		{
			"bufferView":36,
			"componentType":5126,
			"count":1738,
			"max":[
				0.27196282148361206,
				0.22847968339920044,
				0.2359371781349182
			],
			"min":[
				-0.27196282148361206,
				-0.01819635182619095,
				-0.060663819313049316
			],
			"type":"VEC3"
		},
		{
			"bufferView":37,
			"componentType":5126,
			"count":1738,
			"type":"VEC3"
		},
		{
			"bufferView":38,
			"componentType":5126,
			"count":1738,
			"type":"VEC2"
		},
		{
			"bufferView":39,
			"componentType":5121,
			"count":1738,
			"type":"VEC4"
		},
		{
			"bufferView":40,
			"componentType":5126,
			"count":1738,
			"type":"VEC4"
		},
		{
			"bufferView":41,
			"componentType":5123,
			"count":9192,
			"type":"SCALAR"
		},
		{
			"bufferView":42,
			"componentType":5126,
			"count":53,
			"type":"MAT4"
		}
	],
	"bufferViews":[
		{
			"buffer":0,
			"byteLength":97644,
			"byteOffset":0,
			"target":34962
		},
		{
			"buffer":0,
			"byteLength":97644,
			"byteOffset":97644,
			"target":34962
		},
		{
			"buffer":0,
			"byteLength":65096,
			"byteOffset":195288,
			"target":34962
		},
		{
			"buffer":0,
			"byteLength":32548,
			"byteOffset":260384,
			"target":34962
		},
		{
			"buffer":0,
			"byteLength":130192,
			"byteOffset":292932,
			"target":34962
		},
		{
			"buffer":0,
			"byteLength":89700,
			"byteOffset":423124,
			"target":34963
		},
		{
			"buffer":0,
			"byteLength":1152,
			"byteOffset":512824,
			"target":34962
		},
		{
			"buffer":0,
			"byteLength":1152,
			"byteOffset":513976,
			"target":34962
		},
		{
			"buffer":0,
			"byteLength":768,
			"byteOffset":515128,
			"target":34962
		},
		{
			"buffer":0,
			"byteLength":384,
			"byteOffset":515896,
			"target":34962
		},
		{
			"buffer":0,
			"byteLength":1536,
			"byteOffset":516280,
			"target":34962
		},
		{
			"buffer":0,
			"byteLength":1032,
			"byteOffset":517816,
			"target":34963
		},
		{
			"buffer":0,
			"byteLength":3000,
			"byteOffset":518848,
			"target":34962
		},
		{
			"buffer":0,
			"byteLength":3000,
			"byteOffset":521848,
			"target":34962
		},
		{
			"buffer":0,
			"byteLength":2000,
			"byteOffset":524848,
			"target":34962
		},
		{
			"buffer":0,
			"byteLength":1000,
			"byteOffset":526848,
			"target":34962
		},
		{
			"buffer":0,
			"byteLength":4000,
			"byteOffset":527848,
			"target":34962
		},
		{
			"buffer":0,
			"byteLength":2208,
			"byteOffset":531848,
			"target":34963
		},
		{
			"buffer":0,
			"byteLength":1488,
			"byteOffset":534056,
			"target":34962
		},
		{
			"buffer":0,
			"byteLength":1488,
			"byteOffset":535544,
			"target":34962
		},
		{
			"buffer":0,
			"byteLength":992,
			"byteOffset":537032,
			"target":34962
		},
		{
			"buffer":0,
			"byteLength":496,
			"byteOffset":538024,
			"target":34962
		},
		{
			"buffer":0,
			"byteLength":1984,
			"byteOffset":538520,
			"target":34962
		},
		{
			"buffer":0,
			"byteLength":1152,
			"byteOffset":540504,
			"target":34963
		},
		{
			"buffer":0,
			"byteLength":11796,
			"byteOffset":541656,
			"target":34962
		},
		{
			"buffer":0,
			"byteLength":11796,
			"byteOffset":553452,
			"target":34962
		},
		{
			"buffer":0,
			"byteLength":7864,
			"byteOffset":565248,
			"target":34962
		},
		{
			"buffer":0,
			"byteLength":3932,
			"byteOffset":573112,
			"target":34962
		},
		{
			"buffer":0,
			"byteLength":15728,
			"byteOffset":577044,
			"target":34962
		},
		{
			"buffer":0,
			"byteLength":6300,
			"byteOffset":592772,
			"target":34963
		},
		{
			"buffer":0,
			"byteLength":35004,
			"byteOffset":599072,
			"target":34962
		},
		{
			"buffer":0,
			"byteLength":35004,
			"byteOffset":634076,
			"target":34962
		},
		{
			"buffer":0,
			"byteLength":23336,
			"byteOffset":669080,
			"target":34962
		},
		{
			"buffer":0,
			"byteLength":11668,
			"byteOffset":692416,
			"target":34962
		},
		{
			"buffer":0,
			"byteLength":46672,
			"byteOffset":704084,
			"target":34962
		},
		{
			"buffer":0,
			"byteLength":30858,
			"byteOffset":750756,
			"target":34963
		},
		{
			"buffer":0,
			"byteLength":20856,
			"byteOffset":781616,
			"target":34962
		},
		{
			"buffer":0,
			"byteLength":20856,
			"byteOffset":802472,
			"target":34962
		},
		{
			"buffer":0,
			"byteLength":13904,
			"byteOffset":823328,
			"target":34962
		},
		{
			"buffer":0,
			"byteLength":6952,
			"byteOffset":837232,
			"target":34962
		},
		{
			"buffer":0,
			"byteLength":27808,
			"byteOffset":844184,
			"target":34962
		},
		{
			"buffer":0,
			"byteLength":18384,
			"byteOffset":871992,
			"target":34963
		},
		{
			"buffer":0,
			"byteLength":3392,
			"byteOffset":890376
		}
	],
	"samplers":[
		{
			"magFilter":9729,
			"minFilter":9987
		}
	],
	"buffers":[
		{
			"byteLength":893768,
			"uri":"young.bin"
		}
	]
}
