{
	"asset":{
		"generator":"Khronos glTF Blender I/O v4.4.56",
		"version":"2.0"
	},
	"scene":0,
	"scenes":[
		{
			"name":"Scene",
			"nodes":[
				54
			]
		}
	],
	"nodes":[
		{
			"name":"index_03_l",
			"rotation":[
				0.06496226042509079,
				-0.0002717394381761551,
				0.02181151881814003,
				0.9976493120193481
			],
			"scale":[
				0.9999999403953552,
				0.9999999403953552,
				1
			],
			"translation":[
				2.9802322387695312e-08,
				0.020587248727679253,
				1.4901161193847656e-08
			]
		},
		{
			"children":[
				0
			],
			"name":"index_02_l",
			"rotation":[
				0.11253217607736588,
				0.01263523194938898,
				0.004445237573236227,
				0.9935578107833862
			],
			"scale":[
				0.9999999403953552,
				0.9999999403953552,
				1
			],
			"translation":[
				4.470348358154297e-08,
				0.023102037608623505,
				-7.450580596923828e-08
			]
		},
		{
			"children":[
				1
			],
			"name":"index_01_l",
			"rotation":[
				0.11512588709592819,
				0.485251247882843,
				-0.007451983634382486,
				0.8667305111885071
			],
			"scale":[
				0.9999999403953552,
				1,
				0.9999998807907104
			],
			"translation":[
				-0.010945692658424377,
				0.09424170851707458,
				0.009182814508676529
			]
		},
		{
			"name":"middle_03_l",
			"rotation":[
				0.06952676177024841,
				0.0064110117964446545,
				-0.009499253705143929,
				0.9975142478942871
			],
			"scale":[
				1,
				1.0000001192092896,
				1
			],
			"translation":[
				-2.9802322387695312e-08,
				0.024953391402959824,
				0
			]
		},
		{
			"children":[
				3
			],
			"name":"middle_02_l",
			"rotation":[
				0.04748985916376114,
				0.003134669503197074,
				0.039602652192115784,
				0.9980814456939697
			],
			"scale":[
				0.9999999403953552,
				0.9999999403953552,
				0.9999998807907104
			],
			"translation":[
				2.9802322387695312e-08,
				0.030486412346363068,
				-3.725290298461914e-08
			]
		},
		{
			"children":[
				4
			],
			"name":"middle_01_l",
			"rotation":[
				0.09976741671562195,
				0.41865602135658264,
				-0.15772001445293427,
				0.8887620568275452
			],
			"scale":[
				1,
				0.9999999403953552,
				0.9999998807907104
			],
			"translation":[
				0.0024895966053009033,
				0.09057019650936127,
				-0.010139521211385727
			]
		},
		{
			"name":"pinky_03_l",
			"rotation":[
				-0.0016675373772159219,
				-0.010086849331855774,
				-0.012714259326457977,
				0.9998669028282166
			],
			"scale":[
				0.9999998807907104,
				0.9999999403953552,
				0.9999999403953552
			],
			"translation":[
				2.9802322387695312e-08,
				0.014106269925832748,
				-1.1175870895385742e-08
			]
		},
		{
			"children":[
				6
			],
			"name":"pinky_02_l",
			"rotation":[
				0.07767317444086075,
				0.009565101936459541,
				0.03127143159508705,
				0.996442437171936
			],
			"scale":[
				0.9999999403953552,
				1,
				0.9999999403953552
			],
			"translation":[
				-7.450580596923828e-09,
				0.019075490534305573,
				-2.9802322387695312e-08
			]
		},
		{
			"children":[
				7
			],
			"name":"pinky_01_l",
			"rotation":[
				0.042146235704422,
				0.30372416973114014,
				-0.31110531091690063,
				0.8995492458343506
			],
			"scale":[
				1,
				1.0000001192092896,
				0.9999999403953552
			],
			"translation":[
				0.02879910171031952,
				0.07447114586830139,
				-0.02947196736931801
			]
		},
		{
			"name":"ring_03_l",
			"rotation":[
				0.0594559907913208,
				0.005430561024695635,
				-0.027183247730135918,
				0.9978459477424622
			],
			"scale":[
				1,
				1,
				0.9999999403953552
			],
			"translation":[
				1.4901161193847656e-08,
				0.022106334567070007,
				2.9802322387695312e-08
			]
		},
		{
			"children":[
				9
			],
			"name":"ring_02_l",
			"rotation":[
				0.06759914755821228,
				-0.007413393352180719,
				0.045970719307661057,
				0.9966253638267517
			],
			"scale":[
				0.9999999403953552,
				0.9999999403953552,
				1
			],
			"translation":[
				2.9802322387695312e-08,
				0.026858597993850708,
				-7.450580596923828e-08
			]
		},
		{
			"children":[
				10
			],
			"name":"ring_01_l",
			"rotation":[
				0.0474848747253418,
				0.4036337733268738,
				-0.23372100293636322,
				0.8832889795303345
			],
			"scale":[
				0.9999998807907104,
				0.9999999403953552,
				0.9999998807907104
			],
			"translation":[
				0.014384321868419647,
				0.08406227827072144,
				-0.02165936306118965
			]
		},
		{
			"name":"thumb_03_l",
			"rotation":[
				0.1437739133834839,
				-0.03161986544728279,
				-0.026487451046705246,
				0.9887505769729614
			],
			"scale":[
				1,
				1,
				0.9999999403953552
			],
			"translation":[
				1.4901161193847656e-08,
				0.03223639726638794,
				6.705522537231445e-08
			]
		},
		{
			"children":[
				12
			],
			"name":"thumb_02_l",
			"rotation":[
				0.08695054799318314,
				-0.011011548340320587,
				-0.17849421501159668,
				0.9800297021865845
			],
			"scale":[
				1,
				1,
				0.9999999403953552
			],
			"translation":[
				-5.960464477539063e-08,
				0.027791932225227356,
				-1.1175870895385742e-08
			]
		},
		{
			"children":[
				13
			],
			"name":"thumb_01_l",
			"rotation":[
				0.27101531624794006,
				0.7535193562507629,
				0.4483487606048584,
				0.3971683084964752
			],
			"scale":[
				1.0000001192092896,
				0.9999998807907104,
				0.9999999403953552
			],
			"translation":[
				-0.01223032921552658,
				0.035003140568733215,
				0.013853874057531357
			]
		},
		{
			"children":[
				2,
				5,
				8,
				11,
				14
			],
			"name":"hand_l",
			"rotation":[
				0.11788451671600342,
				0.4318281412124634,
				-0.009908867999911308,
				0.8941641449928284
			],
			"scale":[
				1,
				0.9999999403953552,
				1
			],
			"translation":[
				-5.122274160385132e-08,
				0.2118014693260193,
				7.450580596923828e-09
			]
		},
		{
			"children":[
				15
			],
			"name":"lowerarm_l",
			"rotation":[
				0.33147284388542175,
				-0.030890226364135742,
				-0.022163134068250656,
				0.9426984190940857
			],
			"scale":[
				0.9999999403953552,
				1.0000001192092896,
				1
			],
			"translation":[
				5.5355485528707504e-08,
				0.2326357662677765,
				0
			]
		},
		{
			"children":[
				16
			],
			"name":"upperarm_l",
			"rotation":[
				-0.000821055262349546,
				-0.003793184645473957,
				-0.35014259815216064,
				0.9366883635520935
			],
			"scale":[
				1.0000001192092896,
				1.0000001192092896,
				1
			],
			"translation":[
				-6.670597940683365e-08,
				0.13252529501914978,
				-2.2118911147117615e-09
			]
		},
		{
			"children":[
				17
			],
			"name":"clavicle_l",
			"rotation":[
				-0.014280634932219982,
				-0.010242341086268425,
				-0.746151328086853,
				0.6655444502830505
			],
			"scale":[
				1,
				1,
				0.9999999403953552
			],
			"translation":[
				0.023055005818605423,
				0.2268969565629959,
				0.008475018665194511
			]
		},
		{
			"name":"index_03_r",
			"rotation":[
				0.06496226042509079,
				0.0002717394381761551,
				-0.02181151881814003,
				0.9976493120193481
			],
			"scale":[
				0.9999999403953552,
				0.9999999403953552,
				1
			],
			"translation":[
				-2.9802322387695312e-08,
				0.020587248727679253,
				1.4901161193847656e-08
			]
		},
		{
			"children":[
				19
			],
			"name":"index_02_r",
			"rotation":[
				0.11253217607736588,
				-0.01263523194938898,
				-0.004445237573236227,
				0.9935578107833862
			],
			"scale":[
				0.9999999403953552,
				0.9999999403953552,
				1
			],
			"translation":[
				-4.470348358154297e-08,
				0.023102037608623505,
				-7.450580596923828e-08
			]
		},
		{
			"children":[
				20
			],
			"name":"index_01_r",
			"rotation":[
				0.11512588709592819,
				-0.485251247882843,
				0.007451983634382486,
				0.8667305111885071
			],
			"scale":[
				0.9999999403953552,
				1,
				0.9999998807907104
			],
			"translation":[
				0.010945692658424377,
				0.09424170851707458,
				0.009182814508676529
			]
		},
		{
			"name":"middle_03_r",
			"rotation":[
				0.06952676177024841,
				-0.0064110117964446545,
				0.009499253705143929,
				0.9975142478942871
			],
			"scale":[
				1,
				1.0000001192092896,
				1
			],
			"translation":[
				2.9802322387695312e-08,
				0.024953391402959824,
				0
			]
		},
		{
			"children":[
				22
			],
			"name":"middle_02_r",
			"rotation":[
				0.04748985916376114,
				-0.003134669503197074,
				-0.039602652192115784,
				0.9980814456939697
			],
			"scale":[
				0.9999999403953552,
				0.9999999403953552,
				0.9999998807907104
			],
			"translation":[
				-2.9802322387695312e-08,
				0.030486412346363068,
				-3.725290298461914e-08
			]
		},
		{
			"children":[
				23
			],
			"name":"middle_01_r",
			"rotation":[
				0.09976741671562195,
				-0.41865602135658264,
				0.15772001445293427,
				0.8887620568275452
			],
			"scale":[
				1,
				0.9999999403953552,
				0.9999998807907104
			],
			"translation":[
				-0.0024895966053009033,
				0.09057019650936127,
				-0.010139521211385727
			]
		},
		{
			"name":"pinky_03_r",
			"rotation":[
				-0.0016675373772159219,
				0.010086849331855774,
				0.012714259326457977,
				0.9998669028282166
			],
			"scale":[
				0.9999998807907104,
				0.9999999403953552,
				0.9999999403953552
			],
			"translation":[
				-2.9802322387695312e-08,
				0.014106269925832748,
				-1.1175870895385742e-08
			]
		},
		{
			"children":[
				25
			],
			"name":"pinky_02_r",
			"rotation":[
				0.07767317444086075,
				-0.009565101936459541,
				-0.03127143159508705,
				0.996442437171936
			],
			"scale":[
				0.9999999403953552,
				1,
				0.9999999403953552
			],
			"translation":[
				7.450580596923828e-09,
				0.019075490534305573,
				-2.9802322387695312e-08
			]
		},
		{
			"children":[
				26
			],
			"name":"pinky_01_r",
			"rotation":[
				0.042146235704422,
				-0.30372416973114014,
				0.31110531091690063,
				0.8995492458343506
			],
			"scale":[
				1,
				1.0000001192092896,
				0.9999999403953552
			],
			"translation":[
				-0.02879910171031952,
				0.07447114586830139,
				-0.02947196736931801
			]
		},
		{
			"name":"ring_03_r",
			"rotation":[
				0.0594559907913208,
				-0.005430561024695635,
				0.027183247730135918,
				0.9978459477424622
			],
			"scale":[
				1,
				1,
				0.9999999403953552
			],
			"translation":[
				-1.4901161193847656e-08,
				0.022106334567070007,
				2.9802322387695312e-08
			]
		},
		{
			"children":[
				28
			],
			"name":"ring_02_r",
			"rotation":[
				0.06759914755821228,
				0.007413393352180719,
				-0.045970719307661057,
				0.9966253638267517
			],
			"scale":[
				0.9999999403953552,
				0.9999999403953552,
				1
			],
			"translation":[
				-2.9802322387695312e-08,
				0.026858597993850708,
				-7.450580596923828e-08
			]
		},
		{
			"children":[
				29
			],
			"name":"ring_01_r",
			"rotation":[
				0.0474848747253418,
				-0.4036337733268738,
				0.23372100293636322,
				0.8832889795303345
			],
			"scale":[
				0.9999998807907104,
				0.9999999403953552,
				0.9999998807907104
			],
			"translation":[
				-0.014384321868419647,
				0.08406227827072144,
				-0.02165936306118965
			]
		},
		{
			"name":"thumb_03_r",
			"rotation":[
				0.1437739133834839,
				0.03161986544728279,
				0.026487451046705246,
				0.9887505769729614
			],
			"scale":[
				1,
				1,
				0.9999999403953552
			],
			"translation":[
				-1.4901161193847656e-08,
				0.03223639726638794,
				6.705522537231445e-08
			]
		},
		{
			"children":[
				31
			],
			"name":"thumb_02_r",
			"rotation":[
				0.08695054799318314,
				0.011011548340320587,
				0.17849421501159668,
				0.9800297021865845
			],
			"scale":[
				1,
				1,
				0.9999999403953552
			],
			"translation":[
				5.960464477539063e-08,
				0.027791932225227356,
				-1.1175870895385742e-08
			]
		},
		{
			"children":[
				32
			],
			"name":"thumb_01_r",
			"rotation":[
				0.27101531624794006,
				-0.7535193562507629,
				-0.4483487606048584,
				0.3971683084964752
			],
			"scale":[
				1.0000001192092896,
				0.9999998807907104,
				0.9999999403953552
			],
			"translation":[
				0.01223032921552658,
				0.035003140568733215,
				0.013853874057531357
			]
		},
		{
			"children":[
				21,
				24,
				27,
				30,
				33
			],
			"name":"hand_r",
			"rotation":[
				0.11788451671600342,
				-0.4318281412124634,
				0.009908867999911308,
				0.8941641449928284
			],
			"scale":[
				1,
				0.9999999403953552,
				1
			],
			"translation":[
				5.122274160385132e-08,
				0.2118014693260193,
				7.450580596923828e-09
			]
		},
		{
			"children":[
				34
			],
			"name":"lowerarm_r",
			"rotation":[
				0.33147284388542175,
				0.030890226364135742,
				0.022163134068250656,
				0.9426984190940857
			],
			"scale":[
				0.9999999403953552,
				1.0000001192092896,
				1
			],
			"translation":[
				-5.5355485528707504e-08,
				0.2326357662677765,
				0
			]
		},
		{
			"children":[
				35
			],
			"name":"upperarm_r",
			"rotation":[
				-0.000821055262349546,
				0.003793184645473957,
				0.35014259815216064,
				0.9366883635520935
			],
			"scale":[
				1.0000001192092896,
				1.0000001192092896,
				1
			],
			"translation":[
				6.670597940683365e-08,
				0.13252529501914978,
				-2.2118911147117615e-09
			]
		},
		{
			"children":[
				36
			],
			"name":"clavicle_r",
			"rotation":[
				-0.014280634932219982,
				0.010242341086268425,
				0.746151328086853,
				0.6655444502830505
			],
			"scale":[
				1,
				1,
				0.9999999403953552
			],
			"translation":[
				-0.023055005818605423,
				0.2268969565629959,
				0.008475018665194511
			]
		},
		{
			"name":"head",
			"rotation":[
				-0.20088700950145721,
				0,
				0,
				0.9796144366264343
			],
			"translation":[
				0,
				0.11809669435024261,
				-7.450580596923828e-09
			]
		},
		{
			"children":[
				38
			],
			"name":"neck_01",
			"rotation":[
				0.17615094780921936,
				0,
				0,
				0.9843631982803345
			],
			"scale":[
				1,
				1.0000001192092896,
				0.9999999403953552
			],
			"translation":[
				0,
				0.29541707038879395,
				-0.014388499781489372
			]
		},
		{
			"children":[
				18,
				37,
				39
			],
			"name":"spine_03",
			"rotation":[
				-0.06642355769872665,
				0,
				0,
				0.9977915287017822
			],
			"translation":[
				0,
				0.0893983542919159,
				-9.313225746154785e-10
			]
		},
		{
			"children":[
				40
			],
			"name":"spine_02",
			"rotation":[
				-0.09847629815340042,
				0,
				0,
				0.9951394200325012
			],
			"scale":[
				1,
				0.9999999403953552,
				0.9999998807907104
			],
			"translation":[
				0,
				0.06566806882619858,
				-3.841705620288849e-09
			]
		},
		{
			"children":[
				41
			],
			"name":"spine_01",
			"rotation":[
				0.4362189769744873,
				0,
				0,
				0.8998405933380127
			],
			"scale":[
				1,
				0.9999999403953552,
				0.9999999403953552
			],
			"translation":[
				0,
				0.0843125656247139,
				7.450580596923828e-09
			]
		},
		{
			"name":"ball_l",
			"rotation":[
				-0.2439374178647995,
				0.39436015486717224,
				-0.07598064094781876,
				0.8827239274978638
			],
			"scale":[
				0.9999998807907104,
				0.9999998211860657,
				1
			],
			"translation":[
				-2.1653249859809875e-08,
				0.12189284712076187,
				1.862645149230957e-09
			]
		},
		{
			"children":[
				43
			],
			"name":"foot_l",
			"rotation":[
				-0.5356956124305725,
				0.028868045657873154,
				-0.021069910377264023,
				0.8436545133590698
			],
			"translation":[
				-2.89292074739933e-08,
				0.38661107420921326,
				-9.313225746154785e-10
			]
		},
		{
			"children":[
				44
			],
			"name":"calf_l",
			"rotation":[
				0.06798070669174194,
				0.22287073731422424,
				-0.0016984672984108329,
				0.9724733233451843
			],
			"scale":[
				1.0000001192092896,
				1,
				1.0000001192092896
			],
			"translation":[
				-1.30385160446167e-08,
				0.3683754801750183,
				7.450580596923828e-09
			]
		},
		{
			"children":[
				45
			],
			"name":"thigh_l",
			"rotation":[
				-0.9472588896751404,
				-0.10386643558740616,
				0.20787502825260162,
				0.22068163752555847
			],
			"scale":[
				1,
				1.0000001192092896,
				1.0000003576278687
			],
			"translation":[
				0.0953427255153656,
				-0.006875335238873959,
				-0.010922781191766262
			]
		},
		{
			"name":"ball_r",
			"rotation":[
				-0.2439374178647995,
				-0.39436015486717224,
				0.07598064094781876,
				0.8827239274978638
			],
			"scale":[
				0.9999998807907104,
				0.9999998211860657,
				1
			],
			"translation":[
				2.1653249859809875e-08,
				0.12189284712076187,
				1.862645149230957e-09
			]
		},
		{
			"children":[
				47
			],
			"name":"foot_r",
			"rotation":[
				-0.5356956124305725,
				-0.028868045657873154,
				0.021069910377264023,
				0.8436545133590698
			],
			"translation":[
				2.89292074739933e-08,
				0.38661107420921326,
				-9.313225746154785e-10
			]
		},
		{
			"children":[
				48
			],
			"name":"calf_r",
			"rotation":[
				0.06798070669174194,
				-0.22287073731422424,
				0.0016984672984108329,
				0.9724733233451843
			],
			"scale":[
				1.0000001192092896,
				1,
				1.0000001192092896
			],
			"translation":[
				1.30385160446167e-08,
				0.3683754801750183,
				7.450580596923828e-09
			]
		},
		{
			"children":[
				49
			],
			"name":"thigh_r",
			"rotation":[
				-0.9472588896751404,
				0.10386643558740616,
				-0.20787502825260162,
				0.22068163752555847
			],
			"scale":[
				1,
				1.0000001192092896,
				1.0000003576278687
			],
			"translation":[
				-0.0953427255153656,
				-0.006875335238873959,
				-0.010922781191766262
			]
		},
		{
			"children":[
				42,
				46,
				50
			],
			"name":"pelvis",
			"rotation":[
				0.48155003786087036,
				0,
				0,
				0.8764185905456543
			],
			"translation":[
				0,
				-0.022385140880942345,
				0.8292482495307922
			]
		},
		{
			"children":[
				51
			],
			"name":"Root",
			"rotation":[
				-0.7071067690849304,
				0,
				0,
				0.7071067690849304
			],
			"translation":[
				0,
				0.00017864443361759186,
				6.100162863731384e-08
			]
		},
		{
			"mesh":0,
			"name":"zeynep.001",
			"skin":0
		},
		{
			"children":[
				53,
				52
			],
			"name":"Skeleton"
		}
	],
	"materials":[
		{
			"doubleSided":true,
			"name":"skin",
			"pbrMetallicRoughness":{
				"baseColorTexture":{
					"index":0
				},
				"metallicFactor":0,
				"roughnessFactor":0.550000011920929
			}
		},
		{
			"doubleSided":true,
			"name":"eyes",
			"pbrMetallicRoughness":{
				"baseColorTexture":{
					"index":1
				},
				"metallicFactor":0,
				"roughnessFactor":0.10000000149011612
			}
		},
		{
			"alphaMode":"BLEND",
			"doubleSided":true,
			"name":"lashes",
			"pbrMetallicRoughness":{
				"baseColorTexture":{
					"index":2
				},
				"metallicFactor":0,
				"roughnessFactor":0.8500000238418579
			}
		},
		{
			"alphaMode":"BLEND",
			"doubleSided":true,
			"name":"brows",
			"pbrMetallicRoughness":{
				"baseColorTexture":{
					"index":3
				},
				"metallicFactor":0,
				"roughnessFactor":0.8500000238418579
			}
		},
		{
			"alphaMode":"BLEND",
			"doubleSided":true,
			"name":"hair",
			"pbrMetallicRoughness":{
				"baseColorTexture":{
					"index":4
				},
				"metallicFactor":0,
				"roughnessFactor":0.6000000238418579
			}
		},
		{
			"doubleSided":true,
			"name":"cloth_female_casualsuit01",
			"normalTexture":{
				"index":5
			},
			"pbrMetallicRoughness":{
				"baseColorTexture":{
					"index":6
				},
				"metallicFactor":0,
				"roughnessFactor":0.8500000238418579
			}
		},
		{
			"doubleSided":true,
			"name":"cloth_toigo_fisherman_sweater",
			"pbrMetallicRoughness":{
				"baseColorTexture":{
					"index":7
				},
				"metallicFactor":0,
				"roughnessFactor":0.8500000238418579
			}
		},
		{
			"doubleSided":true,
			"name":"cloth_toigo_ankle_boots_female",
			"normalTexture":{
				"index":8
			},
			"pbrMetallicRoughness":{
				"baseColorTexture":{
					"index":9
				},
				"metallicFactor":0,
				"roughnessFactor":0.8500000238418579
			}
		}
	],
	"meshes":[
		{
			"name":"zeynep",
			"primitives":[
				{
					"attributes":{
						"POSITION":0,
						"NORMAL":1,
						"TEXCOORD_0":2,
						"JOINTS_0":3,
						"WEIGHTS_0":4
					},
					"indices":5,
					"material":0
				},
				{
					"attributes":{
						"POSITION":6,
						"NORMAL":7,
						"TEXCOORD_0":8,
						"JOINTS_0":9,
						"WEIGHTS_0":10
					},
					"indices":11,
					"material":1
				},
				{
					"attributes":{
						"POSITION":12,
						"NORMAL":13,
						"TEXCOORD_0":14,
						"JOINTS_0":15,
						"WEIGHTS_0":16
					},
					"indices":17,
					"material":2
				},
				{
					"attributes":{
						"POSITION":18,
						"NORMAL":19,
						"TEXCOORD_0":20,
						"JOINTS_0":21,
						"WEIGHTS_0":22
					},
					"indices":23,
					"material":3
				},
				{
					"attributes":{
						"POSITION":24,
						"NORMAL":25,
						"TEXCOORD_0":26,
						"JOINTS_0":27,
						"WEIGHTS_0":28
					},
					"indices":29,
					"material":4
				},
				{
					"attributes":{
						"POSITION":30,
						"NORMAL":31,
						"TEXCOORD_0":32,
						"JOINTS_0":33,
						"WEIGHTS_0":34
					},
					"indices":35,
					"material":5
				},
				{
					"attributes":{
						"POSITION":36,
						"NORMAL":37,
						"TEXCOORD_0":38,
						"JOINTS_0":39,
						"WEIGHTS_0":40
					},
					"indices":41,
					"material":6
				},
				{
					"attributes":{
						"POSITION":42,
						"NORMAL":43,
						"TEXCOORD_0":44,
						"JOINTS_0":45,
						"WEIGHTS_0":46
					},
					"indices":47,
					"material":7
				}
			]
		}
	],
	"textures":[
		{
			"sampler":0,
			"source":0
		},
		{
			"sampler":0,
			"source":1
		},
		{
			"sampler":0,
			"source":2
		},
		{
			"sampler":0,
			"source":3
		},
		{
			"sampler":0,
			"source":4
		},
		{
			"sampler":0,
			"source":5
		},
		{
			"sampler":0,
			"source":6
		},
		{
			"sampler":0,
			"source":7
		},
		{
			"sampler":0,
			"source":8
		},
		{
			"sampler":0,
			"source":9
		}
	],
	"images":[
		{
			"mimeType":"image/jpeg",
			"name":"skin_toigo_light_skin_with_natural_makeup_rose_albedo",
			"uri":"textures/skin_toigo_light_skin_with_natural_makeup_rose_albedo.jpg"
		},
		{
			"mimeType":"image/jpeg",
			"name":"eyes_brown_albedo",
			"uri":"textures/eyes_brown_albedo.jpg"
		},
		{
			"mimeType":"image/png",
			"name":"eyelashes02_albedo",
			"uri":"textures/eyelashes02_albedo.png"
		},
		{
			"mimeType":"image/png",
			"name":"eyebrow005_albedo",
			"uri":"textures/eyebrow005_albedo.png"
		},
		{
			"mimeType":"image/png",
			"name":"hair_ponytail01_dark_albedo",
			"uri":"textures/hair_ponytail01_dark_albedo.png"
		},
		{
			"mimeType":"image/jpeg",
			"name":"female_casualsuit01_normal",
			"uri":"textures/female_casualsuit01_normal.jpg"
		},
		{
			"mimeType":"image/jpeg",
			"name":"female_casualsuit01_albedo",
			"uri":"textures/female_casualsuit01_albedo.jpg"
		},
		{
			"mimeType":"image/jpeg",
			"name":"toigo_fisherman_sweater_ecru_albedo",
			"uri":"textures/toigo_fisherman_sweater_ecru_albedo.jpg"
		},
		{
			"mimeType":"image/jpeg",
			"name":"toigo_ankle_boots_female_normal",
			"uri":"textures/toigo_ankle_boots_female_normal.jpg"
		},
		{
			"mimeType":"image/jpeg",
			"name":"toigo_ankle_boots_female_tan_albedo",
			"uri":"textures/toigo_ankle_boots_female_tan_albedo.jpg"
		}
	],
	"skins":[
		{
			"inverseBindMatrices":48,
			"joints":[
				52,
				51,
				42,
				41,
				40,
				18,
				17,
				16,
				15,
				2,
				1,
				0,
				5,
				4,
				3,
				8,
				7,
				6,
				11,
				10,
				9,
				14,
				13,
				12,
				37,
				36,
				35,
				34,
				21,
				20,
				19,
				24,
				23,
				22,
				27,
				26,
				25,
				30,
				29,
				28,
				33,
				32,
				31,
				39,
				38,
				46,
				45,
				44,
				43,
				50,
				49,
				48,
				47
			],
			"name":"Skeleton"
		}
	],
	"accessors":[
		{
			"bufferView":0,
			"componentType":5126,
			"count":8296,
			"max":[
				0.4865739643573761,
				1.597937822341919,
				0.2918618321418762
			],
			"min":[
				-0.4865739643573761,
				0.8513278365135193,
				-0.04494520276784897
			],
			"type":"VEC3"
		},
		{
			"bufferView":1,
			"componentType":5126,
			"count":8296,
			"type":"VEC3"
		},
		{
			"bufferView":2,
			"componentType":5126,
			"count":8296,
			"type":"VEC2"
		},
		{
			"bufferView":3,
			"componentType":5121,
			"count":8296,
			"type":"VEC4"
		},
		{
			"bufferView":4,
			"componentType":5126,
			"count":8296,
			"type":"VEC4"
		},
		{
			"bufferView":5,
			"componentType":5123,
			"count":45552,
			"type":"SCALAR"
		},
		{
			"bufferView":6,
			"componentType":5126,
			"count":96,
			"max":[
				0.04315803945064545,
				1.5013532638549805,
				0.12639087438583374
			],
			"min":[
				-0.04315803945064545,
				1.4727412462234497,
				0.10453396290540695
			],
			"type":"VEC3"
		},
		{
			"bufferView":7,
			"componentType":5126,
			"count":96,
			"type":"VEC3"
		},
		{
			"bufferView":8,
			"componentType":5126,
			"count":96,
			"type":"VEC2"
		},
		{
			"bufferView":9,
			"componentType":5121,
			"count":96,
			"type":"VEC4"
		},
		{
			"bufferView":10,
			"componentType":5126,
			"count":96,
			"type":"VEC4"
		},
		{
			"bufferView":11,
			"componentType":5123,
			"count":516,
			"type":"SCALAR"
		},
		{
			"bufferView":12,
			"componentType":5126,
			"count":250,
			"max":[
				0.05393647775053978,
				1.4950376749038696,
				0.1308564841747284
			],
			"min":[
				-0.05393647775053978,
				1.478387475013733,
				0.1188405230641365
			],
			"type":"VEC3"
		},
		{
			"bufferView":13,
			"componentType":5126,
			"count":250,
			"type":"VEC3"
		},
		{
			"bufferView":14,
			"componentType":5126,
			"count":250,
			"type":"VEC2"
		},
		{
			"bufferView":15,
			"componentType":5121,
			"count":250,
			"type":"VEC4"
		},
		{
			"bufferView":16,
			"componentType":5126,
			"count":250,
			"type":"VEC4"
		},
		{
			"bufferView":17,
			"componentType":5123,
			"count":1104,
			"type":"SCALAR"
		},
		{
			"bufferView":18,
			"componentType":5126,
			"count":124,
			"max":[
				0.05419294908642769,
				1.5062990188598633,
				0.1369701325893402
			],
			"min":[
				-0.05419294536113739,
				1.493044376373291,
				0.109876848757267
			],
			"type":"VEC3"
		},
		{
			"bufferView":19,
			"componentType":5126,
			"count":124,
			"type":"VEC3"
		},
		{
			"bufferView":20,
			"componentType":5126,
			"count":124,
			"type":"VEC2"
		},
		{
			"bufferView":21,
			"componentType":5121,
			"count":124,
			"type":"VEC4"
		},
		{
			"bufferView":22,
			"componentType":5126,
			"count":124,
			"type":"VEC4"
		},
		{
			"bufferView":23,
			"componentType":5123,
			"count":576,
			"type":"SCALAR"
		},
		{
			"bufferView":24,
			"componentType":5126,
			"count":3001,
			"max":[
				0.07857091724872589,
				1.6051886081695557,
				0.12361610680818558
			],
			"min":[
				-0.07966358959674835,
				1.2426024675369263,
				-0.11765629053115845
			],
			"type":"VEC3"
		},
		{
			"bufferView":25,
			"componentType":5126,
			"count":3001,
			"type":"VEC3"
		},
		{
			"bufferView":26,
			"componentType":5126,
			"count":3001,
			"type":"VEC2"
		},
		{
			"bufferView":27,
			"componentType":5121,
			"count":3001,
			"type":"VEC4"
		},
		{
			"bufferView":28,
			"componentType":5126,
			"count":3001,
			"type":"VEC4"
		},
		{
			"bufferView":29,
			"componentType":5123,
			"count":11223,
			"type":"SCALAR"
		},
		{
			"bufferView":30,
			"componentType":5126,
			"count":950,
			"max":[
				0.2087007462978363,
				0.8941853642463684,
				0.13417722284793854
			],
			"min":[
				-0.2097756415605545,
				0.07958544790744781,
				-0.09222036600112915
			],
			"type":"VEC3"
		},
		{
			"bufferView":31,
			"componentType":5126,
			"count":950,
			"type":"VEC3"
		},
		{
			"bufferView":32,
			"componentType":5126,
			"count":950,
			"type":"VEC2"
		},
		{
			"bufferView":33,
			"componentType":5121,
			"count":950,
			"type":"VEC4"
		},
		{
			"bufferView":34,
			"componentType":5126,
			"count":950,
			"type":"VEC4"
		},
		{
			"bufferView":35,
			"componentType":5123,
			"count":5136,
			"type":"SCALAR"
		},
		{
			"bufferView":36,
			"componentType":5126,
			"count":2386,
			"max":[
				0.4423312544822693,
				1.3673110008239746,
				0.17190876603126526
			],
			"min":[
				-0.4423312544822693,
				0.826195478439331,
				-0.08735286444425583
			],
			"type":"VEC3"
		},
		{
			"bufferView":37,
			"componentType":5126,
			"count":2386,
			"type":"VEC3"
		},
		{
			"bufferView":38,
			"componentType":5126,
			"count":2386,
			"type":"VEC2"
		},
		{
			"bufferView":39,
			"componentType":5121,
			"count":2386,
			"type":"VEC4"
		},
		{
			"bufferView":40,
			"componentType":5126,
			"count":2386,
			"type":"VEC4"
		},
		{
			"bufferView":41,
			"componentType":5123,
			"count":12492,
			"type":"SCALAR"
		},
		{
			"bufferView":42,
			"componentType":5126,
			"count":2416,
			"max":[
				0.2144225388765335,
				0.13314244151115417,
				0.1818985939025879
			],
			"min":[
				-0.2144225388765335,
				-0.017552560195326805,
				-0.01651880145072937
			],
			"type":"VEC3"
		},
		{
			"bufferView":43,
			"componentType":5126,
			"count":2416,
			"type":"VEC3"
		},
		{
			"bufferView":44,
			"componentType":5126,
			"count":2416,
			"type":"VEC2"
		},
		{
			"bufferView":45,
			"componentType":5121,
			"count":2416,
			"type":"VEC4"
		},
		{
			"bufferView":46,
			"componentType":5126,
			"count":2416,
			"type":"VEC4"
		},
		{
			"bufferView":47,
			"componentType":5123,
			"count":12360,
			"type":"SCALAR"
		},
		{
			"bufferView":48,
			"componentType":5126,
			"count":53,
			"type":"MAT4"
		}
	],
	"bufferViews":[
		{
			"buffer":0,
			"byteLength":99552,
			"byteOffset":0,
			"target":34962
		},
		{
			"buffer":0,
			"byteLength":99552,
			"byteOffset":99552,
			"target":34962
		},
		{
			"buffer":0,
			"byteLength":66368,
			"byteOffset":199104,
			"target":34962
		},
		{
			"buffer":0,
			"byteLength":33184,
			"byteOffset":265472,
			"target":34962
		},
		{
			"buffer":0,
			"byteLength":132736,
			"byteOffset":298656,
			"target":34962
		},
		{
			"buffer":0,
			"byteLength":91104,
			"byteOffset":431392,
			"target":34963
		},
		{
			"buffer":0,
			"byteLength":1152,
			"byteOffset":522496,
			"target":34962
		},
		{
			"buffer":0,
			"byteLength":1152,
			"byteOffset":523648,
			"target":34962
		},
		{
			"buffer":0,
			"byteLength":768,
			"byteOffset":524800,
			"target":34962
		},
		{
			"buffer":0,
			"byteLength":384,
			"byteOffset":525568,
			"target":34962
		},
		{
			"buffer":0,
			"byteLength":1536,
			"byteOffset":525952,
			"target":34962
		},
		{
			"buffer":0,
			"byteLength":1032,
			"byteOffset":527488,
			"target":34963
		},
		{
			"buffer":0,
			"byteLength":3000,
			"byteOffset":528520,
			"target":34962
		},
		{
			"buffer":0,
			"byteLength":3000,
			"byteOffset":531520,
			"target":34962
		},
		{
			"buffer":0,
			"byteLength":2000,
			"byteOffset":534520,
			"target":34962
		},
		{
			"buffer":0,
			"byteLength":1000,
			"byteOffset":536520,
			"target":34962
		},
		{
			"buffer":0,
			"byteLength":4000,
			"byteOffset":537520,
			"target":34962
		},
		{
			"buffer":0,
			"byteLength":2208,
			"byteOffset":541520,
			"target":34963
		},
		{
			"buffer":0,
			"byteLength":1488,
			"byteOffset":543728,
			"target":34962
		},
		{
			"buffer":0,
			"byteLength":1488,
			"byteOffset":545216,
			"target":34962
		},
		{
			"buffer":0,
			"byteLength":992,
			"byteOffset":546704,
			"target":34962
		},
		{
			"buffer":0,
			"byteLength":496,
			"byteOffset":547696,
			"target":34962
		},
		{
			"buffer":0,
			"byteLength":1984,
			"byteOffset":548192,
			"target":34962
		},
		{
			"buffer":0,
			"byteLength":1152,
			"byteOffset":550176,
			"target":34963
		},
		{
			"buffer":0,
			"byteLength":36012,
			"byteOffset":551328,
			"target":34962
		},
		{
			"buffer":0,
			"byteLength":36012,
			"byteOffset":587340,
			"target":34962
		},
		{
			"buffer":0,
			"byteLength":24008,
			"byteOffset":623352,
			"target":34962
		},
		{
			"buffer":0,
			"byteLength":12004,
			"byteOffset":647360,
			"target":34962
		},
		{
			"buffer":0,
			"byteLength":48016,
			"byteOffset":659364,
			"target":34962
		},
		{
			"buffer":0,
			"byteLength":22446,
			"byteOffset":707380,
			"target":34963
		},
		{
			"buffer":0,
			"byteLength":11400,
			"byteOffset":729828,
			"target":34962
		},
		{
			"buffer":0,
			"byteLength":11400,
			"byteOffset":741228,
			"target":34962
		},
		{
			"buffer":0,
			"byteLength":7600,
			"byteOffset":752628,
			"target":34962
		},
		{
			"buffer":0,
			"byteLength":3800,
			"byteOffset":760228,
			"target":34962
		},
		{
			"buffer":0,
			"byteLength":15200,
			"byteOffset":764028,
			"target":34962
		},
		{
			"buffer":0,
			"byteLength":10272,
			"byteOffset":779228,
			"target":34963
		},
		{
			"buffer":0,
			"byteLength":28632,
			"byteOffset":789500,
			"target":34962
		},
		{
			"buffer":0,
			"byteLength":28632,
			"byteOffset":818132,
			"target":34962
		},
		{
			"buffer":0,
			"byteLength":19088,
			"byteOffset":846764,
			"target":34962
		},
		{
			"buffer":0,
			"byteLength":9544,
			"byteOffset":865852,
			"target":34962
		},
		{
			"buffer":0,
			"byteLength":38176,
			"byteOffset":875396,
			"target":34962
		},
		{
			"buffer":0,
			"byteLength":24984,
			"byteOffset":913572,
			"target":34963
		},
		{
			"buffer":0,
			"byteLength":28992,
			"byteOffset":938556,
			"target":34962
		},
		{
			"buffer":0,
			"byteLength":28992,
			"byteOffset":967548,
			"target":34962
		},
		{
			"buffer":0,
			"byteLength":19328,
			"byteOffset":996540,
			"target":34962
		},
		{
			"buffer":0,
			"byteLength":9664,
			"byteOffset":1015868,
			"target":34962
		},
		{
			"buffer":0,
			"byteLength":38656,
			"byteOffset":1025532,
			"target":34962
		},
		{
			"buffer":0,
			"byteLength":24720,
			"byteOffset":1064188,
			"target":34963
		},
		{
			"buffer":0,
			"byteLength":3392,
			"byteOffset":1088908
		}
	],
	"samplers":[
		{
			"magFilter":9729,
			"minFilter":9987
		}
	],
	"buffers":[
		{
			"byteLength":1092300,
			"uri":"zeynep.bin"
		}
	]
}
