{
 "asset": {
  "generator": "Khronos glTF Blender I/O v4.4.56",
  "version": "2.0",
  "extras": {
   "bin_md5": "7ab80236ab727b9f4d693eb7774892cb"
  }
 },
 "extensionsUsed": [
  "KHR_materials_specular"
 ],
 "scene": 0,
 "scenes": [
  {
   "name": "Scene",
   "nodes": [
    33
   ]
  }
 ],
 "nodes": [
  {
   "name": "nose",
   "rotation": [
    -0.03693641349673271,
    0,
    0,
    0.9993176460266113
   ],
   "scale": [
    1,
    0.9999998807907104,
    0.9999999403953552
   ],
   "translation": [
    0,
    0.04694333299994469,
    -0.0025148275308310986
   ]
  },
  {
   "name": "jaw",
   "rotation": [
    -0.16114625334739685,
    0,
    0,
    0.9869305491447449
   ],
   "scale": [
    1,
    0.9999999403953552,
    0.9999999403953552
   ],
   "translation": [
    0,
    0.00976911373436451,
    -0.007318779826164246
   ]
  },
  {
   "name": "ear_l2",
   "rotation": [
    0.04682290926575661,
    -0.04108373820781708,
    -0.017517371103167534,
    0.9979042410850525
   ],
   "translation": [
    0,
    0.033783309161663055,
    6.05359673500061e-09
   ]
  },
  {
   "children": [
    2
   ],
   "name": "ear_l",
   "rotation": [
    0.8084967136383057,
    0.0028301123529672623,
    0.17551393806934357,
    0.5617116093635559
   ],
   "scale": [
    0.9999999403953552,
    0.9999998211860657,
    0.9999998211860657
   ],
   "translation": [
    -0.012500000186264515,
    -0.002047307789325714,
    0.045089419931173325
   ]
  },
  {
   "name": "ear_r2",
   "rotation": [
    0.04682290926575661,
    0.04108373820781708,
    0.017517371103167534,
    0.9979042410850525
   ],
   "translation": [
    0,
    0.033783309161663055,
    6.05359673500061e-09
   ]
  },
  {
   "children": [
    4
   ],
   "name": "ear_r",
   "rotation": [
    0.8084967136383057,
    -0.0028301123529672623,
    -0.17551393806934357,
    0.5617116093635559
   ],
   "scale": [
    0.9999999403953552,
    0.9999998211860657,
    0.9999998211860657
   ],
   "translation": [
    0.012500000186264515,
    -0.002047307789325714,
    0.045089419931173325
   ]
  },
  {
   "children": [
    0,
    1,
    3,
    5
   ],
   "name": "head",
   "rotation": [
    -0.43700242042541504,
    0,
    0,
    0.8994603157043457
   ],
   "scale": [
    1,
    1.0000001192092896,
    1.0000001192092896
   ],
   "translation": [
    0,
    0.042201895266771317,
    -3.725290298461914e-09
   ]
  },
  {
   "children": [
    6
   ],
   "name": "neck",
   "rotation": [
    0.24747498333454132,
    0,
    0,
    0.9688943028450012
   ],
   "translation": [
    0,
    0.03310588747262955,
    7.450580596923828e-09
   ]
  },
  {
   "name": "fl_toe",
   "rotation": [
    0.13600467145442963,
    -3.64342311875987e-09,
    0.019429240375757217,
    0.9905176758766174
   ],
   "scale": [
    0.9999999403953552,
    0.9999999403953552,
    0.9999999403953552
   ],
   "translation": [
    1.3496901374310255e-09,
    0.025980763137340546,
    2.684828359633684e-09
   ]
  },
  {
   "children": [
    8
   ],
   "name": "fl_ft",
   "rotation": [
    0.43298259377479553,
    0.007307225372642279,
    0.008636427111923695,
    0.9013313055038452
   ],
   "scale": [
    1,
    0.9999999403953552,
    1.0000001192092896
   ],
   "translation": [
    -3.7834979593753815e-10,
    0.035878267139196396,
    1.1641532182693481e-10
   ]
  },
  {
   "children": [
    9
   ],
   "name": "fl_lo",
   "rotation": [
    0.04541568085551262,
    -0.014750544913113117,
    0.024359246715903282,
    0.998562216758728
   ],
   "scale": [
    1,
    0.9999998807907104,
    0.9999999403953552
   ],
   "translation": [
    6.984919309616089e-10,
    0.046346526592969894,
    -1.3969838619232178e-09
   ]
  },
  {
   "children": [
    10
   ],
   "name": "fl_up",
   "rotation": [
    -0.7490960359573364,
    -0.011583395302295685,
    -0.052212875336408615,
    0.6602990627288818
   ],
   "scale": [
    0.9999999403953552,
    1,
    0.9999999403953552
   ],
   "translation": [
    -0.02800000086426735,
    0.002114422619342804,
    -0.012022022157907486
   ]
  },
  {
   "name": "fr_toe",
   "rotation": [
    0.13600467145442963,
    3.64342311875987e-09,
    -0.019429240375757217,
    0.9905176758766174
   ],
   "scale": [
    0.9999999403953552,
    0.9999999403953552,
    0.9999999403953552
   ],
   "translation": [
    -1.3496901374310255e-09,
    0.025980763137340546,
    2.684828359633684e-09
   ]
  },
  {
   "children": [
    12
   ],
   "name": "fr_ft",
   "rotation": [
    0.43298259377479553,
    -0.007307225372642279,
    -0.008636427111923695,
    0.9013313055038452
   ],
   "scale": [
    1,
    0.9999999403953552,
    1.0000001192092896
   ],
   "translation": [
    3.7834979593753815e-10,
    0.035878267139196396,
    1.1641532182693481e-10
   ]
  },
  {
   "children": [
    13
   ],
   "name": "fr_lo",
   "rotation": [
    0.04541568085551262,
    0.014750544913113117,
    -0.024359246715903282,
    0.998562216758728
   ],
   "scale": [
    1,
    0.9999998807907104,
    0.9999999403953552
   ],
   "translation": [
    -6.984919309616089e-10,
    0.046346526592969894,
    -1.3969838619232178e-09
   ]
  },
  {
   "children": [
    14
   ],
   "name": "fr_up",
   "rotation": [
    -0.7490960359573364,
    0.011583395302295685,
    0.052212875336408615,
    0.6602990627288818
   ],
   "scale": [
    0.9999999403953552,
    1,
    0.9999999403953552
   ],
   "translation": [
    0.02800000086426735,
    0.002114422619342804,
    -0.012022022157907486
   ]
  },
  {
   "children": [
    7,
    11,
    15
   ],
   "name": "chest",
   "rotation": [
    0.2165835052728653,
    0,
    0,
    0.9762641191482544
   ],
   "translation": [
    0,
    0.05000000074505806,
    0
   ]
  },
  {
   "children": [
    16
   ],
   "name": "spine",
   "rotation": [
    -0.11750044673681259,
    0,
    0,
    0.9930728077888489
   ],
   "scale": [
    1,
    1,
    0.9999999403953552
   ],
   "translation": [
    0,
    0.05141984298825264,
    6.868503987789154e-09
   ]
  },
  {
   "name": "tail",
   "rotation": [
    0.8470927476882935,
    0,
    0,
    0.5314451456069946
   ],
   "scale": [
    1,
    0.9999999403953552,
    0.9999998211860657
   ],
   "translation": [
    0,
    -0.06499436497688293,
    -0.0008556991815567017
   ]
  },
  {
   "name": "rl_toe",
   "rotation": [
    0.050976675003767014,
    -1.4090455913162714e-08,
    0.007842564955353737,
    0.9986690282821655
   ],
   "translation": [
    5.909441824769601e-09,
    0.127679243683815,
    -6.002665031701326e-10
   ]
  },
  {
   "children": [
    19
   ],
   "name": "rl_ft",
   "rotation": [
    0.9816439151763916,
    0.009865752421319485,
    -0.0422549843788147,
    0.18572145700454712
   ],
   "scale": [
    0.9999998807907104,
    0.9999999403953552,
    0.9999998807907104
   ],
   "translation": [
    -2.3865140974521637e-09,
    0.08929165452718735,
    3.259629011154175e-09
   ]
  },
  {
   "children": [
    20
   ],
   "name": "rl_lo",
   "rotation": [
    -0.9209770560264587,
    0.01623987779021263,
    0.03614675998687744,
    0.3875964283943176
   ],
   "scale": [
    1,
    1,
    0.9999998211860657
   ],
   "translation": [
    4.3655745685100555e-11,
    0.0762627050280571,
    2.6775524020195007e-09
   ]
  },
  {
   "children": [
    21
   ],
   "name": "rl_up",
   "rotation": [
    -0.36966028809547424,
    0.003190674353390932,
    0.02696647122502327,
    0.928770124912262
   ],
   "scale": [
    1,
    1.0000001192092896,
    1
   ],
   "translation": [
    -0.0430000014603138,
    -0.008206941187381744,
    -0.004200697876513004
   ]
  },
  {
   "name": "rr_toe",
   "rotation": [
    0.050976675003767014,
    1.4090455913162714e-08,
    -0.007842564955353737,
    0.9986690282821655
   ],
   "translation": [
    -5.909441824769601e-09,
    0.127679243683815,
    -6.002665031701326e-10
   ]
  },
  {
   "children": [
    23
   ],
   "name": "rr_ft",
   "rotation": [
    0.9816439151763916,
    -0.009865752421319485,
    0.0422549843788147,
    0.18572145700454712
   ],
   "scale": [
    0.9999998807907104,
    0.9999999403953552,
    0.9999998807907104
   ],
   "translation": [
    2.3865140974521637e-09,
    0.08929165452718735,
    3.259629011154175e-09
   ]
  },
  {
   "children": [
    24
   ],
   "name": "rr_lo",
   "rotation": [
    -0.9209770560264587,
    -0.01623987779021263,
    -0.03614675998687744,
    0.3875964283943176
   ],
   "scale": [
    1,
    1,
    0.9999998211860657
   ],
   "translation": [
    -4.3655745685100555e-11,
    0.0762627050280571,
    2.6775524020195007e-09
   ]
  },
  {
   "children": [
    25
   ],
   "name": "rr_up",
   "rotation": [
    -0.36966028809547424,
    -0.003190674353390932,
    -0.02696647122502327,
    0.928770124912262
   ],
   "scale": [
    1,
    1.0000001192092896,
    1
   ],
   "translation": [
    0.0430000014603138,
    -0.008206941187381744,
    -0.004200697876513004
   ]
  },
  {
   "children": [
    17,
    18,
    22,
    26
   ],
   "name": "body",
   "rotation": [
    0.11750044673681259,
    0,
    0,
    0.9930728077888489
   ],
   "scale": [
    1,
    0.9999999403953552,
    1
   ],
   "translation": [
    0,
    -0.054999999701976776,
    0.08799999952316284
   ]
  },
  {
   "children": [
    27
   ],
   "name": "root",
   "rotation": [
    -0.7071067690849304,
    0,
    0,
    0.7071067690849304
   ]
  },
  {
   "mesh": 0,
   "name": "Body",
   "skin": 0
  },
  {
   "mesh": 1,
   "name": "Eye",
   "skin": 0
  },
  {
   "mesh": 2,
   "name": "Fur",
   "skin": 0
  },
  {
   "mesh": 3,
   "name": "Whiskers",
   "skin": 0
  },
  {
   "children": [
    29,
    30,
    31,
    32,
    28
   ],
   "name": "RabbitRig"
  }
 ],
 "materials": [
  {
   "doubleSided": true,
   "extensions": {
    "KHR_materials_specular": {
     "specularFactor": 0.5
    }
   },
   "name": "rabbit_coat",
   "pbrMetallicRoughness": {
    "baseColorTexture": {
     "index": 0
    },
    "metallicFactor": 0,
    "roughnessFactor": 0.8500000238418579
   }
  },
  {
   "doubleSided": true,
   "extensions": {
    "KHR_materials_specular": {
     "specularColorFactor": [
      1.600000023841858,
      1.600000023841858,
      1.600000023841858
     ]
    }
   },
   "name": "rabbit_eye",
   "pbrMetallicRoughness": {
    "baseColorTexture": {
     "index": 1
    },
    "metallicFactor": 0,
    "roughnessFactor": 0.03999999910593033
   }
  },
  {
   "doubleSided": true,
   "extensions": {
    "KHR_materials_specular": {
     "specularFactor": 0.4000000059604645
    }
   },
   "name": "rabbit_fur",
   "pbrMetallicRoughness": {
    "baseColorTexture": {
     "index": 2
    },
    "metallicFactor": 0,
    "roughnessFactor": 0.8999999761581421
   }
  },
  {
   "doubleSided": true,
   "extensions": {
    "KHR_materials_specular": {
     "specularFactor": 0.800000011920929
    }
   },
   "name": "rabbit_whisker",
   "pbrMetallicRoughness": {
    "baseColorFactor": [
     0.05000000074505806,
     0.04500000178813934,
     0.03999999910593033,
     1
    ],
    "metallicFactor": 0,
    "roughnessFactor": 0.3499999940395355
   }
  }
 ],
 "meshes": [
  {
   "name": "Body.002",
   "primitives": [
    {
     "attributes": {
      "POSITION": 0,
      "NORMAL": 1,
      "TEXCOORD_0": 2,
      "JOINTS_0": 3,
      "WEIGHTS_0": 4
     },
     "indices": 5,
     "material": 0
    }
   ]
  },
  {
   "name": "Eye",
   "primitives": [
    {
     "attributes": {
      "POSITION": 7,
      "NORMAL": 8,
      "TEXCOORD_0": 9,
      "JOINTS_0": 10,
      "WEIGHTS_0": 11
     },
     "indices": 12,
     "material": 1
    }
   ]
  },
  {
   "name": "Fur",
   "primitives": [
    {
     "attributes": {
      "POSITION": 13,
      "NORMAL": 14,
      "TEXCOORD_0": 15,
      "TEXCOORD_1": 16,
      "JOINTS_0": 17,
      "WEIGHTS_0": 18
     },
     "indices": 19,
     "material": 2
    }
   ]
  },
  {
   "name": "Whiskers",
   "primitives": [
    {
     "attributes": {
      "POSITION": 20,
      "NORMAL": 21,
      "JOINTS_0": 22,
      "WEIGHTS_0": 23
     },
     "indices": 24,
     "material": 3
    }
   ]
  }
 ],
 "textures": [
  {
   "sampler": 0,
   "source": 0
  },
  {
   "sampler": 0,
   "source": 1
  },
  {
   "sampler": 0,
   "source": 0
  }
 ],
 "images": [
  {
   "mimeType": "image/png",
   "name": "rabbit_coat",
   "uri": "textures/rabbit_coat.png"
  },
  {
   "mimeType": "image/png",
   "name": "rabbit_eye",
   "uri": "textures/rabbit_eye.png"
  }
 ],
 "skins": [
  {
   "inverseBindMatrices": 6,
   "joints": [
    28,
    27,
    17,
    16,
    7,
    6,
    0,
    1,
    3,
    2,
    5,
    4,
    11,
    10,
    9,
    8,
    15,
    14,
    13,
    12,
    18,
    22,
    21,
    20,
    19,
    26,
    25,
    24,
    23
   ],
   "name": "RabbitRig"
  }
 ],
 "accessors": [
  {
   "bufferView": 0,
   "componentType": 5126,
   "count": 13226,
   "max": [
    0.08004029095172882,
    0.2606525719165802,
    0.14979206025600433
   ],
   "min": [
    -0.0799977034330368,
    0.0012019039131700993,
    -0.171018585562706
   ],
   "type": "VEC3"
  },
  {
   "bufferView": 1,
   "componentType": 5126,
   "count": 13226,
   "type": "VEC3"
  },
  {
   "bufferView": 2,
   "componentType": 5126,
   "count": 13226,
   "type": "VEC2"
  },
  {
   "bufferView": 3,
   "componentType": 5121,
   "count": 13226,
   "type": "VEC4"
  },
  {
   "bufferView": 4,
   "componentType": 5126,
   "count": 13226,
   "type": "VEC4"
  },
  {
   "bufferView": 5,
   "componentType": 5123,
   "count": 65376,
   "type": "SCALAR"
  },
  {
   "bufferView": 6,
   "componentType": 5126,
   "count": 29,
   "type": "MAT4"
  },
  {
   "bufferView": 7,
   "componentType": 5126,
   "count": 844,
   "max": [
    0.0319732204079628,
    0.17467398941516876,
    -0.12231887876987457
   ],
   "min": [
    -0.0319732204079628,
    0.15632601082324982,
    -0.14068113267421722
   ],
   "type": "VEC3"
  },
  {
   "bufferView": 8,
   "componentType": 5126,
   "count": 844,
   "type": "VEC3"
  },
  {
   "bufferView": 9,
   "componentType": 5126,
   "count": 844,
   "type": "VEC2"
  },
  {
   "bufferView": 10,
   "componentType": 5121,
   "count": 844,
   "type": "VEC4"
  },
  {
   "bufferView": 11,
   "componentType": 5126,
   "count": 844,
   "type": "VEC4"
  },
  {
   "bufferView": 12,
   "componentType": 5123,
   "count": 5040,
   "type": "SCALAR"
  },
  {
   "bufferView": 13,
   "componentType": 5126,
   "count": 68208,
   "max": [
    0.0800836980342865,
    0.2606898546218872,
    0.14978691935539246
   ],
   "min": [
    -0.08012659102678299,
    0.0011574247619137168,
    -0.17105640470981598
   ],
   "type": "VEC3"
  },
  {
   "bufferView": 14,
   "componentType": 5126,
   "count": 68208,
   "type": "VEC3"
  },
  {
   "bufferView": 15,
   "componentType": 5126,
   "count": 68208,
   "type": "VEC2"
  },
  {
   "bufferView": 16,
   "componentType": 5126,
   "count": 68208,
   "type": "VEC2"
  },
  {
   "bufferView": 17,
   "componentType": 5121,
   "count": 68208,
   "type": "VEC4"
  },
  {
   "bufferView": 18,
   "componentType": 5126,
   "count": 68208,
   "type": "VEC4"
  },
  {
   "bufferView": 19,
   "componentType": 5125,
   "count": 287808,
   "type": "SCALAR"
  },
  {
   "bufferView": 20,
   "componentType": 5126,
   "count": 2098,
   "max": [
    0.08239788562059402,
    0.19798755645751953,
    -0.1249651163816452
   ],
   "min": [
    -0.08079425245523453,
    0.10643593221902847,
    -0.1745823472738266
   ],
   "type": "VEC3"
  },
  {
   "bufferView": 21,
   "componentType": 5126,
   "count": 2098,
   "type": "VEC3"
  },
  {
   "bufferView": 22,
   "componentType": 5121,
   "count": 2098,
   "type": "VEC4"
  },
  {
   "bufferView": 23,
   "componentType": 5126,
   "count": 2098,
   "type": "VEC4"
  },
  {
   "bufferView": 24,
   "componentType": 5123,
   "count": 3168,
   "type": "SCALAR"
  }
 ],
 "bufferViews": [
  {
   "buffer": 0,
   "byteLength": 158712,
   "byteOffset": 0,
   "target": 34962
  },
  {
   "buffer": 0,
   "byteLength": 158712,
   "byteOffset": 158712,
   "target": 34962
  },
  {
   "buffer": 0,
   "byteLength": 105808,
   "byteOffset": 317424,
   "target": 34962
  },
  {
   "buffer": 0,
   "byteLength": 52904,
   "byteOffset": 423232,
   "target": 34962
  },
  {
   "buffer": 0,
   "byteLength": 211616,
   "byteOffset": 476136,
   "target": 34962
  },
  {
   "buffer": 0,
   "byteLength": 130752,
   "byteOffset": 687752,
   "target": 34963
  },
  {
   "buffer": 0,
   "byteLength": 1856,
   "byteOffset": 818504
  },
  {
   "buffer": 0,
   "byteLength": 10128,
   "byteOffset": 820360,
   "target": 34962
  },
  {
   "buffer": 0,
   "byteLength": 10128,
   "byteOffset": 830488,
   "target": 34962
  },
  {
   "buffer": 0,
   "byteLength": 6752,
   "byteOffset": 840616,
   "target": 34962
  },
  {
   "buffer": 0,
   "byteLength": 3376,
   "byteOffset": 847368,
   "target": 34962
  },
  {
   "buffer": 0,
   "byteLength": 13504,
   "byteOffset": 850744,
   "target": 34962
  },
  {
   "buffer": 0,
   "byteLength": 10080,
   "byteOffset": 864248,
   "target": 34963
  },
  {
   "buffer": 0,
   "byteLength": 818496,
   "byteOffset": 874328,
   "target": 34962
  },
  {
   "buffer": 0,
   "byteLength": 818496,
   "byteOffset": 1692824,
   "target": 34962
  },
  {
   "buffer": 0,
   "byteLength": 545664,
   "byteOffset": 2511320,
   "target": 34962
  },
  {
   "buffer": 0,
   "byteLength": 545664,
   "byteOffset": 3056984,
   "target": 34962
  },
  {
   "buffer": 0,
   "byteLength": 272832,
   "byteOffset": 3602648,
   "target": 34962
  },
  {
   "buffer": 0,
   "byteLength": 1091328,
   "byteOffset": 3875480,
   "target": 34962
  },
  {
   "buffer": 0,
   "byteLength": 1151232,
   "byteOffset": 4966808,
   "target": 34963
  },
  {
   "buffer": 0,
   "byteLength": 25176,
   "byteOffset": 6118040,
   "target": 34962
  },
  {
   "buffer": 0,
   "byteLength": 25176,
   "byteOffset": 6143216,
   "target": 34962
  },
  {
   "buffer": 0,
   "byteLength": 8392,
   "byteOffset": 6168392,
   "target": 34962
  },
  {
   "buffer": 0,
   "byteLength": 33568,
   "byteOffset": 6176784,
   "target": 34962
  },
  {
   "buffer": 0,
   "byteLength": 6336,
   "byteOffset": 6210352,
   "target": 34963
  }
 ],
 "samplers": [
  {
   "magFilter": 9729,
   "minFilter": 9987
  }
 ],
 "buffers": [
  {
   "byteLength": 6216688,
   "uri": "rabbit.bin"
  }
 ]
}