{"accessors":[{"bufferView":0,"componentType":5126,"count":819,"max":[0.4182964265346527,0.4023212790489197,0.5243282318115234],"min":[-0.4174140393733978,-0.35729116201400757,-0.4739900529384613],"normalized":false,"type":"VEC3"},{"bufferView":1,"componentType":5126,"count":819,"max":[0.9999080896377563,0.996771514415741,0.9836381673812866,1.0],"min":[-0.999326765537262,-0.9968425631523132,-0.9988517761230469,-1.0],"normalized":false,"type":"VEC4"},{"bufferView":2,"componentType":5126,"count":819,"max":[0.9975106120109558,0.998864471912384,0.9996427297592163],"min":[-0.9975970983505249,-0.9998685121536255,-0.9996695518493652],"normalized":false,"type":"VEC3"},{"bufferView":3,"componentType":5126,"count":819,"max":[0.9728694558143616,0.998291015625],"min":[0.0016937514301389456,0.0016937514301389456],"normalized":false,"type":"VEC2"},{"bufferView":4,"componentType":5123,"count":3000,"max":[818],"min":[0],"normalized":false,"type":"SCALAR"}],"asset":{"generator":"Godot Engine v4.7.2.stable.official@ed1daf0bf001b61586d9930840f2f1394092c079","version":"2.0"},"bufferViews":[{"buffer":0,"byteLength":9828,"byteStride":12,"target":34962},{"buffer":0,"byteLength":13104,"byteOffset":9828,"byteStride":16,"target":34962},{"buffer":0,"byteLength":9828,"byteOffset":22932,"byteStride":12,"target":34962},{"buffer":0,"byteLength":6552,"byteOffset":32760,"byteStride":8,"target":34962},{"buffer":0,"byteLength":6000,"byteOffset":39312,"target":34963}],"buffers":[{"byteLength":45312,"uri":"pumpkin_b0.bin"}],"extensionsUsed":["GODOT_single_root"],"images":[{"name":"174","uri":"textures%2F174.png"},{"name":"66_pumpkin_normal","uri":"textures%2F66_pumpkin_normal.png"}],"materials":[{"doubleSided":true,"name":"66_pumpkin","normalTexture":{"index":1,"scale":1.0},"pbrMetallicRoughness":{"baseColorFactor":[1.0,1.0,1.0,1.0],"baseColorTexture":{"index":0},"metallicFactor":0.05000000074505806,"roughnessFactor":0.9577051401138306}}],"meshes":[{"name":"Sketchfab_Scene_66_pumpkin_66_pumpkin_0","primitives":[{"attributes":{"NORMAL":2,"POSITION":0,"TANGENT":1,"TEXCOORD_0":3},"indices":4,"material":0,"mode":4}]}],"nodes":[{"children":[1],"name":"pumpkin_b"},{"mesh":0,"name":"pumpkin_b2","rotation":[-0.7071067690849304,0.0,0.0,0.7071067690849304],"scale":[100.0,100.0,100.0],"translation":[-75.34529876708984,-8.474482644489981e-14,381.6567687988281]}],"samplers":[{"magFilter":9729,"minFilter":9987,"wrapS":10497,"wrapT":10497}],"scene":0,"scenes":[{"nodes":[0]}],"textures":[{"sampler":0,"source":0},{"sampler":0,"source":1}]}