{
  "accessors": [
    {
      "bufferView": 2,
      "componentType": 5126,
      "count": 1376,
      "max": [
        0.12147928029298782,
        0.06031903252005577,
        0.05410353094339371
      ],
      "min": [
        -0.1280325949192047,
        -0.06434047222137451,
        0.000283174158539623
      ],
      "type": "VEC3"
    },
    {
      "bufferView": 2,
      "byteOffset": 16512,
      "componentType": 5126,
      "count": 1376,
      "max": [
        0.9997856616973877,
        0.9999988079071045,
        0.9999839067459106
      ],
      "min": [
        -0.9966205358505249,
        -0.9999206066131592,
        -0.9999985694885254
      ],
      "type": "VEC3"
    },
    {
      "bufferView": 3,
      "componentType": 5126,
      "count": 1376,
      "max": [
        1.0,
        0.9499427080154419,
        0.9999901652336121,
        1.0
      ],
      "min": [
        -0.9814605712890625,
        -0.9999940991401672,
        -0.9999912977218628,
        1.0
      ],
      "type": "VEC4"
    },
    {
      "bufferView": 1,
      "componentType": 5126,
      "count": 1376,
      "max": [
        0.9907823204994202,
        0.9924030303955078
      ],
      "min": [
        0.006694884970784187,
        0.007596880197525024
      ],
      "type": "VEC2"
    },
    {
      "bufferView": 1,
      "byteOffset": 11008,
      "componentType": 5126,
      "count": 1376,
      "max": [
        0.9907823204994202,
        0.9924030303955078
      ],
      "min": [
        0.006694884970784187,
        0.007596880197525024
      ],
      "type": "VEC2"
    },
    {
      "bufferView": 0,
      "componentType": 5125,
      "count": 7464,
      "type": "SCALAR"
    }
  ],
  "asset": {
    "extras": {
      "author": "Meerschaum Digital (https://sketchfab.com/meerschaumdigital)",
      "license": "CC-BY-4.0 (http://creativecommons.org/licenses/by/4.0/)",
      "source": "https://sketchfab.com/3d-models/half-cheese-wheel-53eb788dee544f8c926638a27d7bea5a",
      "title": "Half Cheese Wheel"
    },
    "generator": "Sketchfab-12.68.0",
    "version": "2.0"
  },
  "bufferViews": [
    {
      "buffer": 0,
      "byteLength": 29856,
      "name": "floatBufferViews",
      "target": 34963
    },
    {
      "buffer": 0,
      "byteLength": 22016,
      "byteOffset": 29856,
      "byteStride": 8,
      "name": "floatBufferViews",
      "target": 34962
    },
    {
      "buffer": 0,
      "byteLength": 33024,
      "byteOffset": 51872,
      "byteStride": 12,
      "name": "floatBufferViews",
      "target": 34962
    },
    {
      "buffer": 0,
      "byteLength": 22016,
      "byteOffset": 84896,
      "byteStride": 16,
      "name": "floatBufferViews",
      "target": 34962
    }
  ],
  "buffers": [
    {
      "byteLength": 106912,
      "uri": "scene.bin"
    }
  ],
  "images": [
    {
      "uri": "textures/Cheese_Wheel_LP_baseColor.jpeg"
    },
    {
      "uri": "textures/Cheese_Wheel_LP_metallicRoughness.png"
    },
    {
      "uri": "textures/Cheese_Wheel_LP_normal.jpeg"
    }
  ],
  "materials": [
    {
      "doubleSided": true,
      "name": "Cheese_Wheel_LP",
      "normalTexture": {
        "index": 2
      },
      "occlusionTexture": {
        "index": 1
      },
      "pbrMetallicRoughness": {
        "baseColorTexture": {
          "index": 0
        },
        "metallicFactor": 0.0,
        "metallicRoughnessTexture": {
          "index": 1
        }
      }
    }
  ],
  "meshes": [
    {
      "name": "Half Cheese Wheel_Cheese Wheel LP_0",
      "primitives": [
        {
          "attributes": {
            "NORMAL": 1,
            "POSITION": 0,
            "TANGENT": 2,
            "TEXCOORD_0": 3,
            "TEXCOORD_1": 4
          },
          "indices": 5,
          "material": 0,
          "mode": 4
        }
      ]
    }
  ],
  "nodes": [
    {
      "children": [
        1
      ],
      "matrix": [
        1.0,
        0.0,
        0.0,
        0.0,
        0.0,
        2.220446049250313e-16,
        -1.0,
        0.0,
        0.0,
        1.0,
        2.220446049250313e-16,
        0.0,
        0.0,
        0.0,
        0.0,
        1.0
      ],
      "name": "Sketchfab_model"
    },
    {
      "children": [
        2
      ],
      "matrix": [
        1.0,
        0.0,
        0.0,
        0.0,
        0.0,
        0.0,
        1.0,
        0.0,
        0.0,
        -1.0,
        0.0,
        0.0,
        0.0,
        0.0,
        0.0,
        1.0
      ],
      "name": "d5f1c4eafd764c2388e745b0bee7a2af.fbx"
    },
    {
      "children": [
        3
      ],
      "name": "RootNode"
    },
    {
      "children": [
        4
      ],
      "matrix": [
        100.0,
        0.0,
        0.0,
        0.0,
        0.0,
        -1.629206793918314e-05,
        -99.99999999999868,
        0.0,
        0.0,
        99.99999999999868,
        -1.629206793918314e-05,
        0.0,
        0.0,
        0.0,
        0.0,
        1.0
      ],
      "name": "Half Cheese Wheel"
    },
    {
      "mesh": 0,
      "name": "Half Cheese Wheel_Cheese Wheel LP_0"
    }
  ],
  "samplers": [
    {
      "magFilter": 9729,
      "minFilter": 9987,
      "wrapS": 10497,
      "wrapT": 10497
    }
  ],
  "scene": 0,
  "scenes": [
    {
      "name": "Sketchfab_Scene",
      "nodes": [
        0
      ]
    }
  ],
  "textures": [
    {
      "sampler": 0,
      "source": 0
    },
    {
      "sampler": 0,
      "source": 1
    },
    {
      "sampler": 0,
      "source": 2
    }
  ]
}
