{
  "accessors": [
    {
      "bufferView": 2,
      "componentType": 5126,
      "count": 2743,
      "max": [
        26.90958595275879,
        56.28507614135742,
        16.52261734008789
      ],
      "min": [
        -21.153364181518555,
        -0.05257678031921387,
        -14.885980606079102
      ],
      "type": "VEC3"
    },
    {
      "bufferView": 2,
      "byteOffset": 32916,
      "componentType": 5126,
      "count": 2743,
      "max": [
        0.9989550709724426,
        0.9997888207435608,
        0.9982780814170837
      ],
      "min": [
        -0.9990020990371704,
        -0.9999873042106628,
        -0.9996732473373413
      ],
      "type": "VEC3"
    },
    {
      "bufferView": 3,
      "componentType": 5126,
      "count": 2743,
      "max": [
        0.9958618879318237,
        0.995844304561615,
        0.9991177916526794,
        1.0
      ],
      "min": [
        -0.9999968409538269,
        -0.9997639060020447,
        -0.9993902444839478,
        -1.0
      ],
      "type": "VEC4"
    },
    {
      "bufferView": 1,
      "componentType": 5126,
      "count": 2743,
      "max": [
        0.9722219705581665,
        0.9855960011482239
      ],
      "min": [
        0.014235000126063824,
        0.014403999783098698
      ],
      "type": "VEC2"
    },
    {
      "bufferView": 0,
      "componentType": 5125,
      "count": 14718,
      "type": "SCALAR"
    }
  ],
  "asset": {
    "extras": {
      "author": "Teilor Andersen (https://sketchfab.com/teilorandersen)",
      "license": "CC-BY-4.0 (http://creativecommons.org/licenses/by/4.0/)",
      "source": "https://sketchfab.com/3d-models/old-burlap-bag-photo-scan-d52b9c947f994d528e872f71a1cabba1",
      "title": "Old burlap bag photo scan"
    },
    "generator": "Sketchfab-16.59.0",
    "version": "2.0"
  },
  "bufferViews": [
    {
      "buffer": 0,
      "byteLength": 58872,
      "name": "floatBufferViews",
      "target": 34963
    },
    {
      "buffer": 0,
      "byteLength": 21944,
      "byteOffset": 58872,
      "byteStride": 8,
      "name": "floatBufferViews",
      "target": 34962
    },
    {
      "buffer": 0,
      "byteLength": 65832,
      "byteOffset": 80816,
      "byteStride": 12,
      "name": "floatBufferViews",
      "target": 34962
    },
    {
      "buffer": 0,
      "byteLength": 43888,
      "byteOffset": 146648,
      "byteStride": 16,
      "name": "floatBufferViews",
      "target": 34962
    }
  ],
  "buffers": [
    {
      "byteLength": 190536,
      "uri": "scene.bin"
    }
  ],
  "images": [
    {
      "uri": "textures/lambert1_baseColor.jpeg"
    },
    {
      "uri": "textures/lambert1_metallicRoughness.png"
    },
    {
      "uri": "textures/lambert1_normal.png"
    }
  ],
  "materials": [
    {
      "doubleSided": true,
      "name": "lambert1",
      "normalTexture": {
        "index": 2
      },
      "occlusionTexture": {
        "index": 1
      },
      "pbrMetallicRoughness": {
        "baseColorTexture": {
          "index": 0
        },
        "metallicRoughnessTexture": {
          "index": 1
        }
      }
    }
  ],
  "meshes": [
    {
      "name": "SM_Bag_01_lambert1_0",
      "primitives": [
        {
          "attributes": {
            "NORMAL": 1,
            "POSITION": 0,
            "TANGENT": 2,
            "TEXCOORD_0": 3
          },
          "indices": 4,
          "material": 0,
          "mode": 4
        }
      ]
    }
  ],
  "nodes": [
    {
      "children": [
        1
      ],
      "matrix": [
        0.9989224076271057,
        -1.2213576722769273e-17,
        0.04641088843345642,
        0.0,
        0.04641088843345642,
        3.652279278316251e-16,
        -0.9989224076271057,
        0.0,
        -4.750136779964352e-18,
        1.0,
        3.654012122437876e-16,
        0.0,
        0.0,
        0.0,
        0.0,
        1.0
      ],
      "name": "Sketchfab_model"
    },
    {
      "children": [
        2
      ],
      "matrix": [
        0.009999999776482582,
        0.0,
        0.0,
        0.0,
        0.0,
        0.0,
        0.009999999776482582,
        0.0,
        0.0,
        -0.009999999776482582,
        0.0,
        0.0,
        0.0,
        0.0,
        0.0,
        1.0
      ],
      "name": "097cbece1251406da7af6643bb303cbe.fbx"
    },
    {
      "children": [
        3
      ],
      "name": "RootNode"
    },
    {
      "children": [
        4
      ],
      "name": "SM_Bag_01"
    },
    {
      "mesh": 0,
      "name": "SM_Bag_01_lambert1_0"
    }
  ],
  "samplers": [
    {
      "magFilter": 9729,
      "minFilter": 9987,
      "wrapS": 10497,
      "wrapT": 10497
    }
  ],
  "scene": 0,
  "scenes": [
    {
      "name": "Sketchfab_Scene",
      "nodes": [
        0
      ]
    }
  ],
  "textures": [
    {
      "sampler": 0,
      "source": 0
    },
    {
      "sampler": 0,
      "source": 1
    },
    {
      "sampler": 0,
      "source": 2
    }
  ]
}
