{
  "accessors": [
    {
      "bufferView": 2,
      "componentType": 5126,
      "count": 663,
      "max": [
        0.5151964426040649,
        -0.4809238612651825,
        1.6869704723358154
      ],
      "min": [
        -1.1879976987838745,
        -1.0487656593322754,
        1.0287753343582153
      ],
      "type": "VEC3"
    },
    {
      "bufferView": 2,
      "byteOffset": 7956,
      "componentType": 5126,
      "count": 663,
      "max": [
        0.9896506667137146,
        0.9931305646896362,
        0.9847685694694519
      ],
      "min": [
        -0.9950472116470337,
        -0.7015199661254883,
        -0.716000497341156
      ],
      "type": "VEC3"
    },
    {
      "bufferView": 1,
      "componentType": 5126,
      "count": 663,
      "max": [
        0.06298828125,
        0.09352507442235947
      ],
      "min": [
        0.0,
        0.0
      ],
      "type": "VEC2"
    },
    {
      "bufferView": 0,
      "componentType": 5125,
      "count": 3018,
      "type": "SCALAR"
    },
    {
      "bufferView": 2,
      "byteOffset": 15912,
      "componentType": 5126,
      "count": 22180,
      "max": [
        0.8051801323890686,
        -0.3878329396247864,
        1.7474498748779297
      ],
      "min": [
        -1.3256927728652954,
        -1.9508819580078125,
        0.03386419638991356
      ],
      "type": "VEC3"
    },
    {
      "bufferView": 2,
      "byteOffset": 282072,
      "componentType": 5126,
      "count": 22180,
      "max": [
        0.9999227523803711,
        0.9998958110809326,
        0.9999943971633911
      ],
      "min": [
        -0.9999815225601196,
        -0.9999697804450989,
        -0.9997938275337219
      ],
      "type": "VEC3"
    },
    {
      "bufferView": 1,
      "byteOffset": 5304,
      "componentType": 5126,
      "count": 22180,
      "max": [
        0.9916669726371765,
        0.9918879866600037
      ],
      "min": [
        0.008084000088274479,
        0.008704000152647495
      ],
      "type": "VEC2"
    },
    {
      "bufferView": 0,
      "byteOffset": 12072,
      "componentType": 5125,
      "count": 115119,
      "type": "SCALAR"
    },
    {
      "bufferView": 2,
      "byteOffset": 548232,
      "componentType": 5126,
      "count": 2627,
      "max": [
        0.7762840986251831,
        -0.4504288136959076,
        1.7102831602096558
      ],
      "min": [
        -1.3223661184310913,
        -1.9354991912841797,
        0.03451123833656311
      ],
      "type": "VEC3"
    },
    {
      "bufferView": 2,
      "byteOffset": 579756,
      "componentType": 5126,
      "count": 2627,
      "max": [
        0.9961557388305664,
        0.9992731809616089,
        0.9986774325370789
      ],
      "min": [
        -0.9989365339279175,
        -0.9997983574867249,
        -0.9986774325370789
      ],
      "type": "VEC3"
    },
    {
      "bufferView": 1,
      "byteOffset": 182744,
      "componentType": 5126,
      "count": 2627,
      "max": [
        0.9916229844093323,
        0.9918799996376038
      ],
      "min": [
        0.008155999705195427,
        0.2606169879436493
      ],
      "type": "VEC2"
    },
    {
      "bufferView": 0,
      "byteOffset": 472548,
      "componentType": 5125,
      "count": 8709,
      "type": "SCALAR"
    }
  ],
  "asset": {
    "extras": {
      "author": "Mikko Haapoja (https://sketchfab.com/mikkoh)",
      "license": "CC-BY-4.0 (http://creativecommons.org/licenses/by/4.0/)",
      "source": "https://sketchfab.com/3d-models/ball-of-yarn-28cf446dd629404c920df2ba64e22dde",
      "title": "Ball Of Yarn"
    },
    "generator": "Sketchfab-12.68.0",
    "version": "2.0"
  },
  "bufferViews": [
    {
      "buffer": 0,
      "byteLength": 507384,
      "name": "floatBufferViews",
      "target": 34963
    },
    {
      "buffer": 0,
      "byteLength": 203760,
      "byteOffset": 507384,
      "byteStride": 8,
      "name": "floatBufferViews",
      "target": 34962
    },
    {
      "buffer": 0,
      "byteLength": 611280,
      "byteOffset": 711144,
      "byteStride": 12,
      "name": "floatBufferViews",
      "target": 34962
    }
  ],
  "buffers": [
    {
      "byteLength": 1322424,
      "uri": "scene.bin"
    }
  ],
  "images": [
    {
      "uri": "textures/GeneratedMat2_baseColor.png"
    },
    {
      "uri": "textures/material0000_baseColor.jpeg"
    },
    {
      "uri": "textures/material0001_baseColor.jpeg"
    }
  ],
  "materials": [
    {
      "doubleSided": true,
      "name": "GeneratedMat2",
      "pbrMetallicRoughness": {
        "baseColorTexture": {
          "index": 0
        },
        "metallicFactor": 0.0
      }
    },
    {
      "doubleSided": true,
      "name": "material0000",
      "pbrMetallicRoughness": {
        "baseColorTexture": {
          "index": 1
        },
        "metallicFactor": 0.0
      }
    },
    {
      "doubleSided": true,
      "name": "material0001",
      "pbrMetallicRoughness": {
        "baseColorTexture": {
          "index": 2
        },
        "metallicFactor": 0.0
      }
    }
  ],
  "meshes": [
    {
      "name": "Object_0",
      "primitives": [
        {
          "attributes": {
            "NORMAL": 1,
            "POSITION": 0,
            "TEXCOORD_0": 2
          },
          "indices": 3,
          "material": 0,
          "mode": 4
        }
      ]
    },
    {
      "name": "Object_1",
      "primitives": [
        {
          "attributes": {
            "NORMAL": 5,
            "POSITION": 4,
            "TEXCOORD_0": 6
          },
          "indices": 7,
          "material": 1,
          "mode": 4
        }
      ]
    },
    {
      "name": "Object_2",
      "primitives": [
        {
          "attributes": {
            "NORMAL": 9,
            "POSITION": 8,
            "TEXCOORD_0": 10
          },
          "indices": 11,
          "material": 2,
          "mode": 4
        }
      ]
    }
  ],
  "nodes": [
    {
      "children": [
        1
      ],
      "matrix": [
        1.0,
        0.0,
        0.0,
        0.0,
        0.0,
        -1.0,
        -4.440892098500626e-16,
        0.0,
        0.0,
        4.440892098500626e-16,
        -1.0,
        0.0,
        0.0,
        -0.27869760990142867,
        2.0600109100341797,
        1.0
      ],
      "name": "Sketchfab_model"
    },
    {
      "children": [
        2,
        3,
        4
      ],
      "name": "yarn-ball.obj.cleaner.materialmerger.gles"
    },
    {
      "mesh": 0,
      "name": "Object_2"
    },
    {
      "mesh": 1,
      "name": "Object_3"
    },
    {
      "mesh": 2,
      "name": "Object_4"
    }
  ],
  "samplers": [
    {
      "magFilter": 9729,
      "minFilter": 9987,
      "wrapS": 10497,
      "wrapT": 10497
    }
  ],
  "scene": 0,
  "scenes": [
    {
      "name": "Sketchfab_Scene",
      "nodes": [
        0
      ]
    }
  ],
  "textures": [
    {
      "sampler": 0,
      "source": 0
    },
    {
      "sampler": 0,
      "source": 1
    },
    {
      "sampler": 0,
      "source": 2
    }
  ]
}
