{"accessors":[{"bufferView":0,"componentType":5126,"count":815,"max":[0.4784166216850281,0.5029165744781494,0.33504560589790344],"min":[-0.5244755148887634,-0.43151208758354187,-0.3693482577800751],"normalized":false,"type":"VEC3"},{"bufferView":1,"componentType":5126,"count":815,"max":[0.9972686171531677,0.9985157251358032,0.9994015693664551,1.0],"min":[-0.9879671335220337,-0.9999900460243225,-0.9993383884429932,-1.0],"normalized":false,"type":"VEC4"},{"bufferView":2,"componentType":5126,"count":815,"max":[0.9997484683990479,0.9957860708236694,0.9991210103034973],"min":[-0.9963802099227905,-0.9894731044769287,-0.9997957348823547],"normalized":false,"type":"VEC3"},{"bufferView":3,"componentType":5126,"count":815,"max":[0.998077392578125,0.9646143317222595],"min":[0.0019073777366429567,0.0019073777366429567],"normalized":false,"type":"VEC2"},{"bufferView":4,"componentType":5123,"count":3000,"max":[814],"min":[0],"normalized":false,"type":"SCALAR"}],"asset":{"generator":"Godot Engine v4.7.2.stable.official@ed1daf0bf001b61586d9930840f2f1394092c079","version":"2.0"},"bufferViews":[{"buffer":0,"byteLength":9780,"byteStride":12,"target":34962},{"buffer":0,"byteLength":13040,"byteOffset":9780,"byteStride":16,"target":34962},{"buffer":0,"byteLength":9780,"byteOffset":22820,"byteStride":12,"target":34962},{"buffer":0,"byteLength":6520,"byteOffset":32600,"byteStride":8,"target":34962},{"buffer":0,"byteLength":6000,"byteOffset":39120,"target":34963}],"buffers":[{"byteLength":45120,"uri":"pumpkin_a0.bin"}],"extensionsUsed":["GODOT_single_root"],"images":[{"name":"150","uri":"textures%2F150.png"},{"name":"59_hokaido_pumpkin_normal","uri":"textures%2F59_hokaido_pumpkin_normal.png"}],"materials":[{"doubleSided":true,"name":"59_hokaido_pumpkin","normalTexture":{"index":1,"scale":1.0},"pbrMetallicRoughness":{"baseColorFactor":[1.0,1.0,1.0,1.0],"baseColorTexture":{"index":0},"metallicFactor":0.05000000074505806,"roughnessFactor":0.9577051401138306}}],"meshes":[{"name":"Sketchfab_Scene_59_hokaido_pumpkin_59_hokaido_pumpkin_0","primitives":[{"attributes":{"NORMAL":2,"POSITION":0,"TANGENT":1,"TEXCOORD_0":3},"indices":4,"material":0,"mode":4}]}],"nodes":[{"children":[1],"name":"pumpkin_a"},{"mesh":0,"name":"pumpkin_a2","rotation":[-0.7071067690849304,0.0,0.0,0.7071067690849304],"scale":[100.0,100.0,100.0],"translation":[-376.7264709472656,-8.474482644489981e-14,381.6567687988281]}],"samplers":[{"magFilter":9729,"minFilter":9987,"wrapS":10497,"wrapT":10497}],"scene":0,"scenes":[{"nodes":[0]}],"textures":[{"sampler":0,"source":0},{"sampler":0,"source":1}]}