{
 "asset": {
  "generator": "Khronos glTF Blender I/O v4.4.56",
  "version": "2.0",
  "extras": {
   "bin_md5": "112323bb69dea691710298be9fd8fc11"
  }
 },
 "extensionsUsed": [
  "KHR_materials_specular"
 ],
 "scene": 0,
 "scenes": [
  {
   "name": "Scene",
   "nodes": [
    0,
    1
   ]
  }
 ],
 "nodes": [
  {
   "mesh": 0,
   "name": "Pelt"
  },
  {
   "mesh": 1,
   "name": "PeltFur"
  }
 ],
 "materials": [
  {
   "doubleSided": true,
   "extensions": {
    "KHR_materials_specular": {
     "specularFactor": 0.699999988079071
    }
   },
   "name": "wolf_pelt",
   "normalTexture": {
    "index": 0,
    "scale": 0.6000000238418579
   },
   "pbrMetallicRoughness": {
    "baseColorTexture": {
     "index": 1
    },
    "metallicRoughnessTexture": {
     "index": 2
    }
   }
  },
  {
   "doubleSided": true,
   "extensions": {
    "KHR_materials_specular": {
     "specularFactor": 0.699999988079071
    }
   },
   "name": "wolf_pelt_fur",
   "normalTexture": {
    "index": 3,
    "scale": 0.6000000238418579
   },
   "pbrMetallicRoughness": {
    "baseColorTexture": {
     "index": 4
    },
    "metallicRoughnessTexture": {
     "index": 5
    }
   }
  }
 ],
 "meshes": [
  {
   "name": "Pelt",
   "primitives": [
    {
     "attributes": {
      "POSITION": 0,
      "NORMAL": 1,
      "TEXCOORD_0": 2,
      "TANGENT": 3
     },
     "indices": 4,
     "material": 0
    }
   ]
  },
  {
   "name": "PeltFur",
   "primitives": [
    {
     "attributes": {
      "POSITION": 5,
      "NORMAL": 6,
      "TEXCOORD_0": 7,
      "TEXCOORD_1": 8,
      "TANGENT": 9
     },
     "indices": 10,
     "material": 1
    }
   ]
  }
 ],
 "textures": [
  {
   "sampler": 0,
   "source": 0
  },
  {
   "sampler": 0,
   "source": 1
  },
  {
   "sampler": 0,
   "source": 2
  },
  {
   "sampler": 0,
   "source": 0
  },
  {
   "sampler": 0,
   "source": 1
  },
  {
   "sampler": 0,
   "source": 2
  }
 ],
 "images": [
  {
   "mimeType": "image/png",
   "name": "wolf_normal",
   "uri": "textures/wolf_normal.png"
  },
  {
   "mimeType": "image/png",
   "name": "wolf_albedo",
   "uri": "textures/wolf_albedo.png"
  },
  {
   "mimeType": "image/png",
   "name": "wolf_orm",
   "uri": "textures/wolf_orm.png"
  }
 ],
 "accessors": [
  {
   "bufferView": 0,
   "componentType": 5126,
   "count": 1181,
   "max": [
    0.24113336205482483,
    0.15877148509025574,
    0.14931613206863403
   ],
   "min": [
    -0.20099036395549774,
    -0.012444445863366127,
    -0.15035638213157654
   ],
   "type": "VEC3"
  },
  {
   "bufferView": 1,
   "componentType": 5126,
   "count": 1181,
   "type": "VEC3"
  },
  {
   "bufferView": 2,
   "componentType": 5126,
   "count": 1181,
   "type": "VEC2"
  },
  {
   "bufferView": 3,
   "componentType": 5126,
   "count": 1181,
   "type": "VEC4"
  },
  {
   "bufferView": 4,
   "componentType": 5123,
   "count": 5364,
   "type": "SCALAR"
  },
  {
   "bufferView": 5,
   "componentType": 5126,
   "count": 11074,
   "max": [
    0.24113336205482483,
    0.15877148509025574,
    0.14931613206863403
   ],
   "min": [
    -0.20099036395549774,
    -0.012444445863366127,
    -0.15035638213157654
   ],
   "type": "VEC3"
  },
  {
   "bufferView": 6,
   "componentType": 5126,
   "count": 11074,
   "type": "VEC3"
  },
  {
   "bufferView": 7,
   "componentType": 5126,
   "count": 11074,
   "type": "VEC2"
  },
  {
   "bufferView": 8,
   "componentType": 5126,
   "count": 11074,
   "type": "VEC2"
  },
  {
   "bufferView": 9,
   "componentType": 5126,
   "count": 11074,
   "type": "VEC4"
  },
  {
   "bufferView": 10,
   "componentType": 5123,
   "count": 47880,
   "type": "SCALAR"
  }
 ],
 "bufferViews": [
  {
   "buffer": 0,
   "byteLength": 14172,
   "byteOffset": 0,
   "target": 34962
  },
  {
   "buffer": 0,
   "byteLength": 14172,
   "byteOffset": 14172,
   "target": 34962
  },
  {
   "buffer": 0,
   "byteLength": 9448,
   "byteOffset": 28344,
   "target": 34962
  },
  {
   "buffer": 0,
   "byteLength": 18896,
   "byteOffset": 37792,
   "target": 34962
  },
  {
   "buffer": 0,
   "byteLength": 10728,
   "byteOffset": 56688,
   "target": 34963
  },
  {
   "buffer": 0,
   "byteLength": 132888,
   "byteOffset": 67416,
   "target": 34962
  },
  {
   "buffer": 0,
   "byteLength": 132888,
   "byteOffset": 200304,
   "target": 34962
  },
  {
   "buffer": 0,
   "byteLength": 88592,
   "byteOffset": 333192,
   "target": 34962
  },
  {
   "buffer": 0,
   "byteLength": 88592,
   "byteOffset": 421784,
   "target": 34962
  },
  {
   "buffer": 0,
   "byteLength": 177184,
   "byteOffset": 510376,
   "target": 34962
  },
  {
   "buffer": 0,
   "byteLength": 95760,
   "byteOffset": 687560,
   "target": 34963
  }
 ],
 "samplers": [
  {
   "magFilter": 9729,
   "minFilter": 9987
  }
 ],
 "buffers": [
  {
   "byteLength": 783320,
   "uri": "wolf_pelt.bin"
  }
 ]
}