{
 "asset": {
  "generator": "Khronos glTF Blender I/O v4.4.56",
  "version": "2.0",
  "extras": {
   "bin_md5": "e7a6a01d056c3c0634a9622649791a01"
  }
 },
 "extensionsUsed": [
  "KHR_materials_specular"
 ],
 "scene": 0,
 "scenes": [
  {
   "name": "Scene",
   "nodes": [
    43
   ]
  }
 ],
 "nodes": [
  {
   "name": "tail4",
   "rotation": [
    -0.030090080574154854,
    7.506957626901567e-05,
    4.6998065954539925e-05,
    0.9995471835136414
   ],
   "scale": [
    1,
    0.9999998807907104,
    0.9999998807907104
   ],
   "translation": [
    1.9099388737231493e-11,
    0.09023936837911606,
    -1.7028769505600394e-08
   ]
  },
  {
   "children": [
    0
   ],
   "name": "tail3",
   "rotation": [
    -0.024162637069821358,
    6.976457370910794e-05,
    4.136448114877567e-05,
    0.9997080564498901
   ],
   "translation": [
    -1.0913936421275139e-11,
    0.09423715621232986,
    -8.958706132489169e-08
   ]
  },
  {
   "children": [
    1
   ],
   "name": "tail2",
   "rotation": [
    0.12475042045116425,
    -0.0015487550990656018,
    -0.0006352154887281358,
    0.9921867847442627
   ],
   "scale": [
    1,
    1.0000001192092896,
    1
   ],
   "translation": [
    5.820766091346741e-11,
    0.09677443653345108,
    -6.1555738284369e-10
   ]
  },
  {
   "children": [
    2
   ],
   "name": "tail1",
   "rotation": [
    -0.30613717436790466,
    0.00101670587901026,
    0.00015870876086410135,
    0.9519869089126587
   ],
   "scale": [
    0.9999999403953552,
    1,
    1
   ],
   "translation": [
    0,
    0.10044357180595398,
    -0.049068763852119446
   ]
  },
  {
   "name": "rl_tip",
   "rotation": [
    0.10943873226642609,
    -1.1242317849024402e-15,
    -3.1293957814599227e-16,
    0.9939935207366943
   ],
   "scale": [
    1,
    0.9999998807907104,
    0.9999998807907104
   ],
   "translation": [
    3.725290076417309e-09,
    0.07883176952600479,
    4.5901157874617127e-11
   ]
  },
  {
   "children": [
    4
   ],
   "name": "rl_toe",
   "rotation": [
    0.5655167102813721,
    4.608576187337121e-09,
    -3.160068873242494e-09,
    0.8247368335723877
   ],
   "scale": [
    1,
    0.9999998807907104,
    0.9999999403953552
   ],
   "translation": [
    4.970862055309055e-10,
    0.19435445964336395,
    -1.3220946115666266e-08
   ]
  },
  {
   "children": [
    5
   ],
   "name": "rl_ft",
   "rotation": [
    0.3911711871623993,
    -0.029077306389808655,
    0.03378025442361832,
    0.9192380309104919
   ],
   "translation": [
    3.725290298461914e-09,
    0.22045846283435822,
    -2.9802322387695312e-08
   ]
  },
  {
   "children": [
    6
   ],
   "name": "rl_lo",
   "rotation": [
    -0.569863498210907,
    0.026468327268958092,
    -0.04138237237930298,
    0.820269763469696
   ],
   "scale": [
    1,
    1.0000001192092896,
    1.0000001192092896
   ],
   "translation": [
    -4.6566128730773926e-09,
    0.1522504687309265,
    2.5989720597863197e-08
   ]
  },
  {
   "children": [
    7
   ],
   "name": "rl_up",
   "rotation": [
    0.9389627575874329,
    -0.005364399403333664,
    -0.0008373919408768415,
    0.34397605061531067
   ],
   "scale": [
    1,
    1,
    0.9999997615814209
   ],
   "translation": [
    -0.0621802881360054,
    -0.005509018898010254,
    0.0723860114812851
   ]
  },
  {
   "name": "rr_tip",
   "rotation": [
    0.10943873226642609,
    1.1242317849024402e-15,
    3.1293957814599227e-16,
    0.9939935207366943
   ],
   "scale": [
    1,
    0.9999998807907104,
    0.9999998807907104
   ],
   "translation": [
    -3.725290076417309e-09,
    0.07883176952600479,
    4.5901157874617127e-11
   ]
  },
  {
   "children": [
    9
   ],
   "name": "rr_toe",
   "rotation": [
    0.5655167102813721,
    -4.608576187337121e-09,
    3.160068873242494e-09,
    0.8247368335723877
   ],
   "scale": [
    1,
    0.9999998807907104,
    0.9999999403953552
   ],
   "translation": [
    -4.970862055309055e-10,
    0.19435445964336395,
    -1.3220946115666266e-08
   ]
  },
  {
   "children": [
    10
   ],
   "name": "rr_ft",
   "rotation": [
    0.3911711871623993,
    0.029077306389808655,
    -0.03378025442361832,
    0.9192380309104919
   ],
   "translation": [
    -3.725290298461914e-09,
    0.22045846283435822,
    -2.9802322387695312e-08
   ]
  },
  {
   "children": [
    11
   ],
   "name": "rr_lo",
   "rotation": [
    -0.569863498210907,
    -0.026468327268958092,
    0.04138237237930298,
    0.820269763469696
   ],
   "scale": [
    1,
    1.0000001192092896,
    1.0000001192092896
   ],
   "translation": [
    4.6566128730773926e-09,
    0.1522504687309265,
    2.5989720597863197e-08
   ]
  },
  {
   "children": [
    12
   ],
   "name": "rr_up",
   "rotation": [
    0.9389627575874329,
    0.005364399403333664,
    0.0008373919408768415,
    0.34397605061531067
   ],
   "scale": [
    1,
    1,
    0.9999997615814209
   ],
   "translation": [
    0.0621802881360054,
    -0.005509018898010254,
    0.0723860114812851
   ]
  },
  {
   "children": [
    3,
    8,
    13
   ],
   "name": "pelvis",
   "rotation": [
    0.589586615562439,
    0,
    0,
    0.8077051639556885
   ],
   "scale": [
    1,
    0.9999998807907104,
    0.9999999403953552
   ]
  },
  {
   "name": "jaw",
   "rotation": [
    0.004975515883415937,
    0,
    0,
    0.9999876022338867
   ],
   "scale": [
    1,
    0.9999999403953552,
    0.9999998807907104
   ],
   "translation": [
    0,
    0.06240652874112129,
    -0.047381021082401276
   ]
  },
  {
   "name": "ear_l2",
   "rotation": [
    0.0028789015486836433,
    -0.0007619269890710711,
    0.00021249105338938534,
    0.9999955296516418
   ],
   "scale": [
    1,
    1,
    1.0000001192092896
   ],
   "translation": [
    -0.00014160946011543274,
    0.059804704040288925,
    0.0018990561366081238
   ]
  },
  {
   "children": [
    16
   ],
   "name": "ear_l",
   "rotation": [
    0.6815027594566345,
    0.005438497290015221,
    0.23090824484825134,
    0.6944104433059692
   ],
   "scale": [
    1,
    0.9999999403953552,
    0.9999999403953552
   ],
   "translation": [
    -0.05132327601313591,
    0.052876848727464676,
    0.14151449501514435
   ]
  },
  {
   "name": "ear_r2",
   "rotation": [
    0.0028789015486836433,
    0.0007619269890710711,
    -0.00021249105338938534,
    0.9999955296516418
   ],
   "scale": [
    1,
    1,
    1.0000001192092896
   ],
   "translation": [
    0.00014160946011543274,
    0.059804704040288925,
    0.0018990561366081238
   ]
  },
  {
   "children": [
    18
   ],
   "name": "ear_r",
   "rotation": [
    0.6815027594566345,
    -0.005438497290015221,
    -0.23090824484825134,
    0.6944104433059692
   ],
   "scale": [
    1,
    0.9999999403953552,
    0.9999999403953552
   ],
   "translation": [
    0.05132327601313591,
    0.052876848727464676,
    0.14151449501514435
   ]
  },
  {
   "name": "nose",
   "rotation": [
    -0.0235461238771677,
    0,
    0,
    0.9997227191925049
   ],
   "translation": [
    0,
    0.43916550278663635,
    0.008480288088321686
   ]
  },
  {
   "children": [
    15,
    17,
    19,
    20
   ],
   "name": "head",
   "rotation": [
    -0.2212556153535843,
    0,
    0,
    0.9752158522605896
   ],
   "scale": [
    1,
    0.9999999403953552,
    1
   ],
   "translation": [
    0,
    0.15623798966407776,
    2.9802322387695312e-08
   ]
  },
  {
   "children": [
    21
   ],
   "name": "neck2",
   "rotation": [
    -0.02618822269141674,
    0,
    0,
    0.9996570348739624
   ],
   "scale": [
    1,
    0.9999999403953552,
    1
   ],
   "translation": [
    0,
    0.1490304172039032,
    -4.470348358154297e-08
   ]
  },
  {
   "children": [
    22
   ],
   "name": "neck1",
   "rotation": [
    0.20631131529808044,
    0,
    0,
    0.9784863591194153
   ],
   "translation": [
    0,
    0.23333972692489624,
    -3.166496753692627e-08
   ]
  },
  {
   "name": "fl_tip",
   "rotation": [
    0.0944010317325592,
    5.075401765530785e-10,
    4.196229475006419e-10,
    0.9955343008041382
   ],
   "scale": [
    1,
    0.9999999403953552,
    1
   ],
   "translation": [
    -2.50361342768457e-10,
    0.07299838215112686,
    5.195671004543101e-09
   ]
  },
  {
   "children": [
    24
   ],
   "name": "fl_toe",
   "rotation": [
    0.4981764554977417,
    0.001216068398207426,
    -0.012824407778680325,
    0.8669799566268921
   ],
   "translation": [
    1.8044374883174896e-09,
    0.06910152733325958,
    -1.548323780298233e-08
   ]
  },
  {
   "children": [
    25
   ],
   "name": "fl_ft",
   "rotation": [
    0.10571632534265518,
    -0.0022122191730886698,
    0.0007675914093852043,
    0.9943935871124268
   ],
   "scale": [
    1,
    1.0000001192092896,
    1.0000001192092896
   ],
   "translation": [
    1.0593794286251068e-08,
    0.2646370530128479,
    2.3283064365386963e-10
   ]
  },
  {
   "children": [
    26
   ],
   "name": "fl_lo",
   "rotation": [
    0.3459562361240387,
    -0.04004620388150215,
    0.039765410125255585,
    0.9365518689155579
   ],
   "scale": [
    0.9999999403953552,
    1,
    1
   ],
   "translation": [
    -3.725290298461914e-09,
    0.1652495563030243,
    3.213062882423401e-08
   ]
  },
  {
   "children": [
    27
   ],
   "name": "fl_up",
   "rotation": [
    -0.614500880241394,
    0.057090893387794495,
    -0.0630512535572052,
    0.7843173742294312
   ],
   "scale": [
    0.9999998807907104,
    0.9999998807907104,
    0.9999998807907104
   ],
   "translation": [
    1.4901161193847656e-08,
    0.2156529575586319,
    2.9802322387695312e-08
   ]
  },
  {
   "children": [
    28
   ],
   "name": "fl_sh",
   "rotation": [
    -0.4590147137641907,
    0.002856773091480136,
    0.043863072991371155,
    0.8873406052589417
   ],
   "scale": [
    0.9999998807907104,
    1,
    0.9999999403953552
   ],
   "translation": [
    -0.057842131704092026,
    0.21039482951164246,
    0.04030871391296387
   ]
  },
  {
   "name": "fr_tip",
   "rotation": [
    0.0944010317325592,
    -5.075401765530785e-10,
    -4.196229475006419e-10,
    0.9955343008041382
   ],
   "scale": [
    1,
    0.9999999403953552,
    1
   ],
   "translation": [
    2.50361342768457e-10,
    0.07299838215112686,
    5.195671004543101e-09
   ]
  },
  {
   "children": [
    30
   ],
   "name": "fr_toe",
   "rotation": [
    0.4981764554977417,
    -0.001216068398207426,
    0.012824407778680325,
    0.8669799566268921
   ],
   "translation": [
    -1.8044374883174896e-09,
    0.06910152733325958,
    -1.548323780298233e-08
   ]
  },
  {
   "children": [
    31
   ],
   "name": "fr_ft",
   "rotation": [
    0.10571632534265518,
    0.0022122191730886698,
    -0.0007675914093852043,
    0.9943935871124268
   ],
   "scale": [
    1,
    1.0000001192092896,
    1.0000001192092896
   ],
   "translation": [
    -1.0593794286251068e-08,
    0.2646370530128479,
    2.3283064365386963e-10
   ]
  },
  {
   "children": [
    32
   ],
   "name": "fr_lo",
   "rotation": [
    0.3459562361240387,
    0.04004620388150215,
    -0.039765410125255585,
    0.9365518689155579
   ],
   "scale": [
    0.9999999403953552,
    1,
    1
   ],
   "translation": [
    3.725290298461914e-09,
    0.1652495563030243,
    3.213062882423401e-08
   ]
  },
  {
   "children": [
    33
   ],
   "name": "fr_up",
   "rotation": [
    -0.614500880241394,
    -0.057090893387794495,
    0.0630512535572052,
    0.7843173742294312
   ],
   "scale": [
    0.9999998807907104,
    0.9999998807907104,
    0.9999998807907104
   ],
   "translation": [
    -1.4901161193847656e-08,
    0.2156529575586319,
    2.9802322387695312e-08
   ]
  },
  {
   "children": [
    34
   ],
   "name": "fr_sh",
   "rotation": [
    -0.4590147137641907,
    -0.002856773091480136,
    -0.043863072991371155,
    0.8873406052589417
   ],
   "scale": [
    0.9999998807907104,
    1,
    0.9999999403953552
   ],
   "translation": [
    0.057842131704092026,
    0.21039482951164246,
    0.04030871391296387
   ]
  },
  {
   "name": "pet",
   "rotation": [
    0.6596558690071106,
    0,
    0,
    0.7515678405761719
   ],
   "scale": [
    1,
    0.9999999403953552,
    0.9999999403953552
   ],
   "translation": [
    0,
    0.1582270711660385,
    0.08952753990888596
   ]
  },
  {
   "children": [
    23,
    29,
    35,
    36
   ],
   "name": "spine2",
   "rotation": [
    0.09328051656484604,
    0,
    0,
    0.9956399202346802
   ],
   "scale": [
    1,
    0.9999998807907104,
    0.9999998807907104
   ],
   "translation": [
    0,
    0.2371310293674469,
    -6.6356733441352844e-09
   ]
  },
  {
   "children": [
    37
   ],
   "name": "spine1",
   "rotation": [
    -0.7268861532211304,
    0,
    0,
    0.6867579817771912
   ]
  },
  {
   "children": [
    14,
    38
   ],
   "name": "root",
   "translation": [
    0,
    0.6029706001281738,
    0.2559177875518799
   ]
  },
  {
   "mesh": 0,
   "name": "Body",
   "skin": 0
  },
  {
   "mesh": 1,
   "name": "Eyes",
   "skin": 0
  },
  {
   "mesh": 2,
   "name": "Fur",
   "skin": 0
  },
  {
   "children": [
    40,
    41,
    42,
    39
   ],
   "name": "Skeleton"
  }
 ],
 "materials": [
  {
   "doubleSided": true,
   "extensions": {
    "KHR_materials_specular": {
     "specularFactor": 0.699999988079071
    }
   },
   "name": "wolf_coat",
   "normalTexture": {
    "index": 0,
    "scale": 0.6000000238418579
   },
   "pbrMetallicRoughness": {
    "baseColorTexture": {
     "index": 1
    },
    "metallicRoughnessTexture": {
     "index": 2
    }
   }
  },
  {
   "doubleSided": true,
   "name": "wolf_eye",
   "pbrMetallicRoughness": {
    "baseColorFactor": [
     0.550000011920929,
     0.3199999928474426,
     0.05999999865889549,
     1
    ],
    "metallicFactor": 0,
    "roughnessFactor": 0.10000000149011612
   }
  },
  {
   "doubleSided": true,
   "extensions": {
    "KHR_materials_specular": {
     "specularFactor": 0.699999988079071
    }
   },
   "name": "wolf_fur",
   "normalTexture": {
    "index": 3,
    "scale": 0.6000000238418579
   },
   "pbrMetallicRoughness": {
    "baseColorTexture": {
     "index": 4
    },
    "metallicRoughnessTexture": {
     "index": 5
    }
   }
  }
 ],
 "meshes": [
  {
   "name": "Body",
   "primitives": [
    {
     "attributes": {
      "POSITION": 0,
      "NORMAL": 1,
      "TEXCOORD_0": 2,
      "TANGENT": 3,
      "JOINTS_0": 4,
      "WEIGHTS_0": 5
     },
     "indices": 6,
     "material": 0
    }
   ]
  },
  {
   "name": "Eyes",
   "primitives": [
    {
     "attributes": {
      "POSITION": 8,
      "NORMAL": 9,
      "TEXCOORD_0": 10,
      "TEXCOORD_1": 11,
      "TANGENT": 12,
      "JOINTS_0": 13,
      "WEIGHTS_0": 14
     },
     "indices": 15,
     "material": 1
    }
   ]
  },
  {
   "name": "Fur",
   "primitives": [
    {
     "attributes": {
      "POSITION": 16,
      "NORMAL": 17,
      "TEXCOORD_0": 18,
      "TEXCOORD_1": 19,
      "TANGENT": 20,
      "JOINTS_0": 21,
      "WEIGHTS_0": 22
     },
     "indices": 23,
     "material": 2
    }
   ]
  }
 ],
 "textures": [
  {
   "sampler": 0,
   "source": 0
  },
  {
   "sampler": 0,
   "source": 1
  },
  {
   "sampler": 0,
   "source": 2
  },
  {
   "sampler": 0,
   "source": 0
  },
  {
   "sampler": 0,
   "source": 1
  },
  {
   "sampler": 0,
   "source": 2
  }
 ],
 "images": [
  {
   "mimeType": "image/png",
   "name": "wolf_normal",
   "uri": "textures/wolf_normal.png"
  },
  {
   "mimeType": "image/png",
   "name": "wolf_albedo",
   "uri": "textures/wolf_albedo.png"
  },
  {
   "mimeType": "image/png",
   "name": "wolf_orm",
   "uri": "textures/wolf_orm.png"
  }
 ],
 "skins": [
  {
   "inverseBindMatrices": 7,
   "joints": [
    39,
    14,
    3,
    2,
    1,
    0,
    8,
    7,
    6,
    5,
    4,
    13,
    12,
    11,
    10,
    9,
    38,
    37,
    23,
    22,
    21,
    15,
    17,
    16,
    19,
    18,
    20,
    29,
    28,
    27,
    26,
    25,
    24,
    35,
    34,
    33,
    32,
    31,
    30,
    36
   ],
   "name": "Skeleton"
  }
 ],
 "accessors": [
  {
   "bufferView": 0,
   "componentType": 5126,
   "count": 13112,
   "max": [
    0.13352815806865692,
    1.042109727859497,
    0.6102485060691833
   ],
   "min": [
    -0.13480205833911896,
    -0.001854550908319652,
    -0.9226481318473816
   ],
   "type": "VEC3"
  },
  {
   "bufferView": 1,
   "componentType": 5126,
   "count": 13112,
   "type": "VEC3"
  },
  {
   "bufferView": 2,
   "componentType": 5126,
   "count": 13112,
   "type": "VEC2"
  },
  {
   "bufferView": 3,
   "componentType": 5126,
   "count": 13112,
   "type": "VEC4"
  },
  {
   "bufferView": 4,
   "componentType": 5121,
   "count": 13112,
   "type": "VEC4"
  },
  {
   "bufferView": 5,
   "componentType": 5126,
   "count": 13112,
   "type": "VEC4"
  },
  {
   "bufferView": 6,
   "componentType": 5123,
   "count": 73116,
   "type": "SCALAR"
  },
  {
   "bufferView": 7,
   "componentType": 5126,
   "count": 40,
   "type": "MAT4"
  },
  {
   "bufferView": 8,
   "componentType": 5126,
   "count": 88,
   "max": [
    0.05542049929499626,
    0.8675758838653564,
    -0.7544741630554199
   ],
   "min": [
    -0.05706913769245148,
    0.840625524520874,
    -0.7793010473251343
   ],
   "type": "VEC3"
  },
  {
   "bufferView": 9,
   "componentType": 5126,
   "count": 88,
   "type": "VEC3"
  },
  {
   "bufferView": 10,
   "componentType": 5126,
   "count": 88,
   "type": "VEC2"
  },
  {
   "bufferView": 11,
   "componentType": 5126,
   "count": 88,
   "type": "VEC2"
  },
  {
   "bufferView": 12,
   "componentType": 5126,
   "count": 88,
   "type": "VEC4"
  },
  {
   "bufferView": 13,
   "componentType": 5121,
   "count": 88,
   "type": "VEC4"
  },
  {
   "bufferView": 14,
   "componentType": 5126,
   "count": 88,
   "type": "VEC4"
  },
  {
   "bufferView": 15,
   "componentType": 5123,
   "count": 408,
   "type": "SCALAR"
  },
  {
   "bufferView": 16,
   "componentType": 5126,
   "count": 42560,
   "max": [
    0.13370603322982788,
    1.0420359373092651,
    0.6102485060691833
   ],
   "min": [
    -0.13498274981975555,
    0.0189801175147295,
    -0.9207208752632141
   ],
   "type": "VEC3"
  },
  {
   "bufferView": 17,
   "componentType": 5126,
   "count": 42560,
   "type": "VEC3"
  },
  {
   "bufferView": 18,
   "componentType": 5126,
   "count": 42560,
   "type": "VEC2"
  },
  {
   "bufferView": 19,
   "componentType": 5126,
   "count": 42560,
   "type": "VEC2"
  },
  {
   "bufferView": 20,
   "componentType": 5126,
   "count": 42560,
   "type": "VEC4"
  },
  {
   "bufferView": 21,
   "componentType": 5121,
   "count": 42560,
   "type": "VEC4"
  },
  {
   "bufferView": 22,
   "componentType": 5126,
   "count": 42560,
   "type": "VEC4"
  },
  {
   "bufferView": 23,
   "componentType": 5123,
   "count": 221592,
   "type": "SCALAR"
  }
 ],
 "bufferViews": [
  {
   "buffer": 0,
   "byteLength": 157344,
   "byteOffset": 0,
   "target": 34962
  },
  {
   "buffer": 0,
   "byteLength": 157344,
   "byteOffset": 157344,
   "target": 34962
  },
  {
   "buffer": 0,
   "byteLength": 104896,
   "byteOffset": 314688,
   "target": 34962
  },
  {
   "buffer": 0,
   "byteLength": 209792,
   "byteOffset": 419584,
   "target": 34962
  },
  {
   "buffer": 0,
   "byteLength": 52448,
   "byteOffset": 629376,
   "target": 34962
  },
  {
   "buffer": 0,
   "byteLength": 209792,
   "byteOffset": 681824,
   "target": 34962
  },
  {
   "buffer": 0,
   "byteLength": 146232,
   "byteOffset": 891616,
   "target": 34963
  },
  {
   "buffer": 0,
   "byteLength": 2560,
   "byteOffset": 1037848
  },
  {
   "buffer": 0,
   "byteLength": 1056,
   "byteOffset": 1040408,
   "target": 34962
  },
  {
   "buffer": 0,
   "byteLength": 1056,
   "byteOffset": 1041464,
   "target": 34962
  },
  {
   "buffer": 0,
   "byteLength": 704,
   "byteOffset": 1042520,
   "target": 34962
  },
  {
   "buffer": 0,
   "byteLength": 704,
   "byteOffset": 1043224,
   "target": 34962
  },
  {
   "buffer": 0,
   "byteLength": 1408,
   "byteOffset": 1043928,
   "target": 34962
  },
  {
   "buffer": 0,
   "byteLength": 352,
   "byteOffset": 1045336,
   "target": 34962
  },
  {
   "buffer": 0,
   "byteLength": 1408,
   "byteOffset": 1045688,
   "target": 34962
  },
  {
   "buffer": 0,
   "byteLength": 816,
   "byteOffset": 1047096,
   "target": 34963
  },
  {
   "buffer": 0,
   "byteLength": 510720,
   "byteOffset": 1047912,
   "target": 34962
  },
  {
   "buffer": 0,
   "byteLength": 510720,
   "byteOffset": 1558632,
   "target": 34962
  },
  {
   "buffer": 0,
   "byteLength": 340480,
   "byteOffset": 2069352,
   "target": 34962
  },
  {
   "buffer": 0,
   "byteLength": 340480,
   "byteOffset": 2409832,
   "target": 34962
  },
  {
   "buffer": 0,
   "byteLength": 680960,
   "byteOffset": 2750312,
   "target": 34962
  },
  {
   "buffer": 0,
   "byteLength": 170240,
   "byteOffset": 3431272,
   "target": 34962
  },
  {
   "buffer": 0,
   "byteLength": 680960,
   "byteOffset": 3601512,
   "target": 34962
  },
  {
   "buffer": 0,
   "byteLength": 443184,
   "byteOffset": 4282472,
   "target": 34963
  }
 ],
 "samplers": [
  {
   "magFilter": 9729,
   "minFilter": 9987
  }
 ],
 "buffers": [
  {
   "byteLength": 4725656,
   "uri": "wolf.bin"
  }
 ]
}