{
  "accessors": [
    {
      "bufferView": 2,
      "componentType": 5126,
      "count": 157,
      "max": [
        -0.6910575032234192,
        -0.34497174620628357,
        0.12933208048343658
      ],
      "min": [
        -1.1879680156707764,
        -0.4061947464942932,
        -1.7291755676269531
      ],
      "type": "VEC3"
    },
    {
      "bufferView": 2,
      "byteOffset": 1884,
      "componentType": 5126,
      "count": 157,
      "max": [
        0.9117340445518494,
        0.9998981952667236,
        0.9476804137229919
      ],
      "min": [
        -0.9120165109634399,
        -0.6943639516830444,
        -0.947679340839386
      ],
      "type": "VEC3"
    },
    {
      "bufferView": 3,
      "componentType": 5126,
      "count": 157,
      "max": [
        0.6844700574874878,
        0.955020546913147,
        1.0,
        1.0
      ],
      "min": [
        -0.6855039000511169,
        -0.9555153846740723,
        -0.6873562335968018,
        1.0
      ],
      "type": "VEC4"
    },
    {
      "bufferView": 1,
      "componentType": 5126,
      "count": 157,
      "max": [
        0.42824020981788635,
        0.2729114592075348
      ],
      "min": [
        0.11703449487686157,
        0.20145435631275177
      ],
      "type": "VEC2"
    },
    {
      "bufferView": 1,
      "byteOffset": 1256,
      "componentType": 5126,
      "count": 157,
      "max": [
        0.42824020981788635,
        0.2729114592075348
      ],
      "min": [
        0.11703449487686157,
        0.20145435631275177
      ],
      "type": "VEC2"
    },
    {
      "bufferView": 0,
      "componentType": 5125,
      "count": 696,
      "type": "SCALAR"
    },
    {
      "bufferView": 2,
      "byteOffset": 3768,
      "componentType": 5126,
      "count": 267,
      "max": [
        0.08380692452192307,
        0.11021139472723007,
        -0.17239803075790405
      ],
      "min": [
        -1.0851325988769531,
        -0.15831223130226135,
        -1.427445650100708
      ],
      "type": "VEC3"
    },
    {
      "bufferView": 2,
      "byteOffset": 6972,
      "componentType": 5126,
      "count": 267,
      "max": [
        0.8470132946968079,
        0.9972664713859558,
        0.9652135372161865
      ],
      "min": [
        -0.9750587344169617,
        -0.987155556678772,
        -0.9652134776115417
      ],
      "type": "VEC3"
    },
    {
      "bufferView": 3,
      "byteOffset": 2512,
      "componentType": 5126,
      "count": 267,
      "max": [
        0.9999433755874634,
        0.9750587344169617,
        0.9999985098838806,
        1.0
      ],
      "min": [
        -0.9999434351921082,
        -0.8470132946968079,
        -0.9999985098838806,
        -1.0
      ],
      "type": "VEC4"
    },
    {
      "bufferView": 1,
      "byteOffset": 2512,
      "componentType": 5126,
      "count": 267,
      "max": [
        0.6711573600769043,
        0.7451686263084412
      ],
      "min": [
        0.016230151057243347,
        0.12910564243793488
      ],
      "type": "VEC2"
    },
    {
      "bufferView": 1,
      "byteOffset": 4648,
      "componentType": 5126,
      "count": 267,
      "max": [
        0.6711573600769043,
        0.7451686263084412
      ],
      "min": [
        0.016230151057243347,
        0.12910564243793488
      ],
      "type": "VEC2"
    },
    {
      "bufferView": 0,
      "byteOffset": 2784,
      "componentType": 5125,
      "count": 1230,
      "type": "SCALAR"
    },
    {
      "bufferView": 2,
      "byteOffset": 10176,
      "componentType": 5126,
      "count": 3941,
      "max": [
        3.54974365234375,
        1.2172753810882568,
        1.56087064743042
      ],
      "min": [
        1.8948543071746826,
        -0.3952328860759735,
        0.35485705733299255
      ],
      "type": "VEC3"
    },
    {
      "bufferView": 2,
      "byteOffset": 57468,
      "componentType": 5126,
      "count": 3941,
      "max": [
        0.9999951720237732,
        1.0,
        1.0
      ],
      "min": [
        -0.9999900460243225,
        -1.0,
        -0.9999949336051941
      ],
      "type": "VEC3"
    },
    {
      "bufferView": 1,
      "byteOffset": 6784,
      "componentType": 5126,
      "count": 3941,
      "max": [
        0.499618262052536,
        0.49751925468444824
      ],
      "min": [
        0.00031145784305408597,
        0.0008982599247246981
      ],
      "type": "VEC2"
    },
    {
      "bufferView": 1,
      "byteOffset": 38312,
      "componentType": 5126,
      "count": 3941,
      "max": [
        0.499618262052536,
        0.49751925468444824
      ],
      "min": [
        0.00031145784305408597,
        0.0008982599247246981
      ],
      "type": "VEC2"
    },
    {
      "bufferView": 0,
      "byteOffset": 7704,
      "componentType": 5125,
      "count": 13470,
      "type": "SCALAR"
    },
    {
      "bufferView": 2,
      "byteOffset": 104760,
      "componentType": 5126,
      "count": 1732,
      "max": [
        1.4243665933609009,
        0.5279749631881714,
        0.12600870430469513
      ],
      "min": [
        -1.0839766263961792,
        -0.4637928009033203,
        -1.7258520126342773
      ],
      "type": "VEC3"
    },
    {
      "bufferView": 2,
      "byteOffset": 125544,
      "componentType": 5126,
      "count": 1732,
      "max": [
        0.9999808669090271,
        0.9999963641166687,
        1.0
      ],
      "min": [
        -0.9836899042129517,
        -0.9999418258666992,
        -1.0
      ],
      "type": "VEC3"
    },
    {
      "bufferView": 3,
      "byteOffset": 6784,
      "componentType": 5126,
      "count": 1732,
      "max": [
        0.9999999403953552,
        0.967789351940155,
        1.0,
        1.0
      ],
      "min": [
        -0.872114360332489,
        -0.9999908208847046,
        -1.0,
        -1.0
      ],
      "type": "VEC4"
    },
    {
      "bufferView": 1,
      "byteOffset": 69840,
      "componentType": 5126,
      "count": 1732,
      "max": [
        0.5424149632453918,
        0.9719473123550415
      ],
      "min": [
        0.022261813282966614,
        0.04554125666618347
      ],
      "type": "VEC2"
    },
    {
      "bufferView": 1,
      "byteOffset": 83696,
      "componentType": 5126,
      "count": 1732,
      "max": [
        0.5424149632453918,
        0.9719473123550415
      ],
      "min": [
        0.022261813282966614,
        0.04554125666618347
      ],
      "type": "VEC2"
    },
    {
      "bufferView": 0,
      "byteOffset": 61584,
      "componentType": 5125,
      "count": 6954,
      "type": "SCALAR"
    },
    {
      "bufferView": 2,
      "byteOffset": 146328,
      "componentType": 5126,
      "count": 28,
      "max": [
        1.6355535984039307,
        0.4245975613594055,
        -0.2252744436264038
      ],
      "min": [
        1.526641845703125,
        0.09566284716129303,
        -1.3745691776275635
      ],
      "type": "VEC3"
    },
    {
      "bufferView": 2,
      "byteOffset": 146664,
      "componentType": 5126,
      "count": 28,
      "max": [
        0.9493169784545898,
        0.3143245279788971,
        8.554072792321676e-07
      ],
      "min": [
        0.94931560754776,
        0.31432029604911804,
        -7.199838023552729e-07
      ],
      "type": "VEC3"
    },
    {
      "bufferView": 1,
      "byteOffset": 97552,
      "componentType": 5126,
      "count": 28,
      "max": [
        0.3175228238105774,
        0.3141937851905823
      ],
      "min": [
        0.034403275698423386,
        0.1953490674495697
      ],
      "type": "VEC2"
    },
    {
      "bufferView": 0,
      "byteOffset": 89400,
      "componentType": 5125,
      "count": 108,
      "type": "SCALAR"
    },
    {
      "bufferView": 2,
      "byteOffset": 147000,
      "componentType": 5126,
      "count": 75,
      "max": [
        0.5336986184120178,
        0.4628015458583832,
        -0.10157154500484467
      ],
      "min": [
        0.07658902555704117,
        0.11088249832391739,
        -1.4982720613479614
      ],
      "type": "VEC3"
    },
    {
      "bufferView": 2,
      "byteOffset": 147900,
      "componentType": 5126,
      "count": 75,
      "max": [
        -0.5612314343452454,
        0.7567819356918335,
        0.3629356324672699
      ],
      "min": [
        -0.6600584387779236,
        0.7236372828483582,
        -0.3629356026649475
      ],
      "type": "VEC3"
    },
    {
      "bufferView": 1,
      "byteOffset": 97776,
      "componentType": 5126,
      "count": 75,
      "max": [
        0.31450748443603516,
        0.47047293186187744
      ],
      "min": [
        0.031639646738767624,
        0.34627166390419006
      ],
      "type": "VEC2"
    },
    {
      "bufferView": 0,
      "byteOffset": 89832,
      "componentType": 5125,
      "count": 336,
      "type": "SCALAR"
    },
    {
      "bufferView": 2,
      "byteOffset": 148800,
      "componentType": 5126,
      "count": 8049,
      "max": [
        -1.296144723892212,
        0.954546332359314,
        -0.13519300520420074
      ],
      "min": [
        -3.029839515686035,
        -0.222176194190979,
        -4.425323963165283
      ],
      "type": "VEC3"
    },
    {
      "bufferView": 2,
      "byteOffset": 245388,
      "componentType": 5126,
      "count": 8049,
      "max": [
        1.0,
        1.0,
        1.0
      ],
      "min": [
        -1.0,
        -1.0,
        -1.0
      ],
      "type": "VEC3"
    },
    {
      "bufferView": 1,
      "byteOffset": 98376,
      "componentType": 5126,
      "count": 8049,
      "max": [
        0.9994616508483887,
        0.99995356798172
      ],
      "min": [
        0.0013282460859045386,
        0.0009934378322213888
      ],
      "type": "VEC2"
    },
    {
      "bufferView": 1,
      "byteOffset": 162768,
      "componentType": 5126,
      "count": 8049,
      "max": [
        0.9994616508483887,
        0.99995356798172
      ],
      "min": [
        0.0013282460859045386,
        0.0009934378322213888
      ],
      "type": "VEC2"
    },
    {
      "bufferView": 1,
      "byteOffset": 227160,
      "componentType": 5126,
      "count": 8049,
      "max": [
        0.9994616508483887,
        0.99995356798172
      ],
      "min": [
        0.0013282460859045386,
        0.0009934378322213888
      ],
      "type": "VEC2"
    },
    {
      "bufferView": 0,
      "byteOffset": 91176,
      "componentType": 5125,
      "count": 23904,
      "type": "SCALAR"
    },
    {
      "bufferView": 2,
      "byteOffset": 341976,
      "componentType": 5126,
      "count": 560,
      "max": [
        0.21450366079807281,
        0.25256097316741943,
        8.781445615113626e-08
      ],
      "min": [
        -0.03383485972881317,
        -0.17408320307731628,
        -1.731541633605957
      ],
      "type": "VEC3"
    },
    {
      "bufferView": 2,
      "byteOffset": 348696,
      "componentType": 5126,
      "count": 560,
      "max": [
        1.0,
        1.0,
        0.9870873689651489
      ],
      "min": [
        -1.0,
        -1.0,
        -0.987087607383728
      ],
      "type": "VEC3"
    },
    {
      "bufferView": 1,
      "byteOffset": 291552,
      "componentType": 5126,
      "count": 560,
      "max": [
        0.918175220489502,
        0.990553081035614
      ],
      "min": [
        0.05375237017869949,
        0.0649842917919159
      ],
      "type": "VEC2"
    },
    {
      "bufferView": 1,
      "byteOffset": 296032,
      "componentType": 5126,
      "count": 560,
      "max": [
        0.918175220489502,
        0.990553081035614
      ],
      "min": [
        0.05375237017869949,
        0.0649842917919159
      ],
      "type": "VEC2"
    },
    {
      "bufferView": 1,
      "byteOffset": 300512,
      "componentType": 5126,
      "count": 560,
      "max": [
        0.918175220489502,
        0.990553081035614
      ],
      "min": [
        0.05375237017869949,
        0.0649842917919159
      ],
      "type": "VEC2"
    },
    {
      "bufferView": 0,
      "byteOffset": 186792,
      "componentType": 5125,
      "count": 1650,
      "type": "SCALAR"
    },
    {
      "bufferView": 2,
      "byteOffset": 355416,
      "componentType": 5126,
      "count": 1365,
      "max": [
        3.6212592124938965,
        -0.5180522799491882,
        0.07543545961380005
      ],
      "min": [
        -0.9343926906585693,
        -0.8951697945594788,
        -1.673927664756775
      ],
      "type": "VEC3"
    },
    {
      "bufferView": 2,
      "byteOffset": 371796,
      "componentType": 5126,
      "count": 1365,
      "max": [
        1.0,
        1.0,
        1.0
      ],
      "min": [
        -0.9999986290931702,
        -1.0,
        -1.0
      ],
      "type": "VEC3"
    },
    {
      "bufferView": 1,
      "byteOffset": 304992,
      "componentType": 5126,
      "count": 1365,
      "max": [
        0.6102137565612793,
        0.8751755952835083
      ],
      "min": [
        0.009944196790456772,
        0.7015336155891418
      ],
      "type": "VEC2"
    },
    {
      "bufferView": 1,
      "byteOffset": 315912,
      "componentType": 5126,
      "count": 1365,
      "max": [
        0.6102137565612793,
        0.8751755952835083
      ],
      "min": [
        0.009944196790456772,
        0.7015336155891418
      ],
      "type": "VEC2"
    },
    {
      "bufferView": 1,
      "byteOffset": 326832,
      "componentType": 5126,
      "count": 1365,
      "max": [
        0.6102137565612793,
        0.8751755952835083
      ],
      "min": [
        0.009944196790456772,
        0.7015336155891418
      ],
      "type": "VEC2"
    },
    {
      "bufferView": 0,
      "byteOffset": 193392,
      "componentType": 5125,
      "count": 2940,
      "type": "SCALAR"
    },
    {
      "bufferView": 2,
      "byteOffset": 388176,
      "componentType": 5126,
      "count": 20,
      "max": [
        1.1256206035614014,
        0.4541502594947815,
        -1.4386587142944336
      ],
      "min": [
        0.38070908188819885,
        0.05580136924982071,
        -1.5760760307312012
      ],
      "type": "VEC3"
    },
    {
      "bufferView": 2,
      "byteOffset": 388416,
      "componentType": 5126,
      "count": 20,
      "max": [
        -0.0001917049812618643,
        0.3261314928531647,
        -0.9453244805335999
      ],
      "min": [
        -0.0001946652919286862,
        0.3261224627494812,
        -0.9453275203704834
      ],
      "type": "VEC3"
    },
    {
      "bufferView": 1,
      "byteOffset": 337752,
      "componentType": 5126,
      "count": 20,
      "max": [
        0.18307428061962128,
        0.14451056718826294
      ],
      "min": [
        0.02252127416431904,
        0.03794986009597778
      ],
      "type": "VEC2"
    },
    {
      "bufferView": 0,
      "byteOffset": 205152,
      "componentType": 5125,
      "count": 66,
      "type": "SCALAR"
    },
    {
      "bufferView": 2,
      "byteOffset": 388656,
      "componentType": 5126,
      "count": 330,
      "max": [
        -0.9343622922897339,
        -0.16115203499794006,
        0.06536871194839478
      ],
      "min": [
        -1.0994737148284912,
        -0.32766497135162354,
        -1.651071310043335
      ],
      "type": "VEC3"
    },
    {
      "bufferView": 2,
      "byteOffset": 392616,
      "componentType": 5126,
      "count": 330,
      "max": [
        0.3174840807914734,
        0.8352461457252502,
        0.9767895340919495
      ],
      "min": [
        -0.993197500705719,
        -0.6501219272613525,
        -0.976786196231842
      ],
      "type": "VEC3"
    },
    {
      "bufferView": 1,
      "byteOffset": 337912,
      "componentType": 5126,
      "count": 330,
      "max": [
        0.8546833992004395,
        0.4935208857059479
      ],
      "min": [
        0.6055688858032227,
        0.4153178930282593
      ],
      "type": "VEC2"
    },
    {
      "bufferView": 0,
      "byteOffset": 205416,
      "componentType": 5125,
      "count": 1230,
      "type": "SCALAR"
    },
    {
      "bufferView": 2,
      "byteOffset": 396576,
      "componentType": 5126,
      "count": 823,
      "max": [
        -0.6910575032234192,
        -0.34497174620628357,
        0.12933208048343658
      ],
      "min": [
        -1.1879680156707764,
        -0.7572945952415466,
        -1.7291755676269531
      ],
      "type": "VEC3"
    },
    {
      "bufferView": 2,
      "byteOffset": 406452,
      "componentType": 5126,
      "count": 823,
      "max": [
        0.9922534823417664,
        0.9417282342910767,
        1.0
      ],
      "min": [
        -0.9987040758132935,
        -0.9712755680084229,
        -1.0
      ],
      "type": "VEC3"
    },
    {
      "bufferView": 1,
      "byteOffset": 340552,
      "componentType": 5126,
      "count": 823,
      "max": [
        0.9923692941665649,
        0.999700665473938
      ],
      "min": [
        2.868817773560295e-06,
        0.03025352954864502
      ],
      "type": "VEC2"
    },
    {
      "bufferView": 1,
      "byteOffset": 347136,
      "componentType": 5126,
      "count": 823,
      "max": [
        0.9923692941665649,
        0.999700665473938
      ],
      "min": [
        2.868817773560295e-06,
        0.03025352954864502
      ],
      "type": "VEC2"
    },
    {
      "bufferView": 1,
      "byteOffset": 353720,
      "componentType": 5126,
      "count": 823,
      "max": [
        0.9923692941665649,
        0.999700665473938
      ],
      "min": [
        2.868817773560295e-06,
        0.03025352954864502
      ],
      "type": "VEC2"
    },
    {
      "bufferView": 0,
      "byteOffset": 210336,
      "componentType": 5125,
      "count": 3018,
      "type": "SCALAR"
    },
    {
      "bufferView": 2,
      "byteOffset": 416328,
      "componentType": 5126,
      "count": 1695,
      "max": [
        2.921520709991455,
        0.4095933139324188,
        0.12860144674777985
      ],
      "min": [
        0.5389752388000488,
        -0.35216933488845825,
        -1.8077912330627441
      ],
      "type": "VEC3"
    },
    {
      "bufferView": 2,
      "byteOffset": 436668,
      "componentType": 5126,
      "count": 1695,
      "max": [
        1.0,
        1.0,
        1.0
      ],
      "min": [
        -1.0,
        -1.0,
        -1.0
      ],
      "type": "VEC3"
    },
    {
      "bufferView": 3,
      "byteOffset": 34496,
      "componentType": 5126,
      "count": 1695,
      "max": [
        1.0,
        0.9999999403953552,
        1.0,
        1.0
      ],
      "min": [
        -1.0,
        -1.0,
        -1.0,
        -1.0
      ],
      "type": "VEC4"
    },
    {
      "bufferView": 1,
      "byteOffset": 360304,
      "componentType": 5126,
      "count": 1695,
      "max": [
        0.9579423069953918,
        0.9796979427337646
      ],
      "min": [
        0.12556207180023193,
        0.01008940301835537
      ],
      "type": "VEC2"
    },
    {
      "bufferView": 1,
      "byteOffset": 373864,
      "componentType": 5126,
      "count": 1695,
      "max": [
        0.9579423069953918,
        0.9796979427337646
      ],
      "min": [
        0.12556207180023193,
        0.01008940301835537
      ],
      "type": "VEC2"
    },
    {
      "bufferView": 0,
      "byteOffset": 222408,
      "componentType": 5125,
      "count": 5538,
      "type": "SCALAR"
    },
    {
      "bufferView": 2,
      "byteOffset": 457008,
      "componentType": 5126,
      "count": 1058,
      "max": [
        2.9156126976013184,
        0.4843927323818207,
        0.05789697915315628
      ],
      "min": [
        0.5434204936027527,
        -0.37827247381210327,
        -1.7370867729187012
      ],
      "type": "VEC3"
    },
    {
      "bufferView": 2,
      "byteOffset": 469704,
      "componentType": 5126,
      "count": 1058,
      "max": [
        1.0,
        1.0,
        1.0
      ],
      "min": [
        -1.0,
        -1.0,
        -1.0
      ],
      "type": "VEC3"
    },
    {
      "bufferView": 1,
      "byteOffset": 387424,
      "componentType": 5126,
      "count": 1058,
      "max": [
        0.9914631843566895,
        0.968377947807312
      ],
      "min": [
        0.00741242989897728,
        0.03204736486077309
      ],
      "type": "VEC2"
    },
    {
      "bufferView": 1,
      "byteOffset": 395888,
      "componentType": 5126,
      "count": 1058,
      "max": [
        0.9914631843566895,
        0.968377947807312
      ],
      "min": [
        0.00741242989897728,
        0.03204736486077309
      ],
      "type": "VEC2"
    },
    {
      "bufferView": 1,
      "byteOffset": 404352,
      "componentType": 5126,
      "count": 1058,
      "max": [
        0.9914631843566895,
        0.968377947807312
      ],
      "min": [
        0.00741242989897728,
        0.03204736486077309
      ],
      "type": "VEC2"
    },
    {
      "bufferView": 0,
      "byteOffset": 244560,
      "componentType": 5125,
      "count": 2508,
      "type": "SCALAR"
    },
    {
      "bufferView": 2,
      "byteOffset": 482400,
      "componentType": 5126,
      "count": 20,
      "max": [
        1.1256206035614014,
        0.45415037870407104,
        -0.02376776561141014
      ],
      "min": [
        0.38070908188819885,
        0.05580148845911026,
        -0.16118498146533966
      ],
      "type": "VEC3"
    },
    {
      "bufferView": 2,
      "byteOffset": 482640,
      "componentType": 5126,
      "count": 20,
      "max": [
        -0.00019307313777972013,
        0.32612600922584534,
        0.9453266859054565
      ],
      "min": [
        -0.00019368910579942167,
        0.3261248469352722,
        0.9453262686729431
      ],
      "type": "VEC3"
    },
    {
      "bufferView": 1,
      "byteOffset": 412816,
      "componentType": 5126,
      "count": 20,
      "max": [
        0.18307428061962128,
        0.14451056718826294
      ],
      "min": [
        0.02252127416431904,
        0.03794986009597778
      ],
      "type": "VEC2"
    },
    {
      "bufferView": 0,
      "byteOffset": 254592,
      "componentType": 5125,
      "count": 66,
      "type": "SCALAR"
    },
    {
      "bufferView": 2,
      "byteOffset": 482880,
      "componentType": 5126,
      "count": 311,
      "max": [
        2.86184024810791,
        0.9468413591384888,
        1.1609644889831543
      ],
      "min": [
        2.6977124214172363,
        0.6286877393722534,
        0.8386229276657104
      ],
      "type": "VEC3"
    },
    {
      "bufferView": 2,
      "byteOffset": 486612,
      "componentType": 5126,
      "count": 311,
      "max": [
        0.9758104085922241,
        1.0,
        0.9722257256507874
      ],
      "min": [
        -0.9922232031822205,
        -0.9997570514678955,
        -0.9996647834777832
      ],
      "type": "VEC3"
    },
    {
      "bufferView": 1,
      "byteOffset": 412976,
      "componentType": 5126,
      "count": 311,
      "max": [
        0.49768587946891785,
        0.13921676576137543
      ],
      "min": [
        0.4231279194355011,
        0.002406674437224865
      ],
      "type": "VEC2"
    },
    {
      "bufferView": 1,
      "byteOffset": 415464,
      "componentType": 5126,
      "count": 311,
      "max": [
        0.49768587946891785,
        0.13921676576137543
      ],
      "min": [
        0.4231279194355011,
        0.002406674437224865
      ],
      "type": "VEC2"
    },
    {
      "bufferView": 0,
      "byteOffset": 254856,
      "componentType": 5125,
      "count": 1134,
      "type": "SCALAR"
    },
    {
      "bufferView": 2,
      "byteOffset": 490344,
      "componentType": 5126,
      "count": 30,
      "max": [
        -1.5829240083694458,
        0.35135936737060547,
        -4.350987911224365
      ],
      "min": [
        -2.7430601119995117,
        0.21637696027755737,
        -4.414749622344971
      ],
      "type": "VEC3"
    },
    {
      "bufferView": 2,
      "byteOffset": 490704,
      "componentType": 5126,
      "count": 30,
      "max": [
        0.5990374684333801,
        0.5914333462715149,
        -0.7600313425064087
      ],
      "min": [
        -0.5989924073219299,
        -0.5617830157279968,
        -0.9987354278564453
      ],
      "type": "VEC3"
    },
    {
      "bufferView": 1,
      "byteOffset": 417952,
      "componentType": 5126,
      "count": 30,
      "max": [
        0.24771304428577423,
        0.7474266886711121
      ],
      "min": [
        0.16779062151908875,
        0.6991992592811584
      ],
      "type": "VEC2"
    },
    {
      "bufferView": 0,
      "byteOffset": 259392,
      "componentType": 5125,
      "count": 96,
      "type": "SCALAR"
    },
    {
      "bufferView": 2,
      "byteOffset": 491064,
      "componentType": 5126,
      "count": 60,
      "max": [
        -1.4564310312271118,
        0.3552367687225342,
        -0.09378558397293091
      ],
      "min": [
        -2.8695526123046875,
        0.02097901701927185,
        -4.401104927062988
      ],
      "type": "VEC3"
    },
    {
      "bufferView": 2,
      "byteOffset": 491784,
      "componentType": 5126,
      "count": 60,
      "max": [
        0.8009828329086304,
        0.6054222583770752,
        0.9934597015380859
      ],
      "min": [
        -0.8009832501411438,
        -0.5284509062767029,
        -0.845850944519043
      ],
      "type": "VEC3"
    },
    {
      "bufferView": 1,
      "byteOffset": 418192,
      "componentType": 5126,
      "count": 60,
      "max": [
        0.16549791395664215,
        0.7466686964035034
      ],
      "min": [
        0.0844816043972969,
        0.6986811757087708
      ],
      "type": "VEC2"
    },
    {
      "bufferView": 0,
      "byteOffset": 259776,
      "componentType": 5125,
      "count": 168,
      "type": "SCALAR"
    },
    {
      "bufferView": 2,
      "byteOffset": 492504,
      "componentType": 5126,
      "count": 933,
      "max": [
        -1.833166480064392,
        0.18581970036029816,
        0.03984193503856659
      ],
      "min": [
        -2.1135690212249756,
        -0.31544604897499084,
        -1.719031810760498
      ],
      "type": "VEC3"
    },
    {
      "bufferView": 2,
      "byteOffset": 503700,
      "componentType": 5126,
      "count": 933,
      "max": [
        0.9999598264694214,
        0.9999995231628418,
        1.0
      ],
      "min": [
        -0.9997925162315369,
        -0.9999971389770508,
        -1.0
      ],
      "type": "VEC3"
    },
    {
      "bufferView": 1,
      "byteOffset": 418672,
      "componentType": 5126,
      "count": 933,
      "max": [
        0.7904384732246399,
        0.485752671957016
      ],
      "min": [
        0.5177533626556396,
        0.1072145625948906
      ],
      "type": "VEC2"
    },
    {
      "bufferView": 1,
      "byteOffset": 426136,
      "componentType": 5126,
      "count": 933,
      "max": [
        0.7904384732246399,
        0.485752671957016
      ],
      "min": [
        0.5177533626556396,
        0.1072145625948906
      ],
      "type": "VEC2"
    },
    {
      "bufferView": 1,
      "byteOffset": 433600,
      "componentType": 5126,
      "count": 933,
      "max": [
        0.7904384732246399,
        0.485752671957016
      ],
      "min": [
        0.5177533626556396,
        0.1072145625948906
      ],
      "type": "VEC2"
    },
    {
      "bufferView": 0,
      "byteOffset": 260448,
      "componentType": 5125,
      "count": 4104,
      "type": "SCALAR"
    },
    {
      "bufferView": 2,
      "byteOffset": 514896,
      "componentType": 5126,
      "count": 136,
      "max": [
        4.071544170379639,
        -0.9234589338302612,
        0.06815493106842041
      ],
      "min": [
        4.04572868347168,
        -1.0163698196411133,
        -1.6538625955581665
      ],
      "type": "VEC3"
    },
    {
      "bufferView": 2,
      "byteOffset": 516528,
      "componentType": 5126,
      "count": 136,
      "max": [
        0.9956728219985962,
        0.949165403842926,
        0.9918148517608643
      ],
      "min": [
        0.12725166976451874,
        -0.9903156757354736,
        -0.9918146133422852
      ],
      "type": "VEC3"
    },
    {
      "bufferView": 1,
      "byteOffset": 441064,
      "componentType": 5126,
      "count": 136,
      "max": [
        0.9798264503479004,
        0.4101916551589966
      ],
      "min": [
        0.7766128182411194,
        0.3759717345237732
      ],
      "type": "VEC2"
    },
    {
      "bufferView": 0,
      "byteOffset": 276864,
      "componentType": 5125,
      "count": 324,
      "type": "SCALAR"
    },
    {
      "bufferView": 2,
      "byteOffset": 518160,
      "componentType": 5126,
      "count": 10,
      "max": [
        0.039031028747558594,
        0.1459057331085205,
        -0.1732082962989807
      ],
      "min": [
        0.017075061798095703,
        0.05481886863708496,
        -1.5544012784957886
      ],
      "type": "VEC3"
    },
    {
      "bufferView": 2,
      "byteOffset": 518280,
      "componentType": 5126,
      "count": 10,
      "max": [
        1.0,
        0.212543323636055,
        0.21923930943012238
      ],
      "min": [
        0.9522395730018616,
        -0.21254126727581024,
        -0.21923987567424774
      ],
      "type": "VEC3"
    },
    {
      "bufferView": 1,
      "byteOffset": 442152,
      "componentType": 5126,
      "count": 10,
      "max": [
        0.2474193572998047,
        0.7472786903381348
      ],
      "min": [
        0.16842913627624512,
        0.6997532844543457
      ],
      "type": "VEC2"
    },
    {
      "bufferView": 0,
      "byteOffset": 278160,
      "componentType": 5125,
      "count": 24,
      "type": "SCALAR"
    },
    {
      "bufferView": 2,
      "byteOffset": 518400,
      "componentType": 5126,
      "count": 18,
      "max": [
        0.0390315055847168,
        0.14590567350387573,
        -0.2756311297416687
      ],
      "min": [
        0.017835140228271484,
        0.05481886863708496,
        -1.4519785642623901
      ],
      "type": "VEC3"
    },
    {
      "bufferView": 2,
      "byteOffset": 518616,
      "componentType": 5126,
      "count": 18,
      "max": [
        0.9934600591659546,
        0.3963611423969269,
        0.4439968168735504
      ],
      "min": [
        0.8915282487869263,
        -0.3963490426540375,
        -0.4439949095249176
      ],
      "type": "VEC3"
    },
    {
      "bufferView": 1,
      "byteOffset": 442232,
      "componentType": 5126,
      "count": 18,
      "max": [
        0.08477789163589478,
        0.7467316389083862
      ],
      "min": [
        0.004281952977180481,
        0.7073855996131897
      ],
      "type": "VEC2"
    },
    {
      "bufferView": 0,
      "byteOffset": 278256,
      "componentType": 5125,
      "count": 48,
      "type": "SCALAR"
    },
    {
      "bufferView": 2,
      "byteOffset": 518832,
      "componentType": 5126,
      "count": 728,
      "max": [
        0.3365616202354431,
        0.14950114488601685,
        0.3365617096424103
      ],
      "min": [
        -0.3365616202354431,
        -0.09075754135847092,
        -0.3365616798400879
      ],
      "type": "VEC3"
    },
    {
      "bufferView": 2,
      "byteOffset": 527568,
      "componentType": 5126,
      "count": 728,
      "max": [
        0.9998896718025208,
        1.0,
        0.9949930310249329
      ],
      "min": [
        -0.9998896718025208,
        -1.0,
        -0.9948070049285889
      ],
      "type": "VEC3"
    },
    {
      "bufferView": 1,
      "byteOffset": 442376,
      "componentType": 5126,
      "count": 728,
      "max": [
        0.9881072044372559,
        0.9795324802398682
      ],
      "min": [
        0.014489978551864624,
        0.0074332524091005325
      ],
      "type": "VEC2"
    },
    {
      "bufferView": 1,
      "byteOffset": 448200,
      "componentType": 5126,
      "count": 728,
      "max": [
        0.9881072044372559,
        0.9795324802398682
      ],
      "min": [
        0.014489978551864624,
        0.0074332524091005325
      ],
      "type": "VEC2"
    },
    {
      "bufferView": 0,
      "byteOffset": 278448,
      "componentType": 5125,
      "count": 2478,
      "type": "SCALAR"
    },
    {
      "bufferView": 2,
      "byteOffset": 536304,
      "componentType": 5126,
      "count": 863,
      "max": [
        0.3365616202354431,
        0.5557807683944702,
        0.3365616798400879
      ],
      "min": [
        -0.3365616202354431,
        -0.10236378014087677,
        -0.3365617096424103
      ],
      "type": "VEC3"
    },
    {
      "bufferView": 2,
      "byteOffset": 546660,
      "componentType": 5126,
      "count": 863,
      "max": [
        1.0,
        1.0,
        1.0
      ],
      "min": [
        -1.0,
        -1.0,
        -1.0
      ],
      "type": "VEC3"
    },
    {
      "bufferView": 1,
      "byteOffset": 454024,
      "componentType": 5126,
      "count": 863,
      "max": [
        0.9881109595298767,
        0.9795317649841309
      ],
      "min": [
        0.014492789283394814,
        0.007417192682623863
      ],
      "type": "VEC2"
    },
    {
      "bufferView": 1,
      "byteOffset": 460928,
      "componentType": 5126,
      "count": 863,
      "max": [
        0.9881109595298767,
        0.9795317649841309
      ],
      "min": [
        0.014492789283394814,
        0.007417192682623863
      ],
      "type": "VEC2"
    },
    {
      "bufferView": 0,
      "byteOffset": 288360,
      "componentType": 5125,
      "count": 3090,
      "type": "SCALAR"
    },
    {
      "bufferView": 2,
      "byteOffset": 557016,
      "componentType": 5126,
      "count": 863,
      "max": [
        0.3365616202354431,
        0.5557807683944702,
        0.3365616798400879
      ],
      "min": [
        -0.3365616202354431,
        -0.10236378014087677,
        -0.3365617096424103
      ],
      "type": "VEC3"
    },
    {
      "bufferView": 2,
      "byteOffset": 567372,
      "componentType": 5126,
      "count": 863,
      "max": [
        1.0,
        1.0,
        1.0
      ],
      "min": [
        -1.0,
        -1.0,
        -1.0
      ],
      "type": "VEC3"
    },
    {
      "bufferView": 1,
      "byteOffset": 467832,
      "componentType": 5126,
      "count": 863,
      "max": [
        0.9881109595298767,
        0.9795317649841309
      ],
      "min": [
        0.014492789283394814,
        0.007417192682623863
      ],
      "type": "VEC2"
    },
    {
      "bufferView": 1,
      "byteOffset": 474736,
      "componentType": 5126,
      "count": 863,
      "max": [
        0.9881109595298767,
        0.9795317649841309
      ],
      "min": [
        0.014492789283394814,
        0.007417192682623863
      ],
      "type": "VEC2"
    },
    {
      "bufferView": 0,
      "byteOffset": 300720,
      "componentType": 5125,
      "count": 3090,
      "type": "SCALAR"
    },
    {
      "bufferView": 2,
      "byteOffset": 577728,
      "componentType": 5126,
      "count": 728,
      "max": [
        0.3365616202354431,
        0.14950114488601685,
        0.3365617096424103
      ],
      "min": [
        -0.3365616202354431,
        -0.09075754135847092,
        -0.3365616798400879
      ],
      "type": "VEC3"
    },
    {
      "bufferView": 2,
      "byteOffset": 586464,
      "componentType": 5126,
      "count": 728,
      "max": [
        0.9998896718025208,
        1.0,
        0.9949930310249329
      ],
      "min": [
        -0.9998896718025208,
        -1.0,
        -0.9948070049285889
      ],
      "type": "VEC3"
    },
    {
      "bufferView": 1,
      "byteOffset": 481640,
      "componentType": 5126,
      "count": 728,
      "max": [
        0.9881072044372559,
        0.9795324802398682
      ],
      "min": [
        0.014489978551864624,
        0.0074332524091005325
      ],
      "type": "VEC2"
    },
    {
      "bufferView": 1,
      "byteOffset": 487464,
      "componentType": 5126,
      "count": 728,
      "max": [
        0.9881072044372559,
        0.9795324802398682
      ],
      "min": [
        0.014489978551864624,
        0.0074332524091005325
      ],
      "type": "VEC2"
    },
    {
      "bufferView": 0,
      "byteOffset": 313080,
      "componentType": 5125,
      "count": 2478,
      "type": "SCALAR"
    },
    {
      "bufferView": 2,
      "byteOffset": 595200,
      "componentType": 5126,
      "count": 18,
      "max": [
        0.510074257850647,
        -0.5813509225845337,
        -0.40459519624710083
      ],
      "min": [
        -0.9583043456077576,
        -0.7650132775306702,
        -2.103541135787964
      ],
      "type": "VEC3"
    },
    {
      "bufferView": 2,
      "byteOffset": 595416,
      "componentType": 5126,
      "count": 18,
      "max": [
        -0.0007430335390381515,
        0.036469414830207825,
        0.9993345737457275
      ],
      "min": [
        -1.0,
        -7.178597343227011e-07,
        -0.9993345737457275
      ],
      "type": "VEC3"
    },
    {
      "bufferView": 1,
      "byteOffset": 493288,
      "componentType": 5126,
      "count": 18,
      "max": [
        0.24583029747009277,
        0.9734156727790833
      ],
      "min": [
        0.001812273752875626,
        0.5732185244560242
      ],
      "type": "VEC2"
    },
    {
      "bufferView": 1,
      "byteOffset": 493432,
      "componentType": 5126,
      "count": 18,
      "max": [
        0.24583029747009277,
        0.9734156727790833
      ],
      "min": [
        0.001812273752875626,
        0.5732185244560242
      ],
      "type": "VEC2"
    },
    {
      "bufferView": 0,
      "byteOffset": 322992,
      "componentType": 5125,
      "count": 30,
      "type": "SCALAR"
    },
    {
      "bufferView": 2,
      "byteOffset": 595632,
      "componentType": 5126,
      "count": 96,
      "max": [
        -0.3421662151813507,
        0.5598644614219666,
        0.004290614277124405
      ],
      "min": [
        -0.642166256904602,
        0.4098644554615021,
        0.0
      ],
      "type": "VEC3"
    },
    {
      "bufferView": 2,
      "byteOffset": 596784,
      "componentType": 5126,
      "count": 96,
      "max": [
        0.8277473449707031,
        0.8206135630607605,
        1.0
      ],
      "min": [
        -0.8277504444122314,
        -0.820611298084259,
        -1.0
      ],
      "type": "VEC3"
    },
    {
      "bufferView": 1,
      "byteOffset": 493576,
      "componentType": 5126,
      "count": 96,
      "max": [
        0.9676647186279297,
        1.0
      ],
      "min": [
        0.0,
        0.13188180327415466
      ],
      "type": "VEC2"
    },
    {
      "bufferView": 1,
      "byteOffset": 494344,
      "componentType": 5126,
      "count": 96,
      "max": [
        0.9676647186279297,
        1.0
      ],
      "min": [
        0.0,
        0.13188180327415466
      ],
      "type": "VEC2"
    },
    {
      "bufferView": 0,
      "byteOffset": 323112,
      "componentType": 5125,
      "count": 240,
      "type": "SCALAR"
    },
    {
      "bufferView": 2,
      "byteOffset": 597936,
      "componentType": 5126,
      "count": 96,
      "max": [
        -0.3421662151813507,
        0.5598644614219666,
        0.004290614277124405
      ],
      "min": [
        -0.642166256904602,
        0.4098644554615021,
        0.0
      ],
      "type": "VEC3"
    },
    {
      "bufferView": 2,
      "byteOffset": 599088,
      "componentType": 5126,
      "count": 96,
      "max": [
        0.8277473449707031,
        0.8206135630607605,
        1.0
      ],
      "min": [
        -0.8277504444122314,
        -0.820611298084259,
        -1.0
      ],
      "type": "VEC3"
    },
    {
      "bufferView": 1,
      "byteOffset": 495112,
      "componentType": 5126,
      "count": 96,
      "max": [
        0.9676647186279297,
        1.0
      ],
      "min": [
        0.0,
        0.13188180327415466
      ],
      "type": "VEC2"
    },
    {
      "bufferView": 1,
      "byteOffset": 495880,
      "componentType": 5126,
      "count": 96,
      "max": [
        0.9676647186279297,
        1.0
      ],
      "min": [
        0.0,
        0.13188180327415466
      ],
      "type": "VEC2"
    },
    {
      "bufferView": 0,
      "byteOffset": 324072,
      "componentType": 5125,
      "count": 240,
      "type": "SCALAR"
    }
  ],
  "asset": {
    "extras": {
      "author": "Daniel Zhabotinsky (https://sketchfab.com/DanielZhabotinsky)",
      "license": "CC-BY-4.0 (http://creativecommons.org/licenses/by/4.0/)",
      "source": "https://sketchfab.com/3d-models/lightbody-90-md-pickup-low-poly-model-3b3ac59245c44872b06ad85673be9643",
      "title": "Lightbody '90 MD Pickup - Low poly model"
    },
    "generator": "Sketchfab-16.75.0",
    "version": "2.0"
  },
  "bufferViews": [
    {
      "buffer": 0,
      "byteLength": 325032,
      "name": "floatBufferViews",
      "target": 34963
    },
    {
      "buffer": 0,
      "byteLength": 496648,
      "byteOffset": 325032,
      "byteStride": 8,
      "name": "floatBufferViews",
      "target": 34962
    },
    {
      "buffer": 0,
      "byteLength": 600240,
      "byteOffset": 821680,
      "byteStride": 12,
      "name": "floatBufferViews",
      "target": 34962
    },
    {
      "buffer": 0,
      "byteLength": 61616,
      "byteOffset": 1421920,
      "byteStride": 16,
      "name": "floatBufferViews",
      "target": 34962
    }
  ],
  "buffers": [
    {
      "byteLength": 1483536,
      "uri": "scene.bin"
    }
  ],
  "extensionsUsed": [
    "KHR_texture_transform",
    "KHR_materials_clearcoat",
    "KHR_materials_specular"
  ],
  "images": [
    {
      "uri": "textures/UTLTRUCK90_Bodymat_metallicRoughness.png"
    },
    {
      "uri": "textures/UTLTRUCK90_Bodymat_normal.png"
    },
    {
      "uri": "textures/UTLTRUCK90_Bodymat_specularf0.png"
    },
    {
      "uri": "textures/UCB_Interiors_1_baseColor.jpeg"
    },
    {
      "uri": "textures/UCB_Interiors_1_metallicRoughness.png"
    },
    {
      "uri": "textures/UCB_Lights_and_Glass_Transperent_baseColor.jpeg"
    },
    {
      "uri": "textures/UCB_BOTTOM_baseColor.jpeg"
    },
    {
      "uri": "textures/UCB_BOTTOM_metallicRoughness.png"
    },
    {
      "uri": "textures/UCB_BOTTOM_specularf0.png"
    },
    {
      "uri": "textures/RB1c_Tire_1k_baseColor.jpeg"
    },
    {
      "uri": "textures/RB1c_Tire_1k_metallicRoughness.png"
    },
    {
      "uri": "textures/RB1c_Tire_1k_specularf0.png"
    },
    {
      "uri": "textures/Carbadges_misc_U_baseColor.png"
    },
    {
      "uri": "textures/Numberplates_Misk_U_baseColor.png"
    }
  ],
  "materials": [
    {
      "doubleSided": true,
      "extensions": {
        "KHR_materials_clearcoat": {
          "clearcoatFactor": 0.625216332438023,
          "clearcoatRoughnessFactor": 0.04
        },
        "KHR_materials_specular": {
          "specularColorFactor": [
            1.0,
            1.0,
            1.0
          ],
          "specularFactor": 1.0,
          "specularTexture": {
            "index": 2
          }
        }
      },
      "name": "UTLTRUCK90_Bodymat",
      "normalTexture": {
        "index": 1
      },
      "occlusionTexture": {
        "index": 0
      },
      "pbrMetallicRoughness": {
        "baseColorFactor": [
          0.007283201675077524,
          0.016523728038096427,
          0.07228208966640523,
          1.0
        ],
        "metallicRoughnessTexture": {
          "extensions": {
            "KHR_texture_transform": {
              "scale": [
                20.000000000000004,
                20.000000000000004
              ]
            }
          },
          "index": 0
        },
        "roughnessFactor": 0.17690762518707168
      }
    },
    {
      "doubleSided": true,
      "name": "UCB_Interiors_1",
      "pbrMetallicRoughness": {
        "baseColorTexture": {
          "index": 3
        },
        "metallicRoughnessTexture": {
          "index": 4
        }
      }
    },
    {
      "alphaMode": "BLEND",
      "doubleSided": true,
      "name": "UCB_Lights_and_Glass_Transperent",
      "pbrMetallicRoughness": {
        "baseColorFactor": [
          1.0,
          1.0,
          1.0,
          0.8
        ],
        "baseColorTexture": {
          "index": 5
        },
        "metallicFactor": 0.0,
        "roughnessFactor": 0.030061379594943535
      }
    },
    {
      "doubleSided": true,
      "extensions": {
        "KHR_materials_specular": {
          "specularColorFactor": [
            1.0,
            1.0,
            1.0
          ],
          "specularFactor": 1.0,
          "specularTexture": {
            "index": 8
          }
        }
      },
      "name": "UCB_BOTTOM",
      "occlusionTexture": {
        "index": 7
      },
      "pbrMetallicRoughness": {
        "baseColorTexture": {
          "index": 6
        },
        "metallicRoughnessTexture": {
          "index": 7
        }
      }
    },
    {
      "doubleSided": true,
      "name": "UCB_Lights_and_Glass",
      "pbrMetallicRoughness": {
        "baseColorTexture": {
          "index": 5
        },
        "metallicFactor": 0.0,
        "roughnessFactor": 0.0543534184864978
      }
    },
    {
      "doubleSided": true,
      "extensions": {
        "KHR_materials_specular": {
          "specularColorFactor": [
            1.0,
            1.0,
            1.0
          ],
          "specularFactor": 1.0,
          "specularTexture": {
            "index": 11
          }
        }
      },
      "name": "RB1c_Tire_1k",
      "occlusionTexture": {
        "index": 10
      },
      "pbrMetallicRoughness": {
        "baseColorTexture": {
          "index": 9
        },
        "metallicFactor": 0.8,
        "metallicRoughnessTexture": {
          "index": 10
        }
      }
    },
    {
      "alphaMode": "BLEND",
      "doubleSided": true,
      "name": "Carbadges_misc_U",
      "pbrMetallicRoughness": {
        "baseColorTexture": {
          "index": 12
        },
        "metallicFactor": 0.7527495366186829,
        "roughnessFactor": 0.10702864035024488
      }
    },
    {
      "alphaMode": "BLEND",
      "doubleSided": true,
      "name": "Numberplates_Misk_U",
      "pbrMetallicRoughness": {
        "baseColorTexture": {
          "index": 13
        },
        "metallicFactor": 0.0,
        "roughnessFactor": 0.09157309832869233
      }
    }
  ],
  "meshes": [
    {
      "name": "UTLTRUCK90_Bumper_Front_UTLTRUCK90_Bodymat_0",
      "primitives": [
        {
          "attributes": {
            "NORMAL": 1,
            "POSITION": 0,
            "TANGENT": 2,
            "TEXCOORD_0": 3,
            "TEXCOORD_1": 4
          },
          "indices": 5,
          "material": 0,
          "mode": 4
        }
      ]
    },
    {
      "name": "UTLTRUCK90_Hood_UTLTRUCK90_Bodymat_0",
      "primitives": [
        {
          "attributes": {
            "NORMAL": 7,
            "POSITION": 6,
            "TANGENT": 8,
            "TEXCOORD_0": 9,
            "TEXCOORD_1": 10
          },
          "indices": 11,
          "material": 0,
          "mode": 4
        }
      ]
    },
    {
      "name": "UTLTRUCK90_Interior_UCB_Interiors_1_0",
      "primitives": [
        {
          "attributes": {
            "NORMAL": 13,
            "POSITION": 12,
            "TEXCOORD_0": 14,
            "TEXCOORD_1": 15
          },
          "indices": 16,
          "material": 1,
          "mode": 4
        }
      ]
    },
    {
      "name": "UTLTRUCK90_Body_UTLTRUCK90_Bodymat_0",
      "primitives": [
        {
          "attributes": {
            "NORMAL": 18,
            "POSITION": 17,
            "TANGENT": 19,
            "TEXCOORD_0": 20,
            "TEXCOORD_1": 21
          },
          "indices": 22,
          "material": 0,
          "mode": 4
        }
      ]
    },
    {
      "name": "UTLTRUCK90_Glass_Rear_UCB_Lights_and_Glass_Transperent_0",
      "primitives": [
        {
          "attributes": {
            "NORMAL": 24,
            "POSITION": 23,
            "TEXCOORD_0": 25
          },
          "indices": 26,
          "material": 2,
          "mode": 4
        }
      ]
    },
    {
      "name": "UTLTRUCK90_Windshield_UCB_Lights_and_Glass_Transperent_0",
      "primitives": [
        {
          "attributes": {
            "NORMAL": 28,
            "POSITION": 27,
            "TEXCOORD_0": 29
          },
          "indices": 30,
          "material": 2,
          "mode": 4
        }
      ]
    },
    {
      "name": "UTLTRUCK90_bottom_UCB_BOTTOM_0",
      "primitives": [
        {
          "attributes": {
            "NORMAL": 32,
            "POSITION": 31,
            "TEXCOORD_0": 33,
            "TEXCOORD_1": 34,
            "TEXCOORD_2": 35
          },
          "indices": 36,
          "material": 3,
          "mode": 4
        }
      ]
    },
    {
      "name": "UTLTRUCK90_Bumper_rear_UCB_BOTTOM_0",
      "primitives": [
        {
          "attributes": {
            "NORMAL": 38,
            "POSITION": 37,
            "TEXCOORD_0": 39,
            "TEXCOORD_1": 40,
            "TEXCOORD_2": 41
          },
          "indices": 42,
          "material": 3,
          "mode": 4
        }
      ]
    },
    {
      "name": "UTLTRUCK90_suspension_UCB_BOTTOM_0",
      "primitives": [
        {
          "attributes": {
            "NORMAL": 44,
            "POSITION": 43,
            "TEXCOORD_0": 45,
            "TEXCOORD_1": 46,
            "TEXCOORD_2": 47
          },
          "indices": 48,
          "material": 3,
          "mode": 4
        }
      ]
    },
    {
      "name": "UTLTRUCK90_Glass_Passenger_UCB_Lights_and_Glass_Transperent_0",
      "primitives": [
        {
          "attributes": {
            "NORMAL": 50,
            "POSITION": 49,
            "TEXCOORD_0": 51
          },
          "indices": 52,
          "material": 2,
          "mode": 4
        }
      ]
    },
    {
      "name": "UTLTRUCK90_Headlights_Glass_UCB_Lights_and_Glass_Transperent_0",
      "primitives": [
        {
          "attributes": {
            "NORMAL": 54,
            "POSITION": 53,
            "TEXCOORD_0": 55
          },
          "indices": 56,
          "material": 2,
          "mode": 4
        }
      ]
    },
    {
      "name": "UTLTRUCK90_Bumper_front_inner_UCB_BOTTOM_0",
      "primitives": [
        {
          "attributes": {
            "NORMAL": 58,
            "POSITION": 57,
            "TEXCOORD_0": 59,
            "TEXCOORD_1": 60,
            "TEXCOORD_2": 61
          },
          "indices": 62,
          "material": 3,
          "mode": 4
        }
      ]
    },
    {
      "name": "UTLTRUCK90_Truckbed_UTLTRUCK90_Bodymat_0",
      "primitives": [
        {
          "attributes": {
            "NORMAL": 64,
            "POSITION": 63,
            "TANGENT": 65,
            "TEXCOORD_0": 66,
            "TEXCOORD_1": 67
          },
          "indices": 68,
          "material": 0,
          "mode": 4
        }
      ]
    },
    {
      "name": "UTLTRUCK90_Truckbed_Trim_UCB_BOTTOM_0",
      "primitives": [
        {
          "attributes": {
            "NORMAL": 70,
            "POSITION": 69,
            "TEXCOORD_0": 71,
            "TEXCOORD_1": 72,
            "TEXCOORD_2": 73
          },
          "indices": 74,
          "material": 3,
          "mode": 4
        }
      ]
    },
    {
      "name": "UTLTRUCK90_Glass_Driver_UCB_Lights_and_Glass_Transperent_0",
      "primitives": [
        {
          "attributes": {
            "NORMAL": 76,
            "POSITION": 75,
            "TEXCOORD_0": 77
          },
          "indices": 78,
          "material": 2,
          "mode": 4
        }
      ]
    },
    {
      "name": "UTLTRUCK90_Steering_Wheel_UCB_Interiors_1_0",
      "primitives": [
        {
          "attributes": {
            "NORMAL": 80,
            "POSITION": 79,
            "TEXCOORD_0": 81,
            "TEXCOORD_1": 82
          },
          "indices": 83,
          "material": 1,
          "mode": 4
        }
      ]
    },
    {
      "name": "UTLTRUCK90_Headlights_UCB_Lights_and_Glass_0",
      "primitives": [
        {
          "attributes": {
            "NORMAL": 85,
            "POSITION": 84,
            "TEXCOORD_0": 86
          },
          "indices": 87,
          "material": 4,
          "mode": 4
        }
      ]
    },
    {
      "name": "UTLTRUCK90_Blinkers_UCB_Lights_and_Glass_0",
      "primitives": [
        {
          "attributes": {
            "NORMAL": 89,
            "POSITION": 88,
            "TEXCOORD_0": 90
          },
          "indices": 91,
          "material": 4,
          "mode": 4
        }
      ]
    },
    {
      "name": "UTLTRUCK90_Bullbar_B_UCB_BOTTOM_0",
      "primitives": [
        {
          "attributes": {
            "NORMAL": 93,
            "POSITION": 92,
            "TEXCOORD_0": 94,
            "TEXCOORD_1": 95,
            "TEXCOORD_2": 96
          },
          "indices": 97,
          "material": 3,
          "mode": 4
        }
      ]
    },
    {
      "name": "UTLTRUCK90_Taillights_Glass_UCB_Lights_and_Glass_Transperent_0",
      "primitives": [
        {
          "attributes": {
            "NORMAL": 99,
            "POSITION": 98,
            "TEXCOORD_0": 100
          },
          "indices": 101,
          "material": 2,
          "mode": 4
        }
      ]
    },
    {
      "name": "UTLTRUCK90_Reverse_UCB_Lights_and_Glass_0",
      "primitives": [
        {
          "attributes": {
            "NORMAL": 103,
            "POSITION": 102,
            "TEXCOORD_0": 104
          },
          "indices": 105,
          "material": 4,
          "mode": 4
        }
      ]
    },
    {
      "name": "UTLTRUCK90_Brakelights_UCB_Lights_and_Glass_0",
      "primitives": [
        {
          "attributes": {
            "NORMAL": 107,
            "POSITION": 106,
            "TEXCOORD_0": 108
          },
          "indices": 109,
          "material": 4,
          "mode": 4
        }
      ]
    },
    {
      "name": "UTLTRUCK90_WheelStock_FL_RB1c_Tire_1k_0",
      "primitives": [
        {
          "attributes": {
            "NORMAL": 111,
            "POSITION": 110,
            "TEXCOORD_0": 112,
            "TEXCOORD_1": 113
          },
          "indices": 114,
          "material": 5,
          "mode": 4
        }
      ]
    },
    {
      "name": "UTLTRUCK90_WheelStock_RL_RB1c_Tire_1k_0",
      "primitives": [
        {
          "attributes": {
            "NORMAL": 116,
            "POSITION": 115,
            "TEXCOORD_0": 117,
            "TEXCOORD_1": 118
          },
          "indices": 119,
          "material": 5,
          "mode": 4
        }
      ]
    },
    {
      "name": "UTLTRUCK90_WheelStock_RR_RB1c_Tire_1k_0",
      "primitives": [
        {
          "attributes": {
            "NORMAL": 121,
            "POSITION": 120,
            "TEXCOORD_0": 122,
            "TEXCOORD_1": 123
          },
          "indices": 124,
          "material": 5,
          "mode": 4
        }
      ]
    },
    {
      "name": "UTLTRUCK90_WheelStock_FR_RB1c_Tire_1k_0",
      "primitives": [
        {
          "attributes": {
            "NORMAL": 126,
            "POSITION": 125,
            "TEXCOORD_0": 127,
            "TEXCOORD_1": 128
          },
          "indices": 129,
          "material": 5,
          "mode": 4
        }
      ]
    },
    {
      "name": "UTLTRUCK90_Badges_Body_Carbadges_misc_U_0",
      "primitives": [
        {
          "attributes": {
            "NORMAL": 131,
            "POSITION": 130,
            "TEXCOORD_0": 132,
            "TEXCOORD_1": 133
          },
          "indices": 134,
          "material": 6,
          "mode": 4
        }
      ]
    },
    {
      "name": "UTLTRUCK90_Truck_Numberplate_Front_Numberplates_Misk_U_0",
      "primitives": [
        {
          "attributes": {
            "NORMAL": 136,
            "POSITION": 135,
            "TEXCOORD_0": 137,
            "TEXCOORD_1": 138
          },
          "indices": 139,
          "material": 7,
          "mode": 4
        }
      ]
    },
    {
      "name": "UTLTRUCK90_Truck_Numberplate_rear_Numberplates_Misk_U_0",
      "primitives": [
        {
          "attributes": {
            "NORMAL": 141,
            "POSITION": 140,
            "TEXCOORD_0": 142,
            "TEXCOORD_1": 143
          },
          "indices": 144,
          "material": 7,
          "mode": 4
        }
      ]
    }
  ],
  "nodes": [
    {
      "children": [
        1
      ],
      "matrix": [
        1.0,
        0.0,
        0.0,
        0.0,
        0.0,
        2.220446049250313e-16,
        -1.0,
        0.0,
        0.0,
        1.0,
        2.220446049250313e-16,
        0.0,
        0.0,
        0.0,
        0.0,
        1.0
      ],
      "name": "Sketchfab_model"
    },
    {
      "children": [
        2
      ],
      "matrix": [
        1.0,
        0.0,
        0.0,
        0.0,
        0.0,
        0.0,
        1.0,
        0.0,
        0.0,
        -1.0,
        0.0,
        0.0,
        0.0,
        0.0,
        0.0,
        1.0
      ],
      "name": "d988a278d36d485397ccafc87b4d0397.fbx"
    },
    {
      "children": [
        3,
        6,
        9,
        12,
        15,
        18,
        21,
        24,
        27,
        30,
        33,
        36,
        39,
        42,
        45,
        48,
        51,
        54,
        57,
        60,
        63,
        66,
        69,
        72,
        75,
        78,
        81,
        84,
        87
      ],
      "name": "RootNode"
    },
    {
      "children": [
        4
      ],
      "matrix": [
        -0.99979259685375,
        0.020365737806723683,
        1.509644843152679e-07,
        0.0,
        0.020365737806698578,
        0.9997925968537481,
        -1.6599582920473918e-07,
        0.0,
        -1.4979302715947424e-07,
        -1.5811496658297632e-07,
        -0.9707040190696473,
        0.0,
        2.4782180786132813,
        0.7017393708229065,
        -1.5704806344274402e-07,
        1.0
      ],
      "name": "UTLTRUCK90_Bumper_Front"
    },
    {
      "children": [
        5
      ],
      "matrix": [
        1.0,
        0.0,
        -0.0,
        0.0,
        0.0,
        1.0,
        0.0,
        0.0,
        0.0,
        0.0,
        1.0,
        0.0,
        0.9395127296447754,
        0.3755832612514496,
        0.7999217510223389,
        1.0
      ],
      "name": "Object_4"
    },
    {
      "mesh": 0,
      "name": "UTLTRUCK90_Bumper_Front_UTLTRUCK90_Bodymat_0"
    },
    {
      "children": [
        7
      ],
      "matrix": [
        -0.99979259685375,
        0.020365737806723683,
        1.509644843152679e-07,
        0.0,
        0.020365737806698578,
        0.9997925968537481,
        -1.6599582920473918e-07,
        0.0,
        -1.4979302715947424e-07,
        -1.5811496658297632e-07,
        -0.9707040190696473,
        0.0,
        2.0529909133911133,
        1.1001529693603516,
        -1.198735191110245e-07,
        1.0
      ],
      "name": "UTLTRUCK90_Hood"
    },
    {
      "children": [
        8
      ],
      "matrix": [
        1.0,
        0.0,
        -0.0,
        0.0,
        0.0,
        1.0,
        0.0,
        0.0,
        0.0,
        0.0,
        1.0,
        0.0,
        0.5006628632545471,
        0.024050375446677208,
        0.7999218702316284,
        1.0
      ],
      "name": "Object_7"
    },
    {
      "mesh": 1,
      "name": "UTLTRUCK90_Hood_UTLTRUCK90_Bodymat_0"
    },
    {
      "children": [
        10
      ],
      "matrix": [
        0.8491555766239204,
        -0.02332910101460595,
        0.0,
        0.0,
        3.057665452527555e-09,
        1.1129591613344474e-07,
        -1.0051749944686827,
        0.0,
        0.025161017209927836,
        0.9158354650684573,
        1.0148051992511195e-07,
        0.0,
        0.8721755743026733,
        1.1072609424591064,
        -1.664336224393992e-08,
        1.0
      ],
      "name": "UTLTRUCK90_Interior"
    },
    {
      "children": [
        11
      ],
      "matrix": [
        1.0,
        0.0,
        -0.0,
        0.0,
        0.0,
        1.0,
        0.0,
        0.0,
        0.0,
        0.0,
        1.0,
        0.0,
        -2.722299098968506,
        -0.41102123260498047,
        -0.9578639268875122,
        1.0
      ],
      "name": "Object_10"
    },
    {
      "mesh": 2,
      "name": "UTLTRUCK90_Interior_UCB_Interiors_1_0"
    },
    {
      "children": [
        13
      ],
      "matrix": [
        -0.99979259685375,
        0.020365737806723683,
        1.509644843152679e-07,
        0.0,
        0.020365737806698578,
        0.9997925968537481,
        -1.6599582920473918e-07,
        0.0,
        -1.4979302715947424e-07,
        -1.5811496658297632e-07,
        -0.9707040190696473,
        0.0,
        1.3834162950515747,
        1.169945478439331,
        -2.4015139388211537e-07,
        1.0
      ],
      "name": "UTLTRUCK90_Body"
    },
    {
      "children": [
        14
      ],
      "matrix": [
        1.0,
        0.0,
        -0.0,
        0.0,
        0.0,
        1.0,
        0.0,
        0.0,
        0.0,
        0.0,
        1.0,
        0.0,
        -0.17019498348236084,
        -0.03209109976887703,
        0.7999216318130493,
        1.0
      ],
      "name": "Object_13"
    },
    {
      "mesh": 3,
      "name": "UTLTRUCK90_Body_UTLTRUCK90_Bodymat_0"
    },
    {
      "children": [
        16
      ],
      "matrix": [
        -0.99979259685375,
        0.020365737806723683,
        1.5096448431526795e-07,
        0.0,
        0.020365737806698578,
        0.9997925968537481,
        -1.6599582431975787e-07,
        0.0,
        -1.4979302706290256e-07,
        -1.5811496184208882e-07,
        -0.9707040190696473,
        0.0,
        0.23364365100860596,
        1.4191350936889648,
        0.0032275114208459854,
        1.0
      ],
      "name": "UTLTRUCK90_Glass_Rear"
    },
    {
      "children": [
        17
      ],
      "matrix": [
        1.0,
        0.0,
        -0.0,
        0.0,
        0.0,
        1.0,
        0.0,
        0.0,
        0.0,
        0.0,
        1.0,
        0.0,
        -1.5810977220535278,
        -0.26013022661209106,
        0.7999218106269836,
        1.0
      ],
      "name": "Object_16"
    },
    {
      "mesh": 4,
      "name": "UTLTRUCK90_Glass_Rear_UCB_Lights_and_Glass_Transperent_0"
    },
    {
      "children": [
        19
      ],
      "matrix": [
        -0.99979259685375,
        0.020365737806723683,
        1.5096448431526795e-07,
        0.0,
        0.020365737806698578,
        0.9997925968537481,
        -1.6599582431975787e-07,
        0.0,
        -1.4979302706290256e-07,
        -1.5811496184208882e-07,
        -0.9707040190696473,
        0.0,
        1.2536828517913818,
        1.4273920059204102,
        -1.6920508016937674e-07,
        1.0
      ],
      "name": "UTLTRUCK90_Windshield"
    },
    {
      "children": [
        20
      ],
      "matrix": [
        1.0,
        0.0,
        -0.0,
        0.0,
        0.0,
        1.0,
        0.0,
        0.0,
        0.0,
        0.0,
        1.0,
        0.0,
        -0.30514389276504517,
        -0.28684201836586,
        0.7999218106269836,
        1.0
      ],
      "name": "Object_19"
    },
    {
      "mesh": 5,
      "name": "UTLTRUCK90_Windshield_UCB_Lights_and_Glass_Transperent_0"
    },
    {
      "children": [
        22
      ],
      "matrix": [
        1.8814082209497093e-07,
        1.5283651501850606e-23,
        1.1548000574111785,
        0.0,
        -1.88140821896048e-07,
        1.1548000574111785,
        3.065203248032987e-14,
        0.0,
        -1.154800057411163,
        -1.8814082189605048e-07,
        1.8814082209497093e-07,
        0.0,
        0.15758287906646729,
        0.9613364934921265,
        1.0543296014020598e-07,
        1.0
      ],
      "name": "UTLTRUCK90_bottom"
    },
    {
      "children": [
        23
      ],
      "matrix": [
        1.0,
        0.0,
        -0.0,
        0.0,
        0.0,
        1.0,
        0.0,
        0.0,
        0.0,
        0.0,
        1.0,
        0.0,
        2.162992000579834,
        -0.3661850690841675,
        2.2802584171295166,
        1.0
      ],
      "name": "Object_22"
    },
    {
      "mesh": 6,
      "name": "UTLTRUCK90_bottom_UCB_BOTTOM_0"
    },
    {
      "children": [
        25
      ],
      "matrix": [
        -0.9999999999999889,
        -1.2246467991473673e-16,
        1.5099580265055075e-07,
        0.0,
        -2.4722804222688385e-14,
        0.9999999999999867,
        -1.629206846213195e-07,
        0.0,
        -1.5099580265054873e-07,
        -1.6292068462132135e-07,
        -0.9999999999999756,
        0.0,
        -2.41865873336792,
        0.5471120476722717,
        0.0019663898274302483,
        1.0
      ],
      "name": "UTLTRUCK90_Bumper_rear"
    },
    {
      "children": [
        26
      ],
      "matrix": [
        1.0,
        0.0,
        -0.0,
        0.0,
        0.0,
        1.0,
        0.0,
        0.0,
        0.0,
        0.0,
        1.0,
        0.0,
        -0.09033440798521042,
        -0.039238885045051575,
        0.8657707571983337,
        1.0
      ],
      "name": "Object_25"
    },
    {
      "mesh": 7,
      "name": "UTLTRUCK90_Bumper_rear_UCB_BOTTOM_0"
    },
    {
      "children": [
        28
      ],
      "matrix": [
        -0.9058030225549095,
        -6.333033919674421e-05,
        1.36772458858802e-07,
        0.0,
        -6.333033921902573e-05,
        0.9058030225549077,
        -1.4756448767245822e-07,
        0.0,
        -1.2633847415250712e-07,
        -1.363263261709004e-07,
        -0.8367649912833961,
        0.0,
        0.2921867370605469,
        0.4569022059440613,
        -0.004131760448217392,
        1.0
      ],
      "name": "UTLTRUCK90_suspension"
    },
    {
      "children": [
        29
      ],
      "matrix": [
        1.0,
        0.0,
        -0.0,
        0.0,
        0.0,
        1.0,
        0.0,
        0.0,
        0.0,
        0.0,
        1.0,
        0.0,
        -1.3434332609176636,
        0.7066109776496887,
        0.799246072769165,
        1.0
      ],
      "name": "Object_28"
    },
    {
      "mesh": 8,
      "name": "UTLTRUCK90_suspension_UCB_BOTTOM_0"
    },
    {
      "children": [
        31
      ],
      "matrix": [
        -0.99979259685375,
        0.020365737806723683,
        1.5096448431526795e-07,
        0.0,
        0.020365737806698578,
        0.9997925968537481,
        -1.6599582431975787e-07,
        0.0,
        -1.4979302706290256e-07,
        -1.5811496184208882e-07,
        -0.9707040190696473,
        0.0,
        0.8051058053970337,
        1.4046566486358643,
        0.6867202520370483,
        1.0
      ],
      "name": "UTLTRUCK90_Glass_Passenger"
    },
    {
      "children": [
        32
      ],
      "matrix": [
        1.0,
        0.0,
        -0.0,
        0.0,
        0.0,
        1.0,
        0.0,
        0.0,
        0.0,
        0.0,
        1.0,
        0.0,
        -0.7531648278236389,
        -0.2549757659435272,
        1.5073673725128174,
        1.0
      ],
      "name": "Object_31"
    },
    {
      "mesh": 9,
      "name": "UTLTRUCK90_Glass_Passenger_UCB_Lights_and_Glass_Transperent_0"
    },
    {
      "children": [
        34
      ],
      "matrix": [
        -0.9576325026435593,
        0.08805135389843782,
        -5.403536395594992e-07,
        0.0,
        0.08938630981909569,
        0.9721512706415426,
        -1.0861453510255525e-07,
        0.0,
        5.205857836642469e-07,
        -1.5374358513641196e-07,
        -0.9476519823072785,
        0.0,
        2.549799919128418,
        0.8673820495605469,
        -1.0370129643888504e-07,
        1.0
      ],
      "name": "UTLTRUCK90_Headlights_Glass"
    },
    {
      "children": [
        35
      ],
      "matrix": [
        1.0,
        0.0,
        -0.0,
        0.0,
        0.0,
        1.0,
        0.0,
        0.0,
        0.0,
        0.0,
        1.0,
        0.0,
        1.0169179439544678,
        0.24440842866897583,
        0.7928513288497925,
        1.0
      ],
      "name": "Object_34"
    },
    {
      "mesh": 10,
      "name": "UTLTRUCK90_Headlights_Glass_UCB_Lights_and_Glass_Transperent_0"
    },
    {
      "children": [
        37
      ],
      "matrix": [
        -0.99979259685375,
        0.020365737806723683,
        1.5096448431526795e-07,
        0.0,
        0.020365737806698578,
        0.9997925968537481,
        -1.6599582431975787e-07,
        0.0,
        -1.4979302706290256e-07,
        -1.5811496184208882e-07,
        -0.9707040190696473,
        0.0,
        2.474642753601074,
        0.5262258648872375,
        -2.1634014046867378e-07,
        1.0
      ],
      "name": "UTLTRUCK90_Bumper_front_inner"
    },
    {
      "children": [
        38
      ],
      "matrix": [
        1.0,
        0.0,
        -0.0,
        0.0,
        0.0,
        1.0,
        0.0,
        0.0,
        0.0,
        0.0,
        1.0,
        0.0,
        0.9395127296447754,
        0.5511331558227539,
        0.7999217510223389,
        1.0
      ],
      "name": "Object_37"
    },
    {
      "mesh": 11,
      "name": "UTLTRUCK90_Bumper_front_inner_UCB_BOTTOM_0"
    },
    {
      "children": [
        40
      ],
      "matrix": [
        -1.0167210102081186,
        -1.2451241307772478e-16,
        1.535206054595702e-07,
        0.0,
        -2.5136195580683325e-14,
        1.0167210102081163,
        -1.6564488982471055e-07,
        0.0,
        -1.5352060545956817e-07,
        -1.6564488982471243e-07,
        -1.016721010208105,
        0.0,
        -1.0930233001708984,
        0.8416012525558472,
        -0.0005228755762800574,
        1.0
      ],
      "name": "UTLTRUCK90_Truckbed"
    },
    {
      "children": [
        41
      ],
      "matrix": [
        1.0,
        0.0,
        -0.0,
        0.0,
        0.0,
        1.0,
        0.0,
        0.0,
        0.0,
        0.0,
        1.0,
        0.0,
        -1.730247974395752,
        -0.028711989521980286,
        0.8395949006080627,
        1.0
      ],
      "name": "Object_40"
    },
    {
      "mesh": 12,
      "name": "UTLTRUCK90_Truckbed_UTLTRUCK90_Bodymat_0"
    },
    {
      "children": [
        43
      ],
      "matrix": [
        -1.0167210102081186,
        -1.2451241307772478e-16,
        1.535206054595702e-07,
        0.0,
        -2.5136195580683325e-14,
        1.0167210102081163,
        -1.6564488982471055e-07,
        0.0,
        -1.5352060545956817e-07,
        -1.6564488982471243e-07,
        -1.016721010208105,
        0.0,
        -1.0922799110412598,
        0.8663565516471863,
        -0.0005228756926953793,
        1.0
      ],
      "name": "UTLTRUCK90_Truckbed_Trim"
    },
    {
      "children": [
        44
      ],
      "matrix": [
        1.0,
        0.0,
        -0.0,
        0.0,
        0.0,
        1.0,
        0.0,
        0.0,
        0.0,
        0.0,
        1.0,
        0.0,
        -1.729516625404358,
        -0.05306015908718109,
        0.8395949006080627,
        1.0
      ],
      "name": "Object_43"
    },
    {
      "mesh": 13,
      "name": "UTLTRUCK90_Truckbed_Trim_UCB_BOTTOM_0"
    },
    {
      "children": [
        46
      ],
      "matrix": [
        -0.99979259685375,
        0.020365737806723683,
        1.5096448431526795e-07,
        0.0,
        0.020365737806698578,
        0.9997925968537481,
        -1.6599582431975787e-07,
        0.0,
        -1.4979302706290256e-07,
        -1.5811496184208882e-07,
        -0.9707040190696473,
        0.0,
        0.8051058053970337,
        1.4046566486358643,
        -0.6867203116416931,
        1.0
      ],
      "name": "UTLTRUCK90_Glass_Driver"
    },
    {
      "children": [
        47
      ],
      "matrix": [
        1.0,
        0.0,
        -0.0,
        0.0,
        0.0,
        1.0,
        0.0,
        0.0,
        0.0,
        0.0,
        1.0,
        0.0,
        -0.7531648278236389,
        -0.2549758851528168,
        0.09247636795043945,
        1.0
      ],
      "name": "Object_46"
    },
    {
      "mesh": 14,
      "name": "UTLTRUCK90_Glass_Driver_UCB_Lights_and_Glass_Transperent_0"
    },
    {
      "children": [
        49
      ],
      "matrix": [
        0.8491555765666061,
        -0.023329103100786515,
        0.0,
        0.0,
        3.057666120364908e-09,
        1.1129593052943739e-07,
        -1.0051749944686827,
        0.0,
        0.0251610194599256,
        0.9158354650066423,
        1.014805331482605e-07,
        0.0,
        0.9220377206802368,
        1.1443207263946533,
        -0.3786928951740265,
        1.0
      ],
      "name": "UTLTRUCK90_Steering_Wheel"
    },
    {
      "children": [
        50
      ],
      "matrix": [
        1.0,
        0.0,
        -0.0,
        0.0,
        0.0,
        1.0,
        0.0,
        0.0,
        0.0,
        0.0,
        1.0,
        0.0,
        -2.7797763347625732,
        -0.7877645492553711,
        -0.9997937083244324,
        1.0
      ],
      "name": "Object_49"
    },
    {
      "mesh": 15,
      "name": "UTLTRUCK90_Steering_Wheel_UCB_Interiors_1_0"
    },
    {
      "children": [
        52
      ],
      "matrix": [
        1.8814082209497093e-07,
        1.5283651501850606e-23,
        1.1548000574111785,
        0.0,
        -1.88140821896048e-07,
        1.1548000574111785,
        3.065203248032987e-14,
        0.0,
        -1.154800057411163,
        -1.8814082189605048e-07,
        1.8814082209497093e-07,
        0.0,
        2.585677146911621,
        0.8662773370742798,
        1.3158080491848523e-07,
        1.0
      ],
      "name": "UTLTRUCK90_Headlights"
    },
    {
      "children": [
        53
      ],
      "matrix": [
        1.0,
        0.0,
        -0.0,
        0.0,
        0.0,
        1.0,
        0.0,
        0.0,
        0.0,
        0.0,
        1.0,
        0.0,
        2.162992000579834,
        -0.2838681638240814,
        4.382868766784668,
        1.0
      ],
      "name": "Object_52"
    },
    {
      "mesh": 16,
      "name": "UTLTRUCK90_Headlights_UCB_Lights_and_Glass_0"
    },
    {
      "children": [
        55
      ],
      "matrix": [
        1.8814082209497093e-07,
        1.5283651501850606e-23,
        1.1548000574111785,
        0.0,
        -1.88140821896048e-07,
        1.1548000574111785,
        3.065203248032987e-14,
        0.0,
        -1.154800057411163,
        -1.8814082189605048e-07,
        1.8814082209497093e-07,
        0.0,
        0.11969029903411865,
        0.7556929588317871,
        3.4716424579528393e-07,
        1.0
      ],
      "name": "UTLTRUCK90_Blinkers"
    },
    {
      "children": [
        56
      ],
      "matrix": [
        1.0,
        0.0,
        -0.0,
        0.0,
        0.0,
        1.0,
        0.0,
        0.0,
        0.0,
        0.0,
        1.0,
        0.0,
        2.162991762161255,
        -0.18810789287090302,
        2.2474453449249268,
        1.0
      ],
      "name": "Object_55"
    },
    {
      "mesh": 17,
      "name": "UTLTRUCK90_Blinkers_UCB_Lights_and_Glass_0"
    },
    {
      "children": [
        58
      ],
      "matrix": [
        -1.0167210102081186,
        -1.2451241307772478e-16,
        1.535206054595702e-07,
        0.0,
        -2.5136195580683325e-14,
        1.0167210102081163,
        -1.6564488982471055e-07,
        0.0,
        -1.5352060545956817e-07,
        -1.6564488982471243e-07,
        -1.016721010208105,
        0.0,
        2.6725215911865234,
        0.746512234210968,
        -0.0005231451941654086,
        1.0
      ],
      "name": "UTLTRUCK90_Bullbar_B"
    },
    {
      "children": [
        59
      ],
      "matrix": [
        1.0,
        0.0,
        -0.0,
        0.0,
        0.0,
        1.0,
        0.0,
        0.0,
        0.0,
        0.0,
        1.0,
        0.0,
        1.973367691040039,
        0.06481315940618515,
        0.8395949602127075,
        1.0
      ],
      "name": "Object_58"
    },
    {
      "mesh": 18,
      "name": "UTLTRUCK90_Bullbar_B_UCB_BOTTOM_0"
    },
    {
      "children": [
        61
      ],
      "matrix": [
        -0.9576325024639318,
        0.0880513558520398,
        -5.403536624229527e-07,
        0.0,
        0.08938631180231643,
        0.9721512704591917,
        -1.0861453206775434e-07,
        0.0,
        5.205858060558268e-07,
        -1.5374358532777873e-07,
        -0.9476519823072788,
        0.0,
        -2.3755640983581543,
        0.608989953994751,
        5.057016210230358e-07,
        1.0
      ],
      "name": "UTLTRUCK90_Taillights_Glass"
    },
    {
      "children": [
        62
      ],
      "matrix": [
        1.0,
        0.0,
        -0.0,
        0.0,
        0.0,
        1.0,
        0.0,
        0.0,
        0.0,
        0.0,
        1.0,
        0.0,
        -4.058636665344238,
        0.9699143767356873,
        0.792853832244873,
        1.0
      ],
      "name": "Object_61"
    },
    {
      "mesh": 19,
      "name": "UTLTRUCK90_Taillights_Glass_UCB_Lights_and_Glass_Transperent_0"
    },
    {
      "children": [
        64
      ],
      "matrix": [
        -0.9999999999999889,
        -1.2246467991473673e-16,
        1.5099580265055075e-07,
        0.0,
        -2.4722804222688385e-14,
        0.9999999999999867,
        -1.629206846213195e-07,
        0.0,
        -1.5099580265054873e-07,
        -1.6292068462132135e-07,
        -0.9999999999999756,
        0.0,
        -2.356377601623535,
        0.6082354187965393,
        4.444196406439005e-07,
        1.0
      ],
      "name": "UTLTRUCK90_Reverse"
    },
    {
      "children": [
        65
      ],
      "matrix": [
        1.0,
        0.0,
        -0.0,
        0.0,
        0.0,
        1.0,
        0.0,
        0.0,
        0.0,
        0.0,
        1.0,
        0.0,
        -0.02805303782224655,
        -0.10036225616931915,
        0.863804817199707,
        1.0
      ],
      "name": "Object_64"
    },
    {
      "mesh": 20,
      "name": "UTLTRUCK90_Reverse_UCB_Lights_and_Glass_0"
    },
    {
      "children": [
        67
      ],
      "matrix": [
        -0.9999999999999889,
        -1.2246467991473673e-16,
        1.5099580265055075e-07,
        0.0,
        -2.4722804222688385e-14,
        0.9999999999999867,
        -1.629206846213195e-07,
        0.0,
        -1.5099580265054873e-07,
        -1.6292068462132135e-07,
        -0.9999999999999756,
        0.0,
        -2.356757640838623,
        0.6082354187965393,
        4.4445289404393407e-07,
        1.0
      ],
      "name": "UTLTRUCK90_Brakelights"
    },
    {
      "children": [
        68
      ],
      "matrix": [
        1.0,
        0.0,
        -0.0,
        0.0,
        0.0,
        1.0,
        0.0,
        0.0,
        0.0,
        0.0,
        1.0,
        0.0,
        -0.028433315455913544,
        -0.10036225616931915,
        0.863804817199707,
        1.0
      ],
      "name": "Object_67"
    },
    {
      "mesh": 21,
      "name": "UTLTRUCK90_Brakelights_UCB_Lights_and_Glass_0"
    },
    {
      "children": [
        70
      ],
      "matrix": [
        -1.0585529804217109,
        -1.6093250466951341e-06,
        2.8909823049739236e-07,
        0.0,
        2.8499473568570635e-07,
        3.732661152187377e-08,
        1.0435279607772434,
        0.0,
        -1.6093250570360103e-06,
        1.0585529804217497,
        -3.786361164997626e-08,
        0.0,
        1.9283982515335083,
        0.3847966194152832,
        -0.7942749857902527,
        1.0
      ],
      "name": "UTLTRUCK90_WheelStock_FL"
    },
    {
      "children": [
        71
      ],
      "matrix": [
        1.0,
        0.0,
        -0.0,
        0.0,
        0.0,
        1.0,
        0.0,
        0.0,
        0.0,
        0.0,
        1.0,
        0.0,
        2.928472131458193e-09,
        -0.029371779412031174,
        -1.5101363715075422e-08,
        1.0
      ],
      "name": "Object_70"
    },
    {
      "mesh": 22,
      "name": "UTLTRUCK90_WheelStock_FL_RB1c_Tire_1k_0"
    },
    {
      "children": [
        73
      ],
      "matrix": [
        -1.0585529804229163,
        -6.088777140209706e-08,
        3.4492034161514647e-07,
        0.0,
        2.156147657169018e-07,
        -1.4693068930947542e-16,
        0.6617169976234085,
        0.0,
        -6.088777140209387e-08,
        1.058552980422972,
        1.9508816201409387e-14,
        0.0,
        -1.2329707145690918,
        0.3847939968109131,
        -0.7736597657203674,
        1.0
      ],
      "name": "UTLTRUCK90_WheelStock_RL"
    },
    {
      "children": [
        74
      ],
      "matrix": [
        1.0,
        0.0,
        -0.0,
        0.0,
        0.0,
        1.0,
        0.0,
        0.0,
        0.0,
        0.0,
        1.0,
        0.0,
        3.015834693087527e-08,
        -0.22670847177505493,
        1.5258800445394627e-08,
        1.0
      ],
      "name": "Object_73"
    },
    {
      "mesh": 23,
      "name": "UTLTRUCK90_WheelStock_RL_RB1c_Tire_1k_0"
    },
    {
      "children": [
        76
      ],
      "matrix": [
        -1.0585529804229161,
        -6.088777140209709e-08,
        3.449203416151464e-07,
        0.0,
        -2.1561478719363892e-07,
        3.733803992496712e-07,
        -0.6617169976233032,
        0.0,
        6.088757677734978e-08,
        -1.0585529804228035,
        -5.972990707128943e-07,
        0.0,
        -1.2329707145690918,
        0.3847939968109131,
        0.7724766135215759,
        1.0
      ],
      "name": "UTLTRUCK90_WheelStock_RR"
    },
    {
      "children": [
        77
      ],
      "matrix": [
        1.0,
        0.0,
        -0.0,
        0.0,
        0.0,
        1.0,
        0.0,
        0.0,
        0.0,
        0.0,
        1.0,
        0.0,
        3.015851746113185e-08,
        -0.22670847177505493,
        1.5258741825618927e-08,
        1.0
      ],
      "name": "Object_76"
    },
    {
      "mesh": 24,
      "name": "UTLTRUCK90_WheelStock_RR_RB1c_Tire_1k_0"
    },
    {
      "children": [
        79
      ],
      "matrix": [
        -1.058552980422227,
        1.192092761087099e-06,
        4.007433294538118e-07,
        0.0,
        -3.950545883686979e-07,
        5.514946545664726e-07,
        -1.0435279607770624,
        0.0,
        -1.1920929728759055e-06,
        -1.0585529804221547,
        -5.594347842459143e-07,
        0.0,
        1.9283987283706665,
        0.3847966194152832,
        0.7928194403648376,
        1.0
      ],
      "name": "UTLTRUCK90_WheelStock_FR"
    },
    {
      "children": [
        80
      ],
      "matrix": [
        1.0,
        0.0,
        -0.0,
        0.0,
        0.0,
        1.0,
        0.0,
        0.0,
        0.0,
        0.0,
        1.0,
        0.0,
        4.467050729317634e-09,
        -0.029371779412031174,
        -1.5486005366938116e-08,
        1.0
      ],
      "name": "Object_79"
    },
    {
      "mesh": 25,
      "name": "UTLTRUCK90_WheelStock_FR_RB1c_Tire_1k_0"
    },
    {
      "children": [
        82
      ],
      "matrix": [
        -0.9999999999999889,
        -1.2246467991473673e-16,
        1.5099580265055075e-07,
        0.0,
        -2.4722804222688385e-14,
        0.9999999999999867,
        -1.629206846213195e-07,
        0.0,
        -1.5099580265054873e-07,
        -1.6292068462132135e-07,
        -0.9999999999999756,
        0.0,
        1.8856303691864014,
        0.8082886338233948,
        2.0935196516802534e-05,
        1.0
      ],
      "name": "UTLTRUCK90_Badges_Body"
    },
    {
      "children": [
        83
      ],
      "matrix": [
        1.0,
        0.0,
        -0.0,
        0.0,
        0.0,
        1.0,
        0.0,
        0.0,
        0.0,
        0.0,
        1.0,
        0.0,
        0.2241150140762329,
        0.6731820702552795,
        1.25406813621521,
        1.0
      ],
      "name": "Object_82"
    },
    {
      "mesh": 26,
      "name": "UTLTRUCK90_Badges_Body_Carbadges_misc_U_0"
    },
    {
      "children": [
        85
      ],
      "matrix": [
        3.2099551683373306e-08,
        -4.163336342344337e-17,
        -0.9999999999999994,
        0.0,
        0.1736482981476763,
        0.9848077317681942,
        5.574032485577973e-09,
        0.0,
        0.9848077317681937,
        -0.1736482981476764,
        3.1611886663895916e-08,
        0.0,
        2.714512825012207,
        0.5748436450958252,
        -0.0005232382100075483,
        1.0
      ],
      "name": "UTLTRUCK90_Truck_Numberplate_Front"
    },
    {
      "children": [
        86
      ],
      "matrix": [
        1.0,
        0.0,
        -0.0,
        0.0,
        0.0,
        1.0,
        0.0,
        0.0,
        0.0,
        0.0,
        1.0,
        0.0,
        0.4921662211418152,
        -0.4848644733428955,
        -0.002145316218957305,
        1.0
      ],
      "name": "Object_85"
    },
    {
      "mesh": 27,
      "name": "UTLTRUCK90_Truck_Numberplate_Front_Numberplates_Misk_U_0"
    },
    {
      "children": [
        88
      ],
      "matrix": [
        1.656240560254929e-07,
        -6.938893903907228e-18,
        0.9999999999999863,
        0.0,
        0.0871555650394989,
        0.9961947136391788,
        -1.4435058190431782e-08,
        0.0,
        -0.9961947136391652,
        0.08715556503950009,
        1.649938090597658e-07,
        0.0,
        -2.3659019470214844,
        0.5654305219650269,
        -0.24674738943576813,
        1.0
      ],
      "name": "UTLTRUCK90_Truck_Numberplate_rear"
    },
    {
      "children": [
        89
      ],
      "matrix": [
        1.0,
        0.0,
        -0.0,
        0.0,
        0.0,
        1.0,
        0.0,
        0.0,
        0.0,
        0.0,
        1.0,
        0.0,
        0.4921662211418152,
        -0.4848644733428955,
        -0.002145221456885338,
        1.0
      ],
      "name": "Object_88"
    },
    {
      "mesh": 28,
      "name": "UTLTRUCK90_Truck_Numberplate_rear_Numberplates_Misk_U_0"
    }
  ],
  "samplers": [
    {
      "magFilter": 9729,
      "minFilter": 9987,
      "wrapS": 10497,
      "wrapT": 10497
    }
  ],
  "scene": 0,
  "scenes": [
    {
      "name": "Sketchfab_Scene",
      "nodes": [
        0
      ]
    }
  ],
  "textures": [
    {
      "sampler": 0,
      "source": 0
    },
    {
      "sampler": 0,
      "source": 1
    },
    {
      "sampler": 0,
      "source": 2
    },
    {
      "sampler": 0,
      "source": 3
    },
    {
      "sampler": 0,
      "source": 4
    },
    {
      "sampler": 0,
      "source": 5
    },
    {
      "sampler": 0,
      "source": 6
    },
    {
      "sampler": 0,
      "source": 7
    },
    {
      "sampler": 0,
      "source": 8
    },
    {
      "sampler": 0,
      "source": 9
    },
    {
      "sampler": 0,
      "source": 10
    },
    {
      "sampler": 0,
      "source": 11
    },
    {
      "sampler": 0,
      "source": 12
    },
    {
      "sampler": 0,
      "source": 13
    }
  ]
}
